<svg preserveAspectRatio="none" width="100%" height="100%" overflow="visible" style="display: block;" viewBox="0 0 24 24.9109" fill="none" xmlns="http://www.w3.org/2000/svg">
<path id="Shoetip" d="M22.7668 9.76816C21.0009 7.5786 18.5319 5.45356 15.2985 3.53627L15.2862 3.52973C12.0266 1.65834 8.97115 0.559889 6.21184 0.109056C4.48986 -0.172369 3.6667 0.154578 3.29269 0.373305C2.91801 0.591563 2.22614 1.14822 1.60648 2.79612C0.613072 5.43651 0.0262425 8.65963 0 12.4485L0 12.4622C0.0262425 16.251 0.613072 19.4745 1.60648 22.1146C2.22614 23.7628 2.91801 24.3192 3.29269 24.5373C3.6667 24.756 4.48986 25.0834 6.21184 24.802C8.97115 24.351 12.0266 23.2526 15.2863 21.3815L15.2985 21.3744C18.5319 19.4573 21.0009 17.3321 22.7668 15.1423C23.8689 13.7759 24 12.8921 24 12.4553C24 12.0183 23.8689 11.135 22.7668 9.76816Z" fill="var(--fill-0, #FF4C00)"/>
</svg>
