<svg preserveAspectRatio="none" width="100%" height="100%" overflow="visible" style="display: block;" viewBox="0 0 235.754 274.884" fill="none" xmlns="http://www.w3.org/2000/svg">
<g id="The better side of money">
<path id="Vector" d="M216.43 252.908L230.147 221.384H235.754L218.628 260.486C214.309 270.413 210.747 274.884 203.699 274.884C202.032 274.884 200.668 274.657 199.304 274.202V269.504C200.744 270.035 201.881 270.186 203.245 270.186C207.261 270.186 209.989 268.292 213.096 260.411L213.551 259.198L194.985 221.384H200.896L216.203 252.908H216.43Z" fill="var(--fill-0, white)"/>
<path id="Vector_2" d="M195.24 239.647C195.24 240.405 195.24 241.087 195.088 242.072H161.215C161.972 249.953 167.504 255.257 175.613 255.257C182.357 255.257 186.525 252.832 188.42 248.134H194.179C191.981 255.788 185.54 259.956 175.613 259.956C163.715 259.956 155.683 251.923 155.683 240.177C155.683 228.583 164.019 220.323 175.689 220.323C187.207 220.323 195.24 228.431 195.24 239.647ZM175.689 225.021C167.883 225.021 162.351 230.174 161.29 237.601H189.784C189.253 230.174 183.494 225.021 175.689 225.021Z" fill="var(--fill-0, white)"/>
<path id="Vector_3" d="M118.634 258.971H113.48V221.384H118.406V227.598H118.634C121.513 223.203 126.818 220.626 133.032 220.626C143.338 220.626 149.627 226.992 149.627 237.449V258.971H144.399V239.116C144.399 230.023 140.155 225.324 132.198 225.324C123.862 225.324 118.634 231.084 118.634 239.571V258.971Z" fill="var(--fill-0, white)"/>
<path id="Vector_4" d="M87.1692 259.956C75.3476 259.956 67.3907 251.772 67.3907 240.177C67.3907 228.583 75.3476 220.323 87.1692 220.323C98.9908 220.323 106.948 228.583 106.948 240.177C106.948 251.772 98.9908 259.956 87.1692 259.956ZM87.1692 255.257C96.1112 255.257 101.567 248.968 101.567 240.177C101.567 231.387 96.1112 225.021 87.1692 225.021C78.2272 225.021 72.8468 231.387 72.8468 240.177C72.8468 248.968 78.2272 255.257 87.1692 255.257Z" fill="var(--fill-0, white)"/>
<path id="Vector_5" d="M9.47282 258.971H4.31981V221.384H9.24549V226.84H9.47282C11.7462 223.203 16.2172 220.626 21.7491 220.626C27.5084 220.626 31.5247 223.43 33.5708 227.825H33.8739C36.5262 223.278 41.0729 220.626 47.0595 220.626C56.3804 220.626 61.3061 226.84 61.3061 237.222V258.971H56.0773V238.51C56.0773 229.644 52.743 225.324 46.226 225.324C39.4816 225.324 35.3895 229.947 35.3895 238.51V258.971H30.1607V238.51C30.1607 229.644 26.8264 225.324 20.3093 225.324C13.5649 225.324 9.47282 229.947 9.47282 238.51V258.971Z" fill="var(--fill-0, white)"/>
<path id="Vector_6" d="M221.229 141.166C215.849 141.166 211.984 144.197 211.984 151.245V152.685H225.094V157.383H211.984V190.271H206.831V157.383H198.647V154.125L206.831 152.382V151.927C206.831 141.09 212.514 136.468 221.229 136.468C224.412 136.468 226.837 136.923 228.731 137.453V142.151C226.458 141.621 223.957 141.166 221.229 141.166Z" fill="var(--fill-0, white)"/>
<path id="Vector_7" d="M177.244 191.257C165.422 191.257 157.465 183.072 157.465 171.478C157.465 159.884 165.422 151.624 177.244 151.624C189.065 151.624 197.022 159.884 197.022 171.478C197.022 183.072 189.065 191.257 177.244 191.257ZM177.244 186.558C186.186 186.558 191.642 180.268 191.642 171.478C191.642 162.688 186.186 156.322 177.244 156.322C168.302 156.322 162.921 162.688 162.921 171.478C162.921 180.268 168.302 186.558 177.244 186.558Z" fill="var(--fill-0, white)"/>
<path id="Vector_8" d="M141.809 170.948C141.809 171.705 141.809 172.387 141.658 173.373H107.784C108.542 181.254 114.074 186.558 122.182 186.558C128.927 186.558 133.095 184.133 134.989 179.435H140.748C138.551 187.089 132.109 191.257 122.182 191.257C110.285 191.257 102.252 183.224 102.252 171.478C102.252 159.884 110.588 151.624 122.258 151.624C133.777 151.624 141.809 159.732 141.809 170.948ZM122.258 156.322C114.453 156.322 108.921 161.475 107.86 168.902H136.353C135.823 161.475 130.063 156.322 122.258 156.322Z" fill="var(--fill-0, white)"/>
<path id="Vector_9" d="M75.2451 191.256C63.7266 191.256 55.9971 183.148 55.9971 171.478C55.9971 159.732 63.7266 151.624 75.2451 151.624C81.1559 151.624 86.991 154.731 89.8706 159.353H90.1737V137.226H95.3267V190.271H90.4011V183.3H90.0979C87.5214 188.074 81.3075 191.256 75.2451 191.256ZM75.7756 186.558C84.1871 186.558 90.1737 180.496 90.1737 171.478C90.1737 162.46 84.1871 156.322 75.7756 156.322C67.1367 156.322 61.4532 162.46 61.4532 171.478C61.4532 180.496 67.1367 186.558 75.7756 186.558Z" fill="var(--fill-0, white)"/>
<path id="Vector_10" d="M46.3539 144.879C44.3836 144.879 42.868 143.44 42.868 141.469C42.868 139.499 44.3836 137.983 46.3539 137.983C48.3242 137.983 49.8398 139.423 49.8398 141.394C49.8398 143.364 48.3242 144.879 46.3539 144.879ZM49.0062 190.271H43.7774V152.685H49.0062V190.271Z" fill="var(--fill-0, white)"/>
<path id="Vector_11" d="M20.1575 191.257C8.1085 191.257 2.27347 185.876 2.27347 178.147H7.72961C7.72961 183.375 11.9733 186.558 20.2332 186.558C27.2808 186.558 31.4486 184.285 31.4486 180.268C31.4486 170.038 3.18283 178.147 3.18283 162.839C3.18283 155.64 9.85144 151.624 19.1723 151.624C29.4784 151.624 35.7681 156.549 35.7681 163.749H30.3877C30.3877 159.278 26.4472 156.322 19.2481 156.322C12.3522 156.322 8.56318 158.823 8.56318 162.612C8.56318 172.842 36.9048 164.658 36.9048 180.117C36.9048 187.089 30.8424 191.257 20.1575 191.257Z" fill="var(--fill-0, white)"/>
<path id="Vector_12" d="M196.198 121.572H191.045V83.9855H195.971V89.8205H196.198C198.851 85.5769 203.776 82.9246 210.066 82.9246C211.885 82.9246 213.628 83.1519 214.84 83.5308V88.6838C213.021 88.1534 211.203 87.926 209.384 87.926C201.2 87.926 196.198 93.3064 196.198 102.627V121.572Z" fill="var(--fill-0, white)"/>
<path id="Vector_13" d="M184.882 102.248C184.882 103.006 184.882 103.688 184.731 104.673H150.857C151.615 112.554 157.147 117.859 165.255 117.859C172 117.859 176.168 115.434 178.062 110.736H183.821C181.624 118.389 175.183 122.557 165.255 122.557C153.358 122.557 145.325 114.525 145.325 102.779C145.325 91.1845 153.661 82.9246 165.331 82.9246C176.85 82.9246 184.882 91.033 184.882 102.248ZM165.331 87.6229C157.526 87.6229 151.994 92.7759 150.933 100.202H179.426C178.896 92.7759 173.137 87.6229 165.331 87.6229Z" fill="var(--fill-0, white)"/>
<path id="Vector_14" d="M137.482 117.859C139.755 117.859 141.801 117.48 144.226 116.722V121.497C142.18 122.179 139.679 122.557 137.33 122.557C128.161 122.557 124.069 117.935 124.069 107.932V88.6839H115.885V85.4254L124.296 83.6825V74.5889H129.222V83.9856H142.332V88.6839H129.222V107.477C129.222 115.131 132.177 117.859 137.482 117.859Z" fill="var(--fill-0, white)"/>
<path id="Vector_15" d="M109.801 117.859C112.075 117.859 114.121 117.48 116.546 116.722V121.497C114.5 122.179 111.999 122.557 109.65 122.557C100.48 122.557 96.3882 117.935 96.3882 107.932V88.6839H88.204V85.4254L96.6156 83.6825V74.5889H101.541V83.9856H114.651V88.6839H101.541V107.477C101.541 115.131 104.497 117.859 109.801 117.859Z" fill="var(--fill-0, white)"/>
<path id="Vector_16" d="M87.7066 102.248C87.7066 103.006 87.7066 103.688 87.555 104.673H53.6815C54.4393 112.554 59.9712 117.859 68.0797 117.859C74.824 117.859 78.9919 115.434 80.8864 110.736H86.6457C84.4481 118.389 78.0068 122.557 68.0797 122.557C56.1823 122.557 48.1496 114.525 48.1496 102.779C48.1496 91.1845 56.4854 82.9246 68.1554 82.9246C79.6739 82.9246 87.7066 91.033 87.7066 102.248ZM68.1554 87.6229C60.3501 87.6229 54.8182 92.7759 53.7573 100.202H82.2504C81.72 92.7759 75.9607 87.6229 68.1554 87.6229Z" fill="var(--fill-0, white)"/>
<path id="Vector_17" d="M24.704 122.557C18.7174 122.557 12.4277 119.375 9.85115 114.601H9.62381V121.572H4.69813V68.5266H9.85115V90.6542H10.0785C12.9581 86.0317 18.8689 82.9247 24.704 82.9247C36.2225 82.9247 44.0278 91.0331 44.0278 102.779C44.0278 114.449 36.2225 122.557 24.704 122.557ZM24.2493 117.859C32.8124 117.859 38.5716 111.797 38.5716 102.779C38.5716 93.7612 32.8124 87.623 24.2493 87.623C15.8377 87.623 9.85115 93.7612 9.85115 102.779C9.85115 111.797 15.8377 117.859 24.2493 117.859Z" fill="var(--fill-0, white)"/>
<path id="Vector_18" d="M132.334 33.7218C132.334 34.4796 132.334 35.1616 132.183 36.1468H98.3091C99.0669 44.0278 104.599 49.3324 112.707 49.3324C119.452 49.3324 123.62 46.9075 125.514 42.2091H131.273C129.076 49.8629 122.634 54.0308 112.707 54.0308C100.81 54.0308 92.7772 45.9981 92.7772 34.2523C92.7772 22.658 101.113 14.398 112.783 14.398C124.302 14.398 132.334 22.5064 132.334 33.7218ZM112.783 19.0963C104.978 19.0963 99.4458 24.2494 98.3849 31.6758H126.878C126.348 24.2494 120.588 19.0963 112.783 19.0963Z" fill="var(--fill-0, white)"/>
<path id="Vector_19" d="M55.7399 53.0458H50.5111V0H55.7399V21.4456H55.9672C58.9984 17.0504 64.0757 14.7013 70.138 14.7013C80.3683 14.7013 86.7338 21.0667 86.7338 31.5243V53.0458H81.505V33.1915C81.505 24.0979 77.2613 19.3996 69.3044 19.3996C60.9687 19.3996 55.7399 25.1588 55.7399 33.6462V53.0458Z" fill="var(--fill-0, white)"/>
<path id="Vector_20" d="M25.462 53.0458H19.7785V5.2288H0V0H45.2404V5.2288H25.462V53.0458Z" fill="var(--fill-0, white)"/>
</g>
</svg>
