<svg preserveAspectRatio="none" width="100%" height="100%" overflow="visible" style="display: block;" viewBox="0 0 49.7943 48" fill="none" xmlns="http://www.w3.org/2000/svg">
<path id="Vector (Stroke)" d="M45.5312 31.4221C45.5312 25.4755 41.3163 20.5131 35.7111 19.3599C35.6902 19.4201 35.6699 19.4808 35.6489 19.541V19.5413C33.0552 26.9633 29.0167 33.7115 23.8715 39.4422C26.13 42.0713 29.4786 43.7369 33.2164 43.7369C40.0176 43.7368 45.5311 38.2234 45.5312 31.4221ZM22.795 4.47166C21.5425 16.6826 15.1616 27.414 5.85319 34.4396L15.8235 41.3924C16.7256 40.613 17.6012 39.8023 18.4487 38.9632C17.2911 36.701 16.6383 34.1378 16.6383 31.4221C16.6383 22.454 23.7594 15.1492 32.6556 14.8535C33.49 11.8773 34.0797 8.80311 34.3973 5.6436L22.795 4.47166ZM20.9014 31.4221C20.9014 32.8709 21.1523 34.261 21.6118 35.552C25.696 30.7653 28.9665 25.265 31.2124 19.2701C25.3642 20.2271 20.9014 25.3032 20.9014 31.4221ZM49.7943 31.4221C49.7942 40.5778 42.3721 47.9999 33.2164 48C28.3308 48 23.9387 45.8864 20.9046 42.5239C19.7449 43.6423 18.5372 44.7131 17.285 45.7293C16.5472 46.328 15.502 46.3659 14.7226 45.8224L0.912366 36.1914C0.329921 35.7852 -0.0120999 35.1156 0.000327399 34.4057C0.0127815 33.6957 0.377939 33.0385 0.974219 32.653C11.1543 26.0709 18.0627 14.8394 18.7083 2.02429L18.7163 1.91545C18.7715 1.3736 19.0327 0.871917 19.4478 0.515131C19.8907 0.134548 20.4703 -0.0478911 21.0513 0.0107894L36.9059 1.61213C38.0456 1.72725 38.8906 2.72266 38.8192 3.86591C38.5739 7.78992 37.9401 11.5985 36.9621 15.2689C44.3137 16.9669 49.7943 23.5546 49.7943 31.4221Z" fill="var(--fill-0, #16CB3E)"/>
</svg>
