<svg preserveAspectRatio="none" width="100%" height="100%" overflow="visible" style="display: block;" viewBox="0 0 158.468 42.0446" fill="none" xmlns="http://www.w3.org/2000/svg">
<g id="Group">
<path id="Vector" d="M5.2357 36.8657H4.9972V41.1587H0V0H5.29248V15.7639H5.53099C7.88194 12.652 12.3567 10.8803 16.0592 10.8803C25.2358 10.8803 31.1757 17.2858 31.1757 26.4624C31.1757 35.6391 25.2358 42.0446 16.0592 42.0446C12.1182 42.0446 7.23458 40.1025 5.2357 36.8657ZM25.5766 26.4511C25.5766 19.8639 21.4652 15.5708 15.4572 15.5708C9.44924 15.5708 5.28113 19.8639 5.28113 26.4511C5.28113 33.0383 9.4606 37.3313 15.4572 37.3313C21.4539 37.3313 25.5766 33.0383 25.5766 26.4511Z" fill="var(--fill-0, white)"/>
<path id="Vector_2" d="M33.22 28.6317V11.7548H38.5125V26.7464C38.5125 33.5039 41.454 37.0361 47.0986 37.0361C53.2769 37.0361 56.7409 32.743 56.7409 26.7464V11.7548H62.0334V41.1587H57.0362V37.0474H56.7977C54.4467 39.9889 50.6875 41.7493 46.0991 41.7493C38.2172 41.7493 33.22 36.6953 33.22 28.643V28.6317Z" fill="var(--fill-0, white)"/>
<path id="Vector_3" d="M64.6796 31.7435H70.2674C70.2674 34.8554 72.8568 37.3313 79.0238 37.3313C83.9074 37.3313 86.724 35.6845 86.724 33.0383C86.724 26.099 65.2588 32.2206 65.2588 20.0456C65.2588 14.1625 70.6649 10.8689 78.013 10.8689C86.5423 10.8689 91.4146 15.2187 91.4146 20.568H85.8268C85.8268 17.865 83.4758 15.5708 78.1266 15.5708C73.0726 15.5708 70.8352 17.3993 70.8352 19.8639C70.8352 26.8599 92.3004 20.6929 92.3004 32.9133C92.3004 38.5579 87.4736 42.0219 78.8989 42.0219C68.7228 42.0219 64.6682 37.2632 64.6682 31.7322L64.6796 31.7435Z" fill="var(--fill-0, white)"/>
<path id="Vector_4" d="M94.9581 41.1587V0H100.251V15.5822H100.489C103.022 12.6974 106.781 11.1755 111.188 11.1755C119.07 11.1755 124.067 16.2295 124.067 24.2932V41.1701H118.774V26.1785C118.774 19.4209 115.833 15.8888 110.188 15.8888C104.01 15.8888 100.251 20.1819 100.251 26.1785V41.1701H94.9581V41.1587Z" fill="var(--fill-0, white)"/>
<path id="Vector_5" d="M125.827 32.5158C125.827 27.0416 131.006 23.2256 138.706 23.2256C142.886 23.2256 146.883 24.2818 149.348 25.7582V22.1693C149.348 17.9899 146.35 15.5821 140.705 15.5821C135.821 15.5821 132.233 17.4107 132.233 20.4658H126.77C126.77 14.5827 132.414 10.8802 140.819 10.8802C149.223 10.8802 154.64 15.1733 154.64 22.2829V33.8673C154.64 35.6958 155.401 36.5136 156.821 36.5136C157.525 36.5136 158.059 36.4 158.468 36.1047V40.5681C157.582 40.9202 156.526 41.1587 155.288 41.1587C152.403 41.1587 150.824 39.9775 149.939 37.8651H149.7C147.236 40.0457 142.874 41.7493 137.764 41.7493C130.711 41.7493 125.827 38.3421 125.827 32.5158ZM149.348 33.5152V29.8696C147.054 28.6884 143.465 27.9275 139.944 27.9275C134.538 27.9275 131.415 29.8128 131.415 32.5158C131.415 35.7526 134.595 37.0474 139.002 37.0474C143.056 37.0474 146.997 35.8662 149.348 33.5152Z" fill="var(--fill-0, white)"/>
</g>
</svg>
