<svg preserveAspectRatio="none" width="100%" height="100%" overflow="visible" style="display: block;" viewBox="0 0 11.3193 8.12126" fill="none" xmlns="http://www.w3.org/2000/svg">
<path id="Wifi" d="M4.02247 6.22087C4.96785 5.42208 6.35248 5.42207 7.29786 6.22087C7.34542 6.26385 7.37272 6.32478 7.37403 6.38884C7.37534 6.4529 7.35046 6.51486 7.30469 6.55974L5.82422 8.05193C5.78083 8.09579 5.72189 8.12126 5.66016 8.12126C5.59843 8.12126 5.53949 8.0958 5.4961 8.05193L4.01563 6.55974C3.96991 6.51484 3.94398 6.45288 3.94532 6.38884C3.94667 6.32478 3.97487 6.26381 4.02247 6.22087ZM2.04688 4.22966C4.08381 2.33655 7.23848 2.33652 9.2754 4.22966C9.32124 4.27396 9.34691 4.3349 9.34766 4.39861C9.34831 4.46249 9.32339 4.52419 9.27832 4.5695L8.42286 5.43376C8.33466 5.52196 8.19203 5.52355 8.10157 5.43767C7.43269 4.83254 6.56249 4.49719 5.66016 4.49724C4.75848 4.49761 3.88913 4.83302 3.22071 5.43767C3.13029 5.52351 2.98762 5.52184 2.89942 5.43376L2.04395 4.5695C1.99879 4.52425 1.97303 4.46251 1.97364 4.39861C1.97435 4.33485 2.00097 4.27396 2.04688 4.22966ZM0.0712937 2.24333C3.19533 -0.747854 8.12393 -0.747701 11.2481 2.24333C11.2933 2.28777 11.319 2.3489 11.3193 2.41228C11.3197 2.47564 11.2947 2.53626 11.25 2.58122L10.3936 3.44548C10.3053 3.53407 10.1619 3.53556 10.0723 3.44841C8.88197 2.31773 7.30255 1.68677 5.66016 1.68669C4.01761 1.68669 2.43753 2.31765 1.24707 3.44841C1.15747 3.53546 1.01388 3.53415 0.925786 3.44548L0.0693405 2.58122C0.0247178 2.53624 -0.000390631 2.47561 4.59638e-06 2.41228C0.000421906 2.3489 0.0260379 2.28774 0.0712937 2.24333Z" fill="var(--fill-0, white)"/>
</svg>
