<svg preserveAspectRatio="none" width="100%" height="100%" overflow="visible" style="display: block;" viewBox="0 0 359.45 778.61" fill="none" xmlns="http://www.w3.org/2000/svg">
<g id="Mask" clip-path="url(#clip0_1_453)">
<path id="Vector" d="M280.6 0C308.043 0 321.764 0 332.246 5.3407C341.466 10.0386 348.961 17.5347 353.659 26.7545C359 37.2362 359 50.9575 359 78.4V700.6C359 728.043 359 741.764 353.659 752.245C348.961 761.465 341.466 768.961 332.246 773.659C321.764 779 308.043 779 280.6 779H78.4C50.9574 779 37.2361 779 26.7545 773.659C17.5345 768.961 10.0385 761.465 5.3407 752.245C1.90735e-06 741.764 1.90735e-06 728.042 1.90735e-06 700.6L0 78.4C0 50.9574 0 37.2361 5.3407 26.7545C10.0385 17.5345 17.5345 10.0385 26.7545 5.3407C37.2362 1.90735e-06 50.9575 1.90735e-06 78.4 1.90735e-06L280.6 0Z" fill="var(--fill-0, black)"/>
</g>
<defs>
<clipPath id="clip0_1_453">
<rect width="359.45" height="778.61" fill="white"/>
</clipPath>
</defs>
</svg>
