<svg width="294" height="115" viewBox="0 0 294 115" fill="none" xmlns="http://www.w3.org/2000/svg">
<rect width="293.333" height="115" rx="16" fill="#E0D4CE"/>
<path d="M16.48 28.5V27.42L19.912 23.316H16.588V22.188H21.448V23.268L18.028 27.372H21.544V28.5H16.48ZM24.7374 28.692C24.0814 28.692 23.5534 28.512 23.1534 28.152C22.7534 27.792 22.5534 27.308 22.5534 26.7C22.5534 26.276 22.6614 25.92 22.8774 25.632C23.1014 25.336 23.3934 25.112 23.7534 24.96C24.1214 24.808 24.5254 24.732 24.9654 24.732C25.3014 24.732 25.6134 24.752 25.9014 24.792C26.1894 24.832 26.4774 24.892 26.7654 24.972V24.372C26.7654 23.98 26.6294 23.668 26.3574 23.436C26.0854 23.196 25.7254 23.076 25.2774 23.076C24.9174 23.076 24.6094 23.164 24.3534 23.34C24.1054 23.508 23.9334 23.756 23.8374 24.084L22.6974 23.82C22.8254 23.228 23.1294 22.776 23.6094 22.464C24.0974 22.152 24.6574 21.996 25.2894 21.996C26.1774 21.996 26.8534 22.208 27.3174 22.632C27.7814 23.056 28.0134 23.664 28.0134 24.456V28.5H26.7654V27.768H26.6934C26.5094 28.008 26.2534 28.224 25.9254 28.416C25.6054 28.6 25.2094 28.692 24.7374 28.692ZM25.0254 27.636C25.5534 27.636 25.9734 27.476 26.2854 27.156C26.6054 26.828 26.7654 26.436 26.7654 25.98C26.2294 25.796 25.6974 25.704 25.1694 25.704C24.7534 25.704 24.4294 25.788 24.1974 25.956C23.9654 26.124 23.8494 26.372 23.8494 26.7C23.8494 26.972 23.9574 27.196 24.1734 27.372C24.3974 27.548 24.6814 27.636 25.0254 27.636ZM29.6963 28.5V19.188H30.9923V28.5H29.6963ZM34.6046 28.692C33.9486 28.692 33.4206 28.512 33.0206 28.152C32.6206 27.792 32.4206 27.308 32.4206 26.7C32.4206 26.276 32.5286 25.92 32.7446 25.632C32.9686 25.336 33.2606 25.112 33.6206 24.96C33.9886 24.808 34.3926 24.732 34.8326 24.732C35.1686 24.732 35.4806 24.752 35.7686 24.792C36.0566 24.832 36.3446 24.892 36.6326 24.972V24.372C36.6326 23.98 36.4966 23.668 36.2246 23.436C35.9526 23.196 35.5926 23.076 35.1446 23.076C34.7846 23.076 34.4766 23.164 34.2206 23.34C33.9726 23.508 33.8006 23.756 33.7046 24.084L32.5646 23.82C32.6926 23.228 32.9966 22.776 33.4766 22.464C33.9646 22.152 34.5246 21.996 35.1566 21.996C36.0446 21.996 36.7206 22.208 37.1846 22.632C37.6486 23.056 37.8806 23.664 37.8806 24.456V28.5H36.6326V27.768H36.5606C36.3766 28.008 36.1206 28.224 35.7926 28.416C35.4726 28.6 35.0766 28.692 34.6046 28.692ZM34.8926 27.636C35.4206 27.636 35.8406 27.476 36.1526 27.156C36.4726 26.828 36.6326 26.436 36.6326 25.98C36.0966 25.796 35.5646 25.704 35.0366 25.704C34.6206 25.704 34.2966 25.788 34.0646 25.956C33.8326 26.124 33.7166 26.372 33.7166 26.7C33.7166 26.972 33.8246 27.196 34.0406 27.372C34.2646 27.548 34.5486 27.636 34.8926 27.636ZM39.5635 28.5V22.188H40.7755V22.992H40.8475C41.0155 22.696 41.2635 22.456 41.5915 22.272C41.9275 22.088 42.3035 21.996 42.7195 21.996C43.4395 21.996 43.9875 22.212 44.3635 22.644C44.7475 23.068 44.9395 23.652 44.9395 24.396V28.5H43.6435V24.564C43.6435 24.092 43.5275 23.744 43.2955 23.52C43.0635 23.296 42.7555 23.184 42.3715 23.184C41.8995 23.184 41.5275 23.352 41.2555 23.688C40.9835 24.024 40.8475 24.432 40.8475 24.912V28.5H39.5635ZM49.0659 28.692C48.5139 28.692 48.0259 28.56 47.6019 28.296C47.1859 28.024 46.8579 27.636 46.6179 27.132C46.3779 26.628 46.2579 26.032 46.2579 25.344C46.2579 24.648 46.3779 24.052 46.6179 23.556C46.8579 23.052 47.1899 22.668 47.6139 22.404C48.0379 22.132 48.5219 21.996 49.0659 21.996C49.5379 21.996 49.9379 22.096 50.2659 22.296C50.6019 22.488 50.8499 22.72 51.0099 22.992H51.0819L51.0099 22.092V19.188H52.2939V28.5H51.0819V27.684H51.0099C50.8419 27.956 50.5899 28.192 50.2539 28.392C49.9259 28.592 49.5299 28.692 49.0659 28.692ZM49.3059 27.504C49.8179 27.504 50.2419 27.324 50.5779 26.964C50.9139 26.596 51.0819 26.056 51.0819 25.344C51.0819 24.632 50.9139 24.096 50.5779 23.736C50.2419 23.368 49.8179 23.184 49.3059 23.184C48.7939 23.184 48.3699 23.368 48.0339 23.736C47.7059 24.096 47.5419 24.632 47.5419 25.344C47.5419 26.056 47.7059 26.596 48.0339 26.964C48.3699 27.324 48.7939 27.504 49.3059 27.504ZM56.7133 28.692C56.0813 28.692 55.5333 28.552 55.0693 28.272C54.6053 27.984 54.2453 27.588 53.9893 27.084C53.7413 26.58 53.6173 26 53.6173 25.344C53.6173 24.688 53.7413 24.108 53.9893 23.604C54.2453 23.1 54.6053 22.708 55.0693 22.428C55.5333 22.14 56.0813 21.996 56.7133 21.996C57.3533 21.996 57.9013 22.14 58.3573 22.428C58.8213 22.708 59.1773 23.1 59.4253 23.604C59.6813 24.108 59.8093 24.688 59.8093 25.344C59.8093 26 59.6813 26.58 59.4253 27.084C59.1773 27.588 58.8213 27.984 58.3573 28.272C57.9013 28.552 57.3533 28.692 56.7133 28.692ZM56.7133 27.504C57.2493 27.504 57.6853 27.32 58.0213 26.952C58.3573 26.576 58.5253 26.04 58.5253 25.344C58.5253 24.648 58.3573 24.116 58.0213 23.748C57.6853 23.372 57.2493 23.184 56.7133 23.184C56.1853 23.184 55.7493 23.372 55.4053 23.748C55.0693 24.116 54.9013 24.648 54.9013 25.344C54.9013 26.04 55.0693 26.576 55.4053 26.952C55.7493 27.32 56.1853 27.504 56.7133 27.504Z" fill="#191719"/>
<rect x="62" y="16" width="1" height="16" fill="#1B211D"/>
<rect x="18.5" y="53" width="32" height="32" rx="16" fill="white"/>
<path d="M42.5783 66.9457C41.2565 65.2592 39.3957 63.6445 36.9783 62.1734H36.9609C34.5261 60.7381 32.2304 59.8948 30.1609 59.5539C28.8739 59.3386 28.2478 59.5898 27.9696 59.7513C27.6913 59.9128 27.1696 60.3434 26.7 61.5992C25.9522 63.6266 25.5174 66.1025 25.5 68.991V69.009C25.5174 71.9154 25.9522 74.3734 26.7 76.4007C27.1696 77.6566 27.6913 78.0872 27.9696 78.2487C28.2478 78.4102 28.8739 78.6613 30.1609 78.446C32.2304 78.1052 34.5261 77.2619 36.9609 75.8266H36.9783C39.3957 74.3554 41.2565 72.7407 42.5783 71.0543C43.413 70.0137 43.5 69.3319 43.5 68.991C43.5 68.6681 43.413 67.9863 42.5783 66.9457Z" fill="#FF4C00"/>
<path d="M16.296 96.08L19.28 92.128H16.424V91.272H20.32V92.192L17.352 96.144H20.352V97H16.296V96.08ZM22.5709 97.128C22.2883 97.128 22.0323 97.072 21.8029 96.96C21.5789 96.8427 21.4003 96.6827 21.2669 96.48C21.1389 96.272 21.0749 96.0373 21.0749 95.776C21.0749 95.36 21.2296 95.032 21.5389 94.792C21.8536 94.552 22.2509 94.432 22.7309 94.432C23.1523 94.432 23.5123 94.504 23.8109 94.648V94.48C23.8109 94.24 23.7149 94.0427 23.5229 93.888C23.3363 93.728 23.1096 93.648 22.8429 93.648C22.4376 93.648 22.1123 93.8133 21.8669 94.144L21.1949 93.68C21.3816 93.4293 21.6136 93.2373 21.8909 93.104C22.1736 92.9707 22.4909 92.904 22.8429 92.904C23.4243 92.904 23.8723 93.0507 24.1869 93.344C24.5069 93.632 24.6669 94.04 24.6669 94.568V97H23.8109V96.512H23.7629C23.6349 96.6933 23.4723 96.8427 23.2749 96.96C23.0776 97.072 22.8429 97.128 22.5709 97.128ZM22.7149 96.4C22.9123 96.4 23.0936 96.352 23.2589 96.256C23.4296 96.1547 23.5629 96.024 23.6589 95.864C23.7603 95.6987 23.8109 95.5227 23.8109 95.336C23.5283 95.1813 23.2269 95.104 22.9069 95.104C22.6136 95.104 22.3843 95.168 22.2189 95.296C22.0536 95.424 21.9709 95.5867 21.9709 95.784C21.9709 95.9653 22.0429 96.1147 22.1869 96.232C22.3363 96.344 22.5123 96.4 22.7149 96.4ZM25.696 91.272H26.576V97H25.696V91.272ZM28.8959 97.128C28.6133 97.128 28.3573 97.072 28.1279 96.96C27.9039 96.8427 27.7253 96.6827 27.5919 96.48C27.4639 96.272 27.3999 96.0373 27.3999 95.776C27.3999 95.36 27.5546 95.032 27.8639 94.792C28.1786 94.552 28.5759 94.432 29.0559 94.432C29.4773 94.432 29.8373 94.504 30.1359 94.648V94.48C30.1359 94.24 30.0399 94.0427 29.8479 93.888C29.6613 93.728 29.4346 93.648 29.1679 93.648C28.7626 93.648 28.4373 93.8133 28.1919 94.144L27.5199 93.68C27.7066 93.4293 27.9386 93.2373 28.2159 93.104C28.4986 92.9707 28.8159 92.904 29.1679 92.904C29.7493 92.904 30.1973 93.0507 30.5119 93.344C30.8319 93.632 30.9919 94.04 30.9919 94.568V97H30.1359V96.512H30.0879C29.9599 96.6933 29.7973 96.8427 29.5999 96.96C29.4026 97.072 29.1679 97.128 28.8959 97.128ZM29.0399 96.4C29.2373 96.4 29.4186 96.352 29.5839 96.256C29.7546 96.1547 29.8879 96.024 29.9839 95.864C30.0853 95.6987 30.1359 95.5227 30.1359 95.336C29.8533 95.1813 29.5519 95.104 29.2319 95.104C28.9386 95.104 28.7093 95.168 28.5439 95.296C28.3786 95.424 28.2959 95.5867 28.2959 95.784C28.2959 95.9653 28.3679 96.1147 28.5119 96.232C28.6613 96.344 28.8373 96.4 29.0399 96.4ZM32.021 93.032H32.853V93.56H32.901C33.0183 93.368 33.189 93.2107 33.413 93.088C33.637 92.9653 33.8797 92.904 34.141 92.904C34.6317 92.904 35.0023 93.048 35.253 93.336C35.509 93.624 35.637 94.0213 35.637 94.528V97H34.757V94.648C34.757 94.024 34.4663 93.712 33.885 93.712C33.5917 93.712 33.3543 93.8293 33.173 94.064C32.9917 94.2987 32.901 94.576 32.901 94.896V97H32.021V93.032ZM38.3711 97.128C38.0298 97.128 37.7125 97.0373 37.4191 96.856C37.1311 96.6747 36.9018 96.424 36.7311 96.104C36.5605 95.7787 36.4751 95.416 36.4751 95.016C36.4751 94.616 36.5605 94.256 36.7311 93.936C36.9018 93.6107 37.1311 93.3573 37.4191 93.176C37.7125 92.9947 38.0298 92.904 38.3711 92.904C38.6591 92.904 38.9151 92.9653 39.1391 93.088C39.3685 93.2107 39.5418 93.3627 39.6591 93.544H39.6991L39.6591 92.992V91.272H40.5391V97H39.6991V96.48H39.6591C39.5418 96.6667 39.3711 96.8213 39.1471 96.944C38.9231 97.0667 38.6645 97.128 38.3711 97.128ZM38.5311 96.32C38.7391 96.32 38.9311 96.2667 39.1071 96.16C39.2885 96.0533 39.4325 95.9013 39.5391 95.704C39.6458 95.5067 39.6991 95.2773 39.6991 95.016C39.6991 94.7547 39.6458 94.5253 39.5391 94.328C39.4325 94.1307 39.2885 93.9787 39.1071 93.872C38.9311 93.7653 38.7391 93.712 38.5311 93.712C38.3231 93.712 38.1285 93.7653 37.9471 93.872C37.7711 93.9787 37.6271 94.1333 37.5151 94.336C37.4085 94.5333 37.3551 94.76 37.3551 95.016C37.3551 95.272 37.4085 95.5013 37.5151 95.704C37.6271 95.9013 37.7711 96.0533 37.9471 96.16C38.1285 96.2667 38.3231 96.32 38.5311 96.32ZM43.4362 97.128C43.0415 97.128 42.6869 97.0373 42.3722 96.856C42.0575 96.6693 41.8095 96.416 41.6282 96.096C41.4522 95.776 41.3642 95.416 41.3642 95.016C41.3642 94.616 41.4522 94.256 41.6282 93.936C41.8095 93.616 42.0575 93.3653 42.3722 93.184C42.6869 92.9973 43.0415 92.904 43.4362 92.904C43.8362 92.904 44.1935 92.9973 44.5082 93.184C44.8229 93.3653 45.0682 93.616 45.2442 93.936C45.4202 94.256 45.5082 94.616 45.5082 95.016C45.5082 95.416 45.4202 95.776 45.2442 96.096C45.0682 96.416 44.8229 96.6693 44.5082 96.856C44.1935 97.0373 43.8362 97.128 43.4362 97.128ZM43.4362 96.32C43.6495 96.32 43.8469 96.2667 44.0282 96.16C44.2095 96.0533 44.3562 95.9013 44.4682 95.704C44.5802 95.5067 44.6362 95.2773 44.6362 95.016C44.6362 94.7493 44.5802 94.5173 44.4682 94.32C44.3562 94.1227 44.2095 93.9733 44.0282 93.872C43.8469 93.7653 43.6495 93.712 43.4362 93.712C43.2282 93.712 43.0309 93.7653 42.8442 93.872C42.6629 93.9733 42.5162 94.1227 42.4042 94.32C42.2975 94.5173 42.2442 94.7493 42.2442 95.016C42.2442 95.2773 42.3002 95.5067 42.4122 95.704C42.5242 95.9013 42.6709 96.0533 42.8522 96.16C43.0335 96.2667 43.2282 96.32 43.4362 96.32ZM46.9277 97.048C46.757 97.048 46.6104 96.9893 46.4877 96.872C46.3704 96.7493 46.3117 96.6027 46.3117 96.432C46.3117 96.2613 46.3704 96.1173 46.4877 96C46.6104 95.8827 46.757 95.824 46.9277 95.824C47.0984 95.824 47.2424 95.8827 47.3597 96C47.477 96.1173 47.5357 96.2613 47.5357 96.432C47.5357 96.6027 47.477 96.7493 47.3597 96.872C47.2424 96.9893 47.0984 97.048 46.9277 97.048ZM49.1136 97.048C48.943 97.048 48.7963 96.9893 48.6736 96.872C48.5563 96.7493 48.4976 96.6027 48.4976 96.432C48.4976 96.2613 48.5563 96.1173 48.6736 96C48.7963 95.8827 48.943 95.824 49.1136 95.824C49.2843 95.824 49.4283 95.8827 49.5456 96C49.663 96.1173 49.7216 96.2613 49.7216 96.432C49.7216 96.6027 49.663 96.7493 49.5456 96.872C49.4283 96.9893 49.2843 97.048 49.1136 97.048ZM51.2996 97.048C51.1289 97.048 50.9822 96.9893 50.8596 96.872C50.7422 96.7493 50.6836 96.6027 50.6836 96.432C50.6836 96.2613 50.7422 96.1173 50.8596 96C50.9822 95.8827 51.1289 95.824 51.2996 95.824C51.4702 95.824 51.6142 95.8827 51.7316 96C51.8489 96.1173 51.9076 96.2613 51.9076 96.432C51.9076 96.6027 51.8489 96.7493 51.7316 96.872C51.6142 96.9893 51.4702 97.048 51.2996 97.048Z" fill="#161616"/>
<rect x="82" y="53" width="32" height="32" rx="16" fill="#4910FF"/>
<path d="M106.078 66.9457C104.757 65.2592 102.896 63.6445 100.478 62.1734H100.461C98.0261 60.7381 95.7304 59.8948 93.6609 59.5539C92.3739 59.3386 91.7478 59.5898 91.4696 59.7513C91.1913 59.9128 90.6696 60.3434 90.2 61.5992C89.4522 63.6266 89.0174 66.1025 89 68.991V69.009C89.0174 71.9154 89.4522 74.3734 90.2 76.4007C90.6696 77.6566 91.1913 78.0872 91.4696 78.2487C91.7478 78.4102 92.3739 78.6613 93.6609 78.446C95.7304 78.1052 98.0261 77.2619 100.461 75.8266H100.478C102.896 74.3554 104.757 72.7407 106.078 71.0543C106.913 70.0137 107 69.3319 107 68.991C107 68.6681 106.913 67.9863 106.078 66.9457Z" fill="#FE4D00"/>
<path d="M77.632 91.272H78.528V96.144H80.984V97H77.632V91.272ZM83.5768 97.128C83.1821 97.128 82.8275 97.0373 82.5128 96.856C82.1981 96.6693 81.9501 96.416 81.7688 96.096C81.5928 95.776 81.5048 95.416 81.5048 95.016C81.5048 94.616 81.5928 94.256 81.7688 93.936C81.9501 93.616 82.1981 93.3653 82.5128 93.184C82.8275 92.9973 83.1821 92.904 83.5768 92.904C83.9768 92.904 84.3341 92.9973 84.6488 93.184C84.9635 93.3653 85.2088 93.616 85.3848 93.936C85.5608 94.256 85.6488 94.616 85.6488 95.016C85.6488 95.416 85.5608 95.776 85.3848 96.096C85.2088 96.416 84.9635 96.6693 84.6488 96.856C84.3341 97.0373 83.9768 97.128 83.5768 97.128ZM83.5768 96.32C83.7901 96.32 83.9875 96.2667 84.1688 96.16C84.3501 96.0533 84.4968 95.9013 84.6088 95.704C84.7208 95.5067 84.7768 95.2773 84.7768 95.016C84.7768 94.7493 84.7208 94.5173 84.6088 94.32C84.4968 94.1227 84.3501 93.9733 84.1688 93.872C83.9875 93.7653 83.7901 93.712 83.5768 93.712C83.3688 93.712 83.1715 93.7653 82.9848 93.872C82.8035 93.9733 82.6568 94.1227 82.5448 94.32C82.4381 94.5173 82.3848 94.7493 82.3848 95.016C82.3848 95.2773 82.4408 95.5067 82.5528 95.704C82.6648 95.9013 82.8115 96.0533 82.9928 96.16C83.1741 96.2667 83.3688 96.32 83.5768 96.32ZM87.9412 97.128C87.4506 97.128 87.0772 96.984 86.8212 96.696C86.5706 96.4027 86.4452 96 86.4452 95.488V93.032H87.3252V95.368C87.3252 96.0027 87.6106 96.32 88.1812 96.32C88.4799 96.32 88.7199 96.2053 88.9012 95.976C89.0879 95.7413 89.1812 95.4613 89.1812 95.136V93.032H90.0613V97H89.2213V96.472H89.1812C89.0639 96.664 88.8906 96.8213 88.6612 96.944C88.4372 97.0667 88.1972 97.128 87.9412 97.128ZM91.1554 93.032H91.9874V93.56H92.0354C92.1527 93.368 92.3234 93.2107 92.5474 93.088C92.7714 92.9653 93.014 92.904 93.2754 92.904C93.766 92.904 94.1367 93.048 94.3874 93.336C94.6434 93.624 94.7714 94.0213 94.7714 94.528V97H93.8914V94.648C93.8914 94.024 93.6007 93.712 93.0194 93.712C92.726 93.712 92.4887 93.8293 92.3074 94.064C92.126 94.2987 92.0354 94.576 92.0354 94.896V97H91.1554V93.032ZM97.5864 98.856C97.0904 98.856 96.6798 98.7387 96.3544 98.504C96.0344 98.2747 95.8184 98.0053 95.7064 97.696L96.5384 97.352C96.6184 97.5707 96.7518 97.744 96.9384 97.872C97.1251 98 97.3411 98.064 97.5864 98.064C97.9544 98.064 98.2424 97.952 98.4504 97.728C98.6638 97.504 98.7704 97.1947 98.7704 96.8V96.456H98.7224C98.5944 96.6427 98.4184 96.792 98.1944 96.904C97.9758 97.016 97.7251 97.072 97.4424 97.072C97.1118 97.072 96.8024 96.984 96.5144 96.808C96.2318 96.632 96.0024 96.3867 95.8264 96.072C95.6558 95.752 95.5704 95.392 95.5704 94.992C95.5704 94.592 95.6558 94.2347 95.8264 93.92C96.0024 93.6 96.2318 93.352 96.5144 93.176C96.8024 92.9947 97.1118 92.904 97.4424 92.904C97.7251 92.904 97.9758 92.96 98.1944 93.072C98.4184 93.184 98.5944 93.3333 98.7224 93.52H98.7704V93.032H99.6104V96.776C99.6104 97.2133 99.5224 97.5893 99.3464 97.904C99.1758 98.2187 98.9358 98.456 98.6264 98.616C98.3224 98.776 97.9758 98.856 97.5864 98.856ZM97.6104 96.272C97.8184 96.272 98.0104 96.2213 98.1864 96.12C98.3624 96.0187 98.5038 95.872 98.6104 95.68C98.7171 95.4827 98.7704 95.2533 98.7704 94.992C98.7704 94.7253 98.7171 94.496 98.6104 94.304C98.5038 94.1067 98.3624 93.9573 98.1864 93.856C98.0104 93.7547 97.8184 93.704 97.6104 93.704C97.4024 93.704 97.2104 93.7573 97.0344 93.864C96.8584 93.9653 96.7171 94.1147 96.6104 94.312C96.5038 94.504 96.4504 94.7307 96.4504 94.992C96.4504 95.2533 96.5038 95.4827 96.6104 95.68C96.7171 95.872 96.8584 96.0187 97.0344 96.12C97.2104 96.2213 97.4024 96.272 97.6104 96.272ZM102.484 97.128C102.095 97.128 101.743 97.0373 101.428 96.856C101.119 96.6747 100.876 96.424 100.7 96.104C100.524 95.7787 100.436 95.416 100.436 95.016C100.436 94.632 100.519 94.28 100.684 93.96C100.855 93.6347 101.092 93.3787 101.396 93.192C101.7 93 102.047 92.904 102.436 92.904C102.836 92.904 103.183 92.992 103.476 93.168C103.775 93.344 104.001 93.5893 104.156 93.904C104.311 94.2133 104.388 94.5707 104.388 94.976C104.388 95.024 104.385 95.072 104.38 95.12C104.375 95.168 104.372 95.1947 104.372 95.2H101.316C101.343 95.5627 101.473 95.8427 101.708 96.04C101.943 96.2373 102.209 96.336 102.508 96.336C102.967 96.336 103.319 96.1227 103.564 95.696L104.316 96.056C104.14 96.3813 103.895 96.6427 103.58 96.84C103.271 97.032 102.905 97.128 102.484 97.128ZM103.492 94.528C103.481 94.4 103.439 94.2693 103.364 94.136C103.289 94.0027 103.172 93.8907 103.012 93.8C102.857 93.704 102.663 93.656 102.428 93.656C102.167 93.656 101.94 93.736 101.748 93.896C101.561 94.056 101.433 94.2667 101.364 94.528H103.492ZM109.356 97.128C109.068 97.128 108.809 97.0667 108.58 96.944C108.356 96.8213 108.188 96.6667 108.076 96.48H108.028V97H107.196V91.272H108.076V92.992L108.028 93.544H108.076C108.188 93.3627 108.356 93.2107 108.58 93.088C108.809 92.9653 109.068 92.904 109.356 92.904C109.697 92.904 110.012 92.9947 110.3 93.176C110.593 93.3573 110.825 93.6107 110.996 93.936C111.172 94.256 111.26 94.616 111.26 95.016C111.26 95.416 111.172 95.776 110.996 96.096C110.825 96.416 110.593 96.6693 110.3 96.856C110.012 97.0373 109.697 97.128 109.356 97.128ZM109.204 96.32C109.412 96.32 109.604 96.2667 109.78 96.16C109.961 96.0533 110.105 95.9013 110.212 95.704C110.324 95.5013 110.38 95.272 110.38 95.016C110.38 94.76 110.324 94.5333 110.212 94.336C110.105 94.1333 109.961 93.9787 109.78 93.872C109.604 93.7653 109.412 93.712 109.204 93.712C108.996 93.712 108.801 93.7653 108.62 93.872C108.444 93.9787 108.3 94.1307 108.188 94.328C108.081 94.5253 108.028 94.7547 108.028 95.016C108.028 95.2773 108.081 95.5067 108.188 95.704C108.3 95.9013 108.444 96.0533 108.62 96.16C108.801 96.2667 108.996 96.32 109.204 96.32ZM112.676 97.048C112.505 97.048 112.359 96.9893 112.236 96.872C112.119 96.7493 112.06 96.6027 112.06 96.432C112.06 96.2613 112.119 96.1173 112.236 96C112.359 95.8827 112.505 95.824 112.676 95.824C112.847 95.824 112.991 95.8827 113.108 96C113.225 96.1173 113.284 96.2613 113.284 96.432C113.284 96.6027 113.225 96.7493 113.108 96.872C112.991 96.9893 112.847 97.048 112.676 97.048ZM114.862 97.048C114.691 97.048 114.545 96.9893 114.422 96.872C114.305 96.7493 114.246 96.6027 114.246 96.432C114.246 96.2613 114.305 96.1173 114.422 96C114.545 95.8827 114.691 95.824 114.862 95.824C115.033 95.824 115.177 95.8827 115.294 96C115.411 96.1173 115.47 96.2613 115.47 96.432C115.47 96.6027 115.411 96.7493 115.294 96.872C115.177 96.9893 115.033 97.048 114.862 97.048ZM117.048 97.048C116.877 97.048 116.731 96.9893 116.608 96.872C116.491 96.7493 116.432 96.6027 116.432 96.432C116.432 96.2613 116.491 96.1173 116.608 96C116.731 95.8827 116.877 95.824 117.048 95.824C117.219 95.824 117.363 95.8827 117.48 96C117.597 96.1173 117.656 96.2613 117.656 96.432C117.656 96.6027 117.597 96.7493 117.48 96.872C117.363 96.9893 117.219 97.048 117.048 97.048Z" fill="#161616"/>
</svg>
