<svg width="211" height="180" viewBox="0 0 211 180" fill="none" xmlns="http://www.w3.org/2000/svg">
<g clip-path="url(#clip0_32_1831)">
<g filter="url(#filter0_d_32_1831)">
<path d="M181.682 18H29.8985C23.4002 18 18.1323 23.2679 18.1323 29.7662V150.706C18.1323 157.205 23.4002 162.472 29.8985 162.472H181.682C188.18 162.472 193.448 157.205 193.448 150.706V29.7662C193.448 23.2679 188.18 18 181.682 18Z" fill="white"/>
<path d="M26.1772 32.22H29.5859C30.5173 32.22 31.248 32.4649 31.778 32.9547C32.308 33.4445 32.5729 34.119 32.5729 34.9782C32.5729 35.8695 32.2999 36.5641 31.7539 37.0619C31.2079 37.5597 30.433 37.8087 29.4293 37.8087H27.9598V40.7957H26.1772V32.22ZM27.9598 36.3031H29.2727C29.7866 36.3031 30.1761 36.1907 30.441 35.9658C30.7141 35.741 30.8506 35.4198 30.8506 35.0023C30.8506 34.6008 30.7261 34.2876 30.4772 34.0628C30.2283 33.838 29.887 33.7255 29.4534 33.7255H27.9598V36.3031ZM35.1785 33.7617H33.4802V32.22H35.1785V33.7617ZM35.1785 40.7957H33.4802V34.5807H35.1785V40.7957ZM39.2827 41.0005C38.3753 41.0005 37.6486 40.7034 37.1026 40.1092C36.5646 39.523 36.2956 38.7241 36.2956 37.7123C36.2956 36.7006 36.5646 35.9016 37.1026 35.3154C37.6486 34.7212 38.3753 34.4241 39.2827 34.4241C40.0776 34.4241 40.724 34.6289 41.2218 35.0384C41.7197 35.4399 42.0328 36.01 42.1613 36.7487H40.4992C40.3145 36.0823 39.917 35.749 39.3067 35.749C38.8731 35.749 38.5359 35.9217 38.295 36.267C38.0541 36.6042 37.9337 37.086 37.9337 37.7123C37.9337 38.3386 38.0541 38.8244 38.295 39.1697C38.5359 39.507 38.8731 39.6756 39.3067 39.6756C39.909 39.6756 40.3064 39.3343 40.4992 38.6518H42.1613C42.0328 39.3905 41.7157 39.9687 41.2098 40.3862C40.7039 40.7957 40.0615 41.0005 39.2827 41.0005ZM49.2056 40.7957H47.1942L45.544 38.0977L44.9177 38.7361V40.7957H43.2194V32.22H44.9177V36.9294L47.0255 34.5807H49.1574L46.7365 37.0258L49.2056 40.7957ZM56.9415 37.905V34.5807H58.6397V40.7957H56.9776L56.9535 39.9526C56.552 40.6191 55.9538 40.9523 55.1589 40.9523C54.5165 40.9523 54.0146 40.7556 53.6533 40.3621C53.3 39.9687 53.1233 39.4307 53.1233 38.7481V34.5807H54.8216V38.3627C54.8216 38.7 54.8979 38.9609 55.0505 39.1456C55.211 39.3303 55.4359 39.4226 55.725 39.4226C56.0863 39.4226 56.3794 39.2861 56.6042 39.0131C56.829 38.7321 56.9415 38.3627 56.9415 37.905ZM63.5916 34.4241C64.3223 34.4241 64.9285 34.7172 65.4103 35.3034C65.8921 35.8976 66.133 36.6845 66.133 37.6641C66.133 38.6518 65.884 39.4548 65.3862 40.0731C64.8884 40.6913 64.246 41.0005 63.4591 41.0005C62.7524 41.0005 62.1944 40.7395 61.7849 40.2176V43.2528H60.0866V34.5807H61.5921L61.6524 35.3877C62.0779 34.7453 62.7243 34.4241 63.5916 34.4241ZM63.0977 39.507C63.5153 39.507 63.8525 39.3383 64.1095 39.0011C64.3664 38.6638 64.4949 38.2182 64.4949 37.6641C64.4949 37.1101 64.3664 36.6684 64.1095 36.3392C63.8525 36.002 63.5153 35.8334 63.0977 35.8334C62.6802 35.8334 62.3429 36.002 62.086 36.3392C61.829 36.6684 61.7005 37.1101 61.7005 37.6641C61.7005 38.2182 61.829 38.6638 62.086 39.0011C62.351 39.3383 62.6882 39.507 63.0977 39.507ZM76.2236 37.3389L76.9101 34.5807H78.6927L76.8499 40.7957H75.2359L74.3446 37.3389L74.2001 36.5199L74.0435 37.3389L73.1522 40.7957H71.5383L69.6954 34.5807H71.478L72.1646 37.3389L72.4536 38.9047L72.7427 37.3389L73.4413 34.5807H74.9469L75.6455 37.3148L75.9345 38.9047L76.2236 37.3389ZM83.081 34.4241C83.7234 34.4241 84.2212 34.6209 84.5745 35.0143C84.9359 35.4078 85.1165 35.9458 85.1165 36.6283V40.7957H83.4183V37.0137C83.4183 36.6765 83.338 36.4155 83.1774 36.2308C83.0248 36.0461 82.804 35.9538 82.5149 35.9538C82.1536 35.9538 81.8605 36.0943 81.6356 36.3754C81.4108 36.6484 81.2984 37.0137 81.2984 37.4714V40.7957H79.6001V32.22H81.2984V35.4118C81.7079 34.7534 82.3021 34.4241 83.081 34.4241ZM92.4898 37.905V38.1941H87.9852C88.0173 38.6598 88.1618 39.0252 88.4188 39.2902C88.6757 39.5551 89.017 39.6876 89.4426 39.6876C90.0448 39.6876 90.4463 39.4186 90.647 38.8806L92.3333 39.0011C92.1245 39.6595 91.7752 40.1614 91.2854 40.5067C90.7956 40.8439 90.1933 41.0125 89.4787 41.0125C88.475 41.0125 87.6841 40.6994 87.1059 40.0731C86.5278 39.4467 86.238 38.6438 86.238 37.6641C86.238 36.7247 86.5157 35.9498 87.0698 35.3395C87.6238 34.7293 88.3666 34.4241 89.298 34.4241C90.2375 34.4241 91.0044 34.7373 91.5986 35.3636C92.1928 35.998 92.4898 36.8451 92.4898 37.905ZM90.7313 37.0378C90.6832 36.6042 90.5386 36.267 90.2977 36.0261C90.0568 35.7852 89.7437 35.6647 89.3583 35.6647C88.9728 35.6647 88.6557 35.7852 88.4067 36.0261C88.1578 36.283 88.0133 36.6203 87.9731 37.0378H90.7313ZM96.6332 34.3639C96.8339 34.3639 97.0146 34.392 97.1752 34.4482V36.002C96.9664 35.9859 96.85 35.9779 96.8259 35.9779C95.7981 35.9779 95.2842 36.5761 95.2842 37.7725V40.7957H93.5859V34.5807H95.2481L95.224 35.4118C95.497 34.7132 95.9667 34.3639 96.6332 34.3639ZM104.063 37.905V38.1941H99.5587C99.5908 38.6598 99.7354 39.0252 99.9923 39.2902C100.249 39.5551 100.591 39.6876 101.016 39.6876C101.618 39.6876 102.02 39.4186 102.221 38.8806L103.907 39.0011C103.698 39.6595 103.349 40.1614 102.859 40.5067C102.369 40.8439 101.767 41.0125 101.052 41.0125C100.049 41.0125 99.2576 40.6994 98.6794 40.0731C98.1013 39.4467 97.8122 38.6438 97.8122 37.6641C97.8122 36.7247 98.0893 35.9498 98.6433 35.3395C99.1974 34.7293 99.9401 34.4241 100.872 34.4241C101.811 34.4241 102.578 34.7373 103.172 35.3636C103.766 35.998 104.063 36.8451 104.063 37.905ZM102.305 37.0378C102.257 36.6042 102.112 36.267 101.871 36.0261C101.63 35.7852 101.317 35.6647 100.932 35.6647C100.546 35.6647 100.229 35.7852 99.9803 36.0261C99.7313 36.283 99.5868 36.6203 99.5467 37.0378H102.305ZM110.833 38.977L112.158 34.5807H113.965L111.484 41.9038C111.315 42.4177 111.094 42.771 110.821 42.9638C110.556 43.1565 110.187 43.2528 109.713 43.2528H108.292V41.8075H109.111C109.568 41.8075 109.862 41.6308 109.99 41.2775L110.05 41.1089L107.629 34.5807H109.496L110.64 38.0737L110.833 38.977ZM119.889 40.061C119.303 40.6873 118.54 41.0005 117.601 41.0005C116.661 41.0005 115.899 40.6873 115.312 40.061C114.718 39.4427 114.421 38.6598 114.421 37.7123C114.421 36.7728 114.718 35.9859 115.312 35.3516C115.907 34.7333 116.669 34.4241 117.601 34.4241C118.532 34.4241 119.295 34.7333 119.889 35.3516C120.484 35.9859 120.781 36.7728 120.781 37.7123C120.781 38.6598 120.484 39.4427 119.889 40.061ZM116.059 37.7123C116.059 38.3145 116.2 38.7923 116.481 39.1456C116.762 39.4989 117.135 39.6756 117.601 39.6756C118.075 39.6756 118.452 39.4989 118.733 39.1456C119.006 38.8003 119.143 38.3226 119.143 37.7123C119.143 37.1021 119.006 36.6243 118.733 36.279C118.452 35.9257 118.075 35.749 117.601 35.749C117.135 35.749 116.762 35.9257 116.481 36.279C116.2 36.6323 116.059 37.1101 116.059 37.7123ZM125.692 37.905V34.5807H127.39V40.7957H125.728L125.704 39.9526C125.303 40.6191 124.704 40.9523 123.91 40.9523C123.267 40.9523 122.765 40.7556 122.404 40.3621C122.051 39.9687 121.874 39.4307 121.874 38.7481V34.5807H123.572V38.3627C123.572 38.7 123.649 38.9609 123.801 39.1456C123.962 39.3303 124.187 39.4226 124.476 39.4226C124.837 39.4226 125.13 39.2861 125.355 39.0131C125.58 38.7321 125.692 38.3627 125.692 37.905ZM133.547 40.7957H131.848V32.22H133.547V40.7957ZM140.915 37.905V38.1941H136.411C136.443 38.6598 136.587 39.0252 136.844 39.2902C137.101 39.5551 137.442 39.6876 137.868 39.6876C138.47 39.6876 138.872 39.4186 139.072 38.8806L140.759 39.0011C140.55 39.6595 140.201 40.1614 139.711 40.5067C139.221 40.8439 138.619 41.0125 137.904 41.0125C136.9 41.0125 136.109 40.6994 135.531 40.0731C134.953 39.4467 134.664 38.6438 134.664 37.6641C134.664 36.7247 134.941 35.9498 135.495 35.3395C136.049 34.7293 136.792 34.4241 137.723 34.4241C138.663 34.4241 139.43 34.7373 140.024 35.3636C140.618 35.998 140.915 36.8451 140.915 37.905ZM139.157 37.0378C139.109 36.6042 138.964 36.267 138.723 36.0261C138.482 35.7852 138.169 35.6647 137.784 35.6647C137.398 35.6647 137.081 35.7852 136.832 36.0261C136.583 36.283 136.439 36.6203 136.398 37.0378H139.157ZM145.215 33.581H144.745C144.272 33.581 144.035 33.8179 144.035 34.2916V34.6168L145.215 34.5807V35.8334L144.035 35.7972V40.7957H142.336V35.7972L141.469 35.8334V34.5807L142.336 34.6168V34.2073C142.336 33.565 142.505 33.0751 142.842 32.7379C143.188 32.3926 143.681 32.22 144.324 32.22H145.215V33.581ZM149.213 35.8334L148.057 35.7972V38.8445C148.057 39.0533 148.101 39.2058 148.189 39.3022C148.286 39.3905 148.438 39.4347 148.647 39.4347H149.213V40.7957H148.105C147.479 40.7957 147.029 40.6632 146.756 40.3983C146.491 40.1252 146.359 39.6756 146.359 39.0493V35.7972L145.516 35.8334V34.5807L146.359 34.6048V32.6656H148.057V34.6168L149.213 34.5807V35.8334Z" fill="black"/>
<path d="M180.506 60.6951H31.0755C28.1513 60.6951 25.7808 63.0656 25.7808 65.9898V93.0521C25.7808 95.9763 28.1513 98.3469 31.0755 98.3469H180.506C183.43 98.3469 185.801 95.9763 185.801 93.0521V65.9898C185.801 63.0656 183.43 60.6951 180.506 60.6951Z" fill="#D0D1D3"/>
<path d="M180.506 60.6951H31.0755C28.1513 60.6951 25.7808 63.0656 25.7808 65.9898V93.0521C25.7808 95.9763 28.1513 98.3469 31.0755 98.3469H180.506C183.43 98.3469 185.801 95.9763 185.801 93.0521V65.9898C185.801 63.0656 183.43 60.6951 180.506 60.6951Z" stroke="white" stroke-width="1.17662" stroke-dasharray="2.36 2.36"/>
<path d="M91.613 84.2049H89.71L89.1318 82.4223H86.0243L85.4462 84.2049H83.5552L86.5904 75.6292H88.65L91.613 84.2049ZM86.8554 79.8929L86.5061 80.9529H88.6621L88.3128 79.8929L87.5901 77.4238L86.8554 79.8929ZM95.296 84.4097C94.3886 84.4097 93.6619 84.1126 93.1159 83.5184C92.5779 82.9322 92.3089 82.1332 92.3089 81.1215C92.3089 80.1097 92.5779 79.3108 93.1159 78.7246C93.6619 78.1304 94.3886 77.8333 95.296 77.8333C96.0909 77.8333 96.7373 78.0381 97.2352 78.4476C97.733 78.8491 98.0462 79.4192 98.1747 80.1579H96.5125C96.3278 79.4915 95.9303 79.1582 95.3201 79.1582C94.8865 79.1582 94.5492 79.3309 94.3083 79.6761C94.0674 80.0134 93.947 80.4952 93.947 81.1215C93.947 81.7478 94.0674 82.2336 94.3083 82.5789C94.5492 82.9161 94.8865 83.0848 95.3201 83.0848C95.9223 83.0848 96.3198 82.7435 96.5125 82.061H98.1747C98.0462 82.7997 97.729 83.3778 97.2231 83.7954C96.7173 84.2049 96.0749 84.4097 95.296 84.4097ZM102.329 79.2425L101.173 79.2064V82.2537C101.173 82.4625 101.217 82.615 101.306 82.7114C101.402 82.7997 101.555 82.8439 101.763 82.8439H102.329V84.2049H101.221C100.595 84.2049 100.145 84.0724 99.8723 83.8074C99.6073 83.5344 99.4748 83.0848 99.4748 82.4584V79.2064L98.6317 79.2425V77.9899L99.4748 78.014V76.0748H101.173V78.026L102.329 77.9899V79.2425ZM104.989 77.1709H103.29V75.6292H104.989V77.1709ZM104.989 84.2049H103.29V77.9899H104.989V84.2049ZM111.574 83.4702C110.988 84.0965 110.225 84.4097 109.286 84.4097C108.346 84.4097 107.583 84.0965 106.997 83.4702C106.403 82.8519 106.106 82.069 106.106 81.1215C106.106 80.182 106.403 79.3951 106.997 78.7607C107.592 78.1425 108.354 77.8333 109.286 77.8333C110.217 77.8333 110.98 78.1425 111.574 78.7607C112.168 79.3951 112.466 80.182 112.466 81.1215C112.466 82.069 112.168 82.8519 111.574 83.4702ZM107.744 81.1215C107.744 81.7237 107.885 82.2015 108.166 82.5548C108.447 82.9081 108.82 83.0848 109.286 83.0848C109.76 83.0848 110.137 82.9081 110.418 82.5548C110.691 82.2095 110.828 81.7318 110.828 81.1215C110.828 80.5112 110.691 80.0335 110.418 79.6882C110.137 79.3349 109.76 79.1582 109.286 79.1582C108.82 79.1582 108.447 79.3349 108.166 79.6882C107.885 80.0415 107.744 80.5193 107.744 81.1215ZM117.04 77.8333C117.682 77.8333 118.18 78.03 118.533 78.4235C118.895 78.817 119.075 79.3549 119.075 80.0375V84.2049H117.377V80.4229C117.377 80.0857 117.297 79.8247 117.136 79.64C116.984 79.4553 116.763 79.363 116.474 79.363C116.112 79.363 115.819 79.5035 115.595 79.7845C115.37 80.0576 115.257 80.4229 115.257 80.8806V84.2049H113.559V77.9899H115.221L115.245 78.833C115.647 78.1665 116.245 77.8333 117.04 77.8333ZM127.147 84.2049H125.364V78.3633H123.208V77.1709H123.834C124.38 77.1709 124.806 77.0303 125.111 76.7493C125.36 76.5245 125.509 76.1872 125.557 75.7375L125.569 75.6292H127.147V84.2049Z" fill="black"/>
<path d="M180.506 114.819H31.0755C28.1513 114.819 25.7808 117.189 25.7808 120.114V147.176C25.7808 150.1 28.1513 152.471 31.0755 152.471H180.506C183.43 152.471 185.801 150.1 185.801 147.176V120.114C185.801 117.189 183.43 114.819 180.506 114.819Z" fill="#D0D1D3"/>
<path d="M180.506 114.819H31.0755C28.1513 114.819 25.7808 117.189 25.7808 120.114V147.176C25.7808 150.1 28.1513 152.471 31.0755 152.471H180.506C183.43 152.471 185.801 150.1 185.801 147.176V120.114C185.801 117.189 183.43 114.819 180.506 114.819Z" stroke="white" stroke-width="1.17662" stroke-dasharray="2.36 2.36"/>
<path d="M90.3962 138.329H88.4932L87.915 136.547H84.8075L84.2294 138.329H82.3384L85.3736 129.754H87.4332L90.3962 138.329ZM85.6386 134.017L85.2893 135.077H87.4453L87.096 134.017L86.3733 131.548L85.6386 134.017ZM94.0785 138.534C93.1712 138.534 92.4445 138.237 91.8985 137.643C91.3605 137.057 91.0915 136.258 91.0915 135.246C91.0915 134.234 91.3605 133.435 91.8985 132.849C92.4445 132.255 93.1712 131.958 94.0785 131.958C94.8735 131.958 95.5199 132.162 96.0177 132.572C96.5155 132.973 96.8287 133.544 96.9572 134.282H95.295C95.1103 133.616 94.7129 133.283 94.1026 133.283C93.669 133.283 93.3318 133.455 93.0909 133.8C92.85 134.138 92.7295 134.62 92.7295 135.246C92.7295 135.872 92.85 136.358 93.0909 136.703C93.3318 137.041 93.669 137.209 94.1026 137.209C94.7048 137.209 95.1023 136.868 95.295 136.185H96.9572C96.8287 136.924 96.5115 137.502 96.0057 137.92C95.4998 138.329 94.8574 138.534 94.0785 138.534ZM101.113 133.367L99.9563 133.331V136.378C99.9563 136.587 100 136.739 100.089 136.836C100.185 136.924 100.338 136.968 100.546 136.968H101.113V138.329H100.004C99.3782 138.329 98.9285 138.197 98.6555 137.932C98.3905 137.659 98.258 137.209 98.258 136.583V133.331L97.4149 133.367V132.114L98.258 132.138V130.199H99.9563V132.15L101.113 132.114V133.367ZM103.772 131.295H102.073V129.754H103.772V131.295ZM103.772 138.329H102.073V132.114H103.772V138.329ZM110.357 137.595C109.771 138.221 109.008 138.534 108.068 138.534C107.129 138.534 106.366 138.221 105.78 137.595C105.186 136.976 104.889 136.193 104.889 135.246C104.889 134.306 105.186 133.519 105.78 132.885C106.374 132.267 107.137 131.958 108.068 131.958C109 131.958 109.763 132.267 110.357 132.885C110.951 133.519 111.248 134.306 111.248 135.246C111.248 136.193 110.951 136.976 110.357 137.595ZM106.527 135.246C106.527 135.848 106.667 136.326 106.948 136.679C107.229 137.032 107.603 137.209 108.068 137.209C108.542 137.209 108.919 137.032 109.201 136.679C109.474 136.334 109.61 135.856 109.61 135.246C109.61 134.636 109.474 134.158 109.201 133.813C108.919 133.459 108.542 133.283 108.068 133.283C107.603 133.283 107.229 133.459 106.948 133.813C106.667 134.166 106.527 134.644 106.527 135.246ZM115.823 131.958C116.465 131.958 116.963 132.154 117.317 132.548C117.678 132.941 117.859 133.479 117.859 134.162V138.329H116.16V134.547C116.16 134.21 116.08 133.949 115.919 133.764C115.767 133.58 115.546 133.487 115.257 133.487C114.896 133.487 114.603 133.628 114.378 133.909C114.153 134.182 114.04 134.547 114.04 135.005V138.329H112.342V132.114H114.004L114.028 132.957C114.43 132.291 115.028 131.958 115.823 131.958ZM128.736 138.329H122.401C122.401 137.647 122.541 137.057 122.822 136.559C123.103 136.053 123.565 135.563 124.207 135.089L125.846 133.885C126.175 133.636 126.412 133.395 126.556 133.162C126.709 132.929 126.785 132.656 126.785 132.343C126.785 131.934 126.669 131.616 126.436 131.392C126.211 131.159 125.902 131.042 125.508 131.042C125.099 131.042 124.782 131.171 124.557 131.428C124.332 131.677 124.219 132.042 124.219 132.524V132.765H122.497V132.608C122.497 131.653 122.766 130.906 123.304 130.368C123.842 129.83 124.589 129.561 125.544 129.561C126.484 129.561 127.235 129.806 127.797 130.296C128.367 130.793 128.652 131.448 128.652 132.259C128.652 133.375 128.07 134.318 126.905 135.089L125.448 136.053C125.167 136.238 124.974 136.386 124.87 136.498C124.774 136.603 124.717 136.715 124.701 136.836H128.736V138.329Z" fill="black"/>
</g>
</g>
<defs>
<filter id="filter0_d_32_1831" x="0.483089" y="5.05724" width="210.614" height="179.771" filterUnits="userSpaceOnUse" color-interpolation-filters="sRGB">
<feFlood flood-opacity="0" result="BackgroundImageFix"/>
<feColorMatrix in="SourceAlpha" type="matrix" values="0 0 0 0 0 0 0 0 0 0 0 0 0 0 0 0 0 0 127 0" result="hardAlpha"/>
<feOffset dy="4.70647"/>
<feGaussianBlur stdDeviation="8.82462"/>
<feComposite in2="hardAlpha" operator="out"/>
<feColorMatrix type="matrix" values="0 0 0 0 0 0 0 0 0 0 0 0 0 0 0 0 0 0 0.25 0"/>
<feBlend mode="normal" in2="BackgroundImageFix" result="effect1_dropShadow_32_1831"/>
<feBlend mode="normal" in="SourceGraphic" in2="effect1_dropShadow_32_1831" result="shape"/>
</filter>
<clipPath id="clip0_32_1831">
<rect width="210.781" height="180" fill="white"/>
</clipPath>
</defs>
</svg>
