<svg preserveAspectRatio="none" width="100%" height="100%" overflow="visible" style="display: block;" viewBox="0 0 140.619 30.9819" fill="none" xmlns="http://www.w3.org/2000/svg">
<g id="Group 9">
<g id="Group">
<path id="Vector" d="M41.7151 25.7175H41.5611V28.4885H38.3357V1.92248H41.7517V12.0973H41.9057C43.4231 10.0887 46.3113 8.94517 48.7011 8.94517C54.6242 8.94517 58.4581 13.0796 58.4581 19.0027C58.4581 24.9258 54.6242 29.0602 48.7011 29.0602C46.1574 29.0602 43.0052 27.8067 41.7151 25.7175ZM54.8441 18.9954C54.8441 14.7436 52.1904 11.9727 48.3126 11.9727C44.4347 11.9727 41.7444 14.7436 41.7444 18.9954C41.7444 23.2471 44.442 26.0181 48.3126 26.0181C52.1831 26.0181 54.8441 23.2471 54.8441 18.9954Z" fill="var(--fill-0, white)"/>
<path id="Vector_2" d="M59.7778 20.4029V9.50965H63.1939V19.186C63.1939 23.5477 65.0925 25.8275 68.7358 25.8275C72.7236 25.8275 74.9594 23.0565 74.9594 19.186V9.50965H78.3755V28.4885H75.15V25.8348H74.9961C73.4787 27.7334 71.0523 28.8697 68.0907 28.8697C63.0033 28.8697 59.7778 25.6076 59.7778 20.4102V20.4029Z" fill="var(--fill-0, white)"/>
<path id="Vector_3" d="M80.0832 22.4115H83.6898C83.6898 24.4201 85.3612 26.0181 89.3417 26.0181C92.4938 26.0181 94.3118 24.9552 94.3118 23.2472C94.3118 18.7682 80.457 22.7194 80.457 14.861C80.457 11.0638 83.9464 8.93791 88.6893 8.93791C94.1945 8.93791 97.3393 11.7455 97.3393 15.1982H93.7327C93.7327 13.4535 92.2153 11.9728 88.7626 11.9728C85.5005 11.9728 84.0563 13.153 84.0563 14.7437C84.0563 19.2594 97.9111 15.2789 97.9111 23.1665C97.9111 26.8098 94.7956 29.0457 89.261 29.0457C82.6928 29.0457 80.0758 25.9742 80.0758 22.4042L80.0832 22.4115Z" fill="var(--fill-0, white)"/>
<path id="Vector_4" d="M99.6264 28.4885V1.92248H103.042V11.98H103.196C104.831 10.1181 107.258 9.13576 110.102 9.13576C115.189 9.13576 118.415 12.3979 118.415 17.6026V28.4958H114.999V18.8194C114.999 14.4578 113.1 12.1779 109.457 12.1779C105.469 12.1779 103.042 14.9489 103.042 18.8194V28.4958H99.6264V28.4885Z" fill="var(--fill-0, white)"/>
<path id="Vector_5" d="M119.551 22.9099C119.551 19.3766 122.894 16.9135 127.864 16.9135C130.562 16.9135 133.142 17.5953 134.733 18.5482V16.2318C134.733 13.5341 132.797 11.98 129.154 11.98C126.002 11.98 123.685 13.1603 123.685 15.1322H120.159C120.159 11.335 123.803 8.94519 129.227 8.94519C134.652 8.94519 138.149 11.7161 138.149 16.3051V23.7823C138.149 24.9625 138.64 25.4903 139.556 25.4903C140.011 25.4903 140.355 25.417 140.619 25.2264V28.1073C140.047 28.3345 139.366 28.4885 138.567 28.4885C136.705 28.4885 135.686 27.7261 135.114 26.3626H134.96C133.369 27.7701 130.554 28.8697 127.255 28.8697C122.703 28.8697 119.551 26.6705 119.551 22.9099ZM134.733 23.555V21.2019C133.252 20.4395 130.935 19.9484 128.663 19.9484C125.174 19.9484 123.158 21.1652 123.158 22.9099C123.158 24.9991 125.21 25.8348 128.055 25.8348C130.672 25.8348 133.215 25.0724 134.733 23.555Z" fill="var(--fill-0, white)"/>
</g>
<path id="Vector (Stroke)" d="M29.3882 20.2815C29.3882 16.4432 26.6677 13.2402 23.0498 12.4959C23.0363 12.5348 23.0232 12.5739 23.0097 12.6127V12.6129C21.3356 17.4035 18.7289 21.7592 15.4079 25.4581C16.8657 27.155 19.027 28.2301 21.4396 28.2301C25.8295 28.23 29.3881 24.6713 29.3882 20.2815ZM14.7131 2.88624C13.9046 10.7678 9.78608 17.6944 3.77796 22.2291L10.2133 26.7168C10.7956 26.2137 11.3608 25.6905 11.9077 25.1489C11.1606 23.6887 10.7392 22.0343 10.7392 20.2815C10.7392 14.493 15.3356 9.77805 21.0776 9.58721C21.6162 7.66623 21.9968 5.68198 22.2018 3.64267L14.7131 2.88624ZM13.4908 20.2815C13.4909 21.2166 13.6528 22.1138 13.9494 22.9471C16.5855 19.8575 18.6965 16.3073 20.1461 12.4379C16.3714 13.0556 13.4908 16.332 13.4908 20.2815ZM32.1398 20.2815C32.1398 26.191 27.3492 30.9816 21.4396 30.9817C18.2861 30.9817 15.4513 29.6175 13.493 27.4471C12.7444 28.169 11.9649 28.8602 11.1567 29.516C10.6804 29.9025 10.0058 29.9269 9.50273 29.5761L0.588896 23.3598C0.212956 23.0976 -0.00780204 22.6655 0.000219161 22.2072C0.00825767 21.749 0.24395 21.3248 0.628819 21.0759C7.19956 16.8275 11.6586 9.57812 12.0753 1.30658L12.0805 1.23633C12.1161 0.886595 12.2847 0.56278 12.5526 0.332493C12.8385 0.086844 13.2126 -0.0309114 13.5876 0.00696403L23.821 1.04056C24.5566 1.11486 25.102 1.75734 25.0559 2.49526C24.8976 5.02802 24.4885 7.48626 23.8573 9.85535C28.6024 10.9513 32.1398 15.2033 32.1398 20.2815Z" fill="var(--fill-0, #16CB3E)"/>
</g>
</svg>
