<svg preserveAspectRatio="none" width="100%" height="100%" overflow="visible" style="display: block;" viewBox="0 0 866.551 669.571" fill="none" xmlns="http://www.w3.org/2000/svg">
<g id="pattern">
<path id="Move Cash - Visual Device" d="M238.531 0.000799203C242.818 -0.0462162 246.833 1.98341 249.282 5.48819L316.621 102.049C316.729 102.204 316.832 102.361 316.932 102.519C367.325 97.1422 413.202 69.0339 441.006 26.034C442.442 23.816 444.883 22.4579 447.524 22.4106C450.174 22.3806 452.654 23.6369 454.167 25.8039L492.966 81.4358C525.889 79.3935 556.188 61.6457 574.21 33.7798C575.094 32.408 576.607 31.5708 578.239 31.5407C579.876 31.5236 581.412 32.297 582.348 33.6348L605.846 67.3345C606.138 67.2405 606.442 67.1808 606.753 67.1643C630.983 65.9418 653.353 52.9902 666.59 32.5172C667.236 31.5217 668.33 30.9163 669.514 30.8949C670.702 30.8821 671.818 31.4447 672.493 32.4147L690.002 57.5179C690.045 57.5133 690.089 57.5068 690.133 57.5043C707.636 56.6239 723.796 47.2674 733.357 32.4746C733.823 31.7569 734.614 31.3163 735.469 31.299C736.328 31.2905 737.131 31.6983 737.623 32.3992L750.038 50.1994C750.189 50.1519 750.347 50.1224 750.508 50.1144C763.347 49.4687 775.199 42.6046 782.212 31.7573C782.554 31.2316 783.137 30.9074 783.765 30.8988C784.393 30.8905 784.982 31.1885 785.341 31.7051L795.181 45.8103C803.653 45.3055 811.456 40.7503 816.092 33.5826C816.318 33.2321 816.707 33.0145 817.126 33.0102C817.554 33.0017 817.939 33.2058 818.178 33.5478L824.041 41.9548C824.164 41.8832 824.301 41.838 824.447 41.833C830.849 41.5338 836.756 38.3875 840.244 33.4124C840.41 33.1775 840.676 33.0362 840.967 33.0276C841.244 33.0278 841.526 33.157 841.702 33.3834L846.404 39.6036C850.074 39.3814 853.449 37.5623 855.453 34.7002C855.551 34.5637 855.706 34.4778 855.872 34.4778C856.03 34.4738 856.197 34.552 856.3 34.6885L859.167 38.4841C859.178 38.4989 859.187 38.515 859.196 38.5305C859.241 38.4984 859.293 38.4755 859.347 38.4725C861.411 38.3784 863.318 37.3622 864.442 35.7597C864.493 35.6829 864.582 35.6342 864.672 35.6341C864.766 35.6341 864.852 35.6774 864.908 35.7501L866.493 37.8441C866.575 37.9552 866.57 38.1089 866.48 38.2115C866.181 38.549 865.852 38.8698 865.502 39.1647C864.536 39.9768 863.424 40.589 862.197 40.9822C861.368 41.2471 860.509 41.4085 859.637 41.4598H859.62C859.475 41.4594 859.347 41.3494 859.334 41.2046L859.109 39.1782C858.579 39.777 857.996 40.348 857.367 40.8682C855.619 42.334 853.611 43.4414 851.389 44.1552C849.888 44.6381 848.332 44.9297 846.76 45.0195H846.729C846.464 45.0192 846.239 44.818 846.209 44.5535L845.899 41.7556C845.163 42.5318 844.374 43.2784 843.54 43.9754C840.544 46.4885 837.098 48.385 833.295 49.6116C830.726 50.4365 828.058 50.9369 825.361 51.0908H825.311C824.854 51.0908 824.469 50.7492 824.418 50.2922L823.892 45.5029C822.88 46.6668 821.794 47.7828 820.643 48.8227C816.617 52.4897 811.981 55.2556 806.865 57.0422C803.407 58.2475 799.812 58.9793 796.174 59.2059H796.093C795.452 59.2059 794.91 58.7182 794.846 58.0728L793.982 49.5498C792.447 51.3222 790.795 53.018 789.047 54.606C783.012 60.1025 776.061 64.2443 768.389 66.9284C763.205 68.7363 757.815 69.8271 752.37 70.1691H752.25C751.289 70.1687 750.477 69.4414 750.378 68.4714L749.212 56.9494C747.175 59.2867 744.984 61.5244 742.671 63.6201C734.444 71.1127 724.968 76.7644 714.509 80.4188C707.444 82.8849 700.093 84.371 692.664 84.8369C692.609 84.8369 692.557 84.8427 692.502 84.8427C691.194 84.8427 690.083 83.8506 689.946 82.5302L688.339 66.6307C685.574 69.7816 682.606 72.7983 679.481 75.6313C668.095 86.0002 654.978 93.8254 640.497 98.886C630.718 102.301 620.541 104.358 610.262 105.004C610.185 105.008 610.111 105.011 610.034 105.011C608.222 105.011 606.683 103.639 606.5 101.81L604.355 80.558C600.493 84.977 596.342 89.209 591.967 93.1724C576.277 107.456 558.21 118.236 538.263 125.207C524.787 129.913 510.777 132.747 496.613 133.632C496.51 133.64 496.408 133.64 496.305 133.64C493.809 133.64 491.689 131.746 491.433 129.233L488.768 102.879C482.808 109.613 476.437 116.068 469.742 122.139C444.358 145.253 415.123 162.692 382.849 173.971C361.046 181.583 338.371 186.169 315.453 187.601C315.287 187.609 315.121 187.618 314.954 187.618C310.915 187.618 307.484 184.557 307.073 180.483L302.324 133.475C293.533 143.188 284.213 152.523 274.468 161.357C233.398 198.755 186.097 226.97 133.876 245.22C98.602 257.538 61.9124 264.958 24.8302 267.274C24.5612 267.291 24.2915 267.299 24.0182 267.299C17.4831 267.299 11.9313 262.346 11.2645 255.76L0.06544 144.906C-0.289271 141.41 0.808714 137.923 3.09917 135.256L3.10884 135.25C5.39967 132.588 8.68203 130.976 12.1907 130.801C99.5795 126.399 180.25 79.6908 227.984 5.85943C230.304 2.26982 234.258 0.0736946 238.531 0.000799203Z" fill="var(--fill-0, #232323)"/>
<path id="Move Cash - Visual Device_2" d="M238.531 201.137C242.818 201.09 246.833 203.12 249.282 206.624L316.621 303.186C316.729 303.34 316.832 303.497 316.932 303.655C367.325 298.278 413.202 270.17 441.006 227.17C442.442 224.952 444.883 223.594 447.524 223.547C450.174 223.517 452.654 224.773 454.167 226.94L492.966 282.572C525.889 280.53 556.188 262.782 574.21 234.916C575.094 233.544 576.607 232.707 578.239 232.677C579.876 232.66 581.412 233.433 582.348 234.771L605.846 268.471C606.138 268.377 606.442 268.317 606.753 268.301C630.983 267.078 653.353 254.126 666.59 233.653C667.236 232.658 668.33 232.053 669.514 232.031C670.702 232.018 671.818 232.581 672.493 233.551L690.002 258.654C690.045 258.649 690.089 258.643 690.133 258.641C707.636 257.76 723.796 248.404 733.357 233.611C733.823 232.893 734.614 232.453 735.469 232.435C736.328 232.427 737.131 232.834 737.623 233.535L750.038 251.336C750.189 251.288 750.347 251.259 750.508 251.251C763.347 250.605 775.199 243.741 782.212 232.894C782.554 232.368 783.137 232.044 783.765 232.035C784.393 232.027 784.982 232.325 785.341 232.841L795.181 246.946C803.653 246.442 811.456 241.887 816.092 234.719C816.318 234.368 816.707 234.151 817.126 234.146C817.554 234.138 817.939 234.342 818.178 234.684L824.041 243.091C824.164 243.019 824.301 242.974 824.447 242.969C830.849 242.67 836.756 239.524 840.244 234.549C840.41 234.314 840.676 234.172 840.967 234.164C841.244 234.164 841.526 234.293 841.702 234.52L846.404 240.74C850.074 240.518 853.449 238.698 855.453 235.836C855.551 235.7 855.706 235.614 855.872 235.614C856.03 235.61 856.197 235.688 856.3 235.825L859.167 239.62C859.178 239.635 859.187 239.651 859.196 239.667C859.241 239.635 859.293 239.612 859.347 239.609C861.411 239.515 863.318 238.498 864.442 236.896C864.493 236.819 864.582 236.77 864.672 236.77C864.766 236.77 864.852 236.814 864.908 236.886L866.493 238.98C866.575 239.091 866.57 239.245 866.48 239.348C866.181 239.685 865.852 240.006 865.502 240.301C864.536 241.113 863.424 241.725 862.197 242.118C861.368 242.383 860.509 242.545 859.637 242.596H859.62C859.475 242.596 859.347 242.486 859.334 242.341L859.109 240.314C858.579 240.913 857.996 241.484 857.367 242.004C855.619 243.47 853.611 244.578 851.389 245.291C849.888 245.774 848.332 246.066 846.76 246.156H846.729C846.464 246.155 846.239 245.954 846.209 245.69L845.899 242.892C845.163 243.668 844.374 244.415 843.54 245.112C840.544 247.625 837.098 249.521 833.295 250.748C830.726 251.573 828.058 252.073 825.361 252.227H825.311C824.854 252.227 824.469 251.885 824.418 251.428L823.892 246.639C822.88 247.803 821.794 248.919 820.643 249.959C816.617 253.626 811.981 256.392 806.865 258.178C803.407 259.384 799.812 260.116 796.174 260.342H796.093C795.452 260.342 794.91 259.854 794.846 259.209L793.982 250.686C792.447 252.458 790.795 254.154 789.047 255.742C783.012 261.239 776.061 265.38 768.389 268.065C763.205 269.873 757.815 270.963 752.37 271.305H752.25C751.289 271.305 750.477 270.578 750.378 269.608L749.212 258.086C747.175 260.423 744.984 262.661 742.671 264.756C734.444 272.249 724.968 277.901 714.509 281.555C707.444 284.021 700.093 285.507 692.664 285.973C692.609 285.973 692.557 285.979 692.502 285.979C691.194 285.979 690.083 284.987 689.946 283.666L688.339 267.767C685.574 270.918 682.606 273.935 679.481 276.768C668.095 287.136 654.978 294.962 640.497 300.022C630.718 303.437 620.541 305.495 610.262 306.14C610.185 306.144 610.111 306.148 610.034 306.148C608.222 306.147 606.683 304.775 606.5 302.946L604.355 281.694C600.493 286.113 596.342 290.345 591.967 294.309C576.277 308.593 558.21 319.372 538.263 326.344C524.787 331.049 510.777 333.883 496.613 334.768C496.51 334.777 496.408 334.776 496.305 334.776C493.809 334.776 491.689 332.882 491.433 330.369L488.768 304.015C482.808 310.749 476.437 317.205 469.742 323.275C444.358 346.389 415.123 363.828 382.849 375.107C361.046 382.72 338.371 387.305 315.453 388.737C315.287 388.746 315.121 388.754 314.954 388.754C310.915 388.754 307.484 385.693 307.073 381.62L302.324 334.611C293.533 344.324 284.213 353.66 274.468 362.493C233.398 399.891 186.097 428.106 133.876 446.357C98.602 458.675 61.9124 466.094 24.8302 468.411C24.5612 468.428 24.2915 468.436 24.0182 468.436C17.4831 468.436 11.9313 463.483 11.2645 456.896L0.06544 346.042C-0.289271 342.547 0.808714 339.059 3.09917 336.392L3.10884 336.386C5.39967 333.724 8.68203 332.113 12.1907 331.937C99.5795 327.535 180.25 280.827 227.984 206.996C230.304 203.406 234.258 201.21 238.531 201.137Z" fill="var(--fill-0, #232323)"/>
<path id="Move Cash - Visual Device_3" d="M238.531 402.273C242.818 402.226 246.833 404.255 249.282 407.76L316.621 504.321C316.729 504.476 316.832 504.633 316.932 504.791C367.325 499.414 413.202 471.306 441.006 428.306C442.442 426.088 444.883 424.73 447.524 424.682C450.174 424.653 452.654 425.909 454.167 428.076L492.966 483.708C525.889 481.665 556.188 463.918 574.21 436.052C575.094 434.68 576.607 433.843 578.239 433.813C579.876 433.796 581.412 434.569 582.348 435.907L605.846 469.606C606.138 469.512 606.442 469.453 606.753 469.436C630.983 468.214 653.353 455.262 666.59 434.789C667.236 433.794 668.33 433.188 669.514 433.167C670.702 433.154 671.818 433.717 672.493 434.687L690.002 459.79C690.045 459.785 690.089 459.779 690.133 459.776C707.636 458.896 723.796 449.539 733.357 434.747C733.823 434.029 734.614 433.588 735.469 433.571C736.328 433.562 737.131 433.97 737.623 434.671L750.038 452.471C750.189 452.424 750.347 452.394 750.508 452.386C763.347 451.741 775.199 444.876 782.212 434.029C782.554 433.503 783.137 433.179 783.765 433.171C784.393 433.162 784.982 433.46 785.341 433.977L795.181 448.082C803.653 447.577 811.456 443.022 816.092 435.854C816.318 435.504 816.707 435.286 817.126 435.282C817.554 435.274 817.939 435.478 818.178 435.82L824.041 444.227C824.164 444.155 824.301 444.11 824.447 444.105C830.849 443.806 836.756 440.659 840.244 435.684C840.41 435.449 840.676 435.308 840.967 435.3C841.244 435.3 841.526 435.429 841.702 435.655L846.404 441.875C850.074 441.653 853.449 439.834 855.453 436.972C855.551 436.836 855.706 436.75 855.872 436.75C856.03 436.746 856.197 436.824 856.3 436.96L859.167 440.756C859.178 440.771 859.187 440.787 859.196 440.802C859.241 440.77 859.293 440.747 859.347 440.744C861.411 440.65 863.318 439.634 864.442 438.032C864.493 437.955 864.582 437.906 864.672 437.906C864.766 437.906 864.852 437.949 864.908 438.022L866.493 440.116C866.575 440.227 866.57 440.381 866.48 440.483C866.181 440.821 865.852 441.142 865.502 441.437C864.536 442.249 863.424 442.861 862.197 443.254C861.368 443.519 860.509 443.68 859.637 443.732H859.62C859.475 443.731 859.347 443.621 859.334 443.476L859.109 441.45C858.579 442.049 857.996 442.62 857.367 443.14C855.619 444.606 853.611 445.713 851.389 446.427C849.888 446.91 848.332 447.202 846.76 447.291H846.729C846.464 447.291 846.239 447.09 846.209 446.825L845.899 444.028C845.163 444.804 844.374 445.55 843.54 446.247C840.544 448.76 837.098 450.657 833.295 451.883C830.726 452.708 828.058 453.209 825.361 453.363H825.311C824.854 453.363 824.469 453.021 824.418 452.564L823.892 447.775C822.88 448.939 821.794 450.055 820.643 451.095C816.617 454.762 811.981 457.528 806.865 459.314C803.407 460.519 799.812 461.251 796.174 461.478H796.093C795.452 461.478 794.91 460.99 794.846 460.345L793.982 451.822C792.447 453.594 790.795 455.29 789.047 456.878C783.012 462.374 776.061 466.516 768.389 469.2C763.205 471.008 757.815 472.099 752.37 472.441H752.25C751.289 472.441 750.477 471.713 750.378 470.743L749.212 459.221C747.175 461.559 744.984 463.796 742.671 465.892C734.444 473.385 724.968 479.036 714.509 482.691C707.444 485.157 700.093 486.643 692.664 487.109C692.609 487.109 692.557 487.115 692.502 487.115C691.194 487.115 690.083 486.122 689.946 484.802L688.339 468.903C685.574 472.053 682.606 475.07 679.481 477.903C668.095 488.272 654.978 496.097 640.497 501.158C630.718 504.573 620.541 506.63 610.262 507.276C610.185 507.28 610.111 507.283 610.034 507.283C608.222 507.283 606.683 505.91 606.5 504.081L604.355 482.83C600.493 487.249 596.342 491.481 591.967 495.444C576.277 509.728 558.21 520.508 538.263 527.479C524.787 532.185 510.777 535.019 496.613 535.904C496.51 535.912 496.408 535.911 496.305 535.911C493.809 535.911 491.689 534.018 491.433 531.505L488.768 505.151C482.808 511.885 476.437 518.34 469.742 524.411C444.358 547.525 415.123 564.964 382.849 576.243C361.046 583.855 338.371 588.441 315.453 589.873C315.287 589.881 315.121 589.89 314.954 589.89C310.915 589.89 307.484 586.829 307.073 582.755L302.324 535.747C293.533 545.46 284.213 554.795 274.468 563.629C233.398 601.027 186.097 629.242 133.876 647.492C98.602 659.81 61.9124 667.23 24.8302 669.546C24.5612 669.563 24.2915 669.571 24.0182 669.571C17.4831 669.571 11.9313 664.618 11.2645 658.032L0.06544 547.178C-0.289271 543.682 0.808714 540.195 3.09917 537.528L3.10884 537.522C5.39967 534.86 8.68203 533.248 12.1907 533.073C99.5795 528.671 180.25 481.963 227.984 408.131C230.304 404.542 234.258 402.346 238.531 402.273Z" fill="var(--fill-0, #232323)"/>
</g>
</svg>
