<svg width="211" height="180" viewBox="0 0 211 180" fill="none" xmlns="http://www.w3.org/2000/svg">
<g clip-path="url(#clip0_32_1875)">
<g filter="url(#filter0_d_32_1875)">
<rect x="18.3901" y="18" width="175" height="143.532" rx="11.745" fill="white" shape-rendering="crispEdges"/>
<g clip-path="url(#clip1_32_1875)">
<rect x="26.0243" y="27.9832" width="159.732" height="123.566" rx="5.28523" fill="#D0D1D3"/>
<rect x="26.0243" y="27.9832" width="159.732" height="123.566" rx="5.28523" stroke="white" stroke-width="1.1745" stroke-dasharray="2.35 2.35"/>
<path d="M35.8423 53.6725C34.6801 53.6725 33.7263 53.2557 32.9808 52.4221C32.2354 51.5886 31.8627 50.4865 31.8627 49.1158C31.8627 47.7532 32.2394 46.6672 32.9929 45.8576C33.7543 45.0481 34.7121 44.6433 35.8663 44.6433C36.9083 44.6433 37.7499 44.9158 38.3911 45.4609C39.0324 45.9979 39.3931 46.7353 39.4732 47.6731H37.778C37.7058 47.2002 37.5095 46.8355 37.1889 46.579C36.8763 46.3145 36.4635 46.1823 35.9505 46.1823C35.2291 46.1823 34.664 46.4468 34.2553 46.9758C33.8465 47.5048 33.6421 48.2181 33.6421 49.1158C33.6421 50.0456 33.8465 50.783 34.2553 51.3281C34.664 51.8651 35.2291 52.1336 35.9505 52.1336C36.4715 52.1336 36.8883 51.9933 37.2009 51.7128C37.5135 51.4323 37.7058 51.0595 37.778 50.5947H39.4612C39.389 51.5565 39.0324 52.3099 38.3911 52.855C37.7499 53.4 36.9003 53.6725 35.8423 53.6725ZM45.9939 53.396H44.2747C44.1865 52.9952 44.1424 52.7868 44.1424 52.7708C43.7016 53.3078 43.0644 53.5763 42.2308 53.5763C41.5815 53.5763 41.0605 53.404 40.6678 53.0594C40.275 52.7147 40.0787 52.2578 40.0787 51.6887C40.0787 50.6868 40.7079 50.0616 41.9663 49.8132L44.1304 49.3803V48.9235C44.1304 48.4746 43.7817 48.2502 43.0844 48.2502C42.7397 48.2502 42.4792 48.3143 42.3029 48.4426C42.1266 48.5708 42.0184 48.7792 41.9783 49.0678L40.4273 49.0437C40.5315 47.7132 41.4132 47.0479 43.0724 47.0479C44.8598 47.0479 45.7535 47.8174 45.7535 49.3563V52.0975C45.7535 52.6826 45.8336 53.1155 45.9939 53.396ZM42.7117 52.326C43.1365 52.326 43.4771 52.2017 43.7336 51.9532C43.9981 51.6968 44.1304 51.3521 44.1304 50.9193V50.4624L42.5434 50.799C42.0063 50.9032 41.7378 51.1637 41.7378 51.5805C41.7378 51.805 41.822 51.9853 41.9903 52.1216C42.1666 52.2578 42.4071 52.326 42.7117 52.326ZM54.1652 47.0359C54.7824 47.0359 55.2673 47.2363 55.62 47.637C55.9726 48.0378 56.149 48.5748 56.149 49.2481V53.396H54.4537V49.5847C54.4537 49.2802 54.3816 49.0357 54.2373 48.8513C54.1011 48.659 53.8967 48.5628 53.6242 48.5628C53.2955 48.5628 53.027 48.7031 52.8186 48.9836C52.6182 49.2561 52.5181 49.6208 52.5181 50.0777V53.396H50.8228V49.5847C50.8228 49.2802 50.7507 49.0357 50.6064 48.8513C50.4702 48.659 50.2658 48.5628 49.9932 48.5628C49.6646 48.5628 49.3961 48.7031 49.1877 48.9836C48.9873 49.2561 48.8871 49.6208 48.8871 50.0777V53.396H47.1919V47.1922H48.8511L48.8751 47.9857C49.2598 47.3525 49.8209 47.0359 50.5583 47.0359C51.44 47.0359 52.0331 47.4086 52.3377 48.154C52.7385 47.4086 53.3476 47.0359 54.1652 47.0359ZM61.0932 47.0359C61.8226 47.0359 62.4277 47.3284 62.9087 47.9136C63.3896 48.5067 63.63 49.2922 63.63 50.27C63.63 51.2559 63.3816 52.0574 62.8846 52.6746C62.3877 53.2918 61.7464 53.6004 60.9609 53.6004C60.2556 53.6004 59.6985 53.3399 59.2898 52.8189V55.8487H57.5945V47.1922H59.0974L59.1575 47.9977C59.5823 47.3565 60.2276 47.0359 61.0932 47.0359ZM60.6003 52.1095C61.0171 52.1095 61.3537 51.9412 61.6102 51.6046C61.8667 51.2679 61.9949 50.8231 61.9949 50.27C61.9949 49.717 61.8667 49.2761 61.6102 48.9475C61.3537 48.6109 61.0171 48.4426 60.6003 48.4426C60.1835 48.4426 59.8468 48.6109 59.5903 48.9475C59.3338 49.2761 59.2056 49.717 59.2056 50.27C59.2056 50.8231 59.3338 51.2679 59.5903 51.6046C59.8548 51.9412 60.1915 52.1095 60.6003 52.1095ZM70.2159 53.396H68.4966C68.4084 52.9952 68.3643 52.7868 68.3643 52.7708C67.9235 53.3078 67.2863 53.5763 66.4527 53.5763C65.8035 53.5763 65.2825 53.404 64.8897 53.0594C64.497 52.7147 64.3006 52.2578 64.3006 51.6887C64.3006 50.6868 64.9298 50.0616 66.1882 49.8132L68.3523 49.3803V48.9235C68.3523 48.4746 68.0036 48.2502 67.3063 48.2502C66.9617 48.2502 66.7012 48.3143 66.5248 48.4426C66.3485 48.5708 66.2403 48.7792 66.2002 49.0678L64.6493 49.0437C64.7535 47.7132 65.6351 47.0479 67.2943 47.0479C69.0817 47.0479 69.9754 47.8174 69.9754 49.3563V52.0975C69.9754 52.6826 70.0556 53.1155 70.2159 53.396ZM66.9336 52.326C67.3584 52.326 67.6991 52.2017 67.9556 51.9532C68.2201 51.6968 68.3523 51.3521 68.3523 50.9193V50.4624L66.7653 50.799C66.2283 50.9032 65.9598 51.1637 65.9598 51.5805C65.9598 51.805 66.0439 51.9853 66.2122 52.1216C66.3886 52.2578 66.629 52.326 66.9336 52.326ZM73.1091 46.3746H71.4138V44.8357H73.1091V46.3746ZM73.1091 53.396H71.4138V47.1922H73.1091V53.396ZM78.6966 47.9616L78.7567 47.1922H80.2596V53.4681C80.2596 54.2777 79.9991 54.8989 79.4781 55.3317C78.9651 55.7725 78.2397 55.9929 77.302 55.9929C76.4363 55.9929 75.759 55.8126 75.2701 55.4519C74.7892 55.0912 74.5166 54.5742 74.4525 53.901H76.0155C76.1117 54.454 76.5285 54.7305 77.2659 54.7305C77.7308 54.7305 78.0634 54.6263 78.2638 54.4179C78.4642 54.2176 78.5644 53.909 78.5644 53.4922V52.6386C78.1476 53.1435 77.5865 53.396 76.8811 53.396C76.0957 53.396 75.4584 53.0954 74.9695 52.4943C74.4726 51.9011 74.2241 51.1277 74.2241 50.1739C74.2241 49.212 74.4726 48.4466 74.9695 47.8775C75.4584 47.3164 76.0957 47.0359 76.8811 47.0359C77.6827 47.0359 78.2878 47.3445 78.6966 47.9616ZM77.2539 51.9532C77.6626 51.9532 77.9953 51.7889 78.2518 51.4603C78.5163 51.1317 78.6485 50.7029 78.6485 50.1739C78.6485 49.6449 78.5163 49.216 78.2518 48.8874C77.9953 48.5588 77.6626 48.3945 77.2539 48.3945C76.8371 48.3945 76.5004 48.5548 76.2439 48.8754C75.9874 49.196 75.8592 49.6288 75.8592 50.1739C75.8592 50.7189 75.9874 51.1517 76.2439 51.4723C76.5004 51.7929 76.8371 51.9532 77.2539 51.9532ZM85.1737 47.0359C85.8149 47.0359 86.3118 47.2323 86.6645 47.625C87.0252 48.0178 87.2055 48.5548 87.2055 49.2361V53.396H85.5103V49.6208C85.5103 49.2842 85.4302 49.0237 85.2698 48.8393C85.1176 48.655 84.8971 48.5628 84.6086 48.5628C84.2479 48.5628 83.9553 48.7031 83.7309 48.9836C83.5065 49.2561 83.3943 49.6208 83.3943 50.0777V53.396H81.699V47.1922H83.3582L83.3822 48.0338C83.783 47.3685 84.3801 47.0359 85.1737 47.0359ZM94.8055 48.4426L93.6513 48.4065V51.4483C93.6513 51.6567 93.6954 51.809 93.7836 51.9052C93.8797 51.9933 94.032 52.0374 94.2404 52.0374H94.8055V53.396H93.6994C93.0742 53.396 92.6254 53.2637 92.3528 52.9992C92.0883 52.7267 91.9561 52.2779 91.9561 51.6527V48.4065L91.1145 48.4426V47.1922L91.9561 47.2162V45.2805H93.6513V47.2282L94.8055 47.1922V48.4426ZM97.4601 46.3746H95.7649V44.8357H97.4601V46.3746ZM97.4601 53.396H95.7649V47.1922H97.4601V53.396ZM102.05 48.4426L100.896 48.4065V51.4483C100.896 51.6567 100.94 51.809 101.028 51.9052C101.124 51.9933 101.276 52.0374 101.485 52.0374H102.05V53.396H100.944C100.318 53.396 99.8696 53.2637 99.5971 52.9992C99.3326 52.7267 99.2004 52.2779 99.2004 51.6527V48.4065L98.3587 48.4426V47.1922L99.2004 47.2162V45.2805H100.896V47.2282L102.05 47.1922V48.4426ZM104.704 53.396H103.009V44.8357H104.704V53.396ZM112.059 50.5105V50.799H107.563C107.595 51.2639 107.739 51.6286 107.996 51.8931C108.252 52.1576 108.593 52.2899 109.018 52.2899C109.619 52.2899 110.019 52.0214 110.22 51.4844L111.903 51.6046C111.695 52.2618 111.346 52.7628 110.857 53.1074C110.368 53.4441 109.767 53.6124 109.054 53.6124C108.052 53.6124 107.262 53.2998 106.685 52.6746C106.108 52.0494 105.819 51.2479 105.819 50.27C105.819 49.3323 106.096 48.5588 106.649 47.9496C107.202 47.3405 107.943 47.0359 108.873 47.0359C109.811 47.0359 110.576 47.3485 111.17 47.9737C111.763 48.6069 112.059 49.4525 112.059 50.5105ZM110.304 49.6449C110.256 49.212 110.112 48.8754 109.871 48.6349C109.631 48.3945 109.318 48.2742 108.933 48.2742C108.549 48.2742 108.232 48.3945 107.984 48.6349C107.735 48.8914 107.591 49.2281 107.551 49.6449H110.304Z" fill="black"/>
<path d="M35.111 71.396H33.512C33.6963 68.5907 34.7744 66.1781 36.7461 64.1582H32.2496V62.8357H38.4414V64.0139C37.3753 65.0559 36.5818 66.154 36.0608 67.3082C35.5318 68.4704 35.2152 69.833 35.111 71.396ZM42.5122 71.5884C41.6545 71.5884 40.9492 71.372 40.3961 70.9391C39.8511 70.4983 39.5265 69.8931 39.4223 69.1237L40.853 69.0515C40.9332 69.4683 41.1215 69.7929 41.4181 70.0254C41.7146 70.2498 42.0873 70.362 42.5362 70.362C43.0652 70.362 43.482 70.2057 43.7866 69.8931C44.0912 69.5725 44.2435 69.1477 44.2435 68.6187C44.2435 68.0897 44.0912 67.6689 43.7866 67.3563C43.482 67.0437 43.0572 66.8874 42.5122 66.8874C41.9351 66.8874 41.4461 67.0998 41.0454 67.5246L39.6507 67.3924L40.4803 62.8357H45.1933V64.1221H41.5383L41.1656 66.1781L41.1896 66.1901C41.7026 65.8454 42.2717 65.6731 42.8969 65.6731C43.7465 65.6731 44.4278 65.9416 44.9408 66.4786C45.4538 67.0157 45.7103 67.713 45.7103 68.5706C45.7103 69.4523 45.4217 70.1777 44.8446 70.7468C44.2755 71.3078 43.498 71.5884 42.5122 71.5884ZM51.2695 67.2C50.8848 67.6729 50.3317 67.9094 49.6104 67.9094C48.889 67.9094 48.3399 67.6729 47.9632 67.2C47.5785 66.7271 47.3861 66.0498 47.3861 65.1681C47.3861 64.2945 47.5745 63.6252 47.9512 63.1603C48.3359 62.6954 48.889 62.463 49.6104 62.463C50.3317 62.463 50.8808 62.6954 51.2575 63.1603C51.6422 63.6252 51.8346 64.2945 51.8346 65.1681C51.8346 66.0498 51.6462 66.7271 51.2695 67.2ZM51.498 71.5763H50.2957L55.6819 62.6553H56.8602L51.498 71.5763ZM48.8048 66.5147C48.9892 66.7952 49.2577 66.9355 49.6104 66.9355C49.963 66.9355 50.2316 66.7952 50.4159 66.5147C50.5922 66.2422 50.6804 65.7973 50.6804 65.1802C50.6804 64.563 50.5922 64.1181 50.4159 63.8456C50.2396 63.5731 49.9711 63.4368 49.6104 63.4368C49.2497 63.4368 48.9812 63.5731 48.8048 63.8456C48.6285 64.1181 48.5403 64.563 48.5403 65.1802C48.5403 65.7973 48.6285 66.2422 48.8048 66.5147ZM59.3609 70.879C58.9762 71.3519 58.4232 71.5884 57.7018 71.5884C56.9804 71.5884 56.4314 71.3519 56.0546 70.879C55.6699 70.4141 55.4775 69.7368 55.4775 68.8471C55.4775 67.9735 55.6659 67.3042 56.0426 66.8393C56.4274 66.3744 56.9804 66.142 57.7018 66.142C58.4232 66.142 58.9722 66.3744 59.3489 66.8393C59.7337 67.3042 59.926 67.9735 59.926 68.8471C59.926 69.7288 59.7377 70.4061 59.3609 70.879ZM56.8962 70.1937C57.0806 70.4742 57.3491 70.6145 57.7018 70.6145C58.0545 70.6145 58.323 70.4742 58.5073 70.1937C58.6837 69.9212 58.7718 69.4763 58.7718 68.8592C58.7718 68.258 58.6837 67.8212 58.5073 67.5487C58.331 67.2681 58.0625 67.1279 57.7018 67.1279C57.3411 67.1279 57.0726 67.2681 56.8962 67.5487C56.7199 67.8212 56.6317 68.258 56.6317 68.8592C56.6317 69.4763 56.7199 69.9212 56.8962 70.1937ZM69.7502 70.6506C69.1731 71.2678 68.4317 71.5763 67.526 71.5763C66.6123 71.5763 65.8748 71.2718 65.3138 70.6626C64.7367 70.0454 64.4481 69.2599 64.4481 68.3061C64.4481 67.3363 64.7367 66.5468 65.3138 65.9376C65.8909 65.3365 66.6363 65.0359 67.55 65.0359C68.4558 65.0359 69.1932 65.3365 69.7623 65.9376C70.3313 66.5468 70.6159 67.3282 70.6159 68.2821C70.6159 69.2519 70.3273 70.0414 69.7502 70.6506ZM67.526 70.4462C68.055 70.4462 68.4718 70.2498 68.7764 69.8571C69.089 69.4643 69.2453 68.9393 69.2453 68.2821C69.2453 67.6248 69.093 67.1078 68.7884 66.7311C68.4838 66.3544 68.063 66.166 67.526 66.166C66.997 66.166 66.5802 66.3584 66.2756 66.7431C65.979 67.1279 65.8308 67.6489 65.8308 68.3061C65.8308 68.9553 65.9831 69.4763 66.2876 69.8691C66.5922 70.2538 67.005 70.4462 67.526 70.4462ZM75.0493 63.9779H74.5083C74.2358 63.9779 74.0434 64.038 73.9312 64.1582C73.819 64.2704 73.7629 64.4588 73.7629 64.7233V65.2282L75.0493 65.1922V66.2502L73.7629 66.2021V71.396H72.3562V66.2141L71.4184 66.2502V65.1922L72.3562 65.2282V64.7594C72.3562 63.4769 72.9974 62.8357 74.2799 62.8357H75.0493V63.9779ZM79.2174 63.9779H78.6764C78.4039 63.9779 78.2115 64.038 78.0993 64.1582C77.9871 64.2704 77.931 64.4588 77.931 64.7233V65.2282L79.2174 65.1922V66.2502L77.931 66.2021V71.396H76.5243V66.2141L75.5865 66.2502V65.1922L76.5243 65.2282V64.7594C76.5243 63.4769 77.1655 62.8357 78.448 62.8357H79.2174V63.9779Z" fill="black"/>
<rect x="32.0243" y="101.983" width="30.8866" height="37.566" rx="5.28523" fill="#D0D1D3"/>
<rect x="32.0243" y="101.983" width="30.8866" height="37.566" rx="5.28523" stroke="black" stroke-width="1.1745" stroke-dasharray="2.35 2.35"/>
<path d="M36.6506 118.962H38.1628C38.5761 118.962 38.9002 119.07 39.1353 119.287C39.3705 119.505 39.488 119.804 39.488 120.185C39.488 120.581 39.3669 120.889 39.1247 121.11C38.8824 121.33 38.5386 121.441 38.0934 121.441H37.4414V122.766H36.6506V118.962ZM37.4414 120.773H38.0239C38.2519 120.773 38.4247 120.723 38.5422 120.623C38.6633 120.524 38.7239 120.381 38.7239 120.196C38.7239 120.018 38.6687 119.879 38.5582 119.779C38.4478 119.679 38.2964 119.629 38.104 119.629H37.4414V120.773ZM41.2424 119.913C41.3315 119.913 41.4116 119.925 41.4829 119.95V120.639C41.3903 120.632 41.3386 120.629 41.3279 120.629C40.872 120.629 40.644 120.894 40.644 121.425V122.766H39.8905V120.009H40.6279L40.6172 120.378C40.7384 120.068 40.9468 119.913 41.2424 119.913ZM44.1917 122.44C43.9316 122.718 43.5932 122.857 43.1764 122.857C42.7596 122.857 42.4212 122.718 42.1611 122.44C41.8975 122.166 41.7657 121.819 41.7657 121.398C41.7657 120.981 41.8975 120.632 42.1611 120.351C42.4248 120.077 42.7632 119.939 43.1764 119.939C43.5896 119.939 43.9281 120.077 44.1917 120.351C44.4553 120.632 44.5871 120.981 44.5871 121.398C44.5871 121.819 44.4553 122.166 44.1917 122.44ZM42.4924 121.398C42.4924 121.665 42.5548 121.877 42.6795 122.034C42.8041 122.191 42.9698 122.269 43.1764 122.269C43.3866 122.269 43.554 122.191 43.6787 122.034C43.7998 121.881 43.8604 121.669 43.8604 121.398C43.8604 121.127 43.7998 120.915 43.6787 120.762C43.554 120.606 43.3866 120.527 43.1764 120.527C42.9698 120.527 42.8041 120.606 42.6795 120.762C42.5548 120.919 42.4924 121.131 42.4924 121.398ZM46.857 120.287V118.962H47.6104V122.766H46.9425L46.9158 122.424C46.727 122.713 46.4598 122.857 46.1143 122.857C45.7651 122.857 45.4802 122.72 45.2593 122.446C45.0384 122.171 44.928 121.815 44.928 121.377C44.928 120.942 45.0349 120.593 45.2486 120.329C45.4623 120.069 45.7313 119.939 46.0555 119.939C46.401 119.939 46.6682 120.055 46.857 120.287ZM46.2746 122.194C46.4562 122.194 46.6041 122.12 46.7181 121.97C46.8356 121.82 46.8944 121.623 46.8944 121.377C46.8944 121.131 46.8374 120.935 46.7234 120.789C46.6094 120.639 46.4598 120.565 46.2746 120.565C46.0893 120.565 45.9397 120.639 45.8257 120.789C45.7117 120.935 45.6547 121.131 45.6547 121.377C45.6547 121.623 45.7117 121.82 45.8257 121.97C45.9397 122.12 46.0893 122.194 46.2746 122.194ZM49.9441 121.484V120.009H50.6975V122.766H49.9601L49.9494 122.392C49.7713 122.688 49.5059 122.836 49.1533 122.836C48.8683 122.836 48.6456 122.748 48.4853 122.574C48.3286 122.399 48.2502 122.161 48.2502 121.858V120.009H49.0036V121.687C49.0036 121.836 49.0375 121.952 49.1052 122.034C49.1764 122.116 49.2762 122.157 49.4044 122.157C49.5647 122.157 49.6947 122.096 49.7945 121.975C49.8942 121.851 49.9441 121.687 49.9441 121.484ZM52.5203 122.857C52.1178 122.857 51.7954 122.725 51.5532 122.462C51.3145 122.201 51.1951 121.847 51.1951 121.398C51.1951 120.949 51.3145 120.595 51.5532 120.335C51.7954 120.071 52.1178 119.939 52.5203 119.939C52.873 119.939 53.1598 120.03 53.3806 120.212C53.6015 120.39 53.7404 120.643 53.7974 120.971H53.06C52.9781 120.675 52.8018 120.527 52.531 120.527C52.3387 120.527 52.189 120.604 52.0822 120.757C51.9753 120.907 51.9219 121.12 51.9219 121.398C51.9219 121.676 51.9753 121.892 52.0822 122.045C52.189 122.194 52.3387 122.269 52.531 122.269C52.7982 122.269 52.9745 122.118 53.06 121.815H53.7974C53.7404 122.143 53.5997 122.399 53.3753 122.584C53.1509 122.766 52.8659 122.857 52.5203 122.857ZM55.6408 120.565L55.1278 120.549V121.9C55.1278 121.993 55.1474 122.061 55.1866 122.104C55.2293 122.143 55.297 122.162 55.3896 122.162H55.6408V122.766H55.1492C54.8713 122.766 54.6718 122.707 54.5507 122.59C54.4331 122.469 54.3744 122.269 54.3744 121.991V120.549L54.0003 120.565V120.009L54.3744 120.02V119.159H55.1278V120.025L55.6408 120.009V120.565ZM58.1137 122.622C57.8964 122.786 57.599 122.868 57.2214 122.868C56.8438 122.868 56.5517 122.787 56.345 122.627C56.1349 122.467 56.0102 122.239 55.971 121.943L56.6603 121.916C56.7102 122.201 56.9061 122.344 57.2481 122.344C57.4013 122.344 57.5224 122.317 57.6114 122.264C57.7005 122.21 57.745 122.136 57.745 122.039C57.745 121.904 57.6239 121.811 57.3817 121.762L56.8366 121.655C56.3023 121.548 56.0351 121.279 56.0351 120.848C56.0351 120.57 56.1366 120.349 56.3397 120.185C56.5427 120.021 56.8153 119.939 57.1573 119.939C57.4885 119.939 57.7611 120.02 57.9748 120.18C58.1885 120.337 58.3132 120.55 58.3489 120.821L57.6702 120.848C57.6524 120.727 57.5954 120.632 57.4992 120.565C57.4066 120.497 57.2891 120.463 57.1466 120.463C57.0219 120.463 56.9221 120.49 56.8473 120.543C56.7725 120.597 56.7351 120.668 56.7351 120.757C56.7351 120.896 56.8384 120.989 57.045 121.035L57.6382 121.158C57.9125 121.215 58.1155 121.307 58.2473 121.436C58.3791 121.564 58.445 121.735 58.445 121.949C58.445 122.237 58.3346 122.462 58.1137 122.622Z" fill="black"/>
<rect x="73.4364" y="101.983" width="30.8866" height="37.566" rx="5.28523" fill="#D0D1D3"/>
<rect x="73.4364" y="101.983" width="30.8866" height="37.566" rx="5.28523" stroke="black" stroke-width="1.1745" stroke-dasharray="2.35 2.35"/>
<path d="M78.0627 118.962H79.5749C79.9882 118.962 80.3123 119.07 80.5474 119.287C80.7826 119.505 80.9001 119.804 80.9001 120.185C80.9001 120.581 80.779 120.889 80.5368 121.11C80.2945 121.33 79.9508 121.441 79.5055 121.441H78.8536V122.766H78.0627V118.962ZM78.8536 120.773H79.436C79.664 120.773 79.8368 120.723 79.9543 120.623C80.0754 120.524 80.136 120.381 80.136 120.196C80.136 120.018 80.0808 119.879 79.9703 119.779C79.8599 119.679 79.7085 119.629 79.5162 119.629H78.8536V120.773ZM82.6545 119.913C82.7436 119.913 82.8238 119.925 82.895 119.95V120.639C82.8024 120.632 82.7507 120.629 82.74 120.629C82.2841 120.629 82.0561 120.894 82.0561 121.425V122.766H81.3026V120.009H82.04L82.0294 120.378C82.1505 120.068 82.3589 119.913 82.6545 119.913ZM85.6038 122.44C85.3437 122.718 85.0053 122.857 84.5885 122.857C84.1717 122.857 83.8333 122.718 83.5733 122.44C83.3096 122.166 83.1778 121.819 83.1778 121.398C83.1778 120.981 83.3096 120.632 83.5733 120.351C83.8369 120.077 84.1753 119.939 84.5885 119.939C85.0018 119.939 85.3402 120.077 85.6038 120.351C85.8674 120.632 85.9992 120.981 85.9992 121.398C85.9992 121.819 85.8674 122.166 85.6038 122.44ZM83.9046 121.398C83.9046 121.665 83.9669 121.877 84.0916 122.034C84.2163 122.191 84.3819 122.269 84.5885 122.269C84.7987 122.269 84.9661 122.191 85.0908 122.034C85.2119 121.881 85.2725 121.669 85.2725 121.398C85.2725 121.127 85.2119 120.915 85.0908 120.762C84.9661 120.606 84.7987 120.527 84.5885 120.527C84.3819 120.527 84.2163 120.606 84.0916 120.762C83.9669 120.919 83.9046 121.131 83.9046 121.398ZM88.2691 120.287V118.962H89.0226V122.766H88.3546L88.3279 122.424C88.1391 122.713 87.8719 122.857 87.5264 122.857C87.1773 122.857 86.8923 122.72 86.6714 122.446C86.4505 122.171 86.3401 121.815 86.3401 121.377C86.3401 120.942 86.447 120.593 86.6607 120.329C86.8745 120.069 87.1434 119.939 87.4676 119.939C87.8131 119.939 88.0803 120.055 88.2691 120.287ZM87.6867 122.194C87.8684 122.194 88.0162 122.12 88.1302 121.97C88.2477 121.82 88.3065 121.623 88.3065 121.377C88.3065 121.131 88.2495 120.935 88.1355 120.789C88.0215 120.639 87.8719 120.565 87.6867 120.565C87.5014 120.565 87.3518 120.639 87.2378 120.789C87.1238 120.935 87.0668 121.131 87.0668 121.377C87.0668 121.623 87.1238 121.82 87.2378 121.97C87.3518 122.12 87.5014 122.194 87.6867 122.194ZM91.3562 121.484V120.009H92.1096V122.766H91.3722L91.3615 122.392C91.1834 122.688 90.918 122.836 90.5654 122.836C90.2804 122.836 90.0577 122.748 89.8974 122.574C89.7407 122.399 89.6623 122.161 89.6623 121.858V120.009H90.4157V121.687C90.4157 121.836 90.4496 121.952 90.5173 122.034C90.5885 122.116 90.6883 122.157 90.8165 122.157C90.9768 122.157 91.1068 122.096 91.2066 121.975C91.3063 121.851 91.3562 121.687 91.3562 121.484ZM93.9324 122.857C93.5299 122.857 93.2075 122.725 92.9653 122.462C92.7266 122.201 92.6073 121.847 92.6073 121.398C92.6073 120.949 92.7266 120.595 92.9653 120.335C93.2075 120.071 93.5299 119.939 93.9324 119.939C94.2851 119.939 94.5719 120.03 94.7928 120.212C95.0136 120.39 95.1525 120.643 95.2095 120.971H94.4721C94.3902 120.675 94.2139 120.527 93.9431 120.527C93.7508 120.527 93.6011 120.604 93.4943 120.757C93.3874 120.907 93.334 121.12 93.334 121.398C93.334 121.676 93.3874 121.892 93.4943 122.045C93.6011 122.194 93.7508 122.269 93.9431 122.269C94.2103 122.269 94.3866 122.118 94.4721 121.815H95.2095C95.1525 122.143 95.0118 122.399 94.7874 122.584C94.563 122.766 94.278 122.857 93.9324 122.857ZM97.0529 120.565L96.5399 120.549V121.9C96.5399 121.993 96.5595 122.061 96.5987 122.104C96.6414 122.143 96.7091 122.162 96.8017 122.162H97.0529V122.766H96.5613C96.2834 122.766 96.0839 122.707 95.9628 122.59C95.8453 122.469 95.7865 122.269 95.7865 121.991V120.549L95.4124 120.565V120.009L95.7865 120.02V119.159H96.5399V120.025L97.0529 120.009V120.565ZM99.5258 122.622C99.3085 122.786 99.0111 122.868 98.6335 122.868C98.2559 122.868 97.9638 122.787 97.7571 122.627C97.547 122.467 97.4223 122.239 97.3831 121.943L98.0724 121.916C98.1223 122.201 98.3182 122.344 98.6602 122.344C98.8134 122.344 98.9345 122.317 99.0236 122.264C99.1126 122.21 99.1571 122.136 99.1571 122.039C99.1571 121.904 99.036 121.811 98.7938 121.762L98.2487 121.655C97.7144 121.548 97.4472 121.279 97.4472 120.848C97.4472 120.57 97.5487 120.349 97.7518 120.185C97.9549 120.021 98.2274 119.939 98.5694 119.939C98.9007 119.939 99.1732 120.02 99.3869 120.18C99.6007 120.337 99.7253 120.55 99.761 120.821L99.0823 120.848C99.0645 120.727 99.0075 120.632 98.9113 120.565C98.8187 120.497 98.7012 120.463 98.5587 120.463C98.434 120.463 98.3342 120.49 98.2594 120.543C98.1846 120.597 98.1472 120.668 98.1472 120.757C98.1472 120.896 98.2505 120.989 98.4571 121.035L99.0503 121.158C99.3246 121.215 99.5276 121.307 99.6594 121.436C99.7912 121.564 99.8571 121.735 99.8571 121.949C99.8571 122.237 99.7467 122.462 99.5258 122.622Z" fill="black"/>
<rect x="114.848" y="101.983" width="30.8866" height="37.566" rx="5.28523" fill="#D0D1D3"/>
<rect x="114.848" y="101.983" width="30.8866" height="37.566" rx="5.28523" stroke="black" stroke-width="1.1745" stroke-dasharray="2.35 2.35"/>
<path d="M119.475 118.962H120.987C121.4 118.962 121.724 119.07 121.96 119.287C122.195 119.505 122.312 119.804 122.312 120.185C122.312 120.581 122.191 120.889 121.949 121.11C121.707 121.33 121.363 121.441 120.918 121.441H120.266V122.766H119.475V118.962ZM120.266 120.773H120.848C121.076 120.773 121.249 120.723 121.366 120.623C121.488 120.524 121.548 120.381 121.548 120.196C121.548 120.018 121.493 119.879 121.382 119.779C121.272 119.679 121.121 119.629 120.928 119.629H120.266V120.773ZM124.067 119.913C124.156 119.913 124.236 119.925 124.307 119.95V120.639C124.214 120.632 124.163 120.629 124.152 120.629C123.696 120.629 123.468 120.894 123.468 121.425V122.766H122.715V120.009H123.452L123.441 120.378C123.563 120.068 123.771 119.913 124.067 119.913ZM127.016 122.44C126.756 122.718 126.417 122.857 126.001 122.857C125.584 122.857 125.245 122.718 124.985 122.44C124.722 122.166 124.59 121.819 124.59 121.398C124.59 120.981 124.722 120.632 124.985 120.351C125.249 120.077 125.587 119.939 126.001 119.939C126.414 119.939 126.752 120.077 127.016 120.351C127.28 120.632 127.411 120.981 127.411 121.398C127.411 121.819 127.28 122.166 127.016 122.44ZM125.317 121.398C125.317 121.665 125.379 121.877 125.504 122.034C125.628 122.191 125.794 122.269 126.001 122.269C126.211 122.269 126.378 122.191 126.503 122.034C126.624 121.881 126.685 121.669 126.685 121.398C126.685 121.127 126.624 120.915 126.503 120.762C126.378 120.606 126.211 120.527 126.001 120.527C125.794 120.527 125.628 120.606 125.504 120.762C125.379 120.919 125.317 121.131 125.317 121.398ZM129.681 120.287V118.962H130.435V122.766H129.767L129.74 122.424C129.551 122.713 129.284 122.857 128.938 122.857C128.589 122.857 128.304 122.72 128.084 122.446C127.863 122.171 127.752 121.815 127.752 121.377C127.752 120.942 127.859 120.593 128.073 120.329C128.287 120.069 128.556 119.939 128.88 119.939C129.225 119.939 129.492 120.055 129.681 120.287ZM129.099 122.194C129.28 122.194 129.428 122.12 129.542 121.97C129.66 121.82 129.719 121.623 129.719 121.377C129.719 121.131 129.662 120.935 129.548 120.789C129.434 120.639 129.284 120.565 129.099 120.565C128.914 120.565 128.764 120.639 128.65 120.789C128.536 120.935 128.479 121.131 128.479 121.377C128.479 121.623 128.536 121.82 128.65 121.97C128.764 122.12 128.914 122.194 129.099 122.194ZM132.768 121.484V120.009H133.522V122.766H132.784L132.774 122.392C132.596 122.688 132.33 122.836 131.977 122.836C131.692 122.836 131.47 122.748 131.31 122.574C131.153 122.399 131.074 122.161 131.074 121.858V120.009H131.828V121.687C131.828 121.836 131.862 121.952 131.929 122.034C132.001 122.116 132.1 122.157 132.229 122.157C132.389 122.157 132.519 122.096 132.619 121.975C132.718 121.851 132.768 121.687 132.768 121.484ZM135.345 122.857C134.942 122.857 134.62 122.725 134.377 122.462C134.139 122.201 134.019 121.847 134.019 121.398C134.019 120.949 134.139 120.595 134.377 120.335C134.62 120.071 134.942 119.939 135.345 119.939C135.697 119.939 135.984 120.03 136.205 120.212C136.426 120.39 136.565 120.643 136.622 120.971H135.884C135.802 120.675 135.626 120.527 135.355 120.527C135.163 120.527 135.013 120.604 134.906 120.757C134.8 120.907 134.746 121.12 134.746 121.398C134.746 121.676 134.8 121.892 134.906 122.045C135.013 122.194 135.163 122.269 135.355 122.269C135.622 122.269 135.799 122.118 135.884 121.815H136.622C136.565 122.143 136.424 122.399 136.2 122.584C135.975 122.766 135.69 122.857 135.345 122.857ZM138.465 120.565L137.952 120.549V121.9C137.952 121.993 137.972 122.061 138.011 122.104C138.054 122.143 138.121 122.162 138.214 122.162H138.465V122.766H137.973C137.696 122.766 137.496 122.707 137.375 122.59C137.257 122.469 137.199 122.269 137.199 121.991V120.549L136.825 120.565V120.009L137.199 120.02V119.159H137.952V120.025L138.465 120.009V120.565ZM140.938 122.622C140.721 122.786 140.423 122.868 140.046 122.868C139.668 122.868 139.376 122.787 139.169 122.627C138.959 122.467 138.834 122.239 138.795 121.943L139.485 121.916C139.534 122.201 139.73 122.344 140.072 122.344C140.225 122.344 140.347 122.317 140.436 122.264C140.525 122.21 140.569 122.136 140.569 122.039C140.569 121.904 140.448 121.811 140.206 121.762L139.661 121.655C139.127 121.548 138.859 121.279 138.859 120.848C138.859 120.57 138.961 120.349 139.164 120.185C139.367 120.021 139.639 119.939 139.981 119.939C140.313 119.939 140.585 120.02 140.799 120.18C141.013 120.337 141.137 120.55 141.173 120.821L140.494 120.848C140.477 120.727 140.42 120.632 140.323 120.565C140.231 120.497 140.113 120.463 139.971 120.463C139.846 120.463 139.746 120.49 139.672 120.543C139.597 120.597 139.559 120.668 139.559 120.757C139.559 120.896 139.663 120.989 139.869 121.035L140.462 121.158C140.737 121.215 140.94 121.307 141.072 121.436C141.203 121.564 141.269 121.735 141.269 121.949C141.269 122.237 141.159 122.462 140.938 122.622Z" fill="black"/>
<rect x="156.261" y="101.983" width="30.8866" height="37.566" rx="5.28523" fill="#D0D1D3"/>
<rect x="156.261" y="101.983" width="30.8866" height="37.566" rx="5.28523" stroke="black" stroke-width="1.1745" stroke-dasharray="2.35 2.35"/>
<path d="M160.887 118.962H162.399C162.812 118.962 163.137 119.07 163.372 119.287C163.607 119.505 163.724 119.804 163.724 120.185C163.724 120.581 163.603 120.889 163.361 121.11C163.119 121.33 162.775 121.441 162.33 121.441H161.678V122.766H160.887V118.962ZM161.678 120.773H162.26C162.488 120.773 162.661 120.723 162.779 120.623C162.9 120.524 162.96 120.381 162.96 120.196C162.96 120.018 162.905 119.879 162.795 119.779C162.684 119.679 162.533 119.629 162.34 119.629H161.678V120.773ZM165.479 119.913C165.568 119.913 165.648 119.925 165.719 119.95V120.639C165.627 120.632 165.575 120.629 165.564 120.629C165.108 120.629 164.88 120.894 164.88 121.425V122.766H164.127V120.009H164.864L164.854 120.378C164.975 120.068 165.183 119.913 165.479 119.913ZM168.428 122.44C168.168 122.718 167.83 122.857 167.413 122.857C166.996 122.857 166.658 122.718 166.397 122.44C166.134 122.166 166.002 121.819 166.002 121.398C166.002 120.981 166.134 120.632 166.397 120.351C166.661 120.077 167 119.939 167.413 119.939C167.826 119.939 168.164 120.077 168.428 120.351C168.692 120.632 168.823 120.981 168.823 121.398C168.823 121.819 168.692 122.166 168.428 122.44ZM166.729 121.398C166.729 121.665 166.791 121.877 166.916 122.034C167.04 122.191 167.206 122.269 167.413 122.269C167.623 122.269 167.79 122.191 167.915 122.034C168.036 121.881 168.097 121.669 168.097 121.398C168.097 121.127 168.036 120.915 167.915 120.762C167.79 120.606 167.623 120.527 167.413 120.527C167.206 120.527 167.04 120.606 166.916 120.762C166.791 120.919 166.729 121.131 166.729 121.398ZM171.093 120.287V118.962H171.847V122.766H171.179L171.152 122.424C170.963 122.713 170.696 122.857 170.351 122.857C170.001 122.857 169.716 122.72 169.496 122.446C169.275 122.171 169.164 121.815 169.164 121.377C169.164 120.942 169.271 120.593 169.485 120.329C169.699 120.069 169.968 119.939 170.292 119.939C170.637 119.939 170.905 120.055 171.093 120.287ZM170.511 122.194C170.693 122.194 170.84 122.12 170.954 121.97C171.072 121.82 171.131 121.623 171.131 121.377C171.131 121.131 171.074 120.935 170.96 120.789C170.846 120.639 170.696 120.565 170.511 120.565C170.326 120.565 170.176 120.639 170.062 120.789C169.948 120.935 169.891 121.131 169.891 121.377C169.891 121.623 169.948 121.82 170.062 121.97C170.176 122.12 170.326 122.194 170.511 122.194ZM174.18 121.484V120.009H174.934V122.766H174.196L174.186 122.392C174.008 122.688 173.742 122.836 173.39 122.836C173.105 122.836 172.882 122.748 172.722 122.574C172.565 122.399 172.487 122.161 172.487 121.858V120.009H173.24V121.687C173.24 121.836 173.274 121.952 173.341 122.034C173.413 122.116 173.512 122.157 173.641 122.157C173.801 122.157 173.931 122.096 174.031 121.975C174.131 121.851 174.18 121.687 174.18 121.484ZM176.757 122.857C176.354 122.857 176.032 122.725 175.789 122.462C175.551 122.201 175.431 121.847 175.431 121.398C175.431 120.949 175.551 120.595 175.789 120.335C176.032 120.071 176.354 119.939 176.757 119.939C177.109 119.939 177.396 120.03 177.617 120.212C177.838 120.39 177.977 120.643 178.034 120.971H177.296C177.214 120.675 177.038 120.527 176.767 120.527C176.575 120.527 176.425 120.604 176.318 120.757C176.212 120.907 176.158 121.12 176.158 121.398C176.158 121.676 176.212 121.892 176.318 122.045C176.425 122.194 176.575 122.269 176.767 122.269C177.035 122.269 177.211 122.118 177.296 121.815H178.034C177.977 122.143 177.836 122.399 177.612 122.584C177.387 122.766 177.102 122.857 176.757 122.857ZM179.877 120.565L179.364 120.549V121.9C179.364 121.993 179.384 122.061 179.423 122.104C179.466 122.143 179.533 122.162 179.626 122.162H179.877V122.766H179.386C179.108 122.766 178.908 122.707 178.787 122.59C178.669 122.469 178.611 122.269 178.611 121.991V120.549L178.237 120.565V120.009L178.611 120.02V119.159H179.364V120.025L179.877 120.009V120.565ZM182.35 122.622C182.133 122.786 181.835 122.868 181.458 122.868C181.08 122.868 180.788 122.787 180.581 122.627C180.371 122.467 180.247 122.239 180.207 121.943L180.897 121.916C180.947 122.201 181.142 122.344 181.484 122.344C181.638 122.344 181.759 122.317 181.848 122.264C181.937 122.21 181.981 122.136 181.981 122.039C181.981 121.904 181.86 121.811 181.618 121.762L181.073 121.655C180.539 121.548 180.271 121.279 180.271 120.848C180.271 120.57 180.373 120.349 180.576 120.185C180.779 120.021 181.052 119.939 181.394 119.939C181.725 119.939 181.997 120.02 182.211 120.18C182.425 120.337 182.55 120.55 182.585 120.821L181.907 120.848C181.889 120.727 181.832 120.632 181.736 120.565C181.643 120.497 181.525 120.463 181.383 120.463C181.258 120.463 181.158 120.49 181.084 120.543C181.009 120.597 180.971 120.668 180.971 120.757C180.971 120.896 181.075 120.989 181.281 121.035L181.874 121.158C182.149 121.215 182.352 121.307 182.484 121.436C182.615 121.564 182.681 121.735 182.681 121.949C182.681 122.237 182.571 122.462 182.35 122.622Z" fill="black"/>
</g>
</g>
</g>
<defs>
<filter id="filter0_d_32_1875" x="0.772686" y="5.08054" width="210.235" height="178.767" filterUnits="userSpaceOnUse" color-interpolation-filters="sRGB">
<feFlood flood-opacity="0" result="BackgroundImageFix"/>
<feColorMatrix in="SourceAlpha" type="matrix" values="0 0 0 0 0 0 0 0 0 0 0 0 0 0 0 0 0 0 127 0" result="hardAlpha"/>
<feOffset dy="4.69799"/>
<feGaussianBlur stdDeviation="8.80873"/>
<feComposite in2="hardAlpha" operator="out"/>
<feColorMatrix type="matrix" values="0 0 0 0 0 0 0 0 0 0 0 0 0 0 0 0 0 0 0.25 0"/>
<feBlend mode="normal" in2="BackgroundImageFix" result="effect1_dropShadow_32_1875"/>
<feBlend mode="normal" in="SourceGraphic" in2="effect1_dropShadow_32_1875" result="shape"/>
</filter>
<clipPath id="clip0_32_1875">
<rect width="210.781" height="180" fill="white"/>
</clipPath>
<clipPath id="clip1_32_1875">
<rect width="160.906" height="124.74" fill="white" transform="translate(25.437 27.396)"/>
</clipPath>
</defs>
</svg>
