<svg preserveAspectRatio="none" width="100%" height="100%" overflow="visible" style="display: block;" viewBox="0 0 12.5498 7.875" fill="none" xmlns="http://www.w3.org/2000/svg">
<path id="Cellular Connection" d="M1.47656 4.92188C1.88424 4.92192 2.21484 5.25246 2.21484 5.66016V7.13672C2.21463 7.54423 1.88411 7.87496 1.47656 7.875H0.738281C0.330692 7.875 0.000210591 7.54426 0 7.13672V5.66016C0 5.25244 0.330562 4.92188 0.738281 4.92188H1.47656ZM4.92188 3.44531C5.32947 3.44546 5.66016 3.77596 5.66016 4.18359V7.13672C5.65995 7.54417 5.32934 7.87485 4.92188 7.875H4.18359C3.776 7.875 3.44552 7.54426 3.44531 7.13672V4.18359C3.44531 3.77587 3.77587 3.44531 4.18359 3.44531H4.92188ZM8.36719 1.72266C8.7747 1.7229 9.10449 2.05337 9.10449 2.46094V7.13672C9.10428 7.54411 8.77457 7.87475 8.36719 7.875H7.62891C7.22132 7.875 6.89084 7.54426 6.89062 7.13672V2.46094C6.89062 2.05322 7.22119 1.72266 7.62891 1.72266H8.36719ZM11.8115 0C12.2192 0 12.5498 0.330562 12.5498 0.738281V7.13672C12.5496 7.54426 12.2191 7.875 11.8115 7.875H11.0732C10.6658 7.8748 10.3352 7.54414 10.335 7.13672V0.738281C10.335 0.330686 10.6657 0.000200806 11.0732 0H11.8115Z" fill="var(--fill-0, white)"/>
</svg>
