<svg preserveAspectRatio="xMidYMid meet" width="100%" height="100%" overflow="visible" style="display: block;" viewBox="0 0 217.862 48" fill="none" xmlns="http://www.w3.org/2000/svg">
<g id="Busha New Logo">
<g id="Group">
<path id="Vector" d="M64.6303 39.8434H64.3918V44.1364H59.3946V2.97773H64.6871V18.7416H64.9256C67.2765 15.6297 71.7513 13.858 75.4538 13.858C84.6304 13.858 90.5703 20.2635 90.5703 29.4401C90.5703 38.6168 84.6304 45.0223 75.4538 45.0223C71.5128 45.0223 66.6292 43.0802 64.6303 39.8434ZM84.9712 29.4288C84.9712 22.8416 80.8598 18.5485 74.8518 18.5485C68.8438 18.5485 64.6757 22.8416 64.6757 29.4288C64.6757 36.016 68.8552 40.309 74.8518 40.309C80.8485 40.309 84.9712 36.016 84.9712 29.4288Z" fill="var(--fill-0, white)"/>
<path id="Vector_2" d="M92.6146 31.6094V14.7325H97.9071V29.7241C97.9071 36.4817 100.849 40.0138 106.493 40.0138C112.672 40.0138 116.135 35.7207 116.135 29.7241V14.7325H121.428V44.1365H116.431V40.0251H116.192C113.841 42.9667 110.082 44.727 105.494 44.727C97.6118 44.727 92.6146 39.6731 92.6146 31.6208V31.6094Z" fill="var(--fill-0, white)"/>
<path id="Vector_3" d="M124.074 34.7213H129.662C129.662 37.8332 132.251 40.3091 138.418 40.3091C143.302 40.3091 146.119 38.6622 146.119 36.016C146.119 29.0767 124.653 35.1983 124.653 23.0233C124.653 17.1402 130.059 13.8466 137.408 13.8466C145.937 13.8466 150.809 18.1965 150.809 23.5457H145.221C145.221 20.8427 142.87 18.5485 137.521 18.5485C132.467 18.5485 130.23 20.3771 130.23 22.8416C130.23 29.8377 151.695 23.6707 151.695 35.8911C151.695 41.5356 146.868 44.9996 138.293 44.9996C128.117 44.9996 124.063 40.2409 124.063 34.7099L124.074 34.7213Z" fill="var(--fill-0, white)"/>
<path id="Vector_4" d="M154.353 44.1365V2.97773H159.645V18.5599H159.884C162.416 15.6751 166.176 14.1533 170.582 14.1533C178.464 14.1533 183.461 19.2073 183.461 27.2709V44.1478H178.169V29.1562C178.169 22.3986 175.227 18.8665 169.583 18.8665C163.404 18.8665 159.645 23.1596 159.645 29.1562V44.1478H154.353V44.1365Z" fill="var(--fill-0, white)"/>
<path id="Vector_5" d="M185.222 35.4935C185.222 30.0193 190.401 26.2033 198.101 26.2033C202.28 26.2033 206.278 27.2595 208.743 28.736V25.1471C208.743 20.9676 205.744 18.5599 200.1 18.5599C195.216 18.5599 191.627 20.3884 191.627 23.4435H186.164C186.164 17.5604 191.809 13.858 200.213 13.858C208.618 13.858 214.035 18.151 214.035 25.2606V36.8451C214.035 38.6736 214.796 39.4913 216.216 39.4913C216.92 39.4913 217.454 39.3777 217.862 39.0824V43.5458C216.977 43.8979 215.92 44.1364 214.682 44.1364C211.798 44.1364 210.219 42.9553 209.333 40.8428H209.095C206.63 43.0234 202.269 44.727 197.158 44.727C190.105 44.727 185.222 41.3198 185.222 35.4935ZM208.743 36.493V32.8473C206.448 31.6661 202.86 30.9052 199.339 30.9052C193.933 30.9052 190.809 32.7905 190.809 35.4935C190.809 38.7304 193.989 40.0251 198.396 40.0251C202.451 40.0251 206.392 38.8439 208.743 36.493Z" fill="var(--fill-0, white)"/>
</g>
<path id="Vector (Stroke)" d="M45.5312 31.4221C45.5312 25.4755 41.3163 20.5131 35.7111 19.3599C35.6902 19.4201 35.6699 19.4808 35.6489 19.541V19.5413C33.0552 26.9633 29.0167 33.7115 23.8715 39.4422C26.13 42.0713 29.4786 43.7369 33.2164 43.7369C40.0176 43.7368 45.5311 38.2234 45.5312 31.4221ZM22.795 4.47166C21.5425 16.6826 15.1616 27.414 5.85319 34.4396L15.8235 41.3924C16.7256 40.613 17.6012 39.8023 18.4487 38.9632C17.2911 36.701 16.6383 34.1378 16.6383 31.4221C16.6383 22.454 23.7594 15.1492 32.6556 14.8535C33.49 11.8773 34.0797 8.80311 34.3973 5.6436L22.795 4.47166ZM20.9014 31.4221C20.9014 32.8709 21.1523 34.261 21.6118 35.552C25.696 30.7653 28.9665 25.265 31.2124 19.2701C25.3642 20.2271 20.9014 25.3032 20.9014 31.4221ZM49.7943 31.4221C49.7942 40.5778 42.3721 47.9999 33.2164 48C28.3308 48 23.9387 45.8864 20.9046 42.5239C19.7449 43.6423 18.5372 44.7131 17.285 45.7293C16.5472 46.328 15.502 46.3659 14.7226 45.8224L0.912366 36.1914C0.329921 35.7852 -0.0120999 35.1156 0.0003274 34.4057C0.0127815 33.6957 0.377939 33.0385 0.974219 32.653C11.1543 26.0709 18.0627 14.8394 18.7083 2.02429L18.7163 1.91545C18.7715 1.3736 19.0327 0.871917 19.4478 0.515131C19.8907 0.134548 20.4703 -0.0478911 21.0513 0.0107894L36.9059 1.61213C38.0456 1.72725 38.8906 2.72266 38.8192 3.86591C38.5739 7.78992 37.9401 11.5985 36.9621 15.2689C44.3137 16.9669 49.7943 23.5546 49.7943 31.4221Z" fill="var(--fill-0, #16CB3E)"/>
</g>
</svg>
