<svg width="211" height="180" viewBox="0 0 211 180" fill="none" xmlns="http://www.w3.org/2000/svg">
<g clip-path="url(#clip0_32_1852)">
<g filter="url(#filter0_d_32_1852)">
<rect x="18" y="18" width="175" height="144" rx="12.1161" fill="white" shape-rendering="crispEdges"/>
<rect x="25.2695" y="28.8164" width="107.025" height="26.2685" rx="5.51234" fill="#D0D1D3"/>
<path d="M36.9988 43.788V38.1199H38.8344V46.9507H37.036L33.5384 41.2826V46.9507H31.7028V38.1199H33.5012L36.9988 43.788ZM46.4879 43.974V44.2717H41.8493C41.8823 44.7513 42.0312 45.1275 42.2958 45.4003C42.5603 45.6732 42.9118 45.8096 43.35 45.8096C43.9701 45.8096 44.3835 45.5326 44.5903 44.9786L46.3267 45.1027C46.1117 45.7807 45.752 46.2975 45.2476 46.653C44.7432 47.0003 44.1231 47.1739 43.3872 47.1739C42.3536 47.1739 41.5392 46.8515 40.9438 46.2065C40.3485 45.5616 40.0508 44.7347 40.0508 43.726C40.0508 42.7585 40.3361 41.9606 40.9066 41.3322C41.4772 40.7038 42.242 40.3896 43.2012 40.3896C44.1686 40.3896 44.9582 40.7121 45.5701 41.357C46.182 42.0102 46.4879 42.8826 46.4879 43.974ZM44.6771 43.081C44.6275 42.6345 44.4786 42.2872 44.2306 42.0392C43.9825 41.7911 43.6601 41.6671 43.2632 41.6671C42.8663 41.6671 42.5397 41.7911 42.2833 42.0392C42.027 42.3038 41.8782 42.6511 41.8368 43.081H44.6771ZM53.6597 43.3911L54.3666 40.5509H56.2023L54.3046 46.9507H52.6427L51.7249 43.3911L51.576 42.5477L51.4148 43.3911L50.497 46.9507H48.835L46.9374 40.5509H48.773L49.48 43.3911L49.7776 45.0034L50.0753 43.3911L50.7947 40.5509H52.345L53.0644 43.3663L53.362 45.0034L53.6597 43.3911ZM64.3799 41.1958V38.1199H66.1287V46.9507H64.5784L64.5164 46.1569C64.0781 46.8267 63.458 47.1615 62.656 47.1615C61.8456 47.1615 61.1842 46.8432 60.6715 46.2065C60.1589 45.5698 59.9025 44.743 59.9025 43.726C59.9025 42.7172 60.1506 41.9069 60.6467 41.295C61.1428 40.6914 61.7671 40.3896 62.5195 40.3896C63.3216 40.3896 63.9417 40.6583 64.3799 41.1958ZM63.028 45.6236C63.4497 45.6236 63.7929 45.4499 64.0575 45.1027C64.3303 44.7554 64.4668 44.2965 64.4668 43.726C64.4668 43.1554 64.3345 42.7007 64.0699 42.3617C63.8053 42.0144 63.458 41.8407 63.028 41.8407C62.5981 41.8407 62.2508 42.0144 61.9862 42.3617C61.7216 42.7007 61.5893 43.1554 61.5893 43.726C61.5893 44.2965 61.7216 44.7554 61.9862 45.1027C62.2508 45.4499 62.5981 45.6236 63.028 45.6236ZM73.7158 43.974V44.2717H69.0772C69.1103 44.7513 69.2591 45.1275 69.5237 45.4003C69.7883 45.6732 70.1397 45.8096 70.5779 45.8096C71.1981 45.8096 71.6115 45.5326 71.8182 44.9786L73.5546 45.1027C73.3396 45.7807 72.9799 46.2975 72.4756 46.653C71.9712 47.0003 71.351 47.1739 70.6151 47.1739C69.5816 47.1739 68.7671 46.8515 68.1718 46.2065C67.5765 45.5616 67.2788 44.7347 67.2788 43.726C67.2788 42.7585 67.5641 41.9606 68.1346 41.3322C68.7051 40.7038 69.47 40.3896 70.4291 40.3896C71.3965 40.3896 72.1862 40.7121 72.798 41.357C73.4099 42.0102 73.7158 42.8826 73.7158 43.974ZM71.905 43.081C71.8554 42.6345 71.7066 42.2872 71.4585 42.0392C71.2105 41.7911 70.888 41.6671 70.4911 41.6671C70.0942 41.6671 69.7676 41.7911 69.5113 42.0392C69.255 42.3038 69.1061 42.6511 69.0648 43.081H71.905ZM80.5127 46.9507H78.7391C78.6481 46.5373 78.6026 46.3223 78.6026 46.3057C78.1479 46.8597 77.4905 47.1367 76.6306 47.1367C75.9608 47.1367 75.4234 46.959 75.0182 46.6034C74.6131 46.2479 74.4105 45.7766 74.4105 45.1895C74.4105 44.1559 75.0596 43.511 76.3577 43.2547L78.5902 42.8082V42.3369C78.5902 41.8738 78.2305 41.6423 77.5112 41.6423C77.1556 41.6423 76.8869 41.7084 76.705 41.8407C76.5231 41.973 76.4115 42.188 76.3701 42.4857L74.7702 42.4609C74.8777 41.0883 75.7872 40.402 77.4988 40.402C79.3427 40.402 80.2646 41.1958 80.2646 42.7834V45.6112C80.2646 46.2148 80.3473 46.6613 80.5127 46.9507ZM77.1267 45.8468C77.5649 45.8468 77.9163 45.7187 78.1809 45.4624C78.4538 45.1978 78.5902 44.8422 78.5902 44.3957V43.9244L76.9531 44.2717C76.3991 44.3792 76.1221 44.6479 76.1221 45.0779C76.1221 45.3094 76.2089 45.4954 76.3825 45.636C76.5644 45.7766 76.8125 45.8468 77.1267 45.8468ZM83.4973 46.9507H81.7485V38.1199H83.4973V46.9507ZM89.7327 46.6158C89.2283 46.9962 88.5379 47.1863 87.6614 47.1863C86.7849 47.1863 86.1069 47.0003 85.6273 46.6282C85.1395 46.2561 84.8501 45.7269 84.7591 45.0407L86.3591 44.9786C86.4749 45.6401 86.9296 45.9709 87.7234 45.9709C88.079 45.9709 88.3601 45.9089 88.5668 45.7848C88.7735 45.6608 88.8769 45.4872 88.8769 45.2639C88.8769 44.9497 88.5957 44.7347 88.0335 44.619L86.7684 44.3709C85.5281 44.1229 84.908 43.4986 84.908 42.4981C84.908 41.8531 85.1436 41.3405 85.6149 40.9601C86.0862 40.5798 86.7188 40.3896 87.5126 40.3896C88.2815 40.3896 88.9141 40.5757 89.4102 40.9477C89.9063 41.3116 90.1957 41.8077 90.2784 42.4361L88.7032 42.4981C88.6619 42.217 88.5296 41.9978 88.3063 41.8407C88.0914 41.6836 87.8185 41.6051 87.4878 41.6051C87.1984 41.6051 86.9668 41.6671 86.7932 41.7911C86.6196 41.9152 86.5327 42.0805 86.5327 42.2872C86.5327 42.6097 86.7725 42.8247 87.2521 42.9322L88.6288 43.2175C89.2655 43.3497 89.7368 43.5647 90.0427 43.8624C90.3487 44.1601 90.5016 44.5569 90.5016 45.0531C90.5016 45.7228 90.2453 46.2437 89.7327 46.6158ZM98.0306 41.8407L96.8399 41.8035V44.9414C96.8399 45.1564 96.8854 45.3135 96.9764 45.4127C97.0756 45.5037 97.2327 45.5492 97.4477 45.5492H98.0306V46.9507H96.8895C96.2446 46.9507 95.7816 46.8143 95.5004 46.5414C95.2276 46.2603 95.0911 45.7972 95.0911 45.1523V41.8035L94.2229 41.8407V40.5509L95.0911 40.5757V38.5788H96.8399V40.5881L98.0306 40.5509V41.8407ZM104.316 46.1941C103.713 46.8391 102.927 47.1615 101.96 47.1615C100.992 47.1615 100.207 46.8391 99.6032 46.1941C98.9914 45.5574 98.6854 44.7513 98.6854 43.7756C98.6854 42.8082 98.9914 41.9978 99.6032 41.3446C100.215 40.708 101.001 40.3896 101.96 40.3896C102.919 40.3896 103.704 40.708 104.316 41.3446C104.928 41.9978 105.234 42.8082 105.234 43.7756C105.234 44.7513 104.928 45.5574 104.316 46.1941ZM100.372 43.7756C100.372 44.3957 100.517 44.8877 100.806 45.2515C101.096 45.6153 101.48 45.7972 101.96 45.7972C102.448 45.7972 102.836 45.6153 103.126 45.2515C103.407 44.896 103.547 44.404 103.547 43.7756C103.547 43.1472 103.407 42.6552 103.126 42.2996C102.836 41.9358 102.448 41.7539 101.96 41.7539C101.48 41.7539 101.096 41.9358 100.806 42.2996C100.517 42.6635 100.372 43.1554 100.372 43.7756ZM110.503 41.1958V38.1199H112.252V46.9507H110.701L110.639 46.1569C110.201 46.8267 109.581 47.1615 108.779 47.1615C107.968 47.1615 107.307 46.8432 106.794 46.2065C106.282 45.5698 106.025 44.743 106.025 43.726C106.025 42.7172 106.273 41.9069 106.77 41.295C107.266 40.6914 107.89 40.3896 108.642 40.3896C109.444 40.3896 110.065 40.6583 110.503 41.1958ZM109.151 45.6236C109.573 45.6236 109.916 45.4499 110.18 45.1027C110.453 44.7554 110.59 44.2965 110.59 43.726C110.59 43.1554 110.457 42.7007 110.193 42.3617C109.928 42.0144 109.581 41.8407 109.151 41.8407C108.721 41.8407 108.374 42.0144 108.109 42.3617C107.844 42.7007 107.712 43.1554 107.712 43.726C107.712 44.2965 107.844 44.7554 108.109 45.1027C108.374 45.4499 108.721 45.6236 109.151 45.6236ZM119.405 46.9507H117.631C117.54 46.5373 117.495 46.3223 117.495 46.3057C117.04 46.8597 116.382 47.1367 115.522 47.1367C114.853 47.1367 114.315 46.959 113.91 46.6034C113.505 46.2479 113.302 45.7766 113.302 45.1895C113.302 44.1559 113.951 43.511 115.25 43.2547L117.482 42.8082V42.3369C117.482 41.8738 117.122 41.6423 116.403 41.6423C116.048 41.6423 115.779 41.7084 115.597 41.8407C115.415 41.973 115.303 42.188 115.262 42.4857L113.662 42.4609C113.77 41.0883 114.679 40.402 116.391 40.402C118.235 40.402 119.156 41.1958 119.156 42.7834V45.6112C119.156 46.2148 119.239 46.6613 119.405 46.9507ZM116.019 45.8468C116.457 45.8468 116.808 45.7187 117.073 45.4624C117.346 45.1978 117.482 44.8422 117.482 44.3957V43.9244L115.845 44.2717C115.291 44.3792 115.014 44.6479 115.014 45.0779C115.014 45.3094 115.101 45.4954 115.274 45.636C115.456 45.7766 115.704 45.8468 116.019 45.8468ZM123.26 45.0779L124.625 40.5509H126.485L123.93 48.0917C123.756 48.6209 123.529 48.9847 123.248 49.1832C122.975 49.3816 122.595 49.4808 122.107 49.4808H120.643V47.9925H121.487C121.958 47.9925 122.26 47.8106 122.392 47.4468L122.454 47.2732L119.961 40.5509H121.884L123.062 44.1477L123.26 45.0779Z" fill="black"/>
<rect x="25.8753" y="63.6908" width="159.249" height="38.8378" rx="5.45222" fill="#D0D1D3"/>
<rect x="25.8753" y="63.6908" width="159.249" height="38.8378" rx="5.45222" stroke="white" stroke-width="1.21161" stroke-dasharray="2.42 2.42"/>
<path d="M80.9036 88.3949C79.7047 88.3949 78.7207 87.9649 77.9518 87.105C77.1828 86.2451 76.7983 85.1081 76.7983 83.6942C76.7983 82.2886 77.1869 81.1682 77.9642 80.3331C78.7497 79.498 79.7378 79.0804 80.9284 79.0804C82.0033 79.0804 82.8715 79.3615 83.533 79.9238C84.1945 80.4778 84.5666 81.2385 84.6493 82.2059H82.9005C82.826 81.7181 82.6235 81.3418 82.2927 81.0772C81.9703 80.8044 81.5444 80.668 81.0152 80.668C80.2711 80.668 79.6881 80.9408 79.2664 81.4865C78.8448 82.0323 78.6339 82.7682 78.6339 83.6942C78.6339 84.6534 78.8448 85.4141 79.2664 85.9763C79.6881 86.5303 80.2711 86.8073 81.0152 86.8073C81.5527 86.8073 81.9827 86.6626 82.3051 86.3732C82.6276 86.0838 82.826 85.6993 82.9005 85.2198H84.6368C84.5624 86.212 84.1945 86.9892 83.533 87.5515C82.8715 88.1138 81.9951 88.3949 80.9036 88.3949ZM91.376 88.1096H89.6024C89.5115 87.6962 89.466 87.4812 89.466 87.4647C89.0112 88.0187 88.3539 88.2957 87.4939 88.2957C86.8242 88.2957 86.2867 88.1179 85.8816 87.7623C85.4764 87.4068 85.2738 86.9355 85.2738 86.3484C85.2738 85.3149 85.9229 84.6699 87.2211 84.4136L89.4536 83.9671V83.4958C89.4536 83.0328 89.0939 82.8012 88.3745 82.8012C88.019 82.8012 87.7503 82.8674 87.5684 82.9997C87.3864 83.132 87.2748 83.347 87.2335 83.6446L85.6335 83.6198C85.741 82.2472 86.6506 81.561 88.3621 81.561C90.206 81.561 91.128 82.3547 91.128 83.9423V86.7701C91.128 87.3737 91.2106 87.8202 91.376 88.1096ZM87.9901 87.0058C88.4283 87.0058 88.7797 86.8776 89.0443 86.6213C89.3171 86.3567 89.4536 86.0011 89.4536 85.5546V85.0833L87.8164 85.4306C87.2624 85.5381 86.9854 85.8068 86.9854 86.2368C86.9854 86.4683 87.0722 86.6544 87.2459 86.7949C87.4278 86.9355 87.6758 87.0058 87.9901 87.0058ZM99.8054 81.5486C100.442 81.5486 100.942 81.7553 101.306 82.1687C101.67 82.5821 101.852 83.1361 101.852 83.8307V88.1096H100.103V84.1779C100.103 83.8637 100.029 83.6115 99.8798 83.4214C99.7393 83.2229 99.5284 83.1237 99.2473 83.1237C98.9083 83.1237 98.6313 83.2684 98.4163 83.5578C98.2096 83.8389 98.1063 84.2151 98.1063 84.6865V88.1096H96.3575V84.1779C96.3575 83.8637 96.283 83.6115 96.1342 83.4214C95.9936 83.2229 95.7828 83.1237 95.5017 83.1237C95.1627 83.1237 94.8857 83.2684 94.6707 83.5578C94.464 83.8389 94.3606 84.2151 94.3606 84.6865V88.1096H92.6118V81.7098H94.3234L94.3482 82.5284C94.7451 81.8752 95.3239 81.5486 96.0846 81.5486C96.9941 81.5486 97.606 81.933 97.9202 82.702C98.3336 81.933 98.962 81.5486 99.8054 81.5486ZM106.952 81.5486C107.705 81.5486 108.329 81.8504 108.825 82.454C109.321 83.0658 109.569 83.8761 109.569 84.8849C109.569 85.9019 109.313 86.7288 108.8 87.3655C108.288 88.0021 107.626 88.3205 106.816 88.3205C106.088 88.3205 105.514 88.0517 105.092 87.5143V90.6398H103.343V81.7098H104.893L104.955 82.5408C105.394 81.8793 106.059 81.5486 106.952 81.5486ZM106.444 86.7825C106.874 86.7825 107.221 86.6089 107.486 86.2616C107.75 85.9143 107.883 85.4554 107.883 84.8849C107.883 84.3144 107.75 83.8596 107.486 83.5206C107.221 83.1733 106.874 82.9997 106.444 82.9997C106.014 82.9997 105.667 83.1733 105.402 83.5206C105.137 83.8596 105.005 84.3144 105.005 84.8849C105.005 85.4554 105.137 85.9143 105.402 86.2616C105.675 86.6089 106.022 86.7825 106.444 86.7825ZM116.363 88.1096H114.59C114.499 87.6962 114.453 87.4812 114.453 87.4647C113.998 88.0187 113.341 88.2957 112.481 88.2957C111.811 88.2957 111.274 88.1179 110.869 87.7623C110.464 87.4068 110.261 86.9355 110.261 86.3484C110.261 85.3149 110.91 84.6699 112.208 84.4136L114.441 83.9671V83.4958C114.441 83.0328 114.081 82.8012 113.362 82.8012C113.006 82.8012 112.737 82.8674 112.556 82.9997C112.374 83.132 112.262 83.347 112.221 83.6446L110.621 83.6198C110.728 82.2472 111.638 81.561 113.349 81.561C115.193 81.561 116.115 82.3547 116.115 83.9423V86.7701C116.115 87.3737 116.198 87.8202 116.363 88.1096ZM112.977 87.0058C113.415 87.0058 113.767 86.8776 114.032 86.6213C114.304 86.3567 114.441 86.0011 114.441 85.5546V85.0833L112.804 85.4306C112.25 85.5381 111.973 85.8068 111.973 86.2368C111.973 86.4683 112.059 86.6544 112.233 86.7949C112.415 86.9355 112.663 87.0058 112.977 87.0058ZM119.348 80.8664H117.599V79.2788H119.348V80.8664ZM119.348 88.1096H117.599V81.7098H119.348V88.1096ZM125.112 82.5036L125.174 81.7098H126.724V88.184C126.724 89.0192 126.456 89.66 125.918 90.1065C125.389 90.5612 124.641 90.7886 123.673 90.7886C122.78 90.7886 122.082 90.6026 121.577 90.2305C121.081 89.8584 120.8 89.3251 120.734 88.6305H122.346C122.445 89.2011 122.875 89.4863 123.636 89.4863C124.116 89.4863 124.459 89.3788 124.665 89.1639C124.872 88.9571 124.975 88.6388 124.975 88.2088V87.3282C124.546 87.8492 123.967 88.1096 123.239 88.1096C122.429 88.1096 121.771 87.7995 121.267 87.1794C120.754 86.5675 120.498 85.7696 120.498 84.7857C120.498 83.7935 120.754 83.0038 121.267 82.4167C121.771 81.838 122.429 81.5486 123.239 81.5486C124.066 81.5486 124.69 81.8669 125.112 82.5036ZM123.624 86.6213C124.045 86.6213 124.388 86.4518 124.653 86.1128C124.926 85.7738 125.062 85.3314 125.062 84.7857C125.062 84.24 124.926 83.7976 124.653 83.4586C124.388 83.1196 124.045 82.9501 123.624 82.9501C123.194 82.9501 122.846 83.1154 122.582 83.4462C122.317 83.7769 122.185 84.2234 122.185 84.7857C122.185 85.3479 122.317 85.7944 122.582 86.1252C122.846 86.4559 123.194 86.6213 123.624 86.6213ZM131.794 81.5486C132.455 81.5486 132.968 81.7511 133.332 82.1563C133.704 82.5614 133.89 83.1154 133.89 83.8183V88.1096H132.141V84.2151C132.141 83.8679 132.058 83.5991 131.893 83.409C131.736 83.2188 131.508 83.1237 131.211 83.1237C130.839 83.1237 130.537 83.2684 130.305 83.5578C130.074 83.8389 129.958 84.2151 129.958 84.6865V88.1096H128.209V81.7098H129.921L129.946 82.578C130.359 81.8917 130.975 81.5486 131.794 81.5486Z" fill="black"/>
<rect x="25.8753" y="111.74" width="74.2386" height="38.8378" rx="5.45222" fill="#D0D1D3"/>
<rect x="25.8753" y="111.74" width="74.2386" height="38.8378" rx="5.45222" stroke="white" stroke-width="1.21161" stroke-dasharray="2.42 2.42"/>
<path d="M37.887 127.328H41.397C42.3561 127.328 43.1086 127.58 43.6543 128.085C44.2 128.589 44.4729 129.284 44.4729 130.168C44.4729 131.086 44.1918 131.801 43.6295 132.314C43.0672 132.827 42.2693 133.083 41.2358 133.083H39.7226V136.159H37.887V127.328ZM39.7226 131.533H41.0745C41.6037 131.533 42.0047 131.417 42.2776 131.185C42.5587 130.954 42.6993 130.623 42.6993 130.193C42.6993 129.78 42.5711 129.457 42.3148 129.226C42.0585 128.994 41.7071 128.879 41.2606 128.879H39.7226V131.533ZM48.5451 129.536C48.7518 129.536 48.9378 129.565 49.1032 129.623V131.223C48.8882 131.206 48.7683 131.198 48.7435 131.198C47.6851 131.198 47.156 131.814 47.156 133.046V136.159H45.4072V129.759H47.1187L47.0939 130.615C47.3751 129.896 47.8588 129.536 48.5451 129.536ZM55.3905 135.402C54.7869 136.047 54.0014 136.37 53.034 136.37C52.0666 136.37 51.2811 136.047 50.6775 135.402C50.0656 134.766 49.7597 133.96 49.7597 132.984C49.7597 132.016 50.0656 131.206 50.6775 130.553C51.2893 129.916 52.0748 129.598 53.034 129.598C53.9931 129.598 54.7787 129.916 55.3905 130.553C56.0024 131.206 56.3083 132.016 56.3083 132.984C56.3083 133.96 56.0024 134.766 55.3905 135.402ZM51.4464 132.984C51.4464 133.604 51.5911 134.096 51.8805 134.46C52.1699 134.824 52.5544 135.005 53.034 135.005C53.5218 135.005 53.9105 134.824 54.1999 134.46C54.481 134.104 54.6215 133.612 54.6215 132.984C54.6215 132.355 54.481 131.863 54.1999 131.508C53.9105 131.144 53.5218 130.962 53.034 130.962C52.5544 130.962 52.1699 131.144 51.8805 131.508C51.5911 131.872 51.4464 132.364 51.4464 132.984ZM61.577 130.404V127.328H63.3258V136.159H61.7754L61.7134 135.365C61.2752 136.035 60.655 136.37 59.853 136.37C59.0427 136.37 58.3812 136.051 57.8686 135.415C57.3559 134.778 57.0996 133.951 57.0996 132.934C57.0996 131.925 57.3476 131.115 57.8437 130.503C58.3399 129.9 58.9641 129.598 59.7166 129.598C60.5186 129.598 61.1388 129.867 61.577 130.404ZM60.2251 134.832C60.6468 134.832 60.9899 134.658 61.2545 134.311C61.5274 133.964 61.6638 133.505 61.6638 132.934C61.6638 132.364 61.5315 131.909 61.2669 131.57C61.0023 131.223 60.655 131.049 60.2251 131.049C59.7951 131.049 59.4478 131.223 59.1832 131.57C58.9187 131.909 58.7864 132.364 58.7864 132.934C58.7864 133.505 58.9187 133.964 59.1832 134.311C59.4478 134.658 59.7951 134.832 60.2251 134.832ZM68.7424 133.182V129.759H70.4912V136.159H68.7796L68.7548 135.291C68.3414 135.977 67.7254 136.32 66.9068 136.32C66.2453 136.32 65.7285 136.118 65.3564 135.712C64.9926 135.307 64.8107 134.753 64.8107 134.05V129.759H66.5595V133.654C66.5595 134.001 66.6381 134.27 66.7952 134.46C66.9605 134.65 67.192 134.745 67.4897 134.745C67.8618 134.745 68.1636 134.604 68.3951 134.323C68.6266 134.034 68.7424 133.654 68.7424 133.182ZM74.7221 136.37C73.7877 136.37 73.0394 136.064 72.4772 135.452C71.9232 134.848 71.6462 134.026 71.6462 132.984C71.6462 131.942 71.9232 131.119 72.4772 130.516C73.0394 129.904 73.7877 129.598 74.7221 129.598C75.5407 129.598 76.2063 129.809 76.7189 130.23C77.2316 130.644 77.554 131.231 77.6863 131.992H75.9748C75.7846 131.305 75.3753 130.962 74.7469 130.962C74.3004 130.962 73.9531 131.14 73.705 131.495C73.457 131.843 73.333 132.339 73.333 132.984C73.333 133.629 73.457 134.129 73.705 134.485C73.9531 134.832 74.3004 135.005 74.7469 135.005C75.367 135.005 75.7763 134.654 75.9748 133.951H77.6863C77.554 134.712 77.2274 135.307 76.7065 135.737C76.1856 136.159 75.5241 136.37 74.7221 136.37ZM81.9649 131.049L80.7742 131.012V134.15C80.7742 134.365 80.8197 134.522 80.9107 134.621C81.0099 134.712 81.167 134.757 81.382 134.757H81.9649V136.159H80.8239C80.1789 136.159 79.7159 136.023 79.4347 135.75C79.1619 135.469 79.0254 135.005 79.0254 134.361V131.012L78.1573 131.049V129.759L79.0254 129.784V127.787H80.7742V129.796L81.9649 129.759V131.049ZM87.7049 135.824C87.2005 136.204 86.5101 136.395 85.6336 136.395C84.7571 136.395 84.0791 136.209 83.5996 135.836C83.1117 135.464 82.8223 134.935 82.7314 134.249L84.3313 134.187C84.4471 134.848 84.9018 135.179 85.6956 135.179C86.0512 135.179 86.3323 135.117 86.539 134.993C86.7457 134.869 86.8491 134.695 86.8491 134.472C86.8491 134.158 86.5679 133.943 86.0057 133.827L84.7406 133.579C83.5003 133.331 82.8802 132.707 82.8802 131.706C82.8802 131.061 83.1158 130.549 83.5871 130.168C84.0585 129.788 84.691 129.598 85.4848 129.598C86.2537 129.598 86.8863 129.784 87.3824 130.156C87.8785 130.52 88.1679 131.016 88.2506 131.644L86.6754 131.706C86.6341 131.425 86.5018 131.206 86.2785 131.049C86.0636 130.892 85.7907 130.813 85.46 130.813C85.1706 130.813 84.9391 130.875 84.7654 130.999C84.5918 131.123 84.505 131.289 84.505 131.495C84.505 131.818 84.7447 132.033 85.2243 132.14L86.601 132.426C87.2377 132.558 87.709 132.773 88.0149 133.071C88.3209 133.368 88.4738 133.765 88.4738 134.261C88.4738 134.931 88.2175 135.452 87.7049 135.824Z" fill="black"/>
<rect x="110.972" y="111.74" width="74.2386" height="38.8378" rx="5.45222" fill="#D0D1D3"/>
<rect x="110.972" y="111.74" width="74.2386" height="38.8378" rx="5.45222" stroke="white" stroke-width="1.21161" stroke-dasharray="2.42 2.42"/>
<path d="M122.984 127.328H126.494C127.453 127.328 128.205 127.58 128.751 128.085C129.297 128.589 129.57 129.284 129.57 130.168C129.57 131.086 129.288 131.801 128.726 132.314C128.164 132.827 127.366 133.083 126.332 133.083H124.819V136.159H122.984V127.328ZM124.819 131.533H126.171C126.7 131.533 127.101 131.417 127.374 131.185C127.655 130.954 127.796 130.623 127.796 130.193C127.796 129.78 127.668 129.457 127.411 129.226C127.155 128.994 126.804 128.879 126.357 128.879H124.819V131.533ZM133.642 129.536C133.848 129.536 134.034 129.565 134.2 129.623V131.223C133.985 131.206 133.865 131.198 133.84 131.198C132.782 131.198 132.253 131.814 132.253 133.046V136.159H130.504V129.759H132.215L132.191 130.615C132.472 129.896 132.955 129.536 133.642 129.536ZM140.487 135.402C139.884 136.047 139.098 136.37 138.131 136.37C137.163 136.37 136.378 136.047 135.774 135.402C135.162 134.766 134.856 133.96 134.856 132.984C134.856 132.016 135.162 131.206 135.774 130.553C136.386 129.916 137.172 129.598 138.131 129.598C139.09 129.598 139.875 129.916 140.487 130.553C141.099 131.206 141.405 132.016 141.405 132.984C141.405 133.96 141.099 134.766 140.487 135.402ZM136.543 132.984C136.543 133.604 136.688 134.096 136.977 134.46C137.267 134.824 137.651 135.005 138.131 135.005C138.619 135.005 139.007 134.824 139.297 134.46C139.578 134.104 139.718 133.612 139.718 132.984C139.718 132.355 139.578 131.863 139.297 131.508C139.007 131.144 138.619 130.962 138.131 130.962C137.651 130.962 137.267 131.144 136.977 131.508C136.688 131.872 136.543 132.364 136.543 132.984ZM146.674 130.404V127.328H148.422V136.159H146.872L146.81 135.365C146.372 136.035 145.752 136.37 144.95 136.37C144.139 136.37 143.478 136.051 142.965 135.415C142.453 134.778 142.196 133.951 142.196 132.934C142.196 131.925 142.444 131.115 142.94 130.503C143.437 129.9 144.061 129.598 144.813 129.598C145.615 129.598 146.235 129.867 146.674 130.404ZM145.322 134.832C145.743 134.832 146.087 134.658 146.351 134.311C146.624 133.964 146.76 133.505 146.76 132.934C146.76 132.364 146.628 131.909 146.364 131.57C146.099 131.223 145.752 131.049 145.322 131.049C144.892 131.049 144.545 131.223 144.28 131.57C144.015 131.909 143.883 132.364 143.883 132.934C143.883 133.505 144.015 133.964 144.28 134.311C144.545 134.658 144.892 134.832 145.322 134.832ZM153.839 133.182V129.759H155.588V136.159H153.876L153.851 135.291C153.438 135.977 152.822 136.32 152.003 136.32C151.342 136.32 150.825 136.118 150.453 135.712C150.089 135.307 149.907 134.753 149.907 134.05V129.759H151.656V133.654C151.656 134.001 151.735 134.27 151.892 134.46C152.057 134.65 152.289 134.745 152.586 134.745C152.958 134.745 153.26 134.604 153.492 134.323C153.723 134.034 153.839 133.654 153.839 133.182ZM159.819 136.37C158.884 136.37 158.136 136.064 157.574 135.452C157.02 134.848 156.743 134.026 156.743 132.984C156.743 131.942 157.02 131.119 157.574 130.516C158.136 129.904 158.884 129.598 159.819 129.598C160.637 129.598 161.303 129.809 161.816 130.23C162.328 130.644 162.651 131.231 162.783 131.992H161.071C160.881 131.305 160.472 130.962 159.844 130.962C159.397 130.962 159.05 131.14 158.802 131.495C158.554 131.843 158.43 132.339 158.43 132.984C158.43 133.629 158.554 134.129 158.802 134.485C159.05 134.832 159.397 135.005 159.844 135.005C160.464 135.005 160.873 134.654 161.071 133.951H162.783C162.651 134.712 162.324 135.307 161.803 135.737C161.282 136.159 160.621 136.37 159.819 136.37ZM167.062 131.049L165.871 131.012V134.15C165.871 134.365 165.916 134.522 166.007 134.621C166.107 134.712 166.264 134.757 166.479 134.757H167.062V136.159H165.921C165.276 136.159 164.813 136.023 164.531 135.75C164.259 135.469 164.122 135.005 164.122 134.361V131.012L163.254 131.049V129.759L164.122 129.784V127.787H165.871V129.796L167.062 129.759V131.049ZM172.802 135.824C172.297 136.204 171.607 136.395 170.73 136.395C169.854 136.395 169.176 136.209 168.696 135.836C168.208 135.464 167.919 134.935 167.828 134.249L169.428 134.187C169.544 134.848 169.999 135.179 170.792 135.179C171.148 135.179 171.429 135.117 171.636 134.993C171.842 134.869 171.946 134.695 171.946 134.472C171.946 134.158 171.665 133.943 171.102 133.827L169.837 133.579C168.597 133.331 167.977 132.707 167.977 131.706C167.977 131.061 168.213 130.549 168.684 130.168C169.155 129.788 169.788 129.598 170.581 129.598C171.35 129.598 171.983 129.784 172.479 130.156C172.975 130.52 173.265 131.016 173.347 131.644L171.772 131.706C171.731 131.425 171.598 131.206 171.375 131.049C171.16 130.892 170.887 130.813 170.557 130.813C170.267 130.813 170.036 130.875 169.862 130.999C169.688 131.123 169.602 131.289 169.602 131.495C169.602 131.818 169.841 132.033 170.321 132.14L171.698 132.426C172.334 132.558 172.806 132.773 173.112 133.071C173.418 133.368 173.571 133.765 173.571 134.261C173.571 134.931 173.314 135.452 172.802 135.824Z" fill="black"/>
</g>
</g>
<defs>
<filter id="filter0_d_32_1852" x="-0.17408" y="4.67234" width="211.348" height="180.348" filterUnits="userSpaceOnUse" color-interpolation-filters="sRGB">
<feFlood flood-opacity="0" result="BackgroundImageFix"/>
<feColorMatrix in="SourceAlpha" type="matrix" values="0 0 0 0 0 0 0 0 0 0 0 0 0 0 0 0 0 0 127 0" result="hardAlpha"/>
<feOffset dy="4.84642"/>
<feGaussianBlur stdDeviation="9.08704"/>
<feComposite in2="hardAlpha" operator="out"/>
<feColorMatrix type="matrix" values="0 0 0 0 0 0 0 0 0 0 0 0 0 0 0 0 0 0 0.25 0"/>
<feBlend mode="normal" in2="BackgroundImageFix" result="effect1_dropShadow_32_1852"/>
<feBlend mode="normal" in="SourceGraphic" in2="effect1_dropShadow_32_1852" result="shape"/>
</filter>
<clipPath id="clip0_32_1852">
<rect width="210.781" height="180" fill="white"/>
</clipPath>
</defs>
</svg>
