<svg width="228" height="197" viewBox="0 0 228 197" fill="none" xmlns="http://www.w3.org/2000/svg">
<g filter="url(#filter0_d_32_1957)">
<g clip-path="url(#clip0_32_1957)">
<rect x="26.376" y="19.3423" width="175" height="144" rx="17.5839" fill="white"/>
<path d="M44.2614 46.4794H49.6074V53.4094H47.8794L47.4654 52.0234C46.7214 53.1394 45.5274 53.6974 43.8834 53.6974C42.2154 53.6974 40.8294 53.0854 39.7254 51.8614C38.6094 50.6614 38.0514 49.0414 38.0514 47.0014C38.0514 44.9614 38.6154 43.3414 39.7434 42.1414C40.8594 40.9294 42.2874 40.3234 44.0274 40.3234C45.5754 40.3234 46.8234 40.7014 47.7714 41.4574C48.7194 42.2014 49.3014 43.2634 49.5174 44.6434L46.9074 44.8054C46.7754 44.1094 46.4754 43.5694 46.0074 43.1854C45.5394 42.8014 44.9274 42.6094 44.1714 42.6094C43.0914 42.6094 42.2454 43.0054 41.6334 43.7974C41.0214 44.5894 40.7154 45.6574 40.7154 47.0014C40.7154 48.3814 41.0214 49.4794 41.6334 50.2954C42.2454 51.1114 43.0914 51.5194 44.1714 51.5194C44.9994 51.5194 45.6954 51.2794 46.2594 50.7994C46.8234 50.3074 47.1714 49.6114 47.3034 48.7114H44.2614V46.4794ZM60.7168 49.0894V49.5214H53.9848C54.0328 50.2174 54.2488 50.7634 54.6328 51.1594C55.0168 51.5554 55.5268 51.7534 56.1628 51.7534C57.0628 51.7534 57.6628 51.3514 57.9628 50.5474L60.4828 50.7274C60.1708 51.7114 59.6488 52.4614 58.9168 52.9774C58.1848 53.4814 57.2848 53.7334 56.2168 53.7334C54.7168 53.7334 53.5348 53.2654 52.6708 52.3294C51.8068 51.3934 51.3748 50.1934 51.3748 48.7294C51.3748 47.3254 51.7888 46.1674 52.6168 45.2554C53.4448 44.3434 54.5548 43.8874 55.9468 43.8874C57.3508 43.8874 58.4968 44.3554 59.3848 45.2914C60.2728 46.2394 60.7168 47.5054 60.7168 49.0894ZM58.0888 47.7934C58.0168 47.1454 57.8008 46.6414 57.4408 46.2814C57.0808 45.9214 56.6128 45.7414 56.0368 45.7414C55.4608 45.7414 54.9868 45.9214 54.6148 46.2814C54.2428 46.6654 54.0268 47.1694 53.9668 47.7934H58.0888ZM66.983 45.9934L65.255 45.9394V50.4934C65.255 50.8054 65.321 51.0334 65.453 51.1774C65.597 51.3094 65.825 51.3754 66.137 51.3754H66.983V53.4094H65.327C64.391 53.4094 63.719 53.2114 63.311 52.8154C62.915 52.4074 62.717 51.7354 62.717 50.7994V45.9394L61.457 45.9934V44.1214L62.717 44.1574V41.2594H65.255V44.1754L66.983 44.1214V45.9934ZM79.8134 52.9234C79.0814 53.4754 78.0794 53.7514 76.8074 53.7514C75.5354 53.7514 74.5514 53.4814 73.8554 52.9414C73.1474 52.4014 72.7274 51.6334 72.5954 50.6374L74.9174 50.5474C75.0854 51.5074 75.7454 51.9874 76.8974 51.9874C77.4134 51.9874 77.8214 51.8974 78.1214 51.7174C78.4214 51.5374 78.5714 51.2854 78.5714 50.9614C78.5714 50.5054 78.1634 50.1934 77.3474 50.0254L75.5114 49.6654C73.7114 49.3054 72.8114 48.3994 72.8114 46.9474C72.8114 46.0114 73.1534 45.2674 73.8374 44.7154C74.5214 44.1634 75.4394 43.8874 76.5914 43.8874C77.7074 43.8874 78.6254 44.1574 79.3454 44.6974C80.0654 45.2254 80.4854 45.9454 80.6054 46.8574L78.3194 46.9474C78.2594 46.5394 78.0674 46.2214 77.7434 45.9934C77.4314 45.7654 77.0354 45.6514 76.5554 45.6514C76.1354 45.6514 75.7994 45.7414 75.5474 45.9214C75.2954 46.1014 75.1694 46.3414 75.1694 46.6414C75.1694 47.1094 75.5174 47.4214 76.2134 47.5774L78.2114 47.9914C79.1354 48.1834 79.8194 48.4954 80.2634 48.9274C80.7074 49.3594 80.9294 49.9354 80.9294 50.6554C80.9294 51.6274 80.5574 52.3834 79.8134 52.9234ZM87.3561 45.9934L85.6281 45.9394V50.4934C85.6281 50.8054 85.6941 51.0334 85.8261 51.1774C85.9701 51.3094 86.1981 51.3754 86.5101 51.3754H87.3561V53.4094H85.7001C84.7641 53.4094 84.0921 53.2114 83.6841 52.8154C83.2881 52.4074 83.0901 51.7354 83.0901 50.7994V45.9394L81.8301 45.9934V44.1214L83.0901 44.1574V41.2594H85.6281V44.1754L87.3561 44.1214V45.9934ZM97.0184 53.4094H94.4444C94.3124 52.8094 94.2464 52.4974 94.2464 52.4734C93.5864 53.2774 92.6324 53.6794 91.3844 53.6794C90.4124 53.6794 89.6324 53.4214 89.0444 52.9054C88.4564 52.3894 88.1624 51.7054 88.1624 50.8534C88.1624 49.3534 89.1044 48.4174 90.9884 48.0454L94.2284 47.3974V46.7134C94.2284 46.0414 93.7064 45.7054 92.6624 45.7054C92.1464 45.7054 91.7564 45.8014 91.4924 45.9934C91.2284 46.1854 91.0664 46.4974 91.0064 46.9294L88.6844 46.8934C88.8404 44.9014 90.1604 43.9054 92.6444 43.9054C95.3204 43.9054 96.6584 45.0574 96.6584 47.3614V51.4654C96.6584 52.3414 96.7784 52.9894 97.0184 53.4094ZM92.1044 51.8074C92.7404 51.8074 93.2504 51.6214 93.6344 51.2494C94.0304 50.8654 94.2284 50.3494 94.2284 49.7014V49.0174L91.8524 49.5214C91.0484 49.6774 90.6464 50.0674 90.6464 50.6914C90.6464 51.0274 90.7724 51.2974 91.0244 51.5014C91.2884 51.7054 91.6484 51.8074 92.1044 51.8074ZM103.366 43.7974C103.666 43.7974 103.936 43.8394 104.176 43.9234V46.2454C103.864 46.2214 103.69 46.2094 103.654 46.2094C102.118 46.2094 101.35 47.1034 101.35 48.8914V53.4094H98.8119V44.1214H101.296L101.26 45.3634C101.668 44.3194 102.37 43.7974 103.366 43.7974ZM110.876 45.9934L109.148 45.9394V50.4934C109.148 50.8054 109.214 51.0334 109.346 51.1774C109.49 51.3094 109.718 51.3754 110.03 51.3754H110.876V53.4094H109.22C108.284 53.4094 107.612 53.2114 107.204 52.8154C106.808 52.4074 106.61 51.7354 106.61 50.7994V45.9394L105.35 45.9934V44.1214L106.61 44.1574V41.2594H109.148V44.1754L110.876 44.1214V45.9934ZM121.168 49.0894V49.5214H114.436C114.484 50.2174 114.7 50.7634 115.084 51.1594C115.468 51.5554 115.978 51.7534 116.614 51.7534C117.514 51.7534 118.114 51.3514 118.414 50.5474L120.934 50.7274C120.622 51.7114 120.1 52.4614 119.368 52.9774C118.636 53.4814 117.736 53.7334 116.668 53.7334C115.168 53.7334 113.986 53.2654 113.122 52.3294C112.258 51.3934 111.826 50.1934 111.826 48.7294C111.826 47.3254 112.24 46.1674 113.068 45.2554C113.896 44.3434 115.006 43.8874 116.398 43.8874C117.802 43.8874 118.948 44.3554 119.836 45.2914C120.724 46.2394 121.168 47.5054 121.168 49.0894ZM118.54 47.7934C118.468 47.1454 118.252 46.6414 117.892 46.2814C117.532 45.9214 117.064 45.7414 116.488 45.7414C115.912 45.7414 115.438 45.9214 115.066 46.2814C114.694 46.6654 114.478 47.1694 114.418 47.7934H118.54ZM128.818 45.0574V40.5934H131.356V53.4094H129.106L129.016 52.2574C128.38 53.2294 127.48 53.7154 126.316 53.7154C125.14 53.7154 124.18 53.2534 123.436 52.3294C122.692 51.4054 122.32 50.2054 122.32 48.7294C122.32 47.2654 122.68 46.0894 123.4 45.2014C124.12 44.3254 125.026 43.8874 126.118 43.8874C127.282 43.8874 128.182 44.2774 128.818 45.0574ZM126.856 51.4834C127.468 51.4834 127.966 51.2314 128.35 50.7274C128.746 50.2234 128.944 49.5574 128.944 48.7294C128.944 47.9014 128.752 47.2414 128.368 46.7494C127.984 46.2454 127.48 45.9934 126.856 45.9934C126.232 45.9934 125.728 46.2454 125.344 46.7494C124.96 47.2414 124.768 47.9014 124.768 48.7294C124.768 49.5574 124.96 50.2234 125.344 50.7274C125.728 51.2314 126.232 51.4834 126.856 51.4834Z" fill="black"/>
<rect x="37.8055" y="77.8726" width="55.9916" height="70.5235" rx="7.91275" fill="#D0D1D3"/>
<rect x="37.8055" y="77.8726" width="55.9916" height="70.5235" rx="7.91275" stroke="white" stroke-width="1.75839" stroke-dasharray="3.52 3.52"/>
<path d="M55.5968 107.038C56.3328 107.225 56.7008 107.7 56.7008 108.462C56.7008 108.948 56.5382 109.345 56.2128 109.654C55.8875 109.974 55.4288 110.134 54.8368 110.134H52.1728V104.438H54.8208C55.3435 104.438 55.7568 104.564 56.0608 104.814C56.3702 105.06 56.5248 105.398 56.5248 105.83C56.5248 106.134 56.4448 106.39 56.2848 106.598C56.1248 106.806 55.8955 106.953 55.5968 107.038ZM54.6128 105.398H53.3568V106.638H54.5648C54.8315 106.638 55.0315 106.582 55.1648 106.47C55.2982 106.358 55.3648 106.204 55.3648 106.006C55.3648 105.601 55.1142 105.398 54.6128 105.398ZM53.3568 109.134H54.6288C54.9275 109.134 55.1542 109.065 55.3088 108.926C55.4635 108.788 55.5408 108.596 55.5408 108.35C55.5408 108.11 55.4662 107.926 55.3168 107.798C55.1675 107.665 54.9568 107.598 54.6848 107.598H53.3568V109.134ZM59.5709 105.862C59.7042 105.862 59.8242 105.881 59.9309 105.918V106.95C59.7922 106.94 59.7149 106.934 59.6989 106.934C59.0162 106.934 58.6749 107.332 58.6749 108.126V110.134H57.5469V106.006H58.6509L58.6349 106.558C58.8162 106.094 59.1282 105.862 59.5709 105.862ZM63.9863 109.646C63.597 110.062 63.0903 110.27 62.4663 110.27C61.8423 110.27 61.3357 110.062 60.9463 109.646C60.5517 109.236 60.3543 108.716 60.3543 108.086C60.3543 107.462 60.5517 106.94 60.9463 106.518C61.341 106.108 61.8477 105.902 62.4663 105.902C63.085 105.902 63.5917 106.108 63.9863 106.518C64.381 106.94 64.5783 107.462 64.5783 108.086C64.5783 108.716 64.381 109.236 63.9863 109.646ZM61.4423 108.086C61.4423 108.486 61.5357 108.804 61.7223 109.038C61.909 109.273 62.157 109.39 62.4663 109.39C62.781 109.39 63.0317 109.273 63.2183 109.038C63.3997 108.809 63.4903 108.492 63.4903 108.086C63.4903 107.681 63.3997 107.364 63.2183 107.134C63.0317 106.9 62.781 106.782 62.4663 106.782C62.157 106.782 61.909 106.9 61.7223 107.134C61.5357 107.369 61.4423 107.686 61.4423 108.086ZM69.2026 107.838L69.6586 106.006H70.8426L69.6186 110.134H68.5466L67.9546 107.838L67.8586 107.294L67.7546 107.838L67.1626 110.134H66.0906L64.8666 106.006H66.0506L66.5066 107.838L66.6986 108.878L66.8906 107.838L67.3546 106.006H68.3546L68.8186 107.822L69.0106 108.878L69.2026 107.838ZM74.5093 109.918C74.184 110.164 73.7387 110.286 73.1733 110.286C72.608 110.286 72.1707 110.166 71.8613 109.926C71.5467 109.686 71.36 109.345 71.3013 108.902L72.3333 108.862C72.408 109.289 72.7013 109.502 73.2133 109.502C73.4427 109.502 73.624 109.462 73.7573 109.382C73.8907 109.302 73.9573 109.19 73.9573 109.046C73.9573 108.844 73.776 108.705 73.4133 108.63L72.5973 108.47C71.7973 108.31 71.3973 107.908 71.3973 107.262C71.3973 106.846 71.5493 106.516 71.8533 106.27C72.1573 106.025 72.5653 105.902 73.0773 105.902C73.5733 105.902 73.9813 106.022 74.3013 106.262C74.6213 106.497 74.808 106.817 74.8613 107.222L73.8453 107.262C73.8187 107.081 73.7333 106.94 73.5893 106.838C73.4507 106.737 73.2747 106.686 73.0613 106.686C72.8747 106.686 72.7253 106.726 72.6133 106.806C72.5013 106.886 72.4453 106.993 72.4453 107.126C72.4453 107.334 72.6 107.473 72.9093 107.542L73.7973 107.726C74.208 107.812 74.512 107.95 74.7093 108.142C74.9067 108.334 75.0053 108.59 75.0053 108.91C75.0053 109.342 74.84 109.678 74.5093 109.918ZM79.7016 108.214V108.406H76.7096C76.731 108.716 76.827 108.958 76.9976 109.134C77.1683 109.31 77.395 109.398 77.6776 109.398C78.0776 109.398 78.3443 109.22 78.4776 108.862L79.5976 108.942C79.459 109.38 79.227 109.713 78.9016 109.942C78.5763 110.166 78.1763 110.278 77.7016 110.278C77.035 110.278 76.5096 110.07 76.1256 109.654C75.7416 109.238 75.5496 108.705 75.5496 108.054C75.5496 107.43 75.7336 106.916 76.1016 106.51C76.4696 106.105 76.963 105.902 77.5816 105.902C78.2056 105.902 78.715 106.11 79.1096 106.526C79.5043 106.948 79.7016 107.51 79.7016 108.214ZM78.5336 107.638C78.5016 107.35 78.4056 107.126 78.2456 106.966C78.0856 106.806 77.8776 106.726 77.6216 106.726C77.3656 106.726 77.155 106.806 76.9896 106.966C76.8243 107.137 76.7283 107.361 76.7016 107.638H78.5336ZM50.1327 117.902C50.618 117.902 51.0207 118.097 51.3407 118.486C51.6607 118.881 51.8207 119.404 51.8207 120.054C51.8207 120.71 51.6554 121.244 51.3247 121.654C50.994 122.065 50.5674 122.27 50.0447 122.27C49.522 122.27 49.122 122.054 48.8447 121.622L48.8047 122.134H47.8047V116.438H48.9327V118.422C49.2154 118.076 49.6154 117.902 50.1327 117.902ZM49.8047 121.278C50.082 121.278 50.306 121.166 50.4767 120.942C50.6474 120.718 50.7327 120.422 50.7327 120.054C50.7327 119.686 50.6474 119.393 50.4767 119.174C50.306 118.95 50.082 118.838 49.8047 118.838C49.5274 118.838 49.3034 118.95 49.1327 119.174C48.962 119.393 48.8767 119.686 48.8767 120.054C48.8767 120.422 48.962 120.718 49.1327 120.942C49.3087 121.166 49.5327 121.278 49.8047 121.278ZM54.2368 120.926L55.1168 118.006H56.3168L54.6688 122.87C54.5568 123.212 54.4101 123.446 54.2288 123.574C54.0528 123.702 53.8074 123.766 53.4928 123.766H52.5488V122.806H53.0928C53.3968 122.806 53.5914 122.689 53.6768 122.454L53.7168 122.342L52.1088 118.006H53.3488L54.1088 120.326L54.2368 120.926ZM61.2421 117.902C61.7274 117.902 62.1301 118.097 62.4501 118.486C62.7701 118.881 62.9301 119.404 62.9301 120.054C62.9301 120.71 62.7647 121.244 62.4341 121.654C62.1034 122.065 61.6767 122.27 61.1541 122.27C60.6314 122.27 60.2314 122.054 59.9541 121.622L59.9141 122.134H58.9141V116.438H60.0421V118.422C60.3247 118.076 60.7247 117.902 61.2421 117.902ZM60.9141 121.278C61.1914 121.278 61.4154 121.166 61.5861 120.942C61.7567 120.718 61.8421 120.422 61.8421 120.054C61.8421 119.686 61.7567 119.393 61.5861 119.174C61.4154 118.95 61.1914 118.838 60.9141 118.838C60.6367 118.838 60.4127 118.95 60.2421 119.174C60.0714 119.393 59.9861 119.686 59.9861 120.054C59.9861 120.422 60.0714 120.718 60.2421 120.942C60.4181 121.166 60.6421 121.278 60.9141 121.278ZM65.6803 117.862C65.8136 117.862 65.9336 117.881 66.0403 117.918V118.95C65.9016 118.94 65.8243 118.934 65.8083 118.934C65.1256 118.934 64.7843 119.332 64.7843 120.126V122.134H63.6563V118.006H64.7603L64.7443 118.558C64.9256 118.094 65.2376 117.862 65.6803 117.862ZM70.2576 122.134H69.1136C69.0549 121.868 69.0256 121.729 69.0256 121.718C68.7322 122.076 68.3082 122.254 67.7536 122.254C67.3216 122.254 66.9749 122.14 66.7136 121.91C66.4522 121.681 66.3216 121.377 66.3216 120.998C66.3216 120.332 66.7402 119.916 67.5776 119.75L69.0176 119.462V119.158C69.0176 118.86 68.7856 118.71 68.3216 118.71C68.0922 118.71 67.9189 118.753 67.8016 118.838C67.6842 118.924 67.6122 119.062 67.5856 119.254L66.5536 119.238C66.6229 118.353 67.2096 117.91 68.3136 117.91C69.5029 117.91 70.0976 118.422 70.0976 119.446V121.27C70.0976 121.66 70.1509 121.948 70.2576 122.134ZM68.0736 121.422C68.3562 121.422 68.5829 121.34 68.7536 121.174C68.9296 121.004 69.0176 120.774 69.0176 120.486V120.182L67.9616 120.406C67.6042 120.476 67.4256 120.649 67.4256 120.926C67.4256 121.076 67.4816 121.196 67.5936 121.286C67.7109 121.377 67.8709 121.422 68.0736 121.422ZM73.3667 117.902C73.7934 117.902 74.124 118.033 74.3587 118.294C74.5987 118.556 74.7187 118.913 74.7187 119.366V122.134H73.5907V119.622C73.5907 119.398 73.5374 119.225 73.4307 119.102C73.3294 118.98 73.1827 118.918 72.9907 118.918C72.7507 118.918 72.556 119.012 72.4067 119.198C72.2574 119.38 72.1827 119.622 72.1827 119.926V122.134H71.0547V118.006H72.1587L72.1747 118.566C72.4414 118.124 72.8387 117.902 73.3667 117.902ZM78.3517 118.422V116.438H79.4797V122.134H78.4797L78.4397 121.622C78.157 122.054 77.757 122.27 77.2397 122.27C76.717 122.27 76.2904 122.065 75.9597 121.654C75.629 121.244 75.4637 120.71 75.4637 120.054C75.4637 119.404 75.6237 118.881 75.9437 118.486C76.2637 118.097 76.6664 117.902 77.1517 117.902C77.669 117.902 78.069 118.076 78.3517 118.422ZM77.4797 121.278C77.7517 121.278 77.973 121.166 78.1437 120.942C78.3197 120.718 78.4077 120.422 78.4077 120.054C78.4077 119.686 78.3224 119.393 78.1517 119.174C77.981 118.95 77.757 118.838 77.4797 118.838C77.2024 118.838 76.9784 118.95 76.8077 119.174C76.637 119.393 76.5517 119.686 76.5517 120.054C76.5517 120.422 76.637 120.718 76.8077 120.942C76.9784 121.166 77.2024 121.278 77.4797 121.278ZM83.5015 121.918C83.1762 122.164 82.7309 122.286 82.1655 122.286C81.6002 122.286 81.1629 122.166 80.8535 121.926C80.5389 121.686 80.3522 121.345 80.2935 120.902L81.3255 120.862C81.4002 121.289 81.6935 121.502 82.2055 121.502C82.4349 121.502 82.6162 121.462 82.7495 121.382C82.8829 121.302 82.9495 121.19 82.9495 121.046C82.9495 120.844 82.7682 120.705 82.4055 120.63L81.5895 120.47C80.7895 120.31 80.3895 119.908 80.3895 119.262C80.3895 118.846 80.5415 118.516 80.8455 118.27C81.1495 118.025 81.5575 117.902 82.0695 117.902C82.5655 117.902 82.9735 118.022 83.2935 118.262C83.6135 118.497 83.8002 118.817 83.8535 119.222L82.8375 119.262C82.8109 119.081 82.7255 118.94 82.5815 118.838C82.4429 118.737 82.2669 118.686 82.0535 118.686C81.8669 118.686 81.7175 118.726 81.6055 118.806C81.4935 118.886 81.4375 118.993 81.4375 119.126C81.4375 119.334 81.5922 119.473 81.9015 119.542L82.7895 119.726C83.2002 119.812 83.5042 119.95 83.7015 120.142C83.8989 120.334 83.9975 120.59 83.9975 120.91C83.9975 121.342 83.8322 121.678 83.5015 121.918Z" fill="black"/>
<rect x="109.555" y="77.8726" width="55.9916" height="70.5235" rx="7.91275" fill="#D0D1D3"/>
<rect x="109.555" y="77.8726" width="55.9916" height="70.5235" rx="7.91275" stroke="white" stroke-width="1.75839" stroke-dasharray="3.52 3.52"/>
<path d="M133.265 108.094V104.438H134.449V110.134H133.289L131.033 106.478V110.134H129.849V104.438H131.009L133.265 108.094ZM139.386 108.214V108.406H136.394C136.415 108.716 136.511 108.958 136.682 109.134C136.852 109.31 137.079 109.398 137.362 109.398C137.762 109.398 138.028 109.22 138.162 108.862L139.282 108.942C139.143 109.38 138.911 109.713 138.586 109.942C138.26 110.166 137.86 110.278 137.386 110.278C136.719 110.278 136.194 110.07 135.81 109.654C135.426 109.238 135.234 108.705 135.234 108.054C135.234 107.43 135.418 106.916 135.786 106.51C136.154 106.105 136.647 105.902 137.266 105.902C137.89 105.902 138.399 106.11 138.794 106.526C139.188 106.948 139.386 107.51 139.386 108.214ZM138.218 107.638C138.186 107.35 138.09 107.126 137.93 106.966C137.77 106.806 137.562 106.726 137.306 106.726C137.05 106.726 136.839 106.806 136.674 106.966C136.508 107.137 136.412 107.361 136.386 107.638H138.218ZM144.012 107.838L144.468 106.006H145.652L144.428 110.134H143.356L142.764 107.838L142.668 107.294L142.564 107.838L141.972 110.134H140.9L139.676 106.006H140.86L141.316 107.838L141.508 108.878L141.7 107.838L142.164 106.006H143.164L143.628 107.822L143.82 108.878L144.012 107.838ZM129.915 118.422V116.438H131.043V122.134H130.043L130.003 121.622C129.72 122.054 129.32 122.27 128.803 122.27C128.28 122.27 127.853 122.065 127.523 121.654C127.192 121.244 127.027 120.71 127.027 120.054C127.027 119.404 127.187 118.881 127.507 118.486C127.827 118.097 128.229 117.902 128.715 117.902C129.232 117.902 129.632 118.076 129.915 118.422ZM129.043 121.278C129.315 121.278 129.536 121.166 129.707 120.942C129.883 120.718 129.971 120.422 129.971 120.054C129.971 119.686 129.885 119.393 129.715 119.174C129.544 118.95 129.32 118.838 129.043 118.838C128.765 118.838 128.541 118.95 128.371 119.174C128.2 119.393 128.115 119.686 128.115 120.054C128.115 120.422 128.2 120.718 128.371 120.942C128.541 121.166 128.765 121.278 129.043 121.278ZM134.025 117.862C134.158 117.862 134.278 117.881 134.385 117.918V118.95C134.246 118.94 134.169 118.934 134.153 118.934C133.47 118.934 133.129 119.332 133.129 120.126V122.134H132.001V118.006H133.105L133.089 118.558C133.27 118.094 133.582 117.862 134.025 117.862ZM138.44 121.646C138.051 122.062 137.544 122.27 136.92 122.27C136.296 122.27 135.789 122.062 135.4 121.646C135.005 121.236 134.808 120.716 134.808 120.086C134.808 119.462 135.005 118.94 135.4 118.518C135.795 118.108 136.301 117.902 136.92 117.902C137.539 117.902 138.045 118.108 138.44 118.518C138.835 118.94 139.032 119.462 139.032 120.086C139.032 120.716 138.835 121.236 138.44 121.646ZM135.896 120.086C135.896 120.486 135.989 120.804 136.176 121.038C136.363 121.273 136.611 121.39 136.92 121.39C137.235 121.39 137.485 121.273 137.672 121.038C137.853 120.809 137.944 120.492 137.944 120.086C137.944 119.681 137.853 119.364 137.672 119.134C137.485 118.9 137.235 118.782 136.92 118.782C136.611 118.782 136.363 118.9 136.176 119.134C135.989 119.369 135.896 119.686 135.896 120.086ZM142.086 117.902C142.572 117.902 142.974 118.097 143.294 118.486C143.614 118.881 143.774 119.404 143.774 120.054C143.774 120.71 143.609 121.244 143.278 121.654C142.948 122.065 142.521 122.27 141.998 122.27C141.529 122.27 141.158 122.097 140.886 121.75V123.766H139.758V118.006H140.758L140.798 118.542C141.081 118.116 141.51 117.902 142.086 117.902ZM141.758 121.278C142.036 121.278 142.26 121.166 142.43 120.942C142.601 120.718 142.686 120.422 142.686 120.054C142.686 119.686 142.601 119.393 142.43 119.174C142.26 118.95 142.036 118.838 141.758 118.838C141.481 118.838 141.257 118.95 141.086 119.174C140.916 119.393 140.83 119.686 140.83 120.054C140.83 120.422 140.916 120.718 141.086 120.942C141.262 121.166 141.486 121.278 141.758 121.278ZM147.565 121.918C147.239 122.164 146.794 122.286 146.229 122.286C145.663 122.286 145.226 122.166 144.917 121.926C144.602 121.686 144.415 121.345 144.357 120.902L145.389 120.862C145.463 121.289 145.757 121.502 146.269 121.502C146.498 121.502 146.679 121.462 146.813 121.382C146.946 121.302 147.013 121.19 147.013 121.046C147.013 120.844 146.831 120.705 146.469 120.63L145.653 120.47C144.853 120.31 144.453 119.908 144.453 119.262C144.453 118.846 144.605 118.516 144.909 118.27C145.213 118.025 145.621 117.902 146.133 117.902C146.629 117.902 147.037 118.022 147.357 118.262C147.677 118.497 147.863 118.817 147.917 119.222L146.901 119.262C146.874 119.081 146.789 118.94 146.645 118.838C146.506 118.737 146.33 118.686 146.117 118.686C145.93 118.686 145.781 118.726 145.669 118.806C145.557 118.886 145.501 118.993 145.501 119.126C145.501 119.334 145.655 119.473 145.965 119.542L146.853 119.726C147.263 119.812 147.567 119.95 147.765 120.142C147.962 120.334 148.061 120.59 148.061 120.91C148.061 121.342 147.895 121.678 147.565 121.918Z" fill="black"/>
<rect x="181.306" y="77.8726" width="55.9916" height="70.5235" rx="7.91275" fill="#D0D1D3"/>
<rect x="181.306" y="77.8726" width="55.9916" height="70.5235" rx="7.91275" stroke="white" stroke-width="1.75839" stroke-dasharray="3.52 3.52"/>
<path d="M198.049 107.686V109.134H201.089V110.134H196.865V104.438H201.009V105.438H198.049V106.67H200.713V107.686H198.049ZM204.199 105.902C204.626 105.902 204.957 106.033 205.191 106.294C205.431 106.556 205.551 106.913 205.551 107.366V110.134H204.423V107.622C204.423 107.398 204.37 107.225 204.263 107.102C204.162 106.98 204.015 106.918 203.823 106.918C203.583 106.918 203.389 107.012 203.239 107.198C203.09 107.38 203.015 107.622 203.015 107.926V110.134H201.887V106.006H202.991L203.007 106.566C203.274 106.124 203.671 105.902 204.199 105.902ZM209.184 106.422V104.438H210.312V110.134H209.312L209.272 109.622C208.99 110.054 208.59 110.27 208.072 110.27C207.55 110.27 207.123 110.065 206.792 109.654C206.462 109.244 206.296 108.71 206.296 108.054C206.296 107.404 206.456 106.881 206.776 106.486C207.096 106.097 207.499 105.902 207.984 105.902C208.502 105.902 208.902 106.076 209.184 106.422ZM208.312 109.278C208.584 109.278 208.806 109.166 208.976 108.942C209.152 108.718 209.24 108.422 209.24 108.054C209.24 107.686 209.155 107.393 208.984 107.174C208.814 106.95 208.59 106.838 208.312 106.838C208.035 106.838 207.811 106.95 207.64 107.174C207.47 107.393 207.384 107.686 207.384 108.054C207.384 108.422 207.47 108.718 207.64 108.942C207.811 109.166 208.035 109.278 208.312 109.278ZM212.398 105.462H211.27V104.438H212.398V105.462ZM212.398 110.134H211.27V106.006H212.398V110.134ZM215.668 105.902C216.095 105.902 216.425 106.033 216.66 106.294C216.9 106.556 217.02 106.913 217.02 107.366V110.134H215.892V107.622C215.892 107.398 215.839 107.225 215.732 107.102C215.631 106.98 215.484 106.918 215.292 106.918C215.052 106.918 214.857 107.012 214.708 107.198C214.559 107.38 214.484 107.622 214.484 107.926V110.134H213.356V106.006H214.46L214.476 106.566C214.743 106.124 215.14 105.902 215.668 105.902ZM220.741 106.518L220.781 106.006H221.781V110.182C221.781 110.721 221.608 111.134 221.261 111.422C220.92 111.716 220.437 111.862 219.813 111.862C219.237 111.862 218.786 111.742 218.461 111.502C218.141 111.262 217.96 110.918 217.917 110.47H218.957C219.021 110.838 219.298 111.022 219.789 111.022C220.098 111.022 220.32 110.953 220.453 110.814C220.586 110.681 220.653 110.476 220.653 110.198V109.63C220.376 109.966 220.002 110.134 219.533 110.134C219.01 110.134 218.586 109.934 218.261 109.534C217.93 109.14 217.765 108.625 217.765 107.99C217.765 107.35 217.93 106.841 218.261 106.462C218.586 106.089 219.01 105.902 219.533 105.902C220.066 105.902 220.469 106.108 220.741 106.518ZM219.781 109.174C220.053 109.174 220.274 109.065 220.445 108.846C220.621 108.628 220.709 108.342 220.709 107.99C220.709 107.638 220.621 107.353 220.445 107.134C220.274 106.916 220.053 106.806 219.781 106.806C219.504 106.806 219.28 106.913 219.109 107.126C218.938 107.34 218.853 107.628 218.853 107.99C218.853 108.353 218.938 108.641 219.109 108.854C219.28 109.068 219.504 109.174 219.781 109.174ZM203.639 121.918C203.313 122.164 202.868 122.286 202.303 122.286C201.737 122.286 201.3 122.166 200.991 121.926C200.676 121.686 200.489 121.345 200.431 120.902L201.463 120.862C201.537 121.289 201.831 121.502 202.343 121.502C202.572 121.502 202.753 121.462 202.887 121.382C203.02 121.302 203.087 121.19 203.087 121.046C203.087 120.844 202.905 120.705 202.543 120.63L201.727 120.47C200.927 120.31 200.527 119.908 200.527 119.262C200.527 118.846 200.679 118.516 200.983 118.27C201.287 118.025 201.695 117.902 202.207 117.902C202.703 117.902 203.111 118.022 203.431 118.262C203.751 118.497 203.937 118.817 203.991 119.222L202.975 119.262C202.948 119.081 202.863 118.94 202.719 118.838C202.58 118.737 202.404 118.686 202.191 118.686C202.004 118.686 201.855 118.726 201.743 118.806C201.631 118.886 201.575 118.993 201.575 119.126C201.575 119.334 201.729 119.473 202.039 119.542L202.927 119.726C203.337 119.812 203.641 119.95 203.839 120.142C204.036 120.334 204.135 120.59 204.135 120.91C204.135 121.342 203.969 121.678 203.639 121.918ZM208.311 121.646C207.922 122.062 207.415 122.27 206.791 122.27C206.167 122.27 205.66 122.062 205.271 121.646C204.876 121.236 204.679 120.716 204.679 120.086C204.679 119.462 204.876 118.94 205.271 118.518C205.666 118.108 206.172 117.902 206.791 117.902C207.41 117.902 207.916 118.108 208.311 118.518C208.706 118.94 208.903 119.462 208.903 120.086C208.903 120.716 208.706 121.236 208.311 121.646ZM205.767 120.086C205.767 120.486 205.86 120.804 206.047 121.038C206.234 121.273 206.482 121.39 206.791 121.39C207.106 121.39 207.356 121.273 207.543 121.038C207.724 120.809 207.815 120.492 207.815 120.086C207.815 119.681 207.724 119.364 207.543 119.134C207.356 118.9 207.106 118.782 206.791 118.782C206.482 118.782 206.234 118.9 206.047 119.134C205.86 119.369 205.767 119.686 205.767 120.086ZM213.045 121.646C212.656 122.062 212.149 122.27 211.525 122.27C210.901 122.27 210.395 122.062 210.005 121.646C209.611 121.236 209.413 120.716 209.413 120.086C209.413 119.462 209.611 118.94 210.005 118.518C210.4 118.108 210.907 117.902 211.525 117.902C212.144 117.902 212.651 118.108 213.045 118.518C213.44 118.94 213.637 119.462 213.637 120.086C213.637 120.716 213.44 121.236 213.045 121.646ZM210.501 120.086C210.501 120.486 210.595 120.804 210.781 121.038C210.968 121.273 211.216 121.39 211.525 121.39C211.84 121.39 212.091 121.273 212.277 121.038C212.459 120.809 212.549 120.492 212.549 120.086C212.549 119.681 212.459 119.364 212.277 119.134C212.091 118.9 211.84 118.782 211.525 118.782C211.216 118.782 210.968 118.9 210.781 119.134C210.595 119.369 210.501 119.686 210.501 120.086ZM216.676 117.902C217.102 117.902 217.433 118.033 217.668 118.294C217.908 118.556 218.028 118.913 218.028 119.366V122.134H216.9V119.622C216.9 119.398 216.846 119.225 216.74 119.102C216.638 118.98 216.492 118.918 216.3 118.918C216.06 118.918 215.865 119.012 215.716 119.198C215.566 119.38 215.492 119.622 215.492 119.926V122.134H214.364V118.006H215.468L215.484 118.566C215.75 118.124 216.148 117.902 216.676 117.902Z" fill="black"/>
</g>
</g>
<defs>
<filter id="filter0_d_32_1957" x="0.000137329" y="2.86102e-06" width="227.752" height="196.752" filterUnits="userSpaceOnUse" color-interpolation-filters="sRGB">
<feFlood flood-opacity="0" result="BackgroundImageFix"/>
<feColorMatrix in="SourceAlpha" type="matrix" values="0 0 0 0 0 0 0 0 0 0 0 0 0 0 0 0 0 0 127 0" result="hardAlpha"/>
<feOffset dy="7.03356"/>
<feGaussianBlur stdDeviation="13.1879"/>
<feComposite in2="hardAlpha" operator="out"/>
<feColorMatrix type="matrix" values="0 0 0 0 0 0 0 0 0 0 0 0 0 0 0 0 0 0 0.25 0"/>
<feBlend mode="normal" in2="BackgroundImageFix" result="effect1_dropShadow_32_1957"/>
<feBlend mode="normal" in="SourceGraphic" in2="effect1_dropShadow_32_1957" result="shape"/>
</filter>
<clipPath id="clip0_32_1957">
<rect x="26.376" y="19.3423" width="175" height="144" rx="17.5839" fill="white"/>
</clipPath>
</defs>
</svg>
