<svg width="690" height="257" viewBox="0 0 690 257" fill="none" xmlns="http://www.w3.org/2000/svg">
<rect width="677.706" height="50.6103" rx="14.3051" fill="#FF3D00"/>
<path d="M14.5388 19.389H17.1424L20.4802 29.7197H19.9629L23.3174 19.389H25.6873L21.5483 31.3052H18.6945L14.5388 19.389ZM26.7649 22.7269H29.1014V31.3052H26.7649V22.7269ZM26.7315 19.389H29.1348V21.3917H26.7315V19.389ZM34.603 31.5221C33.8242 31.5221 33.1455 31.4109 32.5669 31.1884C31.9995 30.9658 31.5545 30.6487 31.2318 30.2371C30.9203 29.8254 30.7422 29.347 30.6977 28.8018H33.0342C33.0787 29.0466 33.1733 29.2524 33.318 29.4193C33.4626 29.575 33.6462 29.6919 33.8687 29.7698C34.0912 29.8365 34.3583 29.8699 34.6698 29.8699C35.0926 29.8699 35.4264 29.7864 35.6712 29.6196C35.9271 29.4527 36.055 29.2134 36.055 28.9019C36.055 28.6683 35.9716 28.4791 35.8047 28.3345C35.6489 28.1898 35.4264 28.0841 35.1371 28.0174L33.368 27.6335C32.6448 27.4778 32.0607 27.2107 31.6157 26.8324C31.1706 26.4541 30.9481 25.909 30.9481 25.1969C30.9481 24.6628 31.0983 24.19 31.3987 23.7783C31.6991 23.3666 32.1163 23.0551 32.6504 22.8437C33.1844 22.6212 33.7964 22.5099 34.4862 22.5099C35.1983 22.5099 35.8214 22.6045 36.3554 22.7936C36.8895 22.9828 37.3178 23.2665 37.6405 23.6448C37.9743 24.0119 38.169 24.4681 38.2246 25.0133H35.8881C35.8325 24.7351 35.6823 24.5237 35.4375 24.3791C35.1927 24.2233 34.8701 24.1455 34.4695 24.1455C34.0912 24.1455 33.7797 24.2289 33.5349 24.3958C33.3013 24.5516 33.1844 24.7685 33.1844 25.0467C33.1844 25.2915 33.2679 25.4862 33.4348 25.6308C33.6128 25.7643 33.852 25.8645 34.1524 25.9312L36.0049 26.3151C36.4277 26.393 36.8116 26.5265 37.1565 26.7156C37.5014 26.9048 37.7851 27.1718 38.0077 27.5167C38.2302 27.8505 38.3414 28.2677 38.3414 28.7684C38.3414 29.3581 38.1801 29.8588 37.8575 30.2704C37.5459 30.6821 37.1064 30.9936 36.539 31.205C35.9716 31.4164 35.3262 31.5221 34.603 31.5221ZM39.9664 22.7269H42.3029V31.3052H39.9664V22.7269ZM39.9331 19.389H42.3363V21.3917H39.9331V19.389ZM48.2218 31.5221C47.3428 31.5221 46.5751 31.333 45.9187 30.9547C45.2622 30.5764 44.7615 30.0479 44.4166 29.3692C44.0828 28.6905 43.9159 27.9061 43.9159 27.016C43.9159 26.137 44.0884 25.3582 44.4333 24.6795C44.7782 23.9897 45.2733 23.4556 45.9187 23.0773C46.5751 22.699 47.3484 22.5099 48.2385 22.5099C49.1174 22.5099 49.8852 22.699 50.5416 23.0773C51.198 23.4556 51.6987 23.9841 52.0436 24.6628C52.3886 25.3415 52.561 26.1259 52.561 27.016C52.561 27.9061 52.3886 28.6905 52.0436 29.3692C51.6987 30.0479 51.198 30.5764 50.5416 30.9547C49.8963 31.333 49.123 31.5221 48.2218 31.5221ZM48.2385 29.7864C48.6613 29.7864 49.0173 29.6807 49.3066 29.4694C49.607 29.2468 49.8295 28.9242 49.9742 28.5014C50.1299 28.0786 50.2078 27.5835 50.2078 27.016C50.2078 26.4263 50.1299 25.9257 49.9742 25.514C49.8295 25.1023 49.607 24.7908 49.3066 24.5794C49.0173 24.3569 48.6613 24.2456 48.2385 24.2456C47.8046 24.2456 47.4374 24.3569 47.137 24.5794C46.8477 24.7908 46.6307 25.1023 46.4861 25.514C46.3415 25.9257 46.2691 26.4263 46.2691 27.016C46.2691 27.5946 46.3415 28.0897 46.4861 28.5014C46.6307 28.913 46.8477 29.2301 47.137 29.4527C47.4374 29.6752 47.8046 29.7864 48.2385 29.7864ZM54.1455 22.7269H56.482V24.0787C56.7712 23.5558 57.1607 23.1664 57.6502 22.9104C58.1509 22.6434 58.7016 22.5099 59.3025 22.5099C59.9478 22.5099 60.493 22.6434 60.938 22.9104C61.3831 23.1775 61.7168 23.5669 61.9394 24.0787C62.173 24.5905 62.2898 25.2024 62.2898 25.9145V31.3052H59.9533V26.2149C59.9533 25.6364 59.8087 25.1858 59.5194 24.8631C59.2413 24.5404 58.8574 24.3791 58.3678 24.3791C58.0007 24.3791 57.6725 24.4737 57.3832 24.6628C57.105 24.8408 56.8825 25.0912 56.7156 25.4138C56.5598 25.7365 56.482 26.0925 56.482 26.482V31.3052H54.1455V22.7269ZM68.5562 19.389H71.0095V24.2623H75.8327V19.389H78.286V31.3052H75.8327V26.2817H71.0095V31.3052H68.5562V19.389ZM84.3222 31.5221C83.4432 31.5221 82.6755 31.333 82.0191 30.9547C81.3626 30.5764 80.862 30.0479 80.5171 29.3692C80.1833 28.6905 80.0164 27.9061 80.0164 27.016C80.0164 26.137 80.1888 25.3582 80.5337 24.6795C80.8787 23.9897 81.3738 23.4556 82.0191 23.0773C82.6755 22.699 83.4488 22.5099 84.3389 22.5099C85.2179 22.5099 85.9856 22.699 86.642 23.0773C87.2985 23.4556 87.7992 23.9841 88.1441 24.6628C88.489 25.3415 88.6614 26.1259 88.6614 27.016C88.6614 27.9061 88.489 28.6905 88.1441 29.3692C87.7992 30.0479 87.2985 30.5764 86.642 30.9547C85.9967 31.333 85.2234 31.5221 84.3222 31.5221ZM84.3389 29.7864C84.7617 29.7864 85.1177 29.6807 85.407 29.4694C85.7074 29.2468 85.93 28.9242 86.0746 28.5014C86.2304 28.0786 86.3082 27.5835 86.3082 27.016C86.3082 26.4263 86.2304 25.9257 86.0746 25.514C85.93 25.1023 85.7074 24.7908 85.407 24.5794C85.1177 24.3569 84.7617 24.2456 84.3389 24.2456C83.905 24.2456 83.5378 24.3569 83.2374 24.5794C82.9481 24.7908 82.7312 25.1023 82.5865 25.514C82.4419 25.9257 82.3696 26.4263 82.3696 27.016C82.3696 27.5946 82.4419 28.0897 82.5865 28.5014C82.7312 28.913 82.9481 29.2301 83.2374 29.4527C83.5378 29.6752 83.905 29.7864 84.3389 29.7864ZM90.2459 22.7269H92.5824V24.5794C92.7382 24.1343 92.9329 23.7727 93.1665 23.4946C93.4113 23.2164 93.695 23.0217 94.0177 22.9104C94.3403 22.7881 94.7131 22.7269 95.1359 22.7269H95.6866V24.9799H94.8688C94.3459 24.9799 93.912 25.0967 93.5671 25.3304C93.2221 25.564 92.9718 25.8811 92.816 26.2817C92.6603 26.6822 92.5824 27.144 92.5824 27.6669V31.3052H90.2459V22.7269ZM97.1404 22.7269H99.4769V31.3052H97.1404V22.7269ZM97.107 19.389H99.5103V21.3917H97.107V19.389ZM101.09 29.3859L106.698 23.2109L107.682 24.4626H101.24V22.7269H108.35V24.6294L102.692 30.8045L101.741 29.5695H108.483V31.3052H101.09V29.3859ZM113.822 31.5221C112.943 31.5221 112.175 31.333 111.519 30.9547C110.862 30.5764 110.362 30.0479 110.017 29.3692C109.683 28.6905 109.516 27.9061 109.516 27.016C109.516 26.137 109.689 25.3582 110.033 24.6795C110.378 23.9897 110.873 23.4556 111.519 23.0773C112.175 22.699 112.948 22.5099 113.839 22.5099C114.718 22.5099 115.485 22.699 116.142 23.0773C116.798 23.4556 117.299 23.9841 117.644 24.6628C117.989 25.3415 118.161 26.1259 118.161 27.016C118.161 27.9061 117.989 28.6905 117.644 29.3692C117.299 30.0479 116.798 30.5764 116.142 30.9547C115.496 31.333 114.723 31.5221 113.822 31.5221ZM113.839 29.7864C114.261 29.7864 114.617 29.6807 114.907 29.4694C115.207 29.2468 115.43 28.9242 115.574 28.5014C115.73 28.0786 115.808 27.5835 115.808 27.016C115.808 26.4263 115.73 25.9257 115.574 25.514C115.43 25.1023 115.207 24.7908 114.907 24.5794C114.617 24.3569 114.261 24.2456 113.839 24.2456C113.405 24.2456 113.037 24.3569 112.737 24.5794C112.448 24.7908 112.231 25.1023 112.086 25.514C111.942 25.9257 111.869 26.4263 111.869 27.016C111.869 27.5946 111.942 28.0897 112.086 28.5014C112.231 28.913 112.448 29.2301 112.737 29.4527C113.037 29.6752 113.405 29.7864 113.839 29.7864ZM119.746 22.7269H122.082V24.0787C122.371 23.5558 122.761 23.1664 123.25 22.9104C123.751 22.6434 124.302 22.5099 124.903 22.5099C125.548 22.5099 126.093 22.6434 126.538 22.9104C126.983 23.1775 127.317 23.5669 127.539 24.0787C127.773 24.5905 127.89 25.2024 127.89 25.9145V31.3052H125.553V26.2149C125.553 25.6364 125.409 25.1858 125.12 24.8631C124.841 24.5404 124.458 24.3791 123.968 24.3791C123.601 24.3791 123.273 24.4737 122.983 24.6628C122.705 24.8408 122.483 25.0912 122.316 25.4138C122.16 25.7365 122.082 26.0925 122.082 26.482V31.3052H119.746V22.7269Z" fill="white"/>
<rect y="55.3787" width="143.051" height="50.6103" rx="14.3051" fill="white"/>
<path d="M14.639 74.8008H24.2353V77.0038H20.6805V86.6836H18.2105V77.0038H14.639V74.8008ZM30.3976 77.8549C31.2877 77.8549 31.9775 78.1275 32.4671 78.6727C32.9677 79.2179 33.2181 79.9634 33.2181 80.9091V86.6836H30.8649V81.4431C30.8649 80.9758 30.7536 80.6142 30.5311 80.3583C30.3197 80.1024 30.0137 79.9745 29.6132 79.9745C29.1125 79.9745 28.7064 80.1692 28.3949 80.5586C28.0833 80.9369 27.9276 81.4431 27.9276 82.0773V86.6836H25.5744V74.8008H27.9276V79.2235C28.495 78.3111 29.3183 77.8549 30.3976 77.8549ZM43.434 82.6782V83.0787H37.1922C37.2367 83.724 37.437 84.2303 37.793 84.5974C38.1491 84.9646 38.6219 85.1482 39.2116 85.1482C40.0461 85.1482 40.6024 84.7754 40.8806 84.03L43.2171 84.1969C42.9278 85.1092 42.4438 85.8046 41.7651 86.2831C41.0864 86.7504 40.2519 86.984 39.2617 86.984C37.8709 86.984 36.775 86.5501 35.9739 85.6822C35.1728 84.8144 34.7723 83.7018 34.7723 82.3444C34.7723 81.0426 35.1561 79.9689 35.9238 79.1233C36.6916 78.2777 37.7207 77.8549 39.0114 77.8549C40.3131 77.8549 41.3757 78.2889 42.199 79.1567C43.0224 80.0357 43.434 81.2095 43.434 82.6782ZM40.9974 81.4765C40.9306 80.8757 40.7304 80.4084 40.3966 80.0746C40.0628 79.7408 39.6289 79.5739 39.0948 79.5739C38.5608 79.5739 38.1213 79.7408 37.7764 80.0746C37.4314 80.4307 37.2312 80.898 37.1755 81.4765H40.9974ZM54.6327 77.8549C55.4894 77.8549 56.1626 78.1331 56.6521 78.6894C57.1417 79.2457 57.3864 79.9912 57.3864 80.9258V86.6836H55.0332V81.3931C55.0332 80.9703 54.9331 80.6309 54.7328 80.375C54.5437 80.108 54.26 79.9745 53.8817 79.9745C53.4255 79.9745 53.0528 80.1692 52.7635 80.5586C52.4853 80.9369 52.3463 81.4431 52.3463 82.0773V86.6836H49.9931V81.3931C49.9931 80.9703 49.8929 80.6309 49.6927 80.375C49.5035 80.108 49.2198 79.9745 48.8415 79.9745C48.3853 79.9745 48.0126 80.1692 47.7233 80.5586C47.4452 80.9369 47.3061 81.4431 47.3061 82.0773V86.6836H44.9529V78.0719H47.256L47.2894 79.1734C47.8235 78.2944 48.6023 77.8549 49.6259 77.8549C50.8498 77.8549 51.6731 78.3723 52.0959 79.4071C52.6522 78.3723 53.4978 77.8549 54.6327 77.8549ZM67.6042 82.6782V83.0787H61.3624C61.4069 83.724 61.6072 84.2303 61.9632 84.5974C62.3193 84.9646 62.7921 85.1482 63.3818 85.1482C64.2163 85.1482 64.7726 84.7754 65.0507 84.03L67.3873 84.1969C67.098 85.1092 66.614 85.8046 65.9353 86.2831C65.2566 86.7504 64.4221 86.984 63.4319 86.984C62.0411 86.984 60.9452 86.5501 60.1441 85.6822C59.343 84.8144 58.9425 83.7018 58.9425 82.3444C58.9425 81.0426 59.3263 79.9689 60.094 79.1233C60.8617 78.2777 61.8909 77.8549 63.1815 77.8549C64.4833 77.8549 65.5459 78.2889 66.3692 79.1567C67.1925 80.0357 67.6042 81.2095 67.6042 82.6782ZM65.1676 81.4765C65.1008 80.8757 64.9005 80.4084 64.5668 80.0746C64.233 79.7408 63.799 79.5739 63.265 79.5739C62.7309 79.5739 62.2914 79.7408 61.9465 80.0746C61.6016 80.4307 61.4013 80.898 61.3457 81.4765H65.1676ZM75.5151 86.233C74.8364 86.7448 73.9073 87.0007 72.728 87.0007C71.5486 87.0007 70.6362 86.7504 69.9909 86.2497C69.3345 85.749 68.9451 85.0369 68.8227 84.1134L70.9756 84.03C71.1314 84.9201 71.7433 85.3651 72.8114 85.3651C73.2898 85.3651 73.6681 85.2817 73.9463 85.1148C74.2244 84.9479 74.3635 84.7143 74.3635 84.4138C74.3635 83.9911 73.9852 83.7018 73.2286 83.546L71.5263 83.2122C69.8574 82.8784 69.0229 82.0384 69.0229 80.6921C69.0229 79.8243 69.34 79.1345 69.9742 78.6227C70.6084 78.1108 71.4596 77.8549 72.5277 77.8549C73.5624 77.8549 74.4136 78.1053 75.0812 78.606C75.7487 79.0955 76.1381 79.7631 76.2494 80.6087L74.1299 80.6921C74.0742 80.3138 73.8962 80.019 73.5958 79.8076C73.3065 79.5962 72.9394 79.4905 72.4943 79.4905C72.1049 79.4905 71.7934 79.5739 71.5597 79.7408C71.3261 79.9077 71.2092 80.1303 71.2092 80.4084C71.2092 80.8423 71.5319 81.1316 72.1772 81.2763L74.0297 81.6601C74.8864 81.8381 75.5206 82.1274 75.9323 82.528C76.344 82.9285 76.5498 83.4626 76.5498 84.1301C76.5498 85.0314 76.2049 85.7323 75.5151 86.233Z" fill="black"/>
<rect x="145.436" y="55.3787" width="388.027" height="50.6103" rx="14.3051" fill="#FFCCBD"/>
<path d="M161.143 74.7677H162.711V85.3487H168.453V86.6838H161.143V74.7677ZM172.424 86.9008C171.856 86.9008 171.356 86.7951 170.922 86.5837C170.499 86.3723 170.171 86.0775 169.937 85.6992C169.703 85.3098 169.587 84.8647 169.587 84.364C169.587 83.5741 169.859 82.9732 170.404 82.5616C170.949 82.1499 171.656 81.8829 172.524 81.7605L174.46 81.4768C174.805 81.4211 175.038 81.321 175.161 81.1764C175.283 81.0317 175.344 80.8426 175.344 80.6089V80.5922C175.344 80.1472 175.189 79.7911 174.877 79.5241C174.565 79.246 174.104 79.1069 173.492 79.1069C172.869 79.1069 172.385 79.2181 172.04 79.4407C171.706 79.6521 171.495 79.9636 171.406 80.3753H169.887C169.943 79.8746 170.126 79.4407 170.438 79.0735C170.749 78.6952 171.166 78.4059 171.689 78.2057C172.212 77.9943 172.813 77.8886 173.492 77.8886C174.237 77.8886 174.86 78.0054 175.361 78.239C175.862 78.4727 176.234 78.8065 176.479 79.2404C176.735 79.6743 176.863 80.1917 176.863 80.7925V86.6838H175.428V85.1651C175.105 85.8104 174.693 86.261 174.193 86.5169C173.692 86.7728 173.102 86.9008 172.424 86.9008ZM172.824 85.6825C173.325 85.6825 173.764 85.5657 174.143 85.332C174.532 85.0984 174.827 84.7757 175.027 84.364C175.239 83.9412 175.344 83.4517 175.344 82.8954V82.3446C175.166 82.4114 174.949 82.4726 174.693 82.5282L174.476 82.5616L172.774 82.8453C172.251 82.9343 171.845 83.1012 171.556 83.346C171.278 83.5796 171.139 83.8967 171.139 84.2973C171.139 84.7201 171.289 85.0594 171.589 85.3153C171.901 85.5601 172.312 85.6825 172.824 85.6825ZM179.196 78.1055H180.715V79.5575C180.993 79.0123 181.383 78.6006 181.883 78.3225C182.395 78.0332 182.979 77.8886 183.636 77.8886C184.259 77.8886 184.804 78.0221 185.271 78.2891C185.75 78.545 186.117 78.9344 186.373 79.4574C186.64 79.9692 186.773 80.5978 186.773 81.3433V86.6838H185.255V81.4434C185.255 80.7202 185.06 80.1639 184.67 79.7745C184.292 79.3739 183.786 79.1736 183.152 79.1736C182.718 79.1736 182.312 79.2849 181.933 79.5074C181.566 79.73 181.271 80.0415 181.049 80.442C180.826 80.8314 180.715 81.2709 180.715 81.7605V86.6838H179.196V78.1055ZM192.293 86.9008C191.581 86.9008 190.947 86.7117 190.391 86.3334C189.834 85.9551 189.395 85.421 189.072 84.7312C188.761 84.0414 188.605 83.2514 188.605 82.3613C188.605 81.4823 188.761 80.7035 189.072 80.0248C189.395 79.3461 189.834 78.8232 190.391 78.456C190.947 78.0777 191.581 77.8886 192.293 77.8886C192.927 77.8886 193.495 78.0221 193.996 78.2891C194.496 78.545 194.897 78.9289 195.197 79.4407V74.7677H196.716V86.6838H195.197V85.3153C194.897 85.8382 194.491 86.2332 193.979 86.5003C193.478 86.7673 192.916 86.9008 192.293 86.9008ZM192.71 85.6491C193.233 85.6491 193.69 85.51 194.079 85.2319C194.468 84.9537 194.763 84.5699 194.964 84.0803C195.175 83.5796 195.281 83.0122 195.281 82.378C195.281 81.7438 195.175 81.1819 194.964 80.6924C194.763 80.2028 194.468 79.8245 194.079 79.5575C193.69 79.2793 193.233 79.1403 192.71 79.1403C192.188 79.1403 191.731 79.2793 191.342 79.5575C190.964 79.8245 190.674 80.2028 190.474 80.6924C190.274 81.1708 190.174 81.7271 190.174 82.3613C190.174 83.0066 190.274 83.5796 190.474 84.0803C190.674 84.5699 190.964 84.9537 191.342 85.2319C191.731 85.51 192.188 85.6491 192.71 85.6491ZM199.179 78.1055H200.698V86.6838H199.179V78.1055ZM199.113 74.7677H200.765V76.52H199.113V74.7677ZM203.171 78.1055H204.69V79.5575C204.968 79.0123 205.357 78.6006 205.858 78.3225C206.37 78.0332 206.954 77.8886 207.61 77.8886C208.233 77.8886 208.779 78.0221 209.246 78.2891C209.724 78.545 210.091 78.9344 210.347 79.4574C210.614 79.9692 210.748 80.5978 210.748 81.3433V86.6838H209.229V81.4434C209.229 80.7202 209.034 80.1639 208.645 79.7745C208.267 79.3739 207.76 79.1736 207.126 79.1736C206.692 79.1736 206.286 79.2849 205.908 79.5074C205.541 79.73 205.246 80.0415 205.023 80.442C204.801 80.8314 204.69 81.2709 204.69 81.7605V86.6838H203.171V78.1055ZM216.635 90.0551C215.89 90.0551 215.239 89.9549 214.682 89.7547C214.126 89.5544 213.681 89.2651 213.347 88.8868C213.013 88.5085 212.808 88.0468 212.73 87.5016H214.282C214.426 87.9689 214.688 88.3083 215.066 88.5197C215.456 88.7422 215.995 88.8534 216.685 88.8534C217.119 88.8534 217.52 88.77 217.887 88.6031C218.254 88.4473 218.549 88.1859 218.771 87.8187C219.005 87.4627 219.122 87.0121 219.122 86.4669V84.9481C218.799 85.4933 218.399 85.8939 217.92 86.1498C217.453 86.3946 216.913 86.5169 216.301 86.5169C215.623 86.5169 214.999 86.3334 214.432 85.9662C213.865 85.599 213.414 85.0872 213.08 84.4308C212.746 83.7632 212.579 83.0178 212.579 82.1944C212.579 81.3599 212.746 80.6201 213.08 79.9747C213.414 79.3183 213.865 78.8065 214.432 78.4393C214.999 78.0721 215.623 77.8886 216.301 77.8886C216.902 77.8886 217.453 78.0221 217.953 78.2891C218.454 78.545 218.844 78.9122 219.122 79.3906V78.1055H220.64V86.4502C220.64 87.2958 220.451 87.9856 220.073 88.5197C219.706 89.0537 219.222 89.4431 218.621 89.6879C218.02 89.9327 217.358 90.0551 216.635 90.0551ZM216.652 85.2486C217.152 85.2486 217.597 85.1262 217.987 84.8814C218.376 84.6366 218.677 84.2861 218.888 83.83C219.099 83.3627 219.205 82.8119 219.205 82.1777C219.205 81.5435 219.099 80.9983 218.888 80.5422C218.677 80.086 218.376 79.7411 217.987 79.5074C217.609 79.2627 217.163 79.1403 216.652 79.1403C216.14 79.1403 215.695 79.2627 215.317 79.5074C214.938 79.7411 214.643 80.086 214.432 80.5422C214.232 80.9872 214.132 81.5324 214.132 82.1777C214.132 82.8119 214.232 83.3627 214.432 83.83C214.643 84.2861 214.938 84.6366 215.317 84.8814C215.706 85.1262 216.151 85.2486 216.652 85.2486ZM227.574 74.7677H235.585V76.0861H229.143V79.8078H235.034V81.0762H229.143V85.3654H235.585V86.6838H227.574V74.7677ZM240.316 81.5936L240.216 82.7118L236.861 78.1055H238.747L241.184 81.8272L240.249 81.7772L242.753 78.1055H244.438L241 82.7285L241.101 81.5769L244.872 86.6838H242.97L240.149 82.4781L241.084 82.5616L238.18 86.6838H236.511L240.316 81.5936ZM246.328 78.1055H247.847V79.4574C248.148 78.9456 248.548 78.5561 249.049 78.2891C249.561 78.0221 250.128 77.8886 250.751 77.8886C251.463 77.8886 252.097 78.0777 252.654 78.456C253.221 78.8343 253.661 79.3684 253.972 80.0582C254.295 80.748 254.456 81.538 254.456 82.4281C254.456 83.307 254.295 84.0859 253.972 84.7646C253.661 85.4433 253.221 85.9718 252.654 86.3501C252.097 86.7172 251.463 86.9008 250.751 86.9008C250.117 86.9008 249.549 86.7728 249.049 86.5169C248.548 86.2499 248.148 85.8605 247.847 85.3487V89.8548H246.328V78.1055ZM250.334 85.6491C250.857 85.6491 251.307 85.5156 251.686 85.2486C252.075 84.9704 252.37 84.5921 252.57 84.1137C252.782 83.6241 252.887 83.0623 252.887 82.4281C252.887 81.7827 252.782 81.2153 252.57 80.7258C252.37 80.2251 252.075 79.8357 251.686 79.5575C251.307 79.2793 250.857 79.1403 250.334 79.1403C249.811 79.1403 249.355 79.2793 248.965 79.5575C248.576 79.8357 248.276 80.2251 248.064 80.7258C247.864 81.2153 247.764 81.7772 247.764 82.4114C247.764 83.0456 247.864 83.6074 248.064 84.097C248.276 84.5865 248.576 84.9704 248.965 85.2486C249.355 85.5156 249.811 85.6491 250.334 85.6491ZM259.957 86.9008C259.133 86.9008 258.41 86.7117 257.787 86.3334C257.164 85.9551 256.686 85.4266 256.352 84.7479C256.018 84.0581 255.851 83.2737 255.851 82.3947C255.851 81.5157 256.018 80.7369 256.352 80.0582C256.686 79.3684 257.164 78.8343 257.787 78.456C258.41 78.0777 259.133 77.8886 259.957 77.8886C260.724 77.8886 261.403 78.0499 261.993 78.3726C262.582 78.6841 263.039 79.2015 263.361 79.9247C263.695 80.6479 263.829 81.5936 263.762 82.7618H256.936V81.6604H262.277C262.232 80.8036 262.009 80.1694 261.609 79.7578C261.22 79.335 260.669 79.1236 259.957 79.1236C259.345 79.1236 258.85 79.2627 258.471 79.5408C258.093 79.819 257.82 80.2028 257.654 80.6924C257.487 81.1708 257.403 81.7382 257.403 82.3947C257.403 83.0511 257.487 83.6241 257.654 84.1137C257.82 84.5921 258.093 84.9704 258.471 85.2486C258.85 85.5267 259.345 85.6658 259.957 85.6658C260.524 85.6658 261.003 85.549 261.392 85.3153C261.781 85.0705 262.043 84.7646 262.176 84.3974H263.712C263.634 84.8424 263.428 85.2541 263.094 85.6324C262.76 86.0107 262.321 86.3167 261.776 86.5503C261.242 86.784 260.635 86.9008 259.957 86.9008ZM265.674 78.1055H267.193V80.0081C267.371 79.5297 267.583 79.1514 267.827 78.8732C268.072 78.5951 268.345 78.4004 268.645 78.2891C268.957 78.1667 269.313 78.1055 269.713 78.1055H270.247V79.6076H269.596C269.096 79.6076 268.662 79.7244 268.295 79.958C267.939 80.1806 267.666 80.5088 267.477 80.9427C267.288 81.3655 267.193 81.8662 267.193 82.4448V86.6838H265.674V78.1055ZM271.983 78.1055H273.502V86.6838H271.983V78.1055ZM271.917 74.7677H273.569V76.52H271.917V74.7677ZM279.58 86.9008C278.756 86.9008 278.033 86.7117 277.41 86.3334C276.787 85.9551 276.309 85.4266 275.975 84.7479C275.641 84.0581 275.474 83.2737 275.474 82.3947C275.474 81.5157 275.641 80.7369 275.975 80.0582C276.309 79.3684 276.787 78.8343 277.41 78.456C278.033 78.0777 278.756 77.8886 279.58 77.8886C280.347 77.8886 281.026 78.0499 281.616 78.3726C282.205 78.6841 282.662 79.2015 282.984 79.9247C283.318 80.6479 283.452 81.5936 283.385 82.7618H276.559V81.6604H281.9C281.855 80.8036 281.632 80.1694 281.232 79.7578C280.843 79.335 280.292 79.1236 279.58 79.1236C278.968 79.1236 278.473 79.2627 278.094 79.5408C277.716 79.819 277.443 80.2028 277.277 80.6924C277.11 81.1708 277.026 81.7382 277.026 82.3947C277.026 83.0511 277.11 83.6241 277.277 84.1137C277.443 84.5921 277.716 84.9704 278.094 85.2486C278.473 85.5267 278.968 85.6658 279.58 85.6658C280.147 85.6658 280.626 85.549 281.015 85.3153C281.404 85.0705 281.666 84.7646 281.799 84.3974H283.335C283.257 84.8424 283.051 85.2541 282.717 85.6324C282.383 86.0107 281.944 86.3167 281.399 86.5503C280.865 86.784 280.258 86.9008 279.58 86.9008ZM285.297 78.1055H286.816V79.5575C287.094 79.0123 287.484 78.6006 287.984 78.3225C288.496 78.0332 289.08 77.8886 289.737 77.8886C290.36 77.8886 290.905 78.0221 291.372 78.2891C291.851 78.545 292.218 78.9344 292.474 79.4574C292.741 79.9692 292.874 80.5978 292.874 81.3433V86.6838H291.356V81.4434C291.356 80.7202 291.161 80.1639 290.771 79.7745C290.393 79.3739 289.887 79.1736 289.253 79.1736C288.819 79.1736 288.413 79.2849 288.034 79.5074C287.667 79.73 287.372 80.0415 287.15 80.442C286.927 80.8314 286.816 81.2709 286.816 81.7605V86.6838H285.297V78.1055ZM298.828 86.9008C298.005 86.9008 297.282 86.7061 296.659 86.3167C296.036 85.9273 295.552 85.3932 295.207 84.7145C294.873 84.0247 294.706 83.2514 294.706 82.3947C294.706 81.5491 294.873 80.7869 295.207 80.1082C295.552 79.4184 296.036 78.8788 296.659 78.4894C297.293 78.0888 298.022 77.8886 298.845 77.8886C299.501 77.8886 300.091 78.0054 300.614 78.239C301.148 78.4616 301.576 78.7898 301.899 79.2237C302.233 79.6465 302.444 80.1528 302.533 80.7424H300.981C300.87 80.2306 300.62 79.8357 300.23 79.5575C299.852 79.2793 299.385 79.1403 298.828 79.1403C298.261 79.1403 297.782 79.2849 297.393 79.5742C297.015 79.8523 296.731 80.2362 296.542 80.7258C296.353 81.2153 296.258 81.7661 296.258 82.378C296.258 83.0011 296.353 83.5574 296.542 84.0469C296.731 84.5365 297.015 84.9259 297.393 85.2152C297.782 85.5045 298.261 85.6491 298.828 85.6491C299.385 85.6491 299.841 85.5267 300.197 85.2819C300.553 85.026 300.809 84.6422 300.964 84.1304H302.517C302.35 84.9648 301.944 85.638 301.298 86.1498C300.653 86.6505 299.83 86.9008 298.828 86.9008ZM308.036 86.9008C307.213 86.9008 306.49 86.7117 305.867 86.3334C305.244 85.9551 304.765 85.4266 304.431 84.7479C304.098 84.0581 303.931 83.2737 303.931 82.3947C303.931 81.5157 304.098 80.7369 304.431 80.0582C304.765 79.3684 305.244 78.8343 305.867 78.456C306.49 78.0777 307.213 77.8886 308.036 77.8886C308.804 77.8886 309.483 78.0499 310.072 78.3726C310.662 78.6841 311.118 79.2015 311.441 79.9247C311.775 80.6479 311.908 81.5936 311.841 82.7618H305.016V81.6604H310.356C310.312 80.8036 310.089 80.1694 309.689 79.7578C309.299 79.335 308.748 79.1236 308.036 79.1236C307.424 79.1236 306.929 79.2627 306.551 79.5408C306.173 79.819 305.9 80.2028 305.733 80.6924C305.566 81.1708 305.483 81.7382 305.483 82.3947C305.483 83.0511 305.566 83.6241 305.733 84.1137C305.9 84.5921 306.173 84.9704 306.551 85.2486C306.929 85.5267 307.424 85.6658 308.036 85.6658C308.604 85.6658 309.082 85.549 309.472 85.3153C309.861 85.0705 310.122 84.7646 310.256 84.3974H311.791C311.713 84.8424 311.508 85.2541 311.174 85.6324C310.84 86.0107 310.401 86.3167 309.855 86.5503C309.321 86.784 308.715 86.9008 308.036 86.9008Z" fill="#1A1A1A"/>
<g filter="url(#filter0_f_96_755)">
<rect x="535.846" y="55.3787" width="45.6969" height="50.068" rx="14.3051" fill="#FFCCBD"/>
<path d="M551.696 86.4522H553.833V88.6838H551.696V86.4522Z" fill="#1A1A1A"/>
</g>
<g filter="url(#filter1_f_96_755)">
<rect x="583.927" y="55.3787" width="45.697" height="50.068" rx="14.3051" fill="#FFCCBD"/>
<path d="M599.777 86.4522H601.914V88.6838H599.777V86.4522Z" fill="#1A1A1A"/>
</g>
<g filter="url(#filter2_f_96_755)">
<rect x="632.009" y="55.3787" width="45.697" height="50.068" rx="14.3051" fill="#FFCCBD"/>
<path d="M647.859 86.4522H649.995V88.6838H647.859V86.4522Z" fill="#1A1A1A"/>
</g>
<rect y="110.757" width="143.051" height="41.0735" rx="14.3051" fill="#EFEFF0"/>
<rect y="110.757" width="143.051" height="41.0735" rx="14.3051" fill="black" fill-opacity="0.05"/>
<path d="M21.7319 132.387L23.5511 125.411H27.0725V137.294H24.7694V132.838L25.0531 127.03L24.2353 130.618L22.4996 137.294H19.9795L18.2105 130.501L17.3927 127.013L17.6764 132.838V137.294H15.39V125.411H18.8614L20.7139 132.387L21.1979 134.757L21.7319 132.387ZM31.5132 127.547H29.16V125.411H31.5132V127.547ZM31.5132 137.294H29.16V128.682H31.5132V137.294ZM35.8648 137.294H33.5116V125.411H35.8648V137.294ZM46.0743 133.289V133.689H39.8325C39.877 134.334 40.0773 134.841 40.4334 135.208C40.7894 135.575 41.2623 135.759 41.8519 135.759C42.6864 135.759 43.2427 135.386 43.5209 134.64L45.8574 134.807C45.5681 135.72 45.0841 136.415 44.4054 136.893C43.7267 137.361 42.8922 137.594 41.902 137.594C40.5112 137.594 39.4153 137.16 38.6142 136.293C37.8131 135.425 37.4126 134.312 37.4126 132.955C37.4126 131.653 37.7964 130.579 38.5641 129.734C39.3319 128.888 40.361 128.465 41.6517 128.465C42.9534 128.465 44.016 128.899 44.8393 129.767C45.6627 130.646 46.0743 131.82 46.0743 133.289ZM43.6377 132.087C43.5709 131.486 43.3707 131.019 43.0369 130.685C42.7031 130.351 42.2692 130.184 41.7351 130.184C41.2011 130.184 40.7616 130.351 40.4167 130.685C40.0717 131.041 39.8715 131.508 39.8158 132.087H43.6377ZM53.9852 136.843C53.3065 137.355 52.3775 137.611 51.1981 137.611C50.0187 137.611 49.1064 137.361 48.461 136.86C47.8046 136.359 47.4152 135.647 47.2928 134.724L49.4457 134.64C49.6015 135.53 50.2134 135.975 51.2815 135.975C51.76 135.975 52.1383 135.892 52.4164 135.725C52.6946 135.558 52.8336 135.325 52.8336 135.024C52.8336 134.601 52.4554 134.312 51.6988 134.156L49.9965 133.823C48.3275 133.489 47.4931 132.649 47.4931 131.302C47.4931 130.435 47.8102 129.745 48.4444 129.233C49.0785 128.721 49.9297 128.465 50.9978 128.465C52.0326 128.465 52.8837 128.716 53.5513 129.216C54.2189 129.706 54.6083 130.373 54.7195 131.219L52.6 131.302C52.5444 130.924 52.3663 130.629 52.0659 130.418C51.7767 130.207 51.4095 130.101 50.9644 130.101C50.575 130.101 50.2635 130.184 50.0298 130.351C49.7962 130.518 49.6794 130.741 49.6794 131.019C49.6794 131.453 50.002 131.742 50.6473 131.887L52.4999 132.27C53.3566 132.448 53.9908 132.738 54.4024 133.138C54.8141 133.539 55.0199 134.073 55.0199 134.74C55.0199 135.642 54.675 136.343 53.9852 136.843ZM60.9787 130.418L59.3765 130.368V134.59C59.3765 134.88 59.4377 135.091 59.5601 135.224C59.6936 135.347 59.905 135.408 60.1943 135.408H60.9787V137.294H59.4433C58.5754 137.294 57.9524 137.11 57.5741 136.743C57.2069 136.365 57.0233 135.742 57.0233 134.874V130.368L55.8551 130.418V128.682L57.0233 128.716V126.029H59.3765V128.732L60.9787 128.682V130.418ZM69.4368 136.276C68.6246 137.144 67.5676 137.578 66.2658 137.578C64.964 137.578 63.907 137.144 63.0948 136.276C62.2715 135.419 61.8598 134.334 61.8598 133.021C61.8598 131.72 62.2715 130.629 63.0948 129.75C63.9182 128.894 64.9752 128.465 66.2658 128.465C67.5564 128.465 68.6134 128.894 69.4368 129.75C70.2601 130.629 70.6718 131.72 70.6718 133.021C70.6718 134.334 70.2601 135.419 69.4368 136.276ZM64.1296 133.021C64.1296 133.856 64.3243 134.518 64.7137 135.008C65.1031 135.497 65.6205 135.742 66.2658 135.742C66.9223 135.742 67.4452 135.497 67.8346 135.008C68.2129 134.529 68.402 133.867 68.402 133.021C68.402 132.176 68.2129 131.514 67.8346 131.035C67.4452 130.546 66.9223 130.301 66.2658 130.301C65.6205 130.301 65.1031 130.546 64.7137 131.035C64.3243 131.525 64.1296 132.187 64.1296 133.021ZM77.0103 128.465C77.9004 128.465 78.5903 128.738 79.0798 129.283C79.5805 129.828 79.8308 130.574 79.8308 131.519V137.294H77.4776V132.053C77.4776 131.586 77.3664 131.225 77.1439 130.969C76.9325 130.713 76.6265 130.585 76.2259 130.585C75.7253 130.585 75.3192 130.78 75.0076 131.169C74.6961 131.547 74.5403 132.053 74.5403 132.688V137.294H72.1871V128.682H74.4903L74.5236 129.851C75.0799 128.927 75.9088 128.465 77.0103 128.465ZM90.0468 133.289V133.689H83.805C83.8495 134.334 84.0498 134.841 84.4058 135.208C84.7618 135.575 85.2347 135.759 85.8244 135.759C86.6589 135.759 87.2152 135.386 87.4933 134.64L89.8298 134.807C89.5405 135.72 89.0566 136.415 88.3779 136.893C87.6992 137.361 86.8647 137.594 85.8745 137.594C84.4837 137.594 83.3877 137.16 82.5867 136.293C81.7856 135.425 81.385 134.312 81.385 132.955C81.385 131.653 81.7689 130.579 82.5366 129.734C83.3043 128.888 84.3335 128.465 85.6241 128.465C86.9259 128.465 87.9884 128.899 88.8118 129.767C89.6351 130.646 90.0468 131.82 90.0468 133.289ZM87.6101 132.087C87.5434 131.486 87.3431 131.019 87.0093 130.685C86.6755 130.351 86.2416 130.184 85.7076 130.184C85.1735 130.184 84.734 130.351 84.3891 130.685C84.0442 131.041 83.8439 131.508 83.7883 132.087H87.6101ZM97.9577 136.843C97.279 137.355 96.3499 137.611 95.1705 137.611C93.9912 137.611 93.0788 137.361 92.4335 136.86C91.777 136.359 91.3876 135.647 91.2652 134.724L93.4182 134.64C93.5739 135.53 94.1859 135.975 95.254 135.975C95.7324 135.975 96.1107 135.892 96.3889 135.725C96.667 135.558 96.8061 135.325 96.8061 135.024C96.8061 134.601 96.4278 134.312 95.6712 134.156L93.9689 133.823C92.3 133.489 91.4655 132.649 91.4655 131.302C91.4655 130.435 91.7826 129.745 92.4168 129.233C93.051 128.721 93.9021 128.465 94.9703 128.465C96.005 128.465 96.8562 128.716 97.5237 129.216C98.1913 129.706 98.5807 130.373 98.692 131.219L96.5724 131.302C96.5168 130.924 96.3388 130.629 96.0384 130.418C95.7491 130.207 95.3819 130.101 94.9369 130.101C94.5475 130.101 94.2359 130.184 94.0023 130.351C93.7686 130.518 93.6518 130.741 93.6518 131.019C93.6518 131.453 93.9745 131.742 94.6198 131.887L96.4723 132.27C97.329 132.448 97.9632 132.738 98.3749 133.138C98.7866 133.539 98.9924 134.073 98.9924 134.74C98.9924 135.642 98.6475 136.343 97.9577 136.843Z" fill="black"/>
<rect x="145.436" y="110.757" width="348.688" height="41.0735" rx="14.3051" fill="#EFEFF0"/>
<rect x="145.436" y="110.757" width="348.688" height="41.0735" rx="14.3051" fill="black" fill-opacity="0.05"/>
<path d="M166.407 132.891L169.196 125.109H171.042V135.294H169.826V128.542L169.854 126.711L169.125 128.528L166.693 135.294H165.434L162.802 128.299L162.13 126.697L162.173 128.542V135.294H160.957V125.109H162.831L165.72 132.891L166.064 133.907L166.407 132.891ZM176.85 135.294H175.519V127.913H172.873V126.911H173.259C174.003 126.911 174.566 126.773 174.947 126.497C175.309 126.22 175.572 125.81 175.734 125.266L175.777 125.109H176.85V135.294ZM181.516 129.358H179.9V127.913H181.516V129.358ZM181.516 135.294H179.9V133.849H181.516V135.294ZM195.388 132.047L195.76 135.294H194.416L194.115 132.576C194.049 131.975 193.872 131.546 193.586 131.289C193.309 131.031 192.876 130.903 192.284 130.903H189.137V135.294H187.807V125.109H192.527C193.491 125.109 194.249 125.352 194.802 125.838C195.365 126.315 195.646 126.969 195.646 127.798C195.646 128.447 195.479 128.995 195.145 129.443C194.821 129.892 194.382 130.192 193.829 130.345C194.773 130.535 195.293 131.103 195.388 132.047ZM189.137 129.744H192.07C192.766 129.744 193.309 129.586 193.7 129.272C194.091 128.947 194.287 128.499 194.287 127.927C194.287 127.393 194.115 126.983 193.772 126.697C193.429 126.411 192.937 126.268 192.299 126.268H189.137V129.744ZM204.328 131.432V131.918H198.792C198.811 132.719 199.016 133.334 199.407 133.764C199.798 134.183 200.337 134.393 201.024 134.393C202.044 134.393 202.726 133.902 203.069 132.92L204.271 133.063C204.042 133.826 203.637 134.417 203.055 134.836C202.483 135.256 201.791 135.466 200.981 135.466C199.884 135.466 199.031 135.103 198.42 134.379C197.791 133.663 197.476 132.729 197.476 131.575C197.476 130.421 197.786 129.491 198.406 128.785C199.016 128.089 199.865 127.741 200.952 127.741C201.992 127.741 202.812 128.07 203.413 128.728C204.023 129.386 204.328 130.287 204.328 131.432ZM202.426 129.372C202.054 129 201.567 128.814 200.967 128.814C200.375 128.814 199.884 128.995 199.493 129.358C199.112 129.729 198.883 130.268 198.806 130.974H203.098C203.012 130.287 202.788 129.753 202.426 129.372ZM209.443 128.928L207.755 128.871V133.477C207.755 133.754 207.803 133.945 207.898 134.05C208.003 134.145 208.194 134.193 208.471 134.193H209.429V135.294H208.084C207.512 135.294 207.093 135.165 206.826 134.908C206.568 134.641 206.439 134.221 206.439 133.649V128.871L205.338 128.928V127.913L206.439 127.956V125.653H207.755V127.97L209.443 127.913V128.928ZM214.728 127.727C215.51 127.727 216.12 127.941 216.559 128.371C217.007 128.8 217.231 129.4 217.231 130.173V135.294H215.915V130.43C215.915 129.391 215.424 128.871 214.442 128.871C213.822 128.871 213.317 129.067 212.926 129.458C212.535 129.839 212.339 130.416 212.339 131.189V135.294H211.023V125.109H212.339V128.843C212.873 128.099 213.669 127.727 214.728 127.727ZM220.833 126.525H219.517V125.109H220.833V126.525ZM220.833 135.294H219.517V127.913H220.833V135.294ZM226.826 127.727C227.608 127.727 228.218 127.941 228.657 128.371C229.105 128.8 229.329 129.4 229.329 130.173V135.294H228.013V130.43C228.013 129.391 227.522 128.871 226.54 128.871C225.92 128.871 225.414 129.067 225.023 129.458C224.632 129.839 224.437 130.416 224.437 131.189V135.294H223.121V127.913H224.351V128.957C224.885 128.137 225.71 127.727 226.826 127.727ZM238.066 135.294H236.521L234.003 131.446L232.931 132.419V135.294H231.615V125.109H232.931V131.06L236.192 127.913H237.852L234.905 130.631L238.066 135.294ZM250.569 125.109V126.268H244.933V129.472H249.596V130.631H244.933V135.294H243.602V125.109H250.569ZM257.917 131.432V131.918H252.381C252.4 132.719 252.605 133.334 252.996 133.764C253.387 134.183 253.925 134.393 254.612 134.393C255.633 134.393 256.314 133.902 256.658 132.92L257.859 133.063C257.631 133.826 257.225 134.417 256.643 134.836C256.071 135.256 255.38 135.466 254.569 135.466C253.473 135.466 252.619 135.103 252.009 134.379C251.379 133.663 251.064 132.729 251.064 131.575C251.064 130.421 251.374 129.491 251.994 128.785C252.605 128.089 253.453 127.741 254.541 127.741C255.58 127.741 256.4 128.07 257.001 128.728C257.611 129.386 257.917 130.287 257.917 131.432ZM256.014 129.372C255.642 129 255.156 128.814 254.555 128.814C253.964 128.814 253.473 128.995 253.081 129.358C252.7 129.729 252.471 130.268 252.395 130.974H256.686C256.601 130.287 256.376 129.753 256.014 129.372ZM266.201 131.432V131.918H260.665C260.684 132.719 260.889 133.334 261.28 133.764C261.671 134.183 262.21 134.393 262.896 134.393C263.917 134.393 264.599 133.902 264.942 132.92L266.144 133.063C265.915 133.826 265.509 134.417 264.928 134.836C264.355 135.256 263.664 135.466 262.853 135.466C261.757 135.466 260.903 135.103 260.293 134.379C259.663 133.663 259.349 132.729 259.349 131.575C259.349 130.421 259.659 129.491 260.278 128.785C260.889 128.089 261.738 127.741 262.825 127.741C263.864 127.741 264.684 128.07 265.285 128.728C265.896 129.386 266.201 130.287 266.201 131.432ZM264.298 129.372C263.926 129 263.44 128.814 262.839 128.814C262.248 128.814 261.757 128.995 261.366 129.358C260.984 129.729 260.755 130.268 260.679 130.974H264.971C264.885 130.287 264.661 129.753 264.298 129.372ZM273.054 128.8V125.109H274.37V135.294H273.226V134.121C272.997 134.531 272.673 134.855 272.253 135.094C271.834 135.332 271.366 135.452 270.851 135.452C269.869 135.452 269.087 135.08 268.505 134.336C267.924 133.611 267.633 132.662 267.633 131.489C267.633 130.383 267.928 129.482 268.52 128.785C269.111 128.099 269.879 127.755 270.823 127.755C271.796 127.755 272.539 128.103 273.054 128.8ZM269.492 133.549C269.855 134.064 270.351 134.321 270.98 134.321C271.61 134.321 272.125 134.069 272.525 133.563C272.926 133.058 273.126 132.376 273.126 131.518C273.126 130.678 272.935 130.03 272.554 129.572C272.172 129.114 271.657 128.885 271.009 128.885C270.351 128.885 269.84 129.114 269.478 129.572C269.125 130.02 268.949 130.659 268.949 131.489C268.949 132.357 269.13 133.044 269.492 133.549Z" fill="black"/>
<g filter="url(#filter3_f_96_755)">
<rect x="496.507" y="110.757" width="20.5636" height="41.0735" rx="10.2818" fill="#EFEFF0"/>
<rect x="496.507" y="110.757" width="20.5636" height="41.0735" rx="10.2818" fill="black" fill-opacity="0.05"/>
<path d="M513.645 135.294H512.028V133.849H513.645V135.294Z" fill="black"/>
</g>
<g filter="url(#filter4_f_96_755)">
<rect x="519.455" y="110.757" width="20.5636" height="41.0735" rx="10.2818" fill="#EFEFF0"/>
<rect x="519.455" y="110.757" width="20.5636" height="41.0735" rx="10.2818" fill="black" fill-opacity="0.05"/>
<path d="M536.593 135.294H534.976V133.849H536.593V135.294Z" fill="black"/>
</g>
<g filter="url(#filter5_f_96_755)">
<rect x="542.403" y="110.757" width="20.5636" height="41.0735" rx="10.2818" fill="#EFEFF0"/>
<rect x="542.403" y="110.757" width="20.5636" height="41.0735" rx="10.2818" fill="black" fill-opacity="0.05"/>
<path d="M559.54 135.294H557.924V133.849H559.54V135.294Z" fill="black"/>
</g>
<g filter="url(#filter6_f_96_755)">
<rect x="565.351" y="110.757" width="20.5636" height="41.0735" rx="10.2818" fill="#EFEFF0"/>
<rect x="565.351" y="110.757" width="20.5636" height="41.0735" rx="10.2818" fill="black" fill-opacity="0.05"/>
<path d="M582.488 135.294H580.872V133.849H582.488V135.294Z" fill="black"/>
</g>
<g filter="url(#filter7_f_96_755)">
<rect x="588.298" y="110.757" width="20.5636" height="41.0735" rx="10.2818" fill="#EFEFF0"/>
<rect x="588.298" y="110.757" width="20.5636" height="41.0735" rx="10.2818" fill="black" fill-opacity="0.05"/>
<path d="M605.436 135.294H603.819V133.849H605.436V135.294Z" fill="black"/>
</g>
<g filter="url(#filter8_f_96_755)">
<rect x="611.247" y="110.757" width="20.5636" height="41.0735" rx="10.2818" fill="#EFEFF0"/>
<rect x="611.247" y="110.757" width="20.5636" height="41.0735" rx="10.2818" fill="black" fill-opacity="0.05"/>
<path d="M628.384 135.294H626.768V133.849H628.384V135.294Z" fill="black"/>
</g>
<g filter="url(#filter9_f_96_755)">
<rect x="634.194" y="110.757" width="20.5636" height="41.0735" rx="10.2818" fill="#EFEFF0"/>
<rect x="634.194" y="110.757" width="20.5636" height="41.0735" rx="10.2818" fill="black" fill-opacity="0.05"/>
<path d="M651.332 135.294H649.715V133.849H651.332V135.294Z" fill="black"/>
</g>
<g filter="url(#filter10_f_96_755)">
<rect x="657.142" y="110.757" width="20.5636" height="41.0735" rx="10.2818" fill="#EFEFF0"/>
<rect x="657.142" y="110.757" width="20.5636" height="41.0735" rx="10.2818" fill="black" fill-opacity="0.05"/>
<path d="M674.28 135.294H672.663V133.849H674.28V135.294Z" fill="black"/>
</g>
<rect y="156.599" width="143.051" height="76.0735" rx="14.3051" fill="white"/>
<path d="M24.5524 181.767C23.462 182.936 22.1102 183.52 20.4969 183.52C18.8836 183.52 17.5485 182.936 16.4915 181.767C15.4234 180.61 14.8893 179.08 14.8893 177.178C14.8893 175.309 15.4178 173.801 16.4748 172.655C17.5318 171.531 18.8725 170.969 20.4969 170.969C22.1102 170.969 23.462 171.531 24.5524 172.655C25.6317 173.779 26.1713 175.286 26.1713 177.178C26.1713 179.08 25.6317 180.61 24.5524 181.767ZM18.2105 180.232C18.7668 181 19.5289 181.384 20.4969 181.384C21.4649 181.384 22.2437 181 22.8334 180.232C23.412 179.475 23.7013 178.457 23.7013 177.178C23.7013 175.954 23.412 174.969 22.8334 174.224C22.2549 173.478 21.476 173.106 20.4969 173.106C19.5178 173.106 18.7557 173.478 18.2105 174.224C17.643 174.98 17.3593 175.965 17.3593 177.178C17.3593 178.446 17.643 179.464 18.2105 180.232ZM32.6149 174.307C33.6274 174.307 34.4674 174.713 35.135 175.526C35.8026 176.349 36.1364 177.439 36.1364 178.797C36.1364 180.165 35.7915 181.278 35.1016 182.135C34.4118 182.991 33.5217 183.42 32.4313 183.42C31.4522 183.42 30.679 183.058 30.1115 182.335V186.541H27.7583V174.524H29.8445L29.9279 175.642C30.5176 174.752 31.4133 174.307 32.6149 174.307ZM31.9307 181.35C32.5092 181.35 32.9765 181.117 33.3326 180.649C33.6886 180.182 33.8666 179.564 33.8666 178.797C33.8666 178.029 33.6886 177.417 33.3326 176.961C32.9765 176.494 32.5092 176.26 31.9307 176.26C31.3521 176.26 30.8848 176.494 30.5288 176.961C30.1727 177.417 29.9947 178.029 29.9947 178.797C29.9947 179.564 30.1727 180.182 30.5288 180.649C30.8959 181.117 31.3632 181.35 31.9307 181.35ZM42.5079 174.307C43.5204 174.307 44.3604 174.713 45.028 175.526C45.6956 176.349 46.0294 177.439 46.0294 178.797C46.0294 180.165 45.6844 181.278 44.9946 182.135C44.3048 182.991 43.4147 183.42 42.3243 183.42C41.3452 183.42 40.5719 183.058 40.0045 182.335V186.541H37.6513V174.524H39.7375L39.8209 175.642C40.4106 174.752 41.3063 174.307 42.5079 174.307ZM41.8236 181.35C42.4022 181.35 42.8695 181.117 43.2256 180.649C43.5816 180.182 43.7596 179.564 43.7596 178.797C43.7596 178.029 43.5816 177.417 43.2256 176.961C42.8695 176.494 42.4022 176.26 41.8236 176.26C41.2451 176.26 40.7778 176.494 40.4217 176.961C40.0657 177.417 39.8877 178.029 39.8877 178.797C39.8877 179.564 40.0657 180.182 40.4217 180.649C40.7889 181.117 41.2562 181.35 41.8236 181.35ZM54.6706 182.118C53.8584 182.986 52.8014 183.42 51.4997 183.42C50.1979 183.42 49.1409 182.986 48.3287 182.118C47.5054 181.261 47.0937 180.176 47.0937 178.864C47.0937 177.562 47.5054 176.471 48.3287 175.592C49.152 174.736 50.209 174.307 51.4997 174.307C52.7903 174.307 53.8473 174.736 54.6706 175.592C55.494 176.471 55.9057 177.562 55.9057 178.864C55.9057 180.176 55.494 181.261 54.6706 182.118ZM49.3634 178.864C49.3634 179.698 49.5581 180.36 49.9476 180.85C50.337 181.339 50.8544 181.584 51.4997 181.584C52.1561 181.584 52.6791 181.339 53.0685 180.85C53.4468 180.371 53.6359 179.709 53.6359 178.864C53.6359 178.018 53.4468 177.356 53.0685 176.877C52.6791 176.388 52.1561 176.143 51.4997 176.143C50.8544 176.143 50.337 176.388 49.9476 176.877C49.5581 177.367 49.3634 178.029 49.3634 178.864ZM61.6434 174.224C61.9215 174.224 62.1719 174.263 62.3944 174.341V176.494C62.1051 176.471 61.9438 176.46 61.9104 176.46C60.4863 176.46 59.7742 177.289 59.7742 178.947V183.136H57.421V174.524H59.7241L59.6907 175.676C60.069 174.708 60.7199 174.224 61.6434 174.224ZM68.6062 176.26L67.004 176.21V180.432C67.004 180.722 67.0652 180.933 67.1876 181.067C67.3211 181.189 67.5325 181.25 67.8218 181.25H68.6062V183.136H67.0708C66.203 183.136 65.5799 182.952 65.2016 182.585C64.8344 182.207 64.6509 181.584 64.6509 180.716V176.21L63.4826 176.26V174.524L64.6509 174.558V171.871H67.004V174.574L68.6062 174.524V176.26ZM75.2285 179.131V174.524H77.5817V183.136H75.2786L75.2452 181.968C74.6889 182.891 73.86 183.353 72.7585 183.353C71.8684 183.353 71.173 183.08 70.6723 182.535C70.1828 181.99 69.938 181.245 69.938 180.299V174.524H72.2912V179.765C72.2912 180.232 72.3969 180.594 72.6083 180.85C72.8308 181.105 73.1423 181.233 73.5429 181.233C74.0436 181.233 74.4497 181.044 74.7612 180.666C75.0727 180.277 75.2285 179.765 75.2285 179.131ZM84.4097 174.307C85.2998 174.307 85.9896 174.58 86.4792 175.125C86.9799 175.67 87.2302 176.416 87.2302 177.361V183.136H84.877V177.896C84.877 177.428 84.7657 177.067 84.5432 176.811C84.3318 176.555 84.0259 176.427 83.6253 176.427C83.1246 176.427 82.7185 176.622 82.407 177.011C82.0955 177.389 81.9397 177.896 81.9397 178.53V183.136H79.5865V174.524H81.8896L81.923 175.693C82.4793 174.769 83.3082 174.307 84.4097 174.307ZM91.5882 173.389H89.235V171.253H91.5882V173.389ZM91.5882 183.136H89.235V174.524H91.5882V183.136ZM97.9592 176.26L96.357 176.21V180.432C96.357 180.722 96.4182 180.933 96.5406 181.067C96.6741 181.189 96.8855 181.25 97.1748 181.25H97.9592V183.136H96.4238C95.556 183.136 94.9329 182.952 94.5546 182.585C94.1874 182.207 94.0039 181.584 94.0039 180.716V176.21L92.8356 176.26V174.524L94.0039 174.558V171.871H96.357V174.574L97.9592 174.524V176.26ZM101.644 173.389H99.291V171.253H101.644V173.389ZM101.644 183.136H99.291V174.524H101.644V183.136ZM111.854 179.131V179.531H105.612C105.656 180.176 105.857 180.683 106.213 181.05C106.569 181.417 107.042 181.601 107.631 181.601C108.466 181.601 109.022 181.228 109.3 180.482L111.637 180.649C111.347 181.562 110.863 182.257 110.185 182.735C109.506 183.203 108.672 183.436 107.681 183.436C106.291 183.436 105.195 183.002 104.394 182.135C103.593 181.267 103.192 180.154 103.192 178.797C103.192 177.495 103.576 176.421 104.344 175.576C105.111 174.73 106.14 174.307 107.431 174.307C108.733 174.307 109.795 174.741 110.619 175.609C111.442 176.488 111.854 177.662 111.854 179.131ZM109.417 177.929C109.35 177.328 109.15 176.861 108.816 176.527C108.482 176.193 108.049 176.026 107.515 176.026C106.98 176.026 106.541 176.193 106.196 176.527C105.851 176.883 105.651 177.35 105.595 177.929H109.417ZM119.765 182.685C119.086 183.197 118.157 183.453 116.977 183.453C115.798 183.453 114.886 183.203 114.24 182.702C113.584 182.201 113.195 181.489 113.072 180.566L115.225 180.482C115.381 181.372 115.993 181.818 117.061 181.818C117.539 181.818 117.918 181.734 118.196 181.567C118.474 181.4 118.613 181.167 118.613 180.866C118.613 180.443 118.235 180.154 117.478 179.998L115.776 179.665C114.107 179.331 113.272 178.491 113.272 177.145C113.272 176.277 113.59 175.587 114.224 175.075C114.858 174.563 115.709 174.307 116.777 174.307C117.812 174.307 118.663 174.558 119.331 175.058C119.998 175.548 120.388 176.215 120.499 177.061L118.379 177.145C118.324 176.766 118.146 176.471 117.845 176.26C117.556 176.049 117.189 175.943 116.744 175.943C116.354 175.943 116.043 176.026 115.809 176.193C115.576 176.36 115.459 176.583 115.459 176.861C115.459 177.295 115.781 177.584 116.427 177.729L118.279 178.113C119.136 178.291 119.77 178.58 120.182 178.98C120.593 179.381 120.799 179.915 120.799 180.583C120.799 181.484 120.454 182.185 119.765 182.685Z" fill="black"/>
<rect x="145.436" y="156.599" width="114.64" height="76.0735" rx="14.3051" fill="white"/>
<path d="M164.633 181.351C162.03 181.351 160.642 180.178 160.47 177.832H161.743C161.877 179.453 162.854 180.263 164.676 180.263C165.525 180.263 166.168 180.101 166.607 179.777C167.055 179.453 167.28 178.99 167.28 178.389C167.28 177.903 167.113 177.522 166.779 177.245C166.455 176.959 165.901 176.735 165.119 176.573L163.689 176.272C162.735 176.072 162.02 175.767 161.543 175.357C161.066 174.937 160.828 174.355 160.828 173.611C160.828 172.725 161.143 172.024 161.772 171.509C162.411 170.984 163.303 170.722 164.447 170.722C165.582 170.722 166.478 170.989 167.136 171.523C167.804 172.057 168.176 172.815 168.252 173.797H166.979C166.922 173.149 166.674 172.658 166.235 172.324C165.797 171.981 165.186 171.809 164.404 171.809C163.67 171.809 163.098 171.957 162.688 172.252C162.287 172.548 162.087 172.963 162.087 173.497C162.087 173.907 162.225 174.236 162.502 174.484C162.778 174.723 163.231 174.908 163.861 175.042L165.649 175.428C167.594 175.838 168.567 176.802 168.567 178.318C168.567 179.243 168.228 179.982 167.551 180.535C166.884 181.079 165.911 181.351 164.633 181.351ZM175.333 177.86V173.755H176.649V181.136H175.419V180.092C174.885 180.912 174.06 181.322 172.944 181.322C172.162 181.322 171.547 181.107 171.099 180.678C170.66 180.249 170.441 179.648 170.441 178.876V173.755H171.757V178.618C171.757 179.658 172.248 180.178 173.23 180.178C173.85 180.178 174.355 179.987 174.746 179.605C175.137 179.214 175.333 178.633 175.333 177.86ZM182.568 173.554C182.711 173.554 182.801 173.559 182.839 173.569V174.856C182.773 174.846 182.615 174.842 182.367 174.842C181.833 174.842 181.357 175.042 180.937 175.443C180.508 175.843 180.279 176.396 180.25 177.102V181.136H178.934V173.755H180.164V175.242C180.679 174.117 181.481 173.554 182.568 173.554ZM188.393 172.052H187.635C187.282 172.052 187.039 172.119 186.905 172.252C186.772 172.386 186.705 172.629 186.705 172.982V173.812L188.393 173.755V174.77L186.705 174.713V181.136H185.389V174.713L184.201 174.77V173.755L185.389 173.797V173.168C185.389 172.396 185.565 171.833 185.918 171.48C186.271 171.127 186.834 170.951 187.606 170.951H188.393V172.052ZM196.27 180.163H196.484V181.136H195.783C194.992 181.136 194.567 180.774 194.51 180.049C194.253 180.44 193.89 180.75 193.423 180.979C192.956 181.208 192.426 181.322 191.835 181.322C191.063 181.322 190.457 181.136 190.018 180.764C189.58 180.383 189.36 179.853 189.36 179.176C189.36 177.86 190.2 177.092 191.878 176.873L193.766 176.63C194.119 176.592 194.296 176.406 194.296 176.072V175.757C194.296 174.994 193.742 174.613 192.636 174.613C192.083 174.613 191.673 174.713 191.406 174.913C191.148 175.114 191.001 175.452 190.962 175.929H189.661C189.785 174.327 190.81 173.526 192.736 173.526C194.663 173.526 195.626 174.312 195.626 175.886V179.52C195.626 179.758 195.674 179.925 195.769 180.02C195.864 180.116 196.031 180.163 196.27 180.163ZM192.078 180.306C192.679 180.306 193.199 180.13 193.638 179.777C194.076 179.424 194.296 179.014 194.296 178.547V177.517L192.093 177.846C191.139 177.989 190.662 178.413 190.662 179.119C190.662 179.491 190.786 179.782 191.034 179.992C191.291 180.201 191.64 180.306 192.078 180.306ZM200.909 181.322C199.85 181.322 199.016 180.988 198.406 180.321C197.795 179.653 197.49 178.714 197.49 177.502C197.49 176.272 197.8 175.309 198.42 174.613C199.04 173.917 199.893 173.569 200.981 173.569C201.848 173.569 202.554 173.797 203.098 174.255C203.641 174.703 203.975 175.342 204.099 176.172H202.854C202.654 175.171 202.034 174.67 200.995 174.67C199.536 174.67 198.806 175.595 198.806 177.445C198.806 178.323 198.992 179.005 199.364 179.491C199.746 179.977 200.284 180.22 200.981 180.22C202.02 180.22 202.649 179.667 202.869 178.561H204.099C203.966 179.448 203.627 180.13 203.083 180.607C202.54 181.084 201.815 181.322 200.909 181.322ZM212.305 177.274V177.76H206.769C206.788 178.561 206.993 179.176 207.384 179.605C207.775 180.025 208.314 180.235 209.001 180.235C210.021 180.235 210.703 179.744 211.046 178.761L212.248 178.904C212.019 179.667 211.614 180.259 211.032 180.678C210.46 181.098 209.768 181.308 208.958 181.308C207.861 181.308 207.007 180.945 206.397 180.22C205.768 179.505 205.453 178.571 205.453 177.417C205.453 176.263 205.763 175.333 206.383 174.627C206.993 173.931 207.842 173.583 208.929 173.583C209.969 173.583 210.789 173.912 211.39 174.57C212 175.228 212.305 176.129 212.305 177.274ZM210.402 175.214C210.031 174.842 209.544 174.656 208.943 174.656C208.352 174.656 207.861 174.837 207.47 175.199C207.088 175.571 206.86 176.11 206.783 176.816H211.075C210.989 176.129 210.765 175.595 210.402 175.214ZM163.875 200.322C162.816 200.322 161.982 199.988 161.372 199.321C160.761 198.653 160.456 197.714 160.456 196.502C160.456 195.272 160.766 194.309 161.386 193.613C162.006 192.917 162.859 192.569 163.946 192.569C164.814 192.569 165.52 192.797 166.064 193.255C166.607 193.703 166.941 194.342 167.065 195.172H165.82C165.62 194.171 165 193.67 163.961 193.67C162.502 193.67 161.772 194.595 161.772 196.445C161.772 197.323 161.958 198.005 162.33 198.491C162.711 198.977 163.25 199.22 163.946 199.22C164.986 199.22 165.615 198.667 165.835 197.561H167.065C166.931 198.448 166.593 199.13 166.049 199.607C165.506 200.084 164.781 200.322 163.875 200.322ZM171.966 200.322C170.898 200.322 170.045 199.964 169.406 199.249C168.748 198.534 168.419 197.599 168.419 196.445C168.419 195.263 168.753 194.323 169.42 193.627C170.078 192.921 170.941 192.569 172.009 192.569C173.049 192.569 173.898 192.912 174.556 193.599C175.204 194.304 175.528 195.234 175.528 196.388C175.528 197.552 175.195 198.496 174.527 199.22C173.85 199.955 172.996 200.322 171.966 200.322ZM171.966 199.22C172.663 199.22 173.211 198.963 173.612 198.448C174.012 197.933 174.212 197.246 174.212 196.388C174.212 195.549 174.012 194.886 173.612 194.4C173.221 193.913 172.672 193.67 171.966 193.67C171.27 193.67 170.722 193.918 170.321 194.414C169.93 194.91 169.735 195.587 169.735 196.445C169.735 197.284 169.935 197.957 170.336 198.462C170.736 198.968 171.28 199.22 171.966 199.22ZM181.089 192.569C181.871 192.569 182.481 192.783 182.92 193.212C183.368 193.641 183.592 194.242 183.592 195.015V200.136H182.276V195.272C182.276 194.233 181.785 193.713 180.802 193.713C180.183 193.713 179.677 193.908 179.286 194.299C178.895 194.681 178.7 195.258 178.7 196.03V200.136H177.384V192.755H178.614V193.799C179.148 192.979 179.973 192.569 181.089 192.569ZM189.411 193.77L187.723 193.713V198.319C187.723 198.596 187.77 198.787 187.866 198.891C187.971 198.987 188.161 199.034 188.438 199.034H189.396V200.136H188.052C187.479 200.136 187.06 200.007 186.793 199.75C186.535 199.483 186.406 199.063 186.406 198.491V193.713L185.305 193.77V192.755L186.406 192.797V190.494H187.723V192.812L189.411 192.755V193.77ZM192.306 191.367H190.99V189.951H192.306V191.367ZM192.306 200.136H190.99V192.755H192.306V200.136ZM198.299 192.569C199.081 192.569 199.692 192.783 200.13 193.212C200.579 193.641 200.803 194.242 200.803 195.015V200.136H199.487V195.272C199.487 194.233 198.996 193.713 198.013 193.713C197.393 193.713 196.888 193.908 196.497 194.299C196.106 194.681 195.91 195.258 195.91 196.03V200.136H194.594V192.755H195.825V193.799C196.359 192.979 197.184 192.569 198.299 192.569ZM207.98 196.86V192.755H209.296V200.136H208.066V199.092C207.532 199.912 206.707 200.322 205.591 200.322C204.809 200.322 204.194 200.107 203.746 199.678C203.307 199.249 203.088 198.648 203.088 197.876V192.755H204.404V197.618C204.404 198.658 204.895 199.178 205.878 199.178C206.497 199.178 207.003 198.987 207.394 198.605C207.785 198.214 207.98 197.633 207.98 196.86ZM212.898 191.367H211.582V189.951H212.898V191.367ZM212.898 200.136H211.582V192.755H212.898V200.136ZM218.719 193.77L217.031 193.713V198.319C217.031 198.596 217.079 198.787 217.174 198.891C217.279 198.987 217.47 199.034 217.747 199.034H218.705V200.136H217.36C216.788 200.136 216.369 200.007 216.101 199.75C215.844 199.483 215.715 199.063 215.715 198.491V193.713L214.614 193.77V192.755L215.715 192.797V190.494H217.031V192.812L218.719 192.755V193.77ZM223.017 198.734L225.148 192.755H226.507L223.074 201.581C222.855 202.134 222.593 202.515 222.287 202.725C221.992 202.945 221.577 203.054 221.043 203.054H220.227V201.953H220.914C221.248 201.953 221.496 201.886 221.658 201.752C221.83 201.619 221.992 201.357 222.144 200.966L222.488 200.064L219.512 192.755H220.943L222.86 197.847L223.017 198.734ZM165.878 212.641V208.951H167.194V219.136H166.049V217.963C165.82 218.373 165.496 218.697 165.077 218.936C164.657 219.174 164.19 219.293 163.675 219.293C162.692 219.293 161.91 218.921 161.329 218.178C160.747 217.453 160.456 216.504 160.456 215.331C160.456 214.225 160.752 213.323 161.343 212.627C161.934 211.941 162.702 211.597 163.646 211.597C164.619 211.597 165.363 211.945 165.878 212.641ZM162.316 217.391C162.678 217.906 163.174 218.163 163.803 218.163C164.433 218.163 164.948 217.911 165.348 217.405C165.749 216.9 165.949 216.218 165.949 215.359C165.949 214.52 165.758 213.872 165.377 213.414C164.995 212.956 164.48 212.727 163.832 212.727C163.174 212.727 162.664 212.956 162.301 213.414C161.948 213.862 161.772 214.501 161.772 215.331C161.772 216.199 161.953 216.885 162.316 217.391ZM173.11 211.554C173.253 211.554 173.344 211.559 173.382 211.569V212.856C173.315 212.846 173.158 212.842 172.91 212.842C172.376 212.842 171.899 213.042 171.479 213.443C171.05 213.843 170.821 214.396 170.793 215.102V219.136H169.477V211.755H170.707V213.242C171.222 212.117 172.023 211.554 173.11 211.554ZM176.059 210.367H174.743V208.951H176.059V210.367ZM176.059 219.136H174.743V211.755H176.059V219.136ZM181.666 216.017L183.068 211.755H184.399L181.695 219.136H180.393L177.561 211.755H178.977L180.45 216.017L181.065 218.006L181.666 216.017ZM192.049 215.274V215.76H186.513C186.532 216.561 186.737 217.176 187.128 217.605C187.519 218.025 188.058 218.235 188.744 218.235C189.765 218.235 190.447 217.744 190.79 216.761L191.992 216.904C191.763 217.667 191.357 218.259 190.776 218.678C190.203 219.098 189.512 219.308 188.701 219.308C187.605 219.308 186.751 218.945 186.141 218.22C185.511 217.505 185.197 216.571 185.197 215.417C185.197 214.263 185.507 213.333 186.126 212.627C186.737 211.931 187.586 211.583 188.673 211.583C189.712 211.583 190.532 211.912 191.133 212.57C191.744 213.228 192.049 214.129 192.049 215.274ZM190.146 213.214C189.774 212.842 189.288 212.656 188.687 212.656C188.096 212.656 187.605 212.837 187.214 213.199C186.832 213.571 186.603 214.11 186.527 214.816H190.819C190.733 214.129 190.509 213.595 190.146 213.214ZM197.543 211.554C197.686 211.554 197.777 211.559 197.815 211.569V212.856C197.748 212.846 197.591 212.842 197.343 212.842C196.809 212.842 196.332 213.042 195.913 213.443C195.483 213.843 195.255 214.396 195.226 215.102V219.136H193.91V211.755H195.14V213.242C195.655 212.117 196.456 211.554 197.543 211.554ZM201.68 219.322C199.801 219.322 198.776 218.483 198.604 216.804H199.863C199.93 217.31 200.116 217.682 200.421 217.92C200.726 218.149 201.165 218.263 201.737 218.263C202.309 218.263 202.743 218.163 203.039 217.963C203.344 217.763 203.497 217.477 203.497 217.105C203.497 216.552 203.11 216.194 202.338 216.032L200.85 215.717C199.486 215.431 198.805 214.763 198.805 213.714C198.805 213.047 199.043 212.527 199.52 212.155C199.997 211.774 200.674 211.583 201.551 211.583C202.419 211.583 203.11 211.778 203.625 212.169C204.15 212.56 204.46 213.137 204.555 213.9H203.253C203.11 213.052 202.529 212.627 201.508 212.627C200.516 212.627 200.021 212.951 200.021 213.6C200.021 213.857 200.106 214.067 200.278 214.229C200.459 214.382 200.755 214.501 201.165 214.587L202.595 214.902C203.339 215.073 203.883 215.331 204.226 215.674C204.579 216.008 204.756 216.447 204.756 216.99C204.756 217.715 204.484 218.287 203.94 218.707C203.397 219.117 202.643 219.322 201.68 219.322Z" fill="black"/>
<rect x="262.459" y="156.599" width="114.64" height="76.0735" rx="14.3051" fill="white"/>
<path d="M277.981 170.95H281.657C283.107 170.95 284.213 171.394 284.976 172.281C285.748 173.168 286.135 174.422 286.135 176.043C286.135 177.645 285.729 178.895 284.919 179.791C284.108 180.688 282.925 181.136 281.371 181.136H277.981V170.95ZM279.311 179.977H281.314C282.487 179.977 283.355 179.653 283.917 179.004C284.489 178.356 284.776 177.369 284.776 176.043C284.776 174.708 284.494 173.721 283.932 173.082C283.378 172.433 282.53 172.109 281.385 172.109H279.311V179.977ZM289.423 172.367H288.107V170.95H289.423V172.367ZM289.423 181.136H288.107V173.754H289.423V181.136ZM294.215 181.322C292.336 181.322 291.311 180.482 291.139 178.804H292.398C292.465 179.309 292.651 179.681 292.956 179.92C293.261 180.149 293.7 180.263 294.272 180.263C294.844 180.263 295.278 180.163 295.574 179.963C295.879 179.762 296.031 179.476 296.031 179.104C296.031 178.551 295.645 178.194 294.873 178.032L293.385 177.717C292.021 177.431 291.339 176.763 291.339 175.714C291.339 175.047 291.578 174.527 292.055 174.155C292.531 173.773 293.209 173.583 294.086 173.583C294.954 173.583 295.645 173.778 296.16 174.169C296.685 174.56 296.995 175.137 297.09 175.9H295.788C295.645 175.051 295.063 174.627 294.043 174.627C293.051 174.627 292.555 174.951 292.555 175.6C292.555 175.857 292.641 176.067 292.813 176.229C292.994 176.382 293.29 176.501 293.7 176.587L295.13 176.901C295.874 177.073 296.418 177.331 296.761 177.674C297.114 178.008 297.29 178.446 297.29 178.99C297.29 179.715 297.018 180.287 296.475 180.707C295.931 181.117 295.178 181.322 294.215 181.322ZM301.923 181.322C300.865 181.322 300.03 180.988 299.42 180.32C298.81 179.653 298.505 178.713 298.505 177.502C298.505 176.272 298.814 175.309 299.434 174.613C300.054 173.916 300.908 173.568 301.995 173.568C302.863 173.568 303.569 173.797 304.112 174.255C304.656 174.703 304.99 175.342 305.114 176.172H303.869C303.669 175.171 303.049 174.67 302.009 174.67C300.55 174.67 299.821 175.595 299.821 177.445C299.821 178.322 300.007 179.004 300.379 179.491C300.76 179.977 301.299 180.22 301.995 180.22C303.034 180.22 303.664 179.667 303.883 178.561H305.114C304.98 179.448 304.641 180.13 304.098 180.606C303.554 181.083 302.829 181.322 301.923 181.322ZM310.015 181.322C308.947 181.322 308.093 180.964 307.454 180.249C306.796 179.534 306.467 178.599 306.467 177.445C306.467 176.262 306.801 175.323 307.469 174.627C308.127 173.921 308.99 173.568 310.058 173.568C311.097 173.568 311.946 173.912 312.604 174.598C313.253 175.304 313.577 176.234 313.577 177.388C313.577 178.551 313.243 179.495 312.576 180.22C311.899 180.955 311.045 181.322 310.015 181.322ZM310.015 180.22C310.711 180.22 311.26 179.963 311.66 179.448C312.061 178.933 312.261 178.246 312.261 177.388C312.261 176.549 312.061 175.886 311.66 175.399C311.269 174.913 310.721 174.67 310.015 174.67C309.319 174.67 308.77 174.918 308.37 175.414C307.979 175.91 307.783 176.587 307.783 177.445C307.783 178.284 307.984 178.957 308.384 179.462C308.785 179.967 309.328 180.22 310.015 180.22ZM318.471 178.017L319.873 173.754H321.204L318.5 181.136H317.198L314.366 173.754H315.782L317.256 178.017L317.871 180.006L318.471 178.017ZM328.854 177.273V177.76H323.318C323.337 178.561 323.542 179.176 323.933 179.605C324.324 180.025 324.863 180.235 325.55 180.235C326.57 180.235 327.252 179.743 327.595 178.761L328.797 178.904C328.568 179.667 328.163 180.258 327.581 180.678C327.009 181.098 326.317 181.307 325.507 181.307C324.41 181.307 323.556 180.945 322.946 180.22C322.317 179.505 322.002 178.57 322.002 177.416C322.002 176.262 322.312 175.333 322.932 174.627C323.542 173.931 324.391 173.583 325.478 173.583C326.517 173.583 327.338 173.912 327.938 174.57C328.549 175.228 328.854 176.129 328.854 177.273ZM326.951 175.213C326.579 174.841 326.093 174.656 325.492 174.656C324.901 174.656 324.41 174.837 324.019 175.199C323.637 175.571 323.409 176.11 323.332 176.816H327.624C327.538 176.129 327.314 175.595 326.951 175.213ZM334.349 173.554C334.492 173.554 334.582 173.559 334.62 173.568V174.856C334.554 174.846 334.396 174.841 334.148 174.841C333.614 174.841 333.137 175.042 332.718 175.442C332.289 175.843 332.06 176.396 332.031 177.102V181.136H330.715V173.754H331.945V175.242C332.46 174.117 333.261 173.554 334.349 173.554ZM281.528 191.052H280.77C280.417 191.052 280.174 191.119 280.041 191.252C279.907 191.386 279.84 191.629 279.84 191.982V192.812L281.528 192.754V193.77L279.84 193.713V200.136H278.524V193.713L277.337 193.77V192.754L278.524 192.797V192.168C278.524 191.395 278.701 190.833 279.053 190.48C279.406 190.127 279.969 189.95 280.741 189.95H281.528V191.052ZM286.67 192.554C286.813 192.554 286.903 192.559 286.941 192.568V193.856C286.875 193.846 286.717 193.841 286.469 193.841C285.935 193.841 285.458 194.042 285.039 194.442C284.61 194.843 284.381 195.396 284.352 196.102V200.136H283.036V192.754H284.266V194.242C284.781 193.117 285.582 192.554 286.67 192.554ZM294.726 196.273V196.76H289.19C289.209 197.561 289.414 198.176 289.805 198.605C290.196 199.025 290.735 199.235 291.421 199.235C292.442 199.235 293.123 198.743 293.467 197.761L294.668 197.904C294.44 198.667 294.034 199.258 293.452 199.678C292.88 200.098 292.189 200.307 291.378 200.307C290.282 200.307 289.428 199.945 288.818 199.22C288.188 198.505 287.873 197.57 287.873 196.416C287.873 195.262 288.183 194.333 288.803 193.627C289.414 192.931 290.262 192.583 291.35 192.583C292.389 192.583 293.209 192.912 293.81 193.57C294.42 194.228 294.726 195.129 294.726 196.273ZM292.823 194.213C292.451 193.841 291.965 193.656 291.364 193.656C290.773 193.656 290.282 193.837 289.891 194.199C289.509 194.571 289.28 195.11 289.204 195.816H293.495C293.41 195.129 293.185 194.595 292.823 194.213ZM299.09 200.322C297.211 200.322 296.186 199.482 296.015 197.804H297.273C297.34 198.309 297.526 198.681 297.831 198.92C298.136 199.149 298.575 199.263 299.147 199.263C299.72 199.263 300.154 199.163 300.449 198.963C300.754 198.762 300.907 198.476 300.907 198.104C300.907 197.551 300.521 197.194 299.748 197.032L298.26 196.717C296.897 196.431 296.215 195.763 296.215 194.714C296.215 194.047 296.453 193.527 296.93 193.155C297.407 192.773 298.084 192.583 298.961 192.583C299.829 192.583 300.521 192.778 301.036 193.169C301.56 193.56 301.87 194.137 301.965 194.9H300.664C300.521 194.051 299.939 193.627 298.918 193.627C297.927 193.627 297.431 193.951 297.431 194.6C297.431 194.857 297.517 195.067 297.688 195.229C297.869 195.382 298.165 195.501 298.575 195.587L300.006 195.901C300.75 196.073 301.293 196.331 301.636 196.674C301.989 197.008 302.166 197.446 302.166 197.99C302.166 198.715 301.894 199.287 301.35 199.707C300.807 200.117 300.053 200.322 299.09 200.322ZM307.514 192.568C308.296 192.568 308.907 192.783 309.345 193.212C309.793 193.641 310.018 194.242 310.018 195.015V200.136H308.702V195.272C308.702 194.232 308.21 193.713 307.228 193.713C306.608 193.713 306.103 193.908 305.712 194.299C305.321 194.681 305.125 195.258 305.125 196.03V200.136H303.809V189.95H305.125V193.684C305.659 192.94 306.456 192.568 307.514 192.568ZM316.008 192.568C316.79 192.568 317.4 192.783 317.839 193.212C318.287 193.641 318.511 194.242 318.511 195.015V200.136H317.195V195.272C317.195 194.232 316.704 193.713 315.722 193.713C315.102 193.713 314.596 193.908 314.205 194.299C313.814 194.681 313.619 195.258 313.619 196.03V200.136H312.303V192.754H313.533V193.799C314.067 192.978 314.892 192.568 316.008 192.568ZM327.22 196.273V196.76H321.683C321.703 197.561 321.908 198.176 322.299 198.605C322.69 199.025 323.228 199.235 323.915 199.235C324.935 199.235 325.617 198.743 325.961 197.761L327.162 197.904C326.933 198.667 326.528 199.258 325.946 199.678C325.374 200.098 324.683 200.307 323.872 200.307C322.775 200.307 321.922 199.945 321.312 199.22C320.682 198.505 320.367 197.57 320.367 196.416C320.367 195.262 320.677 194.333 321.297 193.627C321.908 192.931 322.756 192.583 323.844 192.583C324.883 192.583 325.703 192.912 326.304 193.57C326.914 194.228 327.22 195.129 327.22 196.273ZM325.317 194.213C324.945 193.841 324.459 193.656 323.858 193.656C323.267 193.656 322.775 193.837 322.384 194.199C322.003 194.571 321.774 195.11 321.698 195.816H325.989C325.903 195.129 325.679 194.595 325.317 194.213ZM331.584 200.322C329.705 200.322 328.68 199.482 328.508 197.804H329.767C329.834 198.309 330.02 198.681 330.325 198.92C330.63 199.149 331.069 199.263 331.641 199.263C332.213 199.263 332.647 199.163 332.943 198.963C333.248 198.762 333.401 198.476 333.401 198.104C333.401 197.551 333.015 197.194 332.242 197.032L330.754 196.717C329.391 196.431 328.709 195.763 328.709 194.714C328.709 194.047 328.947 193.527 329.424 193.155C329.901 192.773 330.578 192.583 331.455 192.583C332.323 192.583 333.015 192.778 333.53 193.169C334.054 193.56 334.364 194.137 334.459 194.9H333.158C333.015 194.051 332.433 193.627 331.412 193.627C330.421 193.627 329.925 193.951 329.925 194.6C329.925 194.857 330.01 195.067 330.182 195.229C330.363 195.382 330.659 195.501 331.069 195.587L332.5 195.901C333.243 196.073 333.787 196.331 334.13 196.674C334.483 197.008 334.66 197.446 334.66 197.99C334.66 198.715 334.388 199.287 333.844 199.707C333.301 200.117 332.547 200.322 331.584 200.322ZM338.806 200.322C336.928 200.322 335.903 199.482 335.731 197.804H336.99C337.056 198.309 337.242 198.681 337.548 198.92C337.853 199.149 338.291 199.263 338.864 199.263C339.436 199.263 339.87 199.163 340.165 198.963C340.471 198.762 340.623 198.476 340.623 198.104C340.623 197.551 340.237 197.194 339.464 197.032L337.977 196.717C336.613 196.431 335.931 195.763 335.931 194.714C335.931 194.047 336.17 193.527 336.646 193.155C337.123 192.773 337.8 192.583 338.678 192.583C339.546 192.583 340.237 192.778 340.752 193.169C341.276 193.56 341.586 194.137 341.682 194.9H340.38C340.237 194.051 339.655 193.627 338.635 193.627C337.643 193.627 337.147 193.951 337.147 194.6C337.147 194.857 337.233 195.067 337.405 195.229C337.586 195.382 337.881 195.501 338.291 195.587L339.722 195.901C340.466 196.073 341.009 196.331 341.353 196.674C341.706 197.008 341.882 197.446 341.882 197.99C341.882 198.715 341.61 199.287 341.067 199.707C340.523 200.117 339.77 200.322 338.806 200.322Z" fill="black"/>
<rect x="379.483" y="156.599" width="114.64" height="76.0735" rx="14.3051" fill="white"/>
<path d="M402.586 177.889L402.958 181.136H401.613L401.313 178.418C401.246 177.817 401.07 177.388 400.784 177.131C400.507 176.873 400.073 176.744 399.482 176.744H396.335V181.136H395.005V170.951H399.725C400.688 170.951 401.447 171.194 402 171.68C402.562 172.157 402.844 172.81 402.844 173.64C402.844 174.289 402.677 174.837 402.343 175.285C402.019 175.733 401.58 176.034 401.027 176.186C401.971 176.377 402.491 176.945 402.586 177.889ZM396.335 175.586H399.267C399.964 175.586 400.507 175.428 400.898 175.114C401.289 174.789 401.485 174.341 401.485 173.769C401.485 173.235 401.313 172.825 400.97 172.539C400.626 172.252 400.135 172.109 399.496 172.109H396.335V175.586ZM411.526 177.274V177.76H405.99C406.009 178.561 406.214 179.176 406.605 179.605C406.996 180.025 407.535 180.235 408.222 180.235C409.242 180.235 409.924 179.744 410.267 178.761L411.469 178.904C411.24 179.667 410.835 180.259 410.253 180.678C409.681 181.098 408.989 181.308 408.179 181.308C407.082 181.308 406.228 180.945 405.618 180.22C404.989 179.505 404.674 178.571 404.674 177.417C404.674 176.263 404.984 175.333 405.604 174.627C406.214 173.931 407.063 173.583 408.15 173.583C409.19 173.583 410.01 173.912 410.611 174.57C411.221 175.228 411.526 176.129 411.526 177.274ZM409.623 175.214C409.252 174.842 408.765 174.656 408.164 174.656C407.573 174.656 407.082 174.837 406.691 175.199C406.309 175.571 406.081 176.11 406.004 176.816H410.296C410.21 176.129 409.986 175.595 409.623 175.214ZM418.38 174.641V170.951H419.696V181.136H418.551V179.963C418.322 180.373 417.998 180.697 417.579 180.936C417.159 181.174 416.692 181.293 416.177 181.293C415.194 181.293 414.412 180.921 413.831 180.178C413.249 179.453 412.958 178.504 412.958 177.331C412.958 176.225 413.254 175.323 413.845 174.627C414.436 173.941 415.204 173.597 416.148 173.597C417.121 173.597 417.865 173.945 418.38 174.641ZM414.818 179.391C415.18 179.906 415.676 180.163 416.305 180.163C416.935 180.163 417.45 179.911 417.85 179.405C418.251 178.9 418.451 178.218 418.451 177.359C418.451 176.52 418.26 175.872 417.879 175.414C417.498 174.956 416.983 174.727 416.334 174.727C415.676 174.727 415.166 174.956 414.803 175.414C414.451 175.862 414.274 176.501 414.274 177.331C414.274 178.199 414.455 178.885 414.818 179.391ZM426.871 177.86V173.755H428.187V181.136H426.957V180.092C426.423 180.912 425.598 181.322 424.482 181.322C423.7 181.322 423.085 181.107 422.637 180.678C422.198 180.249 421.979 179.648 421.979 178.876V173.755H423.295V178.618C423.295 179.658 423.786 180.178 424.768 180.178C425.388 180.178 425.893 179.987 426.284 179.605C426.675 179.214 426.871 178.633 426.871 177.86ZM433.462 181.322C432.403 181.322 431.569 180.988 430.959 180.321C430.348 179.653 430.043 178.714 430.043 177.502C430.043 176.272 430.353 175.309 430.973 174.613C431.593 173.917 432.446 173.569 433.534 173.569C434.401 173.569 435.107 173.797 435.651 174.255C436.194 174.703 436.528 175.342 436.652 176.172H435.408C435.207 175.171 434.587 174.67 433.548 174.67C432.089 174.67 431.359 175.595 431.359 177.445C431.359 178.323 431.545 179.005 431.917 179.491C432.299 179.977 432.837 180.22 433.534 180.22C434.573 180.22 435.203 179.667 435.422 178.561H436.652C436.519 179.448 436.18 180.13 435.636 180.607C435.093 181.084 434.368 181.322 433.462 181.322ZM444.858 177.274V177.76H439.322C439.341 178.561 439.546 179.176 439.937 179.605C440.328 180.025 440.867 180.235 441.554 180.235C442.574 180.235 443.256 179.744 443.599 178.761L444.801 178.904C444.572 179.667 444.167 180.259 443.585 180.678C443.013 181.098 442.321 181.308 441.511 181.308C440.414 181.308 439.56 180.945 438.95 180.22C438.321 179.505 438.006 178.571 438.006 177.417C438.006 176.263 438.316 175.333 438.936 174.627C439.546 173.931 440.395 173.583 441.482 173.583C442.522 173.583 443.342 173.912 443.943 174.57C444.553 175.228 444.858 176.129 444.858 177.274ZM442.956 175.214C442.584 174.842 442.097 174.656 441.496 174.656C440.905 174.656 440.414 174.837 440.023 175.199C439.642 175.571 439.413 176.11 439.336 176.816H443.628C443.542 176.129 443.318 175.595 442.956 175.214ZM397.923 200.322C396.864 200.322 396.03 199.988 395.419 199.321C394.809 198.653 394.504 197.714 394.504 196.502C394.504 195.272 394.814 194.309 395.434 193.613C396.054 192.917 396.907 192.569 397.994 192.569C398.862 192.569 399.568 192.797 400.111 193.255C400.655 193.703 400.989 194.342 401.113 195.172H399.868C399.668 194.171 399.048 193.67 398.009 193.67C396.549 193.67 395.82 194.595 395.82 196.445C395.82 197.323 396.006 198.005 396.378 198.491C396.759 198.977 397.298 199.22 397.994 199.22C399.034 199.22 399.663 198.667 399.883 197.561H401.113C400.979 198.448 400.641 199.13 400.097 199.607C399.554 200.084 398.829 200.322 397.923 200.322ZM409.405 199.163H409.619V200.136H408.918C408.127 200.136 407.702 199.774 407.645 199.049C407.388 199.44 407.025 199.75 406.558 199.979C406.091 200.208 405.561 200.322 404.97 200.322C404.198 200.322 403.592 200.136 403.153 199.764C402.715 199.383 402.495 198.853 402.495 198.176C402.495 196.86 403.334 196.092 405.013 195.873L406.901 195.63C407.254 195.592 407.431 195.406 407.431 195.072V194.757C407.431 193.994 406.877 193.613 405.771 193.613C405.218 193.613 404.808 193.713 404.541 193.913C404.283 194.114 404.136 194.452 404.097 194.929H402.796C402.92 193.327 403.945 192.526 405.871 192.526C407.798 192.526 408.761 193.312 408.761 194.886V198.52C408.761 198.758 408.809 198.925 408.904 199.02C408.999 199.116 409.166 199.163 409.405 199.163ZM405.213 199.306C405.814 199.306 406.334 199.13 406.772 198.777C407.211 198.424 407.431 198.014 407.431 197.547V196.517L405.228 196.846C404.274 196.989 403.797 197.413 403.797 198.119C403.797 198.491 403.921 198.782 404.169 198.992C404.426 199.201 404.775 199.306 405.213 199.306ZM418.893 192.569C420.4 192.569 421.154 193.403 421.154 195.072V200.136H419.838V195.086C419.838 194.657 419.728 194.323 419.509 194.085C419.289 193.837 418.974 193.713 418.564 193.713C418.021 193.713 417.582 193.913 417.248 194.314C416.924 194.705 416.762 195.31 416.762 196.131V200.136H415.446V195.086C415.446 194.657 415.331 194.323 415.103 194.085C414.883 193.837 414.573 193.713 414.173 193.713C413.639 193.713 413.205 193.923 412.871 194.342C412.537 194.752 412.37 195.372 412.37 196.202V200.136H411.054V192.755H412.313L412.256 193.842C412.761 192.993 413.51 192.569 414.502 192.569C415.541 192.569 416.223 192.998 416.547 193.856C417.034 192.998 417.816 192.569 418.893 192.569ZM427.007 192.597C427.961 192.597 428.729 192.931 429.311 193.599C429.892 194.266 430.183 195.158 430.183 196.274C430.183 197.447 429.892 198.41 429.311 199.163C428.729 199.917 427.942 200.293 426.95 200.293C426.025 200.293 425.296 199.94 424.762 199.235V203.054H423.445V192.755H424.59V193.942C424.819 193.532 425.143 193.208 425.563 192.969C425.992 192.721 426.473 192.597 427.007 192.597ZM425.291 198.405C425.682 198.911 426.192 199.163 426.821 199.163C427.451 199.163 427.952 198.896 428.324 198.362C428.686 197.828 428.867 197.132 428.867 196.274C428.867 195.453 428.691 194.824 428.338 194.385C427.985 193.947 427.48 193.727 426.821 193.727C426.173 193.727 425.653 193.956 425.262 194.414C424.881 194.872 424.69 195.52 424.69 196.359C424.69 197.218 424.89 197.9 425.291 198.405ZM438.546 199.163H438.76V200.136H438.059C437.268 200.136 436.843 199.774 436.786 199.049C436.529 199.44 436.166 199.75 435.699 199.979C435.232 200.208 434.702 200.322 434.111 200.322C433.339 200.322 432.733 200.136 432.294 199.764C431.856 199.383 431.636 198.853 431.636 198.176C431.636 196.86 432.476 196.092 434.154 195.873L436.042 195.63C436.395 195.592 436.572 195.406 436.572 195.072V194.757C436.572 193.994 436.019 193.613 434.912 193.613C434.359 193.613 433.949 193.713 433.682 193.913C433.425 194.114 433.277 194.452 433.239 194.929H431.937C432.061 193.327 433.086 192.526 435.012 192.526C436.939 192.526 437.902 193.312 437.902 194.886V198.52C437.902 198.758 437.95 198.925 438.045 199.02C438.14 199.116 438.307 199.163 438.546 199.163ZM434.354 199.306C434.955 199.306 435.475 199.13 435.914 198.777C436.352 198.424 436.572 198.014 436.572 197.547V196.517L434.369 196.846C433.415 196.989 432.938 197.413 432.938 198.119C432.938 198.491 433.062 198.782 433.31 198.992C433.568 199.201 433.916 199.306 434.354 199.306ZM441.511 191.367H440.195V189.951H441.511V191.367ZM441.511 200.136H440.195V192.755H441.511V200.136ZM448.949 193.899V192.755H450.18V199.893C450.18 202.115 449.026 203.226 446.718 203.226C445.812 203.226 445.087 203.045 444.543 202.682C444.009 202.32 443.695 201.781 443.599 201.066H444.887C444.982 201.457 445.178 201.738 445.473 201.91C445.778 202.091 446.208 202.182 446.761 202.182C447.524 202.182 448.072 202.015 448.406 201.681C448.74 201.347 448.906 200.794 448.906 200.022V199.063C448.668 199.445 448.344 199.745 447.934 199.964C447.524 200.184 447.075 200.293 446.589 200.293C445.607 200.293 444.825 199.921 444.243 199.178C443.661 198.453 443.37 197.504 443.37 196.331C443.37 195.225 443.666 194.323 444.257 193.627C444.849 192.941 445.616 192.597 446.56 192.597C447.085 192.597 447.557 192.712 447.977 192.941C448.396 193.169 448.721 193.489 448.949 193.899ZM445.23 198.391C445.592 198.906 446.088 199.163 446.718 199.163C447.347 199.163 447.862 198.911 448.263 198.405C448.663 197.9 448.864 197.218 448.864 196.359C448.864 195.52 448.673 194.872 448.291 194.414C447.91 193.956 447.395 193.727 446.746 193.727C446.088 193.727 445.578 193.956 445.216 194.414C444.863 194.862 444.686 195.501 444.686 196.331C444.686 197.199 444.868 197.885 445.23 198.391ZM456.18 192.569C456.962 192.569 457.572 192.783 458.011 193.212C458.459 193.641 458.683 194.242 458.683 195.015V200.136H457.367V195.272C457.367 194.233 456.876 193.713 455.894 193.713C455.274 193.713 454.768 193.908 454.377 194.299C453.986 194.681 453.791 195.258 453.791 196.03V200.136H452.475V192.755H453.705V193.799C454.239 192.979 455.064 192.569 456.18 192.569ZM398.252 216.017L399.654 211.755H400.984L398.28 219.136H396.979L394.146 211.755H395.562L397.036 216.017L397.651 218.006L398.252 216.017ZM405.33 219.322C404.262 219.322 403.408 218.964 402.769 218.249C402.111 217.534 401.782 216.599 401.782 215.445C401.782 214.263 402.116 213.323 402.783 212.627C403.442 211.921 404.305 211.569 405.373 211.569C406.412 211.569 407.261 211.912 407.919 212.599C408.568 213.304 408.892 214.234 408.892 215.388C408.892 216.552 408.558 217.496 407.89 218.22C407.213 218.955 406.36 219.322 405.33 219.322ZM405.33 218.22C406.026 218.22 406.574 217.963 406.975 217.448C407.375 216.933 407.576 216.246 407.576 215.388C407.576 214.549 407.375 213.886 406.975 213.4C406.584 212.913 406.036 212.67 405.33 212.67C404.634 212.67 404.085 212.918 403.685 213.414C403.294 213.91 403.098 214.587 403.098 215.445C403.098 216.284 403.298 216.957 403.699 217.462C404.1 217.968 404.643 218.22 405.33 218.22ZM412.063 219.136H410.747V208.951H412.063V219.136ZM419.243 215.86V211.755H420.56V219.136H419.329V218.092C418.795 218.912 417.97 219.322 416.854 219.322C416.072 219.322 415.457 219.107 415.009 218.678C414.57 218.249 414.351 217.648 414.351 216.876V211.755H415.667V216.618C415.667 217.658 416.158 218.178 417.141 218.178C417.76 218.178 418.266 217.987 418.657 217.605C419.048 217.214 419.243 216.633 419.243 215.86ZM430.684 211.569C432.191 211.569 432.944 212.403 432.944 214.072V219.136H431.628V214.086C431.628 213.657 431.518 213.323 431.299 213.085C431.08 212.837 430.765 212.713 430.355 212.713C429.811 212.713 429.373 212.913 429.039 213.314C428.715 213.705 428.553 214.31 428.553 215.131V219.136H427.236V214.086C427.236 213.657 427.122 213.323 426.893 213.085C426.674 212.837 426.364 212.713 425.963 212.713C425.429 212.713 424.995 212.923 424.662 213.342C424.328 213.752 424.161 214.372 424.161 215.202V219.136H422.845V211.755H424.104L424.046 212.842C424.552 211.993 425.3 211.569 426.292 211.569C427.332 211.569 428.014 211.998 428.338 212.856C428.824 211.998 429.606 211.569 430.684 211.569ZM441.659 215.274V215.76H436.123C436.142 216.561 436.347 217.176 436.738 217.605C437.129 218.025 437.668 218.235 438.355 218.235C439.375 218.235 440.057 217.744 440.4 216.761L441.602 216.904C441.373 217.667 440.968 218.259 440.386 218.678C439.814 219.098 439.122 219.308 438.312 219.308C437.215 219.308 436.361 218.945 435.751 218.22C435.122 217.505 434.807 216.571 434.807 215.417C434.807 214.263 435.117 213.333 435.737 212.627C436.347 211.931 437.196 211.583 438.283 211.583C439.323 211.583 440.143 211.912 440.743 212.57C441.354 213.228 441.659 214.129 441.659 215.274ZM439.756 213.214C439.385 212.842 438.898 212.656 438.297 212.656C437.706 212.656 437.215 212.837 436.824 213.199C436.442 213.571 436.214 214.11 436.137 214.816H440.429C440.343 214.129 440.119 213.595 439.756 213.214ZM446.024 219.322C444.145 219.322 443.12 218.483 442.948 216.804H444.207C444.274 217.31 444.46 217.682 444.765 217.92C445.07 218.149 445.509 218.263 446.081 218.263C446.653 218.263 447.087 218.163 447.383 217.963C447.688 217.763 447.84 217.477 447.84 217.105C447.84 216.552 447.454 216.194 446.682 216.032L445.194 215.717C443.83 215.431 443.148 214.763 443.148 213.714C443.148 213.047 443.387 212.527 443.863 212.155C444.34 211.774 445.017 211.583 445.895 211.583C446.763 211.583 447.454 211.778 447.969 212.169C448.494 212.56 448.804 213.137 448.899 213.9H447.597C447.454 213.052 446.872 212.627 445.852 212.627C444.86 212.627 444.364 212.951 444.364 213.6C444.364 213.857 444.45 214.067 444.622 214.229C444.803 214.382 445.098 214.501 445.509 214.587L446.939 214.902C447.683 215.073 448.227 215.331 448.57 215.674C448.923 216.008 449.099 216.447 449.099 216.99C449.099 217.715 448.827 218.287 448.284 218.707C447.74 219.117 446.987 219.322 446.024 219.322Z" fill="black"/>
<g filter="url(#filter11_f_96_755)">
<rect x="496.507" y="156.599" width="143.051" height="76.0735" rx="14.3051" fill="white"/>
<path d="M513.645 181.136H512.028V179.691H513.645V181.136Z" fill="black"/>
</g>
<defs>
<filter id="filter0_f_96_755" x="526.905" y="46.438" width="63.5782" height="67.9493" filterUnits="userSpaceOnUse" color-interpolation-filters="sRGB">
<feFlood flood-opacity="0" result="BackgroundImageFix"/>
<feBlend mode="normal" in="SourceGraphic" in2="BackgroundImageFix" result="shape"/>
<feGaussianBlur stdDeviation="4.47035" result="effect1_foregroundBlur_96_755"/>
</filter>
<filter id="filter1_f_96_755" x="574.987" y="46.438" width="63.5782" height="67.9493" filterUnits="userSpaceOnUse" color-interpolation-filters="sRGB">
<feFlood flood-opacity="0" result="BackgroundImageFix"/>
<feBlend mode="normal" in="SourceGraphic" in2="BackgroundImageFix" result="shape"/>
<feGaussianBlur stdDeviation="4.47035" result="effect1_foregroundBlur_96_755"/>
</filter>
<filter id="filter2_f_96_755" x="623.068" y="46.438" width="63.5782" height="67.9493" filterUnits="userSpaceOnUse" color-interpolation-filters="sRGB">
<feFlood flood-opacity="0" result="BackgroundImageFix"/>
<feBlend mode="normal" in="SourceGraphic" in2="BackgroundImageFix" result="shape"/>
<feGaussianBlur stdDeviation="4.47035" result="effect1_foregroundBlur_96_755"/>
</filter>
<filter id="filter3_f_96_755" x="484.586" y="98.8364" width="44.4054" height="64.9154" filterUnits="userSpaceOnUse" color-interpolation-filters="sRGB">
<feFlood flood-opacity="0" result="BackgroundImageFix"/>
<feBlend mode="normal" in="SourceGraphic" in2="BackgroundImageFix" result="shape"/>
<feGaussianBlur stdDeviation="5.96047" result="effect1_foregroundBlur_96_755"/>
</filter>
<filter id="filter4_f_96_755" x="507.534" y="98.8364" width="44.4054" height="64.9154" filterUnits="userSpaceOnUse" color-interpolation-filters="sRGB">
<feFlood flood-opacity="0" result="BackgroundImageFix"/>
<feBlend mode="normal" in="SourceGraphic" in2="BackgroundImageFix" result="shape"/>
<feGaussianBlur stdDeviation="5.96047" result="effect1_foregroundBlur_96_755"/>
</filter>
<filter id="filter5_f_96_755" x="530.482" y="98.8364" width="44.4054" height="64.9154" filterUnits="userSpaceOnUse" color-interpolation-filters="sRGB">
<feFlood flood-opacity="0" result="BackgroundImageFix"/>
<feBlend mode="normal" in="SourceGraphic" in2="BackgroundImageFix" result="shape"/>
<feGaussianBlur stdDeviation="5.96047" result="effect1_foregroundBlur_96_755"/>
</filter>
<filter id="filter6_f_96_755" x="553.43" y="98.8364" width="44.4054" height="64.9154" filterUnits="userSpaceOnUse" color-interpolation-filters="sRGB">
<feFlood flood-opacity="0" result="BackgroundImageFix"/>
<feBlend mode="normal" in="SourceGraphic" in2="BackgroundImageFix" result="shape"/>
<feGaussianBlur stdDeviation="5.96047" result="effect1_foregroundBlur_96_755"/>
</filter>
<filter id="filter7_f_96_755" x="576.377" y="98.8364" width="44.4054" height="64.9154" filterUnits="userSpaceOnUse" color-interpolation-filters="sRGB">
<feFlood flood-opacity="0" result="BackgroundImageFix"/>
<feBlend mode="normal" in="SourceGraphic" in2="BackgroundImageFix" result="shape"/>
<feGaussianBlur stdDeviation="5.96047" result="effect1_foregroundBlur_96_755"/>
</filter>
<filter id="filter8_f_96_755" x="599.326" y="98.8364" width="44.4054" height="64.9154" filterUnits="userSpaceOnUse" color-interpolation-filters="sRGB">
<feFlood flood-opacity="0" result="BackgroundImageFix"/>
<feBlend mode="normal" in="SourceGraphic" in2="BackgroundImageFix" result="shape"/>
<feGaussianBlur stdDeviation="5.96047" result="effect1_foregroundBlur_96_755"/>
</filter>
<filter id="filter9_f_96_755" x="622.273" y="98.8364" width="44.4054" height="64.9154" filterUnits="userSpaceOnUse" color-interpolation-filters="sRGB">
<feFlood flood-opacity="0" result="BackgroundImageFix"/>
<feBlend mode="normal" in="SourceGraphic" in2="BackgroundImageFix" result="shape"/>
<feGaussianBlur stdDeviation="5.96047" result="effect1_foregroundBlur_96_755"/>
</filter>
<filter id="filter10_f_96_755" x="645.221" y="98.8364" width="44.4054" height="64.9154" filterUnits="userSpaceOnUse" color-interpolation-filters="sRGB">
<feFlood flood-opacity="0" result="BackgroundImageFix"/>
<feBlend mode="normal" in="SourceGraphic" in2="BackgroundImageFix" result="shape"/>
<feGaussianBlur stdDeviation="5.96047" result="effect1_foregroundBlur_96_755"/>
</filter>
<filter id="filter11_f_96_755" x="472.665" y="132.757" width="190.735" height="123.757" filterUnits="userSpaceOnUse" color-interpolation-filters="sRGB">
<feFlood flood-opacity="0" result="BackgroundImageFix"/>
<feBlend mode="normal" in="SourceGraphic" in2="BackgroundImageFix" result="shape"/>
<feGaussianBlur stdDeviation="11.9209" result="effect1_foregroundBlur_96_755"/>
</filter>
</defs>
</svg>
