<svg xmlns="http://www.w3.org/2000/svg" width="375" height="1394" fill="none"><g clip-path="url(#a)"><path fill="#fff" d="M0 40C0 17.909 17.909 0 40 0h295c22.091 0 40 17.909 40 40v1354H0V40z"/><path fill="#fff" d="M0 0h375v88H0z"/><path fill="#1A1A1A" fill-rule="evenodd" d="M355.5 16c1.516 0 2.5.984 2.5 2.5V25c0 1.516-.984 2.5-2.5 2.5h-19c-1.516 0-2.5-.984-2.5-2.5v-6.5c0-1.516.984-2.5 2.5-2.5h19zm-.1 1c.97 0 1.6.63 1.6 1.6v6.3c0 .97-.63 1.6-1.6 1.6h-18.8c-.97 0-1.6-.63-1.6-1.6v-6.3c0-.97.63-1.6 1.6-1.6h18.8zm5.1 4.75c0 1.75-1.5 2-1.5 2v-4s1.5.25 1.5 2z" clip-rule="evenodd" opacity=".4"/><path fill="#1A1A1A" fill-rule="evenodd" d="M355 18c.607 0 1 .393 1 1v5.5c0 .607-.393 1-1 1h-18c-.607 0-1-.393-1-1V19c0-.607.393-1 1-1h18zm-64.939 5c.625 0 1.03.393 1.03 1v2.5c0 .607-.405 1-1.03 1h-1.031c-.625 0-1.03-.393-1.03-1V24c0-.607.405-1 1.03-1h1.031zm13.909-5.5c.625 0 1.03.393 1.03 1v8c0 .607-.405 1-1.03 1h-1.031c-.625 0-1.03-.393-1.03-1v-8c0-.607.405-1 1.03-1h1.031zm-4.637 2c.625 0 1.031.393 1.031 1v6c0 .607-.406 1-1.031 1h-1.03c-.625 0-1.03-.393-1.03-1v-6c0-.607.405-1 1.03-1h1.03zm-4.636 2c.625 0 1.03.393 1.03 1v4c0 .607-.405 1-1.03 1h-1.03c-.625 0-1.031-.393-1.031-1v-4c0-.607.406-1 1.031-1h1.03zm24.94-2.723c2.215 0 4.347.852 5.953 2.379a.308.308 0 0 0 .433-.004l1.156-1.166a.32.32 0 0 0-.003-.456 10.897 10.897 0 0 0-15.08 0 .323.323 0 0 0-.003.456l1.157 1.166c.119.12.312.122.433.004a8.64 8.64 0 0 1 5.954-2.379zm0 3.796a4.91 4.91 0 0 1 3.294 1.27.31.31 0 0 0 .433-.006l1.155-1.167a.325.325 0 0 0-.005-.459 7.159 7.159 0 0 0-9.752 0 .324.324 0 0 0-.005.46l1.155 1.166a.31.31 0 0 0 .433.006 4.907 4.907 0 0 1 3.292-1.27zm2.219 2.784a.32.32 0 0 0 .094-.23.316.316 0 0 0-.104-.227 3.421 3.421 0 0 0-4.419 0 .316.316 0 0 0-.104.227.32.32 0 0 0 .094.23l1.998 2.016a.31.31 0 0 0 .443 0l1.998-2.016z" clip-rule="evenodd"/><path fill="#1A1A1A" d="M20.856 16.168c2.256 0 4.219 1.604 4.219 5.412v.015c0 3.56-1.604 5.669-4.263 5.669-1.94 0-3.391-1.15-3.728-2.769l-.015-.08h1.86l.023.073c.278.74.93 1.223 1.86 1.223 1.677 0 2.388-1.64 2.468-3.662 0-.08.008-.161.008-.242h-.147c-.388.835-1.31 1.575-2.761 1.575-2.029 0-3.45-1.48-3.45-3.487v-.014c0-2.146 1.634-3.713 3.926-3.713zm-.007 5.764c1.194 0 2.109-.865 2.109-2.058v-.015c0-1.209-.915-2.153-2.087-2.153-1.165 0-2.095.93-2.095 2.109v.015c0 1.223.872 2.102 2.073 2.102zm7.55-1.78a1.143 1.143 0 0 1-1.164-1.157 1.14 1.14 0 0 1 1.165-1.158c.674 0 1.165.506 1.165 1.158 0 .644-.491 1.157-1.165 1.157zm0 5.434a1.138 1.138 0 0 1-1.164-1.157c0-.652.498-1.157 1.165-1.157.674 0 1.165.505 1.165 1.157s-.491 1.157-1.165 1.157zM36.853 27v-2.029h-5.17v-1.545c1.369-2.38 2.87-4.812 4.306-6.995h2.673v6.98h1.421v1.56h-1.42V27h-1.81zm-3.413-3.545h3.442V17.94h-.11a109.393 109.393 0 0 0-3.332 5.405v.11zM44.462 27v-8.709h-.125l-2.629 1.86v-1.779l2.761-1.94h1.883V27h-1.89z"/><path fill="#fff" d="M0 44h374.999v44H0z"/><g clip-path="url(#b)"><path fill="#1A1A1A" d="M147.581 67.528c.565.117.97.33 1.216.64.245.299.405.704.48 1.216l.464 3.616h-2.432l-.272-2.928c-.054-.523-.214-.901-.48-1.136-.256-.235-.672-.352-1.248-.352h-2.096V73h-2.368V61.608h5.312c1.258 0 2.176.293 2.752.88.565.597.848 1.35.848 2.256 0 1.472-.726 2.4-2.176 2.784zm-4.368-3.936v3.072h2.272c.65 0 1.136-.139 1.456-.416.33-.288.496-.683.496-1.184 0-.459-.139-.816-.416-1.072-.267-.267-.672-.4-1.216-.4h-2.592zm16.096 5.568v.384h-5.984c.042.619.234 1.104.576 1.456.341.352.794.528 1.36.528.8 0 1.333-.357 1.6-1.072l2.24.16c-.278.875-.742 1.541-1.392 2-.651.448-1.451.672-2.4.672-1.334 0-2.384-.416-3.152-1.248-.768-.832-1.152-1.899-1.152-3.2 0-1.248.368-2.277 1.104-3.088.736-.81 1.722-1.216 2.96-1.216 1.248 0 2.266.416 3.056 1.248.789.843 1.184 1.968 1.184 3.376zm-2.336-1.152c-.064-.576-.256-1.024-.576-1.344-.32-.32-.736-.48-1.248-.48s-.934.16-1.264.48c-.331.341-.523.79-.576 1.344h3.664zm7.906-1.6-1.536-.048v4.048c0 .277.058.48.176.608.128.117.33.176.608.176h.752V73h-1.472c-.832 0-1.43-.176-1.792-.528-.352-.363-.528-.96-.528-1.792v-4.32l-1.12.048v-1.664l1.12.032V62.2h2.256v2.592l1.536-.048v1.664zm6.348 2.752v-4.416h2.256V73h-2.208l-.032-1.12c-.533.885-1.328 1.328-2.384 1.328-.853 0-1.52-.261-2-.784-.469-.523-.704-1.237-.704-2.144v-5.536h2.256v5.024c0 .448.102.795.304 1.04.214.245.512.368.896.368.48 0 .87-.181 1.168-.544.299-.373.448-.864.448-1.472zm8.226-4.704c.267 0 .507.037.72.112v2.064a13.835 13.835 0 0 0-.464-.032c-1.365 0-2.048.795-2.048 2.384V73h-2.256v-8.256h2.208l-.032 1.104c.363-.928.987-1.392 1.872-1.392zm6.623.08c.854 0 1.515.261 1.984.784.48.523.72 1.237.72 2.144V73h-2.256v-5.024c0-.448-.106-.795-.32-1.04-.202-.245-.496-.368-.88-.368-.48 0-.869.187-1.168.56-.298.363-.448.848-.448 1.456V73h-2.256v-8.256h2.208l.032 1.12c.534-.885 1.328-1.328 2.384-1.328zm10.882-.88h-2.256v-2.048h2.256v2.048zm0 9.344h-2.256v-8.256h2.256V73zm6.108-6.592-1.536-.048v4.048c0 .277.059.48.176.608.128.117.331.176.608.176h.752V73h-1.472c-.832 0-1.429-.176-1.792-.528-.352-.363-.528-.96-.528-1.792v-4.32l-1.12.048v-1.664l1.12.032V62.2h2.256v2.592l1.536-.048v1.664zm9.149 2.752v.384h-5.984c.042.619.234 1.104.576 1.456.341.352.794.528 1.36.528.8 0 1.333-.357 1.6-1.072l2.24.16c-.278.875-.742 1.541-1.392 2-.651.448-1.451.672-2.4.672-1.334 0-2.384-.416-3.152-1.248-.768-.832-1.152-1.899-1.152-3.2 0-1.248.368-2.277 1.104-3.088.736-.81 1.722-1.216 2.96-1.216 1.248 0 2.266.416 3.056 1.248.789.843 1.184 1.968 1.184 3.376zm-2.336-1.152c-.064-.576-.256-1.024-.576-1.344-.32-.32-.736-.48-1.248-.48s-.934.16-1.264.48c-.331.341-.523.79-.576 1.344h3.664zm13.072-3.472c.821 0 1.467.267 1.936.8.469.533.704 1.248.704 2.144V73h-2.256v-5.072c0-.405-.096-.73-.288-.976-.181-.256-.453-.384-.816-.384-.437 0-.795.187-1.072.56-.267.363-.4.848-.4 1.456V73h-2.256v-5.072c0-.405-.096-.73-.288-.976-.181-.256-.453-.384-.816-.384-.437 0-.795.187-1.072.56-.267.363-.4.848-.4 1.456V73h-2.256v-8.256h2.208l.032 1.056c.512-.843 1.259-1.264 2.24-1.264 1.173 0 1.963.496 2.368 1.488.533-.992 1.344-1.488 2.432-1.488zm10.692 8.032c-.651.49-1.542.736-2.672.736-1.131 0-2.006-.24-2.624-.72-.63-.48-1.003-1.163-1.12-2.048l2.064-.08c.149.853.736 1.28 1.76 1.28.458 0 .821-.08 1.088-.24.266-.16.4-.384.4-.672 0-.405-.363-.683-1.088-.832l-1.632-.32c-1.6-.32-2.4-1.125-2.4-2.416 0-.832.304-1.493.912-1.984.608-.49 1.424-.736 2.448-.736.992 0 1.808.24 2.448.72.64.47 1.013 1.11 1.12 1.92l-2.032.08a1.209 1.209 0 0 0-.512-.848c-.278-.203-.63-.304-1.056-.304-.374 0-.672.08-.896.24a.749.749 0 0 0-.336.64c0 .416.309.693.928.832l1.776.368c.821.17 1.429.448 1.824.832.394.384.592.896.592 1.536 0 .864-.331 1.536-.992 2.016z"/></g><path fill="#1A1A1A" fill-rule="evenodd" d="M16.442 74.442a.625.625 0 0 1-.884 0l-8-8a.625.625 0 0 1 0-.884l8-8a.625.625 0 1 1 .884.884L8.884 66l7.558 7.558a.625.625 0 0 1 0 .884z" clip-rule="evenodd"/><path stroke="#D1D1D1" stroke-width=".5" d="M0 87.75h375"/><path fill="#1A1A1A" fill-rule="evenodd" d="M0 0h40C18.13 0 .359 13.665.005 30.625L0 31.14V0h40H0zm375 0v31.14C375 14.114 357.447.28 335.661.004L335 0h40zm-78 0-.892.168c-1.897.359-3.44 1.446-4.106 2.869a.483.483 0 0 0-.048.209l.007 2.82v.162c0 9.889-10.298 17.906-23 17.906H106.039c-12.703 0-23-8.017-23-17.936l.007-3.055a.875.875 0 0 0-.042-.106c-.67-1.413-2.224-2.512-4.113-2.87L78.001 0H297z" clip-rule="evenodd"/><path fill="#1A1A1A" d="M25.192 120.912c2.08 0 3.848.472 5.304 1.416l.024 3.864h-.912c-.592-2.848-2.032-4.272-4.32-4.272-1.584 0-2.792.696-3.624 2.088-.816 1.376-1.224 3.144-1.224 5.304 0 2.32.44 4.216 1.32 5.688.896 1.472 2.144 2.208 3.744 2.208 1.152 0 2.104-.392 2.856-1.176.768-.784 1.36-2.032 1.776-3.744h.96l-.36 4.512c-1.488.96-3.336 1.44-5.544 1.44-2.608 0-4.672-.752-6.192-2.256-1.52-1.504-2.28-3.504-2.28-6 0-2.736.8-4.928 2.4-6.576 1.616-1.664 3.64-2.496 6.072-2.496zm8.728 15.24v-14.544l-1.44-.744v-.504l4.248-1.152h.528v8.184c1.312-1.568 2.784-2.352 4.416-2.352 2.304 0 3.456 1.312 3.456 3.936v7.176c0 .4.104.672.312.816.208.128.6.208 1.176.24V138h-6.288v-.792c.576-.032.96-.112 1.152-.24.208-.144.312-.416.312-.816v-7.008c0-1.392-.624-2.088-1.872-2.088-.816 0-1.704.328-2.664.984v8.112c0 .4.096.672.288.816.208.128.6.208 1.176.24V138h-6.288v-.792c.576-.032.968-.112 1.176-.24.208-.144.312-.416.312-.816zm20.005 1.224c.864 0 1.504-.456 1.92-1.368.432-.912.648-2.184.648-3.816 0-1.888-.232-3.4-.696-4.536-.448-1.152-1.128-1.728-2.04-1.728-.864 0-1.512.456-1.944 1.368-.432.912-.648 2.176-.648 3.792 0 1.888.232 3.408.696 4.56.464 1.152 1.152 1.728 2.064 1.728zm-.12.864c-1.84 0-3.328-.576-4.464-1.728-1.136-1.152-1.704-2.68-1.704-4.584 0-2.032.584-3.688 1.752-4.968 1.184-1.28 2.68-1.92 4.488-1.92 1.84 0 3.328.584 4.464 1.752 1.136 1.168 1.704 2.696 1.704 4.584 0 2.016-.592 3.664-1.776 4.944-1.168 1.28-2.656 1.92-4.464 1.92zm14.128-.864c.864 0 1.504-.456 1.92-1.368.432-.912.648-2.184.648-3.816 0-1.888-.232-3.4-.696-4.536-.448-1.152-1.128-1.728-2.04-1.728-.864 0-1.512.456-1.944 1.368-.432.912-.648 2.176-.648 3.792 0 1.888.232 3.408.696 4.56.464 1.152 1.152 1.728 2.064 1.728zm-.12.864c-1.84 0-3.328-.576-4.464-1.728-1.136-1.152-1.704-2.68-1.704-4.584 0-2.032.584-3.688 1.752-4.968 1.184-1.28 2.68-1.92 4.488-1.92 1.84 0 3.328.584 4.464 1.752 1.136 1.168 1.704 2.696 1.704 4.584 0 2.016-.592 3.664-1.776 4.944-1.168 1.28-2.656 1.92-4.464 1.92zm12.404 0c-1.791 0-3.231-.4-4.32-1.2l-.144-3.288h.888c.272 1.104.72 1.992 1.344 2.664.624.656 1.377.984 2.257.984.671 0 1.215-.16 1.632-.48.431-.336.648-.824.648-1.464 0-.608-.209-1.08-.625-1.416-.416-.336-1.136-.688-2.16-1.056-1.36-.464-2.352-1-2.975-1.608-.609-.608-.912-1.448-.912-2.52 0-1.184.407-2.112 1.224-2.784.816-.688 1.895-1.032 3.24-1.032 1.52 0 2.824.352 3.912 1.056V129h-.817c-.208-.928-.576-1.68-1.104-2.256-.512-.576-1.176-.864-1.992-.864-.608 0-1.088.16-1.44.48-.336.32-.504.744-.504 1.272s.192.96.576 1.296c.385.32 1.056.656 2.017 1.008 1.423.496 2.463 1.056 3.12 1.68.672.608 1.008 1.464 1.008 2.568 0 1.264-.44 2.256-1.32 2.976-.88.72-2.064 1.08-3.552 1.08zm12.372-13.2c1.568 0 2.776.464 3.624 1.392.848.928 1.272 2.136 1.272 3.624v.552h-7.824c-.048 1.648.304 2.952 1.056 3.912s1.728 1.44 2.928 1.44c1.488 0 2.68-.648 3.576-1.944l.384.216c-.32 1.232-.92 2.208-1.8 2.928-.88.72-1.992 1.08-3.336 1.08-1.728 0-3.128-.576-4.2-1.728-1.072-1.168-1.608-2.68-1.608-4.536 0-2.016.568-3.672 1.704-4.968 1.152-1.312 2.56-1.968 4.224-1.968zm-.24.888c-.768 0-1.376.344-1.824 1.032-.448.688-.72 1.608-.816 2.76h4.8c0-2.528-.72-3.792-2.16-3.792zm15.609-3.768v3.12h3.12v1.104h-3.12v7.944c0 1.392.56 2.088 1.68 2.088.608 0 1.208-.224 1.8-.672l.288.432c-.88 1.376-2.112 2.064-3.696 2.064-1.056 0-1.888-.296-2.496-.888-.608-.608-.912-1.552-.912-2.832v-8.136h-1.488v-.552c1.616-.72 2.984-1.944 4.104-3.672h.72zm5.946 13.992v-14.544l-1.44-.744v-.504l4.248-1.152h.528v8.184c1.312-1.568 2.784-2.352 4.416-2.352 2.304 0 3.456 1.312 3.456 3.936v7.176c0 .4.104.672.312.816.208.128.6.208 1.176.24V138h-6.288v-.792c.576-.032.96-.112 1.152-.24.208-.144.312-.416.312-.816v-7.008c0-1.392-.624-2.088-1.872-2.088-.816 0-1.704.328-2.664.984v8.112c0 .4.096.672.288.816.208.128.6.208 1.176.24V138h-6.288v-.792c.576-.032.968-.112 1.176-.24.208-.144.312-.416.312-.816zm19.67-11.112c1.568 0 2.776.464 3.624 1.392.848.928 1.272 2.136 1.272 3.624v.552h-7.824c-.048 1.648.304 2.952 1.056 3.912s1.728 1.44 2.928 1.44c1.488 0 2.68-.648 3.576-1.944l.384.216c-.32 1.232-.92 2.208-1.8 2.928-.88.72-1.992 1.08-3.336 1.08-1.728 0-3.128-.576-4.2-1.728-1.072-1.168-1.608-2.68-1.608-4.536 0-2.016.568-3.672 1.704-4.968 1.152-1.312 2.56-1.968 4.224-1.968zm-.24.888c-.768 0-1.376.344-1.824 1.032-.448.688-.72 1.608-.816 2.76h4.8c0-2.528-.72-3.792-2.16-3.792zm16.064 3.408v6.624c0 .464.136.776.408.936.288.144.832.248 1.632.312V138h-6.864v-.792c.592-.032.992-.112 1.2-.24.208-.144.312-.416.312-.816v-8.496l-1.44-.84v-.456l4.296-1.32h.552l-.096 3.552c.592-1.344 1.112-2.272 1.56-2.784a2.238 2.238 0 0 1 1.728-.768c.48 0 .832.136 1.056.408v2.592h-.456c-.896 0-1.632.08-2.208.24-.56.144-1.12.496-1.68 1.056zm11.27-4.296c1.568 0 2.776.464 3.624 1.392.848.928 1.272 2.136 1.272 3.624v.552h-7.824c-.048 1.648.304 2.952 1.056 3.912s1.728 1.44 2.928 1.44c1.488 0 2.68-.648 3.576-1.944l.384.216c-.32 1.232-.92 2.208-1.8 2.928-.88.72-1.992 1.08-3.336 1.08-1.728 0-3.128-.576-4.2-1.728-1.072-1.168-1.608-2.68-1.608-4.536 0-2.016.568-3.672 1.704-4.968 1.152-1.312 2.56-1.968 4.224-1.968zm-.24.888c-.768 0-1.376.344-1.824 1.032-.448.688-.72 1.608-.816 2.76h4.8c0-2.528-.72-3.792-2.16-3.792zm10.882-3.768v3.12h3.12v1.104h-3.12v7.944c0 1.392.56 2.088 1.68 2.088.608 0 1.208-.224 1.8-.672l.288.432c-.88 1.376-2.112 2.064-3.696 2.064-1.056 0-1.888-.296-2.496-.888-.608-.608-.912-1.552-.912-2.832v-8.136h-1.488v-.552c1.616-.72 2.984-1.944 4.104-3.672h.72zm16.602 5.712v7.584c0 .448.048.744.144.888.112.144.384.232.816.264l.6.048v.72l-4.368.864h-.6l.072-2.304c-.624.704-1.264 1.264-1.92 1.68-.656.416-1.408.624-2.256.624-1.088 0-1.944-.32-2.568-.96-.608-.64-.912-1.616-.912-2.928v-6.24c0-.416-.072-.72-.216-.912-.144-.208-.44-.352-.888-.432l-.384-.072v-.72l4.416-.912h.528l-.12 2.856v6c0 1.552.624 2.328 1.872 2.328.704 0 1.52-.304 2.448-.912v-7.224c0-.416-.072-.72-.216-.912-.144-.208-.44-.352-.888-.432l-.36-.072v-.72l4.368-.912h.528l-.096 2.808zm7.416 1.464v6.624c0 .464.136.776.408.936.288.144.832.248 1.632.312V138h-6.864v-.792c.592-.032.992-.112 1.2-.24.208-.144.312-.416.312-.816v-8.496l-1.44-.84v-.456l4.296-1.32h.552l-.096 3.552c.592-1.344 1.112-2.272 1.56-2.784a2.238 2.238 0 0 1 1.728-.768c.48 0 .832.136 1.056.408v2.592h-.456c-.896 0-1.632.08-2.208.24-.56.144-1.12.496-1.68 1.056zm14.653 6.816v-7.008c0-.704-.144-1.224-.432-1.56-.288-.352-.76-.528-1.416-.528-.832 0-1.728.328-2.688.984v8.112c0 .4.096.672.288.816.208.128.6.208 1.176.24V138h-6.288v-.792c.592-.032.992-.112 1.2-.24.208-.144.312-.416.312-.816v-8.496l-1.44-.84v-.456l4.296-1.32h.552l-.096 2.352c1.344-1.568 2.824-2.352 4.44-2.352 2.288 0 3.432 1.304 3.432 3.912v7.2c0 .4.104.672.312.816.208.128.6.208 1.176.24V138h-6.288v-.792c.576-.032.96-.112 1.152-.24.208-.144.312-.416.312-.816zm27.271 0v-7.032c0-.704-.136-1.224-.408-1.56-.272-.336-.712-.504-1.32-.504-.736 0-1.56.336-2.472 1.008v8.088c0 .4.088.672.264.816.192.128.576.208 1.152.24V138h-6.192v-.792c.576-.032.96-.112 1.152-.24.192-.128.288-.4.288-.816v-7.032c0-.704-.136-1.224-.408-1.56-.272-.336-.712-.504-1.32-.504-.704 0-1.536.328-2.496.984v8.112c0 .4.096.672.288.816.192.128.576.208 1.152.24V138h-6.264v-.792c.592-.032.992-.112 1.2-.24.208-.144.312-.416.312-.816v-8.496l-1.44-.84v-.456l4.296-1.32h.552l-.096 2.376c1.232-1.584 2.664-2.376 4.296-2.376 1.776 0 2.816.808 3.12 2.424 1.28-1.616 2.744-2.424 4.392-2.424 2.192 0 3.288 1.288 3.288 3.864v7.248c0 .4.104.672.312.816.208.128.6.208 1.176.24V138h-6.24v-.792c.576-.032.952-.112 1.128-.24.192-.144.288-.416.288-.816zm11.791-11.112c1.568 0 2.776.464 3.624 1.392.848.928 1.272 2.136 1.272 3.624v.552h-7.824c-.048 1.648.304 2.952 1.056 3.912s1.728 1.44 2.928 1.44c1.488 0 2.68-.648 3.576-1.944l.384.216c-.32 1.232-.92 2.208-1.8 2.928-.88.72-1.992 1.08-3.336 1.08-1.728 0-3.128-.576-4.2-1.728-1.072-1.168-1.608-2.68-1.608-4.536 0-2.016.568-3.672 1.704-4.968 1.152-1.312 2.56-1.968 4.224-1.968zm-.24.888c-.768 0-1.376.344-1.824 1.032-.448.688-.72 1.608-.816 2.76h4.8c0-2.528-.72-3.792-2.16-3.792zm10.882-3.768v3.12h3.12v1.104h-3.12v7.944c0 1.392.56 2.088 1.68 2.088.608 0 1.208-.224 1.8-.672l.288.432c-.88 1.376-2.112 2.064-3.696 2.064-1.056 0-1.888-.296-2.496-.888-.608-.608-.912-1.552-.912-2.832v-8.136h-1.488v-.552c1.616-.72 2.984-1.944 4.104-3.672h.72zm5.946 13.992v-14.544l-1.44-.744v-.504l4.248-1.152h.528v8.184c1.312-1.568 2.784-2.352 4.416-2.352 2.304 0 3.456 1.312 3.456 3.936v7.176c0 .4.104.672.312.816.208.128.6.208 1.176.24V138h-6.288v-.792c.576-.032.96-.112 1.152-.24.208-.144.312-.416.312-.816v-7.008c0-1.392-.624-2.088-1.872-2.088-.816 0-1.704.328-2.664.984v8.112c0 .4.096.672.288.816.208.128.6.208 1.176.24V138h-6.288v-.792c.576-.032.968-.112 1.176-.24.208-.144.312-.416.312-.816zm20.005 1.224c.864 0 1.504-.456 1.92-1.368.432-.912.648-2.184.648-3.816 0-1.888-.232-3.4-.696-4.536-.448-1.152-1.128-1.728-2.04-1.728-.864 0-1.512.456-1.944 1.368-.432.912-.648 2.176-.648 3.792 0 1.888.232 3.408.696 4.56.464 1.152 1.152 1.728 2.064 1.728zm-.12.864c-1.84 0-3.328-.576-4.464-1.728-1.136-1.152-1.704-2.68-1.704-4.584 0-2.032.584-3.688 1.752-4.968 1.184-1.28 2.68-1.92 4.488-1.92 1.84 0 3.328.584 4.464 1.752 1.136 1.168 1.704 2.696 1.704 4.584 0 2.016-.592 3.664-1.776 4.944-1.168 1.28-2.656 1.92-4.464 1.92zm14.32-12.12c-.992 0-1.776.448-2.352 1.344-.56.896-.84 2.104-.84 3.624 0 1.504.296 2.736.888 3.696.608.944 1.44 1.416 2.496 1.416.8 0 1.48-.256 2.04-.768v-6.336c0-.944-.192-1.672-.576-2.184-.384-.528-.936-.792-1.656-.792zm2.232-4.512-1.44-.744v-.504l4.248-1.152h.528v16.248c0 .448.048.744.144.888.112.144.384.232.816.264l.6.048v.72l-4.368.864h-.624l.096-2.232c-1.04 1.488-2.328 2.232-3.864 2.232-1.456 0-2.632-.544-3.528-1.632-.88-1.088-1.32-2.544-1.32-4.368 0-2.208.576-3.952 1.728-5.232 1.152-1.28 2.616-1.92 4.392-1.92 1.12 0 1.984.28 2.592.84v-4.32z"/><path fill="#767676" d="M24.596 183.852c-.915.98-2.049 1.47-3.402 1.47-1.353 0-2.473-.49-3.36-1.47-.896-.971-1.344-2.254-1.344-3.85 0-1.568.443-2.833 1.33-3.794.887-.943 2.011-1.414 3.374-1.414 1.353 0 2.487.471 3.402 1.414.905.943 1.358 2.207 1.358 3.794 0 1.596-.453 2.879-1.358 3.85zm-5.32-1.288c.467.644 1.106.966 1.918.966.812 0 1.465-.322 1.96-.966.485-.635.728-1.489.728-2.562 0-1.027-.243-1.853-.728-2.478-.485-.625-1.139-.938-1.96-.938s-1.46.313-1.918.938c-.476.635-.714 1.461-.714 2.478 0 1.064.238 1.918.714 2.562zm12.083-4.97c.85 0 1.554.341 2.114 1.022.56.691.84 1.605.84 2.744 0 1.148-.289 2.081-.868 2.8-.578.719-1.325 1.078-2.24 1.078-.821 0-1.47-.303-1.946-.91v3.528h-1.974v-10.08h1.75l.07.938c.495-.747 1.246-1.12 2.254-1.12zm-.574 5.908c.486 0 .878-.196 1.176-.588.299-.392.448-.91.448-1.554s-.149-1.157-.448-1.54a1.409 1.409 0 0 0-1.176-.588 1.41 1.41 0 0 0-1.176.588c-.298.383-.448.896-.448 1.54s.15 1.162.448 1.554c.308.392.7.588 1.176.588zm8.399-4.27-1.344-.042v3.542c0 .243.051.42.154.532.112.103.29.154.532.154h.658V185h-1.288c-.728 0-1.25-.154-1.568-.462-.308-.317-.462-.84-.462-1.568v-3.78l-.98.042v-1.456l.98.028v-2.254h1.974v2.268l1.344-.042v1.456zm3.09-2.408h-1.973v-1.792h1.974v1.792zm0 8.176h-1.973v-7.224h1.974V185zm7.655-.854c-.681.728-1.568 1.092-2.66 1.092s-1.978-.364-2.66-1.092c-.69-.719-1.036-1.629-1.036-2.73 0-1.092.346-2.007 1.036-2.744.691-.719 1.578-1.078 2.66-1.078 1.083 0 1.97.359 2.66 1.078.691.737 1.036 1.652 1.036 2.744 0 1.101-.345 2.011-1.036 2.73zm-4.452-2.73c0 .7.164 1.255.49 1.666.327.411.761.616 1.302.616.551 0 .99-.205 1.316-.616.318-.401.476-.957.476-1.666s-.158-1.265-.476-1.666c-.326-.411-.765-.616-1.316-.616-.541 0-.975.205-1.302.616-.326.411-.49.966-.49 1.666zm10.806-3.822c.746 0 1.325.229 1.736.686.42.457.63 1.083.63 1.876V185h-1.974v-4.396c0-.392-.094-.695-.28-.91-.178-.215-.434-.322-.77-.322-.42 0-.761.163-1.023.49-.26.317-.391.742-.391 1.274V185h-1.974v-7.224h1.931l.029.98c.466-.775 1.161-1.162 2.085-1.162zM68.03 185h-2.072v-6.79h-2.506v-1.386h.728c.635 0 1.13-.163 1.484-.49.29-.261.462-.653.518-1.176l.014-.126h1.834V185z"/><path fill="#1A1A1A" d="M20.572 208.236v3.87h5.418v-3.87c0-.492-.084-.804-.252-.936-.156-.132-.552-.234-1.188-.306v-.63h5.508v.63c-.636.072-1.038.174-1.206.306-.156.132-.234.444-.234.936v8.892c0 .492.078.804.234.936.168.132.57.234 1.206.306v.63H24.55v-.63c.636-.072 1.032-.174 1.188-.306.168-.132.252-.444.252-.936v-4.158h-5.418v4.158c0 .492.078.804.234.936.168.132.57.234 1.206.306v.63h-5.526v-.63c.636-.072 1.032-.174 1.188-.306.168-.132.252-.444.252-.936v-8.892c0-.492-.084-.804-.252-.936-.156-.132-.552-.234-1.188-.306v-.63h5.526v.63c-.636.072-1.038.174-1.206.306-.156.132-.234.444-.234.936zm15.454 10.296c.648 0 1.128-.342 1.44-1.026.324-.684.486-1.638.486-2.862 0-1.416-.174-2.55-.522-3.402-.336-.864-.846-1.296-1.53-1.296-.648 0-1.134.342-1.458 1.026-.324.684-.486 1.632-.486 2.844 0 1.416.174 2.556.522 3.42.348.864.864 1.296 1.548 1.296zm-.09.648c-1.38 0-2.496-.432-3.348-1.296-.852-.864-1.278-2.01-1.278-3.438 0-1.524.438-2.766 1.314-3.726.888-.96 2.01-1.44 3.366-1.44 1.38 0 2.496.438 3.348 1.314.852.876 1.278 2.022 1.278 3.438 0 1.512-.444 2.748-1.332 3.708-.876.96-1.992 1.44-3.348 1.44zm18.384-1.566v-5.274c0-.528-.102-.918-.306-1.17-.204-.252-.534-.378-.99-.378-.552 0-1.17.252-1.854.756v6.066c0 .3.066.504.198.612.144.096.432.156.864.18V219h-4.644v-.594c.432-.024.72-.084.864-.18.144-.096.216-.3.216-.612v-5.274c0-.528-.102-.918-.306-1.17-.204-.252-.534-.378-.99-.378-.528 0-1.152.246-1.872.738v6.084c0 .3.072.504.216.612.144.096.432.156.864.18V219h-4.698v-.594c.444-.024.744-.084.9-.18.156-.108.234-.312.234-.612v-6.372l-1.08-.63v-.342l3.222-.99h.414l-.072 1.782c.924-1.188 1.998-1.782 3.222-1.782 1.332 0 2.112.606 2.34 1.818.96-1.212 2.058-1.818 3.294-1.818 1.644 0 2.466.966 2.466 2.898v5.436c0 .3.078.504.234.612.156.096.45.156.882.18V219h-4.68v-.594c.432-.024.714-.084.846-.18.144-.108.216-.312.216-.612zm9.155-8.334c1.176 0 2.082.348 2.718 1.044.636.696.954 1.602.954 2.718v.414H61.28c-.036 1.236.228 2.214.792 2.934.564.72 1.296 1.08 2.196 1.08 1.116 0 2.01-.486 2.682-1.458l.288.162c-.24.924-.69 1.656-1.35 2.196-.66.54-1.494.81-2.502.81-1.296 0-2.346-.432-3.15-1.296-.804-.876-1.206-2.01-1.206-3.402 0-1.512.426-2.754 1.278-3.726.864-.984 1.92-1.476 3.168-1.476zm-.18.666c-.576 0-1.032.258-1.368.774-.336.516-.54 1.206-.612 2.07h3.6c0-1.896-.54-2.844-1.62-2.844zm14.168 8.55c.744 0 1.338-.372 1.782-1.116.444-.756.666-1.704.666-2.844 0-1.152-.216-2.064-.648-2.736-.42-.672-1.038-1.008-1.854-1.008-.6 0-1.128.21-1.584.63v5.004c0 1.38.546 2.07 1.638 2.07zm-4.14 2.934v-10.188l-1.08-.63v-.342l3.222-.99h.432l-.072 1.692c.744-1.128 1.752-1.692 3.024-1.692 1.104 0 1.974.384 2.61 1.152.648.768.972 1.842.972 3.222 0 1.716-.456 3.066-1.368 4.05-.9.984-2.046 1.476-3.438 1.476-.816 0-1.416-.168-1.8-.504v2.7c0 .324.09.534.27.63.192.096.594.168 1.206.216v.594h-5.094v-.594c.432-.024.726-.09.882-.198.156-.096.234-.294.234-.594zm14.009-12.15v8.334c0 .3.078.504.234.612.156.096.456.156.9.18V219h-4.752v-.594c.444-.024.744-.084.9-.18.156-.108.234-.312.234-.612v-6.372l-1.08-.63v-.342l3.168-.99h.396zm-1.278-1.08a1.411 1.411 0 0 1-1.458-1.422c0-.396.138-.732.414-1.008.276-.276.624-.414 1.044-.414.432 0 .786.138 1.062.414.276.276.414.612.414 1.008 0 .384-.138.72-.414 1.008-.276.276-.63.414-1.062.414zm5.77 5.31c0 1.188.258 2.136.774 2.844.516.696 1.224 1.044 2.124 1.044 1.08 0 1.92-.444 2.52-1.332l.306.18c-.276.972-.732 1.704-1.368 2.196-.636.492-1.422.738-2.358.738-1.224 0-2.232-.42-3.024-1.26-.78-.852-1.17-1.974-1.17-3.366 0-1.524.426-2.784 1.278-3.78.852-.996 1.98-1.494 3.384-1.494.912 0 1.638.186 2.178.558.54.36.81.876.81 1.548 0 .588-.228.99-.684 1.206h-1.368a7.68 7.68 0 0 0 .072-.882c0-1.164-.438-1.746-1.314-1.746-.672 0-1.2.336-1.584 1.008-.384.66-.576 1.506-.576 2.538zm10.521.378 2.826-2.574c.348-.3.522-.552.522-.756 0-.156-.078-.264-.234-.324-.144-.06-.45-.12-.918-.18v-.594h3.834v.594c-.636.12-1.122.342-1.458.666l-2.394 2.214 4.248 5.652V219h-2.664l-3.762-5.112zm-2.664 3.726v-10.908l-1.08-.558v-.378l3.186-.864h.396v12.708c0 .3.078.504.234.612.156.096.45.156.882.18V219h-4.734v-.594c.432-.024.726-.084.882-.18.156-.108.234-.312.234-.612zm19.021-6.21v5.688c0 .336.036.558.108.666.084.108.288.174.612.198l.45.036v.54l-3.276.648h-.45l.054-1.728c-.468.528-.948.948-1.44 1.26-.492.312-1.056.468-1.692.468-.816 0-1.458-.24-1.926-.72-.456-.48-.684-1.212-.684-2.196v-4.68c0-.312-.054-.54-.162-.684-.108-.156-.33-.264-.666-.324l-.288-.054v-.54l3.312-.684h.396l-.09 2.142v4.5c0 1.164.468 1.746 1.404 1.746.528 0 1.14-.228 1.836-.684v-5.418c0-.312-.054-.54-.162-.684-.108-.156-.33-.264-.666-.324l-.27-.054v-.54l3.276-.684h.396l-.072 2.106zm7.368 7.092c.744 0 1.338-.372 1.782-1.116.444-.756.666-1.704.666-2.844 0-1.152-.216-2.064-.648-2.736-.42-.672-1.038-1.008-1.854-1.008-.6 0-1.128.21-1.584.63v5.004c0 1.38.546 2.07 1.638 2.07zm-4.14 2.934v-10.188l-1.08-.63v-.342l3.222-.99h.432l-.072 1.692c.744-1.128 1.752-1.692 3.024-1.692 1.104 0 1.974.384 2.61 1.152.648.768.972 1.842.972 3.222 0 1.716-.456 3.066-1.368 4.05-.9.984-2.046 1.476-3.438 1.476-.816 0-1.416-.168-1.8-.504v2.7c0 .324.09.534.27.63.192.096.594.168 1.206.216v.594h-5.094v-.594c.432-.024.726-.09.882-.198.156-.096.234-.294.234-.594zM19.168 254H17.36v-1.616h1.808V254zm4.531 0h-1.808v-1.616H23.7V254zm4.531 0h-1.808v-1.616h1.808V254zm4.532 0h-1.808v-1.616h1.808V254zm4.531 0h-1.808v-1.616h1.808V254zm4.531 0h-1.808v-1.616h1.808V254zm4.532 0h-1.809v-1.616h1.809V254zm4.53 0H49.08v-1.616h1.808V254zm4.532 0H53.61v-1.616h1.808V254zm4.531 0h-1.808v-1.616h1.808V254zm4.532 0h-1.808v-1.616h1.808V254zm4.53 0h-1.807v-1.616h1.808V254zm4.532 0h-1.808v-1.616h1.808V254zm4.531 0h-1.808v-1.616h1.808V254zm4.532 0h-1.808v-1.616h1.808V254zm4.53 0H85.33v-1.616h1.808V254zm4.532 0H89.86v-1.616h1.808V254zm4.531 0h-1.808v-1.616H96.2V254zm4.532 0h-1.808v-1.616h1.808V254zm4.531 0h-1.808v-1.616h1.808V254zm4.531 0h-1.808v-1.616h1.808V254zm4.531 0h-1.808v-1.616h1.808V254zm4.532 0h-1.808v-1.616h1.808V254zm4.531 0h-1.808v-1.616h1.808V254zm4.531 0h-1.808v-1.616h1.808V254zm4.531 0h-1.808v-1.616h1.808V254zm4.532 0h-1.808v-1.616h1.808V254zm4.531 0h-1.808v-1.616h1.808V254zm4.531 0h-1.808v-1.616h1.808V254zm4.531 0h-1.808v-1.616h1.808V254zm4.532 0h-1.808v-1.616h1.808V254zm4.531 0h-1.808v-1.616h1.808V254zm4.531 0h-1.808v-1.616h1.808V254zm4.531 0h-1.808v-1.616h1.808V254zm4.532 0h-1.808v-1.616h1.808V254zm4.531 0h-1.808v-1.616h1.808V254zm4.531 0h-1.808v-1.616h1.808V254zm4.531 0h-1.808v-1.616h1.808V254zm4.532 0h-1.808v-1.616h1.808V254zm4.531 0h-1.808v-1.616h1.808V254zm4.531 0h-1.808v-1.616h1.808V254zm4.531 0h-1.808v-1.616h1.808V254zm4.532 0h-1.808v-1.616h1.808V254zm4.531 0h-1.808v-1.616h1.808V254zm4.531 0h-1.808v-1.616h1.808V254zm4.531 0h-1.808v-1.616h1.808V254zm4.532 0h-1.808v-1.616h1.808V254zm4.531 0h-1.808v-1.616h1.808V254zm4.531 0h-1.808v-1.616h1.808V254zm4.531 0h-1.808v-1.616h1.808V254zm4.532 0h-1.808v-1.616h1.808V254zm4.531 0h-1.808v-1.616h1.808V254zm4.531 0h-1.808v-1.616h1.808V254zm4.531 0h-1.808v-1.616h1.808V254zm4.532 0h-1.808v-1.616h1.808V254zm4.531 0h-1.808v-1.616h1.808V254zm4.531 0h-1.808v-1.616h1.808V254zm4.531 0h-1.808v-1.616h1.808V254zm4.532 0h-1.808v-1.616h1.808V254zm4.531 0h-1.808v-1.616h1.808V254zm4.531 0h-1.808v-1.616h1.808V254zm4.531 0h-1.808v-1.616h1.808V254zm4.532 0h-1.808v-1.616h1.808V254zm4.531 0h-1.808v-1.616h1.808V254zm4.531 0h-1.808v-1.616h1.808V254zm4.531 0h-1.808v-1.616h1.808V254zm4.532 0h-1.808v-1.616h1.808V254zm4.531 0h-1.808v-1.616h1.808V254zm4.531 0h-1.808v-1.616h1.808V254zm4.531 0h-1.808v-1.616h1.808V254zm4.532 0h-1.808v-1.616h1.808V254zm4.531 0h-1.808v-1.616h1.808V254zm4.531 0h-1.808v-1.616h1.808V254zm4.531 0h-1.808v-1.616h1.808V254zm4.532 0h-1.808v-1.616h1.808V254zM19.168 278H17.36v-1.616h1.808V278zm4.531 0h-1.808v-1.616H23.7V278zm4.531 0h-1.808v-1.616h1.808V278zm4.532 0h-1.808v-1.616h1.808V278zm4.531 0h-1.808v-1.616h1.808V278zm4.531 0h-1.808v-1.616h1.808V278zm4.532 0h-1.809v-1.616h1.809V278zm4.53 0H49.08v-1.616h1.808V278zm4.532 0H53.61v-1.616h1.808V278zm4.531 0h-1.808v-1.616h1.808V278zm4.532 0h-1.808v-1.616h1.808V278zm4.53 0h-1.807v-1.616h1.808V278zm4.532 0h-1.808v-1.616h1.808V278zm4.531 0h-1.808v-1.616h1.808V278zm4.532 0h-1.808v-1.616h1.808V278zm4.53 0H85.33v-1.616h1.808V278zm4.532 0H89.86v-1.616h1.808V278zm4.531 0h-1.808v-1.616H96.2V278zm4.532 0h-1.808v-1.616h1.808V278zm4.531 0h-1.808v-1.616h1.808V278zm4.531 0h-1.808v-1.616h1.808V278zm4.531 0h-1.808v-1.616h1.808V278zm4.532 0h-1.808v-1.616h1.808V278zm4.531 0h-1.808v-1.616h1.808V278zm4.531 0h-1.808v-1.616h1.808V278zm4.531 0h-1.808v-1.616h1.808V278zm4.532 0h-1.808v-1.616h1.808V278zm4.531 0h-1.808v-1.616h1.808V278zm4.531 0h-1.808v-1.616h1.808V278zm4.531 0h-1.808v-1.616h1.808V278zm4.532 0h-1.808v-1.616h1.808V278zm4.531 0h-1.808v-1.616h1.808V278zm4.531 0h-1.808v-1.616h1.808V278zm4.531 0h-1.808v-1.616h1.808V278zm4.532 0h-1.808v-1.616h1.808V278zm4.531 0h-1.808v-1.616h1.808V278zm4.531 0h-1.808v-1.616h1.808V278zm4.531 0h-1.808v-1.616h1.808V278zm4.532 0h-1.808v-1.616h1.808V278zm4.531 0h-1.808v-1.616h1.808V278zm4.531 0h-1.808v-1.616h1.808V278zm4.531 0h-1.808v-1.616h1.808V278zm4.532 0h-1.808v-1.616h1.808V278zm4.531 0h-1.808v-1.616h1.808V278zm4.531 0h-1.808v-1.616h1.808V278zm4.531 0h-1.808v-1.616h1.808V278zm4.532 0h-1.808v-1.616h1.808V278zm4.531 0h-1.808v-1.616h1.808V278z"/><rect width="343" height="48" x="16" y="316" fill="#1A1A1A" rx="24"/><path fill="#fff" d="M107.846 340.528c.566.117.971.331 1.216.64.246.299.406.704.48 1.216l.464 3.616h-2.432l-.272-2.928c-.053-.523-.213-.901-.48-1.136-.256-.235-.672-.352-1.248-.352h-2.096V346h-2.368v-11.392h5.312c1.259 0 2.176.293 2.752.88.566.597.848 1.349.848 2.256 0 1.472-.725 2.4-2.176 2.784zm-4.368-3.936v3.072h2.272c.651 0 1.136-.139 1.456-.416.331-.288.496-.683.496-1.184 0-.459-.138-.816-.416-1.072-.266-.267-.672-.4-1.216-.4h-2.592zm16.096 5.568v.384h-5.984c.043.619.235 1.104.576 1.456.342.352.795.528 1.36.528.8 0 1.334-.357 1.6-1.072l2.24.16c-.277.875-.741 1.541-1.392 2-.65.448-1.45.672-2.4.672-1.333 0-2.384-.416-3.152-1.248-.768-.832-1.152-1.899-1.152-3.2 0-1.248.368-2.277 1.104-3.088.736-.811 1.723-1.216 2.96-1.216 1.248 0 2.267.416 3.056 1.248.79.843 1.184 1.968 1.184 3.376zm-2.336-1.152c-.064-.576-.256-1.024-.576-1.344-.32-.32-.736-.48-1.248-.48s-.933.16-1.264.48c-.33.341-.522.789-.576 1.344h3.664zm9.92 4.56c-.65.491-1.541.736-2.672.736-1.13 0-2.005-.24-2.624-.72-.629-.48-1.002-1.163-1.12-2.048l2.064-.08c.15.853.736 1.28 1.76 1.28.459 0 .822-.08 1.088-.24.267-.16.4-.384.4-.672 0-.405-.362-.683-1.088-.832l-1.632-.32c-1.6-.32-2.4-1.125-2.4-2.416 0-.832.304-1.493.912-1.984.608-.491 1.424-.736 2.448-.736.992 0 1.808.24 2.448.72.64.469 1.014 1.109 1.12 1.92l-2.032.08a1.205 1.205 0 0 0-.512-.848c-.277-.203-.629-.304-1.056-.304-.373 0-.672.08-.896.24a.749.749 0 0 0-.336.64c0 .416.31.693.928.832l1.776.368c.822.171 1.43.448 1.824.832.395.384.592.896.592 1.536 0 .864-.33 1.536-.992 2.016zm10.385-3.408v.384h-5.984c.043.619.235 1.104.576 1.456.341.352.795.528 1.36.528.8 0 1.333-.357 1.6-1.072l2.24.16c-.277.875-.741 1.541-1.392 2-.651.448-1.451.672-2.4.672-1.333 0-2.384-.416-3.152-1.248-.768-.832-1.152-1.899-1.152-3.2 0-1.248.368-2.277 1.104-3.088.736-.811 1.723-1.216 2.96-1.216 1.248 0 2.267.416 3.056 1.248.789.843 1.184 1.968 1.184 3.376zm-2.336-1.152c-.064-.576-.256-1.024-.576-1.344-.32-.32-.736-.48-1.248-.48s-.933.16-1.264.48c-.331.341-.523.789-.576 1.344h3.664zm7.84-3.552c.267 0 .507.037.72.112v2.064a14.846 14.846 0 0 0-.464-.032c-1.365 0-2.048.795-2.048 2.384V346h-2.256v-8.256h2.208l-.032 1.104c.363-.928.987-1.392 1.872-1.392zm6.155 2.768.752-2.48h2.272l-2.72 8.256h-2.304l-2.72-8.256h2.384l.688 2.48.848 3.6.8-3.6zm11.935 1.936v.384h-5.984c.042.619.234 1.104.576 1.456.341.352.794.528 1.36.528.8 0 1.333-.357 1.6-1.072l2.24.16c-.278.875-.742 1.541-1.392 2-.651.448-1.451.672-2.4.672-1.334 0-2.384-.416-3.152-1.248-.768-.832-1.152-1.899-1.152-3.2 0-1.248.368-2.277 1.104-3.088.736-.811 1.722-1.216 2.96-1.216 1.248 0 2.266.416 3.056 1.248.789.843 1.184 1.968 1.184 3.376zm-2.336-1.152c-.064-.576-.256-1.024-.576-1.344-.32-.32-.736-.48-1.248-.48s-.934.16-1.264.48c-.331.341-.523.789-.576 1.344h3.664zm14.624 4.016c-.779.832-1.792 1.248-3.04 1.248s-2.262-.416-3.04-1.248c-.79-.821-1.184-1.861-1.184-3.12 0-1.248.394-2.293 1.184-3.136.789-.821 1.802-1.232 3.04-1.232 1.237 0 2.25.411 3.04 1.232.789.843 1.184 1.888 1.184 3.136 0 1.259-.395 2.299-1.184 3.12zm-5.088-3.12c0 .8.186 1.435.56 1.904.373.469.869.704 1.488.704.629 0 1.13-.235 1.504-.704.362-.459.544-1.093.544-1.904 0-.811-.182-1.445-.544-1.904-.374-.469-.875-.704-1.504-.704-.619 0-1.115.235-1.488.704-.374.469-.56 1.104-.56 1.904zm12.349-4.368c.853 0 1.514.261 1.984.784.48.523.72 1.237.72 2.144V346h-2.256v-5.024c0-.448-.107-.795-.32-1.04-.203-.245-.496-.368-.88-.368-.48 0-.87.187-1.168.56-.299.363-.448.848-.448 1.456V346h-2.256v-8.256h2.208l.032 1.12c.533-.885 1.328-1.328 2.384-1.328zm16.754-2.928v2.112h-5.68v2.448h4.96v2.112h-4.96V346h-2.368v-11.392h8.048zM205.639 346h-2.288a22.27 22.27 0 0 1-.176-.832c-.586.715-1.434 1.072-2.544 1.072-.864 0-1.557-.229-2.08-.688-.522-.459-.784-1.067-.784-1.824 0-1.333.838-2.165 2.512-2.496l2.88-.576v-.608c0-.597-.464-.896-1.392-.896-.458 0-.805.085-1.04.256-.234.171-.378.448-.432.832l-2.064-.032c.139-1.771 1.312-2.656 3.52-2.656 2.379 0 3.568 1.024 3.568 3.072v3.648c0 .779.107 1.355.32 1.728zm-4.368-1.424c.566 0 1.019-.165 1.36-.496.352-.341.528-.8.528-1.376v-.608l-2.112.448c-.714.139-1.072.485-1.072 1.04a.88.88 0 0 0 .336.72c.235.181.555.272.96.272zm10.586-7.04c.854 0 1.515.261 1.984.784.48.523.72 1.237.72 2.144V346h-2.256v-5.024c0-.448-.106-.795-.32-1.04-.202-.245-.496-.368-.88-.368-.48 0-.869.187-1.168.56-.298.363-.448.848-.448 1.456V346h-2.256v-8.256h2.208l.032 1.12c.534-.885 1.328-1.328 2.384-1.328zm13.522 8.832c-1.546 0-2.816-.555-3.808-1.664s-1.488-2.576-1.488-4.4c0-1.813.502-3.259 1.504-4.336 1.014-1.077 2.288-1.616 3.824-1.616 1.387 0 2.507.363 3.36 1.088.854.715 1.334 1.696 1.44 2.944h-2.256c-.096-.629-.357-1.115-.784-1.456-.416-.352-.965-.528-1.648-.528-.96 0-1.712.352-2.256 1.056-.544.704-.816 1.653-.816 2.848 0 1.237.272 2.219.816 2.944.544.715 1.296 1.072 2.256 1.072.694 0 1.248-.187 1.664-.56.416-.373.672-.869.768-1.488h2.24c-.096 1.28-.57 2.283-1.424 3.008-.853.725-1.984 1.088-3.392 1.088zm13.03-1.344c-.778.832-1.792 1.248-3.04 1.248s-2.261-.416-3.04-1.248c-.789-.821-1.184-1.861-1.184-3.12 0-1.248.395-2.293 1.184-3.136.79-.821 1.803-1.232 3.04-1.232 1.238 0 2.251.411 3.04 1.232.79.843 1.184 1.888 1.184 3.136 0 1.259-.394 2.299-1.184 3.12zm-5.088-3.12c0 .8.187 1.435.56 1.904.374.469.87.704 1.488.704.63 0 1.131-.235 1.504-.704.363-.459.544-1.093.544-1.904 0-.811-.181-1.445-.544-1.904-.373-.469-.874-.704-1.504-.704-.618 0-1.114.235-1.488.704-.373.469-.56 1.104-.56 1.904zm12.797.256v-4.416h2.256V346h-2.208l-.032-1.12c-.533.885-1.328 1.328-2.384 1.328-.853 0-1.52-.261-2-.784-.469-.523-.704-1.237-.704-2.144v-5.536h2.256v5.024c0 .448.101.795.304 1.04.213.245.512.368.896.368.48 0 .869-.181 1.168-.544.299-.373.448-.864.448-1.472zm8.226-4.704c.267 0 .507.037.72.112v2.064a14.846 14.846 0 0 0-.464-.032c-1.365 0-2.048.795-2.048 2.384V346h-2.256v-8.256h2.208l-.032 1.104c.363-.928.987-1.392 1.872-1.392zm4.255-.8h-2.256v-2.048h2.256v2.048zm0 9.344h-2.256v-8.256h2.256V346zm9.788-3.84v.384h-5.984c.042.619.234 1.104.576 1.456.341.352.794.528 1.36.528.8 0 1.333-.357 1.6-1.072l2.24.16c-.278.875-.742 1.541-1.392 2-.651.448-1.451.672-2.4.672-1.334 0-2.384-.416-3.152-1.248-.768-.832-1.152-1.899-1.152-3.2 0-1.248.368-2.277 1.104-3.088.736-.811 1.722-1.216 2.96-1.216 1.248 0 2.266.416 3.056 1.248.789.843 1.184 1.968 1.184 3.376zm-2.336-1.152c-.064-.576-.256-1.024-.576-1.344-.32-.32-.736-.48-1.248-.48s-.934.16-1.264.48c-.331.341-.523.789-.576 1.344h3.664zm7.84-3.552c.266 0 .506.037.72.112v2.064a15.077 15.077 0 0 0-.464-.032c-1.366 0-2.048.795-2.048 2.384V346h-2.256v-8.256h2.208l-.032 1.104c.362-.928.986-1.392 1.872-1.392z"/><path fill="#1A1A1A" d="M23.856 404.008v-4.4h2.368V411h-2.368v-4.88h-4.448V411H17.04v-11.392h2.368v4.4h4.448zm11.202 6.016c-.779.832-1.792 1.248-3.04 1.248s-2.262-.416-3.04-1.248c-.79-.821-1.184-1.861-1.184-3.12 0-1.248.394-2.293 1.184-3.136.789-.821 1.802-1.232 3.04-1.232 1.237 0 2.25.411 3.04 1.232.789.843 1.184 1.888 1.184 3.136 0 1.259-.395 2.299-1.184 3.12zm-5.088-3.12c0 .8.186 1.435.56 1.904.373.469.869.704 1.488.704.629 0 1.13-.235 1.504-.704.362-.459.544-1.093.544-1.904 0-.811-.182-1.445-.544-1.904-.374-.469-.875-.704-1.504-.704-.619 0-1.115.235-1.488.704-.374.469-.56 1.104-.56 1.904zm15.52-.496.912-3.664h2.368L46.322 411h-2.144l-1.184-4.592-.192-1.088-.208 1.088L41.41 411h-2.144l-2.448-8.256h2.368l.912 3.664.384 2.08.384-2.08.928-3.664h2l.928 3.632.384 2.112.384-2.08zm10.742-4.752h-2.256v-2.048h2.256v2.048zm0 9.344h-2.256v-8.256h2.256V411zm6.108-6.592-1.537-.048v4.048c0 .277.06.48.177.608.128.117.33.176.608.176h.752V411h-1.473c-.831 0-1.429-.176-1.791-.528-.352-.363-.529-.96-.529-1.792v-4.32l-1.12.048v-1.664l1.12.032V400.2h2.257v2.592l1.535-.048v1.664zm13.228 2 .912-3.664h2.368L76.4 411h-2.144l-1.184-4.592-.192-1.088-.208 1.088L71.488 411h-2.144l-2.448-8.256h2.368l.912 3.664.384 2.08.384-2.08.928-3.664h2l.928 3.632.384 2.112.384-2.08zm11.162 3.616c-.78.832-1.793 1.248-3.04 1.248-1.248 0-2.262-.416-3.04-1.248-.79-.821-1.184-1.861-1.184-3.12 0-1.248.394-2.293 1.184-3.136.789-.821 1.802-1.232 3.04-1.232 1.237 0 2.25.411 3.04 1.232.789.843 1.183 1.888 1.183 3.136 0 1.259-.394 2.299-1.183 3.12zm-5.089-3.12c0 .8.187 1.435.56 1.904.374.469.87.704 1.489.704.629 0 1.13-.235 1.504-.704.362-.459.543-1.093.543-1.904 0-.811-.18-1.445-.543-1.904-.374-.469-.875-.704-1.505-.704-.618 0-1.114.235-1.487.704-.374.469-.56 1.104-.56 1.904zm11.773-4.448c.267 0 .507.037.72.112v2.064a14.938 14.938 0 0 0-.464-.032c-1.365 0-2.048.795-2.048 2.384V411h-2.256v-8.256h2.208l-.032 1.104c.363-.928.987-1.392 1.872-1.392zm9.951 8.544h-2.672l-2.192-3.584-.832.848V411h-2.256v-11.392h2.256v6.256l2.8-3.12h2.832l-3.216 3.248 3.28 5.008zm7.332-.432c-.65.491-1.541.736-2.672.736-1.13 0-2.005-.24-2.624-.72-.629-.48-1.002-1.163-1.12-2.048l2.064-.08c.15.853.736 1.28 1.76 1.28.459 0 .822-.08 1.088-.24.267-.16.4-.384.4-.672 0-.405-.362-.683-1.088-.832l-1.632-.32c-1.6-.32-2.4-1.125-2.4-2.416 0-.832.304-1.493.912-1.984.608-.491 1.424-.736 2.448-.736.992 0 1.808.24 2.448.72.64.469 1.014 1.109 1.12 1.92l-2.032.08a1.205 1.205 0 0 0-.512-.848c-.277-.203-.629-.304-1.056-.304-.373 0-.672.08-.896.24a.749.749 0 0 0-.336.64c0 .416.31.693.928.832l1.776.368c.822.171 1.43.448 1.824.832.395.384.592.896.592 1.536 0 .864-.33 1.536-.992 2.016zm248.73-1.281a.675.675 0 0 1-.954 0l-6.795-6.795a.677.677 0 0 0-.955 0l-6.795 6.795a.677.677 0 0 1-.955 0 .677.677 0 0 1 0-.955l6.796-6.795a2.027 2.027 0 0 1 2.863 0l6.795 6.795a.673.673 0 0 1 0 .955z"/><path fill="#1A1A1A" fill-rule="evenodd" d="M48 495.029c13.807 0 25-11.193 25-25s-11.193-25-25-25-25 11.193-25 25 11.193 25 25 25zm0 2c14.912 0 27-12.088 27-27 0-14.911-12.088-27-27-27s-27 12.089-27 27c0 14.912 12.088 27 27 27z" clip-rule="evenodd"/><path fill="#1A1A1A" fill-rule="evenodd" d="M36 481.029a1 1 0 0 1 1-1h22a1 1 0 0 1 0 2H37a1 1 0 0 1-1-1z" clip-rule="evenodd"/><path fill="#1A1A1A" d="M21.456 532.397c-1.472 0-2.64-.346-3.504-1.04-.853-.693-1.296-1.648-1.328-2.864h2.32c.032.63.267 1.115.704 1.456.437.342 1.035.512 1.792.512.65 0 1.163-.122 1.536-.368.373-.256.56-.608.56-1.056 0-.373-.133-.656-.4-.848-.267-.202-.715-.384-1.344-.544l-2.096-.528c-.896-.224-1.59-.608-2.08-1.152-.48-.544-.72-1.216-.72-2.016 0-.992.368-1.834 1.104-2.528.725-.693 1.776-1.04 3.152-1.04 1.376 0 2.475.342 3.296 1.024.821.694 1.27 1.6 1.344 2.72h-2.304c-.075-.565-.32-1.008-.736-1.328-.416-.32-.944-.48-1.584-.48-.576 0-1.035.128-1.376.384-.341.256-.512.587-.512.992 0 .63.443 1.056 1.328 1.28l2.272.56c2.07.502 3.104 1.595 3.104 3.28 0 1.11-.405 1.984-1.216 2.624-.8.64-1.904.96-3.312.96zm10.305-6.96-1.536-.048v4.048c0 .278.059.48.176.608.128.118.331.176.608.176h.752v1.808H30.29c-.832 0-1.429-.176-1.792-.528-.352-.362-.528-.96-.528-1.792v-4.32l-1.12.048v-1.664l1.12.032v-2.576h2.256v2.592l1.536-.048v1.664zm9.15 2.752v.384h-5.985c.043.619.235 1.104.576 1.456.341.352.795.528 1.36.528.8 0 1.334-.357 1.6-1.072l2.24.16c-.277.875-.741 1.542-1.392 2-.65.448-1.45.672-2.4.672-1.333 0-2.384-.416-3.152-1.248-.768-.832-1.152-1.898-1.152-3.2 0-1.248.368-2.277 1.104-3.088.736-.81 1.723-1.216 2.96-1.216 1.248 0 2.267.416 3.056 1.248.79.843 1.184 1.968 1.184 3.376zm-2.337-1.152c-.064-.576-.256-1.024-.576-1.344-.32-.32-.736-.48-1.248-.48s-.933.16-1.264.48c-.33.342-.522.79-.576 1.344h3.664zm8.448-3.472c.97 0 1.776.39 2.416 1.168.64.79.96 1.835.96 3.136 0 1.312-.33 2.379-.992 3.2-.661.822-1.514 1.232-2.56 1.232-.938 0-1.68-.346-2.224-1.04v4.032h-2.256v-11.52h2l.08 1.072c.566-.853 1.424-1.28 2.576-1.28zm-.656 6.752c.555 0 1.003-.224 1.344-.672.342-.448.512-1.04.512-1.776s-.17-1.322-.512-1.76c-.341-.448-.79-.672-1.344-.672s-1.002.224-1.344.672c-.341.438-.512 1.024-.512 1.76s.17 1.328.512 1.776c.352.448.8.672 1.344.672zm14.285 1.712h-2.368v-7.76h-2.864v-1.584h.832c.725 0 1.29-.186 1.696-.56.33-.298.528-.746.592-1.344l.016-.144h2.096v11.392zm-41.483 28H17.36v-1.616h1.808v1.616zm4.531 0h-1.808v-1.616H23.7v1.616zm4.531 0h-1.808v-1.616h1.808v1.616zm4.532 0h-1.808v-1.616h1.808v1.616zm4.531 0h-1.808v-1.616h1.808v1.616zm4.531 0h-1.808v-1.616h1.808v1.616zm4.532 0h-1.809v-1.616h1.809v1.616zm4.53 0H49.08v-1.616h1.808v1.616zm4.532 0H53.61v-1.616h1.808v1.616zm4.531 0h-1.808v-1.616h1.808v1.616zm4.532 0h-1.808v-1.616h1.808v1.616zm4.53 0h-1.807v-1.616h1.808v1.616zm4.532 0h-1.808v-1.616h1.808v1.616zm4.531 0h-1.808v-1.616h1.808v1.616zm4.532 0h-1.808v-1.616h1.808v1.616zm4.53 0H85.33v-1.616h1.808v1.616zm4.532 0H89.86v-1.616h1.808v1.616zm4.531 0h-1.808v-1.616H96.2v1.616zm4.532 0h-1.808v-1.616h1.808v1.616zm4.531 0h-1.808v-1.616h1.808v1.616zm4.531 0h-1.808v-1.616h1.808v1.616zm4.531 0h-1.808v-1.616h1.808v1.616zm4.532 0h-1.808v-1.616h1.808v1.616zm4.531 0h-1.808v-1.616h1.808v1.616zm4.531 0h-1.808v-1.616h1.808v1.616zm4.531 0h-1.808v-1.616h1.808v1.616zm4.532 0h-1.808v-1.616h1.808v1.616zm4.531 0h-1.808v-1.616h1.808v1.616zm4.531 0h-1.808v-1.616h1.808v1.616zm4.531 0h-1.808v-1.616h1.808v1.616zm4.532 0h-1.808v-1.616h1.808v1.616zm4.531 0h-1.808v-1.616h1.808v1.616zm4.531 0h-1.808v-1.616h1.808v1.616zm4.531 0h-1.808v-1.616h1.808v1.616zm4.532 0h-1.808v-1.616h1.808v1.616zm4.531 0h-1.808v-1.616h1.808v1.616zm4.531 0h-1.808v-1.616h1.808v1.616zm4.531 0h-1.808v-1.616h1.808v1.616zm4.532 0h-1.808v-1.616h1.808v1.616zm4.531 0h-1.808v-1.616h1.808v1.616zm4.531 0h-1.808v-1.616h1.808v1.616zm4.531 0h-1.808v-1.616h1.808v1.616zm4.532 0h-1.808v-1.616h1.808v1.616zm4.531 0h-1.808v-1.616h1.808v1.616zm4.531 0h-1.808v-1.616h1.808v1.616zm4.531 0h-1.808v-1.616h1.808v1.616zm4.532 0h-1.808v-1.616h1.808v1.616zm4.531 0h-1.808v-1.616h1.808v1.616zm4.531 0h-1.808v-1.616h1.808v1.616zm4.531 0h-1.808v-1.616h1.808v1.616zm4.532 0h-1.808v-1.616h1.808v1.616zm4.531 0h-1.808v-1.616h1.808v1.616zm4.531 0h-1.808v-1.616h1.808v1.616zm4.531 0h-1.808v-1.616h1.808v1.616zm4.532 0h-1.808v-1.616h1.808v1.616zm4.531 0h-1.808v-1.616h1.808v1.616zm4.531 0h-1.808v-1.616h1.808v1.616zm4.531 0h-1.808v-1.616h1.808v1.616zm4.532 0h-1.808v-1.616h1.808v1.616zm4.531 0h-1.808v-1.616h1.808v1.616zm4.531 0h-1.808v-1.616h1.808v1.616zm4.531 0h-1.808v-1.616h1.808v1.616zm4.532 0h-1.808v-1.616h1.808v1.616zm4.531 0h-1.808v-1.616h1.808v1.616zm4.531 0h-1.808v-1.616h1.808v1.616zm4.531 0h-1.808v-1.616h1.808v1.616zm4.532 0h-1.808v-1.616h1.808v1.616zm4.531 0h-1.808v-1.616h1.808v1.616zm4.531 0h-1.808v-1.616h1.808v1.616zm4.531 0h-1.808v-1.616h1.808v1.616zm4.532 0h-1.808v-1.616h1.808v1.616zm4.531 0h-1.808v-1.616h1.808v1.616zm4.531 0h-1.808v-1.616h1.808v1.616zm4.531 0h-1.808v-1.616h1.808v1.616zm4.532 0h-1.808v-1.616h1.808v1.616zm-335.313 24H17.36v-1.616h1.808v1.616zm4.531 0h-1.808v-1.616H23.7v1.616zm4.531 0h-1.808v-1.616h1.808v1.616zm4.532 0h-1.808v-1.616h1.808v1.616zm4.531 0h-1.808v-1.616h1.808v1.616zm4.531 0h-1.808v-1.616h1.808v1.616zm4.532 0h-1.809v-1.616h1.809v1.616zm4.53 0H49.08v-1.616h1.808v1.616zm4.532 0H53.61v-1.616h1.808v1.616zm4.531 0h-1.808v-1.616h1.808v1.616zm4.532 0h-1.808v-1.616h1.808v1.616zm4.53 0h-1.807v-1.616h1.808v1.616zm4.532 0h-1.808v-1.616h1.808v1.616zm4.531 0h-1.808v-1.616h1.808v1.616zm4.532 0h-1.808v-1.616h1.808v1.616zm4.53 0H85.33v-1.616h1.808v1.616zm4.532 0H89.86v-1.616h1.808v1.616zm4.531 0h-1.808v-1.616H96.2v1.616zm4.532 0h-1.808v-1.616h1.808v1.616zm4.531 0h-1.808v-1.616h1.808v1.616zm4.531 0h-1.808v-1.616h1.808v1.616zm4.531 0h-1.808v-1.616h1.808v1.616zm4.532 0h-1.808v-1.616h1.808v1.616zm4.531 0h-1.808v-1.616h1.808v1.616zm4.531 0h-1.808v-1.616h1.808v1.616zm4.531 0h-1.808v-1.616h1.808v1.616zm4.532 0h-1.808v-1.616h1.808v1.616zm4.531 0h-1.808v-1.616h1.808v1.616zm4.531 0h-1.808v-1.616h1.808v1.616zm4.531 0h-1.808v-1.616h1.808v1.616zm4.532 0h-1.808v-1.616h1.808v1.616zm4.531 0h-1.808v-1.616h1.808v1.616zm4.531 0h-1.808v-1.616h1.808v1.616zm4.531 0h-1.808v-1.616h1.808v1.616zm4.532 0h-1.808v-1.616h1.808v1.616zm4.531 0h-1.808v-1.616h1.808v1.616zm4.531 0h-1.808v-1.616h1.808v1.616zm4.531 0h-1.808v-1.616h1.808v1.616zm4.532 0h-1.808v-1.616h1.808v1.616zm4.531 0h-1.808v-1.616h1.808v1.616zm4.531 0h-1.808v-1.616h1.808v1.616zm4.531 0h-1.808v-1.616h1.808v1.616zm4.532 0h-1.808v-1.616h1.808v1.616zm4.531 0h-1.808v-1.616h1.808v1.616zm4.531 0h-1.808v-1.616h1.808v1.616zm4.531 0h-1.808v-1.616h1.808v1.616zm4.532 0h-1.808v-1.616h1.808v1.616zm4.531 0h-1.808v-1.616h1.808v1.616z"/><path fill="#1A1A1A" fill-rule="evenodd" d="M48 679.029c13.807 0 25-11.193 25-25s-11.193-25-25-25-25 11.193-25 25 11.193 25 25 25zm0 2c14.912 0 27-12.088 27-27 0-14.911-12.088-27-27-27s-27 12.089-27 27c0 14.912 12.088 27 27 27z" clip-rule="evenodd"/><path fill="#1A1A1A" fill-rule="evenodd" d="M36 665.029a1 1 0 0 1 1-1h22a1 1 0 0 1 0 2H37a1 1 0 0 1-1-1z" clip-rule="evenodd"/><path fill="#1A1A1A" d="M21.456 716.397c-1.472 0-2.64-.346-3.504-1.04-.853-.693-1.296-1.648-1.328-2.864h2.32c.032.63.267 1.115.704 1.456.437.342 1.035.512 1.792.512.65 0 1.163-.122 1.536-.368.373-.256.56-.608.56-1.056 0-.373-.133-.656-.4-.848-.267-.202-.715-.384-1.344-.544l-2.096-.528c-.896-.224-1.59-.608-2.08-1.152-.48-.544-.72-1.216-.72-2.016 0-.992.368-1.834 1.104-2.528.725-.693 1.776-1.04 3.152-1.04 1.376 0 2.475.342 3.296 1.024.821.694 1.27 1.6 1.344 2.72h-2.304c-.075-.565-.32-1.008-.736-1.328-.416-.32-.944-.48-1.584-.48-.576 0-1.035.128-1.376.384-.341.256-.512.587-.512.992 0 .63.443 1.056 1.328 1.28l2.272.56c2.07.502 3.104 1.595 3.104 3.28 0 1.11-.405 1.984-1.216 2.624-.8.64-1.904.96-3.312.96zm10.305-6.96-1.536-.048v4.048c0 .278.059.48.176.608.128.118.331.176.608.176h.752v1.808H30.29c-.832 0-1.429-.176-1.792-.528-.352-.362-.528-.96-.528-1.792v-4.32l-1.12.048v-1.664l1.12.032v-2.576h2.256v2.592l1.536-.048v1.664zm9.15 2.752v.384h-5.985c.043.619.235 1.104.576 1.456.341.352.795.528 1.36.528.8 0 1.334-.357 1.6-1.072l2.24.16c-.277.875-.741 1.542-1.392 2-.65.448-1.45.672-2.4.672-1.333 0-2.384-.416-3.152-1.248-.768-.832-1.152-1.898-1.152-3.2 0-1.248.368-2.277 1.104-3.088.736-.81 1.723-1.216 2.96-1.216 1.248 0 2.267.416 3.056 1.248.79.843 1.184 1.968 1.184 3.376zm-2.337-1.152c-.064-.576-.256-1.024-.576-1.344-.32-.32-.736-.48-1.248-.48s-.933.16-1.264.48c-.33.342-.522.79-.576 1.344h3.664zm8.448-3.472c.97 0 1.776.39 2.416 1.168.64.79.96 1.835.96 3.136 0 1.312-.33 2.379-.992 3.2-.661.822-1.514 1.232-2.56 1.232-.938 0-1.68-.346-2.224-1.04v4.032h-2.256v-11.52h2l.08 1.072c.566-.853 1.424-1.28 2.576-1.28zm-.656 6.752c.555 0 1.003-.224 1.344-.672.342-.448.512-1.04.512-1.776s-.17-1.322-.512-1.76c-.341-.448-.79-.672-1.344-.672s-1.002.224-1.344.672c-.341.438-.512 1.024-.512 1.76s.17 1.328.512 1.776c.352.448.8.672 1.344.672zm18.013 1.712h-8.416c0-.906.186-1.69.56-2.352.373-.672.986-1.322 1.84-1.952l2.176-1.6c.437-.33.752-.65.944-.96.202-.309.304-.672.304-1.088 0-.544-.155-.965-.464-1.264-.299-.309-.71-.464-1.232-.464-.544 0-.966.171-1.264.512-.299.331-.448.816-.448 1.456v.32H56.09v-.208c0-1.269.357-2.261 1.072-2.976.714-.714 1.706-1.072 2.976-1.072 1.248 0 2.245.326 2.992.976.757.662 1.136 1.531 1.136 2.608 0 1.483-.774 2.736-2.32 3.76l-1.936 1.28c-.374.246-.63.443-.768.592a.817.817 0 0 0-.224.448h5.36v1.984zm-45.211 28H17.36v-1.616h1.808v1.616zm4.531 0h-1.808v-1.616H23.7v1.616zm4.531 0h-1.808v-1.616h1.808v1.616zm4.532 0h-1.808v-1.616h1.808v1.616zm4.531 0h-1.808v-1.616h1.808v1.616zm4.531 0h-1.808v-1.616h1.808v1.616zm4.532 0h-1.809v-1.616h1.809v1.616zm4.53 0H49.08v-1.616h1.808v1.616zm4.532 0H53.61v-1.616h1.808v1.616zm4.531 0h-1.808v-1.616h1.808v1.616zm4.532 0h-1.808v-1.616h1.808v1.616zm4.53 0h-1.807v-1.616h1.808v1.616zm4.532 0h-1.808v-1.616h1.808v1.616zm4.531 0h-1.808v-1.616h1.808v1.616zm4.532 0h-1.808v-1.616h1.808v1.616zm4.53 0H85.33v-1.616h1.808v1.616zm4.532 0H89.86v-1.616h1.808v1.616zm4.531 0h-1.808v-1.616H96.2v1.616zm4.532 0h-1.808v-1.616h1.808v1.616zm4.531 0h-1.808v-1.616h1.808v1.616zm4.531 0h-1.808v-1.616h1.808v1.616zm4.531 0h-1.808v-1.616h1.808v1.616zm4.532 0h-1.808v-1.616h1.808v1.616zm4.531 0h-1.808v-1.616h1.808v1.616zm4.531 0h-1.808v-1.616h1.808v1.616zm4.531 0h-1.808v-1.616h1.808v1.616zm4.532 0h-1.808v-1.616h1.808v1.616zm4.531 0h-1.808v-1.616h1.808v1.616zm4.531 0h-1.808v-1.616h1.808v1.616zm4.531 0h-1.808v-1.616h1.808v1.616zm4.532 0h-1.808v-1.616h1.808v1.616zm4.531 0h-1.808v-1.616h1.808v1.616zm4.531 0h-1.808v-1.616h1.808v1.616zm4.531 0h-1.808v-1.616h1.808v1.616zm4.532 0h-1.808v-1.616h1.808v1.616zm4.531 0h-1.808v-1.616h1.808v1.616zm4.531 0h-1.808v-1.616h1.808v1.616zm4.531 0h-1.808v-1.616h1.808v1.616zm4.532 0h-1.808v-1.616h1.808v1.616zm4.531 0h-1.808v-1.616h1.808v1.616zm4.531 0h-1.808v-1.616h1.808v1.616zm4.531 0h-1.808v-1.616h1.808v1.616zm4.532 0h-1.808v-1.616h1.808v1.616zm4.531 0h-1.808v-1.616h1.808v1.616zm4.531 0h-1.808v-1.616h1.808v1.616zm4.531 0h-1.808v-1.616h1.808v1.616zm4.532 0h-1.808v-1.616h1.808v1.616zm4.531 0h-1.808v-1.616h1.808v1.616zm4.531 0h-1.808v-1.616h1.808v1.616zm4.531 0h-1.808v-1.616h1.808v1.616zm4.532 0h-1.808v-1.616h1.808v1.616zm4.531 0h-1.808v-1.616h1.808v1.616zm4.531 0h-1.808v-1.616h1.808v1.616zm4.531 0h-1.808v-1.616h1.808v1.616zm4.532 0h-1.808v-1.616h1.808v1.616zm4.531 0h-1.808v-1.616h1.808v1.616zm4.531 0h-1.808v-1.616h1.808v1.616zm4.531 0h-1.808v-1.616h1.808v1.616zm4.532 0h-1.808v-1.616h1.808v1.616zm4.531 0h-1.808v-1.616h1.808v1.616zm4.531 0h-1.808v-1.616h1.808v1.616zm4.531 0h-1.808v-1.616h1.808v1.616zm4.532 0h-1.808v-1.616h1.808v1.616zm4.531 0h-1.808v-1.616h1.808v1.616zm4.531 0h-1.808v-1.616h1.808v1.616zm4.531 0h-1.808v-1.616h1.808v1.616zm4.532 0h-1.808v-1.616h1.808v1.616zm4.531 0h-1.808v-1.616h1.808v1.616zm4.531 0h-1.808v-1.616h1.808v1.616zm4.531 0h-1.808v-1.616h1.808v1.616zm4.532 0h-1.808v-1.616h1.808v1.616zm4.531 0h-1.808v-1.616h1.808v1.616zm4.531 0h-1.808v-1.616h1.808v1.616zm4.531 0h-1.808v-1.616h1.808v1.616zm4.532 0h-1.808v-1.616h1.808v1.616zm-335.313 24H17.36v-1.616h1.808v1.616zm4.531 0h-1.808v-1.616H23.7v1.616zm4.531 0h-1.808v-1.616h1.808v1.616zm4.532 0h-1.808v-1.616h1.808v1.616zm4.531 0h-1.808v-1.616h1.808v1.616zm4.531 0h-1.808v-1.616h1.808v1.616zm4.532 0h-1.809v-1.616h1.809v1.616zm4.53 0H49.08v-1.616h1.808v1.616zm4.532 0H53.61v-1.616h1.808v1.616zm4.531 0h-1.808v-1.616h1.808v1.616zm4.532 0h-1.808v-1.616h1.808v1.616zm4.53 0h-1.807v-1.616h1.808v1.616zm4.532 0h-1.808v-1.616h1.808v1.616zm4.531 0h-1.808v-1.616h1.808v1.616zm4.532 0h-1.808v-1.616h1.808v1.616zm4.53 0H85.33v-1.616h1.808v1.616zm4.532 0H89.86v-1.616h1.808v1.616zm4.531 0h-1.808v-1.616H96.2v1.616zm4.532 0h-1.808v-1.616h1.808v1.616zm4.531 0h-1.808v-1.616h1.808v1.616zm4.531 0h-1.808v-1.616h1.808v1.616zm4.531 0h-1.808v-1.616h1.808v1.616zm4.532 0h-1.808v-1.616h1.808v1.616zm4.531 0h-1.808v-1.616h1.808v1.616zm4.531 0h-1.808v-1.616h1.808v1.616zm4.531 0h-1.808v-1.616h1.808v1.616zm4.532 0h-1.808v-1.616h1.808v1.616zm4.531 0h-1.808v-1.616h1.808v1.616zm4.531 0h-1.808v-1.616h1.808v1.616zm4.531 0h-1.808v-1.616h1.808v1.616zm4.532 0h-1.808v-1.616h1.808v1.616zm4.531 0h-1.808v-1.616h1.808v1.616zm4.531 0h-1.808v-1.616h1.808v1.616zm4.531 0h-1.808v-1.616h1.808v1.616zm4.532 0h-1.808v-1.616h1.808v1.616zm4.531 0h-1.808v-1.616h1.808v1.616zm4.531 0h-1.808v-1.616h1.808v1.616zm4.531 0h-1.808v-1.616h1.808v1.616zm4.532 0h-1.808v-1.616h1.808v1.616zm4.531 0h-1.808v-1.616h1.808v1.616zm4.531 0h-1.808v-1.616h1.808v1.616zm4.531 0h-1.808v-1.616h1.808v1.616zm4.532 0h-1.808v-1.616h1.808v1.616zm4.531 0h-1.808v-1.616h1.808v1.616zm4.531 0h-1.808v-1.616h1.808v1.616zm4.531 0h-1.808v-1.616h1.808v1.616zm4.532 0h-1.808v-1.616h1.808v1.616zm4.531 0h-1.808v-1.616h1.808v1.616z"/><path fill="#D1D1D1" d="M16 806.029h343v1H16z"/><path fill="#767676" d="M24.596 853.881c-.915.98-2.049 1.47-3.402 1.47-1.353 0-2.473-.49-3.36-1.47-.896-.97-1.344-2.254-1.344-3.85 0-1.568.443-2.832 1.33-3.794.887-.942 2.011-1.414 3.374-1.414 1.353 0 2.487.472 3.402 1.414.905.943 1.358 2.208 1.358 3.794 0 1.596-.453 2.88-1.358 3.85zm-5.32-1.288c.467.644 1.106.966 1.918.966.812 0 1.465-.322 1.96-.966.485-.634.728-1.488.728-2.562 0-1.026-.243-1.852-.728-2.478-.485-.625-1.139-.938-1.96-.938s-1.46.313-1.918.938c-.476.635-.714 1.461-.714 2.478 0 1.064.238 1.918.714 2.562zm12.083-4.97c.85 0 1.554.341 2.114 1.022.56.691.84 1.606.84 2.744 0 1.148-.289 2.082-.868 2.8-.578.719-1.325 1.078-2.24 1.078-.821 0-1.47-.303-1.946-.91v3.528h-1.974v-10.08h1.75l.07.938c.495-.746 1.246-1.12 2.254-1.12zm-.574 5.908c.486 0 .878-.196 1.176-.588.299-.392.448-.91.448-1.554s-.149-1.157-.448-1.54a1.409 1.409 0 0 0-1.176-.588 1.41 1.41 0 0 0-1.176.588c-.298.383-.448.896-.448 1.54s.15 1.162.448 1.554c.308.392.7.588 1.176.588zm8.399-4.27-1.344-.042v3.542c0 .243.051.42.154.532.112.103.29.154.532.154h.658v1.582h-1.288c-.728 0-1.25-.154-1.568-.462-.308-.317-.462-.84-.462-1.568v-3.78l-.98.042v-1.456l.98.028v-2.254h1.974v2.268l1.344-.042v1.456zm3.09-2.408h-1.973v-1.792h1.974v1.792zm0 8.176h-1.973v-7.224h1.974v7.224zm7.655-.854c-.681.728-1.568 1.092-2.66 1.092s-1.978-.364-2.66-1.092c-.69-.718-1.036-1.628-1.036-2.73 0-1.092.346-2.006 1.036-2.744.691-.718 1.578-1.078 2.66-1.078 1.083 0 1.97.36 2.66 1.078.691.738 1.036 1.652 1.036 2.744 0 1.102-.345 2.012-1.036 2.73zm-4.452-2.73c0 .7.164 1.256.49 1.666.327.411.761.616 1.302.616.551 0 .99-.205 1.316-.616.318-.401.476-.956.476-1.666 0-.709-.158-1.264-.476-1.666-.326-.41-.765-.616-1.316-.616-.541 0-.975.206-1.302.616-.326.411-.49.966-.49 1.666zm10.806-3.822c.746 0 1.325.229 1.736.686.42.458.63 1.083.63 1.876v4.844h-1.974v-4.396c0-.392-.094-.695-.28-.91-.178-.214-.434-.322-.77-.322-.42 0-.761.164-1.023.49-.26.318-.391.742-.391 1.274v3.864h-1.974v-7.224h1.931l.029.98c.466-.774 1.161-1.162 2.085-1.162zm15.01 7.406h-7.365c0-.793.164-1.479.49-2.058.327-.588.864-1.157 1.61-1.708l1.904-1.4c.383-.289.658-.569.826-.84a1.69 1.69 0 0 0 .266-.952c0-.476-.135-.844-.406-1.106-.261-.27-.62-.406-1.078-.406-.476 0-.844.15-1.106.448-.261.29-.392.714-.392 1.274v.28H64.04v-.182c0-1.11.313-1.978.938-2.604.626-.625 1.494-.938 2.604-.938 1.092 0 1.965.285 2.618.854.663.579.994 1.34.994 2.282 0 1.298-.676 2.394-2.03 3.29l-1.694 1.12c-.326.215-.55.388-.672.518a.716.716 0 0 0-.196.392h4.69v1.736z"/><path fill="#1A1A1A" d="M21.544 877.113h-.972v9.918c0 .504.108.846.324 1.026.216.168.576.252 1.08.252h.324c1.152 0 2.082-.486 2.79-1.458.708-.972 1.062-2.31 1.062-4.014 0-1.704-.39-3.084-1.17-4.14-.768-1.056-1.914-1.584-3.438-1.584zm.81 11.916h-5.868v-.63c.636-.072 1.032-.174 1.188-.306.168-.132.252-.444.252-.936v-8.892c0-.492-.084-.804-.252-.936-.156-.132-.552-.234-1.188-.306v-.63h5.526c1.164 0 2.19.162 3.078.486.9.312 1.626.75 2.178 1.314a5.41 5.41 0 0 1 1.242 1.908c.288.72.432 1.506.432 2.358 0 2.04-.612 3.648-1.836 4.824-1.212 1.164-2.796 1.746-4.752 1.746zm11.624-6.498v4.968c0 .348.102.582.306.702.216.108.624.186 1.224.234v.594H30.36v-.594c.444-.024.744-.084.9-.18.156-.108.234-.312.234-.612v-6.372l-1.08-.63v-.342l3.222-.99h.414l-.072 2.664c.444-1.008.834-1.704 1.17-2.088.348-.384.78-.576 1.296-.576.36 0 .624.102.792.306v1.944h-.342c-.672 0-1.224.06-1.656.18-.42.108-.84.372-1.26.792zm8.911 6.03c.648 0 1.128-.342 1.44-1.026.324-.684.486-1.638.486-2.862 0-1.416-.174-2.55-.522-3.402-.336-.864-.846-1.296-1.53-1.296-.648 0-1.134.342-1.458 1.026-.324.684-.486 1.632-.486 2.844 0 1.416.174 2.556.522 3.42.348.864.864 1.296 1.548 1.296zm-.09.648c-1.38 0-2.496-.432-3.348-1.296-.852-.864-1.278-2.01-1.278-3.438 0-1.524.438-2.766 1.314-3.726.888-.96 2.01-1.44 3.366-1.44 1.38 0 2.496.438 3.348 1.314.852.876 1.278 2.022 1.278 3.438 0 1.512-.444 2.748-1.332 3.708-.876.96-1.992 1.44-3.348 1.44zm11.058-.684c.744 0 1.338-.372 1.782-1.116.444-.756.666-1.704.666-2.844 0-1.152-.216-2.064-.648-2.736-.42-.672-1.038-1.008-1.854-1.008-.6 0-1.128.21-1.584.63v5.004c0 1.38.546 2.07 1.638 2.07zm-4.14 2.934v-10.188l-1.08-.63v-.342l3.222-.99h.432l-.072 1.692c.744-1.128 1.752-1.692 3.024-1.692 1.104 0 1.974.384 2.61 1.152.648.768.972 1.842.972 3.222 0 1.716-.456 3.066-1.368 4.05-.9.984-2.046 1.476-3.438 1.476-.816 0-1.416-.168-1.8-.504v2.7c0 .324.09.534.27.63.192.096.594.168 1.206.216v.594h-5.094v-.594c.432-.024.726-.09.882-.198.156-.096.234-.294.234-.594zm15.234-7.344h-4.68v-1.134h4.68v1.134zm6.755 4.446c.648 0 1.128-.342 1.44-1.026.324-.684.486-1.638.486-2.862 0-1.416-.174-2.55-.522-3.402-.336-.864-.846-1.296-1.53-1.296-.648 0-1.134.342-1.458 1.026-.324.684-.486 1.632-.486 2.844 0 1.416.174 2.556.522 3.42.348.864.864 1.296 1.548 1.296zm-.09.648c-1.38 0-2.496-.432-3.348-1.296-.852-.864-1.278-2.01-1.278-3.438 0-1.524.438-2.766 1.314-3.726.888-.96 2.01-1.44 3.366-1.44 1.38 0 2.496.438 3.348 1.314.852.876 1.278 2.022 1.278 3.438 0 1.512-.444 2.748-1.332 3.708-.876.96-1.992 1.44-3.348 1.44zm9.582-8.892v7.182c0 .348.102.582.306.702.204.108.606.186 1.206.234v.594h-5.13v-.594c.432-.024.726-.084.882-.18.156-.108.234-.312.234-.612v-7.326h-1.314v-.486l1.314-.432v-.756c0-1.212.342-2.13 1.026-2.754.684-.636 1.584-.954 2.7-.954 1.572 0 2.358.51 2.358 1.53 0 .48-.204.816-.612 1.008h-1.314c.048-.264.072-.504.072-.72 0-.792-.252-1.188-.756-1.188-.648 0-.972.528-.972 1.584v2.34h2.214v.828h-2.214zm6.74 0v7.182c0 .348.102.582.306.702.204.108.606.186 1.206.234v.594h-5.13v-.594c.432-.024.726-.084.882-.18.156-.108.234-.312.234-.612v-7.326h-1.314v-.486l1.314-.432v-.756c0-1.212.342-2.13 1.026-2.754.684-.636 1.584-.954 2.7-.954 1.572 0 2.358.51 2.358 1.53 0 .48-.204.816-.612 1.008h-1.314c.048-.264.072-.504.072-.72 0-.792-.252-1.188-.756-1.188-.648 0-.972.528-.972 1.584v2.34h2.214v.828h-2.214zm-68.77 43.712H17.36v-1.616h1.808v1.616zm4.531 0h-1.808v-1.616H23.7v1.616zm4.531 0h-1.808v-1.616h1.808v1.616zm4.532 0h-1.808v-1.616h1.808v1.616zm4.531 0h-1.808v-1.616h1.808v1.616zm4.531 0h-1.808v-1.616h1.808v1.616zm4.532 0h-1.809v-1.616h1.809v1.616zm4.53 0H49.08v-1.616h1.808v1.616zm4.532 0H53.61v-1.616h1.808v1.616zm4.531 0h-1.808v-1.616h1.808v1.616zm4.532 0h-1.808v-1.616h1.808v1.616zm4.53 0h-1.807v-1.616h1.808v1.616zm4.532 0h-1.808v-1.616h1.808v1.616zm4.531 0h-1.808v-1.616h1.808v1.616zm4.532 0h-1.808v-1.616h1.808v1.616zm4.53 0H85.33v-1.616h1.808v1.616zm4.532 0H89.86v-1.616h1.808v1.616zm4.531 0h-1.808v-1.616H96.2v1.616zm4.532 0h-1.808v-1.616h1.808v1.616zm4.531 0h-1.808v-1.616h1.808v1.616zm4.531 0h-1.808v-1.616h1.808v1.616zm4.531 0h-1.808v-1.616h1.808v1.616zm4.532 0h-1.808v-1.616h1.808v1.616zm4.531 0h-1.808v-1.616h1.808v1.616zm4.531 0h-1.808v-1.616h1.808v1.616zm4.531 0h-1.808v-1.616h1.808v1.616zm4.532 0h-1.808v-1.616h1.808v1.616zm4.531 0h-1.808v-1.616h1.808v1.616zm4.531 0h-1.808v-1.616h1.808v1.616zm4.531 0h-1.808v-1.616h1.808v1.616zm4.532 0h-1.808v-1.616h1.808v1.616zm4.531 0h-1.808v-1.616h1.808v1.616zm4.531 0h-1.808v-1.616h1.808v1.616zm4.531 0h-1.808v-1.616h1.808v1.616zm4.532 0h-1.808v-1.616h1.808v1.616zm4.531 0h-1.808v-1.616h1.808v1.616zm4.531 0h-1.808v-1.616h1.808v1.616zm4.531 0h-1.808v-1.616h1.808v1.616zm4.532 0h-1.808v-1.616h1.808v1.616zm4.531 0h-1.808v-1.616h1.808v1.616zm4.531 0h-1.808v-1.616h1.808v1.616zm4.531 0h-1.808v-1.616h1.808v1.616zm4.532 0h-1.808v-1.616h1.808v1.616zm4.531 0h-1.808v-1.616h1.808v1.616zm4.531 0h-1.808v-1.616h1.808v1.616zm4.531 0h-1.808v-1.616h1.808v1.616zm4.532 0h-1.808v-1.616h1.808v1.616zm4.531 0h-1.808v-1.616h1.808v1.616zm4.531 0h-1.808v-1.616h1.808v1.616zm4.531 0h-1.808v-1.616h1.808v1.616zm4.532 0h-1.808v-1.616h1.808v1.616zm4.531 0h-1.808v-1.616h1.808v1.616zm4.531 0h-1.808v-1.616h1.808v1.616zm4.531 0h-1.808v-1.616h1.808v1.616zm4.532 0h-1.808v-1.616h1.808v1.616zm4.531 0h-1.808v-1.616h1.808v1.616zm4.531 0h-1.808v-1.616h1.808v1.616zm4.531 0h-1.808v-1.616h1.808v1.616zm4.532 0h-1.808v-1.616h1.808v1.616zm4.531 0h-1.808v-1.616h1.808v1.616zm4.531 0h-1.808v-1.616h1.808v1.616zm4.531 0h-1.808v-1.616h1.808v1.616zm4.532 0h-1.808v-1.616h1.808v1.616zm4.531 0h-1.808v-1.616h1.808v1.616zm4.531 0h-1.808v-1.616h1.808v1.616zm4.531 0h-1.808v-1.616h1.808v1.616zm4.532 0h-1.808v-1.616h1.808v1.616zm4.531 0h-1.808v-1.616h1.808v1.616zm4.531 0h-1.808v-1.616h1.808v1.616zm4.531 0h-1.808v-1.616h1.808v1.616zm4.532 0h-1.808v-1.616h1.808v1.616zm4.531 0h-1.808v-1.616h1.808v1.616zm4.531 0h-1.808v-1.616h1.808v1.616zm4.531 0h-1.808v-1.616h1.808v1.616zm4.532 0h-1.808v-1.616h1.808v1.616zm-335.313 24H17.36v-1.616h1.808v1.616zm4.531 0h-1.808v-1.616H23.7v1.616zm4.531 0h-1.808v-1.616h1.808v1.616zm4.532 0h-1.808v-1.616h1.808v1.616zm4.531 0h-1.808v-1.616h1.808v1.616zm4.531 0h-1.808v-1.616h1.808v1.616zm4.532 0h-1.809v-1.616h1.809v1.616zm4.53 0H49.08v-1.616h1.808v1.616zm4.532 0H53.61v-1.616h1.808v1.616zm4.531 0h-1.808v-1.616h1.808v1.616zm4.532 0h-1.808v-1.616h1.808v1.616zm4.53 0h-1.807v-1.616h1.808v1.616zm4.532 0h-1.808v-1.616h1.808v1.616zm4.531 0h-1.808v-1.616h1.808v1.616zm4.532 0h-1.808v-1.616h1.808v1.616zm4.53 0H85.33v-1.616h1.808v1.616zm4.532 0H89.86v-1.616h1.808v1.616zm4.531 0h-1.808v-1.616H96.2v1.616zm4.532 0h-1.808v-1.616h1.808v1.616zm4.531 0h-1.808v-1.616h1.808v1.616zm4.531 0h-1.808v-1.616h1.808v1.616zm4.531 0h-1.808v-1.616h1.808v1.616zm4.532 0h-1.808v-1.616h1.808v1.616zm4.531 0h-1.808v-1.616h1.808v1.616zm4.531 0h-1.808v-1.616h1.808v1.616zm4.531 0h-1.808v-1.616h1.808v1.616zm4.532 0h-1.808v-1.616h1.808v1.616zm4.531 0h-1.808v-1.616h1.808v1.616zm4.531 0h-1.808v-1.616h1.808v1.616zm4.531 0h-1.808v-1.616h1.808v1.616zm4.532 0h-1.808v-1.616h1.808v1.616zm4.531 0h-1.808v-1.616h1.808v1.616zm4.531 0h-1.808v-1.616h1.808v1.616zm4.531 0h-1.808v-1.616h1.808v1.616zm4.532 0h-1.808v-1.616h1.808v1.616zm4.531 0h-1.808v-1.616h1.808v1.616zm4.531 0h-1.808v-1.616h1.808v1.616zm4.531 0h-1.808v-1.616h1.808v1.616zm4.532 0h-1.808v-1.616h1.808v1.616zm4.531 0h-1.808v-1.616h1.808v1.616zm4.531 0h-1.808v-1.616h1.808v1.616zm4.531 0h-1.808v-1.616h1.808v1.616zm4.532 0h-1.808v-1.616h1.808v1.616zm4.531 0h-1.808v-1.616h1.808v1.616zm4.531 0h-1.808v-1.616h1.808v1.616zm4.531 0h-1.808v-1.616h1.808v1.616zm4.532 0h-1.808v-1.616h1.808v1.616zm4.531 0h-1.808v-1.616h1.808v1.616z"/><rect width="343" height="48" x="16" y="986.029" fill="#1A1A1A" rx="24"/><path fill="#fff" d="M131.29 1004.64h4.528c1.237 0 2.208.32 2.912.97.704.65 1.056 1.55 1.056 2.69 0 1.19-.363 2.11-1.088 2.77-.725.66-1.755.99-3.088.99h-1.952v3.97h-2.368v-11.39zm2.368 5.42h1.744c.683 0 1.2-.15 1.552-.45.363-.3.544-.72.544-1.28 0-.53-.165-.95-.496-1.24-.331-.3-.784-.45-1.36-.45h-1.984v3.42zm11.381-2.57c.267 0 .507.03.72.11v2.06c-.277-.02-.432-.03-.464-.03-1.365 0-2.048.79-2.048 2.38v4.02h-2.256v-8.26h2.208l-.032 1.11c.363-.93.987-1.39 1.872-1.39zm4.255-.8h-2.256v-2.05h2.256v2.05zm0 9.34h-2.256v-8.26h2.256v8.26zm6.54-8.46c.853 0 1.515.26 1.984.78.48.52.72 1.24.72 2.14v5.54h-2.256v-5.02c0-.45-.107-.8-.32-1.04-.203-.25-.496-.37-.88-.37-.48 0-.869.18-1.168.56-.299.36-.448.85-.448 1.45v4.42h-2.256v-8.26h2.208l.032 1.12c.533-.88 1.328-1.32 2.384-1.32zm8.818 1.87-1.536-.05v4.05c0 .27.059.48.176.61.128.11.331.17.608.17h.752v1.81h-1.472c-.832 0-1.429-.18-1.792-.53-.352-.36-.528-.96-.528-1.79v-4.32l-1.12.05v-1.67l1.12.04v-2.58h2.256v2.59l1.536-.05v1.67zm9.325-1.95c.266 0 .506.03.72.11v2.06c-.278-.02-.432-.03-.464-.03-1.366 0-2.048.79-2.048 2.38v4.02h-2.256v-8.26h2.208l-.032 1.11c.362-.93.986-1.39 1.872-1.39zm9.871 4.7v.38h-5.984c.042.62.234 1.11.576 1.46.341.35.794.53 1.36.53.8 0 1.333-.36 1.6-1.07l2.24.16c-.278.87-.742 1.54-1.392 2-.651.44-1.451.67-2.4.67-1.334 0-2.384-.42-3.152-1.25-.768-.83-1.152-1.9-1.152-3.2 0-1.25.368-2.28 1.104-3.09.736-.81 1.722-1.21 2.96-1.21 1.248 0 2.266.41 3.056 1.24.789.85 1.184 1.97 1.184 3.38zm-2.336-1.15c-.064-.58-.256-1.03-.576-1.35-.32-.32-.736-.48-1.248-.48s-.934.16-1.264.48c-.331.34-.523.79-.576 1.35h3.664zm7.906-1.6-1.536-.05v4.05c0 .27.058.48.176.61.128.11.33.17.608.17h.752v1.81h-1.472c-.832 0-1.43-.18-1.792-.53-.352-.36-.528-.96-.528-1.79v-4.32l-1.12.05v-1.67l1.12.04v-2.58h2.256v2.59l1.536-.05v1.67zm6.348 2.75v-4.42h2.256v8.26h-2.208l-.032-1.12c-.533.88-1.328 1.33-2.384 1.33-.853 0-1.52-.26-2-.79-.469-.52-.704-1.23-.704-2.14v-5.54h2.256v5.03c0 .45.102.79.304 1.04.214.24.512.37.896.37.48 0 .87-.19 1.168-.55.299-.37.448-.86.448-1.47zm8.226-4.7c.267 0 .507.03.72.11v2.06c-.277-.02-.432-.03-.464-.03-1.365 0-2.048.79-2.048 2.38v4.02h-2.256v-8.26h2.208l-.032 1.11c.363-.93.987-1.39 1.872-1.39zm6.623.08c.854 0 1.515.26 1.984.78.48.52.72 1.24.72 2.14v5.54h-2.256v-5.02c0-.45-.106-.8-.32-1.04-.202-.25-.496-.37-.88-.37-.48 0-.869.18-1.168.56-.298.36-.448.85-.448 1.45v4.42h-2.256v-8.26h2.208l.032 1.12c.534-.88 1.328-1.32 2.384-1.32zm14.754 8.03c-.65.49-1.541.73-2.672.73-1.13 0-2.005-.24-2.624-.72-.629-.48-1.002-1.16-1.12-2.04l2.064-.08c.15.85.736 1.28 1.76 1.28.459 0 .822-.08 1.088-.24.267-.16.4-.39.4-.68 0-.4-.362-.68-1.088-.83l-1.632-.32c-1.6-.32-2.4-1.12-2.4-2.41 0-.84.304-1.5.912-1.99.608-.49 1.424-.73 2.448-.73.992 0 1.808.24 2.448.72.64.46 1.014 1.1 1.12 1.92l-2.032.08a1.19 1.19 0 0 0-.512-.85c-.277-.21-.629-.31-1.056-.31-.373 0-.672.08-.896.24a.757.757 0 0 0-.336.64c0 .42.31.7.928.84l1.776.36c.822.17 1.43.45 1.824.84.395.38.592.89.592 1.53 0 .87-.33 1.54-.992 2.02zm4.769.43h-2.256v-11.39h2.256v11.39zm4.172-9.34h-2.256v-2.05h2.256v2.05zm0 9.34h-2.256v-8.26h2.256v8.26zm6.572-8.46c.97 0 1.776.38 2.416 1.16.64.79.96 1.84.96 3.14 0 1.31-.331 2.38-.992 3.2-.662.82-1.515 1.23-2.56 1.23-.939 0-1.68-.35-2.224-1.04v4.03h-2.256v-11.52h2l.08 1.08c.565-.86 1.424-1.28 2.576-1.28zm-.656 6.75c.554 0 1.002-.23 1.344-.67.341-.45.512-1.04.512-1.78s-.171-1.32-.512-1.76c-.342-.45-.79-.67-1.344-.67-.555 0-1.003.22-1.344.67-.342.44-.512 1.02-.512 1.76s.17 1.33.512 1.78c.352.44.8.67 1.344.67z"/><rect width="341" height="46" x="17" y="1051.03" fill="#fff" rx="23"/><rect width="341" height="46" x="17" y="1051.03" stroke="#1A1A1A" stroke-width="2" rx="23"/><path fill="#1A1A1A" d="M100.394 1080.4c-1.473 0-2.64-.35-3.505-1.04-.853-.7-1.295-1.65-1.328-2.87h2.32c.032.63.267 1.12.704 1.46.438.34 1.035.51 1.793.51.65 0 1.162-.12 1.536-.37.373-.25.56-.6.56-1.05 0-.38-.134-.66-.4-.85-.267-.2-.715-.38-1.344-.54l-2.097-.53c-.895-.23-1.589-.61-2.08-1.15-.48-.55-.72-1.22-.72-2.02 0-.99.368-1.84 1.105-2.53.725-.69 1.775-1.04 3.152-1.04 1.376 0 2.474.34 3.295 1.03.822.69 1.27 1.6 1.345 2.72h-2.304c-.075-.57-.32-1.01-.736-1.33-.416-.32-.944-.48-1.584-.48-.576 0-1.035.13-1.376.38-.342.26-.513.59-.513.99 0 .63.443 1.06 1.329 1.28l2.272.56c2.069.5 3.104 1.6 3.104 3.28 0 1.11-.406 1.99-1.216 2.63-.8.64-1.904.96-3.312.96zm13.985-4.21v.38h-5.984c.043.62.235 1.11.576 1.46.341.35.795.53 1.36.53.8 0 1.333-.36 1.6-1.07l2.24.16c-.277.87-.741 1.54-1.392 2-.651.44-1.451.67-2.4.67-1.333 0-2.384-.42-3.152-1.25-.768-.83-1.152-1.9-1.152-3.2 0-1.25.368-2.28 1.104-3.09.736-.81 1.723-1.21 2.96-1.21 1.248 0 2.267.41 3.056 1.24.789.85 1.184 1.97 1.184 3.38zm-2.336-1.15c-.064-.58-.256-1.03-.576-1.35-.32-.32-.736-.48-1.248-.48s-.933.16-1.264.48c-.331.34-.523.79-.576 1.35h3.664zm8.416-3.47c.853 0 1.515.26 1.984.78.48.52.72 1.24.72 2.14v5.54h-2.256v-5.02c0-.45-.107-.8-.32-1.04-.203-.25-.496-.37-.88-.37-.48 0-.869.18-1.168.56-.299.36-.448.85-.448 1.45v4.42h-2.256v-8.26h2.208l.032 1.12c.533-.88 1.328-1.32 2.384-1.32zm9.97 1.04v-3.97h2.256v11.39h-2l-.08-1.02c-.565.86-1.365 1.29-2.4 1.29-1.045 0-1.899-.41-2.56-1.23-.661-.82-.992-1.89-.992-3.2 0-1.3.32-2.35.96-3.14.64-.78 1.445-1.16 2.416-1.16 1.035 0 1.835.34 2.4 1.04zm-1.744 5.71c.544 0 .987-.23 1.328-.67.352-.45.528-1.04.528-1.78s-.171-1.32-.512-1.76a1.602 1.602 0 0 0-1.344-.67c-.555 0-1.003.22-1.344.67-.341.44-.512 1.02-.512 1.76s.171 1.33.512 1.78c.341.44.789.67 1.344.67zm13.964-6.83c.266 0 .506.03.72.11v2.06c-.278-.02-.432-.03-.464-.03-1.366 0-2.048.79-2.048 2.38v4.02h-2.256v-8.26h2.208l-.032 1.11c.362-.93.986-1.39 1.872-1.39zm9.871 4.7v.38h-5.984c.042.62.234 1.11.576 1.46.341.35.794.53 1.36.53.8 0 1.333-.36 1.6-1.07l2.24.16c-.278.87-.742 1.54-1.392 2-.651.44-1.451.67-2.4.67-1.334 0-2.384-.42-3.152-1.25-.768-.83-1.153-1.9-1.153-3.2 0-1.25.369-2.28 1.105-3.09s1.722-1.21 2.96-1.21c1.248 0 2.266.41 3.056 1.24.789.85 1.184 1.97 1.184 3.38zm-2.336-1.15c-.064-.58-.256-1.03-.576-1.35-.32-.32-.736-.48-1.248-.48s-.934.16-1.264.48c-.331.34-.523.79-.576 1.35h3.664zm7.906-1.6-1.536-.05v4.05c0 .27.058.48.176.61.128.11.33.17.608.17h.752v1.81h-1.472c-.832 0-1.43-.18-1.792-.53-.352-.36-.528-.96-.528-1.79v-4.32l-1.12.05v-1.67l1.12.04v-2.58h2.256v2.59l1.536-.05v1.67zm6.348 2.75v-4.42h2.256v8.26h-2.208l-.032-1.12c-.533.88-1.328 1.33-2.384 1.33-.853 0-1.52-.26-2-.79-.469-.52-.704-1.23-.704-2.14v-5.54h2.256v5.03c0 .45.102.79.304 1.04.214.24.512.37.896.37.48 0 .87-.19 1.168-.55.299-.37.448-.86.448-1.47zm8.226-4.7c.267 0 .507.03.72.11v2.06c-.277-.02-.432-.03-.464-.03-1.365 0-2.048.79-2.048 2.38v4.02h-2.256v-8.26h2.208l-.032 1.11c.363-.93.987-1.39 1.872-1.39zm6.623.08c.853 0 1.515.26 1.984.78.48.52.72 1.24.72 2.14v5.54h-2.256v-5.02c0-.45-.107-.8-.32-1.04-.203-.25-.496-.37-.88-.37-.48 0-.869.18-1.168.56-.299.36-.448.85-.448 1.45v4.42h-2.256v-8.26h2.208l.032 1.12c.533-.88 1.328-1.32 2.384-1.32zm14.754 8.03c-.651.49-1.541.73-2.672.73-1.131 0-2.005-.24-2.624-.72-.629-.48-1.003-1.16-1.12-2.04l2.064-.08c.149.85.736 1.28 1.76 1.28.459 0 .821-.08 1.088-.24.267-.16.4-.39.4-.68 0-.4-.363-.68-1.088-.83l-1.632-.32c-1.6-.32-2.4-1.12-2.4-2.41 0-.84.304-1.5.912-1.99.608-.49 1.424-.73 2.448-.73.992 0 1.808.24 2.448.72.64.46 1.013 1.1 1.12 1.92l-2.032.08a1.19 1.19 0 0 0-.512-.85c-.277-.21-.629-.31-1.056-.31-.373 0-.672.08-.896.24a.757.757 0 0 0-.336.64c0 .42.309.7.928.84l1.776.36c.821.17 1.429.45 1.824.84.395.38.592.89.592 1.53 0 .87-.331 1.54-.992 2.02zm4.769.43h-2.256v-11.39h2.256v11.39zm4.172-9.34h-2.256v-2.05h2.256v2.05zm0 9.34h-2.256v-8.26h2.256v8.26zm6.572-8.46c.97 0 1.776.38 2.416 1.16.64.79.96 1.84.96 3.14 0 1.31-.331 2.38-.992 3.2-.662.82-1.515 1.23-2.56 1.23-.939 0-1.68-.35-2.224-1.04v4.03h-2.256v-11.52h2l.08 1.08c.565-.86 1.424-1.28 2.576-1.28zm-.656 6.75c.554 0 1.002-.23 1.344-.67.341-.45.512-1.04.512-1.78s-.171-1.32-.512-1.76c-.342-.45-.79-.67-1.344-.67-.555 0-1.003.22-1.344.67-.342.44-.512 1.02-.512 1.76s.17 1.33.512 1.78c.352.44.8.67 1.344.67zm14.14-6.75c.971 0 1.776.38 2.416 1.16.64.79.96 1.84.96 3.14 0 1.31-.331 2.38-.992 3.2-.661.82-1.515 1.23-2.56 1.23-1.045 0-1.845-.43-2.4-1.29l-.08 1.02h-2v-11.39h2.256v3.97c.565-.7 1.365-1.04 2.4-1.04zm-.656 6.75c.555 0 1.003-.23 1.344-.67.341-.45.512-1.04.512-1.78s-.171-1.32-.512-1.76a1.602 1.602 0 0 0-1.344-.67c-.555 0-1.003.22-1.344.67-.341.44-.512 1.02-.512 1.76s.171 1.33.512 1.78c.352.44.8.67 1.344.67zm8.864-.71 1.76-5.84h2.4l-3.296 9.73c-.224.68-.517 1.15-.88 1.41-.352.26-.843.38-1.472.38h-1.888v-1.92h1.088c.608 0 .997-.23 1.168-.7l.08-.22-3.216-8.68h2.48l1.52 4.64.256 1.2zm17.227-1.42v.38h-5.984c.042.62.234 1.11.576 1.46.341.35.794.53 1.36.53.8 0 1.333-.36 1.6-1.07l2.24.16c-.278.87-.742 1.54-1.392 2-.651.44-1.451.67-2.4.67-1.334 0-2.384-.42-3.152-1.25-.768-.83-1.152-1.9-1.152-3.2 0-1.25.368-2.28 1.104-3.09.736-.81 1.722-1.21 2.96-1.21 1.248 0 2.266.41 3.056 1.24.789.85 1.184 1.97 1.184 3.38zm-2.336-1.15c-.064-.58-.256-1.03-.576-1.35-.32-.32-.736-.48-1.248-.48s-.934.16-1.264.48c-.331.34-.523.79-.576 1.35h3.664zm13.072-3.47c.821 0 1.466.26 1.936.8.469.53.704 1.24.704 2.14v5.52h-2.256v-5.07c0-.41-.096-.73-.288-.98-.182-.25-.454-.38-.816-.38-.438 0-.795.18-1.072.56-.267.36-.4.85-.4 1.45v4.42h-2.256v-5.07c0-.41-.096-.73-.288-.98-.182-.25-.454-.38-.816-.38-.438 0-.795.18-1.072.56-.267.36-.4.85-.4 1.45v4.42h-2.256v-8.26h2.208l.032 1.06c.512-.84 1.258-1.26 2.24-1.26 1.173 0 1.962.49 2.368 1.48.533-.99 1.344-1.48 2.432-1.48zm11.876 8.46h-2.288c-.118-.53-.176-.81-.176-.83-.587.71-1.435 1.07-2.544 1.07-.864 0-1.558-.23-2.08-.69-.523-.46-.784-1.07-.784-1.82 0-1.34.837-2.17 2.512-2.5l2.88-.57v-.61c0-.6-.464-.9-1.392-.9-.459 0-.806.09-1.04.26-.235.17-.379.45-.432.83l-2.064-.03c.138-1.77 1.312-2.66 3.52-2.66 2.378 0 3.568 1.03 3.568 3.07v3.65c0 .78.106 1.36.32 1.73zm-4.368-1.42c.565 0 1.018-.17 1.36-.5.352-.34.528-.8.528-1.38v-.6l-2.112.44c-.715.14-1.072.49-1.072 1.04 0 .3.112.54.336.72.234.18.554.28.96.28zm8.218-7.92h-2.256v-2.05h2.256v2.05zm0 9.34h-2.256v-8.26h2.256v8.26zm4.172 0h-2.256v-11.39h2.256v11.39z"/><path fill="#D1D1D1" d="M16 1130.03h343v1H16z"/><path fill="#1A1A1A" d="M23.856 1171.04v-4.4h2.368v11.39h-2.368v-4.88h-4.448v4.88H17.04v-11.39h2.368v4.4h4.448zm11.202 6.01c-.779.84-1.792 1.25-3.04 1.25s-2.262-.41-3.04-1.25c-.79-.82-1.184-1.86-1.184-3.12 0-1.24.394-2.29 1.184-3.13.789-.82 1.802-1.23 3.04-1.23 1.237 0 2.25.41 3.04 1.23.789.84 1.184 1.89 1.184 3.13 0 1.26-.395 2.3-1.184 3.12zm-5.088-3.12c0 .8.186 1.44.56 1.91.373.47.869.7 1.488.7.629 0 1.13-.23 1.504-.7.362-.46.544-1.1.544-1.91 0-.81-.182-1.44-.544-1.9-.374-.47-.875-.7-1.504-.7-.619 0-1.115.23-1.488.7-.374.47-.56 1.1-.56 1.9zm15.52-.49.912-3.67h2.368l-2.448 8.26h-2.144l-1.184-4.59-.192-1.09-.208 1.09-1.184 4.59h-2.144l-2.448-8.26h2.368l.912 3.67.384 2.08.384-2.08.928-3.67h2l.928 3.64.384 2.11.384-2.08zm10.742-4.75h-2.256v-2.05h2.256v2.05zm0 9.34h-2.256v-8.26h2.256v8.26zm6.108-6.59-1.537-.05v4.05c0 .27.06.48.177.61.128.11.33.17.608.17h.752v1.81h-1.473c-.831 0-1.429-.18-1.791-.53-.352-.36-.529-.96-.529-1.79v-4.32l-1.12.05v-1.67l1.12.04v-2.58h2.257v2.59l1.535-.05v1.67zm13.228 2 .912-3.67h2.368l-2.448 8.26h-2.144l-1.184-4.59-.192-1.09-.208 1.09-1.184 4.59h-2.144l-2.448-8.26h2.368l.912 3.67.384 2.08.384-2.08.928-3.67h2l.928 3.64.384 2.11.384-2.08zm11.162 3.61c-.78.84-1.793 1.25-3.04 1.25-1.248 0-2.262-.41-3.04-1.25-.79-.82-1.184-1.86-1.184-3.12 0-1.24.394-2.29 1.184-3.13.789-.82 1.802-1.23 3.04-1.23 1.237 0 2.25.41 3.04 1.23.789.84 1.183 1.89 1.183 3.13 0 1.26-.394 2.3-1.183 3.12zm-5.089-3.12c0 .8.187 1.44.56 1.91.374.47.87.7 1.489.7.629 0 1.13-.23 1.504-.7.362-.46.543-1.1.543-1.91 0-.81-.18-1.44-.543-1.9-.374-.47-.875-.7-1.505-.7-.618 0-1.114.23-1.487.7-.374.47-.56 1.1-.56 1.9zm11.773-4.44c.267 0 .507.03.72.11v2.06c-.277-.02-.432-.03-.464-.03-1.365 0-2.048.79-2.048 2.38v4.02h-2.256v-8.26h2.208l-.032 1.11c.363-.93.987-1.39 1.872-1.39zm9.951 8.54h-2.672l-2.192-3.58-.832.84v2.74h-2.256v-11.39h2.256v6.25l2.8-3.12h2.832l-3.216 3.25 3.28 5.01zm7.332-.43c-.65.49-1.541.73-2.672.73-1.13 0-2.005-.24-2.624-.72-.629-.48-1.002-1.16-1.12-2.04l2.064-.08c.15.85.736 1.28 1.76 1.28.459 0 .822-.08 1.088-.24.267-.16.4-.39.4-.68 0-.4-.362-.68-1.088-.83l-1.632-.32c-1.6-.32-2.4-1.12-2.4-2.41 0-.84.304-1.5.912-1.99.608-.49 1.424-.73 2.448-.73.992 0 1.808.24 2.448.72.64.46 1.014 1.1 1.12 1.92l-2.032.08a1.19 1.19 0 0 0-.512-.85c-.277-.21-.629-.31-1.056-.31-.373 0-.672.08-.896.24a.757.757 0 0 0-.336.64c0 .42.31.7.928.84l1.776.36c.822.17 1.43.45 1.824.84.395.38.592.89.592 1.53 0 .87-.33 1.54-.992 2.02zm248.73-1.28a.68.68 0 0 1-.954 0l-6.795-6.8a.682.682 0 0 0-.955 0l-6.795 6.8a.682.682 0 0 1-.955 0 .683.683 0 0 1 0-.96l6.796-6.79c.79-.79 2.074-.79 2.863 0l6.795 6.79a.68.68 0 0 1 0 .96z"/><path fill="#1A1A1A" fill-rule="evenodd" d="M48 1262.06c13.807 0 25-11.19 25-25s-11.193-25-25-25-25 11.19-25 25 11.193 25 25 25zm0 2c14.912 0 27-12.09 27-27s-12.088-27-27-27-27 12.09-27 27 12.088 27 27 27z" clip-rule="evenodd"/><path fill="#1A1A1A" fill-rule="evenodd" d="M36 1248.06c0-.55.448-1 1-1h22c.552 0 1 .45 1 1s-.448 1-1 1H37c-.552 0-1-.45-1-1z" clip-rule="evenodd"/><path fill="#1A1A1A" d="M21.456 1299.43c-1.472 0-2.64-.35-3.504-1.04-.853-.7-1.296-1.65-1.328-2.87h2.32c.032.63.267 1.12.704 1.46.437.34 1.035.51 1.792.51.65 0 1.163-.12 1.536-.37s.56-.61.56-1.05c0-.38-.133-.66-.4-.85-.267-.2-.715-.39-1.344-.55l-2.096-.52c-.896-.23-1.59-.61-2.08-1.16-.48-.54-.72-1.21-.72-2.01 0-.99.368-1.84 1.104-2.53.725-.69 1.776-1.04 3.152-1.04 1.376 0 2.475.34 3.296 1.02.821.7 1.27 1.6 1.344 2.72h-2.304c-.075-.56-.32-1-.736-1.32-.416-.32-.944-.48-1.584-.48-.576 0-1.035.12-1.376.38-.341.26-.512.59-.512.99 0 .63.443 1.06 1.328 1.28l2.272.56c2.07.5 3.104 1.6 3.104 3.28 0 1.11-.405 1.99-1.216 2.63-.8.64-1.904.96-3.312.96zm10.305-6.96-1.536-.05v4.05c0 .27.059.48.176.6.128.12.331.18.608.18h.752v1.81H30.29c-.832 0-1.429-.18-1.792-.53-.352-.36-.528-.96-.528-1.79v-4.32l-1.12.05v-1.67l1.12.03v-2.57h2.256v2.59l1.536-.05v1.67zm9.15 2.75v.38h-5.985c.043.62.235 1.11.576 1.46.341.35.795.53 1.36.53.8 0 1.334-.36 1.6-1.08l2.24.16c-.277.88-.741 1.55-1.392 2-.65.45-1.45.68-2.4.68-1.333 0-2.384-.42-3.152-1.25-.768-.83-1.152-1.9-1.152-3.2 0-1.25.368-2.28 1.104-3.09.736-.81 1.723-1.22 2.96-1.22 1.248 0 2.267.42 3.056 1.25.79.85 1.184 1.97 1.184 3.38zm-2.337-1.15c-.064-.58-.256-1.03-.576-1.35-.32-.32-.736-.48-1.248-.48s-.933.16-1.264.48c-.33.34-.522.79-.576 1.35h3.664zm8.448-3.48c.97 0 1.776.39 2.416 1.17.64.79.96 1.84.96 3.14 0 1.31-.33 2.38-.992 3.2-.661.82-1.514 1.23-2.56 1.23-.938 0-1.68-.35-2.224-1.04v4.03h-2.256v-11.52h2l.08 1.07c.566-.85 1.424-1.28 2.576-1.28zm-.656 6.76c.555 0 1.003-.23 1.344-.68.342-.44.512-1.04.512-1.77 0-.74-.17-1.32-.512-1.76-.341-.45-.79-.67-1.344-.67s-1.002.22-1.344.67c-.341.44-.512 1.02-.512 1.76 0 .73.17 1.33.512 1.77.352.45.8.68 1.344.68zm14.285 1.71h-2.368v-7.76h-2.864v-1.59h.832c.725 0 1.29-.18 1.696-.56.33-.29.528-.74.592-1.34l.016-.14h2.096v11.39zm-41.483 28H17.36v-1.62h1.808v1.62zm4.531 0h-1.808v-1.62H23.7v1.62zm4.531 0h-1.808v-1.62h1.808v1.62zm4.532 0h-1.808v-1.62h1.808v1.62zm4.531 0h-1.808v-1.62h1.808v1.62zm4.531 0h-1.808v-1.62h1.808v1.62zm4.532 0h-1.809v-1.62h1.809v1.62zm4.53 0H49.08v-1.62h1.808v1.62zm4.532 0H53.61v-1.62h1.808v1.62zm4.531 0h-1.808v-1.62h1.808v1.62zm4.532 0h-1.808v-1.62h1.808v1.62zm4.53 0h-1.807v-1.62h1.808v1.62zm4.532 0h-1.808v-1.62h1.808v1.62zm4.531 0h-1.808v-1.62h1.808v1.62zm4.532 0h-1.808v-1.62h1.808v1.62zm4.53 0H85.33v-1.62h1.808v1.62zm4.532 0H89.86v-1.62h1.808v1.62zm4.531 0h-1.808v-1.62H96.2v1.62zm4.532 0h-1.808v-1.62h1.808v1.62zm4.531 0h-1.808v-1.62h1.808v1.62zm4.531 0h-1.808v-1.62h1.808v1.62zm4.531 0h-1.808v-1.62h1.808v1.62zm4.532 0h-1.808v-1.62h1.808v1.62zm4.531 0h-1.808v-1.62h1.808v1.62zm4.531 0h-1.808v-1.62h1.808v1.62zm4.531 0h-1.808v-1.62h1.808v1.62zm4.532 0h-1.808v-1.62h1.808v1.62zm4.531 0h-1.808v-1.62h1.808v1.62zm4.531 0h-1.808v-1.62h1.808v1.62zm4.531 0h-1.808v-1.62h1.808v1.62zm4.532 0h-1.808v-1.62h1.808v1.62zm4.531 0h-1.808v-1.62h1.808v1.62zm4.531 0h-1.808v-1.62h1.808v1.62zm4.531 0h-1.808v-1.62h1.808v1.62zm4.532 0h-1.808v-1.62h1.808v1.62zm4.531 0h-1.808v-1.62h1.808v1.62zm4.531 0h-1.808v-1.62h1.808v1.62zm4.531 0h-1.808v-1.62h1.808v1.62zm4.532 0h-1.808v-1.62h1.808v1.62zm4.531 0h-1.808v-1.62h1.808v1.62zm4.531 0h-1.808v-1.62h1.808v1.62zm4.531 0h-1.808v-1.62h1.808v1.62zm4.532 0h-1.808v-1.62h1.808v1.62zm4.531 0h-1.808v-1.62h1.808v1.62zm4.531 0h-1.808v-1.62h1.808v1.62zm4.531 0h-1.808v-1.62h1.808v1.62zm4.532 0h-1.808v-1.62h1.808v1.62zm4.531 0h-1.808v-1.62h1.808v1.62zm4.531 0h-1.808v-1.62h1.808v1.62zm4.531 0h-1.808v-1.62h1.808v1.62zm4.532 0h-1.808v-1.62h1.808v1.62zm4.531 0h-1.808v-1.62h1.808v1.62zm4.531 0h-1.808v-1.62h1.808v1.62zm4.531 0h-1.808v-1.62h1.808v1.62zm4.532 0h-1.808v-1.62h1.808v1.62zm4.531 0h-1.808v-1.62h1.808v1.62zm4.531 0h-1.808v-1.62h1.808v1.62zm4.531 0h-1.808v-1.62h1.808v1.62zm4.532 0h-1.808v-1.62h1.808v1.62zm4.531 0h-1.808v-1.62h1.808v1.62zm4.531 0h-1.808v-1.62h1.808v1.62zm4.531 0h-1.808v-1.62h1.808v1.62zm4.532 0h-1.808v-1.62h1.808v1.62zm4.531 0h-1.808v-1.62h1.808v1.62zm4.531 0h-1.808v-1.62h1.808v1.62zm4.531 0h-1.808v-1.62h1.808v1.62zm4.532 0h-1.808v-1.62h1.808v1.62zm4.531 0h-1.808v-1.62h1.808v1.62zm4.531 0h-1.808v-1.62h1.808v1.62zm4.531 0h-1.808v-1.62h1.808v1.62zm4.532 0h-1.808v-1.62h1.808v1.62zm4.531 0h-1.808v-1.62h1.808v1.62zm4.531 0h-1.808v-1.62h1.808v1.62zm4.531 0h-1.808v-1.62h1.808v1.62zm4.532 0h-1.808v-1.62h1.808v1.62zm-335.313 24H17.36v-1.62h1.808v1.62zm4.531 0h-1.808v-1.62H23.7v1.62zm4.531 0h-1.808v-1.62h1.808v1.62zm4.532 0h-1.808v-1.62h1.808v1.62zm4.531 0h-1.808v-1.62h1.808v1.62zm4.531 0h-1.808v-1.62h1.808v1.62zm4.532 0h-1.809v-1.62h1.809v1.62zm4.53 0H49.08v-1.62h1.808v1.62zm4.532 0H53.61v-1.62h1.808v1.62zm4.531 0h-1.808v-1.62h1.808v1.62zm4.532 0h-1.808v-1.62h1.808v1.62zm4.53 0h-1.807v-1.62h1.808v1.62zm4.532 0h-1.808v-1.62h1.808v1.62zm4.531 0h-1.808v-1.62h1.808v1.62zm4.532 0h-1.808v-1.62h1.808v1.62zm4.53 0H85.33v-1.62h1.808v1.62zm4.532 0H89.86v-1.62h1.808v1.62zm4.531 0h-1.808v-1.62H96.2v1.62zm4.532 0h-1.808v-1.62h1.808v1.62zm4.531 0h-1.808v-1.62h1.808v1.62zm4.531 0h-1.808v-1.62h1.808v1.62zm4.531 0h-1.808v-1.62h1.808v1.62zm4.532 0h-1.808v-1.62h1.808v1.62zm4.531 0h-1.808v-1.62h1.808v1.62zm4.531 0h-1.808v-1.62h1.808v1.62zm4.531 0h-1.808v-1.62h1.808v1.62zm4.532 0h-1.808v-1.62h1.808v1.62zm4.531 0h-1.808v-1.62h1.808v1.62zm4.531 0h-1.808v-1.62h1.808v1.62zm4.531 0h-1.808v-1.62h1.808v1.62zm4.532 0h-1.808v-1.62h1.808v1.62zm4.531 0h-1.808v-1.62h1.808v1.62zm4.531 0h-1.808v-1.62h1.808v1.62zm4.531 0h-1.808v-1.62h1.808v1.62zm4.532 0h-1.808v-1.62h1.808v1.62zm4.531 0h-1.808v-1.62h1.808v1.62zm4.531 0h-1.808v-1.62h1.808v1.62zm4.531 0h-1.808v-1.62h1.808v1.62zm4.532 0h-1.808v-1.62h1.808v1.62zm4.531 0h-1.808v-1.62h1.808v1.62zm4.531 0h-1.808v-1.62h1.808v1.62zm4.531 0h-1.808v-1.62h1.808v1.62zm4.532 0h-1.808v-1.62h1.808v1.62zm4.531 0h-1.808v-1.62h1.808v1.62zm4.531 0h-1.808v-1.62h1.808v1.62zm4.531 0h-1.808v-1.62h1.808v1.62zm4.532 0h-1.808v-1.62h1.808v1.62zm4.531 0h-1.808v-1.62h1.808v1.62z"/></g><defs><clipPath id="a"><path fill="#fff" d="M0 40C0 17.909 17.909 0 40 0h295c22.091 0 40 17.909 40 40v1354H0V40z"/></clipPath><clipPath id="b"><path fill="#fff" d="M54 44h267v44H54z"/></clipPath></defs></svg>