<svg xmlns="http://www.w3.org/2000/svg" width="263" height="568" fill="none"><g clip-path="url(#a)"><rect width="262" height="568" x=".822" fill="#000501" rx="32"/><path fill="#fff" d="M27.559 13.85c1.737 0 3.25 1.236 3.25 4.17v.01c0 2.743-1.236 4.367-3.284 4.367-1.495 0-2.612-.885-2.872-2.132l-.01-.062h1.432l.017.056c.214.57.716.942 1.433.942 1.292 0 1.84-1.263 1.901-2.82 0-.062.006-.124.006-.186h-.113c-.299.643-1.01 1.212-2.127 1.212-1.563 0-2.657-1.14-2.657-2.685v-.011c0-1.653 1.258-2.86 3.024-2.86Zm-.006 4.44c.92 0 1.625-.665 1.625-1.585v-.011c0-.931-.705-1.659-1.608-1.659-.897 0-1.613.717-1.613 1.625v.011c0 .942.671 1.62 1.596 1.62Zm5.54-1.37a.88.88 0 0 1-.898-.892c0-.502.384-.891.897-.891.52 0 .897.39.897.891a.877.877 0 0 1-.897.892Zm0 4.185a.877.877 0 0 1-.898-.89c0-.503.384-.892.897-.892.52 0 .897.39.897.891a.874.874 0 0 1-.897.892Zm6.232 1.09v-1.563h-3.983v-1.19a108.472 108.472 0 0 1 3.318-5.388h2.059v5.376h1.094v1.202H40.72v1.562h-1.394Zm-2.629-2.731h2.652v-4.248h-.085a84.184 84.184 0 0 0-2.567 4.163v.085Zm8.214 2.73v-6.707h-.096l-2.026 1.432v-1.37l2.127-1.495h1.45v8.14H44.91Z"/><path stroke="#fff" stroke-width=".717" d="M231.468 13.271h11.553a2.36 2.36 0 0 1 2.361 2.36v3.4a2.36 2.36 0 0 1-2.361 2.359h-11.553a2.361 2.361 0 0 1-2.361-2.36v-3.398a2.36 2.36 0 0 1 2.361-2.36Z" opacity=".35"/><path fill="#fff" d="M246.42 16.311v2.869a1.556 1.556 0 0 0 0-2.869Z" opacity=".4"/><path fill="#fff" d="M230.108 15.632c0-.751.609-1.36 1.36-1.36h11.553c.751 0 1.36.609 1.36 1.36v3.398c0 .75-.609 1.36-1.36 1.36h-11.553a1.36 1.36 0 0 1-1.36-1.36v-3.398Zm-13.514 4.136a2.55 2.55 0 0 1 3.344 0 .246.246 0 0 1 .006.352l-1.51 1.557a.235.235 0 0 1-.336 0l-1.511-1.557a.24.24 0 0 1-.071-.177.241.241 0 0 1 .078-.175Zm-2.043-1.92a5.336 5.336 0 0 1 7.378 0 .25.25 0 0 1 .074.177.251.251 0 0 1-.07.178l-.874.9a.232.232 0 0 1-.328.006 3.67 3.67 0 0 0-2.492-.98c-.92 0-1.808.349-2.49.98a.232.232 0 0 1-.328-.005l-.873-.9a.252.252 0 0 1 .003-.355Zm-2.04-1.915a8.123 8.123 0 0 1 11.408 0 .253.253 0 0 1 .002.352l-.874.9a.23.23 0 0 1-.328.003 6.468 6.468 0 0 0-4.504-1.836 6.466 6.466 0 0 0-4.504 1.836.23.23 0 0 1-.328-.002l-.874-.902a.248.248 0 0 1-.071-.176c0-.066.027-.129.073-.175Zm-10.948-.301a.68.68 0 0 1 .68-.68h.68a.68.68 0 0 1 .679.68v5.437a.68.68 0 0 1-.679.68h-.68a.68.68 0 0 1-.68-.68v-5.437Zm3.399-1.36a.68.68 0 0 1 .679-.68h.68a.68.68 0 0 1 .68.68v6.797a.68.68 0 0 1-.68.68h-.68a.68.68 0 0 1-.679-.68v-6.797Zm-6.797 3.738a.68.68 0 0 1 .68-.68h.68a.68.68 0 0 1 .679.68v3.059a.68.68 0 0 1-.679.68h-.68a.68.68 0 0 1-.68-.68V18.01Zm-3.398 1.7a.68.68 0 0 1 .68-.68h.679a.68.68 0 0 1 .68.68v1.359a.68.68 0 0 1-.68.68h-.679a.68.68 0 0 1-.68-.68v-1.36Z"/><path fill="#000501" d="M.822 31.943h262v43h-262z"/><g clip-path="url(#b)"><rect width="26.667" height="26.666" x="16.822" y="39.943" fill="#1B211D" rx="13.333"/><path fill="#fff" d="M28.401 48.093a.667.667 0 0 1 .938.937l-.045.05-3.53 3.53h10.391l.069.003a.667.667 0 0 1 0 1.327l-.069.003h-10.39l3.529 3.528.045.051a.667.667 0 0 1-.938.938l-.05-.046-4.667-4.667a.667.667 0 0 1 0-.942l4.667-4.667.05-.045Z"/></g><g clip-path="url(#c)"><path fill="#fff" stroke="#000" stroke-miterlimit="10" stroke-width=".196" d="m149.54 196.829-11.384 10.685h-8.697l11.376-10.685h8.705Z"/><path fill="#999" stroke="#000" stroke-miterlimit="10" stroke-width=".196" d="m136.432 199.297-7.237 6.799-1.716-7.418 7.237-6.8 1.716 7.419Z"/><path fill="#fff" d="m103.354 187.184 7.236-6.8c1.835-1.728 4.353-2.742 7.331-2.742 7.45 0 14.986 6.387 16.804 14.236l-7.237 6.799c-1.818-7.857-9.354-14.235-16.804-14.235-2.978 0-5.487 1.014-7.33 2.742Z"/><mask id="d" width="32" height="22" x="103" y="177" maskUnits="userSpaceOnUse" style="mask-type:luminance"><path fill="#fff" d="m103.354 187.184 7.236-6.8c1.835-1.728 4.353-2.742 7.331-2.742 7.45 0 14.986 6.387 16.804 14.236l-7.237 6.799c-1.818-7.857-9.354-14.235-16.804-14.235-2.978 0-5.487 1.014-7.33 2.742Z"/></mask><g mask="url(#d)"><path fill="#F1F1F2" stroke="#000" stroke-miterlimit="10" stroke-width=".196" d="m134.716 191.878-7.237 6.799c-1.817-7.857-9.353-14.235-16.803-14.235-2.978 0-5.487 1.014-7.331 2.742l7.237-6.8c1.835-1.728 4.352-2.742 7.331-2.742 7.45 0 14.986 6.387 16.803 14.236Z"/></g><path stroke="#000" stroke-miterlimit="10" stroke-width=".196" d="m103.354 187.184 7.236-6.8c1.835-1.728 4.353-2.742 7.331-2.742 7.45 0 14.986 6.387 16.804 14.236l-7.237 6.799c-1.818-7.857-9.354-14.235-16.804-14.235-2.978 0-5.487 1.014-7.33 2.742Z"/><path fill="#fff" d="m167.53 247.436-11.385 10.693c-.708.662-1.672 1.049-2.816 1.049l11.385-10.694c1.143 0 2.116-.387 2.816-1.048Z"/><mask id="e" width="15" height="13" x="153" y="247" maskUnits="userSpaceOnUse" style="mask-type:luminance"><path fill="#fff" d="m167.53 247.436-11.385 10.693c-.708.662-1.672 1.049-2.816 1.049l11.385-10.694c1.143 0 2.116-.387 2.816-1.048Z"/></mask><g mask="url(#e)"><path fill="#0C2801" stroke="#000" stroke-miterlimit="10" stroke-width=".196" d="m167.53 247.436-11.385 10.693c-.708.662-1.672 1.049-2.816 1.049l11.385-10.694c1.143 0 2.116-.387 2.816-1.048Z"/></g><path stroke="#000" stroke-miterlimit="10" stroke-width=".196" d="m167.53 247.436-11.385 10.693c-.708.662-1.672 1.049-2.816 1.049l11.385-10.694c1.143 0 2.116-.387 2.816-1.048Z"/><path fill="#fff" d="m136.244 220.177-11.385 10.693c1.408-1.324 1.903-3.584.965-6.069-1.041-2.768-3.73-4.951-6.435-5.252a5.897 5.897 0 0 0-.666-.034c-1.314 0-2.432.447-3.243 1.212l11.385-10.694c.811-.765 1.929-1.212 3.243-1.212.213 0 .435.008.665.034 2.706.301 5.394 2.485 6.435 5.253.93 2.484.444 4.745-.964 6.069Z"/><mask id="f" width="23" height="23" x="115" y="208" maskUnits="userSpaceOnUse" style="mask-type:luminance"><path fill="#fff" d="m136.244 220.177-11.385 10.693c1.408-1.324 1.903-3.584.965-6.069-1.041-2.768-3.73-4.951-6.435-5.252a5.897 5.897 0 0 0-.666-.034c-1.314 0-2.432.447-3.243 1.212l11.385-10.694c.811-.765 1.929-1.212 3.243-1.212.213 0 .435.008.665.034 2.706.301 5.394 2.485 6.435 5.253.93 2.484.444 4.745-.964 6.069Z"/></mask><g mask="url(#f)"><path fill="#16CB3E" stroke="#000" stroke-miterlimit="10" stroke-width=".196" d="m136.244 220.177-11.385 10.693c1.408-1.324 1.903-3.584.965-6.069-1.041-2.768-3.73-4.951-6.435-5.252a5.897 5.897 0 0 0-.666-.034c-1.314 0-2.432.447-3.243 1.212l11.385-10.694c.811-.765 1.929-1.212 3.243-1.212.213 0 .435.008.665.034 2.706.301 5.394 2.485 6.435 5.253.93 2.484.444 4.745-.964 6.069Z"/></g><path stroke="#000" stroke-miterlimit="10" stroke-width=".196" d="m136.244 220.177-11.385 10.693c1.408-1.324 1.903-3.584.965-6.069-1.041-2.768-3.73-4.951-6.435-5.252a5.897 5.897 0 0 0-.666-.034c-1.314 0-2.432.447-3.243 1.212l11.385-10.694c.811-.765 1.929-1.212 3.243-1.212.213 0 .435.008.665.034 2.706.301 5.394 2.485 6.435 5.253.93 2.484.444 4.745-.964 6.069Z"/><path fill="#004202" stroke="#000" stroke-miterlimit="10" stroke-width=".196" d="m138.906 231.962-11.376 10.685-3.601-11.115 11.376-10.694 3.601 11.124Z"/><path fill="#fff" stroke="#000" stroke-miterlimit="10" stroke-width=".196" d="m113.825 196.829-11.385 10.685h-8.696l11.385-10.685h8.696Z"/><path fill="#fff" stroke="#000" stroke-miterlimit="10" stroke-width=".196" d="M115.796 168.461c12.247 0 24.638 10.497 27.625 23.408l1.715 7.419h-8.696l-1.715-7.419c-1.818-7.857-9.353-14.235-16.804-14.235-7.45 0-12.033 6.387-10.215 14.235l1.715 7.419h-8.696l-1.715-7.419c-2.996-12.903 4.54-23.408 16.786-23.408Z"/><path fill="#fff" d="m96.509 179.774 7.237-6.8c-4.54 4.264-6.537 11.15-4.745 18.903l-7.237 6.8c-1.792-7.754.205-14.639 4.745-18.903Z"/><mask id="g" width="13" height="27" x="91" y="172" maskUnits="userSpaceOnUse" style="mask-type:luminance"><path fill="#fff" d="m96.509 179.774 7.237-6.8c-4.54 4.264-6.537 11.15-4.745 18.903l-7.237 6.8c-1.792-7.754.205-14.639 4.745-18.903Z"/></mask><g mask="url(#g)"><path fill="#F1F1F2" stroke="#000" stroke-miterlimit="10" stroke-width=".196" d="m99.001 191.877-7.237 6.8c-1.792-7.754.205-14.639 4.745-18.903l7.237-6.8c-4.54 4.264-6.537 11.15-4.745 18.903Z"/></g><path stroke="#000" stroke-miterlimit="10" stroke-width=".196" d="m96.509 179.774 7.237-6.8c-4.54 4.264-6.537 11.15-4.745 18.903l-7.237 6.8c-1.792-7.754.205-14.639 4.745-18.903Z"/><path fill="#999" stroke="#000" stroke-miterlimit="10" stroke-width=".196" d="m100.725 199.296-7.245 6.8-1.716-7.419 7.237-6.8 1.724 7.419Z"/><path fill="#fff" d="m138.573 233.69-11.385 10.693c.41-.386.564-1.031.333-1.736l11.385-10.694c.23.705.068 1.35-.333 1.737Z"/><mask id="h" width="13" height="14" x="127" y="231" maskUnits="userSpaceOnUse" style="mask-type:luminance"><path fill="#fff" d="m138.573 233.69-11.385 10.693c.41-.386.564-1.031.333-1.736l11.385-10.694c.23.705.068 1.35-.333 1.737Z"/></mask><g mask="url(#h)"><path fill="#004202" stroke="#000" stroke-miterlimit="10" stroke-width=".196" d="m138.573 233.69-11.385 10.693c.41-.386.564-1.031.333-1.736l11.385-10.694c.23.705.068 1.35-.333 1.737Z"/></g><path stroke="#000" stroke-miterlimit="10" stroke-width=".196" d="m138.573 233.69-11.385 10.693c.41-.386.564-1.031.333-1.736l11.385-10.694c.23.705.068 1.35-.333 1.737Z"/><path fill="#fff" d="m87.71 208.571 11.385-10.694c-1.058.998-1.528 2.605-1.1 4.419L86.61 212.99c-.418-1.814.042-3.422 1.1-4.419Z"/><mask id="i" width="14" height="16" x="86" y="197" maskUnits="userSpaceOnUse" style="mask-type:luminance"><path fill="#fff" d="m87.71 208.571 11.385-10.694c-1.058.998-1.528 2.605-1.1 4.419L86.61 212.99c-.418-1.814.042-3.422 1.1-4.419Z"/></mask><g mask="url(#i)"><path fill="#004202" d="M97.986 202.296 86.61 212.99c-.418-1.814.042-3.422 1.1-4.419l11.385-10.694c-1.058.998-1.528 2.605-1.1 4.419"/><path stroke="#000" stroke-miterlimit="10" stroke-width=".196" d="M97.986 202.296 86.61 212.99c-.418-1.814.042-3.422 1.1-4.419l11.385-10.694c-1.058.998-1.528 2.605-1.1 4.419"/></g><path stroke="#000" stroke-miterlimit="10" stroke-width=".196" d="m87.71 208.571 11.385-10.694c-1.058.998-1.528 2.605-1.1 4.419L86.61 212.99c-.418-1.814.042-3.422 1.1-4.419Z"/><path fill="#0C2801" stroke="#000" stroke-miterlimit="10" stroke-width=".196" d="m164.713 248.484-11.384 10.694h-50.837l11.376-10.694h50.845Z"/><path fill="#004202" stroke="#000" stroke-miterlimit="10" stroke-width=".196" d="M107.416 243.017 96.04 253.702l-9.43-40.72 11.384-10.686 9.422 40.721Z"/><path fill="#004202" d="m113.867 248.484-11.384 10.694c-2.868 0-5.752-2.45-6.452-5.468l11.385-10.693c.699 3.017 3.584 5.467 6.451 5.467Z"/><mask id="j" width="18" height="17" x="96" y="243" maskUnits="userSpaceOnUse" style="mask-type:luminance"><path fill="#fff" d="m113.867 248.484-11.384 10.694c-2.868 0-5.752-2.45-6.452-5.468l11.385-10.693c.699 3.017 3.584 5.467 6.451 5.467Z"/></mask><g mask="url(#j)"><path fill="#0C2801" stroke="#000" stroke-miterlimit="10" stroke-width=".196" d="m113.867 248.484-11.384 10.694c-2.868 0-5.752-2.45-6.452-5.468l11.385-10.693c.699 3.017 3.584 5.467 6.451 5.467Z"/></g><path stroke="#000" stroke-miterlimit="10" stroke-width=".196" d="m113.867 248.484-11.384 10.694c-2.868 0-5.752-2.45-6.452-5.468l11.385-10.693c.699 3.017 3.584 5.467 6.451 5.467Z"/><path fill="#AFFC92" stroke="#000" stroke-miterlimit="10" stroke-width=".196" d="m168.63 243.017-2.56-11.064-6.861-29.657c-.7-3.026-3.593-5.467-6.461-5.467h-50.837c-2.867 0-4.617 2.441-3.917 5.467l9.422 40.721c.699 3.017 3.592 5.467 6.451 5.467h50.846c2.859 0 4.617-2.45 3.917-5.467Zm-31.038-8.958h-3.277c-1.075 0-2.142-.971-2.296-2.106l-1.545-11.115c-2.312-.98-4.275-3.189-4.872-5.742-.803-3.465 1.22-6.276 4.514-6.276.222 0 .444.009.666.035 2.714.301 5.393 2.484 6.434 5.252 1.118 2.966.188 5.631-1.903 6.731l3.593 11.115c.367 1.135-.247 2.106-1.314 2.106Z"/><path fill="#004202" d="M164.664 225.106c-24.697 15.331-21.221-16.184-5.463-22.818l5.463 22.818Z" opacity=".3"/><path fill="#16CB3E" stroke="#000" stroke-miterlimit="10" stroke-width=".196" d="M167.876 222.105c-3.005 0-6.032-1.295-8.473-3.383a16.23 16.23 0 0 1-1.929-1.95 15.336 15.336 0 0 1-1.828-2.743c-.375-.721-.7-1.477-.946-2.256a14.286 14.286 0 0 1-.296-1.077 11.866 11.866 0 0 1-.303-3.252c.014-.204.028-.4.05-.597.477-4.409 3.749-7.56 8.437-7.56 5.981 0 12.006 5.108 13.465 11.409 1.459 6.302-2.203 11.417-8.177 11.417v-.008Z"/><path fill="#fff" d="m173.749 219.908-2.89 2.714c-1.474 1.382-3.489 2.197-5.88 2.197-5.981 0-12.005-5.108-13.465-11.409-.874-3.783.094-7.138 2.305-9.212l2.889-2.714c-2.21 2.074-3.178 5.428-2.304 9.212 1.459 6.309 7.491 11.409 13.465 11.409 2.391 0 4.406-.815 5.88-2.197Z"/><mask id="k" width="23" height="24" x="151" y="201" maskUnits="userSpaceOnUse" style="mask-type:luminance"><path fill="#fff" d="m173.749 219.908-2.89 2.714c-1.474 1.382-3.489 2.197-5.88 2.197-5.981 0-12.005-5.108-13.465-11.409-.874-3.783.094-7.138 2.305-9.212l2.889-2.714c-2.21 2.074-3.178 5.428-2.304 9.212 1.459 6.309 7.491 11.409 13.465 11.409 2.391 0 4.406-.815 5.88-2.197Z"/></mask><g mask="url(#k)"><path fill="#004202" stroke="#000" stroke-miterlimit="10" stroke-width=".196" d="m173.749 219.908-2.89 2.714c-1.474 1.382-3.489 2.197-5.88 2.197-5.981 0-12.005-5.108-13.465-11.409-.874-3.783.094-7.138 2.305-9.212l2.889-2.714c-2.21 2.074-3.178 5.428-2.304 9.212 1.459 6.309 7.491 11.409 13.465 11.409 2.391 0 4.406-.815 5.88-2.197Z"/></g><path stroke="#000" stroke-miterlimit="10" stroke-width=".196" d="m173.749 219.908-2.89 2.714c-1.474 1.382-3.489 2.197-5.88 2.197-5.981 0-12.005-5.108-13.465-11.409-.874-3.783.094-7.138 2.305-9.212l2.889-2.714c-2.21 2.074-3.178 5.428-2.304 9.212 1.459 6.309 7.491 11.409 13.465 11.409 2.391 0 4.406-.815 5.88-2.197Z"/><path fill="#000" d="m154.1 207.437 4.595 4.773.014.08-4.009-.524c.246.779.563 1.536.946 2.256l3.395-.473.022.087-1.589 3.136a15.804 15.804 0 0 0 1.929 1.951l.895-4.381h.08l3.734 5.858 2.153-1.507-4.977-5.02-.022-.088 6.176.757-.657-2.845-5.8.837-.022-.087 2.564-5.232-2.716-1.426-1.069 5.865h-.079l-3.807-5.821-1.712 1.207-.051.597h.007Z" opacity=".15"/><path fill="#fff" stroke="#000" stroke-miterlimit="10" stroke-width=".196" d="m172.015 211.693 1.928-1.812-.657-2.845-5.808.83-.014-.08 2.557-5.232-2.709-1.426-1.929 1.812-.404 2.234-2.622-4.002-2.081 1.469-1.928 1.805 2.73 2.838-1.892-.248-1.922 1.805.658 2.852 5.692-.8.021.087-2.593 5.108 2.615 1.506 1.921-1.812.484-2.343 2.623 4.111 2.152-1.506 1.929-1.812-2.759-2.786 2.008.247Z"/><path fill="#004202" stroke="#000" stroke-miterlimit="10" stroke-width=".196" d="m166.244 206.993-1.929 1.811 1.069-5.864 1.929-1.812-1.069 5.865Z"/><path fill="#0C2801" stroke="#000" stroke-miterlimit="10" stroke-width=".196" d="m173.944 209.882-1.929 1.812-6.169-.757 1.929-1.812 6.169.757Z"/><path fill="#fff" stroke="#000" stroke-miterlimit="10" stroke-width=".196" d="m165.211 207.83-1.929 1.804-.022-.08 1.929-1.804.022.08Z"/><path fill="#004202" stroke="#000" stroke-miterlimit="10" stroke-width=".196" d="m165.189 207.75-1.929 1.804-4.912-5.108 1.929-1.804 4.912 5.108Z"/><path fill="#fff" stroke="#000" stroke-miterlimit="10" stroke-width=".196" d="m166.872 209.881-1.921 1.812h-.08l1.922-1.812h.079Z"/><path fill="#0C2801" stroke="#000" stroke-miterlimit="10" stroke-width=".196" d="m165.557 209.168-1.921 1.812-.022-.087 1.929-1.812.014.087Z"/><path fill="#004202" stroke="#000" stroke-miterlimit="10" stroke-width=".196" d="m170.614 215.739-1.929 1.812-3.734-5.858 1.921-1.812 3.742 5.858Z"/><path fill="#0C2801" stroke="#000" stroke-miterlimit="10" stroke-width=".196" d="m172.766 214.232-1.928 1.812-2.153 1.506 1.929-1.811 2.152-1.507Zm-7.223-5.151-1.929 1.812-5.692.8 1.929-1.812 5.692-.8Z"/><path fill="#004202" stroke="#000" stroke-miterlimit="10" stroke-width=".196" d="m159.85 209.881-1.928 1.812-.658-2.852 1.922-1.805.664 2.845Zm3.121 4.395-1.929 1.812 2.594-5.108 1.921-1.812-2.586 5.108Z"/><path fill="#0C2801" stroke="#000" stroke-miterlimit="10" stroke-width=".196" d="m165.579 215.783-1.922 1.811-2.615-1.506 1.929-1.812 2.608 1.507Z"/><path fill="#DAFED0" stroke="#000" stroke-miterlimit="10" stroke-width=".196" d="m167.312 201.128 2.709 1.426-2.557 5.232.014.08 5.808-.83.657 2.845-6.169-.756.015.087 4.977 5.02-2.153 1.507-3.742-5.858h-.079l-1.214 5.901-2.607-1.506 2.586-5.108-.015-.087-5.692.8-.664-2.845 6.024.793-.022-.08-4.912-5.108 2.081-1.469 3.807 5.821h.079l1.069-5.865Z"/><path fill="#fff" stroke="#000" stroke-linecap="round" stroke-linejoin="round" stroke-width=".196" d="M103.78 232.211c3.04 0 5.505-2.482 5.505-5.544 0-3.063-2.465-5.545-5.505-5.545s-5.504 2.482-5.504 5.545c0 3.062 2.464 5.544 5.504 5.544Z"/><path fill="#EDEDED" d="M103.371 232.202c-3.029-.232-5.308-2.888-5.078-5.948a5.552 5.552 0 0 1 2.347-4.144 5.53 5.53 0 0 0-1.485 3.396c-.23 3.052 2.048 5.716 5.078 5.949a5.431 5.431 0 0 0 3.559-.98 5.473 5.473 0 0 1-4.421 1.727Zm4.329-7.331c.153-.133-.074-.652-.507-1.16-.434-.507-.91-.81-1.063-.677-.154.133.073.652.507 1.16.433.507.909.81 1.063.677Z"/><path stroke="#000" stroke-linecap="round" stroke-linejoin="round" stroke-width=".196" d="M103.78 232.211c3.04 0 5.505-2.482 5.505-5.544 0-3.063-2.465-5.545-5.505-5.545s-5.504 2.482-5.504 5.545c0 3.062 2.464 5.544 5.504 5.544Z"/></g><path fill="#fff" d="M31.81 308.128v-11.636h4.363c.894 0 1.644.166 2.25.5a3.32 3.32 0 0 1 1.38 1.375c.315.579.472 1.238.472 1.977 0 .746-.157 1.409-.471 1.988a3.372 3.372 0 0 1-1.393 1.37c-.613.329-1.369.494-2.267.494h-2.892v-1.733h2.608c.523 0 .951-.091 1.284-.273.334-.181.58-.431.74-.75a2.37 2.37 0 0 0 .243-1.096c0-.413-.081-.777-.244-1.091a1.66 1.66 0 0 0-.744-.733c-.334-.178-.764-.267-1.29-.267h-1.932v9.875H31.81Zm12.24.176a3.64 3.64 0 0 1-1.494-.295 2.443 2.443 0 0 1-1.045-.887c-.254-.39-.381-.871-.381-1.443 0-.492.09-.9.273-1.222a2.11 2.11 0 0 1 .744-.772 3.775 3.775 0 0 1 1.062-.438 8.615 8.615 0 0 1 1.233-.221 51.91 51.91 0 0 0 1.245-.142c.318-.046.549-.114.693-.205.148-.095.221-.24.221-.437v-.035c0-.428-.127-.759-.38-.994-.254-.235-.62-.352-1.097-.352-.504 0-.903.11-1.199.329a1.64 1.64 0 0 0-.59.779l-1.921-.273c.151-.53.401-.973.75-1.329a3.26 3.26 0 0 1 1.278-.807 4.886 4.886 0 0 1 1.67-.273c.421 0 .84.049 1.256.148.417.098.798.261 1.142.488.345.224.622.529.83.915.212.387.318.869.318 1.449v5.841h-1.977v-1.199h-.068c-.125.242-.301.47-.529.682a2.551 2.551 0 0 1-.846.506c-.337.125-.733.187-1.188.187Zm.534-1.511c.413 0 .771-.082 1.074-.245a1.8 1.8 0 0 0 .7-.659c.166-.272.25-.57.25-.892v-1.028a.978.978 0 0 1-.33.148 4.758 4.758 0 0 1-.512.119c-.19.034-.377.064-.562.091l-.483.068c-.307.042-.582.11-.824.205a1.366 1.366 0 0 0-.574.397c-.14.167-.21.383-.21.648 0 .379.138.665.415.858.276.193.628.29 1.056.29Zm5.822 1.335v-8.727h2.057v8.727h-2.057Zm1.035-9.966a1.2 1.2 0 0 1-.841-.324 1.045 1.045 0 0 1-.353-.79c0-.31.118-.573.353-.789.234-.22.515-.33.84-.33.33 0 .61.11.841.33.235.216.353.479.353.789 0 .307-.118.57-.353.79a1.186 1.186 0 0 1-.84.324Zm2.817 9.966v-8.727h1.995v1.454h.09c.16-.504.432-.892.819-1.165.39-.276.835-.414 1.335-.414.114 0 .24.005.38.017.145.007.264.021.359.039v1.893a2.124 2.124 0 0 0-.415-.08 3.747 3.747 0 0 0-.54-.04 2.08 2.08 0 0 0-1.011.245c-.296.159-.529.38-.7.664-.17.284-.255.612-.255.983v5.131h-2.057Zm10.951 3.273c-.28 0-.54-.023-.778-.069a2.827 2.827 0 0 1-.563-.147l.478-1.603c.299.088.566.129.8.125a.977.977 0 0 0 .62-.221c.182-.14.335-.375.46-.705l.176-.471-3.164-8.909h2.181l2.012 6.591h.09l2.018-6.591h2.187l-3.494 9.784a3.91 3.91 0 0 1-.648 1.187 2.635 2.635 0 0 1-.988.762c-.387.178-.849.267-1.387.267Zm11.13-3.103c-.852 0-1.59-.187-2.215-.562a3.822 3.822 0 0 1-1.455-1.574c-.34-.674-.511-1.462-.511-2.364 0-.901.17-1.691.511-2.369a3.81 3.81 0 0 1 1.455-1.579c.625-.375 1.363-.563 2.216-.563.852 0 1.59.188 2.215.563a3.774 3.774 0 0 1 1.45 1.579c.344.678.516 1.468.516 2.369 0 .902-.172 1.69-.517 2.364a3.785 3.785 0 0 1-1.449 1.574c-.625.375-1.363.562-2.216.562Zm.012-1.647c.462 0 .848-.127 1.159-.381.31-.258.542-.602.693-1.034.155-.432.233-.913.233-1.443a4.26 4.26 0 0 0-.233-1.449 2.294 2.294 0 0 0-.693-1.04c-.31-.258-.697-.386-1.16-.386-.473 0-.867.128-1.181.386-.31.258-.543.604-.699 1.04a4.358 4.358 0 0 0-.227 1.449c0 .53.076 1.011.227 1.443.156.432.388.776.699 1.034.314.254.708.381 1.182.381Zm11.159-2.194v-5.056h2.056v8.727h-1.994v-1.551h-.09a2.63 2.63 0 0 1-.972 1.199c-.447.31-.999.466-1.654.466-.572 0-1.078-.127-1.517-.381a2.651 2.651 0 0 1-1.023-1.119c-.246-.493-.369-1.088-.369-1.785v-5.556h2.057v5.238c0 .553.151.993.454 1.318.303.326.701.489 1.194.489.303 0 .596-.074.88-.221.284-.148.517-.368.7-.66.185-.295.278-.664.278-1.108Zm3.851 3.671v-8.727h1.995v1.454h.09c.16-.504.433-.892.819-1.165.39-.276.835-.414 1.335-.414.114 0 .24.005.38.017.145.007.264.021.359.039v1.893a2.123 2.123 0 0 0-.415-.08 3.747 3.747 0 0 0-.54-.04 2.08 2.08 0 0 0-1.011.245c-.296.159-.529.38-.7.664-.17.284-.255.612-.255.983v5.131h-2.057Zm12.184.176a3.639 3.639 0 0 1-1.494-.295 2.44 2.44 0 0 1-1.045-.887c-.254-.39-.381-.871-.381-1.443 0-.492.091-.9.273-1.222.181-.321.429-.579.744-.772a3.767 3.767 0 0 1 1.062-.438 8.628 8.628 0 0 1 1.233-.221 51.91 51.91 0 0 0 1.245-.142c.318-.046.549-.114.693-.205.148-.095.221-.24.221-.437v-.035c0-.428-.126-.759-.38-.994s-.62-.352-1.097-.352c-.504 0-.903.11-1.199.329-.291.22-.488.48-.591.779l-1.92-.273c.151-.53.401-.973.75-1.329.348-.36.775-.629 1.278-.807a4.89 4.89 0 0 1 1.671-.273c.42 0 .839.049 1.255.148.417.098.798.261 1.143.488.344.224.621.529.829.915.212.387.318.869.318 1.449v5.841h-1.977v-1.199h-.068c-.125.242-.301.47-.529.682a2.542 2.542 0 0 1-.846.506c-.337.125-.733.187-1.188.187Zm.534-1.511c.413 0 .771-.082 1.074-.245a1.8 1.8 0 0 0 .699-.659c.167-.272.25-.57.25-.892v-1.028a.973.973 0 0 1-.329.148 4.76 4.76 0 0 1-.512.119 17.23 17.23 0 0 1-.562.091l-.483.068c-.307.042-.582.11-.824.205a1.36 1.36 0 0 0-.574.397c-.14.167-.21.383-.21.648 0 .379.138.665.415.858.276.193.628.29 1.056.29Zm11.385-2.336v-5.056h2.057v8.727h-1.995v-1.551h-.09a2.63 2.63 0 0 1-.972 1.199c-.447.31-.998.466-1.653.466-.572 0-1.078-.127-1.518-.381a2.652 2.652 0 0 1-1.022-1.119c-.246-.493-.37-1.088-.37-1.785v-5.556h2.057v5.238c0 .553.152.993.455 1.318.303.326.701.489 1.193.489.303 0 .597-.074.881-.221.284-.148.517-.368.699-.66.185-.295.278-.664.278-1.108Zm8.21-5.056v1.591h-5.017v-1.591h5.017Zm-3.779-2.091h2.057v8.193c0 .276.042.489.125.636a.676.676 0 0 0 .341.296c.14.053.296.079.466.079.129 0 .246-.009.352-.028.11-.019.193-.036.25-.051l.347 1.608c-.11.038-.267.079-.472.125a3.857 3.857 0 0 1-.738.079 3.343 3.343 0 0 1-1.392-.233 2.16 2.16 0 0 1-.983-.807c-.239-.363-.356-.818-.353-1.363v-8.534Zm7.423 5.704v5.114h-2.057v-11.636h2.012v4.392h.102c.205-.493.521-.881.949-1.165.432-.288.981-.432 1.648-.432.606 0 1.134.127 1.585.381.451.253.799.625 1.045 1.113.25.489.375 1.086.375 1.79v5.557h-2.057v-5.239c0-.587-.151-1.043-.454-1.369-.299-.33-.72-.494-1.261-.494-.364 0-.69.079-.978.238a1.677 1.677 0 0 0-.67.676c-.159.296-.239.654-.239 1.074Zm11.3 5.284c-.875 0-1.631-.181-2.268-.545a3.692 3.692 0 0 1-1.46-1.557c-.341-.674-.511-1.468-.511-2.381 0-.897.17-1.685.511-2.363a3.872 3.872 0 0 1 1.443-1.591c.618-.383 1.343-.574 2.177-.574a4.41 4.41 0 0 1 1.522.261c.481.171.906.436 1.273.796.371.36.663.818.875 1.375.212.553.318 1.212.318 1.977v.631h-7.153v-1.387h5.182a2.21 2.21 0 0 0-.256-1.051c-.167-.31-.4-.555-.699-.733a1.963 1.963 0 0 0-1.034-.267c-.42 0-.79.103-1.108.307a2.114 2.114 0 0 0-.744.796 2.266 2.266 0 0 0-.267 1.073v1.211c0 .507.092.943.278 1.306.186.36.445.637.778.83.334.189.724.284 1.171.284.299 0 .57-.042.812-.125.243-.087.453-.214.631-.381.178-.166.313-.373.404-.619l1.92.216a2.991 2.991 0 0 1-.693 1.33 3.385 3.385 0 0 1-1.296.875c-.526.204-1.128.306-1.806.306Zm7.357-5.284v5.114h-2.057v-8.727h1.966v1.483h.102c.201-.489.521-.877.961-1.165.443-.288.99-.432 1.642-.432.602 0 1.127.129 1.574.386.45.258.799.631 1.045 1.12.25.488.373 1.081.369 1.778v5.557h-2.056v-5.239c0-.583-.152-1.039-.455-1.369-.299-.33-.714-.494-1.244-.494-.36 0-.68.079-.961.238a1.663 1.663 0 0 0-.653.676c-.155.296-.233.654-.233 1.074Zm11.731-3.613v1.591h-5.017v-1.591h5.017Zm-3.778-2.091h2.057v8.193c0 .276.041.489.125.636.087.144.2.243.341.296.14.053.295.079.465.079.129 0 .247-.009.353-.028.11-.019.193-.036.25-.051l.346 1.608c-.11.038-.267.079-.471.125a3.86 3.86 0 0 1-.739.079 3.348 3.348 0 0 1-1.392-.233 2.164 2.164 0 0 1-.983-.807c-.239-.363-.356-.818-.352-1.363v-8.534Zm5.178 10.818v-8.727h2.057v8.727h-2.057Zm1.034-9.966c-.325 0-.606-.108-.84-.324a1.045 1.045 0 0 1-.353-.79c0-.31.118-.573.353-.789.234-.22.515-.33.84-.33.33 0 .61.11.841.33.235.216.353.479.353.789 0 .307-.118.57-.353.79a1.186 1.186 0 0 1-.841.324Zm6.625 10.136c-.871 0-1.619-.191-2.244-.573a3.834 3.834 0 0 1-1.438-1.586c-.333-.678-.5-1.458-.5-2.341 0-.886.171-1.668.512-2.346a3.819 3.819 0 0 1 1.443-1.591c.625-.383 1.363-.574 2.216-.574.708 0 1.335.131 1.88.392.55.258.987.623 1.313 1.097.326.469.511 1.019.557 1.647h-1.966c-.08-.42-.269-.77-.568-1.051-.296-.284-.692-.426-1.188-.426-.42 0-.79.114-1.108.341-.318.224-.566.545-.744.966-.174.42-.261.924-.261 1.511 0 .595.087 1.106.261 1.534.174.425.418.752.733.983a1.87 1.87 0 0 0 1.119.341c.303 0 .574-.057.813-.17.242-.118.445-.286.608-.506.162-.22.274-.487.335-.801h1.966a3.43 3.43 0 0 1-.546 1.642 3.222 3.222 0 0 1-1.284 1.114c-.541.265-1.178.397-1.909.397Zm7.619.006a3.639 3.639 0 0 1-1.494-.295 2.443 2.443 0 0 1-1.046-.887c-.254-.39-.38-.871-.38-1.443 0-.492.09-.9.272-1.222.182-.321.43-.579.745-.772a3.767 3.767 0 0 1 1.062-.438 8.628 8.628 0 0 1 1.233-.221c.511-.053.926-.101 1.244-.142.319-.046.55-.114.694-.205.147-.095.221-.24.221-.437v-.035c0-.428-.127-.759-.381-.994-.253-.235-.619-.352-1.096-.352-.504 0-.904.11-1.199.329-.292.22-.489.48-.591.779l-1.92-.273c.151-.53.401-.973.75-1.329.348-.36.774-.629 1.278-.807a4.89 4.89 0 0 1 1.671-.273c.42 0 .839.049 1.255.148.417.098.798.261 1.142.488.345.224.621.529.83.915.212.387.318.869.318 1.449v5.841h-1.977v-1.199h-.068c-.125.242-.302.47-.529.682a2.552 2.552 0 0 1-.846.506c-.338.125-.733.187-1.188.187Zm.534-1.511c.413 0 .771-.082 1.074-.245a1.8 1.8 0 0 0 .699-.659c.166-.272.25-.57.25-.892v-1.028a.98.98 0 0 1-.33.148 4.739 4.739 0 0 1-.511.119c-.189.034-.377.064-.563.091l-.483.068a3.59 3.59 0 0 0-.823.205 1.36 1.36 0 0 0-.574.397c-.14.167-.21.383-.21.648 0 .379.138.665.414.858.277.193.629.29 1.057.29Zm10.18-7.392v1.591h-5.017v-1.591h5.017Zm-3.778-2.091h2.057v8.193c0 .276.041.489.125.636.087.144.2.243.34.296.141.053.296.079.466.079.129 0 .247-.009.353-.028.109-.019.193-.036.25-.051l.346 1.608c-.11.038-.267.079-.471.125a3.86 3.86 0 0 1-.739.079 3.348 3.348 0 0 1-1.392-.233 2.16 2.16 0 0 1-.983-.807c-.239-.363-.356-.818-.352-1.363v-8.534Zm8.891 10.988c-.852 0-1.591-.187-2.216-.562a3.822 3.822 0 0 1-1.454-1.574c-.341-.674-.511-1.462-.511-2.364 0-.901.17-1.691.511-2.369a3.811 3.811 0 0 1 1.454-1.579c.625-.375 1.364-.563 2.216-.563.853 0 1.591.188 2.216.563a3.774 3.774 0 0 1 1.449 1.579c.345.678.517 1.468.517 2.369 0 .902-.172 1.69-.517 2.364a3.785 3.785 0 0 1-1.449 1.574c-.625.375-1.363.562-2.216.562Zm.012-1.647c.462 0 .848-.127 1.159-.381.31-.258.541-.602.693-1.034.155-.432.233-.913.233-1.443 0-.534-.078-1.017-.233-1.449-.152-.436-.383-.782-.693-1.04-.311-.258-.697-.386-1.159-.386-.474 0-.868.128-1.182.386-.311.258-.544.604-.699 1.04a4.37 4.37 0 0 0-.227 1.449c0 .53.076 1.011.227 1.443.155.432.388.776.699 1.034.314.254.708.381 1.182.381Zm5.596 1.477v-8.727h1.994v1.454h.091c.159-.504.432-.892.818-1.165.39-.276.836-.414 1.336-.414.113 0 .24.005.38.017.144.007.263.021.358.039v1.893a2.114 2.114 0 0 0-.415-.08 3.733 3.733 0 0 0-.539-.04c-.375 0-.713.082-1.012.245-.295.159-.528.38-.699.664-.17.284-.255.612-.255.983v5.131h-2.057Zm12.184.176a3.647 3.647 0 0 1-1.495-.295 2.446 2.446 0 0 1-1.045-.887c-.254-.39-.381-.871-.381-1.443 0-.492.091-.9.273-1.222.182-.321.43-.579.744-.772a3.785 3.785 0 0 1 1.063-.438 8.628 8.628 0 0 1 1.233-.221c.511-.053.926-.101 1.244-.142.318-.046.549-.114.693-.205.148-.095.222-.24.222-.437v-.035c0-.428-.127-.759-.381-.994s-.619-.352-1.096-.352c-.504 0-.904.11-1.199.329-.292.22-.489.48-.591.779l-1.921-.273c.152-.53.402-.973.75-1.329.349-.36.775-.629 1.279-.807a4.884 4.884 0 0 1 1.67-.273c.421 0 .839.049 1.256.148.417.098.797.261 1.142.488.345.224.621.529.83.915.212.387.318.869.318 1.449v5.841h-1.978v-1.199h-.068a2.52 2.52 0 0 1-.528.682 2.557 2.557 0 0 1-.847.506c-.337.125-.733.187-1.187.187Zm.534-1.511c.413 0 .771-.082 1.074-.245a1.8 1.8 0 0 0 .699-.659c.166-.272.25-.57.25-.892v-1.028a.99.99 0 0 1-.33.148 4.739 4.739 0 0 1-.511.119c-.19.034-.377.064-.563.091l-.483.068a3.6 3.6 0 0 0-.824.205 1.374 1.374 0 0 0-.574.397c-.14.167-.21.383-.21.648 0 .379.139.665.415.858.277.193.629.29 1.057.29Zm5.822 4.608v-12h2.023v1.443h.119c.106-.212.256-.438.449-.676.193-.243.454-.449.784-.62.329-.174.75-.261 1.261-.261.675 0 1.282.172 1.824.517.546.341.977.847 1.296 1.517.322.667.483 1.485.483 2.455 0 .958-.158 1.772-.472 2.443-.314.67-.742 1.182-1.284 1.534a3.304 3.304 0 0 1-1.841.528c-.5 0-.915-.083-1.244-.25a2.519 2.519 0 0 1-.796-.602 3.922 3.922 0 0 1-.46-.676h-.085v4.648h-2.057Zm2.017-7.637c0 .565.079 1.059.239 1.483.162.424.395.756.698.995.307.234.678.352 1.114.352.455 0 .835-.121 1.142-.364.307-.246.538-.581.693-1.005a4.18 4.18 0 0 0 .239-1.461 4.16 4.16 0 0 0-.233-1.443c-.155-.42-.386-.75-.693-.989-.307-.238-.69-.357-1.148-.357-.439 0-.812.115-1.119.346-.307.231-.54.555-.699.972-.155.416-.233.907-.233 1.471Zm7.663 7.637v-12h2.023v1.443h.119c.106-.212.256-.438.449-.676.193-.243.454-.449.784-.62.329-.174.75-.261 1.261-.261.674 0 1.282.172 1.824.517.546.341.977.847 1.296 1.517.322.667.483 1.485.483 2.455 0 .958-.158 1.772-.472 2.443-.314.67-.742 1.182-1.284 1.534a3.304 3.304 0 0 1-1.841.528c-.5 0-.915-.083-1.244-.25a2.519 2.519 0 0 1-.796-.602 3.922 3.922 0 0 1-.46-.676h-.085v4.648h-2.057Zm2.017-7.637c0 .565.079 1.059.239 1.483.162.424.395.756.698.995.307.234.678.352 1.114.352.455 0 .835-.121 1.142-.364.307-.246.538-.581.693-1.005a4.18 4.18 0 0 0 .239-1.461 4.16 4.16 0 0 0-.233-1.443c-.155-.42-.386-.75-.693-.989-.307-.238-.69-.357-1.148-.357-.439 0-.812.115-1.119.346-.307.231-.54.555-.699.972-.155.416-.233.907-.233 1.471Z"/><path fill="#96A396" d="M19.186 329.87v-.833h5.818v.833h-2.44v6.924h-.939v-6.924h-2.44Zm7.798 6.924-1.773-5.818h.94l1.257 4.455h.061l1.242-4.455h.955l1.227 4.44h.06l1.259-4.44h.939l-1.773 5.818H30.5l-1.272-4.469h-.091l-1.273 4.469h-.879Zm9.514.122c-.525 0-.986-.125-1.382-.375-.394-.25-.702-.6-.924-1.05-.22-.449-.33-.974-.33-1.575 0-.606.11-1.135.33-1.587.222-.452.53-.804.924-1.054.396-.25.857-.375 1.382-.375.526 0 .985.125 1.38.375.396.25.704.602.923 1.054.223.452.334.981.334 1.587 0 .601-.111 1.126-.334 1.575-.22.45-.527.8-.924 1.05-.394.25-.853.375-1.379.375Zm0-.803c.4 0 .728-.103.985-.307.258-.205.449-.474.572-.807.124-.333.186-.694.186-1.083s-.062-.752-.186-1.087a1.833 1.833 0 0 0-.572-.815c-.257-.207-.586-.31-.985-.31s-.727.103-.984.31a1.833 1.833 0 0 0-.572.815 3.114 3.114 0 0 0-.186 1.087c0 .389.062.75.186 1.083.123.333.314.602.572.807.257.204.585.307.984.307Zm7.335-3.061v.833h-3.394v-.833h3.394Zm5.694-.773-.803.228a1.505 1.505 0 0 0-.224-.391 1.1 1.1 0 0 0-.394-.318c-.166-.083-.38-.125-.64-.125-.356 0-.653.082-.89.246-.235.162-.352.368-.352.618 0 .222.08.398.242.526.162.129.414.236.758.322l.863.212c.52.127.908.32 1.163.58.255.258.383.59.383.996 0 .334-.096.632-.288.894a1.91 1.91 0 0 1-.795.621c-.341.152-.738.228-1.19.228-.593 0-1.084-.129-1.473-.387-.39-.257-.635-.634-.739-1.129l.848-.212c.081.314.234.548.459.705.227.156.524.235.89.235.417 0 .748-.089.992-.265.248-.18.372-.394.372-.644a.677.677 0 0 0-.213-.508c-.14-.139-.358-.242-.651-.311l-.97-.227c-.532-.126-.924-.322-1.174-.587-.247-.268-.371-.602-.371-1.004 0-.328.092-.618.276-.871.187-.252.441-.451.762-.595.323-.144.69-.216 1.098-.216.576 0 1.028.127 1.356.379.331.253.566.586.705 1Zm3.982-1.303v.758h-3.015v-.758h3.015Zm-2.137-1.394h.894v5.546c0 .252.037.442.11.568a.569.569 0 0 0 .288.25c.119.04.244.061.375.061a1.464 1.464 0 0 0 .394-.046l.182.803c-.06.023-.145.046-.254.068a1.823 1.823 0 0 1-.413.038c-.252 0-.5-.054-.742-.163a1.471 1.471 0 0 1-.599-.496c-.156-.222-.235-.502-.235-.841v-5.788Zm5.858 7.334c-.56 0-1.044-.124-1.45-.372a2.49 2.49 0 0 1-.936-1.045c-.217-.45-.326-.972-.326-1.568 0-.596.109-1.121.326-1.576a2.57 2.57 0 0 1 .917-1.068c.394-.258.853-.387 1.378-.387.303 0 .603.051.898.152.296.101.565.265.807.492.242.225.436.523.58.894.144.372.215.829.215 1.372v.378h-4.484v-.772h3.575c0-.329-.065-.622-.197-.879a1.482 1.482 0 0 0-.553-.61 1.549 1.549 0 0 0-.84-.223c-.357 0-.665.088-.925.265a1.741 1.741 0 0 0-.594.681 2.006 2.006 0 0 0-.209.902v.515c0 .44.076.812.227 1.118.154.303.368.534.64.693.273.156.59.235.951.235.235 0 .447-.033.637-.099.192-.068.357-.169.496-.303a1.37 1.37 0 0 0 .322-.507l.864.242a1.92 1.92 0 0 1-.459.773c-.214.219-.48.391-.795.515-.316.121-.67.182-1.065.182Zm3.77 2.06v-8h.863v.924h.106c.066-.101.157-.229.273-.386.119-.159.288-.3.507-.424.223-.126.523-.19.902-.19.49 0 .922.123 1.295.368.374.245.666.592.875 1.042.21.449.315.979.315 1.59 0 .617-.105 1.151-.315 1.603-.21.449-.5.798-.87 1.045-.372.245-.8.368-1.285.368-.374 0-.673-.062-.898-.186a1.662 1.662 0 0 1-.519-.428 5.615 5.615 0 0 1-.28-.402h-.076v3.076H61Zm.878-5.091c0 .44.065.827.193 1.163.13.334.317.595.565.784.247.187.55.281.909.281.373 0 .685-.099.935-.296.253-.199.442-.467.569-.803.128-.338.193-.715.193-1.129 0-.409-.063-.777-.19-1.106a1.709 1.709 0 0 0-.564-.784c-.25-.194-.564-.291-.943-.291-.364 0-.67.092-.917.276a1.662 1.662 0 0 0-.56.765 3.13 3.13 0 0 0-.19 1.14Zm13.379-2.909-2.152 5.818h-.909l-2.151-5.818h.97l1.606 4.637h.06l1.606-4.637h.97Zm3.41 5.94c-.56 0-1.043-.124-1.45-.372a2.49 2.49 0 0 1-.936-1.045c-.217-.45-.325-.972-.325-1.568 0-.596.108-1.121.325-1.576a2.57 2.57 0 0 1 .917-1.068c.394-.258.854-.387 1.379-.387.303 0 .602.051.898.152.295.101.564.265.806.492.243.225.436.523.58.894.144.372.216.829.216 1.372v.378h-4.485v-.772h3.576c0-.329-.066-.622-.197-.879a1.482 1.482 0 0 0-.553-.61 1.549 1.549 0 0 0-.841-.223c-.356 0-.664.088-.924.265a1.742 1.742 0 0 0-.595.681 2.006 2.006 0 0 0-.208.902v.515c0 .44.076.812.227 1.118.154.303.367.534.64.693.273.156.59.235.95.235.236 0 .448-.033.637-.099.192-.068.358-.169.496-.303a1.37 1.37 0 0 0 .322-.507l.864.242a1.92 1.92 0 0 1-.458.773 2.25 2.25 0 0 1-.796.515 2.95 2.95 0 0 1-1.064.182Zm3.77-.122v-5.818h.864v.879h.06a1.4 1.4 0 0 1 .576-.701c.278-.179.59-.269.94-.269.065 0 .147.002.245.004.099.003.173.006.224.011v.91c-.03-.008-.1-.019-.208-.035a2.129 2.129 0 0 0-.338-.026 1.58 1.58 0 0 0-.757.178 1.305 1.305 0 0 0-.712 1.186v3.681h-.894Zm3.969 0v-5.818h.893v5.818h-.893Zm.454-6.787a.638.638 0 0 1-.45-.178.574.574 0 0 1-.186-.429c0-.166.062-.309.185-.428a.638.638 0 0 1 .451-.178c.174 0 .323.06.447.178a.57.57 0 0 1 .19.428.57.57 0 0 1-.19.429.625.625 0 0 1-.447.178Zm4.668.969v.758H88.39v-.758h3.137Zm-2.197 5.818v-6.621c0-.333.078-.611.235-.833.156-.222.36-.389.61-.5a1.93 1.93 0 0 1 .791-.167 2.047 2.047 0 0 1 .848.152l-.257.772a3.872 3.872 0 0 0-.19-.056 1.138 1.138 0 0 0-.31-.034c-.295 0-.509.074-.64.223-.129.149-.193.367-.193.655v6.409h-.894Zm3.45 0v-5.818h.893v5.818h-.893Zm.454-6.787a.638.638 0 0 1-.45-.178.574.574 0 0 1-.186-.429c0-.166.062-.309.185-.428a.638.638 0 0 1 .451-.178c.174 0 .323.06.447.178a.57.57 0 0 1 .19.428.57.57 0 0 1-.19.429.625.625 0 0 1-.447.178Zm4.44 6.909c-.545 0-1.015-.129-1.409-.387a2.513 2.513 0 0 1-.909-1.064c-.212-.452-.318-.969-.318-1.549 0-.591.109-1.113.326-1.565a2.58 2.58 0 0 1 .916-1.064c.394-.258.854-.387 1.38-.387a2.6 2.6 0 0 1 1.105.228 2.1 2.1 0 0 1 .807.636c.21.273.34.591.39.955h-.894a1.39 1.39 0 0 0-.454-.705c-.233-.207-.546-.31-.94-.31-.348 0-.654.09-.916.272-.26.18-.464.433-.61.762-.144.325-.216.708-.216 1.147 0 .45.07.841.212 1.175.144.333.346.592.606.776.263.184.57.277.924.277.233 0 .444-.041.633-.122a1.3 1.3 0 0 0 .761-.894h.894a2.067 2.067 0 0 1-1.159 1.58c-.323.159-.7.239-1.129.239Zm5.307.015a2.36 2.36 0 0 1-1.003-.209 1.711 1.711 0 0 1-.716-.609c-.177-.268-.266-.591-.266-.97 0-.333.066-.604.197-.811a1.4 1.4 0 0 1 .527-.492c.22-.119.462-.207.727-.265.268-.061.537-.109.807-.144.354-.046.64-.08.86-.102.222-.026.384-.067.485-.125.103-.059.155-.16.155-.304v-.03c0-.374-.102-.664-.307-.871-.202-.207-.509-.311-.92-.311-.427 0-.762.094-1.004.281-.242.187-.413.386-.511.598l-.849-.303c.152-.353.354-.629.606-.826.255-.199.533-.338.834-.416.303-.081.601-.122.893-.122.187 0 .402.023.644.069.245.043.481.132.709.269.23.136.42.342.572.617.151.275.227.644.227 1.106v3.833h-.894v-.787h-.045a1.597 1.597 0 0 1-.303.405c-.142.144-.33.266-.565.367a2.173 2.173 0 0 1-.86.152Zm.137-.803c.353 0 .651-.07.894-.209a1.416 1.416 0 0 0 .742-1.231v-.818c-.038.046-.121.087-.25.125a4.118 4.118 0 0 1-.439.095 21.308 21.308 0 0 1-.856.114c-.233.03-.45.079-.652.147a1.14 1.14 0 0 0-.485.299c-.121.132-.182.311-.182.538 0 .311.115.546.345.705.232.156.527.235.883.235Zm6.692-5.152v.758h-3.015v-.758h3.015Zm-2.136-1.394h.893v5.546c0 .252.037.442.11.568a.57.57 0 0 0 .288.25c.119.04.244.061.375.061a1.475 1.475 0 0 0 .394-.046l.182.803a1.695 1.695 0 0 1-.254.068 1.819 1.819 0 0 1-.413.038c-.252 0-.5-.054-.742-.163a1.472 1.472 0 0 1-.599-.496c-.156-.222-.234-.502-.234-.841v-5.788Zm3.481 7.212v-5.818h.894v5.818h-.894Zm.454-6.787a.64.64 0 0 1-.451-.178.576.576 0 0 1-.185-.429c0-.166.062-.309.185-.428a.64.64 0 0 1 .451-.178c.174 0 .323.06.447.178a.57.57 0 0 1 .19.428.57.57 0 0 1-.19.429.626.626 0 0 1-.447.178Zm4.44 6.909c-.525 0-.986-.125-1.382-.375-.394-.25-.702-.6-.924-1.05-.22-.449-.33-.974-.33-1.575 0-.606.11-1.135.33-1.587.222-.452.53-.804.924-1.054.396-.25.857-.375 1.382-.375.526 0 .985.125 1.379.375.397.25.705.602.925 1.054.222.452.333.981.333 1.587 0 .601-.111 1.126-.333 1.575-.22.45-.528.8-.925 1.05-.394.25-.853.375-1.379.375Zm0-.803c.399 0 .728-.103.985-.307.258-.205.449-.474.572-.807a3.08 3.08 0 0 0 .186-1.083 3.11 3.11 0 0 0-.186-1.087 1.824 1.824 0 0 0-.572-.815c-.257-.207-.586-.31-.985-.31s-.727.103-.984.31a1.824 1.824 0 0 0-.572.815 3.11 3.11 0 0 0-.186 1.087c0 .389.062.75.186 1.083.123.333.314.602.572.807.257.204.585.307.984.307Zm4.895-2.819v3.5h-.894v-5.818h.864v.909h.076c.136-.295.343-.532.621-.712.278-.182.636-.273 1.076-.273.394 0 .738.081 1.034.243.295.159.525.401.689.727.164.323.246.733.246 1.227v3.697h-.893v-3.636c0-.457-.119-.813-.357-1.068-.237-.258-.563-.386-.977-.386-.285 0-.54.061-.765.185a1.322 1.322 0 0 0-.526.542c-.129.237-.194.525-.194.863Zm9.179 1.379-.015-1.106h.182l2.545-2.591h1.107l-2.713 2.743h-.075l-1.031.954Zm-.833 2.121v-7.757h.894v7.757h-.894Zm3.697 0-2.273-2.878.637-.622 2.772 3.5h-1.136Zm4.305.122c-.561 0-1.044-.124-1.451-.372a2.485 2.485 0 0 1-.935-1.045c-.218-.45-.326-.972-.326-1.568 0-.596.108-1.121.326-1.576.219-.457.525-.813.916-1.068.394-.258.854-.387 1.379-.387.303 0 .602.051.898.152.295.101.564.265.807.492.242.225.435.523.579.894.144.372.216.829.216 1.372v.378h-4.485v-.772h3.576c0-.329-.066-.622-.197-.879a1.483 1.483 0 0 0-.553-.61 1.548 1.548 0 0 0-.841-.223c-.356 0-.664.088-.924.265a1.74 1.74 0 0 0-.595.681 2.005 2.005 0 0 0-.208.902v.515c0 .44.075.812.227 1.118.154.303.367.534.64.693.273.156.59.235.951.235.235 0 .447-.033.636-.099.192-.068.358-.169.496-.303a1.36 1.36 0 0 0 .322-.507l.864.242c-.091.293-.244.55-.458.773a2.25 2.25 0 0 1-.796.515 2.95 2.95 0 0 1-1.064.182Zm6.208 0c-.56 0-1.044-.124-1.451-.372a2.491 2.491 0 0 1-.935-1.045c-.217-.45-.326-.972-.326-1.568 0-.596.109-1.121.326-1.576.22-.457.525-.813.917-1.068.393-.258.853-.387 1.378-.387.303 0 .603.051.898.152.296.101.564.265.807.492.242.225.435.523.579.894.144.372.216.829.216 1.372v.378h-4.485v-.772h3.576c0-.329-.065-.622-.197-.879a1.483 1.483 0 0 0-.553-.61 1.546 1.546 0 0 0-.841-.223c-.356 0-.664.088-.924.265a1.748 1.748 0 0 0-.595.681 2.005 2.005 0 0 0-.208.902v.515c0 .44.076.812.227 1.118.154.303.368.534.64.693.273.156.59.235.951.235.235 0 .447-.033.637-.099.192-.068.357-.169.496-.303.139-.136.246-.305.322-.507l.863.242c-.09.293-.243.55-.458.773-.215.219-.48.391-.795.515a2.96 2.96 0 0 1-1.065.182Zm3.769 2.06v-8h.864v.924h.106c.066-.101.156-.229.273-.386.118-.159.287-.3.507-.424.222-.126.523-.19.902-.19.49 0 .921.123 1.295.368.374.245.666.592.875 1.042.21.449.315.979.315 1.59 0 .617-.105 1.151-.315 1.603-.209.449-.5.798-.871 1.045a2.277 2.277 0 0 1-1.284.368c-.374 0-.673-.062-.898-.186a1.656 1.656 0 0 1-.519-.428 5.763 5.763 0 0 1-.28-.402h-.076v3.076h-.894Zm.879-5.091c0 .44.064.827.193 1.163.129.334.317.595.565.784.247.187.55.281.909.281.373 0 .685-.099.935-.296.253-.199.442-.467.568-.803.129-.338.194-.715.194-1.129a3.07 3.07 0 0 0-.19-1.106 1.713 1.713 0 0 0-.564-.784c-.25-.194-.565-.291-.943-.291-.364 0-.67.092-.917.276a1.663 1.663 0 0 0-.561.765 3.152 3.152 0 0 0-.189 1.14Zm9.742-1.606-.803.228a1.503 1.503 0 0 0-.223-.391 1.097 1.097 0 0 0-.394-.318c-.167-.083-.38-.125-.64-.125-.356 0-.653.082-.89.246-.235.162-.353.368-.353.618 0 .222.081.398.243.526.161.129.414.236.757.322l.864.212c.52.127.908.32 1.163.58.255.258.382.59.382.996 0 .334-.096.632-.287.894-.19.263-.455.47-.796.621-.341.152-.737.228-1.189.228-.594 0-1.085-.129-1.474-.387-.389-.257-.635-.634-.738-1.129l.848-.212c.081.314.234.548.458.705.228.156.524.235.891.235.416 0 .747-.089.992-.265.247-.18.371-.394.371-.644a.678.678 0 0 0-.212-.508c-.141-.139-.359-.242-.651-.311l-.97-.227c-.533-.126-.924-.322-1.174-.587-.248-.268-.372-.602-.372-1.004 0-.328.093-.618.277-.871.187-.252.441-.451.761-.595.324-.144.69-.216 1.099-.216.576 0 1.028.127 1.356.379.331.253.565.586.704 1Zm5.028 6.697c-.152 0-.287-.012-.405-.038a1.034 1.034 0 0 1-.247-.068l.228-.788c.217.056.409.076.575.061a.69.69 0 0 0 .444-.224c.131-.131.251-.344.359-.64l.167-.454-2.151-5.849h.969l1.606 4.637h.061l1.606-4.637h.97l-2.47 6.667c-.111.3-.249.549-.413.746-.164.2-.355.347-.572.443a1.764 1.764 0 0 1-.727.144Zm7.517-2.06c-.525 0-.986-.125-1.383-.375-.394-.25-.702-.6-.924-1.05-.22-.449-.329-.974-.329-1.575 0-.606.109-1.135.329-1.587.222-.452.53-.804.924-1.054.397-.25.858-.375 1.383-.375s.985.125 1.379.375c.396.25.704.602.924 1.054.222.452.333.981.333 1.587 0 .601-.111 1.126-.333 1.575-.22.45-.528.8-.924 1.05-.394.25-.854.375-1.379.375Zm0-.803c.399 0 .727-.103.985-.307a1.82 1.82 0 0 0 .572-.807c.123-.333.185-.694.185-1.083s-.062-.752-.185-1.087a1.84 1.84 0 0 0-.572-.815c-.258-.207-.586-.31-.985-.31s-.727.103-.985.31a1.832 1.832 0 0 0-.572.815 3.11 3.11 0 0 0-.186 1.087c0 .389.062.75.186 1.083.124.333.314.602.572.807.258.204.586.307.985.307Zm7.668-1.697v-3.44h.893v5.818h-.893v-.984h-.061a1.913 1.913 0 0 1-.636.753c-.288.205-.652.307-1.091.307-.364 0-.687-.079-.97-.238a1.672 1.672 0 0 1-.667-.728c-.161-.325-.242-.736-.242-1.231v-3.697h.894v3.637c0 .424.118.762.356 1.015.24.252.545.379.917.379.222 0 .448-.057.678-.171.232-.114.426-.288.583-.523.159-.234.239-.534.239-.897Zm2.531 2.378v-5.818h.863v.879h.061a1.4 1.4 0 0 1 .576-.701c.278-.179.591-.269.939-.269.066 0 .148.002.246.004.099.003.173.006.224.011v.91c-.03-.008-.1-.019-.208-.035a2.146 2.146 0 0 0-.338-.026c-.282 0-.535.059-.757.178a1.307 1.307 0 0 0-.712 1.186v3.681h-.894Zm8.287 0-1.773-5.818h.939l1.258 4.455h.061l1.242-4.455h.955l1.227 4.44h.06l1.258-4.44h.939l-1.772 5.818h-.879l-1.273-4.469h-.091l-1.273 4.469h-.878Zm9.06.137c-.368 0-.703-.07-1.004-.209a1.715 1.715 0 0 1-.715-.609c-.177-.268-.266-.591-.266-.97 0-.333.066-.604.197-.811a1.4 1.4 0 0 1 .527-.492c.22-.119.462-.207.727-.265.268-.061.537-.109.807-.144.354-.046.64-.08.86-.102.222-.026.384-.067.485-.125.103-.059.155-.16.155-.304v-.03c0-.374-.102-.664-.307-.871-.202-.207-.509-.311-.92-.311-.427 0-.762.094-1.004.281-.242.187-.413.386-.511.598l-.849-.303c.152-.353.354-.629.606-.826.255-.199.533-.338.833-.416.304-.081.602-.122.894-.122.187 0 .402.023.644.069.245.043.481.132.709.269.23.136.42.342.572.617.151.275.227.644.227 1.106v3.833h-.894v-.787h-.045a1.597 1.597 0 0 1-.303.405c-.142.144-.33.266-.565.367a2.173 2.173 0 0 1-.86.152Zm.137-.803c.353 0 .651-.07.894-.209a1.416 1.416 0 0 0 .742-1.231v-.818c-.038.046-.121.087-.25.125a4.118 4.118 0 0 1-.439.095 21.308 21.308 0 0 1-.856.114c-.233.03-.45.079-.652.147a1.14 1.14 0 0 0-.485.299c-.121.132-.182.311-.182.538 0 .311.115.546.345.705.232.156.527.235.883.235Zm5.056-7.091v7.757h-.894v-7.757h.894Zm2.531 0v7.757h-.894v-7.757h.894Zm4.076 7.879c-.56 0-1.044-.124-1.45-.372a2.493 2.493 0 0 1-.936-1.045c-.217-.45-.326-.972-.326-1.568 0-.596.109-1.121.326-1.576.22-.457.525-.813.917-1.068.394-.258.853-.387 1.379-.387.303 0 .602.051.897.152.296.101.565.265.807.492.243.225.436.523.58.894.144.372.216.829.216 1.372v.378h-4.485v-.772h3.575c0-.329-.065-.622-.196-.879a1.485 1.485 0 0 0-.554-.61 1.545 1.545 0 0 0-.84-.223c-.356 0-.665.088-.925.265a1.746 1.746 0 0 0-.594.681 2.005 2.005 0 0 0-.209.902v.515c0 .44.076.812.228 1.118.154.303.367.534.64.693.272.156.589.235.95.235.235 0 .447-.033.637-.099.192-.068.357-.169.496-.303.139-.136.246-.305.322-.507l.864.242a1.92 1.92 0 0 1-.459.773 2.236 2.236 0 0 1-.795.515 2.96 2.96 0 0 1-1.065.182Zm6.3-5.94v.758h-3.015v-.758h3.015Zm-2.137-1.394h.894v5.546c0 .252.037.442.11.568a.57.57 0 0 0 .288.25c.119.04.244.061.375.061a1.454 1.454 0 0 0 .394-.046l.182.803a1.695 1.695 0 0 1-.254.068 1.825 1.825 0 0 1-.413.038c-.252 0-.5-.054-.742-.163a1.472 1.472 0 0 1-.599-.496c-.156-.222-.235-.502-.235-.841v-5.788Zm10.603 2.697-.803.228a1.507 1.507 0 0 0-.224-.391 1.097 1.097 0 0 0-.394-.318c-.166-.083-.38-.125-.64-.125-.356 0-.653.082-.89.246-.235.162-.352.368-.352.618 0 .222.08.398.242.526.162.129.414.236.758.322l.863.212c.52.127.908.32 1.163.58.255.258.383.59.383.996 0 .334-.096.632-.288.894-.19.263-.455.47-.796.621-.341.152-.737.228-1.189.228-.593 0-1.085-.129-1.474-.387-.388-.257-.635-.634-.738-1.129l.848-.212c.081.314.234.548.459.705.227.156.524.235.89.235.416 0 .747-.089.992-.265.248-.18.371-.394.371-.644a.675.675 0 0 0-.212-.508c-.141-.139-.358-.242-.651-.311l-.97-.227c-.533-.126-.924-.322-1.174-.587-.248-.268-.371-.602-.371-1.004 0-.328.092-.618.276-.871.187-.252.441-.451.762-.595a2.67 2.67 0 0 1 1.098-.216c.576 0 1.028.127 1.356.379.331.253.566.586.705 1Zm3.163 4.652a2.36 2.36 0 0 1-1.003-.209 1.717 1.717 0 0 1-.716-.609c-.177-.268-.265-.591-.265-.97 0-.333.065-.604.197-.811a1.39 1.39 0 0 1 .526-.492c.22-.119.462-.207.727-.265.268-.061.537-.109.807-.144.354-.046.64-.08.86-.102.222-.026.384-.067.485-.125.103-.059.155-.16.155-.304v-.03c0-.374-.102-.664-.307-.871-.202-.207-.508-.311-.92-.311-.427 0-.761.094-1.004.281-.242.187-.413.386-.511.598l-.849-.303c.152-.353.354-.629.606-.826.255-.199.533-.338.834-.416.303-.081.601-.122.894-.122.186 0 .401.023.644.069.244.043.481.132.708.269.23.136.42.342.572.617.151.275.227.644.227 1.106v3.833h-.894v-.787h-.045a1.597 1.597 0 0 1-.303.405c-.142.144-.33.266-.565.367a2.173 2.173 0 0 1-.86.152Zm.137-.803c.353 0 .651-.07.894-.209a1.416 1.416 0 0 0 .742-1.231v-.818c-.038.046-.121.087-.25.125a4.118 4.118 0 0 1-.439.095 20.53 20.53 0 0 1-.856.114c-.233.03-.45.079-.652.147a1.14 1.14 0 0 0-.485.299c-.121.132-.181.311-.181.538 0 .311.114.546.344.705.233.156.527.235.883.235Zm6.753-5.152v.758h-3.137v-.758h3.137Zm-2.197 5.818v-6.621c0-.333.078-.611.235-.833a1.45 1.45 0 0 1 .609-.5 1.93 1.93 0 0 1 .792-.167c.22 0 .399.018.538.053.139.036.242.068.311.099l-.258.772a3.935 3.935 0 0 0-.189-.056 1.144 1.144 0 0 0-.311-.034c-.295 0-.509.074-.64.223-.129.149-.193.367-.193.655v6.409h-.894Zm5.649.122c-.56 0-1.044-.124-1.45-.372a2.493 2.493 0 0 1-.936-1.045c-.217-.45-.326-.972-.326-1.568 0-.596.109-1.121.326-1.576.22-.457.525-.813.917-1.068.394-.258.853-.387 1.378-.387.303 0 .603.051.898.152.296.101.565.265.807.492.242.225.436.523.579.894.144.372.216.829.216 1.372v.378h-4.484v-.772h3.575c0-.329-.065-.622-.197-.879a1.476 1.476 0 0 0-.553-.61 1.546 1.546 0 0 0-.841-.223c-.356 0-.664.088-.924.265a1.748 1.748 0 0 0-.595.681 2.018 2.018 0 0 0-.208.902v.515c0 .44.076.812.227 1.118.154.303.368.534.641.693.272.156.589.235.95.235.235 0 .447-.033.637-.099.192-.068.357-.169.496-.303.139-.136.246-.305.322-.507l.863.242c-.09.293-.243.55-.458.773-.214.219-.48.391-.795.515a2.96 2.96 0 0 1-1.065.182Zm3.769-.122v-5.818h.864v.879h.06c.107-.288.298-.521.576-.701.278-.179.591-.269.94-.269.065 0 .147.002.246.004.098.003.173.006.223.011v.91a2.617 2.617 0 0 0-.208-.035 2.124 2.124 0 0 0-.337-.026c-.283 0-.535.059-.758.178a1.3 1.3 0 0 0-.712 1.186v3.681h-.894Zm-200.55 16v-7.757h.894v2.863h.075c.066-.101.157-.229.273-.386.119-.159.288-.3.508-.424.222-.126.522-.19.901-.19.49 0 .922.123 1.296.368.373.245.665.592.875 1.042.21.449.314.979.314 1.59 0 .617-.105 1.151-.314 1.603-.21.449-.5.798-.872 1.045-.37.245-.799.368-1.284.368-.373 0-.673-.062-.898-.186a1.662 1.662 0 0 1-.518-.428 5.582 5.582 0 0 1-.28-.402h-.107v.894h-.863Zm.878-2.909c0 .44.065.827.194 1.163.128.334.316.595.564.784.247.187.55.281.909.281.374 0 .686-.099.936-.296.252-.199.442-.467.568-.803.129-.338.193-.715.193-1.129 0-.409-.063-.777-.19-1.106a1.707 1.707 0 0 0-.564-.784c-.25-.194-.564-.291-.943-.291-.364 0-.67.092-.917.276a1.66 1.66 0 0 0-.56.765 3.13 3.13 0 0 0-.19 1.14Zm5.993 5.091c-.152 0-.287-.012-.406-.038a1.02 1.02 0 0 1-.246-.068l.228-.788c.217.056.409.076.575.061a.69.69 0 0 0 .444-.224c.13-.131.25-.344.36-.64l.166-.454-2.152-5.849h.97l1.606 4.637h.06l1.607-4.637h.97l-2.47 6.667c-.111.3-.249.549-.413.746-.164.2-.355.347-.572.443a1.763 1.763 0 0 1-.727.144Zm12.028-4.56v-3.44h.894v5.818h-.894v-.984h-.06a1.91 1.91 0 0 1-.637.753c-.288.205-.651.307-1.09.307-.364 0-.688-.079-.97-.238a1.67 1.67 0 0 1-.667-.728c-.162-.325-.242-.736-.242-1.231v-3.697h.893v3.637c0 .424.12.762.356 1.015.24.252.546.379.917.379.222 0 .448-.057.678-.171a1.48 1.48 0 0 0 .584-.523c.159-.234.238-.534.238-.897Zm6.653-2.137-.803.228a1.507 1.507 0 0 0-.224-.391 1.1 1.1 0 0 0-.394-.318c-.166-.083-.38-.125-.64-.125-.356 0-.653.082-.89.246-.235.162-.352.368-.352.618 0 .222.08.398.242.526.162.129.414.236.758.322l.863.212c.52.127.908.32 1.163.58.255.258.383.59.383.996 0 .334-.096.632-.288.894-.19.263-.455.47-.796.621-.34.152-.737.228-1.189.228-.593 0-1.085-.129-1.473-.387-.39-.257-.636-.634-.74-1.129l.85-.212c.08.314.233.548.458.705.227.156.524.235.89.235.416 0 .747-.089.992-.265.248-.18.371-.394.371-.644a.677.677 0 0 0-.212-.508c-.141-.139-.358-.242-.651-.311l-.97-.227c-.533-.126-.924-.322-1.174-.587-.248-.268-.371-.602-.371-1.004 0-.328.092-.618.276-.871.187-.252.44-.451.762-.595a2.67 2.67 0 0 1 1.098-.216c.576 0 1.028.127 1.356.379.33.253.566.586.705 1Zm1.451 4.515v-5.818h.894v5.818h-.894Zm.455-6.787a.638.638 0 0 1-.45-.178.574.574 0 0 1-.186-.429c0-.166.061-.309.185-.428a.638.638 0 0 1 .45-.178c.175 0 .324.06.448.178a.57.57 0 0 1 .19.428.57.57 0 0 1-.19.429.625.625 0 0 1-.447.178Zm2.97 3.287v3.5h-.893v-5.818h.863v.909h.076a1.67 1.67 0 0 1 .621-.712c.278-.182.637-.273 1.076-.273.394 0 .739.081 1.034.243.295.159.525.401.69.727.164.323.246.733.246 1.227v3.697h-.894v-3.636c0-.457-.119-.813-.356-1.068-.238-.258-.563-.386-.978-.386-.285 0-.54.061-.765.185a1.326 1.326 0 0 0-.526.542c-.129.237-.193.525-.193.863Zm7.695 5.803c-.432 0-.803-.055-1.114-.166a2.377 2.377 0 0 1-.777-.432 2.367 2.367 0 0 1-.488-.568l.712-.5c.08.106.183.227.307.363.124.139.293.259.507.36.218.104.502.156.853.156.47 0 .857-.114 1.163-.341.305-.228.458-.584.458-1.069v-1.181h-.076a5.03 5.03 0 0 1-.28.394c-.119.154-.29.291-.515.412-.222.119-.523.179-.902.179a2.43 2.43 0 0 1-1.265-.334 2.333 2.333 0 0 1-.882-.97c-.215-.424-.323-.939-.323-1.545 0-.596.105-1.115.315-1.557.21-.444.501-.788.875-1.03a2.31 2.31 0 0 1 1.295-.368c.38 0 .68.064.902.19.225.124.396.265.515.424a6 6 0 0 1 .28.386h.091v-.924h.864v5.985c0 .5-.114.907-.341 1.22a1.941 1.941 0 0 1-.91.693 3.43 3.43 0 0 1-1.264.223Zm-.03-3.197c.358 0 .661-.082.909-.246.247-.164.435-.4.564-.708.129-.308.193-.677.193-1.106 0-.419-.063-.789-.19-1.11a1.666 1.666 0 0 0-.56-.754c-.247-.182-.553-.272-.917-.272-.378 0-.694.095-.947.287-.25.192-.438.45-.564.773a2.988 2.988 0 0 0-.186 1.076c0 .404.064.761.19 1.072.129.308.318.55.568.727.252.174.566.261.94.261Zm7.302.894v-7.757h.894v2.863h.076c.066-.101.157-.229.273-.386a1.6 1.6 0 0 1 .507-.424c.223-.126.523-.19.902-.19.49 0 .922.123 1.295.368.374.245.666.592.875 1.042.21.449.315.979.315 1.59 0 .617-.105 1.151-.315 1.603-.21.449-.5.798-.87 1.045-.372.245-.8.368-1.285.368-.374 0-.673-.062-.898-.186a1.661 1.661 0 0 1-.519-.428 5.615 5.615 0 0 1-.28-.402h-.106v.894h-.864Zm.88-2.909c0 .44.064.827.192 1.163.13.334.317.595.565.784.247.187.55.281.909.281.374 0 .686-.099.936-.296.252-.199.441-.467.568-.803.129-.338.193-.715.193-1.129 0-.409-.063-.777-.19-1.106a1.709 1.709 0 0 0-.564-.784c-.25-.194-.564-.291-.943-.291-.364 0-.67.092-.917.276a1.661 1.661 0 0 0-.56.765 3.13 3.13 0 0 0-.19 1.14Zm7.988 3.031c-.525 0-.986-.125-1.383-.375-.394-.25-.702-.6-.924-1.05-.22-.449-.33-.974-.33-1.575 0-.606.11-1.135.33-1.587.222-.452.53-.804.924-1.054.397-.25.858-.375 1.383-.375s.985.125 1.379.375c.396.25.704.602.924 1.054.222.452.333.981.333 1.587 0 .601-.11 1.126-.333 1.575-.22.45-.528.8-.924 1.05-.394.25-.854.375-1.38.375Zm0-.803c.399 0 .727-.103.985-.307a1.82 1.82 0 0 0 .572-.807c.123-.333.185-.694.185-1.083s-.062-.752-.185-1.087a1.833 1.833 0 0 0-.572-.815c-.258-.207-.586-.31-.985-.31-.4 0-.727.103-.985.31a1.833 1.833 0 0 0-.572.815 3.117 3.117 0 0 0-.186 1.087c0 .389.062.75.186 1.083.124.333.314.602.572.807.258.204.586.307.985.307Zm6.531-5.137v.758h-3.015v-.758h3.015Zm-2.136-1.394h.894v5.546c0 .252.036.442.11.568a.564.564 0 0 0 .287.25c.119.04.244.061.375.061a1.467 1.467 0 0 0 .394-.046l.182.803c-.06.023-.145.046-.254.068a1.819 1.819 0 0 1-.413.038c-.252 0-.5-.054-.742-.163a1.469 1.469 0 0 1-.598-.496c-.157-.222-.235-.502-.235-.841v-5.788Zm4.5 3.712v3.5h-.894v-7.757h.894v2.848h.075c.137-.3.341-.539.614-.716.275-.179.642-.269 1.099-.269.396 0 .743.08 1.041.239.298.157.529.398.693.724.167.323.25.734.25 1.234v3.697h-.893v-3.636c0-.462-.12-.819-.36-1.072-.238-.255-.567-.382-.989-.382-.293 0-.556.061-.788.185-.23.124-.411.304-.545.542-.132.237-.197.525-.197.863Zm8.984 5.682c-.152 0-.287-.012-.406-.038a1.037 1.037 0 0 1-.246-.068l.227-.788c.218.056.409.076.576.061a.686.686 0 0 0 .443-.224c.132-.131.252-.344.36-.64l.167-.454-2.152-5.849h.97l1.606 4.637h.061l1.606-4.637h.969l-2.469 6.667c-.111.3-.249.549-.413.746-.164.2-.355.347-.572.443a1.764 1.764 0 0 1-.727.144Zm7.517-2.06c-.526 0-.986-.125-1.383-.375-.394-.25-.702-.6-.924-1.05-.22-.449-.33-.974-.33-1.575 0-.606.11-1.135.33-1.587.222-.452.53-.804.924-1.054.397-.25.857-.375 1.383-.375.525 0 .985.125 1.378.375.397.25.705.602.925 1.054.222.452.333.981.333 1.587 0 .601-.111 1.126-.333 1.575-.22.45-.528.8-.925 1.05-.393.25-.853.375-1.378.375Zm0-.803c.399 0 .727-.103.985-.307a1.81 1.81 0 0 0 .571-.807 3.08 3.08 0 0 0 .186-1.083 3.11 3.11 0 0 0-.186-1.087 1.83 1.83 0 0 0-.571-.815c-.258-.207-.586-.31-.985-.31s-.728.103-.985.31a1.832 1.832 0 0 0-.572.815 3.11 3.11 0 0 0-.186 1.087c0 .389.062.75.186 1.083.124.333.314.602.572.807.257.204.586.307.985.307Zm7.667-1.697v-3.44h.894v5.818h-.894v-.984h-.06a1.915 1.915 0 0 1-.637.753c-.288.205-.651.307-1.091.307-.363 0-.686-.079-.969-.238a1.672 1.672 0 0 1-.667-.728c-.162-.325-.242-.736-.242-1.231v-3.697h.894v3.637c0 .424.118.762.356 1.015.24.252.545.379.916.379.223 0 .449-.057.678-.171a1.48 1.48 0 0 0 .584-.523c.159-.234.238-.534.238-.897Zm2.532 2.378v-5.818h.863v.879h.061a1.4 1.4 0 0 1 .576-.701c.277-.179.59-.269.939-.269.066 0 .148.002.246.004.099.003.173.006.224.011v.91a2.77 2.77 0 0 0-.209-.035 2.124 2.124 0 0 0-.337-.026c-.283 0-.535.059-.757.178a1.308 1.308 0 0 0-.713 1.186v3.681h-.893Zm6.968 2.182v-8h.864v.924h.106c.066-.101.157-.229.273-.386a1.6 1.6 0 0 1 .507-.424c.223-.126.523-.19.902-.19.49 0 .922.123 1.295.368.374.245.666.592.875 1.042.21.449.315.979.315 1.59 0 .617-.105 1.151-.315 1.603-.209.449-.5.798-.871 1.045a2.277 2.277 0 0 1-1.284.368c-.374 0-.673-.062-.898-.186a1.668 1.668 0 0 1-.519-.428 5.763 5.763 0 0 1-.28-.402h-.076v3.076h-.894Zm.879-5.091c0 .44.064.827.193 1.163.129.334.317.595.565.784.247.187.55.281.909.281.373 0 .685-.099.935-.296.253-.199.442-.467.569-.803.128-.338.193-.715.193-1.129 0-.409-.063-.777-.19-1.106a1.706 1.706 0 0 0-.564-.784c-.25-.194-.564-.291-.943-.291-.364 0-.669.092-.917.276a1.67 1.67 0 0 0-.561.765 3.152 3.152 0 0 0-.189 1.14Zm7.333 3.046a2.36 2.36 0 0 1-1.003-.209 1.711 1.711 0 0 1-.716-.609c-.177-.268-.265-.591-.265-.97 0-.333.065-.604.197-.811a1.39 1.39 0 0 1 .526-.492c.22-.119.462-.207.727-.265.268-.061.537-.109.807-.144.354-.046.64-.08.86-.102.222-.026.384-.067.485-.125.103-.059.155-.16.155-.304v-.03c0-.374-.102-.664-.307-.871-.202-.207-.509-.311-.92-.311-.427 0-.761.094-1.004.281-.242.187-.413.386-.511.598l-.849-.303c.152-.353.354-.629.606-.826.255-.199.533-.338.834-.416.303-.081.601-.122.894-.122.186 0 .401.023.644.069.244.043.481.132.708.269.23.136.42.342.572.617.151.275.227.644.227 1.106v3.833h-.894v-.787h-.045a1.597 1.597 0 0 1-.303.405c-.142.144-.33.266-.565.367a2.173 2.173 0 0 1-.86.152Zm.137-.803c.353 0 .651-.07.894-.209a1.416 1.416 0 0 0 .742-1.231v-.818c-.038.046-.121.087-.25.125a4.118 4.118 0 0 1-.439.095 20.53 20.53 0 0 1-.856.114c-.233.03-.45.079-.652.147a1.14 1.14 0 0 0-.485.299c-.121.132-.181.311-.181.538 0 .311.114.546.344.705.233.156.527.235.883.235Zm8.283-3.849-.803.228a1.507 1.507 0 0 0-.224-.391 1.097 1.097 0 0 0-.394-.318c-.166-.083-.38-.125-.64-.125-.356 0-.652.082-.89.246-.235.162-.352.368-.352.618 0 .222.081.398.242.526.162.129.414.236.758.322l.864.212c.52.127.907.32 1.162.58.255.258.383.59.383.996 0 .334-.096.632-.288.894-.189.263-.454.47-.795.621-.341.152-.738.228-1.19.228-.593 0-1.084-.129-1.473-.387-.389-.257-.635-.634-.739-1.129l.849-.212c.08.314.233.548.458.705.227.156.524.235.89.235.417 0 .748-.089.993-.265.247-.18.371-.394.371-.644a.678.678 0 0 0-.212-.508c-.142-.139-.359-.242-.652-.311l-.97-.227c-.532-.126-.924-.322-1.174-.587-.247-.268-.371-.602-.371-1.004 0-.328.092-.618.276-.871.187-.252.441-.451.762-.595a2.67 2.67 0 0 1 1.098-.216c.576 0 1.028.127 1.356.379.331.253.566.586.705 1Zm5.573 0-.803.228a1.507 1.507 0 0 0-.224-.391 1.097 1.097 0 0 0-.394-.318c-.166-.083-.38-.125-.64-.125-.356 0-.653.082-.89.246-.235.162-.352.368-.352.618 0 .222.081.398.242.526.162.129.414.236.758.322l.863.212c.521.127.908.32 1.163.58.255.258.383.59.383.996 0 .334-.096.632-.288.894-.189.263-.455.47-.795.621-.341.152-.738.228-1.19.228-.593 0-1.084-.129-1.473-.387-.389-.257-.635-.634-.739-1.129l.849-.212c.08.314.233.548.458.705.227.156.524.235.89.235.417 0 .747-.089.992-.265.248-.18.372-.394.372-.644a.678.678 0 0 0-.212-.508c-.142-.139-.359-.242-.652-.311l-.97-.227c-.533-.126-.924-.322-1.174-.587-.247-.268-.371-.602-.371-1.004 0-.328.092-.618.276-.871.187-.252.441-.451.762-.595a2.67 2.67 0 0 1 1.098-.216c.576 0 1.028.127 1.356.379.331.253.566.586.705 1Zm2.77 4.515-1.773-5.818h.939l1.258 4.455h.061l1.242-4.455h.955l1.227 4.44h.06l1.258-4.44h.939l-1.772 5.818h-.879l-1.273-4.469h-.091l-1.272 4.469h-.879Zm9.514.122c-.525 0-.986-.125-1.383-.375-.394-.25-.702-.6-.924-1.05-.22-.449-.329-.974-.329-1.575 0-.606.109-1.135.329-1.587.222-.452.53-.804.924-1.054.397-.25.858-.375 1.383-.375s.985.125 1.379.375c.396.25.704.602.924 1.054.222.452.333.981.333 1.587 0 .601-.111 1.126-.333 1.575-.22.45-.528.8-.924 1.05-.394.25-.854.375-1.379.375Zm0-.803c.399 0 .727-.103.985-.307a1.82 1.82 0 0 0 .572-.807c.123-.333.185-.694.185-1.083s-.062-.752-.185-1.087a1.84 1.84 0 0 0-.572-.815c-.258-.207-.586-.31-.985-.31s-.727.103-.985.31a1.832 1.832 0 0 0-.572.815 3.11 3.11 0 0 0-.186 1.087c0 .389.062.75.186 1.083.124.333.314.602.572.807.258.204.586.307.985.307Zm4.001.681v-5.818h.864v.879h.06a1.4 1.4 0 0 1 .576-.701c.278-.179.591-.269.939-.269.066 0 .148.002.246.004.099.003.173.006.224.011v.91c-.03-.008-.1-.019-.208-.035a2.133 2.133 0 0 0-.337-.026 1.58 1.58 0 0 0-.758.178 1.307 1.307 0 0 0-.712 1.186v3.681h-.894Zm5.989.122c-.485 0-.913-.123-1.285-.368a2.484 2.484 0 0 1-.871-1.045c-.209-.452-.314-.986-.314-1.603 0-.611.105-1.141.314-1.59.21-.45.501-.797.875-1.042a2.312 2.312 0 0 1 1.296-.368c.378 0 .678.064.897.19.223.124.392.265.508.424.119.157.211.285.276.386h.076v-2.863h.894v7.757h-.863v-.894h-.107c-.065.107-.159.24-.28.402a1.656 1.656 0 0 1-.519.428c-.225.124-.524.186-.897.186Zm.121-.803c.358 0 .661-.094.909-.281.247-.189.435-.45.564-.784a3.23 3.23 0 0 0 .193-1.163c0-.434-.063-.814-.189-1.14a1.657 1.657 0 0 0-.561-.765c-.247-.184-.553-.276-.916-.276-.379 0-.695.097-.947.291-.25.192-.438.453-.565.784a3.137 3.137 0 0 0-.185 1.106c0 .414.063.791.189 1.129.129.336.318.604.568.803.253.197.566.296.94.296Zm9.019.818c-.369 0-.704-.07-1.004-.209a1.717 1.717 0 0 1-.716-.609c-.177-.268-.265-.591-.265-.97 0-.333.065-.604.197-.811.131-.209.307-.373.526-.492.22-.119.462-.207.728-.265a8.56 8.56 0 0 1 .806-.144c.354-.046.641-.08.86-.102.222-.026.384-.067.485-.125.104-.059.155-.16.155-.304v-.03c0-.374-.102-.664-.306-.871-.202-.207-.509-.311-.921-.311-.427 0-.761.094-1.004.281-.242.187-.413.386-.511.598l-.849-.303c.152-.353.354-.629.607-.826.255-.199.532-.338.833-.416.303-.081.601-.122.894-.122.187 0 .401.023.644.069.245.043.481.132.708.269.23.136.421.342.572.617.152.275.227.644.227 1.106v3.833h-.894v-.787h-.045a1.597 1.597 0 0 1-.303.405 1.76 1.76 0 0 1-.564.367 2.177 2.177 0 0 1-.86.152Zm.136-.803c.354 0 .652-.07.894-.209a1.416 1.416 0 0 0 .742-1.231v-.818c-.037.046-.121.087-.25.125a4.064 4.064 0 0 1-.439.095 20.53 20.53 0 0 1-.856.114c-.232.03-.45.079-.652.147a1.13 1.13 0 0 0-.484.299c-.122.132-.182.311-.182.538 0 .311.115.546.344.705.233.156.527.235.883.235Zm5.056-2.834v3.5h-.894v-5.818h.864v.909h.075c.137-.295.344-.532.622-.712.277-.182.636-.273 1.075-.273.394 0 .739.081 1.034.243.296.159.526.401.69.727.164.323.246.733.246 1.227v3.697h-.894v-3.636c0-.457-.119-.813-.356-1.068-.237-.258-.563-.386-.977-.386-.286 0-.541.061-.765.185a1.324 1.324 0 0 0-.527.542c-.129.237-.193.525-.193.863Zm7.543 3.622c-.485 0-.913-.123-1.285-.368a2.484 2.484 0 0 1-.871-1.045c-.209-.452-.314-.986-.314-1.603 0-.611.105-1.141.314-1.59.21-.45.501-.797.875-1.042a2.312 2.312 0 0 1 1.296-.368c.378 0 .678.064.897.19.223.124.392.265.508.424.119.157.211.285.276.386h.076v-2.863h.894v7.757h-.863v-.894h-.107c-.065.107-.159.24-.28.402a1.656 1.656 0 0 1-.519.428c-.225.124-.524.186-.897.186Zm.121-.803c.358 0 .661-.094.909-.281.247-.189.435-.45.564-.784a3.23 3.23 0 0 0 .193-1.163c0-.434-.063-.814-.189-1.14a1.657 1.657 0 0 0-.561-.765c-.247-.184-.553-.276-.916-.276-.379 0-.695.097-.947.291-.25.192-.438.453-.565.784a3.137 3.137 0 0 0-.185 1.106c0 .414.063.791.189 1.129.129.336.318.604.568.803.253.197.566.296.94.296Zm9.019.818c-.369 0-.704-.07-1.004-.209a1.717 1.717 0 0 1-.716-.609c-.177-.268-.265-.591-.265-.97 0-.333.065-.604.197-.811.131-.209.307-.373.526-.492.22-.119.462-.207.728-.265a8.56 8.56 0 0 1 .806-.144c.354-.046.641-.08.86-.102.222-.026.384-.067.485-.125.104-.059.155-.16.155-.304v-.03c0-.374-.102-.664-.306-.871-.202-.207-.509-.311-.921-.311-.427 0-.761.094-1.004.281-.242.187-.413.386-.511.598l-.849-.303c.152-.353.354-.629.607-.826.255-.199.532-.338.833-.416.303-.081.601-.122.894-.122.187 0 .401.023.644.069.245.043.481.132.708.269.23.136.421.342.572.617.152.275.227.644.227 1.106v3.833h-.894v-.787h-.045a1.597 1.597 0 0 1-.303.405 1.76 1.76 0 0 1-.564.367 2.177 2.177 0 0 1-.86.152Zm.136-.803c.354 0 .652-.07.894-.209a1.416 1.416 0 0 0 .742-1.231v-.818c-.037.046-.121.087-.25.125a4.064 4.064 0 0 1-.439.095 20.53 20.53 0 0 1-.856.114c-.232.03-.45.079-.652.147a1.13 1.13 0 0 0-.484.299c-.122.132-.182.311-.182.538 0 .311.115.546.344.705.233.156.527.235.883.235Zm5.056-2.834v3.5h-.894v-5.818h.864v.909h.075c.137-.295.344-.532.622-.712.277-.182.636-.273 1.075-.273.394 0 .739.081 1.034.243.296.159.526.401.69.727.164.323.246.733.246 1.227v3.697h-.894v-3.636c0-.457-.119-.813-.356-1.068-.237-.258-.563-.386-.977-.386-.286 0-.541.061-.765.185a1.324 1.324 0 0 0-.527.542c-.129.237-.193.525-.193.863ZM61.31 368.931a2.36 2.36 0 0 1-1.003-.209c-.3-.141-.54-.344-.716-.609-.177-.268-.265-.591-.265-.97 0-.333.065-.604.197-.811.13-.209.306-.373.526-.492.22-.119.462-.207.727-.265.268-.061.537-.109.807-.144.354-.046.64-.08.86-.102.222-.026.384-.067.485-.125.103-.059.155-.16.155-.304v-.03c0-.374-.102-.664-.307-.871-.202-.207-.509-.311-.92-.311-.427 0-.762.094-1.004.281-.242.187-.413.386-.511.598l-.849-.303c.152-.353.354-.629.606-.826.255-.199.533-.338.834-.416.303-.081.6-.122.894-.122.186 0 .401.023.643.069.245.043.482.132.709.269.23.136.42.342.572.617.151.275.227.644.227 1.106v3.833h-.894v-.787h-.045c-.06.126-.162.261-.303.405-.142.144-.33.266-.565.367a2.175 2.175 0 0 1-.86.152Zm.137-.803c.353 0 .651-.07.894-.209a1.414 1.414 0 0 0 .742-1.231v-.818c-.038.046-.121.087-.25.125a4.1 4.1 0 0 1-.44.095 20.162 20.162 0 0 1-.855.114c-.233.03-.45.079-.652.147-.2.066-.36.166-.485.299-.12.132-.182.311-.182.538 0 .311.115.546.345.705.233.156.527.235.883.235Zm7.828-1.712v-3.44h.894v5.818h-.894v-.984h-.06a1.91 1.91 0 0 1-.637.753c-.288.205-.651.307-1.09.307-.364 0-.687-.079-.97-.238a1.67 1.67 0 0 1-.667-.728c-.162-.325-.242-.736-.242-1.231v-3.697h.894v3.637c0 .424.118.762.356 1.015.24.252.545.379.916.379.223 0 .449-.057.678-.171a1.48 1.48 0 0 0 .584-.523c.159-.234.238-.534.238-.897Zm5.062-3.44v.758h-3.015v-.758h3.015Zm-2.136-1.394h.894v5.546c0 .252.036.442.11.568a.568.568 0 0 0 .287.25c.119.04.244.061.375.061a1.466 1.466 0 0 0 .394-.046l.182.803c-.06.023-.145.046-.254.068a1.823 1.823 0 0 1-.413.038c-.252 0-.5-.054-.742-.163a1.471 1.471 0 0 1-.599-.496c-.156-.222-.234-.502-.234-.841v-5.788Zm4.5 3.712v3.5h-.894v-7.757h.894v2.848h.075c.137-.3.341-.539.614-.716.275-.179.641-.269 1.098-.269.397 0 .744.08 1.042.239.298.157.53.398.693.724.167.323.25.734.25 1.234v3.697h-.894v-3.636c0-.462-.12-.819-.36-1.072-.237-.255-.566-.382-.988-.382-.293 0-.556.061-.788.185-.23.124-.412.304-.546.542-.13.237-.196.525-.196.863Zm7.847 3.622c-.56 0-1.044-.124-1.45-.372a2.49 2.49 0 0 1-.936-1.045c-.217-.45-.326-.972-.326-1.568 0-.596.109-1.121.326-1.576a2.57 2.57 0 0 1 .916-1.068c.394-.258.854-.387 1.38-.387.302 0 .602.051.897.152.295.101.564.265.807.492.242.225.435.523.58.894.143.372.215.829.215 1.372v.378h-4.485v-.772h3.576c0-.329-.066-.622-.197-.879a1.482 1.482 0 0 0-.553-.61 1.549 1.549 0 0 0-.84-.223c-.357 0-.665.088-.925.265a1.741 1.741 0 0 0-.595.681 2.006 2.006 0 0 0-.208.902v.515c0 .44.076.812.227 1.118.154.303.368.534.64.693.273.156.59.235.951.235.235 0 .447-.033.636-.099a1.36 1.36 0 0 0 .497-.303 1.37 1.37 0 0 0 .322-.507l.863.242c-.09.293-.243.55-.458.773a2.25 2.25 0 0 1-.796.515 2.95 2.95 0 0 1-1.064.182Zm4.663-3.622v3.5h-.894v-5.818h.864v.909h.075c.137-.295.344-.532.622-.712.277-.182.636-.273 1.075-.273.394 0 .739.081 1.034.243.296.159.526.401.69.727.164.323.246.733.246 1.227v3.697h-.894v-3.636c0-.457-.118-.813-.356-1.068-.237-.258-.563-.386-.977-.386-.285 0-.54.061-.765.185a1.327 1.327 0 0 0-.527.542c-.129.237-.193.525-.193.863Zm7.876-2.318v.758h-3.015v-.758h3.015Zm-2.136-1.394h.894v5.546c0 .252.036.442.11.568a.568.568 0 0 0 .287.25c.119.04.244.061.375.061a1.466 1.466 0 0 0 .394-.046l.182.803c-.06.023-.145.046-.254.068a1.823 1.823 0 0 1-.413.038c-.252 0-.5-.054-.742-.163a1.471 1.471 0 0 1-.599-.496c-.156-.222-.234-.502-.234-.841v-5.788Zm3.48 7.212v-5.818h.895v5.818h-.894Zm.455-6.787a.639.639 0 0 1-.45-.178.574.574 0 0 1-.186-.429c0-.166.062-.309.185-.428a.639.639 0 0 1 .451-.178c.174 0 .323.06.447.178a.57.57 0 0 1 .19.428.57.57 0 0 1-.19.429.625.625 0 0 1-.447.178Zm4.441 6.909c-.546 0-1.016-.129-1.41-.387a2.512 2.512 0 0 1-.909-1.064c-.212-.452-.318-.969-.318-1.549 0-.591.109-1.113.326-1.565.22-.454.525-.809.917-1.064.394-.258.853-.387 1.378-.387.409 0 .778.076 1.106.228a2.1 2.1 0 0 1 .807.636c.21.273.34.591.39.955h-.894a1.386 1.386 0 0 0-.454-.705c-.232-.207-.546-.31-.939-.31-.349 0-.655.09-.917.272-.26.18-.464.433-.61.762-.144.325-.216.708-.216 1.147 0 .45.071.841.212 1.175.144.333.346.592.606.776.263.184.571.277.925.277.232 0 .443-.041.632-.122a1.3 1.3 0 0 0 .761-.894h.894c-.05.344-.175.653-.375.928-.197.273-.458.49-.784.652a2.525 2.525 0 0 1-1.128.239Zm5.306.015a2.36 2.36 0 0 1-1.003-.209 1.711 1.711 0 0 1-.716-.609c-.177-.268-.266-.591-.266-.97 0-.333.066-.604.197-.811a1.4 1.4 0 0 1 .527-.492c.22-.119.462-.207.727-.265.268-.061.537-.109.807-.144.354-.046.64-.08.86-.102.222-.026.384-.067.485-.125.103-.059.155-.16.155-.304v-.03c0-.374-.102-.664-.307-.871-.202-.207-.509-.311-.92-.311-.427 0-.762.094-1.004.281-.242.187-.413.386-.511.598l-.849-.303c.152-.353.354-.629.606-.826.255-.199.533-.338.834-.416.303-.081.601-.122.893-.122.187 0 .402.023.644.069.245.043.481.132.709.269.23.136.42.342.572.617.151.275.227.644.227 1.106v3.833h-.894v-.787h-.045a1.597 1.597 0 0 1-.303.405c-.142.144-.33.266-.565.367a2.173 2.173 0 0 1-.86.152Zm.137-.803c.353 0 .651-.07.894-.209a1.416 1.416 0 0 0 .742-1.231v-.818c-.038.046-.121.087-.25.125a4.118 4.118 0 0 1-.439.095 20.53 20.53 0 0 1-.856.114c-.233.03-.45.079-.652.147a1.14 1.14 0 0 0-.485.299c-.121.132-.182.311-.182.538 0 .311.115.546.345.705.232.156.527.235.883.235Zm6.692-5.152v.758h-3.015v-.758h3.015Zm-2.136-1.394h.894v5.546c0 .252.036.442.109.568a.57.57 0 0 0 .288.25c.119.04.244.061.375.061a1.467 1.467 0 0 0 .394-.046l.182.803a1.695 1.695 0 0 1-.254.068 1.819 1.819 0 0 1-.413.038c-.252 0-.5-.054-.742-.163a1.478 1.478 0 0 1-.599-.496c-.156-.222-.234-.502-.234-.841v-5.788Zm3.481 7.212v-5.818h.894v5.818h-.894Zm.454-6.787a.64.64 0 0 1-.451-.178.576.576 0 0 1-.185-.429c0-.166.062-.309.185-.428a.64.64 0 0 1 .451-.178c.174 0 .323.06.447.178a.57.57 0 0 1 .19.428.57.57 0 0 1-.19.429.626.626 0 0 1-.447.178Zm4.441 6.909c-.526 0-.987-.125-1.383-.375-.394-.25-.702-.6-.924-1.05-.22-.449-.33-.974-.33-1.575 0-.606.11-1.135.33-1.587.222-.452.53-.804.924-1.054.396-.25.857-.375 1.383-.375.525 0 .984.125 1.378.375.397.25.705.602.925 1.054.222.452.333.981.333 1.587 0 .601-.111 1.126-.333 1.575-.22.45-.528.8-.925 1.05-.394.25-.853.375-1.378.375Zm0-.803c.399 0 .727-.103.984-.307.258-.205.449-.474.572-.807a3.08 3.08 0 0 0 .186-1.083 3.11 3.11 0 0 0-.186-1.087 1.824 1.824 0 0 0-.572-.815c-.257-.207-.585-.31-.984-.31s-.728.103-.985.31a1.824 1.824 0 0 0-.572.815 3.11 3.11 0 0 0-.186 1.087c0 .389.062.75.186 1.083.123.333.314.602.572.807.257.204.586.307.985.307Zm4.894-2.819v3.5h-.894v-5.818h.864v.909h.076c.136-.295.343-.532.621-.712.278-.182.636-.273 1.076-.273.394 0 .738.081 1.034.243.295.159.525.401.689.727.164.323.247.733.247 1.227v3.697h-.894v-3.636c0-.457-.119-.813-.356-1.068-.238-.258-.564-.386-.978-.386-.285 0-.54.061-.765.185a1.322 1.322 0 0 0-.526.542c-.129.237-.194.525-.194.863Zm10.058 3.637c-.369 0-.703-.07-1.004-.209a1.724 1.724 0 0 1-.716-.609c-.176-.268-.265-.591-.265-.97 0-.333.066-.604.197-.811a1.4 1.4 0 0 1 .527-.492c.219-.119.462-.207.727-.265.268-.061.537-.109.807-.144.353-.046.64-.08.86-.102.222-.026.384-.067.485-.125.103-.059.155-.16.155-.304v-.03c0-.374-.102-.664-.307-.871-.202-.207-.509-.311-.92-.311-.427 0-.762.094-1.004.281-.243.187-.413.386-.512.598l-.848-.303c.151-.353.354-.629.606-.826.255-.199.533-.338.833-.416.303-.081.601-.122.894-.122.187 0 .402.023.644.069.245.043.481.132.709.269.229.136.42.342.572.617.151.275.227.644.227 1.106v3.833h-.894v-.787h-.046a1.55 1.55 0 0 1-.303.405 1.739 1.739 0 0 1-.564.367 2.173 2.173 0 0 1-.86.152Zm.137-.803c.353 0 .651-.07.893-.209a1.41 1.41 0 0 0 .553-.537c.127-.22.19-.451.19-.694v-.818c-.038.046-.121.087-.25.125a4.087 4.087 0 0 1-.44.095 19.807 19.807 0 0 1-.856.114c-.232.03-.449.079-.651.147-.2.066-.361.166-.485.299-.121.132-.182.311-.182.538 0 .311.115.546.345.705.232.156.526.235.883.235Zm4.161 2.848v-8h.864v.924h.106c.066-.101.157-.229.273-.386.119-.159.288-.3.507-.424.223-.126.523-.19.902-.19.49 0 .922.123 1.295.368.374.245.666.592.875 1.042.21.449.315.979.315 1.59 0 .617-.105 1.151-.315 1.603-.209.449-.5.798-.871 1.045a2.277 2.277 0 0 1-1.284.368c-.374 0-.673-.062-.898-.186a1.68 1.68 0 0 1-.519-.428 5.763 5.763 0 0 1-.28-.402h-.076v3.076h-.894Zm.879-5.091c0 .44.065.827.193 1.163.129.334.317.595.565.784.247.187.55.281.909.281.374 0 .686-.099.936-.296.252-.199.441-.467.568-.803.128-.338.193-.715.193-1.129 0-.409-.063-.777-.19-1.106a1.699 1.699 0 0 0-.564-.784c-.25-.194-.564-.291-.943-.291-.364 0-.669.092-.917.276a1.662 1.662 0 0 0-.56.765 3.13 3.13 0 0 0-.19 1.14Zm5.621 5.091v-8h.864v.924h.106c.066-.101.157-.229.273-.386.119-.159.288-.3.507-.424.223-.126.523-.19.902-.19.49 0 .922.123 1.295.368.374.245.666.592.875 1.042.21.449.315.979.315 1.59 0 .617-.105 1.151-.315 1.603-.209.449-.5.798-.871 1.045a2.277 2.277 0 0 1-1.284.368c-.374 0-.673-.062-.898-.186a1.68 1.68 0 0 1-.519-.428 5.763 5.763 0 0 1-.28-.402h-.076v3.076h-.894Zm.879-5.091c0 .44.065.827.193 1.163.129.334.317.595.565.784.247.187.55.281.909.281.374 0 .686-.099.936-.296.252-.199.441-.467.568-.803.128-.338.193-.715.193-1.129 0-.409-.063-.777-.19-1.106a1.699 1.699 0 0 0-.564-.784c-.25-.194-.564-.291-.943-.291-.364 0-.669.092-.917.276a1.662 1.662 0 0 0-.56.765 3.13 3.13 0 0 0-.19 1.14Zm11.152-2.909v.758h-3.015v-.758h3.015Zm-2.137-1.394h.894v5.546c0 .252.037.442.11.568a.57.57 0 0 0 .288.25c.119.04.244.061.375.061a1.454 1.454 0 0 0 .394-.046l.182.803a1.695 1.695 0 0 1-.254.068 1.825 1.825 0 0 1-.413.038c-.252 0-.5-.054-.742-.163a1.472 1.472 0 0 1-.599-.496c-.156-.222-.235-.502-.235-.841v-5.788Zm5.783 7.334c-.526 0-.987-.125-1.383-.375-.394-.25-.702-.6-.924-1.05-.22-.449-.33-.974-.33-1.575 0-.606.11-1.135.33-1.587.222-.452.53-.804.924-1.054.396-.25.857-.375 1.383-.375.525 0 .984.125 1.378.375.397.25.705.602.925 1.054.222.452.333.981.333 1.587 0 .601-.111 1.126-.333 1.575-.22.45-.528.8-.925 1.05-.394.25-.853.375-1.378.375Zm0-.803c.399 0 .727-.103.984-.307.258-.205.449-.474.572-.807a3.08 3.08 0 0 0 .186-1.083 3.11 3.11 0 0 0-.186-1.087 1.824 1.824 0 0 0-.572-.815c-.257-.207-.585-.31-.984-.31s-.728.103-.985.31a1.832 1.832 0 0 0-.572.815 3.11 3.11 0 0 0-.186 1.087c0 .389.062.75.186 1.083.124.333.314.602.572.807.257.204.586.307.985.307Zm11.122-3.834-.803.228a1.507 1.507 0 0 0-.224-.391 1.097 1.097 0 0 0-.394-.318c-.166-.083-.38-.125-.64-.125-.356 0-.653.082-.89.246-.235.162-.352.368-.352.618 0 .222.081.398.242.526.162.129.414.236.758.322l.863.212c.521.127.908.32 1.163.58.255.258.383.59.383.996 0 .334-.096.632-.288.894a1.9 1.9 0 0 1-.796.621c-.34.152-.737.228-1.189.228-.593 0-1.085-.129-1.473-.387-.389-.257-.636-.634-.739-1.129l.848-.212c.081.314.234.548.459.705.227.156.524.235.89.235.417 0 .747-.089.992-.265.248-.18.372-.394.372-.644a.676.676 0 0 0-.213-.508c-.141-.139-.358-.242-.651-.311l-.97-.227c-.533-.126-.924-.322-1.174-.587-.247-.268-.371-.602-.371-1.004 0-.328.092-.618.276-.871.187-.252.441-.451.762-.595a2.67 2.67 0 0 1 1.098-.216c.576 0 1.028.127 1.356.379.331.253.566.586.705 1Zm1.451 4.515v-5.818h.894v5.818h-.894Zm.455-6.787a.64.64 0 0 1-.451-.178.576.576 0 0 1-.185-.429c0-.166.062-.309.185-.428a.64.64 0 0 1 .451-.178c.174 0 .323.06.447.178a.569.569 0 0 1 .189.428.57.57 0 0 1-.189.429.626.626 0 0 1-.447.178Zm4.425 9.09c-.432 0-.803-.055-1.113-.166a2.374 2.374 0 0 1-.777-.432 2.376 2.376 0 0 1-.489-.568l.713-.5c.08.106.183.227.306.363.124.139.293.259.508.36.217.104.501.156.852.156.47 0 .858-.114 1.163-.341.306-.228.458-.584.458-1.069v-1.181h-.075a4.824 4.824 0 0 1-.281.394c-.118.154-.29.291-.515.412-.222.119-.523.179-.901.179-.47 0-.892-.112-1.265-.334a2.328 2.328 0 0 1-.883-.97c-.215-.424-.322-.939-.322-1.545 0-.596.105-1.115.314-1.557.21-.444.502-.788.875-1.03a2.312 2.312 0 0 1 1.296-.368c.379 0 .679.064.901.19.225.124.397.265.515.424.122.157.215.285.281.386h.091v-.924h.863v5.985c0 .5-.113.907-.341 1.22a1.935 1.935 0 0 1-.909.693c-.378.149-.8.223-1.265.223Zm-.03-3.197c.358 0 .662-.082.909-.246.247-.164.436-.4.564-.708.129-.308.194-.677.194-1.106 0-.419-.064-.789-.19-1.11a1.666 1.666 0 0 0-.56-.754c-.248-.182-.553-.272-.917-.272-.379 0-.695.095-.947.287-.25.192-.438.45-.564.773a2.982 2.982 0 0 0-.186 1.076c0 .404.063.761.189 1.072.129.308.318.55.568.727.253.174.566.261.94.261Zm5.076-2.606v3.5h-.894v-5.818h.863v.909h.076a1.67 1.67 0 0 1 .621-.712c.278-.182.637-.273 1.076-.273.394 0 .739.081 1.034.243.296.159.525.401.69.727.164.323.246.733.246 1.227v3.697h-.894v-3.636c0-.457-.119-.813-.356-1.068-.238-.258-.563-.386-.978-.386-.285 0-.54.061-.765.185a1.328 1.328 0 0 0-.526.542c-.129.237-.193.525-.193.863Zm8.345 3.5v-5.818h.894v5.818h-.894Zm.455-6.787a.64.64 0 0 1-.451-.178.573.573 0 0 1-.186-.429c0-.166.062-.309.186-.428a.64.64 0 0 1 .451-.178c.174 0 .323.06.447.178a.569.569 0 0 1 .189.428.57.57 0 0 1-.189.429.626.626 0 0 1-.447.178Zm2.97 3.287v3.5h-.893v-5.818h.863v.909h.076c.136-.295.343-.532.621-.712.278-.182.637-.273 1.076-.273.394 0 .739.081 1.034.243.295.159.525.401.689.727.165.323.247.733.247 1.227v3.697h-.894v-3.636c0-.457-.119-.813-.356-1.068-.238-.258-.564-.386-.978-.386-.285 0-.54.061-.765.185a1.322 1.322 0 0 0-.526.542c-.129.237-.194.525-.194.863Zm5.998 3.561a.654.654 0 0 1-.481-.201.656.656 0 0 1-.201-.481c0-.187.067-.347.201-.481a.654.654 0 0 1 .481-.201c.186 0 .347.067.481.201s.2.294.2.481a.71.71 0 0 1-.34.591.647.647 0 0 1-.341.091Z"/><path fill="#16CB3E" d="M16.822 477.356c0-6.083 0-9.124 1.184-11.447a10.861 10.861 0 0 1 4.745-4.746c2.324-1.184 5.365-1.184 11.447-1.184h195.248c6.082 0 9.123 0 11.446 1.184a10.858 10.858 0 0 1 4.746 4.746c1.184 2.323 1.184 5.364 1.184 11.447v3.258c0 6.082 0 9.123-1.184 11.446a10.852 10.852 0 0 1-4.746 4.746c-2.323 1.184-5.364 1.184-11.446 1.184H34.198c-6.082 0-9.123 0-11.447-1.184a10.856 10.856 0 0 1-4.745-4.746c-1.184-2.323-1.184-5.364-1.184-11.446v-3.258Z"/><path fill="#000" d="M103.988 482.985v-7.758h5.045v1.178h-3.64v2.106h3.379v1.178h-3.379v2.118h3.671v1.178h-5.076Zm7.79-3.409v3.409h-1.371v-5.818h1.31v.988h.068c.134-.325.348-.584.64-.776.296-.192.661-.288 1.095-.288.402 0 .751.086 1.049.257.301.172.533.421.697.747.167.325.249.721.247 1.185v3.705h-1.372v-3.493c0-.388-.101-.693-.303-.912-.199-.22-.476-.33-.829-.33-.24 0-.453.053-.64.159-.185.104-.33.254-.436.451a1.527 1.527 0 0 0-.155.716Zm6.803 3.526c-.369 0-.701-.065-.996-.197a1.617 1.617 0 0 1-.697-.591c-.17-.26-.254-.58-.254-.962 0-.328.06-.599.182-.814a1.4 1.4 0 0 1 .496-.515c.209-.129.446-.226.708-.292.265-.068.539-.117.822-.148.341-.035.618-.067.83-.094.212-.031.366-.076.462-.137.098-.063.148-.16.148-.291v-.023c0-.285-.085-.506-.254-.663-.169-.157-.413-.235-.731-.235-.336 0-.603.073-.8.22a1.085 1.085 0 0 0-.393.519l-1.281-.182c.101-.354.268-.649.5-.886.233-.24.517-.42.852-.538a3.27 3.27 0 0 1 1.114-.182c.28 0 .559.033.837.098.278.066.532.175.762.326.229.149.414.352.553.61.141.258.212.58.212.966v3.894h-1.318v-.799h-.046a1.677 1.677 0 0 1-.352.454 1.69 1.69 0 0 1-.565.337 2.253 2.253 0 0 1-.791.125Zm.356-1.007c.275 0 .514-.055.716-.163.202-.111.357-.258.466-.44.111-.181.166-.38.166-.594v-.686a.666.666 0 0 1-.219.099c-.101.03-.215.056-.341.079-.127.023-.252.043-.375.061l-.322.045a2.345 2.345 0 0 0-.549.137.904.904 0 0 0-.383.265.645.645 0 0 0-.14.432c0 .252.092.443.276.572.185.128.419.193.705.193Zm4.155.89v-7.758h1.371v2.902h.057c.071-.142.171-.292.299-.451.129-.162.303-.299.523-.413.22-.116.5-.174.841-.174.45 0 .855.115 1.216.345.364.227.651.564.864 1.011.214.444.322.99.322 1.636 0 .639-.105 1.182-.315 1.629-.209.447-.495.788-.856 1.023-.361.235-.77.352-1.227.352-.333 0-.61-.055-.83-.167a1.687 1.687 0 0 1-.53-.401 2.582 2.582 0 0 1-.307-.451h-.079v.917h-1.349Zm1.345-2.909c0 .376.053.706.159.988.109.283.264.504.466.663.204.157.452.235.742.235.303 0 .557-.081.762-.242.204-.164.358-.388.462-.671.106-.285.159-.61.159-.973 0-.361-.052-.682-.155-.962a1.442 1.442 0 0 0-.463-.659c-.204-.16-.459-.239-.765-.239-.293 0-.541.077-.746.231-.204.154-.36.37-.466.648a2.817 2.817 0 0 0-.155.981Zm6.684-4.849v7.758h-1.371v-7.758h1.371Zm3.986 7.871c-.583 0-1.087-.121-1.511-.363a2.467 2.467 0 0 1-.974-1.038c-.227-.45-.34-.979-.34-1.587 0-.599.113-1.124.34-1.576.23-.454.551-.808.963-1.061.411-.255.895-.382 1.45-.382.359 0 .697.058 1.015.174.321.114.604.291.849.53.247.24.442.546.583.917.142.369.212.808.212 1.318v.421h-4.769v-.924h3.455a1.48 1.48 0 0 0-.17-.701 1.253 1.253 0 0 0-.466-.489 1.308 1.308 0 0 0-.69-.178c-.28 0-.526.068-.738.205-.213.133-.378.31-.497.53a1.534 1.534 0 0 0-.178.716v.807c0 .338.062.628.186.871.124.24.297.424.519.553.222.126.482.189.78.189.2 0 .38-.027.542-.083.162-.058.302-.143.42-.254.119-.111.209-.249.269-.413l1.281.144a1.994 1.994 0 0 1-.463.887c-.224.25-.512.444-.863.583a3.32 3.32 0 0 1-1.205.204Zm6.378-.113v-1.015l2.693-2.64c.258-.261.473-.492.644-.694a2.53 2.53 0 0 0 .387-.587 1.46 1.46 0 0 0 .128-.606c0-.245-.055-.454-.166-.629a1.111 1.111 0 0 0-.459-.409 1.474 1.474 0 0 0-.662-.144c-.256 0-.479.053-.671.159a1.098 1.098 0 0 0-.447.444c-.103.192-.155.42-.155.685h-1.337c0-.492.112-.92.337-1.284.225-.363.534-.645.928-.845.396-.199.851-.299 1.363-.299.521 0 .978.097 1.372.292.394.194.699.461.916.799.22.339.33.725.33 1.159 0 .291-.056.576-.167.856-.111.281-.307.591-.587.932-.278.341-.668.754-1.17 1.239l-1.337 1.36v.053h3.378v1.174h-5.318Zm6.701 0v-7.758h4.97v1.178h-3.565v2.106h3.224v1.178h-3.224v3.296h-1.405Zm6.277 0h-1.5l2.731-7.758h1.735l2.735 7.758h-1.5l-2.072-6.167h-.06l-2.069 6.167Zm.05-3.042h4.09v1.129h-4.09v-1.129Z"/><path fill="#212921" d="M16.822 526.033c0-6.082 0-9.123 1.184-11.447a10.866 10.866 0 0 1 4.745-4.746c2.324-1.183 5.365-1.183 11.447-1.183h195.248c6.082 0 9.123 0 11.446 1.183a10.863 10.863 0 0 1 4.746 4.746c1.184 2.324 1.184 5.365 1.184 11.447v3.258c0 6.082 0 9.123-1.184 11.446a10.852 10.852 0 0 1-4.746 4.746c-2.323 1.184-5.364 1.184-11.446 1.184H34.198c-6.082 0-9.123 0-11.447-1.184a10.856 10.856 0 0 1-4.745-4.746c-1.184-2.323-1.184-5.364-1.184-11.446v-3.258Z"/><path fill="#fff" d="M103.467 531.662v-7.757h1.405v6.579h3.417v1.178h-4.822Zm8.557.114c-.583 0-1.087-.121-1.511-.364a2.46 2.46 0 0 1-.974-1.038c-.227-.449-.341-.978-.341-1.587 0-.598.114-1.124.341-1.576.23-.454.551-.808.962-1.06.412-.255.895-.383 1.451-.383.359 0 .697.058 1.015.174a2.3 2.3 0 0 1 .849.531c.247.24.442.545.583.916.141.369.212.808.212 1.319v.42h-4.769v-.924h3.455a1.483 1.483 0 0 0-.171-.701 1.239 1.239 0 0 0-.466-.489 1.314 1.314 0 0 0-.689-.178c-.28 0-.527.069-.739.205a1.418 1.418 0 0 0-.496.53 1.534 1.534 0 0 0-.178.716v.807c0 .338.062.629.186.871.123.24.296.424.519.553.222.126.482.19.78.19.199 0 .38-.028.542-.084.161-.058.301-.142.42-.254.119-.111.208-.248.269-.412l1.28.144a2.004 2.004 0 0 1-.462.886c-.225.25-.512.444-.863.583a3.302 3.302 0 0 1-1.205.205Zm5.421.004c-.368 0-.7-.066-.996-.197a1.63 1.63 0 0 1-.697-.591c-.169-.26-.254-.581-.254-.962 0-.329.061-.6.182-.815.121-.215.287-.386.496-.515.21-.129.446-.226.709-.292.265-.068.539-.117.822-.147.341-.036.617-.067.829-.095.212-.03.366-.076.462-.136.099-.064.148-.161.148-.292v-.023c0-.285-.084-.506-.254-.663-.169-.156-.413-.235-.731-.235-.336 0-.602.074-.799.22-.194.147-.326.32-.394.519l-1.28-.182c.101-.353.267-.649.5-.886.232-.24.516-.419.852-.538a3.266 3.266 0 0 1 1.114-.182c.28 0 .559.033.837.099.278.065.531.174.761.325.23.149.414.353.553.61.142.258.212.58.212.966v3.894h-1.318v-.799h-.045a1.682 1.682 0 0 1-.917.792 2.286 2.286 0 0 1-.792.125Zm.356-1.008c.276 0 .514-.054.716-.163.202-.111.358-.257.466-.439.111-.182.167-.38.167-.595v-.686a.625.625 0 0 1-.22.099c-.101.03-.214.057-.341.079-.126.023-.251.043-.375.061l-.322.045a2.422 2.422 0 0 0-.549.137.9.9 0 0 0-.382.265.645.645 0 0 0-.141.432c0 .252.093.443.277.572.184.129.419.193.704.193Zm4.095.89v-5.818h1.33v.97h.06a1.45 1.45 0 0 1 .546-.777c.26-.184.557-.276.89-.276.076 0 .16.003.254.011.096.005.175.014.238.026v1.262a1.442 1.442 0 0 0-.276-.053 2.506 2.506 0 0 0-.36-.027c-.25 0-.475.055-.674.163a1.19 1.19 0 0 0-.466.443c-.114.19-.171.408-.171.656v3.42h-1.371Zm5.6-3.409v3.409h-1.371v-5.818h1.311v.989h.068c.134-.326.347-.585.64-.777.296-.192.661-.288 1.095-.288.401 0 .751.086 1.049.258.301.171.533.42.697.746.167.326.249.721.246 1.186v3.704h-1.371v-3.492c0-.389-.101-.693-.303-.913-.199-.22-.476-.33-.829-.33-.24 0-.454.053-.641.159a1.107 1.107 0 0 0-.435.451 1.518 1.518 0 0 0-.156.716Zm7.775 3.409v-5.818h1.311v.989h.068c.121-.334.322-.594.602-.781.28-.189.615-.284 1.004-.284.394 0 .726.096.996.288a1.5 1.5 0 0 1 .576.777h.061a1.58 1.58 0 0 1 .651-.773c.308-.195.673-.292 1.095-.292.535 0 .972.169 1.31.508.339.338.508.832.508 1.481v3.905h-1.375v-3.693c0-.361-.096-.625-.288-.792a1.029 1.029 0 0 0-.704-.254c-.331 0-.59.104-.777.311-.184.205-.277.471-.277.799v3.629h-1.344v-3.75c0-.3-.091-.54-.273-.72-.179-.179-.414-.269-.704-.269a.994.994 0 0 0-.538.152 1.057 1.057 0 0 0-.387.42c-.096.18-.144.389-.144.629v3.538h-1.371Zm12.111.114c-.568 0-1.061-.125-1.477-.375-.417-.25-.74-.6-.97-1.049-.227-.45-.341-.975-.341-1.576 0-.601.114-1.128.341-1.58.23-.452.553-.803.97-1.053.416-.25.909-.375 1.477-.375.568 0 1.061.125 1.477.375.417.25.739.601.966 1.053.23.452.345.979.345 1.58 0 .601-.115 1.126-.345 1.576a2.52 2.52 0 0 1-.966 1.049c-.416.25-.909.375-1.477.375Zm.007-1.099c.309 0 .566-.084.773-.254.207-.171.361-.401.462-.689.104-.288.156-.609.156-.962 0-.356-.052-.678-.156-.966a1.532 1.532 0 0 0-.462-.693c-.207-.172-.464-.258-.773-.258-.315 0-.578.086-.787.258a1.555 1.555 0 0 0-.466.693c-.101.288-.152.61-.152.966 0 .353.051.674.152.962.103.288.259.518.466.689.209.17.472.254.787.254Zm3.945.985v-5.818h1.329v.97h.061c.106-.336.288-.595.545-.777.26-.184.557-.276.89-.276.076 0 .161.003.254.011.096.005.176.014.239.026v1.262a1.44 1.44 0 0 0-.277-.053 2.485 2.485 0 0 0-.36-.027c-.25 0-.474.055-.674.163a1.196 1.196 0 0 0-.636 1.099v3.42h-1.371Zm6.565.114c-.583 0-1.087-.121-1.511-.364a2.46 2.46 0 0 1-.974-1.038c-.227-.449-.341-.978-.341-1.587 0-.598.114-1.124.341-1.576.23-.454.551-.808.962-1.06.412-.255.895-.383 1.451-.383.359 0 .697.058 1.015.174a2.3 2.3 0 0 1 .849.531c.247.24.442.545.583.916.141.369.212.808.212 1.319v.42h-4.769v-.924h3.455a1.483 1.483 0 0 0-.171-.701 1.239 1.239 0 0 0-.466-.489 1.314 1.314 0 0 0-.689-.178c-.28 0-.527.069-.739.205a1.418 1.418 0 0 0-.496.53 1.534 1.534 0 0 0-.178.716v.807c0 .338.062.629.186.871.123.24.296.424.519.553.222.126.482.19.78.19.199 0 .38-.028.542-.084.161-.058.301-.142.42-.254.119-.111.208-.248.269-.412l1.28.144a2.004 2.004 0 0 1-.462.886c-.225.25-.512.444-.863.583a3.302 3.302 0 0 1-1.205.205Z"/></g><defs><clipPath id="a"><rect width="262" height="568" x=".822" fill="#fff" rx="32"/></clipPath><clipPath id="b"><rect width="26.667" height="26.666" x="16.822" y="39.943" fill="#fff" rx="13.333"/></clipPath><clipPath id="c"><path fill="#fff" d="M85.155 168.461h93.333v93.333H85.155z"/></clipPath></defs></svg>