<svg xmlns="http://www.w3.org/2000/svg" width="264" height="570" fill="none"><g clip-path="url(#a)"><rect width="262.923" height="570" x=".899" fill="#000501" rx="32"/><path fill="#000501" d="M.9 21.409h262.922v85.873H.9z"/><g clip-path="url(#b)"><rect width="26.761" height="26.76" x="11.604" y="29.437" fill="#1B211D" rx="13.38"/><path fill="#fff" d="M23.224 37.615a.669.669 0 0 1 .94.941l-.045.051-3.541 3.541h10.427l.069.003a.67.67 0 0 1 0 1.332l-.069.003H20.578l3.541 3.541.046.051a.669.669 0 0 1-.941.941l-.051-.046-4.683-4.683a.67.67 0 0 1 0-.946l4.683-4.683.051-.046Z"/></g><path fill="#fff" d="M12.455 77.372v-2.364h12.422v2.364h-4.812v13.206h-2.798V77.372h-4.812Zm12.84 13.206V78.9h2.67v1.947h.12c.214-.675.578-1.194 1.095-1.559a3.013 3.013 0 0 1 1.787-.555c.152 0 .322.008.51.023.192.01.352.028.478.053v2.532a2.897 2.897 0 0 0-.555-.107 5.118 5.118 0 0 0-.722-.053 2.78 2.78 0 0 0-1.353.327c-.395.213-.707.51-.935.89-.228.38-.342.818-.342 1.315v6.865h-2.752Zm10.998.235c-.74 0-1.407-.132-2-.395a3.264 3.264 0 0 1-1.399-1.186c-.34-.522-.509-1.166-.509-1.931 0-.659.122-1.204.365-1.635a2.83 2.83 0 0 1 .996-1.034c.42-.258.895-.453 1.422-.585a11.561 11.561 0 0 1 1.65-.296 68.402 68.402 0 0 0 1.664-.19c.426-.061.735-.153.928-.274.197-.127.296-.322.296-.586v-.045c0-.573-.17-1.016-.51-1.33-.339-.315-.828-.472-1.466-.472-.674 0-1.21.147-1.604.441-.39.294-.654.641-.791 1.042l-2.57-.365c.203-.71.537-1.303 1.004-1.78a4.365 4.365 0 0 1 1.71-1.079c.674-.243 1.42-.365 2.235-.365a7.28 7.28 0 0 1 1.68.198c.558.132 1.067.35 1.529.654.46.299.83.707 1.11 1.224.283.517.425 1.163.425 1.938v7.816h-2.645v-1.605h-.092a3.358 3.358 0 0 1-.707.913 3.399 3.399 0 0 1-1.132.676c-.451.168-.981.251-1.59.251Zm.714-2.022c.553 0 1.032-.109 1.437-.327.406-.223.717-.517.935-.882.223-.365.335-.762.335-1.193v-1.376c-.086.07-.233.136-.441.197-.203.061-.43.114-.684.16-.254.046-.505.086-.753.122-.248.035-.464.066-.646.09-.41.057-.778.148-1.102.275a1.83 1.83 0 0 0-.768.532c-.188.223-.282.512-.282.866 0 .507.185.89.555 1.148.37.259.842.388 1.414.388Zm10.328-5.056v6.843h-2.752V78.9h2.63v1.984h.138a3.338 3.338 0 0 1 1.284-1.558c.593-.385 1.326-.578 2.198-.578.805 0 1.507.173 2.105.517a3.49 3.49 0 0 1 1.4 1.498c.334.654.498 1.447.493 2.38v7.435H52.08v-7.01c0-.78-.202-1.391-.608-1.832-.4-.44-.955-.661-1.665-.661-.481 0-.91.106-1.285.319-.37.208-.661.51-.874.905-.208.395-.312.874-.312 1.436Zm18.881-1.748-2.509.274a2.018 2.018 0 0 0-.372-.715 1.85 1.85 0 0 0-.7-.54c-.293-.137-.653-.205-1.08-.205-.572 0-1.053.124-1.444.372-.385.249-.575.57-.57.966-.005.34.12.616.373.829.258.212.684.387 1.277.524l1.992.426c1.105.238 1.926.616 2.463 1.133.542.517.816 1.193.821 2.03a3.176 3.176 0 0 1-.646 1.946c-.42.557-1.006.993-1.756 1.307-.75.315-1.612.472-2.585.472-1.43 0-2.58-.3-3.452-.897-.871-.604-1.39-1.442-1.558-2.517l2.684-.258c.121.527.38.925.775 1.193.395.269.91.403 1.543.403.654 0 1.179-.134 1.574-.403.4-.268.6-.6.6-.996 0-.334-.129-.61-.387-.828-.254-.218-.649-.385-1.186-.502l-1.992-.418c-1.12-.233-1.949-.626-2.486-1.178-.537-.558-.803-1.263-.798-2.114-.005-.72.19-1.343.585-1.87.4-.532.956-.943 1.665-1.232.715-.294 1.538-.44 2.47-.44 1.37 0 2.446.29 3.232.874.79.582 1.28 1.37 1.467 2.364Zm5.238 8.826c-.74 0-1.406-.132-1.999-.395a3.264 3.264 0 0 1-1.399-1.186c-.34-.522-.51-1.166-.51-1.931 0-.659.122-1.204.366-1.635a2.83 2.83 0 0 1 .996-1.034c.42-.258.894-.453 1.421-.585a11.561 11.561 0 0 1 1.65-.296c.684-.071 1.24-.135 1.665-.19.426-.061.735-.153.927-.274.198-.127.297-.322.297-.586v-.045c0-.573-.17-1.016-.51-1.33-.339-.315-.828-.472-1.467-.472-.674 0-1.209.147-1.604.441-.39.294-.654.641-.79 1.042l-2.57-.365c.203-.71.537-1.303 1.003-1.78a4.365 4.365 0 0 1 1.711-1.079c.674-.243 1.42-.365 2.235-.365a7.28 7.28 0 0 1 1.68.198c.558.132 1.067.35 1.528.654a3.28 3.28 0 0 1 1.11 1.224c.284.517.426 1.163.426 1.938v7.816h-2.646v-1.605h-.09a3.358 3.358 0 0 1-.708.913 3.399 3.399 0 0 1-1.133.676c-.45.168-.98.251-1.589.251Zm.715-2.022c.553 0 1.032-.109 1.437-.327a2.42 2.42 0 0 0 .935-.882c.223-.365.335-.762.335-1.193v-1.376c-.087.07-.234.136-.441.197a6.283 6.283 0 0 1-.685.16 21.33 21.33 0 0 1-.752.122c-.249.035-.464.066-.647.09-.41.057-.778.148-1.102.275a1.83 1.83 0 0 0-.768.532c-.187.223-.281.512-.281.866 0 .507.185.89.555 1.148.37.259.841.388 1.414.388Zm12.67 2.015c-1.166 0-2.167-.256-3.003-.768a5.128 5.128 0 0 1-1.924-2.121c-.446-.907-.669-1.951-.669-3.132 0-1.186.228-2.233.684-3.14.457-.912 1.1-1.622 1.931-2.129.837-.512 1.825-.768 2.965-.768.948 0 1.787.175 2.517.525a4.3 4.3 0 0 1 1.756 1.467c.436.629.684 1.364.745 2.205h-2.63a2.515 2.515 0 0 0-.76-1.407c-.396-.38-.926-.57-1.59-.57-.562 0-1.056.152-1.482.456-.426.3-.758.73-.996 1.293-.233.562-.35 1.236-.35 2.022 0 .796.117 1.48.35 2.053.233.567.56 1.006.98 1.315.427.304.926.456 1.499.456.405 0 .767-.076 1.087-.228.324-.157.595-.383.813-.677a2.6 2.6 0 0 0 .449-1.072h2.63c-.066.826-.31 1.559-.73 2.198a4.321 4.321 0 0 1-1.718 1.49c-.725.354-1.576.532-2.554.532ZM97.289 78.9v2.129h-6.712V78.9h6.713Zm-5.055-2.797h2.752v10.962c0 .37.056.654.167.852a.902.902 0 0 0 .457.395c.187.071.395.106.623.106.172 0 .33-.012.471-.038.147-.025.259-.048.335-.068l.464 2.152c-.147.05-.358.106-.631.167a5.25 5.25 0 0 1-.989.106c-.689.02-1.31-.083-1.862-.311a2.898 2.898 0 0 1-1.316-1.08c-.319-.487-.476-1.095-.47-1.825V76.103Zm6.715 14.475V78.9h2.752v11.678h-2.752Zm1.384-13.335c-.436 0-.811-.144-1.125-.433a1.397 1.397 0 0 1-.472-1.057c0-.416.157-.768.472-1.057a1.59 1.59 0 0 1 1.125-.44c.441 0 .816.146 1.125.44.314.289.471.641.471 1.057 0 .41-.157.763-.471 1.057a1.587 1.587 0 0 1-1.125.433Zm8.65 13.563c-1.141 0-2.129-.251-2.965-.753a5.113 5.113 0 0 1-1.947-2.106c-.456-.902-.684-1.956-.684-3.162 0-1.207.228-2.263.684-3.17.462-.908 1.11-1.612 1.947-2.114.836-.502 1.824-.753 2.965-.753 1.14 0 2.128.251 2.964.753a5.045 5.045 0 0 1 1.939 2.113c.461.908.692 1.964.692 3.17 0 1.207-.231 2.261-.692 3.163a5.056 5.056 0 0 1-1.939 2.106c-.836.502-1.824.753-2.964.753Zm.015-2.205c.618 0 1.135-.17 1.551-.51.415-.344.724-.805.927-1.383a5.67 5.67 0 0 0 .312-1.931c0-.715-.104-1.36-.312-1.939-.203-.582-.512-1.046-.927-1.39-.416-.345-.933-.518-1.551-.518-.634 0-1.161.172-1.582.517-.415.345-.727.808-.935 1.391a5.846 5.846 0 0 0-.304 1.939c0 .71.102 1.353.304 1.931.208.578.52 1.039.935 1.384.421.34.948.509 1.582.509Zm10.026-4.866v6.843h-2.752V78.9h2.63v1.984h.137a3.334 3.334 0 0 1 1.285-1.558c.593-.385 1.325-.578 2.197-.578.806 0 1.508.173 2.106.517a3.479 3.479 0 0 1 1.398 1.498c.335.654.5 1.447.495 2.38v7.435h-2.752v-7.01c0-.78-.203-1.391-.609-1.832-.4-.44-.955-.661-1.665-.661-.481 0-.909.106-1.284.319a2.22 2.22 0 0 0-.875.905c-.207.395-.311.874-.311 1.436Zm18.88-1.748-2.508.274a2.026 2.026 0 0 0-.373-.715 1.845 1.845 0 0 0-.699-.54c-.294-.137-.654-.205-1.08-.205-.573 0-1.054.124-1.444.372-.386.249-.576.57-.571.966-.005.34.12.616.373.829.258.212.684.387 1.277.524l1.992.426c1.105.238 1.926.616 2.463 1.133.543.517.816 1.193.821 2.03a3.173 3.173 0 0 1-.646 1.946c-.421.557-1.006.993-1.756 1.307-.75.315-1.612.472-2.585.472-1.429 0-2.58-.3-3.451-.897-.872-.604-1.392-1.442-1.559-2.517l2.684-.258c.121.527.38.925.775 1.193.396.269.91.403 1.543.403.654 0 1.179-.134 1.574-.403.401-.268.601-.6.601-.996 0-.334-.129-.61-.388-.828-.253-.218-.649-.385-1.186-.502l-1.992-.418c-1.12-.233-1.949-.626-2.486-1.178-.537-.558-.803-1.263-.798-2.114-.005-.72.19-1.343.585-1.87.401-.532.956-.943 1.665-1.232.715-.294 1.539-.44 2.471-.44 1.369 0 2.446.29 3.231.874.791.582 1.28 1.37 1.467 2.364Z"/><path fill="#001003" d="M24.746 124.007h170.292c2.335 0 4.046 0 5.395.112 1.341.112 2.265.33 3.038.732a7.49 7.49 0 0 1 3.196 3.195c.401.773.62 1.697.731 3.038.112 1.349.112 3.06.112 5.395v12.126c0 2.336 0 4.046-.112 5.395-.111 1.341-.33 2.265-.731 3.038a7.49 7.49 0 0 1-3.196 3.195c-.773.402-1.697.62-3.038.732-1.349.112-3.06.112-5.395.112H24.746c-2.336 0-4.047 0-5.396-.112-1.341-.112-2.265-.33-3.038-.732a7.49 7.49 0 0 1-3.195-3.195c-.402-.773-.62-1.697-.732-3.038-.112-1.349-.112-3.059-.112-5.395v-12.126c0-2.335 0-4.046.112-5.395.112-1.341.33-2.265.732-3.038a7.49 7.49 0 0 1 3.195-3.195c.773-.402 1.697-.62 3.038-.732 1.35-.112 3.06-.112 5.396-.112Z"/><path stroke="#D1D9D1" stroke-width="1.338" d="M24.746 124.007h170.292c2.335 0 4.046 0 5.395.112 1.341.112 2.265.33 3.038.732a7.49 7.49 0 0 1 3.196 3.195c.401.773.62 1.697.731 3.038.112 1.349.112 3.06.112 5.395v12.126c0 2.336 0 4.046-.112 5.395-.111 1.341-.33 2.265-.731 3.038a7.49 7.49 0 0 1-3.196 3.195c-.773.402-1.697.62-3.038.732-1.349.112-3.06.112-5.395.112H24.746c-2.336 0-4.047 0-5.396-.112-1.341-.112-2.265-.33-3.038-.732a7.49 7.49 0 0 1-3.195-3.195c-.402-.773-.62-1.697-.732-3.038-.112-1.349-.112-3.059-.112-5.395v-12.126c0-2.335 0-4.046.112-5.395.112-1.341.33-2.265.732-3.038a7.49 7.49 0 0 1 3.195-3.195c.773-.402 1.697-.62 3.038-.732 1.35-.112 3.06-.112 5.396-.112Z"/><path fill="#fff" d="M32.896 142.193a5.584 5.584 0 1 0-11.169 0 5.584 5.584 0 0 0 11.169 0Zm1.396 0a6.956 6.956 0 0 1-1.577 4.418l2.07 2.07.049.053a.698.698 0 0 1-.982.982l-.053-.048-2.07-2.07a6.982 6.982 0 1 1 2.564-5.405Z"/><path fill="#E8EEE8" d="M41.983 146.042v-7.785h4.699v.836h-3.756v2.631h3.512v.836h-3.512v2.646h3.816v.836h-4.759Zm8.815-5.839v.761h-3.026v-.761h3.026Zm-2.144-1.399h.897v5.565c0 .254.037.444.11.571a.576.576 0 0 0 .29.251c.119.04.244.06.376.06.099 0 .18-.005.243-.015l.152-.03.183.806a1.987 1.987 0 0 1-.67.106 1.8 1.8 0 0 1-.744-.163 1.481 1.481 0 0 1-.601-.498c-.157-.223-.236-.505-.236-.844v-5.809Zm4.516 3.726v3.512h-.897v-7.785h.897v2.859h.076c.137-.302.342-.541.616-.719.276-.18.644-.27 1.102-.27.398 0 .747.08 1.046.24.299.157.53.399.695.726.168.324.251.737.251 1.239v3.71h-.897v-3.649c0-.464-.12-.823-.361-1.076-.238-.256-.569-.384-.992-.384-.294 0-.558.062-.79.186a1.366 1.366 0 0 0-.548.544c-.132.238-.198.527-.198.867Zm7.875 3.634c-.562 0-1.047-.125-1.456-.373a2.499 2.499 0 0 1-.938-1.049c-.218-.451-.327-.976-.327-1.574 0-.598.109-1.125.327-1.581.22-.459.527-.816.92-1.072.395-.258.856-.388 1.383-.388.304 0 .605.051.901.152.297.102.566.266.81.495.243.225.437.524.581.897.145.372.217.831.217 1.376v.38h-4.5v-.776h3.588c0-.329-.066-.623-.198-.882a1.495 1.495 0 0 0-.555-.612 1.559 1.559 0 0 0-.844-.224c-.357 0-.666.089-.927.266a1.752 1.752 0 0 0-.597.684c-.14.282-.21.583-.21.905v.517c0 .441.077.815.229 1.121.154.305.369.536.642.696.274.157.592.236.954.236.236 0 .449-.033.639-.099.193-.068.359-.17.498-.304.14-.137.247-.307.323-.51l.867.244a1.92 1.92 0 0 1-.46.775 2.233 2.233 0 0 1-.798.517 2.952 2.952 0 0 1-1.069.183Zm3.783-.122v-5.839h.866v.882h.061c.107-.289.3-.523.578-.703a1.7 1.7 0 0 1 .943-.27 8.175 8.175 0 0 1 .47.015v.913c-.03-.008-.1-.019-.208-.035a2.144 2.144 0 0 0-.338-.026 1.59 1.59 0 0 0-.76.178 1.311 1.311 0 0 0-.715 1.19v3.695h-.897Zm6.253.122c-.563 0-1.048-.125-1.456-.373a2.499 2.499 0 0 1-.94-1.049c-.217-.451-.326-.976-.326-1.574 0-.598.109-1.125.327-1.581.22-.459.527-.816.92-1.072.395-.258.856-.388 1.383-.388.304 0 .605.051.901.152.297.102.567.266.81.495.243.225.437.524.581.897.145.372.217.831.217 1.376v.38h-4.5v-.776h3.588c0-.329-.066-.623-.198-.882a1.495 1.495 0 0 0-.555-.612 1.558 1.558 0 0 0-.844-.224c-.357 0-.666.089-.927.266a1.753 1.753 0 0 0-.597.684c-.14.282-.209.583-.209.905v.517c0 .441.076.815.228 1.121.155.305.369.536.642.696.274.157.592.236.955.236.235 0 .448-.033.638-.099.193-.068.359-.17.498-.304.14-.137.247-.307.323-.51l.867.244a1.92 1.92 0 0 1-.46.775 2.233 2.233 0 0 1-.798.517 2.952 2.952 0 0 1-1.068.183Zm7.461-2.509v-3.452h.897v5.839h-.897v-.988h-.06a1.92 1.92 0 0 1-.639.756c-.289.205-.654.308-1.095.308-.365 0-.69-.08-.973-.239a1.683 1.683 0 0 1-.669-.73c-.162-.327-.243-.739-.243-1.236v-3.71h.897v3.649c0 .426.119.766.357 1.019.24.254.548.38.92.38.223 0 .45-.057.68-.171.234-.114.429-.289.586-.524.16-.236.24-.536.24-.901Zm2.54 2.387v-5.839h.867v.913h.076c.122-.312.318-.554.59-.726.27-.175.596-.263.976-.263.386 0 .706.088.962.263.258.172.46.414.604.726h.061c.15-.302.374-.541.673-.719.3-.18.658-.27 1.076-.27.522 0 .949.164 1.28.491.333.324.499.83.499 1.516v3.908h-.897v-3.908c0-.43-.118-.738-.354-.923a1.309 1.309 0 0 0-.832-.278c-.41 0-.729.124-.954.373-.226.245-.339.557-.339.935v3.801h-.912v-3.999c0-.332-.108-.599-.323-.802-.216-.205-.493-.308-.833-.308-.233 0-.45.062-.653.186-.2.125-.363.297-.487.517-.122.218-.182.47-.182.757v3.649h-.898Z"/><path stroke="#E8EEE8" stroke-width=".669" d="M91.713 134.514v16.056"/><path fill="#fff" d="M192.123 135.351a7.191 7.191 0 0 1 7.191 7.192 7.19 7.19 0 0 1-7.191 7.191 7.191 7.191 0 1 1 0-14.383Zm1.652 9.553a.502.502 0 0 0 .71-.71l-.71.71Zm.71-4.723a.502.502 0 0 0-.71 0l-1.652 1.651-1.652-1.651a.5.5 0 1 0-.709.709l1.651 1.652-1.651 1.652a.502.502 0 0 0 .709.71l1.652-1.653 1.652 1.653.355-.355.355-.355-1.653-1.652 1.653-1.652a.5.5 0 0 0 0-.709Z"/><g clip-path="url(#c)"><path fill="#1B211D" d="M218.883 134.221c0-6.011 4.873-10.883 10.883-10.883h15.699c6.011 0 10.883 4.872 10.883 10.883v15.698c0 6.011-4.872 10.883-10.883 10.883h-15.699c-6.01 0-10.883-4.872-10.883-10.883v-15.698Z"/><path fill="#fff" d="M239.4 146.53a.893.893 0 0 1 0 1.784h-3.569a.892.892 0 0 1 0-1.784h3.569Zm3.568-5.352a.893.893 0 0 1 0 1.784h-10.705a.892.892 0 0 1 0-1.784h10.705Zm2.676-5.352a.893.893 0 0 1 0 1.784h-16.057a.892.892 0 0 1 0-1.784h16.057Z"/></g><path fill="#96A396" d="M12.547 181.074h1.125l2.645 6.462h.092l2.645-6.462h1.126v7.785h-.882v-5.915h-.076l-2.433 5.915h-.852l-2.432-5.915h-.076v5.915h-.882v-7.785Zm11.12 7.922c-.37 0-.707-.07-1.008-.209a1.73 1.73 0 0 1-.718-.612c-.178-.269-.267-.593-.267-.973 0-.335.066-.606.198-.814a1.4 1.4 0 0 1 .528-.494c.22-.119.464-.208.73-.266.269-.061.539-.109.81-.145.355-.045.642-.079.863-.102.223-.026.385-.067.486-.126.104-.058.156-.159.156-.304v-.03c0-.375-.102-.667-.308-.874-.202-.208-.51-.312-.923-.312-.429 0-.764.094-1.008.281-.243.188-.414.388-.513.601l-.851-.304c.152-.355.354-.631.608-.829.256-.2.535-.34.836-.418.304-.081.603-.122.897-.122.188 0 .403.023.646.069.246.043.483.133.711.27.23.136.422.343.574.619.152.276.228.646.228 1.11v3.847h-.897v-.791H25.4a1.57 1.57 0 0 1-.304.407 1.774 1.774 0 0 1-.567.369 2.189 2.189 0 0 1-.863.152Zm.136-.806c.355 0 .654-.07.897-.209a1.424 1.424 0 0 0 .745-1.236v-.821c-.038.046-.122.088-.25.126a4.396 4.396 0 0 1-.442.095 20.435 20.435 0 0 1-.859.114c-.233.03-.45.08-.653.148a1.13 1.13 0 0 0-.487.3c-.122.132-.183.312-.183.54 0 .312.116.548.346.707.233.157.529.236.886.236Zm4.545 2.858c-.152 0-.287-.012-.406-.038a1.027 1.027 0 0 1-.247-.068l.228-.791c.218.056.41.076.577.061a.693.693 0 0 0 .445-.224c.132-.132.252-.346.361-.643l.168-.456-2.16-5.869h.974l1.611 4.653h.061l1.612-4.653h.973l-2.479 6.69c-.111.302-.25.552-.414.749-.165.2-.356.349-.574.445a1.775 1.775 0 0 1-.73.144Zm8.376-2.189v-.684l2.57-2.813c.302-.33.55-.616.745-.859.195-.246.34-.477.433-.692.097-.218.145-.446.145-.684a1.261 1.261 0 0 0-.73-1.175 1.725 1.725 0 0 0-.76-.163c-.3 0-.56.062-.783.186-.22.122-.392.293-.514.513a1.61 1.61 0 0 0-.178.775h-.897c0-.456.105-.856.315-1.201a2.2 2.2 0 0 1 .86-.806 2.596 2.596 0 0 1 1.227-.288c.456 0 .86.096 1.213.288.352.193.628.453.828.78.2.327.3.69.3 1.091 0 .286-.051.566-.155.84-.102.271-.279.574-.532.908-.251.332-.6.738-1.046 1.217l-1.748 1.87v.061h3.618v.836h-4.91Zm9.02.106c-.572 0-1.06-.156-1.463-.467-.403-.314-.71-.769-.923-1.365-.213-.598-.32-1.32-.32-2.167 0-.841.107-1.559.32-2.155.215-.598.524-1.054.927-1.368.405-.317.892-.475 1.46-.475.567 0 1.053.158 1.456.475.405.314.714.77.927 1.368.215.596.323 1.314.323 2.155 0 .847-.106 1.569-.32 2.167-.212.596-.52 1.051-.923 1.365-.403.311-.89.467-1.463.467Zm0-.836c.568 0 1.01-.274 1.324-.821.314-.547.47-1.328.47-2.342 0-.674-.071-1.248-.216-1.722-.142-.473-.347-.835-.616-1.083a1.36 1.36 0 0 0-.961-.372c-.563 0-1.003.277-1.32.832-.316.553-.474 1.334-.474 2.345 0 .675.07 1.247.212 1.719.142.471.346.83.612 1.075.269.246.592.369.97.369Zm4.152.73v-.684l2.57-2.813c.3-.33.55-.616.744-.859.195-.246.34-.477.434-.692a1.68 1.68 0 0 0 .144-.684 1.261 1.261 0 0 0-.73-1.175 1.725 1.725 0 0 0-.76-.163c-.3 0-.56.062-.783.186-.22.122-.392.293-.513.513-.12.221-.179.479-.179.775h-.897c0-.456.105-.856.316-1.201a2.2 2.2 0 0 1 .858-.806 2.596 2.596 0 0 1 1.228-.288c.456 0 .86.096 1.213.288.352.193.628.453.829.78.2.327.3.69.3 1.091 0 .286-.052.566-.156.84-.101.271-.279.574-.532.908-.251.332-.6.738-1.045 1.217l-1.749 1.87v.061h3.619v.836h-4.911Zm8.913.106c-.446 0-.847-.088-1.205-.266a2.229 2.229 0 0 1-.859-.73 1.986 1.986 0 0 1-.353-1.056h.912c.036.352.195.643.48.874a1.59 1.59 0 0 0 1.025.342 1.587 1.587 0 0 0 1.44-.84c.145-.264.218-.561.218-.893 0-.34-.075-.643-.224-.909a1.654 1.654 0 0 0-1.494-.87 2.418 2.418 0 0 0-.734.11c-.25.073-.458.168-.62.285l-.882-.106.472-3.832h4.044v.836h-3.254l-.273 2.296h.045c.16-.127.36-.232.601-.315.24-.084.492-.126.753-.126a2.391 2.391 0 0 1 2.155 1.27c.215.393.323.841.323 1.345 0 .497-.111.941-.334 1.331-.22.388-.525.694-.913.92a2.604 2.604 0 0 1-1.323.334Z"/><g clip-path="url(#d)"><path fill="#1B211D" d="M11.604 209.915c0-5.912 4.792-10.704 10.704-10.704h220.106c5.912 0 10.704 4.792 10.704 10.704v29.338c0 5.912-4.792 10.704-10.704 10.704H22.308c-5.912 0-10.704-4.792-10.704-10.704v-29.338Z"/><path fill="#1B211D" d="M11.604 199.211h241.514v50.746H11.604z"/><g clip-path="url(#e)"><path fill="#627EEA" d="M22.308 211.204h26.761v26.761H22.308z"/><path fill="#fff" d="M35.687 216.021v6.332l5.35 2.391-5.35-8.723Zm0 0-5.35 8.723 5.35-2.391v-6.332Zm0 12.825v4.302l5.354-7.408-5.354 3.106Zm0 4.302v-4.302l-5.35-3.106 5.35 7.408Zm0-5.297 5.35-3.107-5.35-2.39v5.497Z"/><path fill="#fff" d="m30.336 224.744 5.351 3.107v-5.497l-5.35 2.39Z"/></g><path fill="#000501" d="M43.717 226.759a5.854 5.854 0 1 1 0 11.708 5.854 5.854 0 0 1 0-11.708Z"/><path stroke="#1B211D" stroke-width="1.004" d="M43.717 226.759a5.854 5.854 0 1 1 0 11.708 5.854 5.854 0 0 1 0-11.708Z"/><path fill="#fff" d="M43.438 234.564v-1.672h-1.673a.279.279 0 0 1 0-.558h1.673v-1.672a.279.279 0 1 1 .557 0v1.672h1.673a.279.279 0 0 1 0 .558h-1.673v1.672a.279.279 0 1 1-.557 0Z"/><g clip-path="url(#f)"><path fill="#fff" d="M60.54 221.915v-7.785h2.98c.563 0 1.031.089 1.404.266.375.175.655.415.84.719.187.304.281.648.281 1.034 0 .316-.06.588-.183.813a1.54 1.54 0 0 1-.49.544 2.086 2.086 0 0 1-.688.3v.076c.276.015.541.1.795.255.255.152.465.367.627.646.162.279.243.616.243 1.011 0 .403-.098.765-.293 1.087-.195.319-.489.572-.882.757-.392.185-.887.277-1.482.277h-3.151Zm1.411-1.178h1.517c.512 0 .88-.098 1.106-.293a.96.96 0 0 0 .342-.76 1.165 1.165 0 0 0-.658-1.065 1.617 1.617 0 0 0-.752-.163H61.95v2.281Zm0-3.296h1.395c.243 0 .463-.044.658-.133.195-.091.348-.219.46-.384.114-.167.17-.365.17-.593a.965.965 0 0 0-.319-.745c-.21-.195-.523-.293-.938-.293H61.95v2.148Zm8.11 4.588c-.57 0-1.063-.125-1.482-.376a2.557 2.557 0 0 1-.973-1.053c-.228-.451-.342-.978-.342-1.581 0-.604.114-1.132.342-1.586a2.55 2.55 0 0 1 .973-1.056c.419-.251.913-.377 1.483-.377.57 0 1.064.126 1.482.377.419.251.742.603.97 1.056.23.454.346.982.346 1.586 0 .603-.116 1.13-.346 1.581a2.532 2.532 0 0 1-.97 1.053c-.418.251-.912.376-1.482.376Zm.008-1.102c.31 0 .568-.085.776-.255.208-.172.362-.403.464-.692.104-.289.156-.611.156-.965a2.85 2.85 0 0 0-.156-.97 1.533 1.533 0 0 0-.464-.695c-.208-.173-.466-.259-.775-.259-.317 0-.58.086-.791.259a1.559 1.559 0 0 0-.468.695 2.915 2.915 0 0 0-.152.97c0 .354.05.676.152.965.104.289.26.52.468.692.21.17.474.255.79.255Zm7.68-1.468v-3.383h1.376v5.839H77.79v-1.038h-.061a1.75 1.75 0 0 1-.65.802c-.3.208-.668.312-1.106.312a1.99 1.99 0 0 1-1.015-.255 1.771 1.771 0 0 1-.684-.748c-.165-.33-.248-.728-.248-1.194v-3.718h1.377v3.505c0 .37.1.664.304.882.202.218.469.327.798.327.203 0 .399-.05.59-.148a1.2 1.2 0 0 0 .467-.441c.124-.198.186-.445.186-.742Zm5.33 4.767c-.494 0-.918-.067-1.273-.201a2.264 2.264 0 0 1-.855-.532 1.847 1.847 0 0 1-.45-.742l1.24-.3c.056.114.137.227.243.338.107.114.25.208.43.282a1.8 1.8 0 0 0 .688.114c.39 0 .713-.095.97-.285.255-.188.383-.497.383-.928v-1.106h-.068a1.942 1.942 0 0 1-.312.437 1.58 1.58 0 0 1-.536.376c-.22.102-.498.152-.832.152-.449 0-.856-.105-1.22-.315-.363-.213-.652-.53-.867-.95-.213-.424-.32-.953-.32-1.589 0-.641.107-1.182.32-1.623.215-.444.505-.78.87-1.008.365-.23.772-.346 1.22-.346.343 0 .624.059.844.175.223.114.4.252.532.415.132.159.232.31.3.452h.077v-.966h1.357v5.934c0 .499-.12.912-.357 1.239a2.143 2.143 0 0 1-.977.734 3.828 3.828 0 0 1-1.407.243Zm.012-3.474c.291 0 .54-.071.745-.213.205-.142.36-.346.467-.612.107-.266.16-.585.16-.958 0-.367-.053-.689-.16-.965a1.375 1.375 0 0 0-.464-.643 1.202 1.202 0 0 0-.748-.232c-.307 0-.563.08-.768.24a1.45 1.45 0 0 0-.464.657 2.67 2.67 0 0 0-.156.943c0 .357.052.67.156.939.106.266.262.474.468.623.207.147.462.221.764.221Zm5.515-2.258v3.421H87.23v-7.785h1.346v2.938h.068c.137-.329.349-.589.635-.779.289-.192.656-.289 1.102-.289.406 0 .76.085 1.06.255.302.17.535.418.7.745.167.327.251.726.251 1.197v3.718h-1.376v-3.505c0-.392-.101-.698-.304-.916-.2-.22-.481-.33-.844-.33-.243 0-.461.053-.654.159a1.11 1.11 0 0 0-.448.453c-.107.197-.16.437-.16.718Zm8.104-2.418v1.065h-3.356v-1.065h3.356Zm-2.527-1.398h1.376v5.481c0 .185.027.327.083.426a.45.45 0 0 0 .228.197.863.863 0 0 0 .312.053 1.857 1.857 0 0 0 .403-.053l.232 1.076a2.614 2.614 0 0 1-.81.137 2.247 2.247 0 0 1-.931-.156 1.447 1.447 0 0 1-.658-.54c-.16-.243-.238-.547-.236-.912v-5.709Zm6.394 7.237v-7.785h5.063v1.182h-3.653v2.114h3.391v1.182h-3.391v2.125h3.684v1.182h-5.094Zm9.357-5.839v1.065h-3.357v-1.065h3.357Zm-2.528-1.398h1.376v5.481c0 .185.028.327.084.426a.447.447 0 0 0 .228.197.857.857 0 0 0 .311.053 1.81 1.81 0 0 0 .403-.053l.232 1.076a2.619 2.619 0 0 1-.809.137 2.248 2.248 0 0 1-.932-.156 1.446 1.446 0 0 1-.657-.54c-.16-.243-.239-.547-.236-.912v-5.709Zm5.18 3.816v3.421h-1.376v-7.785h1.346v2.938h.068c.137-.329.349-.589.635-.779.289-.192.656-.289 1.102-.289.406 0 .759.085 1.061.255.301.17.535.418.699.745.167.327.251.726.251 1.197v3.718h-1.376v-3.505c0-.392-.101-.698-.304-.916-.2-.22-.482-.33-.844-.33-.243 0-.461.053-.654.159-.19.104-.339.255-.448.453-.107.197-.16.437-.16.718Zm7.774 3.535c-.586 0-1.091-.122-1.517-.365a2.475 2.475 0 0 1-.977-1.041c-.228-.451-.342-.982-.342-1.593 0-.601.114-1.128.342-1.581a2.59 2.59 0 0 1 .965-1.065c.414-.256.899-.384 1.456-.384.36 0 .7.059 1.019.175.322.114.606.292.852.532.248.241.443.548.585.92.142.37.213.811.213 1.323v.422h-4.786v-.927h3.467a1.495 1.495 0 0 0-.171-.704 1.253 1.253 0 0 0-.468-.49 1.313 1.313 0 0 0-.692-.179 1.34 1.34 0 0 0-.741.206 1.406 1.406 0 0 0-.498.532 1.53 1.53 0 0 0-.178.718v.81c0 .339.062.631.186.874.124.241.298.426.521.555.223.127.484.19.783.19.2 0 .381-.028.543-.083.162-.059.303-.144.422-.255.119-.112.209-.25.27-.415l1.285.145c-.081.34-.236.636-.464.889a2.26 2.26 0 0 1-.867.586 3.314 3.314 0 0 1-1.208.205Zm3.76-.114v-5.839h1.334v.973h.061a1.457 1.457 0 0 1 1.441-1.056c.076 0 .161.004.254.011.097.005.176.014.24.027v1.266a1.437 1.437 0 0 0-.278-.054 2.656 2.656 0 0 0-.361-.026c-.251 0-.476.054-.676.163a1.2 1.2 0 0 0-.639 1.103v3.432h-1.376Zm6.588.114c-.585 0-1.091-.122-1.516-.365a2.475 2.475 0 0 1-.977-1.041c-.228-.451-.342-.982-.342-1.593 0-.601.114-1.128.342-1.581.23-.457.552-.811.965-1.065.413-.256.899-.384 1.456-.384.36 0 .7.059 1.019.175.322.114.606.292.851.532.249.241.444.548.586.92.142.37.213.811.213 1.323v.422h-4.786v-.927h3.467a1.495 1.495 0 0 0-.171-.704 1.253 1.253 0 0 0-.468-.49 1.316 1.316 0 0 0-.692-.179 1.34 1.34 0 0 0-.741.206 1.406 1.406 0 0 0-.498.532 1.53 1.53 0 0 0-.179.718v.81c0 .339.062.631.187.874.124.241.297.426.52.555.223.127.484.19.783.19.201 0 .382-.028.544-.083.162-.059.303-.144.422-.255.119-.112.209-.25.27-.415l1.285.145c-.081.34-.236.636-.464.889a2.274 2.274 0 0 1-.867.586 3.316 3.316 0 0 1-1.209.205Zm7.482-2.57v-3.383h1.376v5.839h-1.334v-1.038h-.061a1.75 1.75 0 0 1-.65.802c-.299.208-.668.312-1.106.312a1.99 1.99 0 0 1-1.015-.255 1.775 1.775 0 0 1-.684-.748c-.165-.33-.247-.728-.247-1.194v-3.718h1.376v3.505c0 .37.101.664.304.882.203.218.469.327.798.327.203 0 .399-.05.589-.148.19-.099.346-.246.468-.441.124-.198.186-.445.186-.742Zm2.791 2.456v-5.839h1.315v.992h.069a1.55 1.55 0 0 1 .604-.783c.282-.19.617-.285 1.008-.285.395 0 .728.097.999.289.274.19.467.45.578.779h.061c.129-.324.347-.582.654-.775.309-.195.675-.293 1.098-.293.537 0 .976.17 1.315.51.34.339.51.835.51 1.486v3.919h-1.38v-3.706c0-.363-.096-.627-.289-.795a1.035 1.035 0 0 0-.707-.254c-.332 0-.592.104-.779.311-.185.206-.278.473-.278.802v3.642h-1.349v-3.763c0-.302-.091-.542-.274-.722-.18-.18-.415-.27-.707-.27a.997.997 0 0 0-.54.152 1.056 1.056 0 0 0-.387.422 1.31 1.31 0 0 0-.145.631v3.55h-1.376Z"/><path fill="#96A396" d="M60.48 230.414h.844l1.984 4.847h.069l1.984-4.847h.844v5.839h-.662v-4.436h-.057l-1.824 4.436h-.639l-1.825-4.436h-.057v4.436h-.661v-5.839Zm8.34 5.942c-.278 0-.53-.053-.756-.157a1.304 1.304 0 0 1-.539-.459 1.297 1.297 0 0 1-.2-.73c0-.251.05-.454.149-.61a1.05 1.05 0 0 1 .396-.371c.166-.089.348-.156.548-.199a6.67 6.67 0 0 1 .607-.109c.266-.034.482-.06.647-.077a.99.99 0 0 0 .365-.094c.078-.043.117-.119.117-.228v-.023c0-.281-.077-.499-.231-.655-.152-.156-.383-.234-.693-.234-.321 0-.573.07-.755.211a1.248 1.248 0 0 0-.385.45l-.639-.228a1.53 1.53 0 0 1 .456-.621c.192-.15.401-.255.627-.314.229-.061.453-.091.673-.091.141 0 .303.017.485.051.184.033.362.1.533.203.173.102.317.257.43.464.115.208.172.485.172.833v2.885h-.673v-.593h-.034a1.18 1.18 0 0 1-.228.305 1.323 1.323 0 0 1-.425.277 1.637 1.637 0 0 1-.647.114Zm.102-.605c.266 0 .49-.052.673-.157a1.064 1.064 0 0 0 .559-.926v-.616c-.029.034-.091.066-.188.094-.095.027-.206.05-.331.071-.124.019-.244.036-.362.052-.116.013-.21.024-.282.034a2.61 2.61 0 0 0-.49.111.858.858 0 0 0-.366.225.575.575 0 0 0-.136.405c0 .234.086.411.259.53.175.118.396.177.664.177Zm3.41 2.144a1.476 1.476 0 0 1-.491-.08l.17-.593c.164.042.309.057.434.046a.525.525 0 0 0 .334-.168c.099-.099.189-.26.27-.482l.126-.342-1.62-4.402h.73l1.21 3.489h.045l1.209-3.489h.73l-1.86 5.018a1.893 1.893 0 0 1-.31.561c-.123.15-.267.261-.43.334a1.331 1.331 0 0 1-.548.108Zm6.281-1.642v-.513l1.927-2.11c.227-.247.413-.462.56-.644.146-.185.254-.358.324-.519a1.26 1.26 0 0 0 .108-.513.945.945 0 0 0-.547-.881 1.29 1.29 0 0 0-.57-.123c-.224 0-.42.047-.587.14a.957.957 0 0 0-.385.385c-.09.165-.134.359-.134.581h-.673c0-.342.079-.642.237-.901.157-.258.372-.459.644-.604.274-.144.58-.217.92-.217.343 0 .646.073.91.217.264.145.472.339.622.585.15.245.225.517.225.818 0 .215-.039.425-.117.63-.076.203-.209.43-.4.681-.187.249-.449.553-.783.912l-1.312 1.403v.046h2.715v.627h-3.684Zm6.765.08c-.43 0-.795-.117-1.097-.351-.302-.236-.533-.577-.693-1.023-.16-.449-.24-.991-.24-1.625 0-.631.08-1.17.24-1.617.162-.448.394-.791.696-1.026a1.722 1.722 0 0 1 1.094-.357c.426 0 .79.119 1.092.357.304.235.536.578.696 1.026.162.447.242.986.242 1.617 0 .634-.08 1.176-.24 1.625-.159.446-.39.787-.692 1.023-.302.234-.668.351-1.098.351Zm0-.627c.426 0 .757-.206.993-.616.235-.411.353-.996.353-1.756 0-.506-.054-.936-.163-1.292-.106-.355-.26-.626-.461-.812-.2-.187-.44-.28-.722-.28-.421 0-.751.208-.989.625-.237.414-.356 1-.356 1.759 0 .505.053.935.16 1.288.106.354.259.623.458.807.202.184.444.277.727.277Zm3.925-.251-.046.308a6.213 6.213 0 0 1-.148.695c-.065.247-.132.48-.203.699-.07.218-.128.392-.174.521h-.513l.097-.481a18.633 18.633 0 0 0 .223-1.423l.034-.319h.73Zm3.493.798v-.513l1.927-2.11c.226-.247.412-.462.559-.644.146-.185.255-.358.325-.519a1.26 1.26 0 0 0 .108-.513.945.945 0 0 0-.547-.881 1.29 1.29 0 0 0-.57-.123c-.225 0-.42.047-.588.14a.956.956 0 0 0-.385.385 1.207 1.207 0 0 0-.134.581h-.672c0-.342.078-.642.236-.901a1.65 1.65 0 0 1 .644-.604 1.95 1.95 0 0 1 .921-.217c.343 0 .646.073.91.217.264.145.471.339.621.585.15.245.225.517.225.818 0 .215-.038.425-.116.63a2.79 2.79 0 0 1-.4.681 11.98 11.98 0 0 1-.784.912l-1.31 1.403v.046h2.713v.627h-3.683Zm6.765.08c-.43 0-.795-.117-1.098-.351-.302-.236-.533-.577-.692-1.023-.16-.449-.24-.991-.24-1.625 0-.631.08-1.17.24-1.617.161-.448.393-.791.695-1.026.304-.238.67-.357 1.095-.357.426 0 .79.119 1.092.357.304.235.536.578.696 1.026.161.447.242.986.242 1.617 0 .634-.08 1.176-.24 1.625-.159.446-.39.787-.692 1.023-.303.234-.669.351-1.098.351Zm0-.627c.426 0 .756-.206.992-.616.236-.411.354-.996.354-1.756 0-.506-.055-.936-.163-1.292-.106-.355-.26-.626-.462-.812a1.015 1.015 0 0 0-.721-.28c-.422 0-.752.208-.99.625-.237.414-.356 1-.356 1.759 0 .505.054.935.16 1.288.106.354.26.623.459.807.201.184.444.277.727.277Zm3.113.547v-.513l1.927-2.11c.227-.247.413-.462.559-.644.147-.185.255-.358.325-.519.072-.164.109-.335.109-.513a.944.944 0 0 0-.548-.881 1.289 1.289 0 0 0-.57-.123c-.224 0-.42.047-.587.14a.952.952 0 0 0-.385.385c-.09.165-.134.359-.134.581h-.673c0-.342.079-.642.237-.901.157-.258.372-.459.644-.604a1.95 1.95 0 0 1 .921-.217c.342 0 .645.073.909.217.264.145.472.339.622.585.15.245.225.517.225.818 0 .215-.039.425-.117.63-.076.203-.209.43-.399.681-.188.249-.45.553-.784.912l-1.311 1.403v.046h2.714v.627h-3.684Zm6.686.08c-.335 0-.636-.067-.904-.2a1.671 1.671 0 0 1-.644-.547 1.495 1.495 0 0 1-.266-.793h.685a.936.936 0 0 0 .359.656c.215.171.471.257.77.257.239 0 .452-.057.638-.169.188-.112.336-.266.442-.461.108-.198.163-.421.163-.67a1.36 1.36 0 0 0-.169-.682 1.235 1.235 0 0 0-.456-.476 1.289 1.289 0 0 0-.664-.177 1.82 1.82 0 0 0-.55.083 1.521 1.521 0 0 0-.465.214l-.661-.08.353-2.874h3.034v.627h-2.441l-.205 1.722h.034c.12-.095.27-.173.451-.236.18-.063.368-.094.564-.094a1.792 1.792 0 0 1 1.616.952c.162.295.243.631.243 1.009 0 .373-.084.705-.251.998a1.834 1.834 0 0 1-.684.69 1.958 1.958 0 0 1-.992.251Z"/></g><path fill="#fff" d="M191.983 222.063c-.626 0-1.163-.158-1.611-.475-.446-.319-.79-.779-1.03-1.38-.239-.603-.358-1.329-.358-2.178.003-.849.123-1.571.361-2.166.241-.599.584-1.055 1.03-1.369.449-.314.985-.471 1.608-.471.624 0 1.16.157 1.608.471.449.314.792.77 1.03 1.369.241.598.362 1.32.362 2.166 0 .852-.121 1.579-.362 2.182-.238.601-.581 1.059-1.03 1.376-.446.317-.982.475-1.608.475Zm0-1.189c.487 0 .871-.24 1.152-.719.284-.481.426-1.19.426-2.125 0-.618-.065-1.138-.194-1.558-.129-.421-.312-.738-.547-.951a1.202 1.202 0 0 0-.837-.323c-.484 0-.866.241-1.148.723-.281.478-.423 1.182-.425 2.109-.003.621.059 1.143.186 1.566.129.423.312.743.547.958.236.213.516.32.84.32Zm4.822 1.125a.814.814 0 0 1-.593-.244.787.787 0 0 1-.243-.593.779.779 0 0 1 .243-.585.817.817 0 0 1 .593-.243c.223 0 .417.081.582.243a.801.801 0 0 1 .133 1.007.876.876 0 0 1-.304.304.787.787 0 0 1-.411.111Zm4.854.022c-.506 0-.96-.095-1.36-.285a2.425 2.425 0 0 1-.955-.79 2.092 2.092 0 0 1-.372-1.148h1.368c.026.319.164.58.415.783.251.2.552.3.904.3a1.368 1.368 0 0 0 1.247-.718c.124-.226.185-.483.183-.772a1.56 1.56 0 0 0-.187-.783 1.388 1.388 0 0 0-.52-.536 1.454 1.454 0 0 0-.761-.198 1.818 1.818 0 0 0-.688.13 1.41 1.41 0 0 0-.536.349l-1.273-.209.407-4.014h4.516v1.179h-3.349l-.225 2.064h.046c.144-.17.348-.311.612-.422a2.16 2.16 0 0 1 .867-.171c.471 0 .892.111 1.262.334.37.221.661.525.874.912.213.388.319.832.319 1.331 0 .514-.119.973-.357 1.376-.236.4-.564.716-.985.946-.418.228-.902.342-1.452.342Zm4.353-.106 3.311-6.553v-.053h-3.843v-1.179h5.302v1.205l-3.307 6.58h-1.463Zm8.608.106c-.565 0-1.067-.095-1.506-.285-.436-.19-.778-.449-1.026-.779a1.831 1.831 0 0 1-.365-1.129 1.88 1.88 0 0 1 .213-.901c.144-.273.34-.501.585-.684.249-.185.525-.303.829-.353v-.054a1.64 1.64 0 0 1-.973-.612 1.76 1.76 0 0 1-.365-1.113 1.765 1.765 0 0 1 .335-1.072c.225-.315.534-.562.927-.742a3.167 3.167 0 0 1 1.346-.273c.499 0 .944.091 1.334.273.393.18.702.427.927.742.228.314.342.671.342 1.072 0 .42-.125.792-.376 1.113-.248.32-.569.524-.962.612v.054c.305.05.578.168.822.353.245.183.44.411.585.684.147.274.22.574.22.901 0 .421-.124.797-.372 1.129-.248.33-.591.589-1.026.779-.434.19-.932.285-1.494.285Zm0-1.087c.291 0 .544-.049.76-.148.215-.101.383-.243.502-.426.119-.182.18-.392.182-.631a1.173 1.173 0 0 0-.194-.657 1.27 1.27 0 0 0-.513-.453 1.608 1.608 0 0 0-.737-.163c-.279 0-.527.054-.745.163-.218.109-.391.26-.517.453a1.15 1.15 0 0 0-.183.657c-.002.239.056.449.175.631.119.18.286.321.502.422.218.102.474.152.768.152Zm0-3.546c.238 0 .448-.048.631-.145a1.096 1.096 0 0 0 .6-.999 1.116 1.116 0 0 0-.159-.586c-.104-.17-.249-.3-.434-.391a1.39 1.39 0 0 0-.638-.141 1.43 1.43 0 0 0-.65.141c-.185.091-.33.221-.434.391-.101.167-.15.363-.148.586a1.11 1.11 0 0 0 .152.596c.107.17.252.305.437.403.188.097.402.145.643.145Zm6.873 4.527v-7.785h5.063v1.182h-3.653v2.114h3.391v1.182h-3.391v2.125h3.684v1.182h-5.094Zm6.16-6.603v-1.182h6.211v1.182h-2.406v6.603h-1.399v-6.603h-2.406Zm7.409 6.603v-7.785h1.41v3.296h3.607v-3.296h1.414v7.785h-1.414v-3.307h-3.607v3.307h-1.41Z"/><path fill="#96A396" d="M183.473 236.253v-.513l1.928-2.11c.226-.247.412-.462.558-.644.147-.185.255-.358.325-.519.073-.164.109-.335.109-.513a.952.952 0 0 0-.148-.533.956.956 0 0 0-.4-.348 1.289 1.289 0 0 0-.57-.123c-.224 0-.42.047-.587.14a.958.958 0 0 0-.385.385 1.207 1.207 0 0 0-.134.581h-.673c0-.342.079-.642.237-.901a1.65 1.65 0 0 1 .644-.604 1.95 1.95 0 0 1 .921-.217c.342 0 .645.073.909.217.265.145.472.339.622.585.15.245.225.517.225.818 0 .215-.039.425-.117.63-.076.203-.209.43-.399.681a11.98 11.98 0 0 1-.784.912l-1.311 1.403v.046h2.714v.627h-3.684Zm5.876-.798-.045.308a6.292 6.292 0 0 1-.149.695c-.064.247-.132.48-.202.699-.07.218-.128.392-.174.521h-.513l.097-.481c.04-.2.08-.423.119-.67.042-.246.076-.496.103-.753l.034-.319h.73Zm1.098-.399v-.582l2.566-4.06h.422v.901h-.285l-1.938 3.068v.045h3.455v.628h-4.22Zm2.749 1.197v-5.839h.673v5.839h-.673Zm4.444.08c-.43 0-.796-.117-1.098-.351-.302-.236-.533-.577-.693-1.023-.159-.449-.239-.991-.239-1.625 0-.631.08-1.17.239-1.617.162-.448.394-.791.696-1.026.304-.238.669-.357 1.095-.357.425 0 .789.119 1.092.357.304.235.535.578.695 1.026.162.447.242.986.242 1.617 0 .634-.079 1.176-.239 1.625-.16.446-.391.787-.693 1.023-.302.234-.668.351-1.097.351Zm0-.627c.425 0 .756-.206.992-.616.235-.411.353-.996.353-1.756 0-.506-.054-.936-.162-1.292-.107-.355-.261-.626-.462-.812-.2-.187-.44-.28-.721-.28-.422 0-.752.208-.99.625-.237.414-.356 1-.356 1.759 0 .505.053.935.16 1.288.106.354.259.623.459.807.201.184.443.277.727.277Zm2.976-.65v-.582l2.566-4.06h.422v.901h-.285l-1.939 3.068v.045h3.455v.628h-4.219Zm2.748 1.197v-5.839h.673v5.839h-.673Zm3.28-.798-.045.308a6.292 6.292 0 0 1-.149.695c-.064.247-.132.48-.202.699-.07.218-.128.392-.174.521h-.513l.097-.481c.04-.2.08-.423.12-.67.041-.246.076-.496.102-.753l.034-.319h.73Zm3.039-5.121c.24.002.479.048.719.137.239.09.458.238.655.445.198.205.357.486.477.841.119.355.179.801.179 1.337 0 .519-.049.98-.148 1.383a3.153 3.153 0 0 1-.422 1.015 1.886 1.886 0 0 1-.667.627 1.818 1.818 0 0 1-.884.214 1.92 1.92 0 0 1-.875-.194 1.71 1.71 0 0 1-.627-.545 1.876 1.876 0 0 1-.311-.812h.695c.063.268.188.489.374.664.188.173.436.26.744.26.45 0 .806-.197 1.066-.591.263-.393.394-.949.394-1.667h-.046a1.8 1.8 0 0 1-.379.413 1.669 1.669 0 0 1-1.058.362c-.334 0-.641-.083-.921-.248a1.888 1.888 0 0 1-.667-.687 2.009 2.009 0 0 1-.248-1.004c0-.357.08-.684.24-.98.161-.299.387-.536.678-.713.293-.177.637-.262 1.032-.257Zm0 .628c-.239 0-.455.06-.647.179-.19.118-.341.278-.453.479-.11.2-.166.421-.166.664 0 .244.054.465.16.665.108.197.256.355.442.473.188.116.402.174.641.174.181 0 .349-.035.505-.106a1.31 1.31 0 0 0 .408-.293c.118-.126.21-.267.276-.425a1.305 1.305 0 0 0-.065-1.14 1.313 1.313 0 0 0-.451-.485 1.16 1.16 0 0 0-.65-.185Zm3.151 5.291v-.513l1.927-2.11c.227-.247.413-.462.559-.644.147-.185.255-.358.325-.519.072-.164.109-.335.109-.513a.944.944 0 0 0-.548-.881 1.289 1.289 0 0 0-.57-.123c-.224 0-.42.047-.587.14a.952.952 0 0 0-.385.385 1.207 1.207 0 0 0-.134.581h-.673c0-.342.079-.642.237-.901.157-.258.372-.459.644-.604a1.95 1.95 0 0 1 .921-.217c.342 0 .645.073.909.217.264.145.472.339.622.585.15.245.225.517.225.818 0 .215-.039.425-.117.63-.076.203-.209.43-.399.681-.188.249-.45.553-.784.912l-1.311 1.403v.046h2.714v.627h-3.684Zm6.8.08a2.205 2.205 0 0 1-.719-.137 1.725 1.725 0 0 1-.655-.442c-.198-.209-.357-.491-.477-.847-.119-.357-.179-.806-.179-1.345 0-.517.048-.975.145-1.374.097-.402.238-.739.422-1.013a1.92 1.92 0 0 1 .667-.627c.263-.142.558-.214.887-.214.327 0 .618.066.872.197.257.129.466.31.627.542.162.232.267.499.314.801h-.696a1.288 1.288 0 0 0-.376-.653c-.186-.173-.433-.259-.741-.259-.452 0-.809.196-1.069.59-.259.393-.389.945-.391 1.656h.046a1.721 1.721 0 0 1 .869-.681c.179-.063.368-.094.568-.094.334 0 .64.083.918.251.277.165.5.394.667.687.167.29.251.624.251 1 0 .361-.081.692-.243.992a1.837 1.837 0 0 1-.681.713 1.914 1.914 0 0 1-1.026.257Zm0-.627c.239 0 .454-.06.644-.18.192-.12.343-.28.453-.482a1.36 1.36 0 0 0 .168-.673c0-.241-.054-.461-.162-.658a1.235 1.235 0 0 0-.442-.476 1.167 1.167 0 0 0-.639-.177c-.18 0-.348.036-.504.108a1.308 1.308 0 0 0-.684.716 1.356 1.356 0 0 0 .062 1.149c.111.201.261.364.451.487.192.124.409.186.653.186Zm10.061-5.292v5.839h-.684l-3.182-4.584h-.057v4.584h-.707v-5.839h.685l3.193 4.596H229v-4.596h.695Zm5.406 1.825a2.022 2.022 0 0 0-.248-.516 1.585 1.585 0 0 0-.362-.394 1.525 1.525 0 0 0-.473-.248 1.89 1.89 0 0 0-.582-.085c-.346 0-.66.089-.943.268a1.849 1.849 0 0 0-.676.79c-.167.347-.251.774-.251 1.28 0 .505.085.932.254 1.28.169.347.398.611.687.789.289.179.614.268.975.268.334 0 .629-.071.884-.213.256-.145.456-.348.598-.611.145-.264.217-.575.217-.932l.217.046h-1.756v-.627h2.223v.627c0 .481-.102.899-.308 1.254a2.122 2.122 0 0 1-.843.827 2.543 2.543 0 0 1-1.232.291c-.517 0-.971-.122-1.363-.365a2.462 2.462 0 0 1-.912-1.038c-.217-.448-.325-.981-.325-1.596 0-.462.062-.878.185-1.246a2.76 2.76 0 0 1 .531-.947c.228-.26.497-.46.809-.598a2.5 2.5 0 0 1 1.029-.209c.308 0 .595.047.861.14a2.311 2.311 0 0 1 1.243.992c.141.232.238.49.291.773h-.73Zm6.605-1.825v5.839h-.684l-3.182-4.584h-.057v4.584h-.707v-5.839h.684l3.194 4.596h.057v-4.596h.695Z"/></g><path fill="#96A396" d="M12.866 278.014h-.988l2.858-7.785h.973l2.859 7.785h-.989l-2.326-6.554h-.06l-2.327 6.554Zm.365-3.041h3.984v.836H13.23v-.836Zm6.428 5.23v-8.028h.867v.927h.106c.066-.101.157-.23.274-.387a1.6 1.6 0 0 1 .509-.426c.223-.127.524-.19.905-.19.491 0 .925.123 1.3.369s.667.594.878 1.045c.21.451.315.983.315 1.597 0 .618-.105 1.154-.315 1.607a2.49 2.49 0 0 1-.875 1.05 2.292 2.292 0 0 1-1.288.368c-.375 0-.675-.062-.901-.186-.226-.127-.4-.27-.52-.429a6.046 6.046 0 0 1-.282-.403h-.076v3.086h-.897Zm.882-5.109c0 .441.064.83.194 1.167.129.335.318.597.566.787.248.188.552.281.912.281.375 0 .688-.098.94-.296.253-.2.443-.469.57-.806a3.16 3.16 0 0 0 .193-1.133c0-.41-.063-.78-.19-1.11a1.71 1.71 0 0 0-.566-.786c-.251-.196-.567-.293-.947-.293-.365 0-.671.092-.92.277a1.671 1.671 0 0 0-.562.768c-.127.327-.19.708-.19 1.144Zm5.64 2.92v-5.839h.867v.882h.061c.107-.289.3-.523.578-.703a1.7 1.7 0 0 1 .943-.27 8.169 8.169 0 0 1 .471.015v.912a2.84 2.84 0 0 0-.21-.034 2.028 2.028 0 0 0-.337-.027c-.284 0-.538.06-.76.179a1.309 1.309 0 0 0-.715 1.19v3.695h-.897Zm6.979 0v-.685l2.57-2.812c.3-.33.55-.616.744-.86a3.17 3.17 0 0 0 .434-.691 1.68 1.68 0 0 0 .144-.685 1.261 1.261 0 0 0-.73-1.174 1.725 1.725 0 0 0-.76-.164c-.299 0-.56.062-.783.187-.22.121-.392.292-.513.513-.12.22-.179.479-.179.775h-.897c0-.456.105-.856.316-1.201.21-.345.496-.613.859-.806a2.597 2.597 0 0 1 1.227-.289c.457 0 .86.097 1.213.289.352.193.629.453.829.779.2.327.3.691.3 1.091 0 .287-.052.567-.156.841-.101.271-.279.573-.532.908-.25.332-.6.737-1.045 1.216l-1.749 1.871v.06h3.619v.837H33.16Zm9.02.106c-.573 0-1.06-.156-1.463-.467-.403-.315-.711-.77-.924-1.365-.213-.598-.32-1.32-.32-2.167 0-.841.107-1.56.32-2.155.215-.598.524-1.054.927-1.369.406-.316.892-.475 1.46-.475s1.053.159 1.456.475c.405.315.714.771.927 1.369.216.595.323 1.314.323 2.155 0 .847-.106 1.569-.319 2.167-.213.595-.52 1.05-.923 1.365-.403.311-.891.467-1.464.467Zm0-.836c.568 0 1.009-.274 1.323-.821.314-.548.471-1.328.471-2.342 0-.674-.072-1.248-.216-1.722-.142-.474-.348-.835-.616-1.083a1.361 1.361 0 0 0-.962-.373c-.563 0-1.002.278-1.319.833-.317.552-.475 1.334-.475 2.345 0 .674.07 1.247.213 1.718.142.472.346.83.612 1.076.268.246.592.369.969.369Zm4.151.73v-.685l2.57-2.812c.301-.33.55-.616.745-.86a3.14 3.14 0 0 0 .433-.691 1.68 1.68 0 0 0 .144-.685 1.261 1.261 0 0 0-.73-1.174 1.725 1.725 0 0 0-.76-.164c-.299 0-.56.062-.783.187a1.28 1.28 0 0 0-.513.513c-.119.22-.178.479-.178.775h-.898c0-.456.106-.856.316-1.201.21-.345.497-.613.859-.806a2.596 2.596 0 0 1 1.228-.289c.456 0 .86.097 1.212.289.353.193.629.453.829.779.2.327.3.691.3 1.091 0 .287-.052.567-.156.841-.1.271-.278.573-.532.908-.25.332-.6.737-1.045 1.216l-1.749 1.871v.06h3.62v.837H46.33Zm8.914.106c-.446 0-.848-.089-1.205-.266a2.236 2.236 0 0 1-.86-.73 1.987 1.987 0 0 1-.353-1.057h.913c.035.353.195.644.478.875a1.6 1.6 0 0 0 1.027.342 1.587 1.587 0 0 0 1.44-.84c.145-.264.217-.562.217-.894 0-.339-.075-.642-.224-.908a1.647 1.647 0 0 0-.608-.635 1.718 1.718 0 0 0-.886-.235 2.418 2.418 0 0 0-.734.11 2.04 2.04 0 0 0-.62.285l-.881-.107.471-3.831h4.045v.836H54.21l-.274 2.296h.046c.16-.127.36-.232.6-.316.241-.083.492-.125.753-.125a2.39 2.39 0 0 1 2.155 1.27c.216.392.323.841.323 1.345 0 .497-.111.94-.334 1.331-.22.387-.525.694-.912.92a2.604 2.604 0 0 1-1.323.334Z"/><g clip-path="url(#g)"><path fill="#1B211D" d="M11.604 299.07c0-5.912 4.792-10.704 10.704-10.704h220.106c5.912 0 10.704 4.792 10.704 10.704v80.084c0 5.912-4.792 10.705-10.704 10.705H22.308c-5.912 0-10.704-4.793-10.704-10.705V299.07Z"/><path fill="#1B211D" d="M11.604 288.366h241.514v50.746H11.604z"/><g clip-path="url(#h)"><path fill="#627EEA" d="M22.308 300.359h26.761v26.761H22.308z"/><path fill="#fff" d="M35.687 305.176v6.331l5.35 2.391-5.35-8.722Zm0 0-5.35 8.722 5.35-2.391v-6.331Zm0 12.825v4.302l5.354-7.408-5.354 3.106Zm0 4.302V318l-5.35-3.105 5.35 7.408Z"/><path fill="#fff" d="m35.687 317.005 5.35-3.107-5.35-2.389v5.496Zm-5.351-3.107 5.351 3.107v-5.496l-5.35 2.389Z"/></g><path fill="#000501" d="M43.717 315.914a5.854 5.854 0 1 1 0 11.708 5.854 5.854 0 0 1 0-11.708Z"/><path stroke="#1B211D" stroke-width="1.004" d="M43.717 315.914a5.854 5.854 0 1 1 0 11.708 5.854 5.854 0 0 1 0-11.708Z"/><path fill="#fff" d="M43.438 323.719v-1.673h-1.673a.278.278 0 1 1 0-.557h1.673v-1.673a.278.278 0 0 1 .557 0v1.673h1.673a.279.279 0 0 1 0 .557h-1.673v1.673a.279.279 0 1 1-.557 0Z"/><g clip-path="url(#i)"><path fill="#fff" d="M60.54 311.07v-7.785h2.98c.563 0 1.031.089 1.404.266.375.175.655.414.84.718.187.305.281.649.281 1.034 0 .317-.06.588-.183.814a1.53 1.53 0 0 1-.49.543 2.06 2.06 0 0 1-.688.301v.076c.276.015.541.1.795.254.255.152.465.368.627.647.162.278.243.615.243 1.011 0 .403-.098.765-.293 1.087-.195.319-.489.571-.882.756-.392.185-.887.278-1.482.278h-3.151Zm1.411-1.179h1.517c.512 0 .88-.097 1.106-.292a.96.96 0 0 0 .342-.76 1.165 1.165 0 0 0-.658-1.065 1.617 1.617 0 0 0-.752-.163H61.95v2.28Zm0-3.295h1.395c.243 0 .463-.045.658-.133.195-.091.348-.219.46-.384.114-.167.17-.365.17-.593a.965.965 0 0 0-.319-.745c-.21-.195-.523-.293-.938-.293H61.95v2.148Zm8.11 4.588c-.57 0-1.063-.126-1.482-.376a2.557 2.557 0 0 1-.973-1.053c-.228-.451-.342-.979-.342-1.582 0-.603.114-1.131.342-1.585.23-.453.555-.806.973-1.057.419-.25.913-.376 1.483-.376.57 0 1.064.126 1.482.376.419.251.742.604.97 1.057.23.454.346.982.346 1.585s-.116 1.131-.346 1.582a2.532 2.532 0 0 1-.97 1.053c-.418.25-.912.376-1.482.376Zm.008-1.102c.31 0 .568-.085.776-.255.208-.172.362-.403.464-.692a2.84 2.84 0 0 0 .156-.966c0-.357-.052-.68-.156-.969a1.533 1.533 0 0 0-.464-.695c-.208-.173-.466-.259-.775-.259-.317 0-.58.086-.791.259a1.559 1.559 0 0 0-.468.695 2.913 2.913 0 0 0-.152.969c0 .355.05.677.152.966.104.289.26.52.468.692.21.17.474.255.79.255Zm7.68-1.468v-3.383h1.376v5.839H77.79v-1.038h-.061a1.756 1.756 0 0 1-.65.802c-.3.208-.668.312-1.106.312a1.99 1.99 0 0 1-1.015-.255 1.768 1.768 0 0 1-.684-.749c-.165-.329-.248-.727-.248-1.193v-3.718h1.377v3.505c0 .37.1.664.304.882.202.218.469.327.798.327.203 0 .399-.05.59-.149.19-.098.345-.245.467-.441.124-.197.186-.444.186-.741Zm5.33 4.767c-.494 0-.918-.067-1.273-.202a2.252 2.252 0 0 1-.855-.532 1.843 1.843 0 0 1-.45-.741l1.24-.3c.056.114.137.227.243.338.107.114.25.208.43.281a1.8 1.8 0 0 0 .688.114c.39 0 .713-.095.97-.285.255-.187.383-.496.383-.927v-1.106h-.068a1.965 1.965 0 0 1-.312.437 1.596 1.596 0 0 1-.536.376c-.22.102-.498.152-.832.152-.449 0-.856-.105-1.22-.315-.363-.213-.652-.53-.867-.951-.213-.423-.32-.952-.32-1.589 0-.641.107-1.182.32-1.623.215-.443.505-.779.87-1.007a2.234 2.234 0 0 1 1.22-.346c.343 0 .624.058.844.175.223.114.4.252.532.414.132.16.232.311.3.453h.077v-.966h1.357v5.934c0 .499-.12.912-.357 1.239a2.143 2.143 0 0 1-.977.734 3.828 3.828 0 0 1-1.407.243Zm.012-3.474c.291 0 .54-.071.745-.213.205-.142.36-.346.467-.612.107-.266.16-.586.16-.958a2.68 2.68 0 0 0-.16-.966 1.378 1.378 0 0 0-.464-.642 1.196 1.196 0 0 0-.748-.232c-.307 0-.563.08-.768.24a1.44 1.44 0 0 0-.464.657 2.666 2.666 0 0 0-.156.943c0 .357.052.67.156.939.106.266.262.474.468.623.207.147.462.221.764.221Zm5.515-2.258v3.421H87.23v-7.785h1.346v2.938h.068c.137-.329.349-.589.635-.779.289-.193.656-.289 1.102-.289.406 0 .76.085 1.06.255.302.17.535.418.7.745.167.327.251.726.251 1.197v3.718h-1.376v-3.505c0-.393-.101-.698-.304-.916-.2-.22-.481-.331-.844-.331-.243 0-.461.054-.654.16-.19.104-.34.255-.448.452-.107.198-.16.437-.16.719Zm8.104-2.418v1.064h-3.356v-1.064h3.356Zm-2.527-1.399h1.376v5.482c0 .185.027.327.083.425a.447.447 0 0 0 .228.198.863.863 0 0 0 .312.053 1.857 1.857 0 0 0 .403-.053l.232 1.076a3.085 3.085 0 0 1-.316.083 2.522 2.522 0 0 1-.494.054 2.247 2.247 0 0 1-.931-.156 1.454 1.454 0 0 1-.658-.54c-.16-.243-.238-.547-.236-.912v-5.71Zm6.394 7.238v-7.785h5.063v1.182h-3.653v2.114h3.391v1.182h-3.391v2.125h3.684v1.182h-5.094Zm9.357-5.839v1.064h-3.357v-1.064h3.357Zm-2.528-1.399h1.376v5.482c0 .185.028.327.084.425a.444.444 0 0 0 .228.198.857.857 0 0 0 .311.053 1.81 1.81 0 0 0 .403-.053l.232 1.076a3.02 3.02 0 0 1-.315.083 2.53 2.53 0 0 1-.494.054 2.248 2.248 0 0 1-.932-.156 1.452 1.452 0 0 1-.657-.54c-.16-.243-.239-.547-.236-.912v-5.71Zm5.18 3.817v3.421h-1.376v-7.785h1.346v2.938h.068c.137-.329.349-.589.635-.779.289-.193.656-.289 1.102-.289.406 0 .759.085 1.061.255.301.17.535.418.699.745.167.327.251.726.251 1.197v3.718h-1.376v-3.505c0-.393-.101-.698-.304-.916-.2-.22-.482-.331-.844-.331-.243 0-.461.054-.654.16a1.12 1.12 0 0 0-.448.452c-.107.198-.16.437-.16.719Zm7.774 3.535c-.586 0-1.091-.122-1.517-.365a2.472 2.472 0 0 1-.977-1.042c-.228-.451-.342-.982-.342-1.592 0-.601.114-1.128.342-1.582.231-.456.552-.811.965-1.064.414-.256.899-.384 1.456-.384.36 0 .7.058 1.019.175a2.3 2.3 0 0 1 .852.532c.248.241.443.548.585.92.142.37.213.811.213 1.323v.422h-4.786v-.928h3.467a1.491 1.491 0 0 0-.171-.703 1.247 1.247 0 0 0-.468-.49 1.313 1.313 0 0 0-.692-.179 1.34 1.34 0 0 0-.741.205 1.416 1.416 0 0 0-.498.533 1.527 1.527 0 0 0-.178.718v.81c0 .339.062.631.186.874.124.241.298.426.521.555.223.127.484.19.783.19.2 0 .381-.028.543-.084.162-.058.303-.143.422-.254.119-.112.209-.25.27-.415l1.285.145a2.002 2.002 0 0 1-.464.889 2.26 2.26 0 0 1-.867.586 3.336 3.336 0 0 1-1.208.205Zm3.76-.114v-5.839h1.334v.973h.061c.106-.337.289-.597.547-.779.261-.185.559-.277.894-.277.076 0 .161.003.254.011.097.005.176.014.24.027v1.265a1.454 1.454 0 0 0-.278-.053 2.505 2.505 0 0 0-.361-.026c-.251 0-.476.054-.676.163a1.193 1.193 0 0 0-.468.445c-.114.19-.171.409-.171.657v3.433h-1.376Zm6.588.114c-.585 0-1.091-.122-1.516-.365a2.472 2.472 0 0 1-.977-1.042c-.228-.451-.342-.982-.342-1.592 0-.601.114-1.128.342-1.582a2.58 2.58 0 0 1 .965-1.064c.413-.256.899-.384 1.456-.384.36 0 .7.058 1.019.175.322.114.606.291.851.532.249.241.444.548.586.92.142.37.213.811.213 1.323v.422h-4.786v-.928h3.467a1.491 1.491 0 0 0-.171-.703 1.247 1.247 0 0 0-.468-.49 1.316 1.316 0 0 0-.692-.179 1.34 1.34 0 0 0-.741.205 1.416 1.416 0 0 0-.498.533 1.528 1.528 0 0 0-.179.718v.81c0 .339.062.631.187.874.124.241.297.426.52.555.223.127.484.19.783.19.201 0 .382-.028.544-.084.162-.058.303-.143.422-.254.119-.112.209-.25.27-.415l1.285.145a2.002 2.002 0 0 1-.464.889 2.274 2.274 0 0 1-.867.586 3.337 3.337 0 0 1-1.209.205Zm7.482-2.57v-3.383h1.376v5.839h-1.334v-1.038h-.061a1.755 1.755 0 0 1-.65.802c-.299.208-.668.312-1.106.312a1.99 1.99 0 0 1-1.015-.255 1.772 1.772 0 0 1-.684-.749c-.165-.329-.247-.727-.247-1.193v-3.718h1.376v3.505c0 .37.101.664.304.882.203.218.469.327.798.327.203 0 .399-.05.589-.149a1.19 1.19 0 0 0 .468-.441c.124-.197.186-.444.186-.741Zm2.791 2.456v-5.839h1.315v.992h.069a1.55 1.55 0 0 1 .604-.783c.282-.19.617-.285 1.008-.285.395 0 .728.096.999.289.274.19.467.45.578.779h.061c.129-.324.347-.583.654-.775.309-.195.675-.293 1.098-.293.537 0 .976.17 1.315.509.34.34.51.835.51 1.487v3.919h-1.38v-3.706c0-.363-.096-.628-.289-.795a1.03 1.03 0 0 0-.707-.254c-.332 0-.592.103-.779.311-.185.205-.278.473-.278.802v3.642h-1.349v-3.763c0-.302-.091-.543-.274-.723-.18-.18-.415-.269-.707-.269a.997.997 0 0 0-.54.152 1.053 1.053 0 0 0-.387.421c-.097.18-.145.391-.145.631v3.551h-1.376Z"/><path fill="#96A396" d="M60.72 325.408h-.742l2.144-5.839h.73l2.144 5.839h-.741l-1.745-4.915h-.046l-1.745 4.915Zm.273-2.281h2.988v.627h-2.988v-.627Zm4.821 3.923v-6.021h.65v.695h.08c.05-.076.118-.173.205-.29a1.2 1.2 0 0 1 .382-.32c.167-.095.394-.142.679-.142.368 0 .693.092.975.276.281.185.5.446.658.784.158.339.237.738.237 1.198 0 .463-.079.865-.237 1.206-.157.338-.376.6-.656.786a1.71 1.71 0 0 1-.966.277c-.281 0-.506-.047-.676-.14a1.25 1.25 0 0 1-.39-.322 4.363 4.363 0 0 1-.211-.302h-.057v2.315h-.673Zm.661-3.832c0 .331.049.623.146.875.097.251.238.448.425.591.186.14.414.211.684.211.281 0 .516-.075.704-.223.19-.15.333-.351.428-.604.097-.255.145-.538.145-.85 0-.308-.047-.585-.142-.832a1.283 1.283 0 0 0-.425-.59c-.188-.147-.425-.22-.71-.22a1.12 1.12 0 0 0-.69.208 1.25 1.25 0 0 0-.422.576 2.366 2.366 0 0 0-.143.858Zm4.231 2.19v-4.379h.65v.661h.046a1.05 1.05 0 0 1 .433-.527c.21-.135.445-.203.707-.203a7.084 7.084 0 0 1 .354.012v.684a2.09 2.09 0 0 0-.157-.026 1.577 1.577 0 0 0-.254-.02c-.213 0-.403.045-.57.134a.984.984 0 0 0-.536.893v2.771h-.673Zm5.234 0v-.513l1.927-2.11c.226-.247.412-.462.559-.644a2.42 2.42 0 0 0 .325-.519 1.26 1.26 0 0 0 .108-.513.95.95 0 0 0-.148-.534.955.955 0 0 0-.4-.347 1.29 1.29 0 0 0-.57-.123c-.224 0-.42.047-.587.14a.957.957 0 0 0-.385.385 1.207 1.207 0 0 0-.134.581h-.672c0-.342.078-.642.236-.901.158-.258.373-.46.645-.604.273-.145.58-.217.92-.217.343 0 .646.072.91.217.264.144.471.339.621.584.15.246.225.518.225.819 0 .214-.038.424-.116.63a2.79 2.79 0 0 1-.4.681 11.98 11.98 0 0 1-.784.912l-1.31 1.403v.046h2.713v.627H75.94Zm6.765.08c-.43 0-.795-.117-1.098-.351-.302-.236-.533-.577-.692-1.024-.16-.448-.24-.99-.24-1.625 0-.631.08-1.169.24-1.616.161-.449.393-.791.695-1.026.304-.238.67-.357 1.095-.357.426 0 .79.119 1.092.357.304.235.536.577.696 1.026.161.447.242.985.242 1.616 0 .635-.08 1.177-.24 1.625-.16.447-.39.788-.692 1.024-.303.234-.668.351-1.098.351Zm0-.628c.426 0 .756-.205.992-.615.236-.411.354-.996.354-1.757 0-.505-.055-.936-.163-1.291-.106-.355-.26-.626-.462-.813a1.02 1.02 0 0 0-.721-.279c-.422 0-.752.208-.99.624-.237.415-.356 1.001-.356 1.759 0 .506.054.935.16 1.289.106.354.26.622.459.807.202.184.444.276.727.276Zm3.924-.251-.045.308a6.201 6.201 0 0 1-.149.696c-.064.247-.132.48-.202.698-.07.219-.128.393-.174.522h-.513l.097-.482a18.02 18.02 0 0 0 .222-1.422l.034-.32h.73Zm3.493.799v-.513l1.928-2.11c.226-.247.412-.462.558-.644.147-.185.255-.358.325-.519.073-.164.109-.335.109-.513a.95.95 0 0 0-.149-.534.955.955 0 0 0-.399-.347 1.29 1.29 0 0 0-.57-.123c-.224 0-.42.047-.587.14a.957.957 0 0 0-.385.385c-.09.165-.134.359-.134.581h-.673c0-.342.079-.642.237-.901.157-.258.372-.46.644-.604.274-.145.58-.217.92-.217.343 0 .646.072.91.217.265.144.472.339.622.584.15.246.225.518.225.819 0 .214-.039.424-.117.63-.076.203-.209.43-.399.681-.188.249-.45.553-.784.912l-1.311 1.403v.046h2.714v.627h-3.684Zm6.766.08c-.43 0-.796-.117-1.098-.351-.302-.236-.533-.577-.693-1.024-.16-.448-.24-.99-.24-1.625 0-.631.08-1.169.24-1.616.162-.449.394-.791.696-1.026.304-.238.669-.357 1.095-.357.425 0 .79.119 1.091.357.305.235.536.577.696 1.026.162.447.242.985.242 1.616 0 .635-.08 1.177-.24 1.625-.159.447-.39.788-.692 1.024-.302.234-.668.351-1.097.351Zm0-.628c.425 0 .756-.205.992-.615.235-.411.353-.996.353-1.757 0-.505-.054-.936-.162-1.291-.107-.355-.26-.626-.462-.813a1.02 1.02 0 0 0-.721-.279c-.422 0-.752.208-.99.624-.237.415-.356 1.001-.356 1.759 0 .506.053.935.16 1.289.106.354.259.622.459.807.201.184.443.276.727.276Zm3.113.548v-.513l1.927-2.11c.226-.247.412-.462.559-.644.146-.185.254-.358.325-.519.072-.164.108-.335.108-.513a.95.95 0 0 0-.148-.534.957.957 0 0 0-.399-.347 1.292 1.292 0 0 0-.57-.123 1.19 1.19 0 0 0-.588.14.964.964 0 0 0-.385.385 1.207 1.207 0 0 0-.134.581h-.672c0-.342.078-.642.236-.901a1.65 1.65 0 0 1 .644-.604c.274-.145.581-.217.921-.217.342 0 .646.072.91.217.264.144.471.339.621.584.15.246.225.518.225.819 0 .214-.038.424-.116.63-.076.203-.209.43-.4.681a11.98 11.98 0 0 1-.784.912l-1.311 1.403v.046h2.714v.627h-3.683Zm6.685.08c-.334 0-.636-.067-.904-.2a1.687 1.687 0 0 1-.644-.547 1.494 1.494 0 0 1-.265-.793h.684a.944.944 0 0 0 .359.656 1.2 1.2 0 0 0 .77.256 1.19 1.19 0 0 0 1.081-.63c.108-.197.162-.421.162-.67a1.37 1.37 0 0 0-.168-.681 1.228 1.228 0 0 0-.456-.476 1.289 1.289 0 0 0-.664-.177 1.825 1.825 0 0 0-.551.083 1.504 1.504 0 0 0-.464.214l-.662-.08.354-2.874h3.033v.627h-2.44l-.206 1.722h.035c.119-.095.27-.174.45-.236.181-.063.369-.095.565-.095a1.795 1.795 0 0 1 1.616.953c.162.294.242.631.242 1.009 0 .372-.083.705-.251.998a1.827 1.827 0 0 1-.684.69 1.955 1.955 0 0 1-.992.251Z"/></g><path fill="#fff" d="M191.983 311.218c-.626 0-1.163-.158-1.611-.475-.446-.319-.79-.779-1.03-1.38-.239-.603-.358-1.329-.358-2.178.003-.849.123-1.571.361-2.167.241-.598.584-1.054 1.03-1.368.449-.314.985-.472 1.608-.472.624 0 1.16.158 1.608.472.449.314.792.77 1.03 1.368.241.598.362 1.321.362 2.167 0 .851-.121 1.579-.362 2.182-.238.6-.581 1.059-1.03 1.376-.446.317-.982.475-1.608.475Zm0-1.19c.487 0 .871-.239 1.152-.718.284-.482.426-1.19.426-2.125 0-.618-.065-1.138-.194-1.559-.129-.42-.312-.737-.547-.95a1.202 1.202 0 0 0-.837-.323c-.484 0-.866.241-1.148.722-.281.479-.423 1.182-.425 2.11-.003.621.059 1.143.186 1.566.129.423.312.743.547.958.236.213.516.319.84.319Zm4.822 1.125a.817.817 0 0 1-.593-.243.788.788 0 0 1-.243-.593.779.779 0 0 1 .243-.585.817.817 0 0 1 .593-.243c.223 0 .417.081.582.243a.801.801 0 0 1 .133 1.007.876.876 0 0 1-.304.304.786.786 0 0 1-.411.11Zm4.854.023c-.506 0-.96-.095-1.36-.285a2.425 2.425 0 0 1-.955-.79 2.095 2.095 0 0 1-.372-1.148h1.368c.026.319.164.58.415.783.251.2.552.3.904.3a1.364 1.364 0 0 0 1.247-.719c.124-.225.185-.482.183-.771a1.56 1.56 0 0 0-.187-.783 1.388 1.388 0 0 0-.52-.536 1.454 1.454 0 0 0-.761-.198 1.836 1.836 0 0 0-.688.129 1.424 1.424 0 0 0-.536.35l-1.273-.209.407-4.014h4.516v1.178h-3.349l-.225 2.064h.046c.144-.169.348-.31.612-.422a2.16 2.16 0 0 1 .867-.171c.471 0 .892.112 1.262.335.37.22.661.524.874.912.213.388.319.831.319 1.331 0 .514-.119.973-.357 1.376-.236.4-.564.716-.985.946-.418.228-.902.342-1.452.342Zm4.353-.106 3.311-6.553v-.054h-3.843v-1.178h5.302v1.205l-3.307 6.58h-1.463Zm8.608.106c-.565 0-1.067-.095-1.506-.285-.436-.19-.778-.45-1.026-.779a1.831 1.831 0 0 1-.365-1.129 1.88 1.88 0 0 1 .213-.901c.144-.274.34-.502.585-.684.249-.185.525-.303.829-.354v-.053a1.65 1.65 0 0 1-.973-.612 1.763 1.763 0 0 1-.365-1.114 1.77 1.77 0 0 1 .335-1.072c.225-.314.534-.561.927-.741a3.167 3.167 0 0 1 1.346-.274c.499 0 .944.092 1.334.274.393.18.702.427.927.741.228.315.342.672.342 1.072 0 .421-.125.792-.376 1.114a1.645 1.645 0 0 1-.962.612v.053c.305.051.578.169.822.354.245.182.44.41.585.684.147.274.22.574.22.901 0 .421-.124.797-.372 1.129-.248.329-.591.589-1.026.779-.434.19-.932.285-1.494.285Zm0-1.087c.291 0 .544-.049.76-.148.215-.102.383-.243.502-.426.119-.182.18-.393.182-.631a1.173 1.173 0 0 0-.194-.657 1.27 1.27 0 0 0-.513-.453 1.608 1.608 0 0 0-.737-.163c-.279 0-.527.054-.745.163-.218.109-.391.26-.517.453a1.15 1.15 0 0 0-.183.657 1.11 1.11 0 0 0 .175.631c.119.18.286.321.502.422.218.101.474.152.768.152Zm0-3.546c.238 0 .448-.049.631-.145a1.096 1.096 0 0 0 .6-1 1.112 1.112 0 0 0-.159-.585c-.104-.17-.249-.3-.434-.392a1.403 1.403 0 0 0-.638-.14c-.246 0-.463.047-.65.14-.185.092-.33.222-.434.392-.101.167-.15.362-.148.585a1.11 1.11 0 0 0 .152.597c.107.17.252.304.437.403.188.096.402.145.643.145Zm6.873 4.527v-7.785h5.063v1.182h-3.653v2.114h3.391v1.182h-3.391v2.125h3.684v1.182h-5.094Zm6.16-6.603v-1.182h6.211v1.182h-2.406v6.603h-1.399v-6.603h-2.406Zm7.409 6.603v-7.785h1.41v3.296h3.607v-3.296h1.414v7.785h-1.414v-3.307h-3.607v3.307h-1.41Z"/><path fill="#96A396" d="M183.473 325.408v-.513l1.928-2.11c.226-.247.412-.462.558-.644.147-.185.255-.358.325-.519.073-.164.109-.335.109-.513a.957.957 0 0 0-.148-.534.954.954 0 0 0-.4-.347 1.289 1.289 0 0 0-.57-.123c-.224 0-.42.047-.587.14a.958.958 0 0 0-.385.385 1.207 1.207 0 0 0-.134.581h-.673c0-.342.079-.642.237-.901.158-.258.372-.46.644-.604.274-.145.581-.217.921-.217.342 0 .645.072.909.217.265.144.472.339.622.584.15.246.225.518.225.819 0 .214-.039.424-.117.63-.076.203-.209.43-.399.681a11.98 11.98 0 0 1-.784.912l-1.311 1.403v.046h2.714v.627h-3.684Zm5.876-.799-.045.308a6.258 6.258 0 0 1-.149.696c-.064.247-.132.48-.202.698-.07.219-.128.393-.174.522h-.513l.097-.482c.04-.199.08-.423.119-.67.042-.245.076-.496.103-.752l.034-.32h.73Zm1.098-.399v-.581l2.566-4.06h.422v.901h-.285l-1.938 3.068v.045h3.455v.627h-4.22Zm2.749 1.198v-5.839h.673v5.839h-.673Zm4.444.08c-.43 0-.796-.117-1.098-.351-.302-.236-.533-.577-.693-1.024-.159-.448-.239-.99-.239-1.625 0-.631.08-1.169.239-1.616.162-.449.394-.791.696-1.026.304-.238.669-.357 1.095-.357.425 0 .789.119 1.092.357.304.235.535.577.695 1.026.162.447.242.985.242 1.616 0 .635-.079 1.177-.239 1.625-.16.447-.391.788-.693 1.024-.302.234-.668.351-1.097.351Zm0-.628c.425 0 .756-.205.992-.615.235-.411.353-.996.353-1.757 0-.505-.054-.936-.162-1.291-.107-.355-.261-.626-.462-.813a1.02 1.02 0 0 0-.721-.279c-.422 0-.752.208-.99.624-.237.415-.356 1.001-.356 1.759 0 .506.053.935.16 1.289.106.354.259.622.459.807.201.184.443.276.727.276Zm2.976-.65v-.581l2.566-4.06h.422v.901h-.285l-1.939 3.068v.045h3.455v.627h-4.219Zm2.748 1.198v-5.839h.673v5.839h-.673Zm3.28-.799-.045.308a6.258 6.258 0 0 1-.149.696c-.064.247-.132.48-.202.698-.07.219-.128.393-.174.522h-.513l.097-.482a18.202 18.202 0 0 0 .222-1.422l.034-.32h.73Zm3.039-5.12c.24.002.479.048.719.137.239.089.458.238.655.445.198.205.357.485.477.841.119.355.179.801.179 1.337 0 .519-.049.98-.148 1.383a3.153 3.153 0 0 1-.422 1.015 1.886 1.886 0 0 1-.667.627 1.818 1.818 0 0 1-.884.214 1.92 1.92 0 0 1-.875-.194 1.71 1.71 0 0 1-.627-.545 1.881 1.881 0 0 1-.311-.812h.695c.063.268.188.489.374.664.188.173.436.259.744.259.45 0 .806-.196 1.066-.59.263-.393.394-.949.394-1.668h-.046c-.106.16-.233.298-.379.414a1.669 1.669 0 0 1-1.058.362c-.334 0-.641-.083-.921-.248a1.888 1.888 0 0 1-.667-.687 2.009 2.009 0 0 1-.248-1.004c0-.357.08-.684.24-.98.161-.299.387-.536.678-.713.293-.177.637-.262 1.032-.257Zm0 .627c-.239 0-.455.06-.647.18-.19.118-.341.278-.453.479-.11.2-.166.421-.166.664 0 .244.054.465.16.665.108.197.256.355.442.473.188.116.402.174.641.174.181 0 .349-.035.505-.106a1.31 1.31 0 0 0 .408-.293c.118-.126.21-.267.276-.425a1.312 1.312 0 0 0-.065-1.141 1.317 1.317 0 0 0-.451-.484 1.161 1.161 0 0 0-.65-.186Zm3.151 5.292v-.513l1.927-2.11c.227-.247.413-.462.559-.644.147-.185.255-.358.325-.519.072-.164.109-.335.109-.513a.95.95 0 0 0-.548-.881 1.289 1.289 0 0 0-.57-.123c-.224 0-.42.047-.587.14a.952.952 0 0 0-.385.385 1.207 1.207 0 0 0-.134.581h-.673c0-.342.079-.642.237-.901.157-.258.372-.46.644-.604.274-.145.581-.217.921-.217.342 0 .645.072.909.217.264.144.472.339.622.584.15.246.225.518.225.819 0 .214-.039.424-.117.63-.076.203-.209.43-.399.681-.188.249-.45.553-.784.912l-1.311 1.403v.046h2.714v.627h-3.684Zm6.8.08a2.205 2.205 0 0 1-.719-.137 1.725 1.725 0 0 1-.655-.442c-.198-.209-.357-.492-.477-.847-.119-.357-.179-.806-.179-1.346 0-.517.048-.975.145-1.374.097-.401.238-.738.422-1.012a1.92 1.92 0 0 1 .667-.627c.263-.143.558-.214.887-.214.327 0 .618.066.872.197.257.129.466.31.627.542.162.231.267.499.314.801h-.696a1.284 1.284 0 0 0-.376-.653c-.186-.173-.433-.26-.741-.26-.452 0-.809.197-1.069.591-.259.393-.389.945-.391 1.656h.046a1.703 1.703 0 0 1 1.437-.776c.334 0 .64.084.918.251.277.166.5.395.667.687.167.291.251.625.251 1.001 0 .361-.081.692-.243.992a1.837 1.837 0 0 1-.681.713c-.291.175-.633.26-1.026.257Zm0-.628c.239 0 .454-.06.644-.179.192-.12.343-.281.453-.482.112-.202.168-.426.168-.673 0-.241-.054-.461-.162-.658a1.238 1.238 0 0 0-.442-.477 1.175 1.175 0 0 0-.639-.176c-.18 0-.348.036-.504.108-.156.07-.293.167-.411.291a1.382 1.382 0 0 0-.373.924c0 .231.054.448.162.65.111.201.261.363.451.487.192.124.409.185.653.185Zm10.061-5.291v5.839h-.684l-3.182-4.585h-.057v4.585h-.707v-5.839h.685l3.193 4.596H229v-4.596h.695Zm5.406 1.825a2.022 2.022 0 0 0-.248-.516 1.585 1.585 0 0 0-.362-.394 1.525 1.525 0 0 0-.473-.248 1.89 1.89 0 0 0-.582-.085c-.346 0-.66.089-.943.268a1.852 1.852 0 0 0-.676.789c-.167.348-.251.775-.251 1.28 0 .506.085.933.254 1.28.169.348.398.611.687.79.289.179.614.268.975.268.334 0 .629-.071.884-.214.256-.144.456-.348.598-.61.145-.264.217-.575.217-.932l.217.046h-1.756v-.628h2.223v.628c0 .48-.102.899-.308 1.254a2.129 2.129 0 0 1-.843.827 2.543 2.543 0 0 1-1.232.291c-.517 0-.971-.122-1.363-.365a2.474 2.474 0 0 1-.912-1.038c-.217-.449-.325-.981-.325-1.597 0-.461.062-.877.185-1.245a2.75 2.75 0 0 1 .531-.947c.228-.26.497-.46.809-.599a2.516 2.516 0 0 1 1.029-.208c.308 0 .595.047.861.14a2.309 2.309 0 0 1 1.243.992c.141.232.238.489.291.773h-.73Zm6.605-1.825v5.839h-.684l-3.182-4.585h-.057v4.585h-.707v-5.839h.684l3.194 4.596h.057v-4.596h.695Z"/><path fill="#1B211D" d="M11.604 339.112h241.514v50.746H11.604z"/><g clip-path="url(#j)"><path fill="#627EEA" d="M22.308 351.105h26.761v26.761H22.308z"/><path fill="#fff" d="M35.687 355.923v6.331l5.35 2.391-5.35-8.722Zm0 0-5.35 8.722 5.35-2.391v-6.331Zm0 12.825v4.302l5.354-7.409-5.354 3.107Zm0 4.302v-4.303l-5.35-3.106 5.35 7.409Z"/><path fill="#fff" d="m35.687 367.752 5.35-3.107-5.35-2.39v5.497Zm-5.351-3.107 5.351 3.107v-5.497l-5.35 2.39Z"/></g><path fill="#000501" d="M43.717 366.66a5.855 5.855 0 1 1-.002 11.71 5.855 5.855 0 0 1 .002-11.71Z"/><path stroke="#1B211D" stroke-width="1.004" d="M43.717 366.66a5.855 5.855 0 1 1-.002 11.71 5.855 5.855 0 0 1 .002-11.71Z"/><path fill="#fff" d="m45.668 372.235.028.002a.278.278 0 0 1 0 .555l-.028.001h-3.903a.279.279 0 0 1 0-.558h3.903Z"/><g clip-path="url(#k)"><path fill="#fff" d="M64.772 356.172a1.038 1.038 0 0 0-.449-.776c-.261-.185-.6-.277-1.019-.277-.294 0-.546.044-.756.133a1.12 1.12 0 0 0-.483.361.877.877 0 0 0-.06.943c.075.119.178.22.307.304.13.081.273.149.43.205.157.056.315.103.475.141l.73.182c.294.068.576.161.847.277.274.117.519.264.734.441.218.178.39.392.517.643s.19.545.19.882c0 .456-.117.858-.35 1.205-.233.344-.57.614-1.01.809-.44.193-.97.289-1.593.289-.606 0-1.132-.094-1.578-.281a2.352 2.352 0 0 1-1.042-.821c-.248-.36-.382-.798-.402-1.315h1.387c.02.271.104.496.25.676.148.18.34.315.575.403.238.089.504.133.798.133.307 0 .575-.045.806-.137a1.3 1.3 0 0 0 .547-.387.94.94 0 0 0 .202-.586.742.742 0 0 0-.179-.501 1.306 1.306 0 0 0-.49-.335 4.755 4.755 0 0 0-.73-.243l-.886-.228c-.64-.165-1.148-.415-1.52-.749-.37-.337-.555-.784-.555-1.342 0-.459.124-.86.372-1.205a2.459 2.459 0 0 1 1.023-.802c.43-.193.918-.289 1.463-.289.553 0 1.037.096 1.452.289.418.19.747.455.985.794.238.337.361.725.369 1.164H64.77Zm5.206 5.758c-.57 0-1.064-.125-1.482-.376a2.557 2.557 0 0 1-.973-1.053c-.228-.451-.342-.978-.342-1.581s.114-1.132.342-1.585a2.55 2.55 0 0 1 .973-1.057c.418-.251.912-.376 1.482-.376s1.065.125 1.483.376c.418.251.741.603.969 1.057.23.453.346.982.346 1.585s-.115 1.13-.346 1.581a2.53 2.53 0 0 1-.97 1.053c-.417.251-.912.376-1.482.376Zm.008-1.102c.309 0 .567-.085.775-.255.208-.172.363-.403.464-.691a2.84 2.84 0 0 0 .156-.966c0-.357-.052-.68-.156-.969a1.53 1.53 0 0 0-.464-.696 1.175 1.175 0 0 0-.775-.258c-.317 0-.58.086-.79.258a1.557 1.557 0 0 0-.468.696 2.913 2.913 0 0 0-.152.969c0 .355.05.677.152.966.104.288.26.519.467.691.21.17.474.255.79.255Zm5.334-6.796v7.784h-1.376v-7.784h1.376Zm3.582 7.887c-.46 0-.87-.118-1.232-.353-.362-.236-.649-.578-.859-1.027-.21-.448-.316-.993-.316-1.634 0-.649.107-1.196.32-1.642.215-.449.505-.787.87-1.015a2.234 2.234 0 0 1 1.22-.346c.343 0 .624.058.844.175.22.114.396.252.525.414.13.16.23.31.3.452h.057v-2.911h1.38v7.784h-1.353v-.919h-.084a2.392 2.392 0 0 1-.308.452 1.704 1.704 0 0 1-.532.403c-.22.111-.498.167-.832.167Zm.383-1.129c.292 0 .54-.078.746-.236.205-.159.36-.381.467-.665.107-.284.16-.614.16-.992s-.053-.706-.16-.984a1.397 1.397 0 0 0-.464-.65 1.196 1.196 0 0 0-.749-.232c-.306 0-.562.08-.767.239-.206.16-.36.38-.464.662a2.773 2.773 0 0 0-.156.965c0 .365.052.691.156.977.106.284.262.508.468.673.207.162.462.243.763.243Zm6.908 1.026v-7.784h5.064v1.182h-3.653v2.113h3.39v1.182h-3.39v2.125h3.683v1.182h-5.094Zm9.357-5.838v1.064h-3.356v-1.064h3.356Zm-2.528-1.399h1.376v5.481c0 .185.028.327.084.426a.456.456 0 0 0 .228.198.886.886 0 0 0 .312.053c.086 0 .164-.006.235-.019.074-.013.13-.024.168-.034l.231 1.075a2.612 2.612 0 0 1-.81.137 2.246 2.246 0 0 1-.93-.156 1.445 1.445 0 0 1-.658-.539c-.16-.244-.238-.548-.236-.913v-5.709Zm5.18 3.816v3.421h-1.376v-7.784h1.346v2.938h.068c.137-.33.349-.589.635-.779.289-.193.656-.289 1.103-.289.405 0 .758.085 1.06.254.302.17.535.419.699.745.168.327.251.726.251 1.198v3.717h-1.376v-3.504c0-.393-.101-.698-.304-.916-.2-.221-.481-.331-.844-.331-.243 0-.46.053-.653.16a1.11 1.11 0 0 0-.45.452 1.502 1.502 0 0 0-.159.718Zm7.774 3.535c-.586 0-1.091-.121-1.517-.364a2.472 2.472 0 0 1-.977-1.042c-.228-.451-.342-.982-.342-1.593 0-.6.114-1.127.342-1.581.231-.456.553-.811.966-1.064.413-.256.898-.384 1.456-.384.359 0 .699.058 1.018.175a2.3 2.3 0 0 1 .852.532c.248.24.443.547.585.92.142.37.213.811.213 1.322v.422h-4.786v-.927h3.467a1.488 1.488 0 0 0-.171-.703 1.242 1.242 0 0 0-.468-.491 1.312 1.312 0 0 0-.691-.178 1.34 1.34 0 0 0-.742.205 1.413 1.413 0 0 0-.498.532 1.534 1.534 0 0 0-.178.719v.809c0 .34.062.631.186.874.124.241.298.426.521.555.223.127.484.19.783.19.2 0 .381-.027.543-.083.163-.058.303-.143.422-.255.119-.111.209-.249.27-.414l1.285.144c-.081.34-.236.636-.464.89a2.25 2.25 0 0 1-.866.585 3.324 3.324 0 0 1-1.209.205Zm3.76-.114v-5.838h1.334v.973h.061c.107-.337.289-.597.548-.779.261-.185.558-.278.893-.278.076 0 .161.004.255.012.096.005.176.013.239.026v1.266a1.456 1.456 0 0 0-.277-.053 2.533 2.533 0 0 0-.362-.027c-.25 0-.476.055-.676.164a1.19 1.19 0 0 0-.468.444c-.114.19-.171.41-.171.658v3.432h-1.376Zm6.589.114c-.586 0-1.091-.121-1.517-.364a2.472 2.472 0 0 1-.977-1.042c-.228-.451-.342-.982-.342-1.593 0-.6.114-1.127.342-1.581.231-.456.552-.811.966-1.064.413-.256.898-.384 1.455-.384.36 0 .7.058 1.019.175a2.3 2.3 0 0 1 .852.532c.248.24.443.547.585.92.142.37.213.811.213 1.322v.422h-4.786v-.927h3.467a1.488 1.488 0 0 0-.171-.703 1.25 1.25 0 0 0-.468-.491 1.313 1.313 0 0 0-.692-.178 1.34 1.34 0 0 0-.741.205 1.413 1.413 0 0 0-.498.532 1.534 1.534 0 0 0-.178.719v.809c0 .34.062.631.186.874.124.241.298.426.521.555.223.127.484.19.783.19.2 0 .381-.027.543-.083.162-.058.303-.143.422-.255.119-.111.209-.249.27-.414l1.285.144c-.081.34-.236.636-.464.89a2.246 2.246 0 0 1-.867.585 3.314 3.314 0 0 1-1.208.205Zm7.481-2.569v-3.383h1.376v5.838h-1.334v-1.037h-.061a1.748 1.748 0 0 1-.65.802c-.299.208-.667.311-1.106.311-.382 0-.721-.084-1.015-.254a1.778 1.778 0 0 1-.684-.749c-.165-.33-.247-.727-.247-1.194v-3.717h1.376v3.504c0 .37.101.664.304.882.203.218.469.327.798.327.203 0 .399-.049.59-.148.19-.099.345-.246.467-.441.124-.198.186-.445.186-.741Zm2.791 2.455v-5.838h1.316v.992h.068c.122-.335.323-.596.604-.783.282-.19.617-.285 1.008-.285.395 0 .728.096.999.289.274.19.467.449.578.779h.061c.129-.325.347-.583.654-.776.309-.195.675-.292 1.098-.292.538 0 .976.17 1.316.509.339.34.509.835.509 1.486v3.919h-1.38v-3.706c0-.362-.096-.627-.289-.794a1.029 1.029 0 0 0-.707-.255c-.332 0-.591.104-.779.312-.185.205-.277.472-.277.802v3.641h-1.35v-3.763c0-.301-.091-.542-.274-.722-.18-.18-.415-.27-.707-.27a1 1 0 0 0-.539.152c-.163.099-.292.24-.388.422a1.32 1.32 0 0 0-.145.631v3.55h-1.376Z"/><path fill="#96A396" d="M60.72 376.154h-.742l2.144-5.838h.73l2.144 5.838h-.741l-1.745-4.915h-.046l-1.745 4.915Zm.273-2.28h2.988v.627h-2.988v-.627Zm4.821 3.922v-6.021h.65v.696h.08c.05-.076.118-.173.205-.291.09-.12.217-.226.382-.319.167-.095.394-.143.679-.143.368 0 .693.092.975.277.281.184.5.446.658.784.158.338.237.737.237 1.197 0 .464-.079.866-.237 1.206a1.868 1.868 0 0 1-.656.787 1.715 1.715 0 0 1-.966.277c-.281 0-.506-.047-.676-.14a1.258 1.258 0 0 1-.39-.322 4.345 4.345 0 0 1-.211-.303h-.057v2.315h-.673Zm.661-3.831c0 .331.049.622.146.875.097.251.238.448.425.59a1.1 1.1 0 0 0 .684.211c.281 0 .516-.074.704-.222.19-.15.333-.352.428-.605a2.37 2.37 0 0 0 .145-.849c0-.308-.047-.586-.142-.833a1.288 1.288 0 0 0-.425-.59c-.188-.146-.425-.219-.71-.219a1.12 1.12 0 0 0-.69.208 1.25 1.25 0 0 0-.422.576 2.366 2.366 0 0 0-.143.858Zm4.231 2.189v-4.379h.65v.662h.046c.08-.217.224-.393.433-.528.21-.135.445-.202.707-.202a7.084 7.084 0 0 1 .354.011v.684a2.315 2.315 0 0 0-.157-.025 1.577 1.577 0 0 0-.254-.02c-.213 0-.403.045-.57.134a.983.983 0 0 0-.536.892v2.771h-.673Zm7.286-5.838v5.838h-.707v-5.097h-.034l-1.425.946v-.718l1.46-.969h.706Zm3.732 0v5.838h-.707v-5.097h-.034l-1.425.946v-.718l1.46-.969h.706Zm2.35 5.04-.046.308a6.248 6.248 0 0 1-.148.696 17.446 17.446 0 0 1-.377 1.22h-.513l.097-.482a18.633 18.633 0 0 0 .222-1.423l.035-.319h.73Zm3.493.798v-.513l1.927-2.11c.226-.247.412-.461.558-.644a2.33 2.33 0 0 0 .325-.519 1.24 1.24 0 0 0 .109-.513.948.948 0 0 0-.547-.881 1.29 1.29 0 0 0-.57-.122c-.225 0-.42.046-.588.139a.969.969 0 0 0-.385.385 1.2 1.2 0 0 0-.134.582h-.673c0-.342.08-.643.237-.901.158-.259.372-.46.644-.605.274-.144.58-.216.921-.216.342 0 .645.072.91.216.264.145.47.34.621.585.15.245.225.518.225.818 0 .215-.039.425-.117.63a2.777 2.777 0 0 1-.399.682c-.188.249-.45.553-.784.912l-1.311 1.402v.046h2.714v.627h-3.683Zm6.765.08c-.43 0-.796-.117-1.098-.351-.302-.235-.533-.576-.693-1.023-.16-.449-.24-.99-.24-1.625 0-.631.08-1.17.24-1.617.162-.448.394-.79.696-1.026a1.728 1.728 0 0 1 1.095-.356c.425 0 .79.119 1.092.356.304.236.536.578.695 1.026.162.447.243.986.243 1.617 0 .635-.08 1.176-.24 1.625-.16.447-.39.788-.693 1.023-.302.234-.668.351-1.097.351Zm0-.627c.425 0 .756-.205.992-.616.236-.41.353-.996.353-1.756 0-.506-.054-.936-.162-1.292-.107-.355-.26-.626-.462-.812a1.02 1.02 0 0 0-.721-.279c-.422 0-.752.208-.99.624-.237.414-.356 1.001-.356 1.759 0 .506.053.935.16 1.289.106.353.26.622.459.806.201.185.444.277.727.277Zm3.113.547v-.513l1.927-2.11c.226-.247.413-.461.559-.644.146-.184.255-.357.325-.519.072-.163.108-.334.108-.513a.946.946 0 0 0-.547-.881 1.29 1.29 0 0 0-.57-.122c-.225 0-.42.046-.588.139a.969.969 0 0 0-.385.385 1.21 1.21 0 0 0-.133.582h-.673a1.7 1.7 0 0 1 .236-.901c.158-.259.373-.46.645-.605.273-.144.58-.216.92-.216.343 0 .646.072.91.216.264.145.471.34.621.585.151.245.226.518.226.818 0 .215-.039.425-.117.63a2.777 2.777 0 0 1-.399.682c-.189.249-.45.553-.784.912l-1.312 1.402v.046h2.714v.627h-3.683Zm6.685.08c-.334 0-.635-.066-.903-.199a1.684 1.684 0 0 1-.645-.548 1.494 1.494 0 0 1-.265-.792h.684a.939.939 0 0 0 .36.655c.214.171.471.257.769.257a1.19 1.19 0 0 0 1.081-.63c.108-.198.162-.421.162-.67 0-.255-.056-.482-.168-.681a1.23 1.23 0 0 0-.456-.477 1.288 1.288 0 0 0-.664-.176 1.828 1.828 0 0 0-.551.082 1.527 1.527 0 0 0-.464.214l-.662-.08.354-2.873h3.033v.627h-2.44l-.205 1.722h.034a1.705 1.705 0 0 1 1.015-.331 1.795 1.795 0 0 1 1.616.952c.162.295.243.631.243 1.01 0 .372-.084.705-.251.997a1.837 1.837 0 0 1-.685.69c-.29.167-.621.251-.992.251Z"/></g><path fill="#fff" d="M200.272 354.032v7.784h-1.41v-6.412h-.046l-1.82 1.163v-1.292l1.934-1.243h1.342Zm2.411 7.868a.817.817 0 0 1-.593-.243.788.788 0 0 1-.243-.593.782.782 0 0 1 .243-.586.817.817 0 0 1 .593-.243c.223 0 .417.081.582.243a.8.8 0 0 1 .133 1.008.885.885 0 0 1-.304.304.796.796 0 0 1-.411.11Zm4.854.023c-.506 0-.96-.095-1.36-.285a2.427 2.427 0 0 1-.955-.791 2.09 2.09 0 0 1-.372-1.148h1.368c.026.319.164.58.415.783.251.2.552.3.904.3.277 0 .522-.063.738-.19.215-.126.385-.302.509-.528.124-.225.185-.483.183-.772a1.56 1.56 0 0 0-.187-.783 1.395 1.395 0 0 0-.52-.536 1.462 1.462 0 0 0-.761-.197 1.798 1.798 0 0 0-.688.129 1.412 1.412 0 0 0-.536.35l-1.273-.209.407-4.014h4.516v1.178h-3.349l-.225 2.064h.046c.144-.17.348-.31.612-.422a2.16 2.16 0 0 1 .867-.171 2.37 2.37 0 0 1 2.136 1.247c.213.387.319.831.319 1.33 0 .515-.119.973-.357 1.376a2.529 2.529 0 0 1-.985.947c-.418.228-.902.342-1.452.342Zm6.945.042c-.626 0-1.163-.159-1.612-.475-.446-.32-.789-.78-1.03-1.38-.238-.603-.357-1.329-.357-2.178.003-.849.123-1.572.361-2.167.241-.598.584-1.054 1.03-1.369.449-.314.985-.471 1.608-.471.624 0 1.16.157 1.608.471.449.315.792.771 1.03 1.369.241.598.361 1.32.361 2.167 0 .851-.12 1.578-.361 2.181-.238.601-.581 1.06-1.03 1.377-.446.316-.982.475-1.608.475Zm0-1.19c.487 0 .871-.24 1.152-.719.284-.481.426-1.189.426-2.124 0-.619-.065-1.138-.194-1.559-.129-.421-.312-.737-.548-.95a1.194 1.194 0 0 0-.836-.323c-.484 0-.866.24-1.148.722-.281.479-.423 1.182-.426 2.11-.002.62.06 1.142.187 1.566.129.423.311.742.547.958.236.212.516.319.84.319Zm6.993 1.041v-7.784h5.064v1.182h-3.653v2.113h3.39v1.182h-3.39v2.125h3.683v1.182h-5.094Zm6.16-6.602v-1.182h6.212v1.182h-2.407v6.602h-1.398v-6.602h-2.407Zm7.409 6.602v-7.784h1.41v3.295h3.608v-3.295h1.414v7.784h-1.414v-3.307h-3.608v3.307h-1.41Z"/><path fill="#96A396" d="M188.662 370.316v5.838h-.707v-5.097h-.034l-1.426.946v-.718l1.46-.969h.707Zm2.349 5.04-.045.308a6.306 6.306 0 0 1-.149.696c-.064.247-.132.479-.202.698-.07.219-.128.393-.174.522h-.513l.097-.482c.04-.2.08-.423.12-.67.041-.245.076-.496.102-.753l.034-.319h.73Zm2.936.878c-.43 0-.795-.117-1.098-.351-.302-.235-.533-.576-.692-1.023-.16-.449-.24-.99-.24-1.625 0-.631.08-1.17.24-1.617.161-.448.393-.79.695-1.026.304-.237.669-.356 1.095-.356.426 0 .79.119 1.092.356.304.236.536.578.695 1.026.162.447.243.986.243 1.617 0 .635-.08 1.176-.24 1.625-.159.447-.39.788-.692 1.023-.303.234-.669.351-1.098.351Zm0-.627c.426 0 .756-.205.992-.616.236-.41.354-.996.354-1.756 0-.506-.055-.936-.163-1.292-.106-.355-.26-.626-.462-.812a1.02 1.02 0 0 0-.721-.279c-.422 0-.752.208-.989.624-.238.414-.357 1.001-.357 1.759 0 .506.054.935.16 1.289.106.353.259.622.459.806.201.185.444.277.727.277Zm5.166-5.291v5.838h-.707v-5.097h-.034l-1.426.946v-.718l1.46-.969h.707Zm3.583 5.918c-.429 0-.795-.117-1.097-.351-.302-.235-.533-.576-.693-1.023-.16-.449-.239-.99-.239-1.625 0-.631.079-1.17.239-1.617.162-.448.393-.79.696-1.026a1.727 1.727 0 0 1 1.094-.356c.426 0 .79.119 1.092.356.304.236.536.578.696 1.026.161.447.242.986.242 1.617 0 .635-.08 1.176-.239 1.625-.16.447-.391.788-.693 1.023-.302.234-.668.351-1.098.351Zm0-.627c.426 0 .757-.205.993-.616.235-.41.353-.996.353-1.756 0-.506-.054-.936-.162-1.292-.107-.355-.261-.626-.462-.812-.2-.186-.44-.279-.722-.279-.422 0-.751.208-.989.624-.237.414-.356 1.001-.356 1.759 0 .506.053.935.159 1.289.107.353.26.622.459.806.202.185.444.277.727.277Zm3.925-.251-.046.308a6.29 6.29 0 0 1-.148.696c-.065.247-.132.479-.203.698-.07.219-.128.393-.173.522h-.514l.097-.482a18.59 18.59 0 0 0 .223-1.423l.034-.319h.73Zm2.935.878c-.429 0-.795-.117-1.097-.351-.302-.235-.533-.576-.693-1.023-.16-.449-.239-.99-.239-1.625 0-.631.079-1.17.239-1.617.162-.448.393-.79.696-1.026a1.727 1.727 0 0 1 1.094-.356c.426 0 .79.119 1.092.356.304.236.536.578.696 1.026.161.447.242.986.242 1.617 0 .635-.08 1.176-.239 1.625-.16.447-.391.788-.693 1.023-.302.234-.668.351-1.098.351Zm0-.627c.426 0 .757-.205.993-.616.235-.41.353-.996.353-1.756 0-.506-.054-.936-.162-1.292-.107-.355-.261-.626-.462-.812-.2-.186-.44-.279-.722-.279-.422 0-.751.208-.989.624-.237.414-.356 1.001-.356 1.759 0 .506.053.935.159 1.289.107.353.26.622.459.806.202.185.444.277.727.277Zm5.018.627c-.43 0-.795-.117-1.098-.351-.302-.235-.533-.576-.692-1.023-.16-.449-.24-.99-.24-1.625 0-.631.08-1.17.24-1.617.161-.448.393-.79.695-1.026.304-.237.669-.356 1.095-.356.426 0 .79.119 1.092.356.304.236.536.578.696 1.026.161.447.242.986.242 1.617 0 .635-.08 1.176-.24 1.625-.159.447-.39.788-.692 1.023-.303.234-.668.351-1.098.351Zm0-.627c.426 0 .756-.205.992-.616.236-.41.354-.996.354-1.756 0-.506-.055-.936-.163-1.292-.106-.355-.26-.626-.462-.812a1.02 1.02 0 0 0-.721-.279c-.422 0-.752.208-.989.624-.238.414-.357 1.001-.357 1.759 0 .506.054.935.16 1.289.106.353.259.622.459.806.202.185.444.277.727.277Zm5.018.627c-.43 0-.796-.117-1.098-.351-.302-.235-.533-.576-.693-1.023-.159-.449-.239-.99-.239-1.625 0-.631.08-1.17.239-1.617.162-.448.394-.79.696-1.026.304-.237.669-.356 1.095-.356.425 0 .789.119 1.092.356.304.236.535.578.695 1.026.162.447.242.986.242 1.617 0 .635-.079 1.176-.239 1.625-.16.447-.391.788-.693 1.023-.302.234-.668.351-1.097.351Zm0-.627c.425 0 .756-.205.992-.616.235-.41.353-.996.353-1.756 0-.506-.054-.936-.162-1.292-.107-.355-.261-.626-.462-.812a1.02 1.02 0 0 0-.721-.279c-.422 0-.752.208-.99.624-.237.414-.356 1.001-.356 1.759 0 .506.053.935.16 1.289.106.353.259.622.459.806.201.185.443.277.727.277Zm10.103-5.291v5.838h-.684l-3.182-4.584h-.057v4.584h-.707v-5.838h.685l3.193 4.595H229v-4.595h.695Zm5.406 1.824a2.022 2.022 0 0 0-.248-.516 1.563 1.563 0 0 0-.835-.641 1.89 1.89 0 0 0-.582-.086c-.346 0-.66.09-.943.268a1.854 1.854 0 0 0-.676.79c-.167.348-.251.774-.251 1.28s.085.932.254 1.28c.169.348.398.611.687.79.289.178.614.268.975.268.334 0 .629-.072.884-.214a1.52 1.52 0 0 0 .598-.61c.145-.264.217-.575.217-.932l.217.045h-1.756v-.627h2.223v.627c0 .481-.102.899-.308 1.255a2.12 2.12 0 0 1-.843.826 2.543 2.543 0 0 1-1.232.291c-.517 0-.971-.122-1.363-.365a2.462 2.462 0 0 1-.912-1.038c-.217-.448-.325-.98-.325-1.596 0-.462.062-.877.185-1.246.126-.371.302-.686.531-.946a2.31 2.31 0 0 1 .809-.599 2.5 2.5 0 0 1 1.029-.208c.308 0 .595.046.861.139.268.092.507.222.716.391a2.272 2.272 0 0 1 .818 1.374h-.73Zm6.605-1.824v5.838h-.684l-3.182-4.584h-.057v4.584h-.707v-5.838h.684l3.194 4.595h.057v-4.595h.695Z"/></g></g><defs><clipPath id="a"><rect width="262.923" height="570" x=".899" fill="#fff" rx="32"/></clipPath><clipPath id="b"><rect width="26.761" height="26.76" x="11.604" y="29.437" fill="#fff" rx="13.38"/></clipPath><clipPath id="c"><path fill="#fff" d="M218.883 134.221c0-6.011 4.873-10.883 10.883-10.883h15.699c6.011 0 10.883 4.872 10.883 10.883v15.698c0 6.011-4.872 10.883-10.883 10.883h-15.699c-6.01 0-10.883-4.872-10.883-10.883v-15.698Z"/></clipPath><clipPath id="d"><path fill="#fff" d="M11.604 209.915c0-5.912 4.792-10.704 10.704-10.704h220.106c5.912 0 10.704 4.792 10.704 10.704v29.338c0 5.912-4.792 10.704-10.704 10.704H22.308c-5.912 0-10.704-4.792-10.704-10.704v-29.338Z"/></clipPath><clipPath id="e"><rect width="26.761" height="26.761" x="22.308" y="211.204" fill="#fff" rx="13.38"/></clipPath><clipPath id="f"><path fill="#fff" d="M59.773 209.915h102.359v29.338H59.772z"/></clipPath><clipPath id="g"><path fill="#fff" d="M11.604 299.07c0-5.912 4.792-10.704 10.704-10.704h220.106c5.912 0 10.704 4.792 10.704 10.704v80.084c0 5.912-4.792 10.705-10.704 10.705H22.308c-5.912 0-10.704-4.793-10.704-10.705V299.07Z"/></clipPath><clipPath id="h"><rect width="26.761" height="26.761" x="22.308" y="300.359" fill="#fff" rx="13.38"/></clipPath><clipPath id="i"><path fill="#fff" d="M59.773 299.07h102.359v29.338H59.772z"/></clipPath><clipPath id="j"><rect width="26.761" height="26.761" x="22.308" y="351.105" fill="#fff" rx="13.38"/></clipPath><clipPath id="k"><path fill="#fff" d="M59.773 349.816h102.359v29.338H59.772z"/></clipPath></defs></svg>