<svg xmlns="http://www.w3.org/2000/svg" width="1743" height="590" fill="none"><path fill="#FBFBFB" d="M48 .5h1694.5v589H48C21.767 589.5.5 568.234.5 542V48C.5 21.767 21.767.5 48 .5z"/><path stroke="#E6E6E6" d="M48 .5h1694.5v589H48C21.767 589.5.5 568.234.5 542V48C.5 21.767 21.767.5 48 .5z"/><rect width="176" height="118" x="36" y="268" fill="#F1E5FF" stroke="#8638E5" stroke-linecap="round" stroke-miterlimit="0" stroke-width="4" rx="6"/><path fill="#8638E5" d="M105.592 321.364h1.994l3.04 5.289h.125l3.04-5.289h1.994l-4.221 7.068V333h-1.75v-4.568l-4.222-7.068zM117.084 333v-8.727h1.699V333h-1.699zm.858-10.074a1.08 1.08 0 0 1-.762-.295.963.963 0 0 1-.312-.716c0-.281.104-.519.312-.716.212-.201.466-.301.762-.301.295 0 .547.1.755.301a.94.94 0 0 1 .318.716.954.954 0 0 1-.318.716c-.208.197-.46.295-.755.295zm6.711 10.25c-.859 0-1.6-.184-2.221-.551a3.731 3.731 0 0 1-1.432-1.563c-.333-.674-.5-1.464-.5-2.369 0-.894.167-1.682.5-2.363a3.886 3.886 0 0 1 1.409-1.597c.606-.383 1.314-.574 2.125-.574.493 0 .97.082 1.432.244.462.163.877.419 1.244.767.368.349.657.802.87 1.358.212.553.318 1.226.318 2.017v.603h-6.938v-1.273h5.273c0-.447-.091-.843-.273-1.187a2.052 2.052 0 0 0-.767-.824c-.326-.201-.708-.302-1.148-.302a2.22 2.22 0 0 0-1.25.353 2.364 2.364 0 0 0-.818.909 2.626 2.626 0 0 0-.284 1.21v.994c0 .584.102 1.08.307 1.489.208.409.498.722.869.938.372.212.805.318 1.301.318a2.7 2.7 0 0 0 .881-.137c.265-.094.494-.234.688-.42.193-.186.341-.415.443-.688l1.608.29c-.129.474-.36.888-.693 1.244-.33.353-.745.627-1.245.824-.496.194-1.062.29-1.699.29zm7.153-11.812V333h-1.699v-11.636h1.699zm5.376 11.806c-.704 0-1.333-.179-1.886-.539-.55-.364-.981-.881-1.296-1.551-.31-.675-.466-1.483-.466-2.427 0-.943.158-1.75.472-2.42.318-.671.754-1.184 1.307-1.54a3.398 3.398 0 0 1 1.88-.534c.542 0 .978.091 1.307.273.334.178.591.386.773.625.186.238.33.449.432.631h.102v-4.324h1.699V333h-1.659v-1.358h-.142c-.102.186-.25.398-.443.636-.19.239-.451.447-.784.625-.334.178-.766.267-1.296.267zm.375-1.448c.489 0 .902-.129 1.239-.387.341-.261.598-.623.772-1.085.178-.462.267-1 .267-1.614 0-.606-.087-1.136-.261-1.591-.174-.454-.43-.808-.767-1.062s-.754-.381-1.25-.381c-.511 0-.937.133-1.278.398-.341.265-.599.627-.773 1.085a4.418 4.418 0 0 0-.256 1.551c0 .584.087 1.108.262 1.574.174.466.431.835.772 1.108.345.269.769.404 1.273.404z"/><rect width="176" height="105" x="581" y="437" fill="#F1E5FF" stroke="#8638E5" stroke-linecap="round" stroke-miterlimit="0" stroke-width="4" rx="6"/><path fill="#8638E5" d="M601.847 484v-11.636h7.295v1.511h-5.54v3.545h5.16v1.506h-5.16v3.563h5.608V484h-7.363zm11.027-5.182V484h-1.699v-8.727h1.631v1.42h.108c.2-.462.515-.833.943-1.113.432-.281.975-.421 1.631-.421.594 0 1.115.125 1.562.375.447.246.794.614 1.04 1.102.246.489.369 1.093.369 1.813V484h-1.699v-5.347c0-.632-.164-1.126-.494-1.483-.33-.359-.782-.539-1.358-.539-.394 0-.744.085-1.051.255a1.846 1.846 0 0 0-.722.75c-.174.326-.261.72-.261 1.182zm11.761-3.545v1.363h-4.767v-1.363h4.767zm-3.488-2.091h1.699v8.256c0 .329.049.577.147.744a.776.776 0 0 0 .381.335c.159.057.331.085.517.085.136 0 .256-.009.358-.028.102-.019.182-.034.239-.046l.307 1.404a2.768 2.768 0 0 1-.421.113 3.314 3.314 0 0 1-.682.069 2.997 2.997 0 0 1-1.25-.239 2.14 2.14 0 0 1-.937-.773c-.239-.348-.358-.786-.358-1.312v-8.608zm8.859 10.994c-.86 0-1.6-.184-2.221-.551a3.731 3.731 0 0 1-1.432-1.563c-.333-.674-.5-1.464-.5-2.369 0-.894.167-1.682.5-2.363a3.886 3.886 0 0 1 1.409-1.597c.606-.383 1.314-.574 2.125-.574a4.3 4.3 0 0 1 1.432.244c.462.163.877.419 1.244.767.368.349.657.802.869 1.358.213.553.319 1.226.319 2.017v.603h-6.938v-1.273h5.273c0-.447-.091-.843-.273-1.187a2.052 2.052 0 0 0-.767-.824c-.326-.201-.708-.302-1.148-.302-.477 0-.894.118-1.25.353a2.364 2.364 0 0 0-.818.909 2.626 2.626 0 0 0-.284 1.21v.994c0 .584.102 1.08.307 1.489.208.409.498.722.869.938.371.212.805.318 1.301.318a2.7 2.7 0 0 0 .881-.137c.265-.094.494-.234.688-.42a1.84 1.84 0 0 0 .443-.688l1.608.29c-.129.474-.36.888-.694 1.244a3.346 3.346 0 0 1-1.244.824c-.496.194-1.062.29-1.699.29zm5.454-.176v-8.727h1.642v1.386h.091a2.11 2.11 0 0 1 .84-1.108 2.407 2.407 0 0 1 1.375-.409c.106 0 .231.004.375.011.148.008.264.017.347.029v1.625a3.035 3.035 0 0 0-.364-.063 3.528 3.528 0 0 0-.522-.039c-.402 0-.76.085-1.074.255a1.904 1.904 0 0 0-1.012 1.71V484h-1.698zm16.562-6.597-1.539.273a1.838 1.838 0 0 0-.307-.562 1.528 1.528 0 0 0-.557-.438c-.235-.114-.528-.17-.881-.17-.481 0-.882.108-1.204.324-.322.212-.483.486-.483.823 0 .292.108.527.324.705.216.178.564.324 1.045.437l1.386.319c.803.185 1.402.471 1.796.858.394.386.591.888.591 1.505 0 .523-.152.989-.455 1.398-.299.405-.718.723-1.255.955-.535.231-1.154.346-1.858.346-.978 0-1.775-.208-2.392-.625-.618-.42-.997-1.017-1.137-1.79l1.642-.25c.102.428.313.752.631.972.318.216.733.324 1.244.324.557 0 1.002-.116 1.335-.347.334-.235.5-.521.5-.858a.892.892 0 0 0-.306-.687c-.201-.186-.51-.326-.927-.421l-1.477-.324c-.814-.185-1.416-.481-1.807-.886-.386-.405-.579-.918-.579-1.54a2.2 2.2 0 0 1 .432-1.352c.288-.386.685-.687 1.193-.903.507-.22 1.089-.33 1.744-.33.943 0 1.686.205 2.227.614.542.405.9.949 1.074 1.63zm4.402 6.79a3.557 3.557 0 0 1-1.5-.307 2.52 2.52 0 0 1-1.062-.903c-.258-.394-.386-.877-.386-1.449 0-.492.094-.898.284-1.216.189-.318.445-.57.767-.756a4.042 4.042 0 0 1 1.079-.42 10.62 10.62 0 0 1 1.216-.216l1.273-.148c.326-.041.562-.108.71-.198.148-.091.222-.239.222-.444v-.039c0-.497-.14-.881-.421-1.154-.276-.273-.689-.409-1.238-.409-.572 0-1.023.127-1.353.381-.325.25-.551.528-.676.835l-1.596-.364c.189-.53.466-.958.829-1.284.368-.329.79-.568 1.267-.716a4.96 4.96 0 0 1 1.506-.227c.348 0 .718.042 1.108.125.394.08.761.227 1.102.443.345.216.627.525.847.926.219.398.329.915.329 1.552V484h-1.659v-1.193h-.068c-.11.22-.275.435-.494.648-.22.212-.502.388-.847.528s-.757.21-1.239.21zm.37-1.363c.469 0 .871-.093 1.204-.279.337-.185.593-.428.767-.727.178-.303.267-.627.267-.972v-1.125c-.06.061-.178.118-.352.171-.17.049-.365.093-.585.13-.22.034-.434.067-.642.097l-.523.068a4.255 4.255 0 0 0-.903.21 1.555 1.555 0 0 0-.648.427c-.159.181-.239.424-.239.727 0 .42.156.738.466.954.311.212.707.319 1.188.319zm13.177-7.557L666.807 484h-1.819l-3.17-8.727h1.824l2.21 6.716h.091l2.205-6.716h1.823zm1.421 8.727v-8.727h1.699V484h-1.699zm.858-10.074a1.08 1.08 0 0 1-.761-.295.96.96 0 0 1-.313-.716c0-.281.104-.519.313-.716.212-.201.466-.301.761-.301s.547.1.756.301a.94.94 0 0 1 .318.716.954.954 0 0 1-.318.716 1.062 1.062 0 0 1-.756.295zm4.649 4.892V484H675.2v-8.727h1.631v1.42h.108c.201-.462.515-.833.943-1.113.432-.281.976-.421 1.631-.421.595 0 1.115.125 1.562.375.447.246.794.614 1.04 1.102.246.489.37 1.093.37 1.813V484h-1.699v-5.347c0-.632-.165-1.126-.495-1.483-.329-.359-.782-.539-1.358-.539-.394 0-.744.085-1.051.255a1.844 1.844 0 0 0-.721.75c-.175.326-.262.72-.262 1.182zm11.347 8.637c-.693 0-1.29-.091-1.79-.273-.496-.182-.901-.423-1.216-.722a3.028 3.028 0 0 1-.704-.983l1.46-.602c.102.167.239.343.409.528.174.19.409.351.705.483.299.133.683.199 1.153.199.644 0 1.176-.157 1.597-.471.42-.311.63-.807.63-1.489v-1.716h-.108c-.102.186-.25.392-.443.619a2.377 2.377 0 0 1-.784.591c-.333.167-.767.25-1.301.25a3.637 3.637 0 0 1-1.864-.483c-.549-.325-.985-.805-1.306-1.437-.319-.637-.478-1.419-.478-2.347 0-.928.157-1.723.472-2.386.318-.663.754-1.171 1.307-1.523a3.398 3.398 0 0 1 1.88-.534c.542 0 .979.091 1.313.273.333.178.593.386.778.625.19.238.335.449.438.631h.125v-1.415h1.665v8.92c0 .75-.175 1.366-.523 1.847-.349.481-.82.837-1.415 1.068-.591.231-1.258.347-2 .347zm-.017-4.995c.489 0 .901-.113 1.239-.341.341-.231.598-.56.772-.988.178-.432.267-.949.267-1.551 0-.588-.087-1.105-.261-1.552-.174-.447-.43-.795-.767-1.045-.337-.254-.754-.381-1.25-.381-.511 0-.938.133-1.278.398a2.393 2.393 0 0 0-.773 1.068 4.237 4.237 0 0 0-.256 1.512c0 .572.087 1.073.262 1.505.174.432.431.769.772 1.012.345.242.769.363 1.273.363zm12.597-5.057-1.54.273a1.817 1.817 0 0 0-.307-.562 1.52 1.52 0 0 0-.557-.438c-.235-.114-.528-.17-.88-.17-.481 0-.883.108-1.205.324-.322.212-.483.486-.483.823 0 .292.108.527.324.705.216.178.564.324 1.045.437l1.387.319c.803.185 1.401.471 1.795.858.394.386.591.888.591 1.505 0 .523-.151.989-.454 1.398-.3.405-.718.723-1.256.955-.534.231-1.153.346-1.858.346-.977 0-1.775-.208-2.392-.625-.618-.42-.996-1.017-1.136-1.79l1.642-.25c.102.428.312.752.63.972.318.216.733.324 1.245.324.556 0 1.001-.116 1.335-.347.333-.235.5-.521.5-.858a.89.89 0 0 0-.307-.687c-.201-.186-.509-.326-.926-.421l-1.477-.324c-.815-.185-1.417-.481-1.807-.886-.387-.405-.58-.918-.58-1.54a2.2 2.2 0 0 1 .432-1.352c.288-.386.686-.687 1.193-.903.508-.22 1.089-.33 1.745-.33.943 0 1.685.205 2.227.614.541.405.899.949 1.074 1.63zm5.92 9.87v-12h1.66v1.415h.142c.098-.182.24-.393.426-.631.185-.239.443-.447.772-.625.33-.182.766-.273 1.307-.273.705 0 1.334.178 1.887.534.553.356.986.869 1.301 1.54.318.67.477 1.477.477 2.42 0 .944-.157 1.752-.472 2.427-.314.67-.746 1.187-1.295 1.551-.549.36-1.176.539-1.881.539-.53 0-.964-.089-1.301-.267a2.456 2.456 0 0 1-.784-.625 4.668 4.668 0 0 1-.437-.636h-.103v4.631h-1.699zm1.665-7.637c0 .614.089 1.152.267 1.614.178.462.436.824.773 1.085.337.258.75.387 1.239.387.507 0 .931-.135 1.272-.404.341-.273.599-.642.773-1.108.178-.466.267-.99.267-1.574a4.35 4.35 0 0 0-.261-1.551c-.171-.458-.428-.82-.773-1.085-.341-.265-.767-.398-1.278-.398-.493 0-.909.127-1.25.381-.338.254-.593.608-.767 1.062-.175.455-.262.985-.262 1.591zm9.733-7.272V484h-1.699v-11.636h1.699zm4.65 11.829a3.557 3.557 0 0 1-1.5-.307 2.522 2.522 0 0 1-1.063-.903c-.258-.394-.386-.877-.386-1.449 0-.492.094-.898.284-1.216.189-.318.445-.57.767-.756a4.042 4.042 0 0 1 1.079-.42 10.62 10.62 0 0 1 1.216-.216l1.273-.148c.326-.041.563-.108.71-.198.148-.091.222-.239.222-.444v-.039c0-.497-.14-.881-.421-1.154-.276-.273-.689-.409-1.238-.409-.572 0-1.023.127-1.353.381-.325.25-.551.528-.676.835l-1.596-.364c.189-.53.466-.958.829-1.284.368-.329.79-.568 1.267-.716a4.97 4.97 0 0 1 1.506-.227c.349 0 .718.042 1.108.125.394.08.761.227 1.102.443.345.216.627.525.847.926.22.398.329.915.329 1.552V484h-1.659v-1.193h-.068c-.11.22-.275.435-.494.648-.22.212-.502.388-.847.528-.344.14-.757.21-1.238.21zm.369-1.363c.47 0 .871-.093 1.204-.279.338-.185.593-.428.767-.727.179-.303.268-.627.268-.972v-1.125c-.061.061-.179.118-.353.171-.17.049-.365.093-.585.13-.22.034-.434.067-.642.097l-.523.068a4.27 4.27 0 0 0-.903.21 1.555 1.555 0 0 0-.648.427c-.159.181-.239.424-.239.727 0 .42.156.738.466.954.311.212.707.319 1.188.319zm7.723-4.012V484h-1.699v-8.727h1.631v1.42h.108c.201-.462.515-.833.943-1.113.432-.281.975-.421 1.631-.421.594 0 1.115.125 1.562.375.447.246.794.614 1.04 1.102.246.489.369 1.093.369 1.813V484h-1.699v-5.347c0-.632-.164-1.126-.494-1.483-.329-.359-.782-.539-1.358-.539-.394 0-.744.085-1.051.255a1.846 1.846 0 0 0-.722.75c-.174.326-.261.72-.261 1.182zm-79.883 24V508h-1.699v-8.727h1.631v1.42h.108c.201-.462.515-.833.943-1.113.432-.281.976-.421 1.631-.421.595 0 1.116.125 1.562.375.447.246.794.614 1.04 1.102.246.489.37 1.093.37 1.813V508h-1.699v-5.347c0-.632-.165-1.126-.495-1.483-.329-.359-.782-.539-1.358-.539-.394 0-.744.085-1.051.255a1.844 1.844 0 0 0-.721.75c-.175.326-.262.72-.262 1.182zm10.228 5.375a3.557 3.557 0 0 1-1.5-.307 2.528 2.528 0 0 1-1.063-.903c-.257-.394-.386-.877-.386-1.449 0-.492.095-.898.284-1.216.189-.318.445-.57.767-.756a4.035 4.035 0 0 1 1.08-.42c.397-.095.803-.167 1.215-.216l1.273-.148c.326-.041.563-.108.71-.198.148-.091.222-.239.222-.444v-.039c0-.497-.14-.881-.42-1.154-.277-.273-.69-.409-1.239-.409-.572 0-1.023.127-1.352.381-.326.25-.551.528-.676.835l-1.597-.364c.189-.53.466-.958.829-1.284.368-.329.79-.568 1.268-.716a4.959 4.959 0 0 1 1.505-.227c.349 0 .718.042 1.108.125.394.08.762.227 1.102.443.345.216.627.525.847.926.22.398.33.915.33 1.552V508h-1.66v-1.193h-.068c-.11.22-.274.435-.494.648-.22.212-.502.388-.847.528-.344.14-.757.21-1.238.21zm.369-1.363c.47 0 .871-.093 1.205-.279.337-.185.592-.428.767-.727.178-.303.267-.627.267-.972v-1.125c-.061.061-.178.118-.353.171-.17.049-.365.093-.585.13-.219.034-.434.067-.642.097l-.523.068a4.27 4.27 0 0 0-.903.21 1.555 1.555 0 0 0-.648.427c-.159.181-.238.424-.238.727 0 .42.155.738.466.954.31.212.706.319 1.187.319zm6.024 1.17v-8.727h1.631v1.42h.108c.182-.481.479-.856.892-1.125.413-.273.907-.409 1.483-.409.583 0 1.072.136 1.466.409.398.273.691.648.881 1.125h.09c.209-.466.54-.837.995-1.113.454-.281.996-.421 1.625-.421.791 0 1.437.248 1.937.744.504.497.756 1.245.756 2.245V508h-1.699v-5.693c0-.591-.161-1.019-.483-1.284a1.757 1.757 0 0 0-1.153-.398c-.553 0-.983.17-1.29.511-.307.337-.46.771-.46 1.302V508h-1.693v-5.801c0-.474-.148-.854-.444-1.142-.295-.288-.68-.432-1.153-.432-.322 0-.619.085-.892.256a1.86 1.86 0 0 0-.653.699 2.136 2.136 0 0 0-.245 1.039V508h-1.699zm17.726.176c-.86 0-1.6-.184-2.221-.551a3.731 3.731 0 0 1-1.432-1.563c-.333-.674-.5-1.464-.5-2.369 0-.894.167-1.682.5-2.363a3.886 3.886 0 0 1 1.409-1.597c.606-.383 1.314-.574 2.125-.574a4.3 4.3 0 0 1 1.432.244c.462.163.877.419 1.244.767.368.349.657.802.869 1.358.213.553.319 1.226.319 2.017v.603h-6.938v-1.273h5.273c0-.447-.091-.843-.273-1.187a2.052 2.052 0 0 0-.767-.824c-.326-.201-.708-.302-1.148-.302-.477 0-.894.118-1.25.353a2.364 2.364 0 0 0-.818.909 2.626 2.626 0 0 0-.284 1.21v.994c0 .584.102 1.08.307 1.489.208.409.498.722.869.938.371.212.805.318 1.301.318a2.7 2.7 0 0 0 .881-.137c.265-.094.494-.234.688-.42a1.84 1.84 0 0 0 .443-.688l1.608.29c-.129.474-.36.888-.693 1.244-.33.353-.745.627-1.245.824-.496.194-1.062.29-1.699.29z"/><path fill="#8638E5" d="M600.568 478.761h136.858v1.091H600.568v-1.091zm47.594 24h41.683v1.091h-41.683v-1.091z"/><path fill="#B3B3B3" fill-opacity=".5" d="M392.844 240.243a6 6 0 0 1 7.312 0l108.5 82c3.125 2.401 3.125 7.113 0 9.514l-108.5 82a6 6 0 0 1-7.312 0l-108.5-82c-3.125-2.401-3.125-7.113 0-9.514l108.5-82z"/><path fill="#000" fill-opacity=".8" d="M351.207 312.42a1.665 1.665 0 0 0-.75-1.25c-.44-.299-.993-.448-1.66-.448-.477 0-.89.075-1.238.227-.349.148-.62.352-.813.613a1.454 1.454 0 0 0-.284.881c0 .277.065.515.193.716.133.201.305.369.517.506.216.132.447.244.694.335.246.087.483.159.71.216l1.136.295c.371.091.752.214 1.142.37.39.155.752.36 1.085.613.334.254.603.568.807.944.209.374.313.823.313 1.346 0 .659-.171 1.244-.512 1.756-.337.511-.827.915-1.471 1.21-.64.295-1.415.443-2.324.443-.871 0-1.625-.138-2.261-.415-.637-.276-1.135-.668-1.495-1.176-.36-.511-.558-1.117-.596-1.818h1.761c.034.421.171.771.409 1.051.243.277.551.483.926.62.379.132.794.198 1.245.198.496 0 .937-.077 1.323-.233.391-.159.697-.378.921-.659.223-.284.335-.615.335-.994 0-.345-.098-.627-.295-.847a2.194 2.194 0 0 0-.79-.545 7.771 7.771 0 0 0-1.119-.381l-1.375-.375c-.932-.253-1.671-.627-2.216-1.119-.542-.492-.813-1.144-.813-1.955 0-.67.182-1.255.546-1.755.363-.5.856-.888 1.477-1.165.621-.28 1.322-.42 2.102-.42.788 0 1.483.138 2.085.414.606.277 1.084.658 1.432 1.142.349.481.531 1.034.546 1.659h-1.693zm7.399 8.756c-.86 0-1.601-.184-2.222-.551a3.738 3.738 0 0 1-1.432-1.563c-.333-.674-.5-1.464-.5-2.369 0-.894.167-1.682.5-2.363a3.886 3.886 0 0 1 1.409-1.597c.607-.383 1.315-.574 2.125-.574.493 0 .97.082 1.432.244.462.163.877.419 1.245.767.367.349.657.802.869 1.358.212.553.318 1.226.318 2.017v.603h-6.937v-1.273h5.272c0-.447-.091-.843-.272-1.187a2.06 2.06 0 0 0-.767-.824c-.326-.201-.709-.302-1.148-.302-.477 0-.894.118-1.25.353a2.364 2.364 0 0 0-.818.909c-.19.371-.284.774-.284 1.21v.994c0 .584.102 1.08.306 1.489.209.409.498.722.87.938.371.212.805.318 1.301.318.322 0 .615-.046.881-.137.265-.094.494-.234.687-.42.193-.186.341-.415.443-.688l1.608.29c-.129.474-.36.888-.693 1.244-.33.353-.744.627-1.244.824-.497.194-1.063.29-1.699.29zm7.152-11.812V321h-1.699v-11.636h1.699zm5.871 11.812c-.86 0-1.601-.184-2.222-.551a3.738 3.738 0 0 1-1.432-1.563c-.333-.674-.5-1.464-.5-2.369 0-.894.167-1.682.5-2.363a3.886 3.886 0 0 1 1.409-1.597c.607-.383 1.315-.574 2.125-.574.493 0 .97.082 1.432.244.462.163.877.419 1.245.767.367.349.657.802.869 1.358.212.553.318 1.226.318 2.017v.603h-6.937v-1.273h5.272c0-.447-.091-.843-.272-1.187a2.06 2.06 0 0 0-.767-.824c-.326-.201-.709-.302-1.148-.302-.477 0-.894.118-1.25.353a2.364 2.364 0 0 0-.818.909c-.19.371-.284.774-.284 1.21v.994c0 .584.102 1.08.306 1.489.209.409.498.722.87.938.371.212.805.318 1.301.318.322 0 .615-.046.881-.137.265-.094.494-.234.687-.42.193-.186.341-.415.443-.688l1.608.29c-.129.474-.36.888-.693 1.244-.33.353-.744.627-1.244.824-.497.194-1.063.29-1.699.29zm9.129 0c-.845 0-1.572-.191-2.182-.574a3.79 3.79 0 0 1-1.397-1.596c-.326-.678-.489-1.455-.489-2.33 0-.886.167-1.668.5-2.346a3.83 3.83 0 0 1 1.409-1.597c.606-.383 1.32-.574 2.142-.574.663 0 1.254.123 1.773.369.519.243.937.584 1.256 1.023.322.44.513.953.573 1.54h-1.653a1.983 1.983 0 0 0-.625-1.057c-.322-.295-.754-.443-1.295-.443-.474 0-.889.125-1.245.375-.352.246-.627.598-.824 1.057-.197.454-.295.992-.295 1.613 0 .637.097 1.186.29 1.648.193.462.466.82.818 1.074.356.254.774.381 1.256.381.322 0 .613-.059.875-.177.265-.121.486-.293.664-.517a1.94 1.94 0 0 0 .381-.806h1.653a3.203 3.203 0 0 1-.551 1.511 3.168 3.168 0 0 1-1.233 1.045c-.511.254-1.111.381-1.801.381zm9.3-8.903v1.363h-4.767v-1.363h4.767zm-3.489-2.091h1.699v8.256c0 .329.05.577.148.744a.767.767 0 0 0 .381.335c.159.057.331.085.517.085.136 0 .255-.009.358-.028l.238-.046.307 1.404a2.75 2.75 0 0 1-.42.113 3.314 3.314 0 0 1-.682.069 2.994 2.994 0 0 1-1.25-.239 2.143 2.143 0 0 1-.938-.773c-.238-.348-.358-.786-.358-1.312v-8.608zm12.927 10.994c-.845 0-1.572-.191-2.182-.574a3.798 3.798 0 0 1-1.398-1.596c-.325-.678-.488-1.455-.488-2.33 0-.886.166-1.668.5-2.346a3.83 3.83 0 0 1 1.409-1.597c.606-.383 1.32-.574 2.142-.574.663 0 1.254.123 1.772.369.519.243.938.584 1.256 1.023.322.44.513.953.574 1.54h-1.653a1.99 1.99 0 0 0-.625-1.057c-.322-.295-.754-.443-1.296-.443a2.11 2.11 0 0 0-1.244.375c-.352.246-.627.598-.824 1.057-.197.454-.295.992-.295 1.613 0 .637.096 1.186.289 1.648.193.462.466.82.818 1.074.357.254.775.381 1.256.381.322 0 .614-.059.875-.177a1.78 1.78 0 0 0 .665-.517 1.94 1.94 0 0 0 .381-.806h1.653a3.214 3.214 0 0 1-.551 1.511 3.168 3.168 0 0 1-1.233 1.045c-.511.254-1.112.381-1.801.381zm5.226-.176v-8.727h1.642v1.386h.091c.159-.47.439-.839.841-1.108a2.402 2.402 0 0 1 1.375-.409c.106 0 .231.004.375.011.147.008.263.017.346.029v1.625a3.047 3.047 0 0 0-.363-.063 3.551 3.551 0 0 0-.523-.039c-.402 0-.76.085-1.074.255a1.904 1.904 0 0 0-1.011 1.71V321h-1.699zm7.304 3.273a3.51 3.51 0 0 1-.693-.063 2.142 2.142 0 0 1-.466-.125l.409-1.392c.311.084.587.12.829.108a.986.986 0 0 0 .642-.273c.19-.17.357-.448.5-.835l.211-.579-3.193-8.841h1.818l2.21 6.772h.091l2.21-6.772h1.824l-3.597 9.892a3.92 3.92 0 0 1-.636 1.153 2.474 2.474 0 0 1-.92.716 3.016 3.016 0 0 1-1.239.239zm7.813 0v-12h1.659v1.415h.142c.098-.182.24-.393.426-.631.185-.239.443-.447.773-.625.329-.182.765-.273 1.306-.273.705 0 1.334.178 1.887.534.553.356.986.869 1.301 1.54.318.67.477 1.477.477 2.42 0 .944-.157 1.752-.471 2.427-.315.67-.747 1.187-1.296 1.551-.549.36-1.176.539-1.881.539-.53 0-.964-.089-1.301-.267a2.467 2.467 0 0 1-.784-.625 4.668 4.668 0 0 1-.437-.636h-.103v4.631h-1.698zm1.664-7.637c0 .614.089 1.152.267 1.614.178.462.436.824.773 1.085.337.258.75.387 1.239.387.507 0 .932-.135 1.272-.404.341-.273.599-.642.773-1.108.178-.466.267-.99.267-1.574a4.35 4.35 0 0 0-.261-1.551c-.171-.458-.428-.82-.773-1.085-.341-.265-.767-.398-1.278-.398-.493 0-.909.127-1.25.381-.337.254-.593.608-.767 1.062-.175.455-.262.985-.262 1.591zm12.108-4.363v1.363h-4.767v-1.363h4.767zm-3.488-2.091h1.699v8.256c0 .329.049.577.147.744a.776.776 0 0 0 .381.335c.159.057.331.085.517.085.136 0 .256-.009.358-.028.102-.019.182-.034.239-.046l.307 1.404a2.768 2.768 0 0 1-.421.113 3.314 3.314 0 0 1-.682.069 2.997 2.997 0 0 1-1.25-.239 2.14 2.14 0 0 1-.937-.773c-.239-.348-.358-.786-.358-1.312v-8.608zm8.774 10.994c-.818 0-1.532-.187-2.142-.562a3.792 3.792 0 0 1-1.42-1.574c-.338-.674-.506-1.462-.506-2.364 0-.905.168-1.697.506-2.375a3.781 3.781 0 0 1 1.42-1.579c.61-.375 1.324-.563 2.142-.563.818 0 1.532.188 2.142.563a3.79 3.79 0 0 1 1.421 1.579c.337.678.505 1.47.505 2.375 0 .902-.168 1.69-.505 2.364a3.8 3.8 0 0 1-1.421 1.574c-.61.375-1.324.562-2.142.562zm.006-1.426c.53 0 .969-.14 1.318-.42.348-.281.606-.654.773-1.12.17-.466.255-.979.255-1.54 0-.556-.085-1.068-.255-1.534a2.507 2.507 0 0 0-.773-1.13c-.349-.284-.788-.426-1.318-.426-.534 0-.978.142-1.33.426a2.54 2.54 0 0 0-.778 1.13 4.52 4.52 0 0 0-.25 1.534c0 .561.083 1.074.25 1.54.17.466.43.839.778 1.12.352.28.796.42 1.33.42zm10.214-10.932-3.75 13.932h-1.517l3.75-13.932h1.517zm-69.388 36.375a3.557 3.557 0 0 1-1.5-.307 2.52 2.52 0 0 1-1.062-.903c-.258-.394-.387-.877-.387-1.449 0-.492.095-.898.284-1.216.19-.318.445-.57.767-.756a4.035 4.035 0 0 1 1.08-.42 10.62 10.62 0 0 1 1.216-.216l1.273-.148c.325-.041.562-.108.71-.198.148-.091.221-.239.221-.444v-.039c0-.497-.14-.881-.42-1.154-.277-.273-.689-.409-1.239-.409-.572 0-1.022.127-1.352.381-.326.25-.551.528-.676.835l-1.597-.364c.19-.53.466-.958.83-1.284.367-.329.79-.568 1.267-.716a4.96 4.96 0 0 1 1.506-.227c.348 0 .717.042 1.108.125.393.08.761.227 1.102.443.345.216.627.525.846.926.22.398.33.915.33 1.552V345h-1.659v-1.193h-.068c-.11.22-.275.435-.495.648a2.622 2.622 0 0 1-.846.528c-.345.14-.758.21-1.239.21zm.369-1.363c.47 0 .872-.093 1.205-.279.337-.185.593-.428.767-.727.178-.303.267-.627.267-.972v-1.125c-.061.061-.178.118-.352.171a5.398 5.398 0 0 1-.585.13c-.22.034-.434.067-.642.097l-.523.068c-.33.042-.631.112-.904.21a1.551 1.551 0 0 0-.647.427c-.159.181-.239.424-.239.727 0 .42.155.738.466.954.311.212.706.319 1.187.319zm12.565-5.427-1.54.273a1.838 1.838 0 0 0-.307-.562 1.52 1.52 0 0 0-.557-.438c-.235-.114-.528-.17-.881-.17-.481 0-.882.108-1.204.324-.322.212-.483.486-.483.823 0 .292.108.527.324.705.216.178.564.324 1.045.437l1.387.319c.803.185 1.401.471 1.795.858.394.386.591.888.591 1.505 0 .523-.152.989-.455 1.398-.299.405-.717.723-1.255.955-.534.231-1.154.346-1.858.346-.977 0-1.775-.208-2.392-.625-.618-.42-.996-1.017-1.137-1.79l1.642-.25c.103.428.313.752.631.972.318.216.733.324 1.244.324.557 0 1.002-.116 1.336-.347.333-.235.5-.521.5-.858a.893.893 0 0 0-.307-.687c-.201-.186-.51-.326-.926-.421l-1.478-.324c-.814-.185-1.416-.481-1.806-.886-.387-.405-.58-.918-.58-1.54a2.2 2.2 0 0 1 .432-1.352c.288-.386.685-.687 1.193-.903.508-.22 1.089-.33 1.744-.33.944 0 1.686.205 2.228.614.541.405.899.949 1.074 1.63zm8.402 0-1.54.273a1.838 1.838 0 0 0-.307-.562 1.52 1.52 0 0 0-.557-.438c-.235-.114-.528-.17-.88-.17-.482 0-.883.108-1.205.324-.322.212-.483.486-.483.823 0 .292.108.527.324.705.216.178.564.324 1.045.437l1.387.319c.803.185 1.401.471 1.795.858.394.386.591.888.591 1.505 0 .523-.151.989-.454 1.398-.3.405-.718.723-1.256.955-.534.231-1.154.346-1.858.346-.977 0-1.775-.208-2.392-.625-.618-.42-.996-1.017-1.137-1.79l1.643-.25c.102.428.312.752.63.972.318.216.733.324 1.245.324.556 0 1.001-.116 1.335-.347.333-.235.5-.521.5-.858a.893.893 0 0 0-.307-.687c-.201-.186-.51-.326-.926-.421l-1.477-.324c-.815-.185-1.417-.481-1.807-.886-.387-.405-.58-.918-.58-1.54a2.2 2.2 0 0 1 .432-1.352c.288-.386.686-.687 1.193-.903.508-.22 1.089-.33 1.744-.33.944 0 1.686.205 2.228.614.541.405.899.949 1.074 1.63zm5.623 6.773c-.86 0-1.6-.184-2.221-.551a3.731 3.731 0 0 1-1.432-1.563c-.333-.674-.5-1.464-.5-2.369 0-.894.167-1.682.5-2.363a3.886 3.886 0 0 1 1.409-1.597c.606-.383 1.314-.574 2.125-.574a4.3 4.3 0 0 1 1.432.244c.462.163.877.419 1.244.767.368.349.657.802.869 1.358.213.553.319 1.226.319 2.017v.603h-6.938v-1.273h5.273c0-.447-.091-.843-.273-1.187a2.052 2.052 0 0 0-.767-.824c-.326-.201-.708-.302-1.148-.302-.477 0-.894.118-1.25.353a2.364 2.364 0 0 0-.818.909 2.626 2.626 0 0 0-.284 1.21v.994c0 .584.102 1.08.307 1.489.208.409.498.722.869.938.371.212.805.318 1.301.318a2.7 2.7 0 0 0 .881-.137c.265-.094.494-.234.688-.42a1.84 1.84 0 0 0 .443-.688l1.608.29c-.129.474-.36.888-.693 1.244-.33.353-.745.627-1.245.824-.496.194-1.062.29-1.699.29zm9.527-8.903v1.363h-4.767v-1.363h4.767zm-3.488-2.091h1.699v8.256c0 .329.049.577.147.744a.776.776 0 0 0 .381.335c.159.057.332.085.517.085.137 0 .256-.009.358-.028.102-.019.182-.034.239-.046l.307 1.404a2.768 2.768 0 0 1-.421.113 3.314 3.314 0 0 1-.682.069 2.997 2.997 0 0 1-1.25-.239 2.14 2.14 0 0 1-.937-.773c-.239-.348-.358-.786-.358-1.312v-8.608z"/><path fill="#B3B3B3" d="M216 325.5a1.5 1.5 0 0 0 0 3v-3zm63.061 2.561a1.502 1.502 0 0 0 0-2.122l-9.546-9.546a1.502 1.502 0 0 0-2.122 0 1.502 1.502 0 0 0 0 2.122l8.486 8.485-8.486 8.485a1.502 1.502 0 0 0 0 2.122 1.502 1.502 0 0 0 2.122 0l9.546-9.546zM216 328.5h62v-3h-62v3z"/><rect width="176" height="118" x="581" y="268" fill="#F1E5FF" stroke="#8638E5" stroke-linecap="round" stroke-miterlimit="0" stroke-width="4" rx="6"/><path fill="#8638E5" d="M610.356 321v-11.636h7.296v1.511h-5.54v3.545h5.159v1.506h-5.159v3.563h5.608V321h-7.364zm11.027-5.182V321h-1.699v-8.727h1.631v1.42h.108c.201-.462.515-.833.943-1.113.432-.281.976-.421 1.631-.421.595 0 1.116.125 1.562.375.447.246.794.614 1.04 1.102.246.489.37 1.093.37 1.813V321h-1.699v-5.347c0-.632-.165-1.126-.495-1.483-.329-.359-.782-.539-1.358-.539-.394 0-.744.085-1.051.255a1.844 1.844 0 0 0-.721.75c-.175.326-.262.72-.262 1.182zm11.762-3.545v1.363h-4.767v-1.363h4.767zm-3.489-2.091h1.699v8.256c0 .329.049.577.148.744a.77.77 0 0 0 .38.335c.16.057.332.085.518.085.136 0 .255-.009.357-.028.103-.019.182-.034.239-.046l.307 1.404a2.768 2.768 0 0 1-.421.113 3.303 3.303 0 0 1-.681.069 2.994 2.994 0 0 1-1.25-.239 2.143 2.143 0 0 1-.938-.773c-.238-.348-.358-.786-.358-1.312v-8.608zm8.86 10.994c-.86 0-1.601-.184-2.222-.551a3.738 3.738 0 0 1-1.432-1.563c-.333-.674-.5-1.464-.5-2.369 0-.894.167-1.682.5-2.363a3.886 3.886 0 0 1 1.409-1.597c.606-.383 1.315-.574 2.125-.574.493 0 .97.082 1.432.244.462.163.877.419 1.245.767.367.349.657.802.869 1.358.212.553.318 1.226.318 2.017v.603h-6.937v-1.273h5.272c0-.447-.091-.843-.272-1.187a2.055 2.055 0 0 0-.768-.824c-.325-.201-.708-.302-1.147-.302-.478 0-.894.118-1.25.353a2.356 2.356 0 0 0-.818.909c-.19.371-.285.774-.285 1.21v.994c0 .584.103 1.08.307 1.489.209.409.498.722.87.938.371.212.805.318 1.301.318.322 0 .615-.046.88-.137a1.88 1.88 0 0 0 .688-.42c.193-.186.341-.415.443-.688l1.608.29c-.129.474-.36.888-.693 1.244-.33.353-.744.627-1.244.824-.497.194-1.063.29-1.699.29zm5.453-.176v-8.727h1.642v1.386h.091c.159-.47.439-.839.841-1.108a2.402 2.402 0 0 1 1.375-.409c.106 0 .231.004.375.011.148.008.263.017.346.029v1.625a3.047 3.047 0 0 0-.363-.063 3.54 3.54 0 0 0-.523-.039c-.401 0-.759.085-1.074.255a1.9 1.9 0 0 0-1.011 1.71V321h-1.699zm12.563.193a3.557 3.557 0 0 1-1.5-.307 2.528 2.528 0 0 1-1.063-.903c-.257-.394-.386-.877-.386-1.449 0-.492.095-.898.284-1.216.189-.318.445-.57.767-.756a4.035 4.035 0 0 1 1.08-.42c.397-.095.803-.167 1.215-.216l1.273-.148c.326-.041.563-.108.71-.198.148-.091.222-.239.222-.444v-.039c0-.497-.14-.881-.42-1.154-.277-.273-.69-.409-1.239-.409-.572 0-1.023.127-1.352.381-.326.25-.551.528-.676.835l-1.597-.364c.189-.53.466-.958.829-1.284.368-.329.79-.568 1.268-.716a4.959 4.959 0 0 1 1.505-.227c.349 0 .718.042 1.108.125.394.08.762.227 1.102.443.345.216.627.525.847.926.22.398.33.915.33 1.552V321h-1.66v-1.193h-.068c-.11.22-.274.435-.494.648-.22.212-.502.388-.847.528-.344.14-.757.21-1.238.21zm.369-1.363c.47 0 .871-.093 1.205-.279.337-.185.592-.428.767-.727.178-.303.267-.627.267-.972v-1.125c-.061.061-.178.118-.353.171-.17.049-.365.093-.585.13-.219.034-.434.067-.642.097l-.523.068a4.27 4.27 0 0 0-.903.21 1.555 1.555 0 0 0-.648.427c-.159.181-.238.424-.238.727 0 .42.155.738.466.954.31.212.706.319 1.187.319zm6.024 1.17v-8.727h1.631v1.42h.108c.182-.481.479-.856.892-1.125.413-.273.907-.409 1.483-.409.583 0 1.072.136 1.466.409.398.273.691.648.881 1.125h.09c.209-.466.54-.837.995-1.113.454-.281.996-.421 1.625-.421.791 0 1.437.248 1.937.744.504.497.756 1.245.756 2.245V321h-1.699v-5.693c0-.591-.161-1.019-.483-1.284a1.757 1.757 0 0 0-1.153-.398c-.553 0-.983.17-1.29.511-.307.337-.46.771-.46 1.302V321h-1.693v-5.801c0-.474-.148-.854-.444-1.142-.295-.288-.68-.432-1.153-.432-.322 0-.619.085-.892.256a1.86 1.86 0 0 0-.653.699 2.136 2.136 0 0 0-.245 1.039V321h-1.699zm17.641.176c-.818 0-1.532-.187-2.142-.562a3.792 3.792 0 0 1-1.42-1.574c-.337-.674-.506-1.462-.506-2.364 0-.905.169-1.697.506-2.375a3.781 3.781 0 0 1 1.42-1.579c.61-.375 1.324-.563 2.142-.563.818 0 1.532.188 2.142.563.61.375 1.084.901 1.421 1.579.337.678.505 1.47.505 2.375 0 .902-.168 1.69-.505 2.364a3.794 3.794 0 0 1-1.421 1.574c-.61.375-1.324.562-2.142.562zm.006-1.426c.53 0 .97-.14 1.318-.42.348-.281.606-.654.773-1.12.17-.466.255-.979.255-1.54 0-.556-.085-1.068-.255-1.534a2.507 2.507 0 0 0-.773-1.13c-.348-.284-.788-.426-1.318-.426-.534 0-.977.142-1.33.426a2.54 2.54 0 0 0-.778 1.13 4.52 4.52 0 0 0-.25 1.534c0 .561.083 1.074.25 1.54.17.466.43.839.778 1.12.353.28.796.42 1.33.42zm11.311-2.369v-5.108h1.705V321h-1.671v-1.511h-.091a2.721 2.721 0 0 1-.966 1.164c-.439.307-.986.461-1.642.461-.56 0-1.057-.123-1.488-.37-.428-.25-.766-.619-1.012-1.108-.242-.488-.363-1.092-.363-1.812v-5.551h1.698v5.346c0 .595.165 1.068.495 1.421.329.352.757.528 1.284.528.318 0 .634-.079.949-.238.318-.16.581-.4.79-.722.212-.322.316-.731.312-1.227zm5.51-1.563V321h-1.699v-8.727h1.631v1.42h.108c.201-.462.515-.833.943-1.113.432-.281.975-.421 1.631-.421.594 0 1.115.125 1.562.375.447.246.794.614 1.04 1.102.246.489.369 1.093.369 1.813V321h-1.699v-5.347c0-.632-.164-1.126-.494-1.483-.329-.359-.782-.539-1.358-.539-.394 0-.744.085-1.051.255a1.846 1.846 0 0 0-.722.75c-.174.326-.261.72-.261 1.182zm11.762-3.545v1.363h-4.767v-1.363h4.767zm-3.489-2.091h1.699v8.256c0 .329.049.577.148.744a.77.77 0 0 0 .38.335c.159.057.332.085.517.085.137 0 .256-.009.358-.028.103-.019.182-.034.239-.046l.307 1.404a2.768 2.768 0 0 1-.421.113 3.314 3.314 0 0 1-.682.069 2.997 2.997 0 0 1-1.25-.239 2.146 2.146 0 0 1-.937-.773c-.239-.348-.358-.786-.358-1.312v-8.608zm13.324 2.091v1.363h-4.767v-1.363h4.767zm-3.489-2.091h1.699v8.256c0 .329.05.577.148.744a.772.772 0 0 0 .381.335c.159.057.331.085.517.085.136 0 .255-.009.358-.028.102-.019.182-.034.238-.046l.307 1.404a2.718 2.718 0 0 1-.42.113 3.314 3.314 0 0 1-.682.069 2.994 2.994 0 0 1-1.25-.239 2.149 2.149 0 0 1-.938-.773c-.238-.348-.358-.786-.358-1.312v-8.608zm8.775 10.994c-.818 0-1.532-.187-2.142-.562a3.794 3.794 0 0 1-1.421-1.574c-.337-.674-.505-1.462-.505-2.364 0-.905.168-1.697.505-2.375a3.784 3.784 0 0 1 1.421-1.579c.61-.375 1.324-.563 2.142-.563.818 0 1.532.188 2.142.563.61.375 1.083.901 1.42 1.579.337.678.506 1.47.506 2.375 0 .902-.169 1.69-.506 2.364a3.792 3.792 0 0 1-1.42 1.574c-.61.375-1.324.562-2.142.562zm.005-1.426c.531 0 .97-.14 1.319-.42.348-.281.606-.654.772-1.12.171-.466.256-.979.256-1.54 0-.556-.085-1.068-.256-1.534a2.498 2.498 0 0 0-.772-1.13c-.349-.284-.788-.426-1.319-.426-.534 0-.977.142-1.329.426a2.541 2.541 0 0 0-.779 1.13c-.166.466-.25.978-.25 1.534 0 .561.084 1.074.25 1.54.171.466.43.839.779 1.12.352.28.795.42 1.329.42zm-65.101 18.653-1.54.273a1.813 1.813 0 0 0-.306-.562 1.528 1.528 0 0 0-.557-.438c-.235-.114-.529-.17-.881-.17-.481 0-.882.108-1.204.324-.322.212-.483.486-.483.823a.87.87 0 0 0 .323.705c.216.178.565.324 1.046.437l1.386.319c.803.185 1.402.471 1.796.858.394.386.591.888.591 1.505 0 .523-.152.989-.455 1.398-.299.405-.718.723-1.256.955-.534.231-1.153.346-1.858.346-.977 0-1.774-.208-2.392-.625-.617-.42-.996-1.017-1.136-1.79l1.642-.25c.102.428.313.752.631.972.318.216.733.324 1.244.324.557 0 1.002-.116 1.335-.347.334-.235.5-.521.5-.858a.892.892 0 0 0-.306-.687c-.201-.186-.51-.326-.927-.421l-1.477-.324c-.814-.185-1.417-.481-1.807-.886-.386-.405-.579-.918-.579-1.54a2.2 2.2 0 0 1 .432-1.352c.287-.386.685-.687 1.193-.903.507-.22 1.089-.33 1.744-.33.943 0 1.686.205 2.227.614.542.405.9.949 1.074 1.63zm4.402 6.79a3.557 3.557 0 0 1-1.5-.307 2.52 2.52 0 0 1-1.062-.903c-.258-.394-.387-.877-.387-1.449 0-.492.095-.898.285-1.216.189-.318.445-.57.767-.756a4.029 4.029 0 0 1 1.079-.42 10.62 10.62 0 0 1 1.216-.216l1.273-.148c.326-.041.562-.108.71-.198.148-.091.222-.239.222-.444v-.039c0-.497-.141-.881-.421-1.154-.276-.273-.689-.409-1.238-.409-.572 0-1.023.127-1.353.381-.326.25-.551.528-.676.835l-1.596-.364c.189-.53.465-.958.829-1.284.367-.329.79-.568 1.267-.716a4.96 4.96 0 0 1 1.506-.227c.348 0 .718.042 1.108.125.394.08.761.227 1.102.443.345.216.627.525.847.926.219.398.329.915.329 1.552V345h-1.659v-1.193h-.068c-.11.22-.275.435-.494.648-.22.212-.502.388-.847.528s-.758.21-1.239.21zm.37-1.363c.469 0 .871-.093 1.204-.279.337-.185.593-.428.767-.727.178-.303.267-.627.267-.972v-1.125c-.06.061-.178.118-.352.171-.17.049-.366.093-.585.13-.22.034-.434.067-.642.097l-.523.068a4.24 4.24 0 0 0-.903.21 1.555 1.555 0 0 0-.648.427c-.159.181-.239.424-.239.727 0 .42.156.738.466.954.311.212.707.319 1.188.319zm13.177-7.557L673.965 345h-1.819l-3.17-8.727h1.824l2.21 6.716h.091l2.204-6.716h1.824zm4.885 8.903c-.859 0-1.6-.184-2.221-.551a3.731 3.731 0 0 1-1.432-1.563c-.333-.674-.5-1.464-.5-2.369 0-.894.167-1.682.5-2.363a3.886 3.886 0 0 1 1.409-1.597c.606-.383 1.314-.574 2.125-.574.493 0 .97.082 1.432.244.462.163.877.419 1.244.767.368.349.657.802.87 1.358.212.553.318 1.226.318 2.017v.603h-6.938v-1.273h5.273c0-.447-.091-.843-.273-1.187a2.052 2.052 0 0 0-.767-.824c-.326-.201-.708-.302-1.148-.302a2.22 2.22 0 0 0-1.25.353 2.364 2.364 0 0 0-.818.909 2.626 2.626 0 0 0-.284 1.21v.994c0 .584.102 1.08.307 1.489.208.409.498.722.869.938.372.212.805.318 1.301.318a2.7 2.7 0 0 0 .881-.137c.265-.094.494-.234.688-.42.193-.186.341-.415.443-.688l1.608.29c-.129.474-.36.888-.693 1.244-.33.353-.745.627-1.245.824-.496.194-1.062.29-1.699.29z"/><path fill="#B3B3B3" d="M515 325.5a1.5 1.5 0 0 0 0 3v-3zm63.061 2.561a1.502 1.502 0 0 0 0-2.122l-9.546-9.546a1.502 1.502 0 0 0-2.122 0 1.502 1.502 0 0 0 0 2.122l8.486 8.485-8.486 8.485a1.502 1.502 0 0 0 0 2.122 1.502 1.502 0 0 0 2.122 0l9.546-9.546zM515 328.5h62v-3h-62v3z"/><rect width="176" height="118" x="1252.5" y="378" fill="#F1E5FF" stroke="#8638E5" stroke-linecap="round" stroke-miterlimit="0" stroke-width="4" rx="6"/><path fill="#8638E5" d="M1274.74 419v-11.636h4.14c.91 0 1.66.164 2.25.494.6.329 1.04.78 1.34 1.352.29.568.44 1.209.44 1.921 0 .716-.15 1.36-.45 1.931-.29.569-.74 1.019-1.34 1.353-.59.329-1.34.494-2.24.494h-2.85v-1.489h2.69c.57 0 1.03-.098 1.39-.295.36-.201.62-.473.78-.818.17-.345.25-.737.25-1.176 0-.44-.08-.83-.25-1.171-.16-.341-.43-.608-.79-.801-.35-.193-.82-.29-1.4-.29h-2.21V419h-1.75zm9.92 0v-8.727h1.64v1.386h.09c.16-.47.44-.839.84-1.108.41-.273.86-.409 1.38-.409a7.813 7.813 0 0 1 .72.04v1.625c-.07-.019-.19-.04-.37-.063a3.402 3.402 0 0 0-.52-.039c-.4 0-.76.085-1.07.255a1.9 1.9 0 0 0-.74.699c-.18.296-.27.633-.27 1.011V419h-1.7zm9.33.176c-.82 0-1.54-.187-2.15-.562-.61-.375-1.08-.9-1.42-1.574-.33-.674-.5-1.462-.5-2.364 0-.905.17-1.697.5-2.375.34-.678.81-1.204 1.42-1.579.61-.375 1.33-.563 2.15-.563.81 0 1.53.188 2.14.563.61.375 1.08.901 1.42 1.579.34.678.5 1.47.5 2.375 0 .902-.16 1.69-.5 2.364-.34.674-.81 1.199-1.42 1.574-.61.375-1.33.562-2.14.562zm0-1.426c.53 0 .97-.14 1.32-.42.35-.281.61-.654.77-1.12.17-.466.26-.979.26-1.54 0-.556-.09-1.068-.26-1.534a2.434 2.434 0 0 0-.77-1.13c-.35-.284-.79-.426-1.32-.426s-.98.142-1.33.426c-.35.284-.61.661-.78 1.13-.16.466-.25.978-.25 1.534 0 .561.09 1.074.25 1.54.17.466.43.839.78 1.12.35.28.8.42 1.33.42zm5.78 1.25v-8.727h1.63v1.42h.11c.18-.481.48-.856.89-1.125.42-.273.91-.409 1.49-.409s1.07.136 1.46.409c.4.273.69.648.88 1.125h.1c.2-.466.54-.837.99-1.113.45-.281 1-.421 1.62-.421.8 0 1.44.248 1.94.744.51.497.76 1.245.76 2.245V419h-1.7v-5.693c0-.591-.16-1.019-.48-1.284a1.785 1.785 0 0 0-1.16-.398c-.55 0-.98.17-1.29.511-.3.337-.46.771-.46 1.302V419h-1.69v-5.801c0-.474-.15-.854-.44-1.142-.3-.288-.68-.432-1.16-.432-.32 0-.62.085-.89.256a1.8 1.8 0 0 0-.65.699c-.17.299-.25.645-.25 1.039V419h-1.7zm13.97 3.273v-12h1.66v1.415h.14c.1-.182.24-.393.43-.631.18-.239.44-.447.77-.625.33-.182.76-.273 1.31-.273.7 0 1.33.178 1.88.534.55.356.99.869 1.3 1.54.32.67.48 1.477.48 2.42 0 .944-.16 1.752-.47 2.427-.32.67-.75 1.187-1.3 1.551-.55.36-1.17.539-1.88.539-.53 0-.96-.089-1.3-.267a2.483 2.483 0 0 1-.78-.625c-.19-.238-.34-.45-.44-.636h-.1v4.631h-1.7zm1.66-7.637c0 .614.09 1.152.27 1.614.18.462.44.824.77 1.085.34.258.75.387 1.24.387.51 0 .93-.135 1.27-.404.35-.273.6-.642.78-1.108.18-.466.26-.99.26-1.574 0-.575-.08-1.092-.26-1.551-.17-.458-.42-.82-.77-1.085-.34-.265-.77-.398-1.28-.398-.49 0-.91.127-1.25.381-.34.254-.59.608-.77 1.062-.17.455-.26.985-.26 1.591zm12.11-4.363v1.363h-4.77v-1.363h4.77zm-3.49-2.091h1.7v8.256c0 .329.05.577.15.744.1.163.22.274.38.335.16.057.33.085.52.085.13 0 .25-.009.36-.028.1-.019.18-.034.23-.046l.31 1.404c-.1.038-.24.076-.42.113a3.3 3.3 0 0 1-.68.069c-.45.007-.87-.072-1.25-.239-.39-.167-.7-.424-.94-.773-.24-.348-.36-.786-.36-1.312v-8.608zm13.33 2.091v1.363h-4.77v-1.363h4.77zm-3.49-2.091h1.7v8.256c0 .329.05.577.15.744a.72.72 0 0 0 .38.335c.15.057.33.085.51.085.14 0 .26-.009.36-.028l.24-.046.31 1.404c-.1.038-.24.076-.42.113-.19.042-.41.065-.69.069-.44.007-.86-.072-1.25-.239a2.167 2.167 0 0 1-.93-.773c-.24-.348-.36-.786-.36-1.312v-8.608zm8.77 10.994c-.82 0-1.53-.187-2.14-.562-.61-.375-1.08-.9-1.42-1.574-.34-.674-.51-1.462-.51-2.364 0-.905.17-1.697.51-2.375.34-.678.81-1.204 1.42-1.579.61-.375 1.32-.563 2.14-.563.82 0 1.53.188 2.14.563.61.375 1.09.901 1.43 1.579.33.678.5 1.47.5 2.375 0 .902-.17 1.69-.5 2.364a3.835 3.835 0 0 1-1.43 1.574c-.61.375-1.32.562-2.14.562zm.01-1.426c.53 0 .97-.14 1.32-.42.35-.281.6-.654.77-1.12.17-.466.26-.979.26-1.54 0-.556-.09-1.068-.26-1.534-.17-.469-.42-.846-.77-1.13-.35-.284-.79-.426-1.32-.426-.54 0-.98.142-1.33.426-.35.284-.61.661-.78 1.13-.17.466-.25.978-.25 1.534 0 .561.08 1.074.25 1.54.17.466.43.839.78 1.12.35.28.79.42 1.33.42zm13.11 1.42c-.71 0-1.34-.179-1.89-.539-.55-.364-.98-.881-1.3-1.551-.31-.675-.46-1.483-.46-2.427 0-.943.16-1.75.47-2.42.32-.671.75-1.184 1.31-1.54.55-.356 1.18-.534 1.88-.534.54 0 .98.091 1.3.273.34.178.6.386.78.625.18.238.33.449.43.631h.1v-4.324h1.7V419h-1.66v-1.358h-.14c-.1.186-.25.398-.44.636-.19.239-.45.447-.79.625-.33.178-.76.267-1.29.267zm.37-1.448c.49 0 .9-.129 1.24-.387.34-.261.6-.623.77-1.085.18-.462.27-1 .27-1.614 0-.606-.09-1.136-.26-1.591-.18-.454-.43-.808-.77-1.062s-.75-.381-1.25-.381c-.51 0-.94.133-1.28.398-.34.265-.6.627-.77 1.085a4.44 4.44 0 0 0-.26 1.551c0 .584.09 1.108.27 1.574.17.466.43.835.77 1.108.34.269.77.404 1.27.404zm9.96 1.454c-.86 0-1.6-.184-2.22-.551a3.67 3.67 0 0 1-1.43-1.563c-.34-.674-.5-1.464-.5-2.369 0-.894.16-1.682.5-2.363.33-.682.8-1.214 1.41-1.597.6-.383 1.31-.574 2.12-.574.49 0 .97.082 1.43.244.47.163.88.419 1.25.767.36.349.65.802.87 1.358.21.553.31 1.226.31 2.017v.603h-6.93v-1.273h5.27c0-.447-.09-.843-.27-1.187a2.046 2.046 0 0 0-.77-.824 2.159 2.159 0 0 0-1.15-.302c-.47 0-.89.118-1.25.353-.35.231-.62.534-.82.909-.18.371-.28.774-.28 1.21v.994c0 .584.1 1.08.31 1.489.21.409.5.722.87.938.37.212.8.318 1.3.318.32 0 .61-.046.88-.137.26-.094.49-.234.69-.42.19-.186.34-.415.44-.688l1.61.29c-.13.474-.36.888-.7 1.244-.33.353-.74.627-1.24.824-.5.194-1.06.29-1.7.29zm5.45 3.097v-12h1.66v1.415h.14c.1-.182.25-.393.43-.631.19-.239.44-.447.77-.625.33-.182.77-.273 1.31-.273.71 0 1.33.178 1.89.534.55.356.98.869 1.3 1.54.32.67.48 1.477.48 2.42 0 .944-.16 1.752-.48 2.427-.31.67-.74 1.187-1.29 1.551-.55.36-1.18.539-1.88.539-.53 0-.97-.089-1.3-.267-.34-.178-.6-.386-.79-.625-.19-.238-.33-.45-.44-.636h-.1v4.631h-1.7zm1.67-7.637c0 .614.09 1.152.27 1.614.17.462.43.824.77 1.085.34.258.75.387 1.24.387.5 0 .93-.135 1.27-.404.34-.273.6-.642.77-1.108.18-.466.27-.99.27-1.574a4.44 4.44 0 0 0-.26-1.551c-.17-.458-.43-.82-.77-1.085-.35-.265-.77-.398-1.28-.398-.5 0-.91.127-1.25.381-.34.254-.6.608-.77 1.062-.17.455-.26.985-.26 1.591zm11.71 4.54c-.82 0-1.53-.187-2.14-.562-.61-.375-1.09-.9-1.42-1.574-.34-.674-.51-1.462-.51-2.364 0-.905.17-1.697.51-2.375.33-.678.81-1.204 1.42-1.579.61-.375 1.32-.563 2.14-.563.82 0 1.53.188 2.14.563.61.375 1.08.901 1.42 1.579.34.678.51 1.47.51 2.375 0 .902-.17 1.69-.51 2.364-.34.674-.81 1.199-1.42 1.574-.61.375-1.32.562-2.14.562zm0-1.426c.53 0 .97-.14 1.32-.42.35-.281.61-.654.78-1.12.17-.466.25-.979.25-1.54 0-.556-.08-1.068-.25-1.534a2.527 2.527 0 0 0-.78-1.13c-.35-.284-.79-.426-1.32-.426s-.97.142-1.32.426c-.35.284-.61.661-.78 1.13-.17.466-.25.978-.25 1.534 0 .561.08 1.074.25 1.54.17.466.43.839.78 1.12.35.28.79.42 1.32.42zm12.33-5.347-1.54.273a1.961 1.961 0 0 0-.31-.562 1.523 1.523 0 0 0-.56-.438c-.23-.114-.52-.17-.88-.17-.48 0-.88.108-1.2.324-.32.212-.48.486-.48.823 0 .292.1.527.32.705.22.178.56.324 1.04.437l1.39.319c.8.185 1.4.471 1.8.858.39.386.59.888.59 1.505 0 .523-.15.989-.46 1.398-.3.405-.71.723-1.25.955-.54.231-1.16.346-1.86.346-.98 0-1.78-.208-2.39-.625-.62-.42-1-1.017-1.14-1.79l1.64-.25c.11.428.32.752.63.972.32.216.74.324 1.25.324.55 0 1-.116 1.33-.347.34-.235.5-.521.5-.858a.9.9 0 0 0-.3-.687c-.2-.186-.51-.326-.93-.421l-1.48-.324c-.81-.185-1.41-.481-1.8-.886-.39-.405-.58-.918-.58-1.54 0-.515.14-.966.43-1.352.29-.386.68-.687 1.19-.903.51-.22 1.09-.33 1.75-.33.94 0 1.68.205 2.22.614.55.405.9.949 1.08 1.63zm1.86 6.597v-8.727h1.7V419h-1.7zm.86-10.074c-.3 0-.55-.098-.76-.295a.964.964 0 0 1 0-1.432c.21-.201.46-.301.76-.301.29 0 .54.1.75.301.22.197.32.435.32.716 0 .276-.1.515-.32.716-.21.197-.46.295-.75.295zm7.02 1.347v1.363h-4.77v-1.363h4.77zm-3.49-2.091h1.7v8.256c0 .329.05.577.15.744a.8.8 0 0 0 .38.335c.16.057.33.085.52.085.13 0 .25-.009.36-.028.1-.019.18-.034.23-.046l.31 1.404c-.1.038-.24.076-.42.113a3.3 3.3 0 0 1-.68.069c-.45.007-.86-.072-1.25-.239-.39-.167-.7-.424-.94-.773-.24-.348-.36-.786-.36-1.312v-8.608zm-129.79 35.011c-.55 0-1.05-.102-1.5-.307a2.49 2.49 0 0 1-1.06-.903c-.26-.394-.39-.877-.39-1.449 0-.492.1-.898.28-1.216.19-.318.45-.57.77-.756.32-.185.68-.325 1.08-.42.4-.095.8-.167 1.22-.216l1.27-.148c.33-.041.56-.108.71-.198.15-.091.22-.239.22-.444v-.039c0-.497-.14-.881-.42-1.154-.28-.273-.69-.409-1.24-.409-.57 0-1.02.127-1.35.381-.33.25-.55.528-.68.835l-1.59-.364c.19-.53.46-.958.83-1.284.36-.329.79-.568 1.26-.716.48-.151.98-.227 1.51-.227.35 0 .72.042 1.11.125.39.08.76.227 1.1.443.35.216.63.525.85.926.22.398.33.915.33 1.552V443h-1.66v-1.193h-.07c-.11.22-.28.435-.5.648-.21.212-.5.388-.84.528-.35.14-.76.21-1.24.21zm.37-1.363c.47 0 .87-.093 1.2-.279.34-.185.6-.428.77-.727.18-.303.27-.627.27-.972v-1.125c-.06.061-.18.118-.35.171-.18.049-.37.093-.59.13-.22.034-.43.067-.64.097l-.52.068c-.33.042-.64.112-.91.21-.27.099-.48.241-.65.427-.15.181-.23.424-.23.727 0 .42.15.738.46.954.31.212.71.319 1.19.319zm12.56-5.427-1.54.273a1.715 1.715 0 0 0-.3-.562 1.61 1.61 0 0 0-.56-.438c-.24-.114-.53-.17-.88-.17-.48 0-.88.108-1.21.324-.32.212-.48.486-.48.823 0 .292.11.527.33.705.21.178.56.324 1.04.437l1.39.319c.8.185 1.4.471 1.79.858.4.386.59.888.59 1.505 0 .523-.15.989-.45 1.398-.3.405-.72.723-1.26.955-.53.231-1.15.346-1.85.346-.98 0-1.78-.208-2.4-.625-.61-.42-.99-1.017-1.13-1.79l1.64-.25c.1.428.31.752.63.972.32.216.73.324 1.24.324.56 0 1.01-.116 1.34-.347.33-.235.5-.521.5-.858 0-.272-.1-.502-.31-.687-.2-.186-.51-.326-.92-.421l-1.48-.324c-.82-.185-1.42-.481-1.81-.886-.38-.405-.58-.918-.58-1.54 0-.515.15-.966.43-1.352.29-.386.69-.687 1.2-.903.51-.22 1.09-.33 1.74-.33.95 0 1.69.205 2.23.614.54.405.9.949 1.07 1.63zm8.41 0-1.54.273a1.961 1.961 0 0 0-.31-.562 1.523 1.523 0 0 0-.56-.438c-.23-.114-.53-.17-.88-.17-.48 0-.88.108-1.2.324-.33.212-.49.486-.49.823 0 .292.11.527.33.705.21.178.56.324 1.04.437l1.39.319c.8.185 1.4.471 1.79.858.4.386.6.888.6 1.505 0 .523-.16.989-.46 1.398-.3.405-.72.723-1.25.955-.54.231-1.16.346-1.86.346-.98 0-1.78-.208-2.39-.625-.62-.42-1-1.017-1.14-1.79l1.64-.25c.1.428.31.752.63.972.32.216.73.324 1.25.324.55 0 1-.116 1.33-.347.33-.235.5-.521.5-.858 0-.272-.1-.502-.31-.687-.2-.186-.51-.326-.92-.421l-1.48-.324c-.81-.185-1.42-.481-1.81-.886-.38-.405-.58-.918-.58-1.54 0-.515.15-.966.44-1.352.28-.386.68-.687 1.19-.903.51-.22 1.09-.33 1.74-.33.95 0 1.69.205 2.23.614.54.405.9.949 1.08 1.63zm5.62 6.773c-.86 0-1.6-.184-2.22-.551a3.67 3.67 0 0 1-1.43-1.563c-.34-.674-.5-1.464-.5-2.369 0-.894.16-1.682.5-2.363.33-.682.8-1.214 1.4-1.597.61-.383 1.32-.574 2.13-.574.49 0 .97.082 1.43.244.46.163.88.419 1.25.767.36.349.65.802.86 1.358.22.553.32 1.226.32 2.017v.603h-6.93v-1.273h5.27c0-.447-.09-.843-.27-1.187a2.116 2.116 0 0 0-.77-.824 2.159 2.159 0 0 0-1.15-.302c-.48 0-.89.118-1.25.353-.35.231-.62.534-.82.909-.19.371-.28.774-.28 1.21v.994c0 .584.1 1.08.31 1.489.2.409.49.722.86.938.38.212.81.318 1.31.318.32 0 .61-.046.88-.137a1.855 1.855 0 0 0 1.13-1.108l1.61.29c-.13.474-.36.888-.7 1.244-.33.353-.74.627-1.24.824-.5.194-1.06.29-1.7.29zm9.53-8.903v1.363h-4.77v-1.363h4.77zm-3.49-2.091h1.7v8.256c0 .329.05.577.14.744a.8.8 0 0 0 .38.335c.16.057.34.085.52.085.14 0 .26-.009.36-.028l.24-.046.31 1.404c-.1.038-.24.076-.43.113-.18.042-.4.065-.68.069-.44.007-.86-.072-1.25-.239-.38-.167-.7-.424-.93-.773-.24-.348-.36-.786-.36-1.312v-8.608zm9.25 10.818v-8.727h1.7V443h-1.7zm.86-10.074c-.3 0-.55-.098-.77-.295a.991.991 0 0 1-.31-.716c0-.281.11-.519.31-.716.22-.201.47-.301.77-.301.29 0 .54.1.75.301a.964.964 0 0 1 0 1.432c-.21.197-.46.295-.75.295zm4.64 4.892V443h-1.69v-8.727h1.63v1.42h.1c.21-.462.52-.833.95-1.113.43-.281.97-.421 1.63-.421.59 0 1.11.125 1.56.375.45.246.79.614 1.04 1.102.25.489.37 1.093.37 1.813V443h-1.7v-5.347c0-.632-.16-1.126-.49-1.483-.33-.359-.79-.539-1.36-.539-.39 0-.75.085-1.05.255-.31.171-.55.421-.72.75-.18.326-.27.72-.27 1.182zm11.77-3.545v1.363h-4.77v-1.363h4.77zm-3.49-2.091h1.7v8.256c0 .329.05.577.14.744a.8.8 0 0 0 .38.335c.16.057.34.085.52.085.14 0 .26-.009.36-.028l.24-.046.31 1.404c-.1.038-.24.076-.43.113-.18.042-.4.065-.68.069-.44.007-.86-.072-1.25-.239-.38-.167-.7-.424-.93-.773-.24-.348-.36-.786-.36-1.312v-8.608zm8.77 10.994c-.82 0-1.53-.187-2.14-.562-.61-.375-1.08-.9-1.42-1.574-.34-.674-.51-1.462-.51-2.364 0-.905.17-1.697.51-2.375.34-.678.81-1.204 1.42-1.579.61-.375 1.32-.563 2.14-.563.82 0 1.53.188 2.14.563.61.375 1.09.901 1.42 1.579.34.678.51 1.47.51 2.375 0 .902-.17 1.69-.51 2.364a3.746 3.746 0 0 1-1.42 1.574c-.61.375-1.32.562-2.14.562zm.01-1.426c.53 0 .97-.14 1.32-.42.34-.281.6-.654.77-1.12.17-.466.25-.979.25-1.54 0-.556-.08-1.068-.25-1.534a2.59 2.59 0 0 0-.77-1.13c-.35-.284-.79-.426-1.32-.426-.54 0-.98.142-1.33.426-.35.284-.61.661-.78 1.13-.17.466-.25.978-.25 1.534 0 .561.08 1.074.25 1.54.17.466.43.839.78 1.12.35.28.79.42 1.33.42zm11.73 1.25-2.57-8.727h1.76l1.71 6.409h.08l1.72-6.409h1.76l1.7 6.38h.09l1.69-6.38h1.76l-2.56 8.727h-1.74l-1.77-6.301h-.13l-1.77 6.301h-1.73zm13.68.193c-.56 0-1.06-.102-1.5-.307a2.518 2.518 0 0 1-1.07-.903c-.25-.394-.38-.877-.38-1.449 0-.492.09-.898.28-1.216.19-.318.45-.57.77-.756.32-.185.68-.325 1.08-.42.4-.095.8-.167 1.21-.216.53-.06.95-.11 1.28-.148.32-.041.56-.108.71-.198.14-.091.22-.239.22-.444v-.039c0-.497-.14-.881-.42-1.154-.28-.273-.69-.409-1.24-.409-.57 0-1.02.127-1.35.381-.33.25-.55.528-.68.835l-1.6-.364c.19-.53.47-.958.83-1.284.37-.329.79-.568 1.27-.716.48-.151.98-.227 1.51-.227.34 0 .71.042 1.1.125.4.08.77.227 1.11.443.34.216.62.525.84.926.22.398.33.915.33 1.552V443h-1.66v-1.193h-.06c-.11.22-.28.435-.5.648-.22.212-.5.388-.85.528-.34.14-.75.21-1.23.21zm.37-1.363c.46 0 .87-.093 1.2-.279.34-.185.59-.428.77-.727.17-.303.26-.627.26-.972v-1.125c-.06.061-.17.118-.35.171-.17.049-.36.093-.58.13-.22.034-.44.067-.65.097l-.52.068c-.33.042-.63.112-.9.21-.27.099-.49.241-.65.427-.16.181-.24.424-.24.727 0 .42.16.738.47.954.31.212.7.319 1.19.319zm7.72-10.466V443h-1.7v-11.636h1.7zm3.81 0V443h-1.7v-11.636h1.7zm5.87 11.812c-.86 0-1.6-.184-2.22-.551a3.755 3.755 0 0 1-1.44-1.563c-.33-.674-.5-1.464-.5-2.369 0-.894.17-1.682.5-2.363.34-.682.81-1.214 1.41-1.597.61-.383 1.32-.574 2.13-.574.49 0 .97.082 1.43.244.46.163.88.419 1.24.767.37.349.66.802.87 1.358.22.553.32 1.226.32 2.017v.603h-6.94v-1.273h5.28c0-.447-.09-.843-.28-1.187a2.022 2.022 0 0 0-.76-.824 2.159 2.159 0 0 0-1.15-.302c-.48 0-.89.118-1.25.353-.35.231-.63.534-.82.909-.19.371-.28.774-.28 1.21v.994c0 .584.1 1.08.3 1.489.21.409.5.722.87.938.37.212.81.318 1.3.318.33 0 .62-.046.89-.137a1.855 1.855 0 0 0 1.13-1.108l1.6.29c-.12.474-.36.888-.69 1.244-.33.353-.74.627-1.24.824-.5.194-1.07.29-1.7.29zm9.52-8.903v1.363h-4.76v-1.363h4.76zm-3.48-2.091h1.69v8.256c0 .329.05.577.15.744a.8.8 0 0 0 .38.335c.16.057.33.085.52.085.14 0 .26-.009.36-.028l.24-.046.3 1.404a2.28 2.28 0 0 1-.42.113 3.3 3.3 0 0 1-.68.069c-.45.007-.86-.072-1.25-.239-.38-.167-.7-.424-.94-.773-.23-.348-.35-.786-.35-1.312v-8.608zm13.32 2.091v1.363h-4.77v-1.363h4.77zm-3.49-2.091h1.7v8.256c0 .329.05.577.15.744.1.163.22.274.38.335.16.057.33.085.52.085.13 0 .25-.009.35-.028.11-.019.19-.034.24-.046l.31 1.404c-.1.038-.24.076-.42.113a3.3 3.3 0 0 1-.68.069c-.45.007-.87-.072-1.25-.239-.39-.167-.7-.424-.94-.773-.24-.348-.36-.786-.36-1.312v-8.608zm8.78 10.994c-.82 0-1.54-.187-2.15-.562-.61-.375-1.08-.9-1.42-1.574-.33-.674-.5-1.462-.5-2.364 0-.905.17-1.697.5-2.375.34-.678.81-1.204 1.42-1.579.61-.375 1.33-.563 2.15-.563.81 0 1.53.188 2.14.563.61.375 1.08.901 1.42 1.579.34.678.5 1.47.5 2.375 0 .902-.16 1.69-.5 2.364-.34.674-.81 1.199-1.42 1.574-.61.375-1.33.562-2.14.562zm0-1.426c.53 0 .97-.14 1.32-.42.35-.281.61-.654.77-1.12.17-.466.26-.979.26-1.54 0-.556-.09-1.068-.26-1.534a2.434 2.434 0 0 0-.77-1.13c-.35-.284-.79-.426-1.32-.426s-.98.142-1.33.426c-.35.284-.61.661-.78 1.13-.16.466-.25.978-.25 1.534 0 .561.09 1.074.25 1.54.17.466.43.839.78 1.12.35.28.8.42 1.33.42zm-93.75 25.426c-.84 0-1.57-.191-2.18-.574-.61-.386-1.07-.918-1.4-1.596-.32-.678-.49-1.455-.49-2.33 0-.886.17-1.668.5-2.346.34-.682.81-1.214 1.41-1.597.61-.383 1.32-.574 2.14-.574.67 0 1.26.123 1.78.369.52.243.93.584 1.25 1.023.32.44.52.953.58 1.54h-1.66c-.09-.409-.3-.761-.62-1.057-.32-.295-.76-.443-1.3-.443-.47 0-.89.125-1.24.375-.35.246-.63.598-.83 1.057-.19.454-.29.992-.29 1.613 0 .637.09 1.186.29 1.648.19.462.46.82.82 1.074.35.254.77.381 1.25.381.32 0 .62-.059.88-.177.26-.121.48-.293.66-.517.18-.223.31-.492.38-.806h1.66a3.182 3.182 0 0 1-.56 1.511c-.3.443-.71.792-1.23 1.045-.51.254-1.11.381-1.8.381zm8.9 0c-.82 0-1.53-.187-2.14-.562-.61-.375-1.08-.9-1.42-1.574-.34-.674-.51-1.462-.51-2.364 0-.905.17-1.697.51-2.375.34-.678.81-1.204 1.42-1.579.61-.375 1.32-.563 2.14-.563.82 0 1.53.188 2.14.563.61.375 1.09.901 1.43 1.579.33.678.5 1.47.5 2.375 0 .902-.17 1.69-.5 2.364a3.835 3.835 0 0 1-1.43 1.574c-.61.375-1.32.562-2.14.562zm.01-1.426c.53 0 .97-.14 1.32-.42.34-.281.6-.654.77-1.12.17-.466.25-.979.25-1.54 0-.556-.08-1.068-.25-1.534a2.59 2.59 0 0 0-.77-1.13c-.35-.284-.79-.426-1.32-.426-.54 0-.98.142-1.33.426-.35.284-.61.661-.78 1.13-.17.466-.25.978-.25 1.534 0 .561.08 1.074.25 1.54.17.466.43.839.78 1.12.35.28.79.42 1.33.42zm7.48-3.932V467h-1.7v-8.727h1.63v1.42h.11c.2-.462.51-.833.94-1.113.43-.281.98-.421 1.63-.421.6 0 1.12.125 1.57.375.44.246.79.614 1.04 1.102.24.489.37 1.093.37 1.813V467h-1.7v-5.347c0-.632-.17-1.126-.5-1.483-.33-.359-.78-.539-1.36-.539-.39 0-.74.085-1.05.255-.3.171-.54.421-.72.75-.17.326-.26.72-.26 1.182zm11.76-3.545v1.363h-4.77v-1.363h4.77zm-3.49-2.091h1.7v8.256c0 .329.05.577.15.744.1.163.22.274.38.335.16.057.33.085.52.085.13 0 .25-.009.36-.028.1-.019.18-.034.23-.046l.31 1.404c-.1.038-.24.076-.42.113a3.3 3.3 0 0 1-.68.069c-.45.007-.87-.072-1.25-.239-.39-.167-.7-.424-.94-.773-.24-.348-.36-.786-.36-1.312v-8.608zm5.19 10.818v-8.727h1.7V467h-1.7zm.86-10.074c-.29 0-.55-.098-.76-.295a.954.954 0 0 1-.31-.716c0-.281.1-.519.31-.716.21-.201.47-.301.76-.301.3 0 .55.1.76.301a.964.964 0 0 1 0 1.432c-.21.197-.46.295-.76.295zm4.65 4.892V467h-1.7v-8.727h1.63v1.42h.11c.2-.462.52-.833.94-1.113.44-.281.98-.421 1.64-.421.59 0 1.11.125 1.56.375.45.246.79.614 1.04 1.102.24.489.37 1.093.37 1.813V467h-1.7v-5.347c0-.632-.17-1.126-.5-1.483-.33-.359-.78-.539-1.35-.539-.4 0-.75.085-1.06.255-.3.171-.54.421-.72.75-.17.326-.26.72-.26 1.182zm13.22 1.563v-5.108h1.7V467h-1.67v-1.511h-.09c-.2.466-.52.854-.96 1.164-.44.307-.99.461-1.65.461-.56 0-1.05-.123-1.49-.37-.42-.25-.76-.619-1.01-1.108-.24-.488-.36-1.092-.36-1.812v-5.551h1.7v5.346c0 .595.16 1.068.49 1.421.33.352.76.528 1.29.528.31 0 .63-.079.95-.238.31-.16.58-.4.79-.722.21-.322.31-.731.31-1.227zm7.57 3.795c-.86 0-1.6-.184-2.22-.551a3.67 3.67 0 0 1-1.43-1.563c-.34-.674-.5-1.464-.5-2.369 0-.894.16-1.682.5-2.363.33-.682.8-1.214 1.41-1.597.6-.383 1.31-.574 2.12-.574.49 0 .97.082 1.43.244.47.163.88.419 1.25.767.36.349.65.802.87 1.358.21.553.31 1.226.31 2.017v.603h-6.93v-1.273h5.27c0-.447-.09-.843-.27-1.187a2.046 2.046 0 0 0-.77-.824 2.159 2.159 0 0 0-1.15-.302c-.47 0-.89.118-1.25.353-.35.231-.62.534-.82.909-.18.371-.28.774-.28 1.21v.994c0 .584.1 1.08.31 1.489.21.409.5.722.87.938.37.212.8.318 1.3.318.32 0 .61-.046.88-.137.26-.094.49-.234.69-.42.19-.186.34-.415.44-.688l1.61.29c-.13.474-.36.888-.7 1.244-.33.353-.74.627-1.24.824-.5.194-1.06.29-1.7.29z"/><path fill="#B3B3B3" fill-opacity=".5" d="M995.844 240.243a6.005 6.005 0 0 1 7.316 0l108.5 82c3.12 2.401 3.12 7.113 0 9.514l-108.5 82a6.005 6.005 0 0 1-7.316 0l-108.5-82c-3.125-2.401-3.125-7.113 0-9.514l108.5-82z"/><path fill="#000" fill-opacity=".8" d="M949.961 297.364V309h-1.755v-11.636h1.755zm8.785 5.039-1.54.273a1.838 1.838 0 0 0-.307-.562 1.52 1.52 0 0 0-.557-.438c-.235-.114-.528-.17-.88-.17-.482 0-.883.108-1.205.324-.322.212-.483.486-.483.823 0 .292.108.527.324.705.216.178.564.324 1.045.437l1.387.319c.803.185 1.401.471 1.795.858.394.386.591.888.591 1.505 0 .523-.151.989-.454 1.398-.3.405-.718.723-1.256.955-.534.231-1.154.346-1.858.346-.977 0-1.775-.208-2.392-.625-.618-.42-.996-1.017-1.137-1.79l1.643-.25c.102.428.312.752.63.972.318.216.733.324 1.245.324.556 0 1.001-.116 1.335-.347.333-.235.5-.521.5-.858a.893.893 0 0 0-.307-.687c-.201-.186-.51-.326-.926-.421l-1.477-.324c-.815-.185-1.417-.481-1.807-.886-.387-.405-.58-.918-.58-1.54a2.2 2.2 0 0 1 .432-1.352c.288-.386.686-.687 1.193-.903.508-.22 1.089-.33 1.744-.33.944 0 1.686.205 2.228.614.541.405.899.949 1.074 1.63zm9.994-2.13v1.363h-4.767v-1.363h4.767zm-3.488-2.091h1.698v8.256c0 .329.05.577.148.744a.776.776 0 0 0 .381.335c.159.057.331.085.517.085.136 0 .256-.009.358-.028.102-.019.182-.034.238-.046l.307 1.404a2.718 2.718 0 0 1-.42.113 3.314 3.314 0 0 1-.682.069 2.994 2.994 0 0 1-1.25-.239 2.14 2.14 0 0 1-.937-.773c-.239-.348-.358-.786-.358-1.312v-8.608zm7.078 5.636V309h-1.699v-11.636h1.676v4.329h.108c.205-.47.517-.843.938-1.119.42-.277.969-.415 1.647-.415.599 0 1.122.123 1.568.369.451.247.8.614 1.046 1.103.25.485.375 1.091.375 1.818V309h-1.699v-5.347c0-.64-.165-1.136-.494-1.488-.33-.356-.788-.534-1.375-.534-.402 0-.762.085-1.08.255a1.853 1.853 0 0 0-.744.75c-.178.326-.267.72-.267 1.182zm7.75 5.182v-8.727h1.699V309h-1.699zm.858-10.074c-.296 0-.549-.098-.761-.295a.96.96 0 0 1-.313-.716c0-.281.104-.519.313-.716.212-.201.465-.301.761-.301.295 0 .547.1.756.301a.94.94 0 0 1 .318.716.954.954 0 0 1-.318.716 1.062 1.062 0 0 1-.756.295zm9.49 3.477-1.54.273a1.813 1.813 0 0 0-.306-.562 1.528 1.528 0 0 0-.557-.438c-.235-.114-.529-.17-.881-.17-.481 0-.883.108-1.205.324-.321.212-.482.486-.482.823 0 .292.107.527.323.705.216.178.565.324 1.046.437l1.386.319c.803.185 1.402.471 1.796.858.394.386.591.888.591 1.505 0 .523-.152.989-.455 1.398-.299.405-.718.723-1.256.955-.534.231-1.153.346-1.858.346-.977 0-1.774-.208-2.392-.625-.617-.42-.996-1.017-1.136-1.79l1.642-.25c.102.428.313.752.631.972.318.216.733.324 1.244.324.557 0 1.002-.116 1.335-.347.334-.235.5-.521.5-.858a.89.89 0 0 0-.307-.687c-.2-.186-.509-.326-.926-.421l-1.477-.324c-.814-.185-1.417-.481-1.807-.886-.386-.405-.579-.918-.579-1.54 0-.515.144-.966.431-1.352.288-.386.686-.687 1.194-.903.507-.22 1.089-.33 1.744-.33.943 0 1.686.205 2.227.614.542.405.9.949 1.074 1.63zm8.461 6.79a3.557 3.557 0 0 1-1.5-.307 2.522 2.522 0 0 1-1.063-.903c-.257-.394-.386-.877-.386-1.449 0-.492.094-.898.284-1.216.189-.318.445-.57.767-.756a4.042 4.042 0 0 1 1.079-.42 10.62 10.62 0 0 1 1.216-.216l1.274-.148c.32-.041.56-.108.71-.198.15-.091.22-.239.22-.444v-.039c0-.497-.14-.881-.42-1.154-.28-.273-.69-.409-1.238-.409-.572 0-1.023.127-1.352.381-.326.25-.552.528-.677.835l-1.596-.364c.189-.53.466-.958.829-1.284.368-.329.79-.568 1.267-.716a4.97 4.97 0 0 1 1.506-.227c.351 0 .721.042 1.111.125.39.08.76.227 1.1.443.34.216.63.525.85.926.22.398.33.915.33 1.552V309h-1.66v-1.193h-.07c-.11.22-.28.435-.5.648-.22.212-.5.388-.84.528-.347.14-.76.21-1.241.21zm.369-1.363c.47 0 .872-.093 1.202-.279.34-.185.6-.428.77-.727.18-.303.27-.627.27-.972v-1.125c-.06.061-.18.118-.36.171-.17.049-.36.093-.58.13-.22.034-.43.067-.643.097l-.523.068a4.27 4.27 0 0 0-.903.21 1.555 1.555 0 0 0-.648.427c-.159.181-.238.424-.238.727 0 .42.155.738.465.954.311.212.707.319 1.188.319zm6.022 1.17v-8.727h1.63v1.42h.11c.18-.481.48-.856.89-1.125.42-.273.91-.409 1.49-.409s1.07.136 1.46.409c.4.273.69.648.88 1.125h.09c.21-.466.54-.837 1-1.113.45-.281.99-.421 1.62-.421.79 0 1.44.248 1.94.744.5.497.76 1.245.76 2.245V309h-1.7v-5.693c0-.591-.16-1.019-.49-1.284a1.74 1.74 0 0 0-1.15-.398c-.55 0-.98.17-1.29.511-.31.337-.46.771-.46 1.302V309h-1.69v-5.801c0-.474-.15-.854-.45-1.142-.29-.288-.68-.432-1.15-.432-.32 0-.62.085-.89.256a1.8 1.8 0 0 0-.65.699c-.17.299-.25.645-.25 1.039V309h-1.7zm17.64.176c-.82 0-1.53-.187-2.14-.562-.61-.375-1.08-.9-1.42-1.574-.34-.674-.51-1.462-.51-2.364 0-.905.17-1.697.51-2.375.34-.678.81-1.204 1.42-1.579.61-.375 1.32-.563 2.14-.563.82 0 1.54.188 2.15.563.6.375 1.08.901 1.42 1.579.33.678.5 1.47.5 2.375 0 .902-.17 1.69-.5 2.364a3.881 3.881 0 0 1-1.42 1.574c-.61.375-1.33.562-2.15.562zm.01-1.426c.53 0 .97-.14 1.32-.42.35-.281.6-.654.77-1.12.17-.466.26-.979.26-1.54 0-.556-.09-1.068-.26-1.534-.17-.469-.42-.846-.77-1.13-.35-.284-.79-.426-1.32-.426-.54 0-.98.142-1.33.426-.35.284-.61.661-.78 1.13-.17.466-.25.978-.25 1.534 0 .561.08 1.074.25 1.54.17.466.43.839.78 1.12.35.28.79.42 1.33.42zm11.31-2.369v-5.108h1.7V309h-1.67v-1.511h-.09c-.2.466-.52.854-.96 1.164-.44.307-.99.461-1.64.461-.57 0-1.06-.123-1.49-.37a2.54 2.54 0 0 1-1.01-1.108c-.25-.488-.37-1.092-.37-1.812v-5.551h1.7v5.346c0 .595.17 1.068.49 1.421.33.352.76.528 1.29.528.32 0 .63-.079.95-.238.32-.16.58-.4.79-.722.21-.322.31-.731.31-1.227zm5.51-1.563V309h-1.7v-8.727h1.63v1.42h.11c.2-.462.51-.833.94-1.113.43-.281.98-.421 1.63-.421.6 0 1.12.125 1.57.375.44.246.79.614 1.04 1.102.24.489.37 1.093.37 1.813V309h-1.7v-5.347c0-.632-.17-1.126-.5-1.483-.33-.359-.78-.539-1.36-.539-.39 0-.74.085-1.05.255-.3.171-.54.421-.72.75-.17.326-.26.72-.26 1.182zm11.76-3.545v1.363h-4.77v-1.363h4.77zm-3.49-2.091h1.7v8.256c0 .329.05.577.15.744.1.163.22.274.38.335.16.057.33.085.52.085.13 0 .25-.009.36-.028.1-.019.18-.034.23-.046l.31 1.404c-.1.038-.24.076-.42.113a3.3 3.3 0 0 1-.68.069c-.45.007-.87-.072-1.25-.239-.39-.167-.7-.424-.94-.773-.24-.348-.36-.786-.36-1.312v-8.608zm-86.267 35.011a3.557 3.557 0 0 1-1.5-.307 2.52 2.52 0 0 1-1.062-.903c-.258-.394-.386-.877-.386-1.449 0-.492.094-.898.284-1.216.189-.318.445-.57.767-.756a4.042 4.042 0 0 1 1.079-.42 10.62 10.62 0 0 1 1.216-.216l1.273-.148c.326-.041.562-.108.71-.198.148-.091.222-.239.222-.444v-.039c0-.497-.14-.881-.421-1.154-.276-.273-.689-.409-1.238-.409-.572 0-1.023.127-1.353.381-.325.25-.551.528-.676.835l-1.596-.364c.189-.53.466-.958.829-1.284.368-.329.79-.568 1.267-.716a4.96 4.96 0 0 1 1.506-.227c.348 0 .718.042 1.108.125.394.08.761.227 1.102.443.345.216.627.525.847.926.219.398.329.915.329 1.552V333h-1.659v-1.193h-.068c-.11.22-.275.435-.494.648-.22.212-.502.388-.847.528s-.757.21-1.239.21zm.37-1.363c.469 0 .871-.093 1.204-.279.337-.185.593-.428.767-.727.178-.303.267-.627.267-.972v-1.125c-.06.061-.178.118-.352.171-.17.049-.365.093-.585.13-.22.034-.434.067-.642.097l-.523.068a4.255 4.255 0 0 0-.903.21 1.555 1.555 0 0 0-.648.427c-.159.181-.239.424-.239.727 0 .42.156.738.466.954.311.212.707.319 1.188.319zm13.177-7.557L972.136 333h-1.818l-3.171-8.727h1.824l2.21 6.716h.091l2.205-6.716h1.823zm3.711 8.92a3.557 3.557 0 0 1-1.5-.307 2.528 2.528 0 0 1-1.063-.903c-.257-.394-.386-.877-.386-1.449 0-.492.095-.898.284-1.216.189-.318.445-.57.767-.756a4.035 4.035 0 0 1 1.08-.42c.397-.095.803-.167 1.216-.216l1.272-.148c.326-.041.563-.108.711-.198.147-.091.221-.239.221-.444v-.039c0-.497-.14-.881-.42-1.154-.277-.273-.69-.409-1.239-.409-.572 0-1.023.127-1.352.381-.326.25-.551.528-.676.835l-1.597-.364c.189-.53.466-.958.83-1.284a3.367 3.367 0 0 1 1.267-.716 4.959 4.959 0 0 1 1.505-.227c.349 0 .718.042 1.108.125.394.08.762.227 1.103.443.344.216.626.525.846.926.22.398.33.915.33 1.552V333h-1.659v-1.193h-.069c-.109.22-.274.435-.494.648-.22.212-.502.388-.847.528-.344.14-.757.21-1.238.21zm.369-1.363c.47 0 .871-.093 1.205-.279.337-.185.592-.428.767-.727.178-.303.267-.627.267-.972v-1.125c-.061.061-.178.118-.352.171a5.366 5.366 0 0 1-.586.13c-.219.034-.433.067-.642.097l-.522.068c-.33.042-.631.112-.904.21a1.555 1.555 0 0 0-.648.427c-.159.181-.238.424-.238.727 0 .42.155.738.466.954.31.212.706.319 1.187.319zm6.024 1.17v-8.727h1.699V333h-1.699zm.858-10.074a1.08 1.08 0 0 1-.761-.295.963.963 0 0 1-.312-.716c0-.281.104-.519.312-.716.212-.201.466-.301.761-.301.296 0 .548.1.756.301a.94.94 0 0 1 .318.716.954.954 0 0 1-.318.716c-.208.197-.46.295-.756.295zm4.65-1.562V333h-1.699v-11.636h1.699zm4.649 11.829a3.557 3.557 0 0 1-1.5-.307 2.528 2.528 0 0 1-1.063-.903c-.257-.394-.386-.877-.386-1.449 0-.492.095-.898.284-1.216.19-.318.445-.57.767-.756a4.035 4.035 0 0 1 1.08-.42c.397-.095.803-.167 1.216-.216l1.272-.148c.326-.041.563-.108.711-.198.147-.091.221-.239.221-.444v-.039c0-.497-.14-.881-.42-1.154-.277-.273-.69-.409-1.239-.409-.572 0-1.023.127-1.352.381-.326.25-.551.528-.676.835l-1.597-.364c.19-.53.466-.958.83-1.284a3.367 3.367 0 0 1 1.267-.716 4.959 4.959 0 0 1 1.505-.227c.349 0 .718.042 1.108.125.394.08.762.227 1.103.443.344.216.627.525.846.926.22.398.33.915.33 1.552V333h-1.659v-1.193h-.069c-.109.22-.274.435-.494.648-.22.212-.502.388-.846.528-.345.14-.758.21-1.239.21zm.369-1.363c.47 0 .871-.093 1.205-.279.337-.185.593-.428.767-.727.178-.303.267-.627.267-.972v-1.125c-.061.061-.178.118-.352.171a5.366 5.366 0 0 1-.586.13c-.219.034-.433.067-.642.097l-.522.068c-.33.042-.631.112-.904.21a1.555 1.555 0 0 0-.648.427c-.159.181-.238.424-.238.727 0 .42.155.738.466.954.31.212.706.319 1.187.319zm6.16 1.17v-11.636h1.7v4.324h.1c.1-.182.24-.393.43-.631.18-.239.44-.447.77-.625.33-.182.77-.273 1.31-.273.7 0 1.33.178 1.88.534.56.356.99.869 1.31 1.54.31.67.47 1.477.47 2.42 0 .944-.15 1.752-.47 2.427-.31.67-.75 1.187-1.29 1.551-.55.36-1.18.539-1.89.539-.53 0-.96-.089-1.3-.267a2.483 2.483 0 0 1-.78-.625c-.19-.238-.34-.45-.44-.636h-.14V333h-1.66zm1.67-4.364c0 .614.08 1.152.26 1.614.18.462.44.824.78 1.085.33.258.75.387 1.23.387.51 0 .94-.135 1.28-.404.34-.273.6-.642.77-1.108.18-.466.27-.99.27-1.574a4.44 4.44 0 0 0-.26-1.551c-.18-.458-.43-.82-.78-1.085-.34-.265-.76-.398-1.28-.398-.49 0-.91.127-1.25.381-.33.254-.59.608-.76 1.062-.18.455-.26.985-.26 1.591zm9.73-7.272V333h-1.7v-11.636h1.7zm5.87 11.812c-.86 0-1.6-.184-2.22-.551-.62-.371-1.09-.892-1.43-1.563-.33-.674-.5-1.464-.5-2.369 0-.894.17-1.682.5-2.363.34-.682.81-1.214 1.41-1.597.61-.383 1.31-.574 2.12-.574.5 0 .97.082 1.44.244a3.5 3.5 0 0 1 1.24.767c.37.349.66.802.87 1.358.21.553.32 1.226.32 2.017v.603h-6.94v-1.273h5.27c0-.447-.09-.843-.27-1.187a2.046 2.046 0 0 0-.77-.824c-.32-.201-.7-.302-1.14-.302-.48 0-.9.118-1.25.353-.36.231-.63.534-.82.909-.19.371-.29.774-.29 1.21v.994c0 .584.11 1.08.31 1.489.21.409.5.722.87.938.37.212.8.318 1.3.318.32 0 .62-.046.88-.137.27-.094.5-.234.69-.42.19-.186.34-.415.44-.688l1.61.29a2.95 2.95 0 0 1-.69 1.244c-.33.353-.75.627-1.25.824-.49.194-1.06.29-1.7.29zm9.52-.176v-8.727h1.69V333h-1.69zm.85-10.074c-.29 0-.55-.098-.76-.295a.954.954 0 0 1-.31-.716c0-.281.1-.519.31-.716.21-.201.47-.301.76-.301.3 0 .55.1.76.301a.964.964 0 0 1 0 1.432c-.21.197-.46.295-.76.295zm4.65 4.892V333h-1.7v-8.727h1.63v1.42h.11c.2-.462.52-.833.95-1.113.43-.281.97-.421 1.63-.421.59 0 1.11.125 1.56.375.45.246.79.614 1.04 1.102.24.489.37 1.093.37 1.813V333h-1.7v-5.347c0-.632-.17-1.126-.5-1.483-.32-.359-.78-.539-1.35-.539-.4 0-.75.085-1.05.255-.31.171-.55.421-.73.75-.17.326-.26.72-.26 1.182zM968 348.273v1.363h-4.767v-1.363H968zm-3.489-2.091h1.699v8.256c0 .329.05.577.148.744a.772.772 0 0 0 .381.335c.159.057.331.085.517.085.136 0 .255-.009.358-.028.102-.019.182-.034.238-.046l.307 1.404a2.718 2.718 0 0 1-.42.113 3.314 3.314 0 0 1-.682.069 2.994 2.994 0 0 1-1.25-.239 2.149 2.149 0 0 1-.938-.773c-.238-.348-.358-.786-.358-1.312v-8.608zm7.079 5.636V357h-1.699v-11.636h1.676v4.329h.108c.204-.47.517-.843.937-1.119.421-.277.97-.415 1.648-.415.599 0 1.121.123 1.568.369.451.247.8.614 1.046 1.103.25.485.375 1.091.375 1.818V357h-1.699v-5.347c0-.64-.165-1.136-.494-1.488-.33-.356-.788-.534-1.375-.534-.402 0-.762.085-1.08.255a1.853 1.853 0 0 0-.744.75c-.178.326-.267.72-.267 1.182zm11.511 5.358c-.86 0-1.6-.184-2.221-.551a3.731 3.731 0 0 1-1.432-1.563c-.334-.674-.5-1.464-.5-2.369 0-.894.166-1.682.5-2.363a3.886 3.886 0 0 1 1.409-1.597c.606-.383 1.314-.574 2.125-.574a4.3 4.3 0 0 1 1.432.244c.462.163.877.419 1.244.767.367.349.657.802.869 1.358.212.553.319 1.226.319 2.017v.603h-6.938v-1.273h5.273c0-.447-.091-.843-.273-1.187a2.052 2.052 0 0 0-.767-.824c-.326-.201-.708-.302-1.148-.302-.477 0-.894.118-1.25.353a2.364 2.364 0 0 0-.818.909 2.626 2.626 0 0 0-.284 1.21v.994c0 .584.102 1.08.307 1.489.208.409.498.722.869.938.371.212.805.318 1.301.318a2.7 2.7 0 0 0 .881-.137 1.83 1.83 0 0 0 1.131-1.108l1.608.29c-.129.474-.36.888-.694 1.244a3.346 3.346 0 0 1-1.244.824c-.496.194-1.062.29-1.699.29zm11.404-.176-2.568-8.727h1.755l1.711 6.409h.085l1.716-6.409h1.755l1.701 6.38h.09l1.7-6.38h1.75l-2.56 8.727h-1.732l-1.772-6.301h-.131L996.232 357h-1.727zm13.675.193c-.55 0-1.05-.102-1.5-.307a2.49 2.49 0 0 1-1.06-.903c-.26-.394-.39-.877-.39-1.449 0-.492.1-.898.28-1.216.19-.318.45-.57.77-.756.32-.185.68-.325 1.08-.42.4-.095.8-.167 1.22-.216l1.27-.148c.33-.041.56-.108.71-.198.15-.091.22-.239.22-.444v-.039c0-.497-.14-.881-.42-1.154-.27-.273-.69-.409-1.24-.409-.57 0-1.02.127-1.35.381-.33.25-.55.528-.68.835l-1.59-.364c.19-.53.46-.958.83-1.284.36-.329.79-.568 1.26-.716.48-.151.98-.227 1.51-.227.35 0 .72.042 1.11.125.39.08.76.227 1.1.443.35.216.63.525.85.926.22.398.33.915.33 1.552V357h-1.66v-1.193h-.07c-.11.22-.28.435-.5.648-.21.212-.5.388-.84.528-.35.14-.76.21-1.24.21zm.37-1.363c.47 0 .87-.093 1.2-.279.34-.185.6-.428.77-.727.18-.303.27-.627.27-.972v-1.125c-.06.061-.18.118-.35.171-.18.049-.37.093-.59.13-.22.034-.43.067-.64.097l-.52.068c-.33.042-.64.112-.91.21-.27.099-.48.241-.65.427-.15.181-.23.424-.23.727 0 .42.15.738.46.954.31.212.71.319 1.19.319zm7.72-10.466V357h-1.7v-11.636h1.7zm3.81 0V357h-1.7v-11.636h1.7zm5.87 11.812c-.86 0-1.6-.184-2.22-.551-.62-.371-1.09-.892-1.43-1.563-.34-.674-.5-1.464-.5-2.369 0-.894.16-1.682.5-2.363.34-.682.8-1.214 1.41-1.597.6-.383 1.31-.574 2.12-.574.49 0 .97.082 1.43.244.47.163.88.419 1.25.767.37.349.66.802.87 1.358.21.553.32 1.226.32 2.017v.603h-6.94v-1.273h5.27c0-.447-.09-.843-.27-1.187a2.046 2.046 0 0 0-.77-.824c-.32-.201-.71-.302-1.15-.302-.47 0-.89.118-1.25.353-.35.231-.62.534-.81.909-.19.371-.29.774-.29 1.21v.994c0 .584.1 1.08.31 1.489.21.409.5.722.87.938.37.212.8.318 1.3.318.32 0 .61-.046.88-.137.26-.094.49-.234.69-.42.19-.186.34-.415.44-.688l1.61.29c-.13.474-.36.888-.7 1.244-.32.353-.74.627-1.24.824-.5.194-1.06.29-1.7.29zm9.53-8.903v1.363h-4.77v-1.363h4.77zm-3.49-2.091h1.7v8.256c0 .329.05.577.15.744.1.163.22.274.38.335.16.057.33.085.51.085.14 0 .26-.009.36-.028l.24-.046.31 1.404c-.1.038-.24.076-.42.113a3.3 3.3 0 0 1-.68.069c-.45.007-.87-.072-1.25-.239-.39-.167-.7-.424-.94-.773-.24-.348-.36-.786-.36-1.312v-8.608z"/><path fill="#B3B3B3" d="M761 325.5a1.5 1.5 0 0 0 0 3v-3zm121.061 2.561a1.502 1.502 0 0 0 0-2.122l-9.546-9.546a1.502 1.502 0 0 0-2.122 0 1.502 1.502 0 0 0 0 2.122l8.486 8.485-8.486 8.485a1.502 1.502 0 0 0 0 2.122 1.502 1.502 0 0 0 2.122 0l9.546-9.546zM761 328.5h120v-3H761v3z"/><rect width="156" height="118" x="1252.5" y="48" fill="#F1E5FF" stroke="#8638E5" stroke-linecap="round" stroke-miterlimit="0" stroke-width="4" rx="6"/><path fill="#8638E5" d="M1286.79 113v-11.636h4.15c.9 0 1.65.155 2.24.466.6.31 1.05.74 1.34 1.289.3.546.45 1.176.45 1.892 0 .712-.15 1.339-.45 1.881-.3.538-.74.956-1.34 1.256-.6.299-1.35.449-2.25.449h-3.14v-1.512h2.98c.57 0 1.03-.081 1.39-.244.36-.163.62-.4.79-.71.17-.311.25-.684.25-1.12 0-.439-.08-.82-.26-1.142-.16-.322-.43-.568-.79-.738-.35-.175-.82-.262-1.4-.262h-2.2V113h-1.76zm5.75-5.25 2.87 5.25h-2l-2.82-5.25h1.95zm7.9 5.426c-.86 0-1.6-.184-2.22-.551-.62-.371-1.09-.892-1.43-1.563-.33-.674-.5-1.464-.5-2.369 0-.894.17-1.682.5-2.363.34-.682.81-1.214 1.41-1.597.61-.383 1.31-.574 2.12-.574.5 0 .97.082 1.44.244a3.5 3.5 0 0 1 1.24.767c.37.349.66.802.87 1.358.21.553.32 1.226.32 2.017v.603h-6.94v-1.273h5.27c0-.447-.09-.843-.27-1.187a2.046 2.046 0 0 0-.77-.824c-.32-.201-.71-.302-1.14-.302-.48 0-.9.118-1.25.353-.36.231-.63.534-.82.909-.19.371-.29.774-.29 1.21v.994c0 .584.11 1.08.31 1.489.21.409.5.722.87.938.37.212.8.318 1.3.318.32 0 .62-.046.88-.137.27-.094.5-.234.69-.42.19-.186.34-.415.44-.688l1.61.29a2.95 2.95 0 0 1-.69 1.244c-.33.353-.75.627-1.25.824-.49.194-1.06.29-1.7.29zm12.67-8.903-3.16 8.727h-1.82l-3.17-8.727h1.82l2.21 6.716h.09l2.21-6.716h1.82zm1.42 8.727v-8.727h1.7V113h-1.7zm.86-10.074c-.29 0-.55-.098-.76-.295a.954.954 0 0 1-.31-.716c0-.281.1-.519.31-.716.21-.201.47-.301.76-.301.3 0 .55.1.76.301a.94.94 0 0 1 .31.716c0 .276-.1.515-.31.716-.21.197-.46.295-.76.295zm6.71 10.25c-.86 0-1.6-.184-2.22-.551-.62-.371-1.09-.892-1.43-1.563-.33-.674-.5-1.464-.5-2.369 0-.894.17-1.682.5-2.363.34-.682.81-1.214 1.41-1.597.6-.383 1.31-.574 2.12-.574.5 0 .97.082 1.44.244a3.5 3.5 0 0 1 1.24.767c.37.349.66.802.87 1.358.21.553.32 1.226.32 2.017v.603h-6.94v-1.273h5.27c0-.447-.09-.843-.27-1.187a2.046 2.046 0 0 0-.77-.824c-.32-.201-.71-.302-1.15-.302-.47 0-.89.118-1.25.353-.35.231-.62.534-.81.909-.19.371-.29.774-.29 1.21v.994c0 .584.1 1.08.31 1.489.21.409.5.722.87.938.37.212.8.318 1.3.318.32 0 .62-.046.88-.137.27-.094.49-.234.69-.42.19-.186.34-.415.44-.688l1.61.29a2.95 2.95 0 0 1-.69 1.244c-.33.353-.75.627-1.25.824-.49.194-1.06.29-1.7.29zm7.33-.176-2.57-8.727h1.76l1.71 6.409h.09l1.71-6.409h1.76l1.7 6.38h.09l1.7-6.38h1.75l-2.56 8.727h-1.73l-1.78-6.301h-.13l-1.77 6.301h-1.73zm15.2 3.273v-12h1.66v1.415h.14c.1-.182.24-.393.42-.631.19-.239.45-.447.78-.625.33-.182.76-.273 1.3-.273.71 0 1.34.178 1.89.534.55.356.99.869 1.3 1.54.32.67.48 1.477.48 2.42 0 .944-.16 1.752-.47 2.427-.32.67-.75 1.187-1.3 1.551-.55.36-1.18.539-1.88.539-.53 0-.96-.089-1.3-.267-.33-.178-.6-.386-.79-.625-.18-.238-.33-.45-.43-.636h-.11v4.631h-1.69zm1.66-7.637c0 .614.09 1.152.27 1.614.18.462.43.824.77 1.085.34.258.75.387 1.24.387.51 0 .93-.135 1.27-.404.34-.273.6-.642.77-1.108.18-.466.27-.99.27-1.574a4.44 4.44 0 0 0-.26-1.551c-.17-.458-.43-.82-.77-1.085s-.77-.398-1.28-.398c-.49 0-.91.127-1.25.381-.34.254-.59.608-.77 1.062-.17.455-.26.985-.26 1.591zm9.73-7.272V113h-1.7v-11.636h1.7zm4.65 11.829c-.55 0-1.05-.102-1.5-.307a2.55 2.55 0 0 1-1.06-.903c-.26-.394-.39-.877-.39-1.449 0-.492.1-.898.29-1.216.19-.318.44-.57.77-.756.32-.185.68-.325 1.07-.42.4-.095.81-.167 1.22-.216l1.27-.148c.33-.041.57-.108.71-.198.15-.091.23-.239.23-.444v-.039c0-.497-.14-.881-.43-1.154-.27-.273-.68-.409-1.23-.409-.58 0-1.03.127-1.36.381-.32.25-.55.528-.67.835l-1.6-.364c.19-.53.47-.958.83-1.284.37-.329.79-.568 1.27-.716a4.97 4.97 0 0 1 1.5-.227c.35 0 .72.042 1.11.125.4.08.76.227 1.1.443.35.216.63.525.85.926.22.398.33.915.33 1.552V113h-1.66v-1.193h-.07c-.11.22-.27.435-.49.648-.22.212-.5.388-.85.528-.34.14-.76.21-1.24.21zm.37-1.363c.47 0 .87-.093 1.21-.279a1.946 1.946 0 0 0 1.03-1.699v-1.125c-.06.061-.18.118-.35.171a5.4 5.4 0 0 1-.59.13c-.22.034-.43.067-.64.097l-.52.068c-.33.042-.63.112-.9.21-.27.099-.49.241-.65.427-.16.181-.24.424-.24.727 0 .42.15.738.46.954.32.212.71.319 1.19.319zm7.73-4.012V113h-1.7v-8.727h1.63v1.42h.11c.2-.462.51-.833.94-1.113.43-.281.97-.421 1.63-.421.59 0 1.11.125 1.56.375.45.246.8.614 1.04 1.102.25.489.37 1.093.37 1.813V113h-1.7v-5.347c0-.632-.16-1.126-.49-1.483-.33-.359-.78-.539-1.36-.539-.39 0-.74.085-1.05.255-.3.171-.55.421-.72.75-.18.326-.26.72-.26 1.182z"/><path fill="#14AE5C" d="M998 235a1.5 1.5 0 0 0 3 0h-3zm104-126.5a1.5 1.5 0 1 0 0-3v3zm44-3a1.5 1.5 0 1 0 0 3v-3zm103.56 2.561c.59-.586.59-1.536 0-2.122l-9.55-9.546a1.498 1.498 0 0 0-2.12 0 1.51 1.51 0 0 0 0 2.122l8.49 8.485-8.49 8.485a1.511 1.511 0 0 0 0 2.122 1.5 1.5 0 0 0 2.12 0l9.55-9.546zM1001 235V131h-3v104h3zm22.5-126.5h78.5v-3h-78.5v3zm122.5 0h102.5v-3H1146v3zM1001 131c0-12.426 10.07-22.5 22.5-22.5v-3c-14.08 0-25.5 11.417-25.5 25.5h3z"/><path fill="#14AE5C" d="M1102 87h44v40h-44z"/><path fill="#fff" d="M1110.81 101.364h2l3.04 5.289h.12l3.04-5.289h2l-4.22 7.068V113h-1.75v-4.568l-4.23-7.068zm13.87 11.812c-.86 0-1.6-.184-2.22-.551a3.755 3.755 0 0 1-1.44-1.563c-.33-.674-.5-1.464-.5-2.369 0-.894.17-1.682.5-2.363.34-.682.81-1.214 1.41-1.597.61-.383 1.32-.574 2.13-.574.49 0 .97.082 1.43.244.46.163.88.419 1.24.767.37.349.66.802.87 1.358.22.553.32 1.226.32 2.017v.603h-6.94v-1.273h5.28c0-.447-.09-.843-.28-1.187a2.022 2.022 0 0 0-.76-.824 2.159 2.159 0 0 0-1.15-.302c-.48 0-.9.118-1.25.353-.35.231-.63.534-.82.909-.19.371-.28.774-.28 1.21v.994c0 .584.1 1.08.3 1.489.21.409.5.722.87.938.37.212.81.318 1.3.318.33 0 .62-.046.88-.137a1.855 1.855 0 0 0 1.14-1.108l1.6.29a2.95 2.95 0 0 1-.69 1.244c-.33.353-.74.627-1.24.824-.5.194-1.07.29-1.7.29zm11.99-6.773-1.54.273a1.747 1.747 0 0 0-.31-.562 1.485 1.485 0 0 0-.55-.438c-.24-.114-.53-.17-.88-.17-.49 0-.89.108-1.21.324-.32.212-.48.486-.48.823 0 .292.11.527.32.705.22.178.57.324 1.05.437l1.38.319c.81.185 1.41.471 1.8.858.39.386.59.888.59 1.505 0 .523-.15.989-.45 1.398-.3.405-.72.723-1.26.955-.53.231-1.15.346-1.86.346-.98 0-1.77-.208-2.39-.625-.62-.42-1-1.017-1.14-1.79l1.65-.25c.1.428.31.752.63.972.31.216.73.324 1.24.324.56 0 1-.116 1.34-.347.33-.235.5-.521.5-.858a.91.91 0 0 0-.31-.687c-.2-.186-.51-.326-.93-.421l-1.47-.324c-.82-.185-1.42-.481-1.81-.886-.39-.405-.58-.918-.58-1.54 0-.515.14-.966.43-1.352.29-.386.69-.687 1.19-.903.51-.22 1.09-.33 1.75-.33.94 0 1.68.205 2.23.614.54.405.9.949 1.07 1.63z"/><rect width="229" height="118" x="1478.5" y="48" fill="#F1E5FF" stroke="#8638E5" stroke-linecap="round" stroke-miterlimit="0" stroke-width="4" rx="6"/><path fill="#8638E5" d="M1562.62 105.148h-1.78a2.507 2.507 0 0 0-.38-1 2.686 2.686 0 0 0-.68-.733 2.959 2.959 0 0 0-.9-.455 3.536 3.536 0 0 0-1.05-.153c-.67 0-1.27.168-1.8.505-.53.338-.95.832-1.25 1.483-.31.652-.46 1.447-.46 2.387 0 .947.15 1.746.46 2.398.3.651.72 1.143 1.25 1.477.53.333 1.13.5 1.79.5.37 0 .72-.049 1.05-.148.33-.102.63-.252.9-.449s.5-.437.68-.721c.19-.288.32-.618.39-.989l1.78.006c-.1.572-.28 1.098-.56 1.579-.26.477-.61.89-1.03 1.239-.43.345-.91.612-1.45.801-.54.189-1.13.284-1.77.284-1.01 0-1.91-.239-2.69-.716-.79-.481-1.41-1.168-1.87-2.062-.45-.894-.67-1.961-.67-3.199 0-1.243.22-2.309.68-3.199.45-.894 1.07-1.58 1.86-2.057.79-.481 1.69-.721 2.69-.721.62 0 1.19.089 1.73.267.53.174 1.02.431 1.45.772.42.337.78.75 1.06 1.239.28.485.47 1.04.57 1.665zm5.46 8.028c-.82 0-1.53-.187-2.14-.562-.61-.375-1.08-.9-1.42-1.574-.34-.674-.51-1.462-.51-2.364 0-.905.17-1.697.51-2.375.34-.678.81-1.204 1.42-1.579.61-.375 1.32-.563 2.14-.563.82 0 1.53.188 2.14.563.61.375 1.09.901 1.42 1.579.34.678.51 1.47.51 2.375 0 .902-.17 1.69-.51 2.364a3.746 3.746 0 0 1-1.42 1.574c-.61.375-1.32.562-2.14.562zm.01-1.426c.53 0 .97-.14 1.31-.42.35-.281.61-.654.78-1.12.17-.466.25-.979.25-1.54 0-.556-.08-1.068-.25-1.534a2.527 2.527 0 0 0-.78-1.13c-.34-.284-.78-.426-1.31-.426-.54 0-.98.142-1.33.426-.35.284-.61.661-.78 1.13-.17.466-.25.978-.25 1.534 0 .561.08 1.074.25 1.54.17.466.43.839.78 1.12.35.28.79.42 1.33.42zm5.78 1.25v-8.727h1.63v1.42h.11c.18-.481.48-.856.89-1.125.41-.273.91-.409 1.48-.409.59 0 1.07.136 1.47.409.4.273.69.648.88 1.125h.09c.21-.466.54-.837.99-1.113.46-.281 1-.421 1.63-.421.79 0 1.44.248 1.94.744.5.497.75 1.245.75 2.245V113h-1.7v-5.693c0-.591-.16-1.019-.48-1.284a1.758 1.758 0 0 0-1.15-.398c-.56 0-.99.17-1.29.511-.31.337-.46.771-.46 1.302V113h-1.7v-5.801c0-.474-.14-.854-.44-1.142-.29-.288-.68-.432-1.15-.432-.32 0-.62.085-.89.256a1.9 1.9 0 0 0-.66.699c-.16.299-.24.645-.24 1.039V113h-1.7zm13.96 3.273v-12h1.66v1.415h.14c.1-.182.25-.393.43-.631.19-.239.44-.447.77-.625.33-.182.77-.273 1.31-.273.71 0 1.33.178 1.89.534.55.356.98.869 1.3 1.54.32.67.48 1.477.48 2.42 0 .944-.16 1.752-.48 2.427-.31.67-.74 1.187-1.29 1.551-.55.36-1.18.539-1.88.539-.53 0-.97-.089-1.3-.267-.34-.178-.6-.386-.79-.625-.19-.238-.33-.45-.44-.636h-.1v4.631h-1.7zm1.67-7.637c0 .614.09 1.152.27 1.614.17.462.43.824.77 1.085.34.258.75.387 1.24.387.5 0 .93-.135 1.27-.404.34-.273.6-.642.77-1.108.18-.466.27-.99.27-1.574a4.44 4.44 0 0 0-.26-1.551c-.17-.458-.43-.82-.77-1.085-.35-.265-.77-.398-1.28-.398-.5 0-.91.127-1.25.381-.34.254-.6.608-.77 1.062-.17.455-.26.985-.26 1.591zm9.73-7.272V113h-1.7v-11.636h1.7zm5.87 11.812c-.86 0-1.6-.184-2.22-.551-.62-.371-1.09-.892-1.43-1.563-.33-.674-.5-1.464-.5-2.369 0-.894.17-1.682.5-2.363.34-.682.81-1.214 1.41-1.597.6-.383 1.31-.574 2.12-.574.5 0 .97.082 1.43.244.47.163.88.419 1.25.767.37.349.66.802.87 1.358.21.553.32 1.226.32 2.017v.603h-6.94v-1.273h5.27c0-.447-.09-.843-.27-1.187a2.046 2.046 0 0 0-.77-.824c-.32-.201-.71-.302-1.15-.302-.47 0-.89.118-1.25.353-.35.231-.62.534-.81.909-.19.371-.29.774-.29 1.21v.994c0 .584.1 1.08.31 1.489.21.409.5.722.87.938.37.212.8.318 1.3.318.32 0 .61-.046.88-.137.27-.094.49-.234.69-.42.19-.186.34-.415.44-.688l1.61.29a2.95 2.95 0 0 1-.69 1.244c-.33.353-.75.627-1.25.824-.49.194-1.06.29-1.7.29zm9.53-8.903v1.363h-4.77v-1.363h4.77zm-3.49-2.091h1.7v8.256c0 .329.05.577.15.744.1.163.22.274.38.335.16.057.33.085.52.085.13 0 .25-.009.35-.028.11-.019.18-.034.24-.046l.31 1.404c-.1.038-.24.076-.42.113a3.3 3.3 0 0 1-.68.069c-.45.007-.87-.072-1.25-.239-.39-.167-.7-.424-.94-.773-.24-.348-.36-.786-.36-1.312v-8.608zm8.86 10.994c-.86 0-1.6-.184-2.22-.551a3.67 3.67 0 0 1-1.43-1.563c-.34-.674-.5-1.464-.5-2.369 0-.894.16-1.682.5-2.363.33-.682.8-1.214 1.41-1.597.6-.383 1.31-.574 2.12-.574.49 0 .97.082 1.43.244.47.163.88.419 1.25.767.36.349.65.802.87 1.358.21.553.31 1.226.31 2.017v.603h-6.93v-1.273h5.27c0-.447-.09-.843-.27-1.187a2.046 2.046 0 0 0-.77-.824 2.159 2.159 0 0 0-1.15-.302c-.47 0-.89.118-1.25.353-.35.231-.62.534-.82.909-.19.371-.28.774-.28 1.21v.994c0 .584.1 1.08.31 1.489.21.409.5.722.87.938.37.212.8.318 1.3.318.32 0 .61-.046.88-.137.26-.094.49-.234.69-.42.19-.186.34-.415.44-.688l1.61.29c-.13.474-.36.888-.7 1.244-.33.353-.74.627-1.24.824-.5.194-1.06.29-1.7.29zm8.72-.006c-.7 0-1.33-.179-1.89-.539-.54-.364-.98-.881-1.29-1.551-.31-.675-.47-1.483-.47-2.427 0-.943.16-1.75.47-2.42.32-.671.76-1.184 1.31-1.54.55-.356 1.18-.534 1.88-.534.54 0 .98.091 1.31.273.33.178.59.386.77.625.19.238.33.449.43.631h.11v-4.324h1.69V113h-1.65v-1.358h-.15c-.1.186-.25.398-.44.636-.19.239-.45.447-.78.625-.34.178-.77.267-1.3.267zm.38-1.448c.48 0 .9-.129 1.23-.387.35-.261.6-.623.78-1.085.18-.462.26-1 .26-1.614 0-.606-.08-1.136-.26-1.591a2.349 2.349 0 0 0-.76-1.062c-.34-.254-.76-.381-1.25-.381-.52 0-.94.133-1.28.398-.34.265-.6.627-.78 1.085-.17.459-.25.976-.25 1.551 0 .584.09 1.108.26 1.574.17.466.43.835.77 1.108.35.269.77.404 1.28.404z"/><path fill="#B3B3B3" d="M1412.5 105.5a1.5 1.5 0 1 0 0 3v-3zm63.06 2.561c.59-.586.59-1.536 0-2.122l-9.55-9.546a1.498 1.498 0 0 0-2.12 0 1.51 1.51 0 0 0 0 2.122l8.49 8.485-8.49 8.485a1.511 1.511 0 0 0 0 2.122 1.5 1.5 0 0 0 2.12 0l9.55-9.546zm-63.06.439h62v-3h-62v3z"/><path fill="#F24822" d="M1001 419a1.5 1.5 0 1 0-3 0h3zm104 19.5a1.5 1.5 0 1 0 0-3v3zm38-3a1.5 1.5 0 1 0 0 3v-3zm106.56 2.561c.59-.586.59-1.536 0-2.122l-9.55-9.546a1.5 1.5 0 0 0-2.12 0 1.511 1.511 0 0 0 0 2.122l8.49 8.485-8.49 8.485a1.511 1.511 0 0 0 0 2.122 1.5 1.5 0 0 0 2.12 0l9.55-9.546zM999.5 419h1.5-1.5zm18 19.5h87.5v-3h-87.5v3zm125.5 0h105.5v-3H1143v3zM998 419c0 10.77 8.73 19.5 19.5 19.5v-3c-9.11 0-16.5-7.387-16.5-16.5h-3z"/><path fill="#F24822" d="M1105 417h38v40h-38z"/><path fill="#fff" d="M1123.96 431.364V443h-1.61l-5.92-8.534h-.1V443h-1.76v-11.636h1.62l5.92 8.545h.11v-8.545h1.74zm5.93 11.812c-.82 0-1.54-.187-2.15-.562-.61-.375-1.08-.9-1.42-1.574-.33-.674-.5-1.462-.5-2.364 0-.905.17-1.697.5-2.375.34-.678.81-1.204 1.42-1.579.61-.375 1.33-.563 2.15-.563.81 0 1.53.188 2.14.563.61.375 1.08.901 1.42 1.579.34.678.5 1.47.5 2.375 0 .902-.16 1.69-.5 2.364-.34.674-.81 1.199-1.42 1.574-.61.375-1.33.562-2.14.562zm0-1.426c.53 0 .97-.14 1.32-.42.35-.281.61-.654.77-1.12.17-.466.26-.979.26-1.54 0-.556-.09-1.068-.26-1.534a2.434 2.434 0 0 0-.77-1.13c-.35-.284-.79-.426-1.32-.426s-.98.142-1.33.426c-.35.284-.61.661-.78 1.13-.16.466-.25.978-.25 1.534 0 .561.09 1.074.25 1.54.17.466.43.839.78 1.12.35.28.8.42 1.33.42z"/><path fill="#B3B3B3" d="M670.5 390a1.5 1.5 0 0 0-3 0h3zm-2.561 44.061a1.502 1.502 0 0 0 2.122 0l9.546-9.546a1.502 1.502 0 0 0 0-2.122 1.502 1.502 0 0 0-2.122 0L669 430.879l-8.485-8.486a1.502 1.502 0 0 0-2.122 0 1.502 1.502 0 0 0 0 2.122l9.546 9.546zM667.5 390v43h3v-43h-3z"/></svg>