<svg xmlns="http://www.w3.org/2000/svg" width="384" height="817" fill="none"><g clip-path="url(#a)"><g clip-path="url(#b)"><path fill="#fff" d="M4 5h375v812H4z"/><g clip-path="url(#c)"><path fill="#000" d="M34.34 38.271c-2.541 0-4.262-1.252-4.262-3.098 0-1.326.915-2.388 2.329-2.696v-.131c-1.15-.271-1.905-1.18-1.905-2.307 0-1.678 1.597-2.879 3.846-2.879 2.24 0 3.837 1.201 3.837 2.879 0 1.127-.747 2.036-1.904 2.307v.132c1.407.256 2.337 1.325 2.337 2.68 0 1.853-1.736 3.113-4.278 3.113zm0-6.548c.982 0 1.663-.608 1.663-1.48 0-.878-.681-1.493-1.663-1.493-.981 0-1.655.615-1.655 1.494 0 .871.681 1.48 1.655 1.48zm0 4.922c1.165 0 1.97-.681 1.97-1.663 0-.988-.805-1.67-1.97-1.67-1.157 0-1.963.682-1.963 1.67 0 .982.806 1.663 1.963 1.663zm7.823-5.295c-.784 0-1.297-.52-1.297-1.238 0-.725.513-1.245 1.297-1.245.79 0 1.296.52 1.296 1.245 0 .718-.505 1.238-1.296 1.238zm0 5.2c-.784 0-1.297-.52-1.297-1.238 0-.725.513-1.245 1.297-1.245.79 0 1.296.52 1.296 1.245 0 .718-.505 1.238-1.296 1.238zm7.624 1.721c-2.615 0-4.197-2.065-4.197-5.574 0-3.5 1.597-5.537 4.197-5.537 2.593 0 4.197 2.036 4.197 5.545 0 3.5-1.582 5.566-4.197 5.566zm0-1.75c1.216 0 1.956-1.29 1.956-3.824 0-2.52-.747-3.786-1.956-3.786-1.201 0-1.956 1.274-1.956 3.786 0 2.534.748 3.823 1.956 3.823zm10.269 1.75c-2.615 0-4.197-2.065-4.197-5.574 0-3.5 1.596-5.537 4.197-5.537 2.592 0 4.196 2.036 4.196 5.545 0 3.5-1.582 5.566-4.196 5.566zm0-1.75c1.216 0 1.955-1.29 1.955-3.824 0-2.52-.747-3.786-1.955-3.786-1.201 0-1.956 1.274-1.956 3.786 0 2.534.747 3.823 1.956 3.823z"/><path stroke="#000" stroke-miterlimit="10" d="M355.995 27.834h-16.666c-1.197 0-2.167.97-2.167 2.167V36c0 1.197.97 2.167 2.167 2.167h16.666c1.197 0 2.167-.97 2.167-2.167v-5.999c0-1.197-.97-2.167-2.167-2.167z" opacity=".35"/><path fill="#000" d="M359.662 31.001v4a2.168 2.168 0 0 0 .966-3.2 2.167 2.167 0 0 0-.966-.8" opacity=".4"/><path fill="#000" d="M355.329 29.334h-15.334c-.736 0-1.333.597-1.333 1.333v4.667c0 .736.597 1.333 1.333 1.333h15.334c.736 0 1.333-.597 1.333-1.333v-4.667c0-.736-.597-1.333-1.333-1.333zm-31.336 8.964a.314.314 0 0 1-.221-.093l-2-2.016a.335.335 0 0 1-.071-.106.312.312 0 0 1 .081-.35 3.423 3.423 0 0 1 4.419 0 .308.308 0 0 1 .1.226.313.313 0 0 1-.094.23l-2 2.016a.307.307 0 0 1-.214.093zm3.508-3.538a.313.313 0 0 1-.214-.085 4.898 4.898 0 0 0-6.585 0 .311.311 0 0 1-.434-.006l-1.154-1.167a.32.32 0 0 1-.071-.354.321.321 0 0 1 .071-.105 7.16 7.16 0 0 1 9.752 0 .32.32 0 0 1 .006.459l-1.152 1.167a.316.316 0 0 1-.219.09zm2.655-2.685a.301.301 0 0 1-.214-.087 8.639 8.639 0 0 0-11.907 0 .295.295 0 0 1-.214.087.308.308 0 0 1-.22-.091l-1.151-1.166a.318.318 0 0 1-.095-.228.327.327 0 0 1 .095-.228 10.9 10.9 0 0 1 15.08 0 .322.322 0 0 1 .076.352.317.317 0 0 1-.07.105l-1.157 1.165a.306.306 0 0 1-.223.09zm-19.826 6.26h-1a1.001 1.001 0 0 1-1-1v-8.667a.998.998 0 0 1 1-1h1a.999.999 0 0 1 1 1v8.667a.998.998 0 0 1-1 1zm-4.667 0h-1a1.001 1.001 0 0 1-1-1v-6.333a.998.998 0 0 1 1-1h1a.999.999 0 0 1 1 1v6.333a1 1 0 0 1-.999 1h-.001zm-4.667 0h-1a1.001 1.001 0 0 1-1-1v-4a.998.998 0 0 1 1-1h1a.999.999 0 0 1 1 1v4a.998.998 0 0 1-1 1zm-4.666 0h-1a1.001 1.001 0 0 1-1-1v-2a.998.998 0 0 1 1-1h1a.999.999 0 0 1 1 1v2a.998.998 0 0 1-1 1z"/></g><path fill="#fff" d="M4 49h375v44H4z"/><path fill="#000" d="M156.257 78V65.4h5.184c2.682 0 4.248 1.656 4.248 3.978 0 2.304-1.566 3.978-4.248 3.978h-2.466V78h-2.718zm2.718-6.894h2.304c1.26 0 1.8-.81 1.8-1.728 0-.918-.54-1.728-1.8-1.728h-2.304v3.456zm11.914 7.038c-2.79 0-4.788-1.98-4.788-4.68 0-2.7 1.998-4.68 4.788-4.68s4.788 1.98 4.788 4.68c0 2.7-1.998 4.68-4.788 4.68zm0-2.16c1.35 0 2.268-1.026 2.268-2.52 0-1.512-.918-2.538-2.268-2.538-1.35 0-2.268 1.026-2.268 2.538 0 1.494.918 2.52 2.268 2.52zm11.971-4.968h-1.494c-1.242 0-1.8 1.026-1.8 2.574V78h-2.52v-9.072h2.52v1.512c.486-1.134 1.17-1.512 2.268-1.512h1.026v2.088zm2.668-4.77h2.502v2.682h2.43v2.088h-2.43v3.582c0 .882.468 1.296 1.278 1.296h1.152V78h-1.494c-2.088 0-3.438-1.188-3.438-3.294v-3.69h-1.746v-2.088h1.746v-2.682zM192.982 78v-6.984h-1.746v-2.088h1.746v-.81c0-1.89 1.35-3.132 3.384-3.132h1.71v2.088h-1.368c-.738 0-1.224.468-1.224 1.188v.666h2.592v2.088h-2.592V78h-2.502zm10.234.144c-2.79 0-4.788-1.98-4.788-4.68 0-2.7 1.998-4.68 4.788-4.68s4.788 1.98 4.788 4.68c0 2.7-1.998 4.68-4.788 4.68zm0-2.16c1.35 0 2.268-1.026 2.268-2.52 0-1.512-.918-2.538-2.268-2.538-1.35 0-2.268 1.026-2.268 2.538 0 1.494.918 2.52 2.268 2.52zm6.3 2.016V64.986h2.502V78h-2.502zm4.407-13.014h2.664v2.646h-2.664v-2.646zM213.995 78v-9.072h2.52V78h-2.52zm8.68.144c-2.79 0-4.788-1.98-4.788-4.68 0-2.7 1.998-4.68 4.788-4.68s4.788 1.98 4.788 4.68c0 2.7-1.998 4.68-4.788 4.68zm0-2.16c1.35 0 2.268-1.026 2.268-2.52 0-1.512-.918-2.538-2.268-2.538-1.35 0-2.268 1.026-2.268 2.538 0 1.494.918 2.52 2.268 2.52z"/><path fill="#000" fill-rule="evenodd" d="M21 63v3h3v-3h3v-3h-6v3zm19 19h-3v-3h3v-3h3v6h-3zm-3-22h6v6h-3v-3h-3v-3zM24 82h-3v-6h3v3h3v3h-3z" clip-rule="evenodd"/><path fill="#000" fill-opacity=".95" d="m362 79.861-4.481-4.481c1.12-1.63 1.833-3.565 1.833-5.704 0-5.296-4.38-9.676-9.676-9.676S340 64.38 340 69.676s4.38 9.676 9.676 9.676c2.139 0 4.074-.713 5.704-1.834L359.861 82 362 79.861zm-18.944-10.083a6.607 6.607 0 0 1 6.62-6.62 6.607 6.607 0 0 1 6.62 6.62 6.607 6.607 0 0 1-6.62 6.62 6.607 6.607 0 0 1-6.62-6.62z"/><rect width="375" height="71" x="4" y="113" fill="#fff" rx="8"/><path fill="#000" fill-opacity=".6" d="M20.938 127.5v-9.8h3.934c2.044 0 3.262 1.26 3.262 3.038 0 1.778-1.218 3.038-3.262 3.038H22.8v3.724h-1.862zm1.862-5.278h1.988c1.092 0 1.54-.7 1.54-1.484s-.448-1.484-1.54-1.484H22.8v2.968zm9.41 5.39c-2.157 0-3.697-1.54-3.697-3.64s1.54-3.64 3.696-3.64c2.142 0 3.682 1.54 3.682 3.64s-1.54 3.64-3.682 3.64zm0-1.484c1.161 0 1.945-.882 1.945-2.156s-.784-2.156-1.946-2.156c-1.176 0-1.96.882-1.96 2.156s.784 2.156 1.96 2.156zm9.197-4.242h-1.106c-1.092 0-1.526.938-1.526 2.282v3.332h-1.722v-7.056h1.722v1.246c.35-.896.896-1.246 1.806-1.246h.826v1.442zm2.106-3.57h1.722v2.128h1.96v1.442h-1.96v3.08c0 .714.378 1.078 1.022 1.078h.938v1.456h-1.134c-1.54 0-2.548-.896-2.548-2.464v-3.15h-1.386v-1.442h1.386v-2.128zm5.647 9.184v-5.614h-1.386v-1.442h1.386v-.658c0-1.428.994-2.366 2.52-2.366h1.26v1.456h-1.064c-.602 0-.994.378-.994.994v.574h2.058v1.442h-2.058v5.614H49.16zm7.782.112c-2.157 0-3.697-1.54-3.697-3.64s1.54-3.64 3.697-3.64c2.142 0 3.681 1.54 3.681 3.64s-1.54 3.64-3.681 3.64zm0-1.484c1.161 0 1.946-.882 1.946-2.156s-.785-2.156-1.947-2.156c-1.175 0-1.96.882-1.96 2.156s.785 2.156 1.96 2.156zm4.942 1.372v-10.08h1.708v10.08h-1.708zm3.277-10.08h1.848v1.918H65.16v-1.918zm.07 10.08v-7.056h1.722v7.056H65.23zm6.586.112c-2.156 0-3.696-1.54-3.696-3.64s1.54-3.64 3.696-3.64c2.142 0 3.682 1.54 3.682 3.64s-1.54 3.64-3.682 3.64zm0-1.484c1.162 0 1.946-.882 1.946-2.156s-.785-2.156-1.947-2.156c-1.175 0-1.96.882-1.96 2.156s.785 2.156 1.96 2.156zm11.756 1.484c-.854 0-1.638-.378-2.044-.994v.882h-1.708v-10.08h1.708v3.878c.406-.574 1.162-.966 2.072-.966 2.086 0 3.332 1.484 3.332 3.64s-1.246 3.64-3.36 3.64zm-.252-1.484c1.148 0 1.904-.854 1.904-2.156s-.756-2.156-1.904-2.156-1.904.854-1.904 2.156.756 2.156 1.904 2.156zm7.612-5.796c1.792 0 3.052 1.036 3.052 2.632v4.536h-1.694v-1.05c-.294.7-1.106 1.162-2.114 1.162-1.4 0-2.352-.896-2.352-2.114 0-1.372 1.064-2.226 2.646-2.226h1.302c.35 0 .518-.196.518-.476 0-.686-.532-1.176-1.442-1.176-.91 0-1.456.574-1.484 1.204h-1.54c.084-1.4 1.274-2.492 3.108-2.492zm-.35 6.006c1.078 0 1.708-.756 1.708-1.82v-.112h-1.582c-.728 0-1.218.406-1.218 1.022 0 .546.448.91 1.092.91zm4.933 1.162v-10.08h1.708v10.08h-1.708zm6.163-7.168c1.792 0 3.052 1.036 3.052 2.632v4.536h-1.694v-1.05c-.294.7-1.106 1.162-2.114 1.162-1.4 0-2.352-.896-2.352-2.114 0-1.372 1.064-2.226 2.646-2.226h1.302c.35 0 .518-.196.518-.476 0-.686-.532-1.176-1.442-1.176-.91 0-1.456.574-1.484 1.204h-1.54c.084-1.4 1.274-2.492 3.108-2.492zm-.35 6.006c1.078 0 1.708-.756 1.708-1.82v-.112h-1.582c-.728 0-1.218.406-1.218 1.022 0 .546.448.91 1.092.91zm4.836 1.162v-7.056h1.722v1.092c.392-.77 1.19-1.204 2.198-1.204 1.596 0 2.632 1.148 2.632 2.8v4.368h-1.722v-4.004c0-.966-.588-1.638-1.47-1.638-.966 0-1.638.756-1.638 1.792v3.85h-1.722zm11.299.112c-2.198 0-3.584-1.624-3.584-3.64s1.386-3.64 3.584-3.64c1.778 0 3.22 1.064 3.374 2.688h-1.708c-.126-.7-.812-1.204-1.624-1.204-1.19 0-1.834.924-1.834 2.156 0 1.232.658 2.156 1.862 2.156.812 0 1.442-.462 1.61-1.162h1.736c-.224 1.54-1.596 2.646-3.416 2.646zm9.377-2.464h1.68c-.266 1.498-1.582 2.464-3.318 2.464-2.31 0-3.598-1.82-3.598-3.668 0-1.862 1.148-3.612 3.458-3.612 2.366 0 3.43 1.722 3.43 3.402 0 .238-.014.448-.028.588h-5.208c.126 1.134.854 1.862 1.946 1.862.882 0 1.456-.364 1.638-1.036zm-1.778-3.528c-.966 0-1.582.504-1.764 1.568h3.472c-.07-.896-.686-1.568-1.708-1.568z"/><rect width="18" height="18" fill="#F0F3F5" rx="9" transform="matrix(1 0 0 -1 135 131)"/><path fill="#0D0F12" d="m144.15 125.15 4.5-3.45v-2.85l-4.5 3.45-4.5-3.45v2.85l4.5 3.45z"/><path fill="#000" fill-opacity=".95" d="M21.224 163v-4.446H20.18v-1.332h1.044v-1.296H20.18v-1.332h1.044v-4.446h2.826l1.404 4.446h1.638v-4.446h1.998v4.446h1.026v1.332H29.09v1.296h1.026v1.332H29.09V163h-2.844l-1.44-4.446h-1.584V163h-1.998zm1.998-5.778h1.188l-.396-1.296h-.828l.036 1.296zm3.924 2.97h.09l-.072-1.638h-.486l.468 1.638zm-3.996-5.598h.504l-.522-1.728h-.072l.09 1.728zm3.15 2.628h.828l-.036-1.296h-1.206l.414 1.296zm5.057-5.046c-.048-3.84 2.352-6.168 6.096-6.168 3.576 0 6.024 2.088 6.024 5.28 0 2.28-1.32 4.056-4.008 5.4l-2.664 1.344c-.816.432-1.8 1.056-1.8 1.848h8.424V163h-12l-.024-2.664c0-2.616 2.232-4.344 3.792-5.112l2.736-1.368c1.224-.576 1.92-1.44 1.92-2.568 0-1.416-.888-2.352-2.4-2.352-1.656 0-2.52 1.32-2.472 3.24h-3.624zm13.589 11.64h.912c.744 0 1.104-.6 1.104-1.56v-2.76h3.335v3.12c0 2.352-1.415 3.816-3.887 3.816h-1.464v-2.616zm8.067-11.64c-.048-3.84 2.352-6.168 6.096-6.168 3.576 0 6.024 2.088 6.024 5.28 0 2.28-1.32 4.056-4.008 5.4l-2.664 1.344c-.816.432-1.8 1.056-1.8 1.848h8.424V163h-12l-.024-2.664c0-2.616 2.232-4.344 3.792-5.112l2.736-1.368c1.224-.576 1.92-1.44 1.92-2.568 0-1.416-.888-2.352-2.4-2.352-1.656 0-2.52 1.32-2.472 3.24h-3.624zM68.986 163c0-3.12.528-5.448 2.328-8.28l3.456-5.424h-8.472V146.2h12.456v2.808l-4.296 6.696c-1.464 2.256-1.872 4.32-1.872 7.296h-3.6zm17.149.192c-4.224 0-6.24-2.928-6.24-8.064v-1.08c0-5.136 2.016-8.04 6.24-8.04h.984c4.224 0 6.24 2.928 6.24 8.04v1.08c0 5.136-2.016 8.064-6.24 8.064h-.984zm.168-3.12h.648c1.608 0 2.808-1.272 2.808-3.864v-3.24c0-2.592-1.2-3.864-2.808-3.864h-.648c-1.608 0-2.784 1.272-2.784 3.864v3.24c0 2.592 1.176 3.864 2.784 3.864zm8.892 3.744h.913c.743 0 1.103-.6 1.103-1.56v-2.76h3.336v3.12c0 2.352-1.415 3.816-3.888 3.816h-1.464v-2.616zm14.26-6.408c-3.528 0-5.856-2.472-5.856-5.664 0-3.24 2.784-5.736 6.312-5.736 4.344 0 6.624 3.552 6.624 8.112 0 5.688-2.736 9.072-6.864 9.072-3.6 0-5.976-2.184-6.288-4.896h3.336c.216 1.08 1.32 1.92 2.832 1.92 2.064 0 3.48-1.968 3.624-4.608-.696 1.056-2.304 1.8-3.72 1.8zm.384-8.304c-1.56 0-2.616 1.08-2.616 2.64 0 1.512 1.056 2.568 2.616 2.568 1.584 0 2.664-1.056 2.664-2.568 0-1.56-1.08-2.64-2.664-2.64zm15.371 14.088c-3.648 0-6.384-2.064-6.384-5.16 0-1.944 1.152-3.36 2.736-4.08-1.152-.768-1.992-1.968-1.992-3.408 0-2.64 2.328-4.536 5.64-4.536s5.64 1.896 5.64 4.536c0 1.44-.84 2.64-2.064 3.408 1.68.72 2.784 2.136 2.784 4.08 0 3.096-2.736 5.16-6.36 5.16zm0-10.656c1.392 0 2.304-.696 2.304-1.824 0-1.104-.912-1.824-2.304-1.824-1.416 0-2.304.72-2.304 1.824 0 1.128.888 1.824 2.304 1.824zm0 7.56c1.728 0 2.808-.816 2.808-2.16 0-1.344-1.08-2.184-2.808-2.184-1.728 0-2.88.84-2.88 2.184 0 1.344 1.152 2.16 2.88 2.16zm14.198-2.688c-3.528 0-5.856-2.472-5.856-5.664 0-3.24 2.784-5.736 6.312-5.736 4.344 0 6.624 3.552 6.624 8.112 0 5.688-2.736 9.072-6.864 9.072-3.6 0-5.976-2.184-6.288-4.896h3.336c.216 1.08 1.32 1.92 2.832 1.92 2.064 0 3.48-1.968 3.624-4.608-.696 1.056-2.304 1.8-3.72 1.8zm.384-8.304c-1.56 0-2.616 1.08-2.616 2.64 0 1.512 1.056 2.568 2.616 2.568 1.584 0 2.664-1.056 2.664-2.568 0-1.56-1.08-2.64-2.664-2.64zm9.095 11.304h2.718V163h-2.718v-2.592zm8.12 2.704c-1.932 0-3.43-1.316-3.514-3.038h1.988c.112.77.658 1.218 1.512 1.218.994 0 1.638-.616 1.638-1.568 0-.966-.644-1.61-1.624-1.61-.728 0-1.204.252-1.498.756h-1.848l.826-5.67h5.6v1.806h-4.046l-.294 1.904c.336-.28.882-.532 1.694-.532 1.89 0 3.304 1.456 3.304 3.346 0 1.96-1.61 3.388-3.738 3.388zm9.161-6.65c2.058 0 3.416 1.442 3.416 3.304 0 1.89-1.624 3.346-3.682 3.346-2.534 0-3.864-2.072-3.864-4.732 0-3.318 1.61-5.292 4.004-5.292 2.1 0 3.486 1.274 3.682 2.856h-1.946c-.14-.644-.784-1.12-1.652-1.12-1.218 0-2.044 1.134-2.128 2.674.406-.602 1.344-1.036 2.17-1.036zm-.224 4.83c.924 0 1.526-.616 1.526-1.526 0-.882-.602-1.512-1.526-1.512s-1.554.63-1.554 1.512c0 .91.63 1.526 1.554 1.526z"/><rect width="30" height="30" x="333" y="138" fill="#12A633" rx="15"/><g fill="#fff" clip-path="url(#d)"><path d="M341.583 152.125h12.833v1.75h-12.833z"/><path d="M347.125 146.583h1.75v12.833h-1.75z"/></g><path fill="#fff" d="M4 192h375v72H4z"/><rect width="40" height="40" x="20" y="208" fill="#05A357" rx="20"/><path fill="#fff" d="M47.65 236.688c0 .202-.036.374-.107.516a1.02 1.02 0 0 1-.279.349 1.088 1.088 0 0 1-.385.197c-.142.04-.284.061-.426.061h-.902c-.285 0-.534-.028-.747-.085a1.688 1.688 0 0 1-.607-.307 3.129 3.129 0 0 1-.574-.606 8.052 8.052 0 0 1-.607-.977l-6.232-11.171a61.688 61.688 0 0 1-1.91-3.657h-.031a150.19 150.19 0 0 1 .062 4.492v11.854c0 .071-.023.14-.068.205a.425.425 0 0 1-.226.152 2.632 2.632 0 0 1-.418.091 4.777 4.777 0 0 1-.662.038c-.269 0-.489-.013-.662-.038a2.368 2.368 0 0 1-.41-.091.424.424 0 0 1-.218-.152.358.358 0 0 1-.067-.205v-18.122c0-.405.12-.693.36-.865a1.32 1.32 0 0 1 .786-.258h1.342c.317 0 .581.025.794.076.213.051.404.134.573.25.17.117.333.279.491.486.159.207.324.468.497.782l4.79 8.621c.296.526.58 1.039.855 1.54.274.501.539.994.793 1.48.254.485.506.964.755 1.434.25.471.496.944.74 1.419h.016c-.02-.798-.034-1.63-.04-2.494a430.46 430.46 0 0 1-.007-2.494v-10.644c0-.07.022-.136.067-.197a.528.528 0 0 1 .226-.159 1.5 1.5 0 0 1 .419-.099c.173-.02.4-.03.678-.03.246 0 .458.01.637.03.178.021.318.054.419.099a.54.54 0 0 1 .217.159.33.33 0 0 1 .068.197v18.123"/><path fill="#fff" d="M50.24 226.492H29.68v-1.164h20.56v1.164zm0 4.403H29.68v-1.164h20.56v1.164z"/><path fill="#000" fill-opacity=".95" d="M77.184 234v-11.2h1.552l5.776 9.12v-9.12h1.36V234h-1.568l-5.76-9.088V234h-1.36zm14.055-8.192c2.096 0 3.407 1.2 3.407 2.992v5.2h-1.28v-1.392c-.431.928-1.504 1.52-2.751 1.52-1.697 0-2.8-.96-2.8-2.432 0-1.536 1.264-2.512 3.216-2.512h1.823c.353 0 .513-.176.513-.432 0-1.104-.785-1.856-2.16-1.856-1.184 0-2.112.736-2.176 1.616h-1.217c.145-1.552 1.617-2.704 3.425-2.704zm-.433 7.232c1.617 0 2.56-1.008 2.56-2.672v-.208h-2.255c-1.2 0-1.985.576-1.985 1.52 0 .832.656 1.36 1.68 1.36zm5.638-10.416h1.472v1.792h-1.472v-1.792zM96.54 234v-8.064h1.28V234h-1.28zm7.887-6.928h-1.12c-1.632 0-2.096 1.472-2.096 3.376V234h-1.28v-8.064h1.28v1.632c.336-1.104 1.008-1.632 2.192-1.632h1.024v1.136zm4.202-1.264c2.096 0 3.408 1.2 3.408 2.992v5.2h-1.28v-1.392c-.432.928-1.504 1.52-2.752 1.52-1.696 0-2.8-.96-2.8-2.432 0-1.536 1.264-2.512 3.216-2.512h1.824c.352 0 .512-.176.512-.432 0-1.104-.784-1.856-2.16-1.856-1.184 0-2.112.736-2.176 1.616h-1.216c.144-1.552 1.616-2.704 3.424-2.704zm-.432 7.232c1.616 0 2.56-1.008 2.56-2.672v-.208h-2.256c-1.2 0-1.984.576-1.984 1.52 0 .832.656 1.36 1.68 1.36z"/><path fill="#000" d="M279.227 233.5v-3.855h-1.17v-.96h1.17v-1.23h-1.17v-.96h1.17v-3.705h1.56l1.425 3.705h1.77v-3.705h1.185v3.705h1.17v.96h-1.17v1.23h1.17v.96h-1.17v3.855h-1.575l-1.425-3.855h-1.77v3.855h-1.17zm1.17-4.815h1.41l-.45-1.23h-.99l.03 1.23zm3.585 2.7h.06l-.045-1.74h-.63l.615 1.74zm-3.615-4.89h.63l-.63-1.86h-.06l.06 1.86zm2.64 2.19h1.005l-.03-1.23h-1.425l.45 1.23zm4.429-2.28c-.075-2.145 1.305-3.525 3.465-3.525 1.98 0 3.405 1.23 3.405 3.135 0 1.365-.84 2.52-2.445 3.315l-1.5.765c-.855.435-1.815 1.23-1.815 2.25h5.82v1.155h-7.065v-.915c0-1.875 1.47-3.03 2.55-3.57l1.605-.825c1.125-.57 1.53-1.29 1.53-2.205 0-1.2-.885-1.98-2.085-1.98-1.35 0-2.205.96-2.145 2.4h-1.32zm11.864 7.215c-2.115 0-3.765-1.365-3.765-3.42h1.26c0 1.365 1.08 2.265 2.505 2.265 1.47 0 2.4-.705 2.4-1.95 0-1.23-.93-1.89-2.4-1.89h-.84V227.5h.825c1.245 0 1.995-.765 1.995-1.815 0-1.035-.81-1.65-2.07-1.65-1.2 0-1.98.705-2.055 1.95h-1.245c.075-1.905 1.44-3.105 3.315-3.105 1.95 0 3.36 1.155 3.36 2.76a2.598 2.598 0 0 1-1.515 2.34c1.095.36 1.935 1.29 1.935 2.55 0 2.01-1.74 3.09-3.705 3.09zm10.465-.12v-2.625h-5.64v-1.155l5.415-6.72h1.5v6.72h1.635v1.155h-1.635v2.625h-1.275zm-4.275-3.78h4.275v-5.31l-4.275 5.31zm7.998 4.53h.525c.405 0 .645-.315.645-.975v-1.305h1.2v1.365c0 1.275-.675 1.965-1.77 1.965h-.6v-1.05zm7.515-.63c-1.92 0-3.36-1.305-3.54-3.075h1.23c.165 1.23 1.035 1.92 2.31 1.92 1.545 0 2.535-.9 2.535-2.4s-.99-2.49-2.52-2.49c-1.155 0-1.98.465-2.295 1.23h-1.05l.81-5.805h5.625v1.155h-4.65l-.465 3.165c.51-.48 1.38-.855 2.175-.855 2.19 0 3.69 1.47 3.69 3.6s-1.575 3.555-3.855 3.555zm9.385-7.14c2.175 0 3.69 1.515 3.69 3.57 0 2.07-1.59 3.57-3.75 3.57-2.4 0-3.9-1.92-3.9-4.815 0-3.945 1.77-5.94 4.095-5.94 1.935 0 3.345 1.14 3.63 2.805h-1.29c-.225-1.02-1.08-1.665-2.325-1.665-1.68 0-2.805 1.8-2.91 4.11.45-.975 1.59-1.635 2.76-1.635zm-.06 5.985c1.425 0 2.43-1.02 2.43-2.43 0-1.395-1.005-2.4-2.43-2.4-1.41 0-2.43 1.005-2.43 2.4 0 1.41 1.02 2.43 2.43 2.43zm6.749 1.035c.015-1.59.21-3.12 1.635-5.43l2.415-3.915h-6.12V223h7.575v1.05l-2.88 4.755c-1.185 1.98-1.335 3.315-1.335 4.695h-1.29zm4.902-1.41h1.335v1.41h-1.335v-1.41zm7.155 1.53c-2.115 0-3.765-1.365-3.765-3.42h1.26c0 1.365 1.08 2.265 2.505 2.265 1.47 0 2.4-.705 2.4-1.95 0-1.23-.93-1.89-2.4-1.89h-.84V227.5h.825c1.245 0 1.995-.765 1.995-1.815 0-1.035-.81-1.65-2.07-1.65-1.2 0-1.98.705-2.055 1.95h-1.245c.075-1.905 1.44-3.105 3.315-3.105 1.95 0 3.36 1.155 3.36 2.76a2.598 2.598 0 0 1-1.515 2.34c1.095.36 1.935 1.29 1.935 2.55 0 2.01-1.74 3.09-3.705 3.09zm10.465-.12v-2.625h-5.64v-1.155l5.415-6.72h1.5v6.72h1.635v1.155h-1.635v2.625h-1.275zm-4.275-3.78h4.275v-5.31l-4.275 5.31z"/><path fill="#fff" d="M4 264h375v72H4z"/><rect width="40" height="40" x="20" y="280" fill="#50AF95" rx="20"/><path fill="#fff" fill-rule="evenodd" d="M42.427 300.798c-.138.01-.85.053-2.437.053a52.96 52.96 0 0 1-2.473-.053c-4.88-.215-8.522-1.064-8.522-2.08 0-1.017 3.642-1.865 8.522-2.083v3.317c.319.023 1.232.077 2.495.077 1.515 0 2.274-.063 2.41-.076v-3.315c4.87.216 8.503 1.065 8.503 2.08 0 1.014-3.633 1.863-8.503 2.079l.005.001zm0-4.504v-2.968h6.795V288.8h-18.5v4.526h6.794v2.967c-5.522.254-9.675 1.347-9.675 2.658 0 1.31 4.152 2.402 9.675 2.657v9.512h4.91v-9.515c5.509-.254 9.655-1.346 9.655-2.655 0-1.31-4.143-2.402-9.655-2.657v.001z" clip-rule="evenodd"/><path fill="#000" fill-opacity=".95" d="M81.216 306.128c-2.544 0-4.224-1.52-4.224-3.968v-7.36h1.344v7.424c0 1.648 1.152 2.672 2.88 2.672 1.744 0 2.896-1.024 2.896-2.672V294.8h1.328v7.36c0 2.448-1.68 3.968-4.224 3.968zm10.022 0c-2.512 0-4.112-1.504-4.256-3.792h1.344c.144 1.552 1.168 2.56 2.912 2.56 1.552 0 2.672-.592 2.672-1.952 0-2.88-6.544-1.296-6.544-5.296 0-1.776 1.552-2.976 3.792-2.976 2.24 0 3.792 1.296 3.952 3.312h-1.344c-.128-1.264-1.104-2.08-2.608-2.08-1.52 0-2.416.672-2.416 1.744 0 2.864 6.592 1.088 6.592 5.296 0 2.032-1.76 3.184-4.096 3.184zm5.868-.128v-11.2h3.296c3.136 0 5.584 2.032 5.584 5.6 0 3.568-2.448 5.6-5.584 5.6h-3.296zm1.36-1.232h1.904c2.176 0 4.192-1.28 4.192-4.368s-2.016-4.368-4.192-4.368h-1.904v8.736zM114.245 306v-9.968h-3.584V294.8h8.528v1.232h-3.568V306h-1.376zm8.318.128c-2.384 0-4.096-1.744-4.096-4.16 0-2.432 1.712-4.16 4.096-4.16 2.4 0 4.112 1.728 4.112 4.16 0 2.416-1.712 4.16-4.112 4.16zm0-1.152c1.664 0 2.8-1.248 2.8-3.008s-1.136-3.008-2.8-3.008c-1.648 0-2.784 1.248-2.784 3.008s1.136 3.008 2.784 3.008zM133.874 306l-3.136-4.032-1.056.96V306h-1.296v-11.376h1.296v6.72l3.792-3.408h1.696l-3.456 3.152L135.49 306h-1.616zm8.399-2.592h1.296c-.272 1.648-1.696 2.72-3.696 2.72-2.384 0-3.984-1.904-3.984-4.208 0-2.368 1.472-4.112 3.84-4.112 2.352 0 3.76 1.632 3.76 3.776 0 .176-.016.448-.032.56h-6.304c.096 1.664 1.2 2.848 2.72 2.848 1.312 0 2.144-.576 2.4-1.584zm-2.544-4.512c-1.36 0-2.272.8-2.512 2.224h4.96c-.096-1.36-1.008-2.224-2.448-2.224zm5.483 7.104v-8.064h1.28v1.552c.416-1.12 1.424-1.68 2.656-1.68 1.824 0 3.008 1.296 3.008 3.264V306h-1.28v-4.72c0-1.376-.8-2.304-2.016-2.304-1.376 0-2.368 1.104-2.368 2.672V306h-1.28zm120.312-19.568c-.08-2.288 1.392-3.76 3.696-3.76 2.112 0 3.632 1.312 3.632 3.344 0 1.456-.896 2.688-2.608 3.536l-1.6.816c-.912.464-1.936 1.312-1.936 2.4h6.208V294h-7.536v-.976c0-2 1.568-3.232 2.72-3.808l1.712-.88c1.2-.608 1.632-1.376 1.632-2.352 0-1.28-.944-2.112-2.224-2.112-1.44 0-2.352 1.024-2.288 2.56h-1.408zm8.601 8.368h.56c.432 0 .688-.336.688-1.04v-1.392h1.28v1.456c0 1.36-.72 2.096-1.888 2.096h-.64v-1.12zm8.569-.672c-2.256 0-4.016-1.456-4.016-3.648h1.344c0 1.456 1.152 2.416 2.672 2.416 1.568 0 2.56-.752 2.56-2.08 0-1.312-.992-2.016-2.56-2.016h-.896v-1.2h.88c1.328 0 2.128-.816 2.128-1.936 0-1.104-.864-1.76-2.208-1.76-1.28 0-2.112.752-2.192 2.08h-1.328c.08-2.032 1.536-3.312 3.536-3.312 2.08 0 3.584 1.232 3.584 2.944 0 1.136-.72 2.096-1.616 2.496 1.168.384 2.064 1.376 2.064 2.72 0 2.144-1.856 3.296-3.952 3.296zm11.163-.128v-2.8h-6.017v-1.232l5.777-7.168h1.6v7.168h1.744v1.232h-1.744v2.8h-1.36zm-4.56-4.032h4.56v-5.664l-4.56 5.664zm12.615.32c-2.32 0-3.952-1.616-3.952-3.808 0-2.208 1.696-3.808 4.016-3.808 2.56 0 4.144 2.048 4.144 5.136 0 4.208-1.888 6.336-4.352 6.336-2.064 0-3.584-1.232-3.872-2.992h1.36c.24 1.088 1.152 1.776 2.48 1.776 1.808 0 3.008-1.92 3.104-4.384-.464 1.024-1.696 1.744-2.928 1.744zm.048-6.384c-1.52 0-2.592 1.072-2.592 2.592 0 1.488 1.072 2.56 2.592 2.56s2.592-1.072 2.592-2.56c0-1.52-1.072-2.592-2.592-2.592zm5.68 8.592h1.424V294h-1.424v-1.504zm7.84-5.984c2.32 0 3.936 1.616 3.936 3.808 0 2.208-1.696 3.808-4 3.808-2.56 0-4.16-2.048-4.16-5.136 0-4.208 1.888-6.336 4.368-6.336 2.064 0 3.568 1.216 3.872 2.992h-1.376c-.24-1.088-1.152-1.776-2.48-1.776-1.792 0-2.992 1.92-3.104 4.384.48-1.04 1.696-1.744 2.944-1.744zm-.064 6.384c1.52 0 2.592-1.088 2.592-2.592 0-1.488-1.072-2.56-2.592-2.56-1.504 0-2.592 1.072-2.592 2.56 0 1.504 1.088 2.592 2.592 2.592zm14.019 1.232c-2.544 0-4.224-1.52-4.224-3.968v-7.36h1.344v7.424c0 1.648 1.152 2.672 2.88 2.672 1.744 0 2.896-1.024 2.896-2.672V282.8h1.328v7.36c0 2.448-1.68 3.968-4.224 3.968zm10.022 0c-2.512 0-4.112-1.504-4.256-3.792h1.344c.144 1.552 1.168 2.56 2.912 2.56 1.552 0 2.672-.592 2.672-1.952 0-2.88-6.544-1.296-6.544-5.296 0-1.776 1.552-2.976 3.792-2.976 2.24 0 3.792 1.296 3.952 3.312h-1.344c-.128-1.264-1.104-2.08-2.608-2.08-1.52 0-2.416.672-2.416 1.744 0 2.864 6.592 1.088 6.592 5.296 0 2.032-1.76 3.184-4.096 3.184zm5.868-.128v-11.2h3.296c3.136 0 5.584 2.032 5.584 5.6 0 3.568-2.448 5.6-5.584 5.6h-3.296zm1.36-1.232h1.904c2.176 0 4.192-1.28 4.192-4.368s-2.016-4.368-4.192-4.368h-1.904v8.736zM357.87 294v-9.968h-3.584V282.8h8.528v1.232h-3.568V294h-1.376z"/><path fill="#000" fill-opacity=".32" d="M270.995 309.2v9.8h-1.19v-7.756c-.154.224-.504.336-.882.336h-.938v-1.078h.798c.616 0 .966-.266 1.036-1.302h1.176zm1.593 10.5h.49c.378 0 .602-.294.602-.91v-1.218h1.12v1.274c0 1.19-.63 1.834-1.652 1.834h-.56v-.98zm7.497-.588c-1.974 0-3.514-1.274-3.514-3.192h1.176c0 1.274 1.008 2.114 2.338 2.114 1.372 0 2.24-.658 2.24-1.82 0-1.148-.868-1.764-2.24-1.764h-.784v-1.05h.77c1.162 0 1.862-.714 1.862-1.694 0-.966-.756-1.54-1.932-1.54-1.12 0-1.848.658-1.918 1.82h-1.162c.07-1.778 1.344-2.898 3.094-2.898 1.82 0 3.136 1.078 3.136 2.576 0 .994-.63 1.834-1.414 2.184 1.022.336 1.806 1.204 1.806 2.38 0 1.876-1.624 2.884-3.458 2.884zm8.258 0c-1.974 0-3.514-1.274-3.514-3.192h1.176c0 1.274 1.008 2.114 2.338 2.114 1.372 0 2.24-.658 2.24-1.82 0-1.148-.868-1.764-2.24-1.764h-.784v-1.05h.77c1.162 0 1.862-.714 1.862-1.694 0-.966-.756-1.54-1.932-1.54-1.12 0-1.848.658-1.918 1.82h-1.162c.07-1.778 1.344-2.898 3.094-2.898 1.82 0 3.136 1.078 3.136 2.576 0 .994-.63 1.834-1.414 2.184 1.022.336 1.806 1.204 1.806 2.38 0 1.876-1.624 2.884-3.458 2.884zm8.536-6.664c2.03 0 3.444 1.414 3.444 3.332 0 1.932-1.484 3.332-3.5 3.332-2.24 0-3.64-1.792-3.64-4.494 0-3.682 1.652-5.544 3.822-5.544 1.806 0 3.122 1.064 3.388 2.618h-1.204c-.21-.952-1.008-1.554-2.17-1.554-1.568 0-2.618 1.68-2.716 3.836.42-.91 1.484-1.526 2.576-1.526zm-.056 5.586c1.33 0 2.268-.952 2.268-2.268 0-1.302-.938-2.24-2.268-2.24-1.316 0-2.268.938-2.268 2.24 0 1.316.952 2.268 2.268 2.268zm4.872 1.666h.49c.378 0 .602-.294.602-.91v-1.218h1.12v1.274c0 1.19-.63 1.834-1.652 1.834h-.56v-.98zm7.19-.588c-2.366 0-3.332-1.624-3.332-4.62v-.784c0-2.996.966-4.62 3.332-4.62h.49c2.394 0 3.346 1.624 3.346 4.62v.784c0 2.996-.952 4.62-3.346 4.62h-.49zm.042-1.078h.434c1.526 0 2.17-1.134 2.17-3.402v-1.064c0-2.268-.644-3.402-2.17-3.402h-.434c-1.526 0-2.17 1.134-2.17 3.402v1.064c0 2.268.644 3.402 2.17 3.402zm8.573 1.078c-1.792 0-3.136-1.218-3.304-2.87h1.148c.154 1.148.966 1.792 2.156 1.792 1.442 0 2.366-.84 2.366-2.24 0-1.4-.924-2.324-2.352-2.324-1.078 0-1.848.434-2.142 1.148h-.98l.756-5.418h5.25v1.078h-4.34l-.434 2.954c.476-.448 1.288-.798 2.03-.798 2.044 0 3.444 1.372 3.444 3.36 0 1.988-1.47 3.318-3.598 3.318zm8.537 0c-1.974 0-3.514-1.274-3.514-3.192h1.176c0 1.274 1.008 2.114 2.338 2.114 1.372 0 2.24-.658 2.24-1.82 0-1.148-.868-1.764-2.24-1.764h-.784v-1.05h.77c1.162 0 1.862-.714 1.862-1.694 0-.966-.756-1.54-1.932-1.54-1.12 0-1.848.658-1.918 1.82h-1.162c.07-1.778 1.344-2.898 3.094-2.898 1.82 0 3.136 1.078 3.136 2.576 0 .994-.63 1.834-1.414 2.184 1.022.336 1.806 1.204 1.806 2.38 0 1.876-1.624 2.884-3.458 2.884zm8.413-.112v-9.8h1.358l5.054 7.98v-7.98h1.19v9.8h-1.372l-5.04-7.952V319h-1.19zm13.936.112c-2.422 0-4.704-1.666-4.704-5.012 0-3.346 2.296-5.012 4.732-5.012 2.24 0 3.99 1.33 4.214 3.206h-1.26c-.224-1.246-1.456-2.128-2.968-2.128-2.016 0-3.5 1.386-3.5 3.934 0 2.534 1.484 3.962 3.5 3.962 1.61 0 3.038-.91 3.038-2.324 0-.448-.294-.742-.77-.742h-2.212v-1.036h2.422c.714 0 1.736.56 1.736 1.68V319h-1.106v-1.708c-.462 1.078-1.68 1.82-3.122 1.82zm5.97-.112v-9.8h1.358l5.054 7.98v-7.98h1.19v9.8h-1.372l-5.04-7.952V319h-1.19z"/><path fill="#fff" d="M4 336h375v66H4z"/><rect width="40" height="40" x="20" y="349" fill="#F90" rx="20"/><path fill="#fff" d="M48.203 366.795c.353-2.364-1.447-3.635-3.908-4.483l.799-3.202-1.95-.486-.777 3.118c-.512-.128-1.039-.248-1.562-.368l.783-3.138-1.948-.486-.8 3.201c-.423-.096-.84-.192-1.244-.292l.002-.01-2.688-.671-.519 2.082s1.447.331 1.416.352c.79.197.933.719.908 1.133l-.909 3.649c.055.013.125.033.203.065l-.206-.052-1.275 5.111c-.097.24-.341.6-.893.463.02.029-1.417-.353-1.417-.353l-.968 2.232 2.537.632c.472.118.935.242 1.39.359l-.807 3.239 1.947.486.8-3.205c.53.145 1.047.278 1.552.403l-.796 3.19 1.95.486.806-3.233c3.324.629 5.824.375 6.875-2.631.848-2.42-.041-3.817-1.79-4.728 1.273-.295 2.233-1.132 2.49-2.863zm-4.454 6.246c-.603 2.42-4.678 1.112-6 .784l1.07-4.292c1.322.33 5.558.983 4.93 3.508zm.602-6.281c-.55 2.202-3.942 1.083-5.043.809l.97-3.892c1.102.274 4.646.786 4.073 3.083z"/><path fill="#000" fill-opacity=".95" d="M77.184 375v-11.2h4c2.128 0 3.424 1.056 3.424 2.88 0 1.04-.736 1.872-1.488 2.192 1.152.384 1.984 1.296 1.984 2.864 0 2.016-1.36 3.264-3.664 3.264h-4.256zm1.36-6.56h2.608c1.344 0 2.096-.576 2.096-1.728 0-1.152-.752-1.712-2.096-1.712h-2.608v3.44zm0 5.328h2.672c1.648 0 2.496-.72 2.496-2.048 0-1.344-.848-2.064-2.496-2.064h-2.672v4.112zm8.197-10.144h1.472v1.792h-1.472v-1.792zM86.837 375v-8.064h1.28V375h-1.28zm4.27-10.64h1.28v2.576h2.48v1.136h-2.48v4.368c0 .896.513 1.424 1.297 1.424h1.184V375h-1.232c-1.536 0-2.528-.96-2.528-2.528v-4.4h-1.68v-1.136h1.68v-2.576zm8.39 10.768c-2.545 0-3.92-2-3.92-4.16s1.375-4.16 3.92-4.16c1.807 0 3.423 1.056 3.663 2.848h-1.264c-.16-.976-1.168-1.696-2.384-1.696-1.76 0-2.608 1.36-2.608 3.008s.864 3.008 2.608 3.008c1.216 0 2.096-.608 2.384-1.584h1.248c-.272 1.648-1.6 2.736-3.648 2.736zm8.863 0c-2.384 0-4.096-1.744-4.096-4.16 0-2.432 1.712-4.16 4.096-4.16 2.4 0 4.112 1.728 4.112 4.16 0 2.416-1.712 4.16-4.112 4.16zm0-1.152c1.664 0 2.8-1.248 2.8-3.008s-1.136-3.008-2.8-3.008c-1.648 0-2.784 1.248-2.784 3.008s1.136 3.008 2.784 3.008zm5.663-10.352h1.472v1.792h-1.472v-1.792zm.095 11.376v-8.064h1.281V375h-1.281zm3.391 0v-8.064h1.28v1.552c.416-1.12 1.424-1.68 2.656-1.68 1.824 0 3.008 1.296 3.008 3.264V375h-1.28v-4.72c0-1.376-.8-2.304-2.016-2.304-1.376 0-2.368 1.104-2.368 2.672V375h-1.28zm179.098-11.872c-2.704 0-3.808-1.856-3.808-5.28v-.896c0-3.424 1.104-5.28 3.808-5.28h.56c2.736 0 3.824 1.856 3.824 5.28v.896c0 3.424-1.088 5.28-3.824 5.28h-.56zm.048-1.232h.496c1.744 0 2.48-1.296 2.48-3.888v-1.216c0-2.592-.736-3.888-2.48-3.888h-.496c-1.744 0-2.48 1.296-2.48 3.888v1.216c0 2.592.736 3.888 2.48 3.888zm6.407-.4h1.424V363h-1.424v-1.504zm7.28 1.632c-2.704 0-3.808-1.856-3.808-5.28v-.896c0-3.424 1.104-5.28 3.808-5.28h.56c2.736 0 3.824 1.856 3.824 5.28v.896c0 3.424-1.088 5.28-3.824 5.28h-.56zm.048-1.232h.496c1.744 0 2.48-1.296 2.48-3.888v-1.216c0-2.592-.736-3.888-2.48-3.888h-.496c-1.744 0-2.48 1.296-2.48 3.888v1.216c0 2.592.736 3.888 2.48 3.888zm9.149-10.096V363h-1.36v-8.864c-.176.256-.576.384-1.008.384h-1.072v-1.232h.912c.704 0 1.104-.304 1.184-1.488h1.344zm5.852 11.328c-2.048 0-3.584-1.392-3.776-3.28h1.312c.176 1.312 1.104 2.048 2.464 2.048 1.648 0 2.704-.96 2.704-2.56s-1.056-2.656-2.688-2.656c-1.232 0-2.112.496-2.448 1.312h-1.12l.864-6.192h6v1.232h-4.96l-.496 3.376c.544-.512 1.472-.912 2.32-.912 2.336 0 3.936 1.568 3.936 3.84s-1.68 3.792-4.112 3.792zm9.871-.128v-11.2h4c2.128 0 3.424 1.056 3.424 2.88 0 1.04-.736 1.872-1.488 2.192 1.152.384 1.984 1.296 1.984 2.864 0 2.016-1.36 3.264-3.664 3.264h-4.256zm1.36-6.56h2.608c1.344 0 2.096-.576 2.096-1.728 0-1.152-.752-1.712-2.096-1.712h-2.608v3.44zm0 5.328h2.672c1.648 0 2.496-.72 2.496-2.048 0-1.344-.848-2.064-2.496-2.064h-2.672v4.112zM347.323 363v-9.968h-3.584V351.8h8.528v1.232h-3.568V363h-1.376zm10.413.128c-2.8 0-5.392-1.872-5.392-5.728 0-3.872 2.608-5.728 5.392-5.728 2.432 0 4.432 1.52 4.736 3.616h-1.44c-.192-1.376-1.584-2.384-3.296-2.384-2.336 0-3.984 1.584-3.984 4.496 0 2.912 1.648 4.496 3.984 4.496 1.744 0 3.152-1.008 3.312-2.384h1.408c-.24 2.096-2.24 3.616-4.72 3.616z"/><path fill="#000" fill-opacity=".32" d="M261.747 388.112c-1.792 0-3.136-1.218-3.304-2.87h1.148c.154 1.148.966 1.792 2.156 1.792 1.442 0 2.366-.84 2.366-2.24 0-1.4-.924-2.324-2.352-2.324-1.078 0-1.848.434-2.142 1.148h-.98l.756-5.418h5.25v1.078h-4.34l-.434 2.954c.476-.448 1.288-.798 2.03-.798 2.044 0 3.444 1.372 3.444 3.36 0 1.988-1.47 3.318-3.598 3.318zm8.536 0c-1.974 0-3.514-1.274-3.514-3.192h1.176c0 1.274 1.008 2.114 2.338 2.114 1.372 0 2.24-.658 2.24-1.82 0-1.148-.868-1.764-2.24-1.764h-.784v-1.05h.77c1.162 0 1.862-.714 1.862-1.694 0-.966-.756-1.54-1.932-1.54-1.12 0-1.848.658-1.918 1.82h-1.162c.07-1.778 1.344-2.898 3.094-2.898 1.82 0 3.136 1.078 3.136 2.576 0 .994-.63 1.834-1.414 2.184 1.022.336 1.806 1.204 1.806 2.38 0 1.876-1.624 2.884-3.458 2.884zm6.001-.112c.014-1.484.196-2.912 1.526-5.068l2.254-3.654h-5.712V378.2h7.07v.98l-2.688 4.438c-1.106 1.848-1.246 3.094-1.246 4.382h-1.204zm4.015.7h.49c.378 0 .602-.294.602-.91v-1.218h1.12v1.274c0 1.19-.63 1.834-1.652 1.834h-.56v-.98zm7.679-7.252c2.03 0 3.444 1.414 3.444 3.332 0 1.932-1.484 3.332-3.5 3.332-2.24 0-3.64-1.792-3.64-4.494 0-3.682 1.652-5.544 3.822-5.544 1.806 0 3.122 1.064 3.388 2.618h-1.204c-.21-.952-1.008-1.554-2.17-1.554-1.568 0-2.618 1.68-2.716 3.836.42-.91 1.484-1.526 2.576-1.526zm-.056 5.586c1.33 0 2.268-.952 2.268-2.268 0-1.302-.938-2.24-2.268-2.24-1.316 0-2.268.938-2.268 2.24 0 1.316.952 2.268 2.268 2.268zm10.066.966v-2.45h-5.264v-1.078l5.054-6.272h1.4v6.272h1.526v1.078h-1.526V388h-1.19zm-3.99-3.528h3.99v-4.956l-3.99 4.956zm11.168 3.64c-2.366 0-3.332-1.624-3.332-4.62v-.784c0-2.996.966-4.62 3.332-4.62h.49c2.394 0 3.346 1.624 3.346 4.62v.784c0 2.996-.952 4.62-3.346 4.62h-.49zm.042-1.078h.434c1.526 0 2.17-1.134 2.17-3.402v-1.064c0-2.268-.644-3.402-2.17-3.402h-.434c-1.526 0-2.17 1.134-2.17 3.402v1.064c0 2.268.644 3.402 2.17 3.402zm5.606-.35h1.246V388h-1.246v-1.316zm6.194 1.428c-1.792 0-3.136-1.218-3.304-2.87h1.148c.154 1.148.966 1.792 2.156 1.792 1.442 0 2.366-.84 2.366-2.24 0-1.4-.924-2.324-2.352-2.324-1.078 0-1.848.434-2.142 1.148h-.98l.756-5.418h5.25v1.078h-4.34l-.434 2.954c.476-.448 1.288-.798 2.03-.798 2.044 0 3.444 1.372 3.444 3.36 0 1.988-1.47 3.318-3.598 3.318zm8.759-6.664c2.03 0 3.444 1.414 3.444 3.332 0 1.932-1.484 3.332-3.5 3.332-2.24 0-3.64-1.792-3.64-4.494 0-3.682 1.652-5.544 3.822-5.544 1.806 0 3.122 1.064 3.388 2.618h-1.204c-.21-.952-1.008-1.554-2.17-1.554-1.568 0-2.618 1.68-2.716 3.836.42-.91 1.484-1.526 2.576-1.526zm-.056 5.586c1.33 0 2.268-.952 2.268-2.268 0-1.302-.938-2.24-2.268-2.24-1.316 0-2.268.938-2.268 2.24 0 1.316.952 2.268 2.268 2.268zm8.739.966v-9.8h1.358l5.054 7.98v-7.98h1.19v9.8h-1.372l-5.04-7.952V388h-1.19zm13.936.112c-2.422 0-4.704-1.666-4.704-5.012 0-3.346 2.296-5.012 4.732-5.012 2.24 0 3.99 1.33 4.214 3.206h-1.26c-.224-1.246-1.456-2.128-2.968-2.128-2.016 0-3.5 1.386-3.5 3.934 0 2.534 1.484 3.962 3.5 3.962 1.61 0 3.038-.91 3.038-2.324 0-.448-.294-.742-.77-.742h-2.212v-1.036h2.422c.714 0 1.736.56 1.736 1.68V388h-1.106v-1.708c-.462 1.078-1.68 1.82-3.122 1.82zm5.97-.112v-9.8h1.358l5.054 7.98v-7.98h1.19v9.8h-1.372l-5.04-7.952V388h-1.19z"/><path fill="#fff" d="M4 402h375v66H4z"/><rect width="40" height="40" x="20" y="415" fill="#F3BA2F" rx="20"/><path fill="#fff" d="m35.252 433.026 4.708-4.708 4.71 4.71 2.739-2.739-7.45-7.449-7.446 7.446 2.74 2.739v.001zm-7.412 1.934 2.74-2.74 2.738 2.739-2.74 2.739-2.738-2.738zm7.412 1.934 4.708 4.708 4.71-4.71 2.74 2.738-.001.001-7.45 7.449-7.45-7.451 2.743-2.735zm11.35-1.933 2.739-2.739 2.739 2.739-2.74 2.739-2.738-2.739z"/><path fill="#fff" d="M42.738 434.958h.001l-2.78-2.779-2.776 2.777-.004.003.004.004 2.777 2.778 2.78-2.78v-.001l-.002-.002"/><path fill="#000" fill-opacity=".95" d="M77.184 441v-11.2h4c2.128 0 3.424 1.056 3.424 2.88 0 1.04-.736 1.872-1.488 2.192 1.152.384 1.984 1.296 1.984 2.864 0 2.016-1.36 3.264-3.664 3.264h-4.256zm1.36-6.56h2.608c1.344 0 2.096-.576 2.096-1.728 0-1.152-.752-1.712-2.096-1.712h-2.608v3.44zm0 5.328h2.672c1.648 0 2.496-.72 2.496-2.048 0-1.344-.848-2.064-2.496-2.064h-2.672v4.112zm8.197-10.144h1.472v1.792h-1.472v-1.792zM86.837 441v-8.064h1.28V441h-1.28zm3.39 0v-8.064h1.28v1.552c.417-1.12 1.425-1.68 2.657-1.68 1.824 0 3.008 1.296 3.008 3.264V441h-1.28v-4.72c0-1.376-.8-2.304-2.016-2.304-1.376 0-2.368 1.104-2.368 2.672V441h-1.28zm12.058-8.192c2.096 0 3.408 1.2 3.408 2.992v5.2h-1.28v-1.392c-.432.928-1.504 1.52-2.752 1.52-1.696 0-2.8-.96-2.8-2.432 0-1.536 1.264-2.512 3.216-2.512h1.824c.352 0 .512-.176.512-.432 0-1.104-.784-1.856-2.16-1.856-1.184 0-2.112.736-2.176 1.616h-1.216c.144-1.552 1.616-2.704 3.424-2.704zm-.432 7.232c1.616 0 2.56-1.008 2.56-2.672v-.208h-2.256c-1.2 0-1.984.576-1.984 1.52 0 .832.656 1.36 1.68 1.36zm5.734.96v-8.064h1.28v1.552c.416-1.12 1.424-1.68 2.656-1.68 1.824 0 3.008 1.296 3.008 3.264V441h-1.28v-4.72c0-1.376-.8-2.304-2.016-2.304-1.376 0-2.368 1.104-2.368 2.672V441h-1.28zm12.519.128c-2.544 0-3.92-2-3.92-4.16s1.376-4.16 3.92-4.16c1.808 0 3.424 1.056 3.664 2.848h-1.264c-.16-.976-1.168-1.696-2.384-1.696-1.76 0-2.608 1.36-2.608 3.008s.864 3.008 2.608 3.008c1.216 0 2.096-.608 2.384-1.584h1.248c-.272 1.648-1.6 2.736-3.648 2.736zm11.151-2.72h1.296c-.272 1.648-1.696 2.72-3.696 2.72-2.384 0-3.984-1.904-3.984-4.208 0-2.368 1.472-4.112 3.84-4.112 2.352 0 3.76 1.632 3.76 3.776 0 .176-.016.448-.032.56h-6.304c.096 1.664 1.2 2.848 2.72 2.848 1.312 0 2.144-.576 2.4-1.584zm-2.544-4.512c-1.36 0-2.272.8-2.512 2.224h4.96c-.096-1.36-1.008-2.224-2.448-2.224zm14.304 7.232c-2.8 0-5.392-1.872-5.392-5.728 0-3.872 2.608-5.728 5.392-5.728 2.432 0 4.432 1.52 4.736 3.616h-1.44c-.192-1.376-1.584-2.384-3.296-2.384-2.336 0-3.984 1.584-3.984 4.496 0 2.912 1.648 4.496 3.984 4.496 1.744 0 3.152-1.008 3.312-2.384h1.408c-.24 2.096-2.24 3.616-4.72 3.616zm9.952 0c-2.384 0-4.096-1.744-4.096-4.16 0-2.432 1.712-4.16 4.096-4.16 2.4 0 4.112 1.728 4.112 4.16 0 2.416-1.712 4.16-4.112 4.16zm0-1.152c1.664 0 2.8-1.248 2.8-3.008s-1.136-3.008-2.8-3.008c-1.648 0-2.784 1.248-2.784 3.008s1.136 3.008 2.784 3.008zm5.663-10.352h1.472v1.792h-1.472v-1.792zm.096 11.376v-8.064h1.28V441h-1.28zm3.39 0v-8.064h1.281v1.552c.416-1.12 1.424-1.68 2.656-1.68 1.824 0 3.007 1.296 3.007 3.264V441h-1.279v-4.72c0-1.376-.8-2.304-2.017-2.304-1.375 0-2.367 1.104-2.367 2.672V441h-1.281zm165.28-23.2V429h-1.36v-8.864c-.176.256-.576.384-1.008.384h-1.072v-1.232h.912c.704 0 1.104-.304 1.184-1.488h1.344zm6.161 11.2v-11.2h4c2.128 0 3.424 1.056 3.424 2.88 0 1.04-.736 1.872-1.488 2.192 1.152.384 1.984 1.296 1.984 2.864 0 2.016-1.36 3.264-3.664 3.264h-4.256zm1.36-6.56h2.608c1.344 0 2.096-.576 2.096-1.728 0-1.152-.752-1.712-2.096-1.712h-2.608v3.44zm0 5.328h2.672c1.648 0 2.496-.72 2.496-2.048 0-1.344-.848-2.064-2.496-2.064h-2.672v4.112zM343.34 429v-11.2h1.552l5.776 9.12v-9.12h1.36V429h-1.568l-5.76-9.088V429h-1.36zm11.063 0v-11.2h4c2.128 0 3.424 1.056 3.424 2.88 0 1.04-.736 1.872-1.488 2.192 1.152.384 1.984 1.296 1.984 2.864 0 2.016-1.36 3.264-3.664 3.264h-4.256zm1.36-6.56h2.608c1.344 0 2.096-.576 2.096-1.728 0-1.152-.752-1.712-2.096-1.712h-2.608v3.44zm0 5.328h2.672c1.648 0 2.496-.72 2.496-2.048 0-1.344-.848-2.064-2.496-2.064h-2.672v4.112z"/><path fill="#000" fill-opacity=".32" d="M256.64 447.378c-.07-2.002 1.218-3.29 3.234-3.29 1.848 0 3.178 1.148 3.178 2.926 0 1.274-.784 2.352-2.282 3.094l-1.4.714c-.798.406-1.694 1.148-1.694 2.1h5.432V454h-6.594v-.854c0-1.75 1.372-2.828 2.38-3.332l1.498-.77c1.05-.532 1.428-1.204 1.428-2.058 0-1.12-.826-1.848-1.946-1.848-1.26 0-2.058.896-2.002 2.24h-1.232zm11.072 6.734c-1.974 0-3.514-1.274-3.514-3.192h1.176c0 1.274 1.008 2.114 2.338 2.114 1.372 0 2.24-.658 2.24-1.82 0-1.148-.868-1.764-2.24-1.764h-.784v-1.05h.77c1.162 0 1.862-.714 1.862-1.694 0-.966-.756-1.54-1.932-1.54-1.12 0-1.848.658-1.918 1.82h-1.162c.07-1.778 1.344-2.898 3.094-2.898 1.82 0 3.136 1.078 3.136 2.576 0 .994-.63 1.834-1.414 2.184 1.022.336 1.806 1.204 1.806 2.38 0 1.876-1.624 2.884-3.458 2.884zm8.005 0c-2.366 0-3.332-1.624-3.332-4.62v-.784c0-2.996.966-4.62 3.332-4.62h.49c2.394 0 3.346 1.624 3.346 4.62v.784c0 2.996-.952 4.62-3.346 4.62h-.49zm.042-1.078h.434c1.526 0 2.17-1.134 2.17-3.402v-1.064c0-2.268-.644-3.402-2.17-3.402h-.434c-1.526 0-2.17 1.134-2.17 3.402v1.064c0 2.268.644 3.402 2.17 3.402zm5.045 1.666h.49c.378 0 .602-.294.602-.91v-1.218h1.12v1.274c0 1.19-.63 1.834-1.652 1.834h-.56v-.98zm7.19-.588c-2.366 0-3.332-1.624-3.332-4.62v-.784c0-2.996.966-4.62 3.332-4.62h.49c2.394 0 3.346 1.624 3.346 4.62v.784c0 2.996-.952 4.62-3.346 4.62h-.49zm.042-1.078h.434c1.526 0 2.17-1.134 2.17-3.402v-1.064c0-2.268-.644-3.402-2.17-3.402h-.434c-1.526 0-2.17 1.134-2.17 3.402v1.064c0 2.268.644 3.402 2.17 3.402zm8.476 1.078c-2.366 0-3.332-1.624-3.332-4.62v-.784c0-2.996.966-4.62 3.332-4.62h.49c2.394 0 3.346 1.624 3.346 4.62v.784c0 2.996-.952 4.62-3.346 4.62h-.49zm.042-1.078h.434c1.526 0 2.17-1.134 2.17-3.402v-1.064c0-2.268-.644-3.402-2.17-3.402h-.434c-1.526 0-2.17 1.134-2.17 3.402v1.064c0 2.268.644 3.402 2.17 3.402zm8.475 1.078c-2.366 0-3.332-1.624-3.332-4.62v-.784c0-2.996.966-4.62 3.332-4.62h.49c2.394 0 3.346 1.624 3.346 4.62v.784c0 2.996-.952 4.62-3.346 4.62h-.49zm.042-1.078h.434c1.526 0 2.17-1.134 2.17-3.402v-1.064c0-2.268-.644-3.402-2.17-3.402h-.434c-1.526 0-2.17 1.134-2.17 3.402v1.064c0 2.268.644 3.402 2.17 3.402zm5.606-.35h1.246V454h-1.246v-1.316zm6.37 1.428c-2.366 0-3.332-1.624-3.332-4.62v-.784c0-2.996.966-4.62 3.332-4.62h.49c2.394 0 3.346 1.624 3.346 4.62v.784c0 2.996-.952 4.62-3.346 4.62h-.49zm.042-1.078h.434c1.526 0 2.17-1.134 2.17-3.402v-1.064c0-2.268-.644-3.402-2.17-3.402h-.434c-1.526 0-2.17 1.134-2.17 3.402v1.064c0 2.268.644 3.402 2.17 3.402zm8.476 1.078c-2.366 0-3.332-1.624-3.332-4.62v-.784c0-2.996.966-4.62 3.332-4.62h.49c2.394 0 3.346 1.624 3.346 4.62v.784c0 2.996-.952 4.62-3.346 4.62h-.49zm.042-1.078h.434c1.526 0 2.17-1.134 2.17-3.402v-1.064c0-2.268-.644-3.402-2.17-3.402h-.434c-1.526 0-2.17 1.134-2.17 3.402v1.064c0 2.268.644 3.402 2.17 3.402zm8.843.966v-9.8h1.358l5.054 7.98v-7.98h1.19v9.8h-1.372l-5.04-7.952V454h-1.19zm13.936.112c-2.422 0-4.704-1.666-4.704-5.012 0-3.346 2.296-5.012 4.732-5.012 2.24 0 3.99 1.33 4.214 3.206h-1.26c-.224-1.246-1.456-2.128-2.968-2.128-2.016 0-3.5 1.386-3.5 3.934 0 2.534 1.484 3.962 3.5 3.962 1.61 0 3.038-.91 3.038-2.324 0-.448-.294-.742-.77-.742h-2.212v-1.036h2.422c.714 0 1.736.56 1.736 1.68V454h-1.106v-1.708c-.462 1.078-1.68 1.82-3.122 1.82zm5.97-.112v-9.8h1.358l5.054 7.98v-7.98h1.19v9.8h-1.372l-5.04-7.952V454h-1.19z"/><path fill="#fff" d="M4 468h375v62H4z"/><rect width="40" height="40" x="20" y="479" fill="#627EEA" rx="20"/><path fill="#fff" d="m40.322 488.412-.142.482v13.999l.142.142 6.498-3.841-6.498-10.782z"/><path fill="#fff" d="m40.322 488.412-6.499 10.782 6.498 3.841v-14.623zm-.001 15.853-.08.098v4.987l.08.233 6.502-9.157-6.502 3.839z"/><path fill="#fff" d="M40.322 509.583v-5.318l-6.499-3.839 6.498 9.157zm-.001-6.548 6.498-3.841-6.498-2.954v6.795zm-6.498-3.841 6.498 3.841v-6.795l-6.498 2.954z"/><path fill="#000" fill-opacity=".95" d="M77.184 505v-11.2h7.008v1.232h-5.648v3.568h4.592v1.232h-4.592v3.936h5.824V505h-7.184zm9.627-10.64h1.28v2.576h2.48v1.136h-2.48v4.368c0 .896.512 1.424 1.296 1.424h1.184V505h-1.232c-1.536 0-2.528-.96-2.528-2.528v-4.4h-1.68v-1.136h1.68v-2.576zM92.136 505v-11.376h1.28v4.864c.416-1.12 1.424-1.68 2.656-1.68 1.824 0 3.008 1.296 3.008 3.264V505H97.8v-4.72c0-1.376-.8-2.304-2.016-2.304-1.376 0-2.368 1.104-2.368 2.672V505h-1.28zm14.981-2.592h1.296c-.272 1.648-1.696 2.72-3.696 2.72-2.384 0-3.984-1.904-3.984-4.208 0-2.368 1.472-4.112 3.84-4.112 2.352 0 3.76 1.632 3.76 3.776 0 .176-.016.448-.032.56h-6.304c.096 1.664 1.2 2.848 2.72 2.848 1.312 0 2.144-.576 2.4-1.584zm-2.544-4.512c-1.36 0-2.272.8-2.512 2.224h4.96c-.096-1.36-1.008-2.224-2.448-2.224zm9.979.176h-1.12c-1.632 0-2.096 1.472-2.096 3.376V505h-1.28v-8.064h1.28v1.632c.336-1.104 1.008-1.632 2.192-1.632h1.024v1.136zm6.908 4.336h1.296c-.272 1.648-1.696 2.72-3.696 2.72-2.384 0-3.984-1.904-3.984-4.208 0-2.368 1.472-4.112 3.84-4.112 2.352 0 3.76 1.632 3.76 3.776 0 .176-.016.448-.032.56h-6.304c.096 1.664 1.2 2.848 2.72 2.848 1.312 0 2.144-.576 2.4-1.584zm-2.544-4.512c-1.36 0-2.272.8-2.512 2.224h4.96c-.096-1.36-1.008-2.224-2.448-2.224zm12.428-.96V505h-1.28v-1.552c-.416 1.12-1.408 1.68-2.656 1.68-1.824 0-3.008-1.296-3.008-3.264v-4.928h1.28v4.72c0 1.376.8 2.304 2.016 2.304 1.392 0 2.368-1.104 2.368-2.672v-4.352h1.28zm2.118 8.064v-8.064h1.28v1.552c.304-.976 1.2-1.68 2.432-1.68 1.328 0 2.368.608 2.656 1.712.304-.96 1.376-1.712 2.608-1.712 1.744 0 2.8 1.168 2.8 3.12V505h-1.28v-4.736c0-1.376-.688-2.32-1.824-2.32-1.344 0-2.144.944-2.144 2.32V505h-1.28v-4.736c0-1.376-.688-2.32-1.808-2.32-1.36 0-2.16.944-2.16 2.32V505h-1.28zm168.958-11.872c-2.704 0-3.808-1.856-3.808-5.28v-.896c0-3.424 1.104-5.28 3.808-5.28h.56c2.736 0 3.824 1.856 3.824 5.28v.896c0 3.424-1.088 5.28-3.824 5.28h-.56zm.048-1.232h.496c1.744 0 2.48-1.296 2.48-3.888v-1.216c0-2.592-.736-3.888-2.48-3.888h-.496c-1.744 0-2.48 1.296-2.48 3.888v1.216c0 2.592.736 3.888 2.48 3.888zm6.406-.4h1.424V493h-1.424v-1.504zm7.28 1.632c-2.704 0-3.808-1.856-3.808-5.28v-.896c0-3.424 1.104-5.28 3.808-5.28h.56c2.736 0 3.824 1.856 3.824 5.28v.896c0 3.424-1.088 5.28-3.824 5.28h-.56zm.048-1.232h.496c1.744 0 2.48-1.296 2.48-3.888v-1.216c0-2.592-.736-3.888-2.48-3.888h-.496c-1.744 0-2.48 1.296-2.48 3.888v1.216c0 2.592.736 3.888 2.48 3.888zm6.087-6.464c-.08-2.288 1.392-3.76 3.696-3.76 2.112 0 3.632 1.312 3.632 3.344 0 1.456-.896 2.688-2.608 3.536l-1.6.816c-.912.464-1.936 1.312-1.936 2.4h6.208V493h-7.536v-.976c0-2 1.568-3.232 2.72-3.808l1.712-.88c1.2-.608 1.632-1.376 1.632-2.352 0-1.28-.944-2.112-2.224-2.112-1.44 0-2.352 1.024-2.288 2.56h-1.408zM335.231 493v-11.2h7.008v1.232h-5.648v3.568h4.592v1.232h-4.592v3.936h5.824V493h-7.184zm11.654 0v-9.968h-3.584V481.8h8.528v1.232h-3.568V493h-1.376zm13.564-11.2h1.36V493h-1.36v-5.168h-5.936V493h-1.36v-11.2h1.36v4.8h5.936v-4.8z"/><path fill="#000" fill-opacity=".32" d="M268.142 518v-2.45h-5.264v-1.078l5.054-6.272h1.4v6.272h1.526v1.078h-1.526V518h-1.19zm-3.99-3.528h3.99v-4.956l-3.99 4.956zm11.434 3.64c-1.89 0-3.486-1.036-3.486-2.898 0-1.19.798-2.142 1.82-2.492-.784-.378-1.428-1.078-1.428-2.058 0-1.512 1.26-2.576 3.094-2.576 1.834 0 3.094 1.064 3.094 2.576 0 .98-.644 1.68-1.428 2.058 1.022.35 1.806 1.302 1.806 2.492 0 1.862-1.582 2.898-3.472 2.898zm0-5.852c1.162 0 1.904-.602 1.904-1.582 0-.966-.742-1.54-1.904-1.54s-1.904.574-1.904 1.54c0 .98.742 1.582 1.904 1.582zm0 4.774c1.372 0 2.254-.686 2.254-1.82 0-1.162-.882-1.862-2.254-1.862-1.372 0-2.268.7-2.268 1.862 0 1.134.896 1.82 2.268 1.82zm4.836 1.666h.49c.378 0 .602-.294.602-.91v-1.218h1.12v1.274c0 1.19-.63 1.834-1.652 1.834h-.56v-.98zm7.189-.588c-2.366 0-3.332-1.624-3.332-4.62v-.784c0-2.996.966-4.62 3.332-4.62h.49c2.394 0 3.346 1.624 3.346 4.62v.784c0 2.996-.952 4.62-3.346 4.62h-.49zm.042-1.078h.434c1.526 0 2.17-1.134 2.17-3.402v-1.064c0-2.268-.644-3.402-2.17-3.402h-.434c-1.526 0-2.17 1.134-2.17 3.402v1.064c0 2.268.644 3.402 2.17 3.402zm8.966-5.586c2.03 0 3.444 1.414 3.444 3.332 0 1.932-1.484 3.332-3.5 3.332-2.24 0-3.64-1.792-3.64-4.494 0-3.682 1.652-5.544 3.822-5.544 1.806 0 3.122 1.064 3.388 2.618h-1.204c-.21-.952-1.008-1.554-2.17-1.554-1.568 0-2.618 1.68-2.716 3.836.42-.91 1.484-1.526 2.576-1.526zm-.056 5.586c1.33 0 2.268-.952 2.268-2.268 0-1.302-.938-2.24-2.268-2.24-1.316 0-2.268.938-2.268 2.24 0 1.316.952 2.268 2.268 2.268zm8.441 1.078c-1.792 0-3.136-1.218-3.304-2.87h1.148c.154 1.148.966 1.792 2.156 1.792 1.442 0 2.366-.84 2.366-2.24 0-1.4-.924-2.324-2.352-2.324-1.078 0-1.848.434-2.142 1.148h-.98l.756-5.418h5.25v1.078h-4.34l-.434 2.954c.476-.448 1.288-.798 2.03-.798 2.044 0 3.444 1.372 3.444 3.36 0 1.988-1.47 3.318-3.598 3.318zm5.4-1.428h1.246V518h-1.246v-1.316zm6.37 1.428c-2.366 0-3.332-1.624-3.332-4.62v-.784c0-2.996.966-4.62 3.332-4.62h.49c2.394 0 3.346 1.624 3.346 4.62v.784c0 2.996-.952 4.62-3.346 4.62h-.49zm.042-1.078h.434c1.526 0 2.17-1.134 2.17-3.402v-1.064c0-2.268-.644-3.402-2.17-3.402h-.434c-1.526 0-2.17 1.134-2.17 3.402v1.064c0 2.268.644 3.402 2.17 3.402zm8.783-2.282c-2.03 0-3.458-1.414-3.458-3.332 0-1.932 1.484-3.332 3.514-3.332 2.24 0 3.626 1.792 3.626 4.494 0 3.682-1.652 5.544-3.808 5.544-1.806 0-3.136-1.078-3.388-2.618h1.19c.21.952 1.008 1.554 2.17 1.554 1.582 0 2.632-1.68 2.716-3.836-.406.896-1.484 1.526-2.562 1.526zm.042-5.586c-1.33 0-2.268.938-2.268 2.268 0 1.302.938 2.24 2.268 2.24 1.33 0 2.268-.938 2.268-2.24 0-1.33-.938-2.268-2.268-2.268zM334.45 518v-9.8h1.358l5.054 7.98v-7.98h1.19v9.8h-1.372l-5.04-7.952V518h-1.19zm13.936.112c-2.422 0-4.704-1.666-4.704-5.012 0-3.346 2.296-5.012 4.732-5.012 2.24 0 3.99 1.33 4.214 3.206h-1.26c-.224-1.246-1.456-2.128-2.968-2.128-2.016 0-3.5 1.386-3.5 3.934 0 2.534 1.484 3.962 3.5 3.962 1.61 0 3.038-.91 3.038-2.324 0-.448-.294-.742-.77-.742h-2.212v-1.036h2.422c.714 0 1.736.56 1.736 1.68V518h-1.106v-1.708c-.462 1.078-1.68 1.82-3.122 1.82zm5.97-.112v-9.8h1.358l5.054 7.98v-7.98h1.19v9.8h-1.372l-5.04-7.952V518h-1.19z"/><path fill="#fff" d="M4 530h375v72H4z"/><rect width="40" height="39.422" x="20" y="546.289" fill="#000" rx="19.711"/><path fill="#fff" d="m50 561.771-15.788 8.039L30 571.957v1.727l16.864-8.593a6.927 6.927 0 0 1-10.256 6.949l-.085.045-1.494.761a8.457 8.457 0 0 0 12.185-2.425 8.46 8.46 0 0 0 1.223-5.069 1.54 1.54 0 0 1 .835-1.488l.728-.37v-1.723zm-16.86 5.133a6.927 6.927 0 0 1 10.246-6.944l1.584-.807a8.459 8.459 0 0 0-12.186 2.428 8.46 8.46 0 0 0-1.221 5.065 1.54 1.54 0 0 1-.836 1.487l-.727.371v1.728l20-10.191v-1.728l-16.86 8.591z"/><path fill="#000" fill-opacity=".95" d="M80.816 572.128c-2.512 0-4.112-1.504-4.256-3.792h1.344c.144 1.552 1.168 2.56 2.912 2.56 1.552 0 2.672-.592 2.672-1.952 0-2.88-6.544-1.296-6.544-5.296 0-1.776 1.552-2.976 3.792-2.976 2.24 0 3.792 1.296 3.952 3.312h-1.344c-.128-1.264-1.104-2.08-2.608-2.08-1.52 0-2.416.672-2.416 1.744 0 2.864 6.592 1.088 6.592 5.296 0 2.032-1.76 3.184-4.096 3.184zm6.604-10.768h1.28v2.576h2.48v1.136H88.7v4.368c0 .896.512 1.424 1.296 1.424h1.184V572h-1.232c-1.536 0-2.528-.96-2.528-2.528v-4.4h-1.68v-1.136h1.68v-2.576zm10.853 8.048h1.296c-.272 1.648-1.696 2.72-3.696 2.72-2.384 0-3.984-1.904-3.984-4.208 0-2.368 1.472-4.112 3.84-4.112 2.352 0 3.76 1.632 3.76 3.776 0 .176-.016.448-.032.56h-6.304c.096 1.664 1.2 2.848 2.72 2.848 1.312 0 2.144-.576 2.4-1.584zm-2.544-4.512c-1.36 0-2.272.8-2.512 2.224h4.96c-.096-1.36-1.008-2.224-2.448-2.224zm5.547 7.104v-11.376h1.28V572h-1.28zm3.516 0v-11.376h1.28V572h-1.28zm6.447-8.192c2.096 0 3.408 1.2 3.408 2.992v5.2h-1.28v-1.392c-.432.928-1.504 1.52-2.752 1.52-1.696 0-2.8-.96-2.8-2.432 0-1.536 1.264-2.512 3.216-2.512h1.824c.352 0 .512-.176.512-.432 0-1.104-.784-1.856-2.16-1.856-1.184 0-2.112.736-2.176 1.616h-1.216c.144-1.552 1.616-2.704 3.424-2.704zm-.432 7.232c1.616 0 2.56-1.008 2.56-2.672v-.208h-2.256c-1.2 0-1.984.576-1.984 1.52 0 .832.656 1.36 1.68 1.36zm10.229-5.968h-1.12c-1.632 0-2.096 1.472-2.096 3.376V572h-1.28v-8.064h1.28v1.632c.336-1.104 1.008-1.632 2.192-1.632h1.024v1.136zm201.634-4.944c-2.704 0-3.808-1.856-3.808-5.28v-.896c0-3.424 1.104-5.28 3.808-5.28h.56c2.736 0 3.824 1.856 3.824 5.28v.896c0 3.424-1.088 5.28-3.824 5.28h-.56zm.048-1.232h.496c1.744 0 2.48-1.296 2.48-3.888v-1.216c0-2.592-.736-3.888-2.48-3.888h-.496c-1.744 0-2.48 1.296-2.48 3.888v1.216c0 2.592.736 3.888 2.48 3.888zM340.793 560h-1.424l-2.88-4.544-2.896 4.544h-1.424l3.6-5.68-3.504-5.52h1.424l2.8 4.4 2.784-4.4h1.44l-3.52 5.536 3.6 5.664zm1.719 0v-11.2h1.36v9.968h5.6V560h-6.96zm8.375 0v-11.2h1.776l3.696 9.36 3.68-9.36h1.776V560h-1.328v-8.928L356.951 560h-1.2l-3.536-8.928V560h-1.328z"/><path fill="#000" fill-opacity=".32" d="M325.565 585.112c-2.366 0-3.332-1.624-3.332-4.62v-.784c0-2.996.966-4.62 3.332-4.62h.49c2.394 0 3.346 1.624 3.346 4.62v.784c0 2.996-.952 4.62-3.346 4.62h-.49zm.042-1.078h.434c1.526 0 2.17-1.134 2.17-3.402v-1.064c0-2.268-.644-3.402-2.17-3.402h-.434c-1.526 0-2.17 1.134-2.17 3.402v1.064c0 2.268.644 3.402 2.17 3.402zm8.843.966v-9.8h1.358l5.054 7.98v-7.98h1.19v9.8h-1.372l-5.04-7.952V585h-1.19zm13.936.112c-2.422 0-4.704-1.666-4.704-5.012 0-3.346 2.296-5.012 4.732-5.012 2.24 0 3.99 1.33 4.214 3.206h-1.26c-.224-1.246-1.456-2.128-2.968-2.128-2.016 0-3.5 1.386-3.5 3.934 0 2.534 1.484 3.962 3.5 3.962 1.61 0 3.038-.91 3.038-2.324 0-.448-.294-.742-.77-.742h-2.212v-1.036h2.422c.714 0 1.736.56 1.736 1.68V585h-1.106v-1.708c-.462 1.078-1.68 1.82-3.122 1.82zm5.97-.112v-9.8h1.358l5.054 7.98v-7.98h1.19v9.8h-1.372l-5.04-7.952V585h-1.19z"/><path fill="#fff" d="M4 602h375v72H4z"/><rect width="40" height="40" x="20" y="618" fill="#FF060A" rx="20"/><path fill="#fff" d="M50.895 633.269c-1.105-1.021-2.633-2.581-3.878-3.687l-.073-.052a1.4 1.4 0 0 0-.409-.228c-3.001-.561-16.97-3.175-17.242-3.142a.514.514 0 0 0-.213.081l-.07.055a.83.83 0 0 0-.192.31l-.018.048v.302c1.572 4.385 7.781 18.747 9.004 22.118.073.228.213.664.475.686h.059c.14 0 .736-.789.736-.789s10.665-12.951 11.744-14.33c.14-.17.263-.352.368-.546a.89.89 0 0 0-.29-.826zm-9.085 1.509 4.552-3.78 2.67 2.463-7.222 1.317zm-1.767-.248-7.837-6.43 12.68 2.341-4.843 4.089zm.707 1.686 8.02-1.295-9.17 11.063 1.15-9.768zm-9.608-7.475 8.245 7.006-1.193 10.244-7.052-17.25z"/><path fill="#000" fill-opacity=".95" d="M79.776 644v-9.968h-3.584V632.8h8.528v1.232h-3.568V644h-1.376zm9.823-6.928h-1.12c-1.632 0-2.096 1.472-2.096 3.376V644h-1.28v-8.064h1.28v1.632c.336-1.104 1.008-1.632 2.192-1.632h1.024v1.136zm4.62 7.056c-2.384 0-4.096-1.744-4.096-4.16 0-2.432 1.712-4.16 4.096-4.16 2.4 0 4.112 1.728 4.112 4.16 0 2.416-1.712 4.16-4.112 4.16zm0-1.152c1.664 0 2.8-1.248 2.8-3.008s-1.136-3.008-2.8-3.008c-1.648 0-2.784 1.248-2.784 3.008s1.136 3.008 2.784 3.008zM99.978 644v-8.064h1.28v1.552c.416-1.12 1.424-1.68 2.656-1.68 1.824 0 3.008 1.296 3.008 3.264V644h-1.28v-4.72c0-1.376-.8-2.304-2.016-2.304-1.376 0-2.368 1.104-2.368 2.672V644h-1.28zm189.546-19.568c-.08-2.288 1.392-3.76 3.696-3.76 2.112 0 3.632 1.312 3.632 3.344 0 1.456-.896 2.688-2.608 3.536l-1.6.816c-.912.464-1.936 1.312-1.936 2.4h6.208V632h-7.536v-.976c0-2 1.568-3.232 2.72-3.808l1.712-.88c1.2-.608 1.632-1.376 1.632-2.352 0-1.28-.944-2.112-2.224-2.112-1.44 0-2.352 1.024-2.288 2.56h-1.408zm8.601 8.368h.56c.432 0 .688-.336.688-1.04v-1.392h1.28v1.456c0 1.36-.72 2.096-1.888 2.096h-.64v-1.12zm8.217-.672c-2.704 0-3.808-1.856-3.808-5.28v-.896c0-3.424 1.104-5.28 3.808-5.28h.56c2.736 0 3.824 1.856 3.824 5.28v.896c0 3.424-1.088 5.28-3.824 5.28h-.56zm.048-1.232h.496c1.744 0 2.48-1.296 2.48-3.888v-1.216c0-2.592-.736-3.888-2.48-3.888h-.496c-1.744 0-2.48 1.296-2.48 3.888v1.216c0 2.592.736 3.888 2.48 3.888zm9.686 1.232c-2.704 0-3.808-1.856-3.808-5.28v-.896c0-3.424 1.104-5.28 3.808-5.28h.56c2.736 0 3.824 1.856 3.824 5.28v.896c0 3.424-1.088 5.28-3.824 5.28h-.56zm.048-1.232h.496c1.744 0 2.48-1.296 2.48-3.888v-1.216c0-2.592-.736-3.888-2.48-3.888h-.496c-1.744 0-2.48 1.296-2.48 3.888v1.216c0 2.592.736 3.888 2.48 3.888zm9.686 1.232c-2.704 0-3.808-1.856-3.808-5.28v-.896c0-3.424 1.104-5.28 3.808-5.28h.56c2.736 0 3.824 1.856 3.824 5.28v.896c0 3.424-1.088 5.28-3.824 5.28h-.56zm.048-1.232h.496c1.744 0 2.48-1.296 2.48-3.888v-1.216c0-2.592-.736-3.888-2.48-3.888h-.496c-1.744 0-2.48 1.296-2.48 3.888v1.216c0 2.592.736 3.888 2.48 3.888zM338.557 632v-9.968h-3.584V620.8h8.528v1.232h-3.568V632h-1.376zm12.316-5.312c.88.48 1.408 1.392 1.488 2.528l.192 2.784h-1.312l-.192-2.704c-.064-1.088-.768-1.856-1.824-1.856h-3.04V632h-1.36v-11.2h4.24c2.208 0 3.568 1.328 3.568 3.28 0 1.232-.704 2.112-1.76 2.608zm-4.688-4.672v4.192h2.88c1.568 0 2.16-1.024 2.16-2.128s-.592-2.064-2.16-2.064h-2.88zm16.28 9.984h-1.424l-2.88-4.544-2.896 4.544h-1.425l3.601-5.68-3.504-5.52h1.424l2.8 4.4 2.784-4.4h1.44l-3.52 5.536 3.6 5.664z"/><path fill="#000" fill-opacity=".32" d="M285.788 647.2v9.8h-1.19v-7.756c-.154.224-.504.336-.882.336h-.938v-1.078h.798c.616 0 .966-.266 1.036-1.302h1.176zm4.799 0v9.8h-1.19v-7.756c-.154.224-.504.336-.882.336h-.938v-1.078h.798c.616 0 .966-.266 1.036-1.302h1.176zm6.744 9.8v-2.45h-5.264v-1.078l5.054-6.272h1.4v6.272h1.526v1.078h-1.526V657h-1.19zm-3.99-3.528h3.99v-4.956l-3.99 4.956zm7.465 4.228h.49c.378 0 .602-.294.602-.91v-1.218h1.12v1.274c0 1.19-.63 1.834-1.652 1.834h-.56v-.98zm7.68-7.252c2.03 0 3.444 1.414 3.444 3.332 0 1.932-1.484 3.332-3.5 3.332-2.24 0-3.64-1.792-3.64-4.494 0-3.682 1.652-5.544 3.822-5.544 1.806 0 3.122 1.064 3.388 2.618h-1.204c-.21-.952-1.008-1.554-2.17-1.554-1.568 0-2.618 1.68-2.716 3.836.42-.91 1.484-1.526 2.576-1.526zm-.056 5.586c1.33 0 2.268-.952 2.268-2.268 0-1.302-.938-2.24-2.268-2.24-1.316 0-2.268.938-2.268 2.24 0 1.316.952 2.268 2.268 2.268zm8.82-5.586c2.03 0 3.444 1.414 3.444 3.332 0 1.932-1.484 3.332-3.5 3.332-2.24 0-3.64-1.792-3.64-4.494 0-3.682 1.652-5.544 3.822-5.544 1.806 0 3.122 1.064 3.388 2.618h-1.204c-.21-.952-1.008-1.554-2.17-1.554-1.568 0-2.618 1.68-2.716 3.836.42-.91 1.484-1.526 2.576-1.526zm-.056 5.586c1.33 0 2.268-.952 2.268-2.268 0-1.302-.938-2.24-2.268-2.24-1.316 0-2.268.938-2.268 2.24 0 1.316.952 2.268 2.268 2.268zm8.371 1.078c-2.366 0-3.332-1.624-3.332-4.62v-.784c0-2.996.966-4.62 3.332-4.62h.49c2.394 0 3.346 1.624 3.346 4.62v.784c0 2.996-.952 4.62-3.346 4.62h-.49zm.042-1.078h.434c1.526 0 2.17-1.134 2.17-3.402v-1.064c0-2.268-.644-3.402-2.17-3.402h-.434c-1.526 0-2.17 1.134-2.17 3.402v1.064c0 2.268.644 3.402 2.17 3.402zm8.843.966v-9.8h1.358l5.054 7.98v-7.98h1.19v9.8h-1.372l-5.04-7.952V657h-1.19zm13.936.112c-2.422 0-4.704-1.666-4.704-5.012 0-3.346 2.296-5.012 4.732-5.012 2.24 0 3.99 1.33 4.214 3.206h-1.26c-.224-1.246-1.456-2.128-2.968-2.128-2.016 0-3.5 1.386-3.5 3.934 0 2.534 1.484 3.962 3.5 3.962 1.61 0 3.038-.91 3.038-2.324 0-.448-.294-.742-.77-.742h-2.212v-1.036h2.422c.714 0 1.736.56 1.736 1.68V657h-1.106v-1.708c-.462 1.078-1.68 1.82-3.122 1.82zm5.97-.112v-9.8h1.358l5.054 7.98v-7.98h1.19v9.8h-1.372l-5.04-7.952V657h-1.19z"/><path fill="#fff" d="M4 674h375v72H4z"/><rect width="40" height="40" x="20" y="690" fill="#4154A2" rx="20"/><path fill="#fff" d="M39.807 712.312h-3.904v7.768H32.4v-20.16h7.088c2.326 0 4.12.521 5.385 1.565 1.265 1.043 1.897 2.552 1.897 4.527 0 1.348-.328 2.479-.983 3.393-.646.904-1.55 1.601-2.713 2.09L47.6 719.9v.18h-3.75l-4.042-7.768zm-3.904-2.811h3.599c1.181 0 2.104-.295 2.769-.886.664-.6.996-1.417.996-2.45 0-1.08-.309-1.916-.927-2.507-.61-.59-1.523-.895-2.741-.913h-3.696v6.756z"/><path fill="#000" fill-opacity=".95" d="M80.816 716.128c-2.512 0-4.112-1.504-4.256-3.792h1.344c.144 1.552 1.168 2.56 2.912 2.56 1.552 0 2.672-.592 2.672-1.952 0-2.88-6.544-1.296-6.544-5.296 0-1.776 1.552-2.976 3.792-2.976 2.24 0 3.792 1.296 3.952 3.312h-1.344c-.128-1.264-1.104-2.08-2.608-2.08-1.52 0-2.416.672-2.416 1.744 0 2.864 6.592 1.088 6.592 5.296 0 2.032-1.76 3.184-4.096 3.184zm12.684-8.192V716h-1.28v-1.552c-.416 1.12-1.408 1.68-2.656 1.68-1.824 0-3.008-1.296-3.008-3.264v-4.928h1.28v4.72c0 1.376.8 2.304 2.016 2.304 1.392 0 2.368-1.104 2.368-2.672v-4.352h1.28zm6.615 1.136h-1.12c-1.633 0-2.097 1.472-2.097 3.376V716h-1.28v-8.064h1.28v1.632c.337-1.104 1.008-1.632 2.193-1.632h1.024v1.136zm6.908 4.336h1.296c-.272 1.648-1.696 2.72-3.696 2.72-2.384 0-3.984-1.904-3.984-4.208 0-2.368 1.472-4.112 3.84-4.112 2.352 0 3.76 1.632 3.76 3.776 0 .176-.016.448-.032.56h-6.304c.096 1.664 1.2 2.848 2.72 2.848 1.312 0 2.144-.576 2.4-1.584zm-2.544-4.512c-1.36 0-2.272.8-2.512 2.224h4.96c-.096-1.36-1.008-2.224-2.448-2.224zm11.659 1.792c.88.48 1.408 1.392 1.488 2.528l.192 2.784h-1.312l-.192-2.704c-.064-1.088-.768-1.856-1.824-1.856h-3.04V716h-1.36v-11.2h4.24c2.208 0 3.568 1.328 3.568 3.28 0 1.232-.704 2.112-1.76 2.608zm-4.688-4.672v4.192h2.88c1.568 0 2.16-1.024 2.16-2.128s-.592-2.064-2.16-2.064h-2.88zm14.401 7.392h1.296c-.272 1.648-1.696 2.72-3.696 2.72-2.384 0-3.984-1.904-3.984-4.208 0-2.368 1.472-4.112 3.84-4.112 2.352 0 3.76 1.632 3.76 3.776 0 .176-.016.448-.032.56h-6.304c.096 1.664 1.2 2.848 2.72 2.848 1.312 0 2.144-.576 2.4-1.584zm-2.544-4.512c-1.36 0-2.272.8-2.512 2.224h4.96c-.096-1.36-1.008-2.224-2.448-2.224zM128.79 716v-8.064h1.28v1.552c.304-.976 1.2-1.68 2.432-1.68 1.328 0 2.368.608 2.656 1.712.304-.96 1.376-1.712 2.608-1.712 1.744 0 2.8 1.168 2.8 3.12V716h-1.28v-4.736c0-1.376-.688-2.32-1.824-2.32-1.344 0-2.144.944-2.144 2.32V716h-1.28v-4.736c0-1.376-.688-2.32-1.808-2.32-1.36 0-2.16.944-2.16 2.32V716h-1.28zm13.795-11.376h1.472v1.792h-1.472v-1.792zm.096 11.376v-8.064h1.28V716h-1.28zm4.271-10.64h1.28v2.576h2.48v1.136h-2.48v4.368c0 .896.512 1.424 1.296 1.424h1.184V716h-1.232c-1.536 0-2.528-.96-2.528-2.528v-4.4h-1.68v-1.136h1.68v-2.576zm152.275 3.072c-.08-2.288 1.392-3.76 3.696-3.76 2.112 0 3.632 1.312 3.632 3.344 0 1.456-.896 2.688-2.608 3.536l-1.6.816c-.912.464-1.936 1.312-1.936 2.4h6.208V716h-7.536v-.976c0-2 1.568-3.232 2.72-3.808l1.712-.88c1.2-.608 1.632-1.376 1.632-2.352 0-1.28-.944-2.112-2.224-2.112-1.44 0-2.352 1.024-2.288 2.56h-1.408zm12.521 7.696c-2.704 0-3.808-1.856-3.808-5.28v-.896c0-3.424 1.104-5.28 3.808-5.28h.56c2.736 0 3.824 1.856 3.824 5.28v.896c0 3.424-1.088 5.28-3.824 5.28h-.56zm.048-1.232h.496c1.744 0 2.48-1.296 2.48-3.888v-1.216c0-2.592-.736-3.888-2.48-3.888h-.496c-1.744 0-2.48 1.296-2.48 3.888v1.216c0 2.592.736 3.888 2.48 3.888zm9.686 1.232c-2.704 0-3.808-1.856-3.808-5.28v-.896c0-3.424 1.104-5.28 3.808-5.28h.56c2.736 0 3.824 1.856 3.824 5.28v.896c0 3.424-1.088 5.28-3.824 5.28h-.56zm.048-1.232h.496c1.744 0 2.48-1.296 2.48-3.888v-1.216c0-2.592-.736-3.888-2.48-3.888h-.496c-1.744 0-2.48 1.296-2.48 3.888v1.216c0 2.592.736 3.888 2.48 3.888zm16.155-4.208c.88.48 1.408 1.392 1.488 2.528l.192 2.784h-1.312l-.192-2.704c-.064-1.088-.768-1.856-1.824-1.856h-3.04V716h-1.36v-11.2h4.24c2.208 0 3.568 1.328 3.568 3.28 0 1.232-.704 2.112-1.76 2.608zm-4.688-4.672v4.192h2.88c1.568 0 2.16-1.024 2.16-2.128s-.592-2.064-2.16-2.064h-2.88zm8.984 9.984v-11.2h1.776l3.696 9.36 3.68-9.36h1.776V716h-1.328v-8.928L348.045 716h-1.2l-3.536-8.928V716h-1.328zm15.889 0v-9.968h-3.584V704.8h8.528v1.232h-3.568V716h-1.376z"/><mask id="e" fill="#fff"><path d="M4 723h374v94H4v-94z"/></mask><path fill="#fff" d="M4 723h374v94H4v-94z"/><path fill="#000" fill-opacity=".08" d="M4 724h374v-2H4v2z" mask="url(#e)"/><path fill="#000" fill-opacity=".32" fill-rule="evenodd" d="M61 770c0-6.1 4.9-11 11-11s11 4.9 11 11-4.9 11-11 11-11-4.9-11-11zm3 0c0 4.4 3.6 8 8 8s8-3.6 8-8-3.6-8-8-8-8 3.6-8 8zm10.5 2.5-8 3 3-8 8-3-3 8zm-1.1-2.5c0-.8-.6-1.4-1.4-1.4-.8 0-1.4.6-1.4 1.4 0 .8.6 1.4 1.4 1.4.8 0 1.4-.6 1.4-1.4z" clip-rule="evenodd"/><path fill="#000" fill-opacity=".95" fill-rule="evenodd" d="M182 759.5h-1.5v21h21v-16h-18v-2H196v-3h-14zm15 13a1.5 1.5 0 1 1-3.001-.001 1.5 1.5 0 0 1 3.001.001z" clip-rule="evenodd"/><path fill="#000" fill-opacity=".32" fill-rule="evenodd" d="M315.5 764.5c0 3-2.5 5.5-5.5 5.5s-5.5-2.5-5.5-5.5 2.5-5.5 5.5-5.5 5.5 2.5 5.5 5.5zm-3 0c0-1.4-1.1-2.5-2.5-2.5s-2.5 1.1-2.5 2.5 1.1 2.5 2.5 2.5 2.5-1.1 2.5-2.5zM301 778c0-3.3 2.7-6 6-6h6c3.3 0 6 2.7 6 6v3h-3v-3c0-1.7-1.4-3-3-3h-6c-1.6 0-3 1.3-3 3v3h-3v-3z" clip-rule="evenodd"/></g><path fill="#000" d="M330.167-.333H57.03c-14.292.006-27.997 6.365-38.102 17.68C8.822 28.664 3.142 44.009 3.137 60.012v769.645c.005 16.002 5.685 31.347 15.79 42.663C29.035 883.634 42.739 889.994 57.03 890h273.137c14.29-.006 27.993-6.366 38.095-17.682 10.103-11.317 15.778-26.662 15.778-42.662V60.011c0-16-5.675-31.346-15.778-42.662C358.16 6.033 344.457-.327 330.167-.333zm48.603 827.876c0 15.012-5.326 29.409-14.806 40.024-9.48 10.614-22.338 16.578-35.745 16.578H58.917c-13.407 0-26.265-5.964-35.745-16.578-9.48-10.615-14.806-25.012-14.806-40.024V62.123c0-15.011 5.326-29.408 14.806-40.023C32.652 11.485 45.51 5.522 58.917 5.522h269.302c13.407 0 26.265 5.963 35.745 16.578 9.48 10.615 14.806 25.012 14.806 40.023v765.42z"/><path fill="#fff" d="M17.515 20.493C28.486 9.517 42.677.975 59.35 1.204l258.966.575c33.694 2.296 63.348 22.962 64.496 66.82 0 4.844 2.317-36.74-21.758-55.11C349.631 4.304 332.733.286 322.561.056c-16.611-.344-236.04-.711-262.904 0C37.12.768 26.661 10.94 17.515 20.493z" opacity=".7"/><path fill="#1A1A1A" d="M328.22 5.52H58.918c-13.407 0-26.265 5.964-35.745 16.579C13.693 32.714 8.367 47.11 8.367 62.122v765.42c0 15.012 5.326 29.408 14.806 40.023 9.48 10.615 22.338 16.578 35.745 16.578H328.22c13.407 0 26.265-5.963 35.745-16.578 9.48-10.615 14.806-25.011 14.806-40.023V62.122c0-15.011-5.326-29.408-14.806-40.023-9.48-10.615-22.338-16.578-35.745-16.578zm47.946 820.323c0 7.273-1.279 14.475-3.765 21.194-2.486 6.72-6.129 12.826-10.722 17.968-4.593 5.143-10.046 9.223-16.047 12.006-6.002 2.784-12.434 4.216-18.929 4.216H60.435c-13.118 0-25.7-5.835-34.976-16.222-9.276-10.386-14.487-24.474-14.487-39.162V63.821c0-7.272 1.28-14.473 3.765-21.191 2.486-6.718 6.13-12.822 10.723-17.963 4.594-5.142 10.047-9.219 16.048-12 6.001-2.78 12.433-4.21 18.927-4.207h266.268c6.494-.003 12.926 1.426 18.927 4.207 6.001 2.781 11.454 6.859 16.048 12 4.593 5.14 8.237 11.245 10.723 17.963 2.486 6.718 3.765 13.92 3.765 21.191v762.022z"/><path fill="#000" d="M328.24 884.443H58.917c-13.455-.049-26.345-6.063-35.85-16.727-9.504-10.663-14.849-25.108-14.865-40.174V62.122c.016-15.065 5.361-29.51 14.866-40.173C32.572 11.285 45.462 5.27 58.917 5.223H328.24c13.47.018 26.384 6.02 35.908 16.687 9.523 10.667 14.878 25.13 14.888 40.213v765.419c-.01 15.084-5.365 29.546-14.888 40.213-9.524 10.668-22.438 16.669-35.908 16.688zM58.917 5.797C45.582 5.82 32.799 11.763 23.37 22.32 13.94 32.88 8.634 47.191 8.612 62.123v765.419c.022 14.932 5.329 29.244 14.758 39.802 9.43 10.558 22.212 16.5 35.547 16.525H328.24c13.333-.025 26.113-5.968 35.539-16.526 9.426-10.559 14.729-24.872 14.745-39.801V62.122c-.016-14.928-5.319-29.24-14.745-39.8-9.426-10.558-22.206-16.501-35.539-16.525H58.917zm267.785 875.615H60.434c-13.164-.019-25.786-5.876-35.103-16.291-9.316-10.414-14.569-24.537-14.606-39.278V63.822c.021-14.755 5.266-28.898 14.583-39.33 9.318-10.434 21.95-16.306 35.126-16.33h266.268c13.18.018 25.817 5.887 35.139 16.321 9.322 10.434 14.569 24.58 14.591 39.339v762.021c-.038 14.745-5.293 28.871-14.614 39.287-9.321 10.415-21.948 16.269-35.116 16.282zM60.434 8.851c-13.053 0-25.572 5.806-34.802 16.14-9.23 10.336-14.415 24.353-14.415 38.969v761.883c0 14.616 5.185 28.633 14.415 38.968 9.23 10.335 21.749 16.141 34.802 16.141h266.268c13.053 0 25.572-5.806 34.802-16.141 9.23-10.335 14.415-24.352 14.415-38.968V63.822c0-14.616-5.185-28.633-14.415-38.968-9.23-10.335-21.749-16.141-34.802-16.141L60.434 8.85z"/><path fill="url(#f)" d="M1.825 185.912H.615v64.019h1.21v-64.019z"/><path fill="url(#g)" d="M.615 249.954v-64.018l-.615.827c.308 6.888.287 55.545 0 62.342l.615.849z"/><path fill="url(#h)" d="M3.138 185.936H1.825v64.018h1.313v-64.018z"/><path fill="url(#i)" d="M1.825 110.114H.615v34.742h1.21v-34.742z"/><path fill="url(#j)" d="M.615 144.856v-34.719l-.615.827c.308 6.888.287 26.269 0 33.065l.615.827z"/><path fill="url(#k)" d="M3.138 110.137H1.825v34.742h1.313v-34.742z"/></g><defs><linearGradient id="f" x1="1.21" x2="1.21" y1="185.912" y2="249.931" gradientUnits="userSpaceOnUse"><stop stop-color="#3B3B3B"/><stop offset=".02" stop-color="#E6E6E6"/><stop offset=".04" stop-color="#333"/><stop offset=".08"/><stop offset=".11" stop-color="#666"/><stop offset=".9" stop-color="#313131"/><stop offset=".94"/><stop offset=".96" stop-color="#333"/><stop offset=".98" stop-color="#CCC"/><stop offset="1" stop-color="#2C2C2C"/></linearGradient><linearGradient id="g" x1=".287" x2=".287" y1="185.936" y2="249.954" gradientUnits="userSpaceOnUse"><stop stop-color="#A0A0A0"/><stop offset=".06" stop-color="#333"/><stop offset=".19" stop-color="#8A8A8A"/><stop offset=".81" stop-color="#8A8A8A"/><stop offset=".92" stop-color="#333"/><stop offset="1" stop-color="#A0A0A0"/></linearGradient><linearGradient id="h" x1="2.481" x2="2.481" y1="249.954" y2="185.936" gradientUnits="userSpaceOnUse"><stop stop-color="#353540"/><stop offset=".05"/><stop offset=".52" stop-color="#333"/><stop offset=".96"/><stop offset="1" stop-color="#262C31"/></linearGradient><linearGradient id="i" x1="1.21" x2="1.21" y1="110.137" y2="144.879" gradientUnits="userSpaceOnUse"><stop stop-color="#3B3B3B"/><stop offset=".02" stop-color="#E6E6E6"/><stop offset=".04" stop-color="#333"/><stop offset=".08"/><stop offset=".11" stop-color="#666"/><stop offset=".9" stop-color="#313131"/><stop offset=".94"/><stop offset=".96" stop-color="#333"/><stop offset=".98" stop-color="#CCC"/><stop offset="1" stop-color="#2C2C2C"/></linearGradient><linearGradient id="j" x1=".287" x2=".287" y1="110.137" y2="144.879" gradientUnits="userSpaceOnUse"><stop stop-color="#A0A0A0"/><stop offset=".06" stop-color="#333"/><stop offset=".19" stop-color="#8A8A8A"/><stop offset=".81" stop-color="#8A8A8A"/><stop offset=".92" stop-color="#333"/><stop offset="1" stop-color="#A0A0A0"/></linearGradient><linearGradient id="k" x1="2.481" x2="2.481" y1="144.879" y2="110.137" gradientUnits="userSpaceOnUse"><stop stop-color="#353540"/><stop offset=".05"/><stop offset=".52" stop-color="#333"/><stop offset=".96"/><stop offset="1" stop-color="#262C31"/></linearGradient><clipPath id="a"><path fill="#fff" d="M0 0h384v817H0z"/></clipPath><clipPath id="b"><path fill="#fff" d="M4 53C4 26.49 25.49 5 52 5h279c26.51 0 48 21.49 48 48v764H4V53z"/></clipPath><clipPath id="c"><path fill="#fff" d="M4 8h374.99v34H4z"/></clipPath><clipPath id="d"><path fill="#fff" d="M341 146h14v14h-14z"/></clipPath></defs></svg>