<svg xmlns="http://www.w3.org/2000/svg" width="948" height="480" fill="none"><path fill="#fff" d="M.5.5h299v499H.5z"/><path stroke="#DADCE0" d="M.5.5h299v499H.5z"/><path fill="#673AB7" d="M0 0h300v52H0z"/><path fill="#fff" d="M21.198 31V20.09h6.765v1.418h-5.119v3.324h4.635v1.411h-4.634V31h-1.646zm11.508.165c-.768 0-1.437-.176-2.009-.527a3.555 3.555 0 0 1-1.331-1.476c-.316-.632-.474-1.37-.474-2.216 0-.848.158-1.59.474-2.226.316-.636.76-1.13 1.331-1.481.572-.352 1.242-.527 2.009-.527.767 0 1.436.175 2.008.527a3.55 3.55 0 0 1 1.331 1.48c.316.636.474 1.379.474 2.227 0 .845-.158 1.584-.474 2.216a3.557 3.557 0 0 1-1.331 1.476c-.572.351-1.241.527-2.008.527zm.005-1.337c.497 0 .909-.131 1.236-.394a2.31 2.31 0 0 0 .724-1.05c.16-.436.24-.917.24-1.443 0-.522-.08-1.001-.24-1.438a2.344 2.344 0 0 0-.724-1.06c-.327-.267-.739-.4-1.236-.4-.5 0-.916.134-1.247.4a2.38 2.38 0 0 0-.73 1.06 4.244 4.244 0 0 0-.234 1.438c0 .526.078 1.007.235 1.444.16.436.403.786.73 1.049.33.263.745.394 1.246.394zM38.297 31v-8.182h1.54v1.3h.085a1.98 1.98 0 0 1 .788-1.039c.38-.256.81-.383 1.29-.383a6.808 6.808 0 0 1 .676.037v1.523a2.845 2.845 0 0 0-.341-.058 3.248 3.248 0 0 0-.49-.038c-.377 0-.712.08-1.007.24a1.782 1.782 0 0 0-.948 1.604V31h-1.593zm5.757 0v-8.182h1.529v1.332h.101c.17-.451.45-.803.836-1.055.387-.255.85-.383 1.39-.383.548 0 1.006.128 1.375.383.373.256.648.607.826 1.055h.085c.195-.437.506-.785.932-1.044.426-.263.934-.394 1.523-.394.743 0 1.348.232 1.817.697.472.466.708 1.167.708 2.105V31h-1.593v-5.337c0-.554-.15-.956-.452-1.204a1.647 1.647 0 0 0-1.082-.373c-.518 0-.921.16-1.209.48-.287.315-.431.722-.431 1.22V31h-1.587v-5.439c0-.444-.139-.8-.416-1.07-.277-.27-.637-.405-1.081-.405-.302 0-.58.08-.837.24a1.76 1.76 0 0 0-.612.655c-.153.28-.23.605-.23.975V31h-1.592zm17.354 0V20.09h3.889c.849 0 1.552.155 2.11.464.557.31.974.732 1.251 1.268.277.533.416 1.133.416 1.8 0 .672-.14 1.275-.421 1.812a3.044 3.044 0 0 1-1.257 1.267c-.558.31-1.26.464-2.104.464h-2.674v-1.396h2.524c.537 0 .972-.092 1.306-.277.333-.188.578-.444.735-.767a2.5 2.5 0 0 0 .234-1.103c0-.411-.078-.777-.234-1.097a1.68 1.68 0 0 0-.74-.75c-.335-.182-.775-.272-1.322-.272h-2.067V31h-1.646zm14.65-3.393v-4.789h1.598V31H76.09v-1.417h-.085c-.188.437-.49.8-.906 1.092-.412.288-.925.431-1.539.431-.526 0-.99-.115-1.396-.346a2.433 2.433 0 0 1-.948-1.038c-.227-.459-.34-1.025-.34-1.7v-5.204h1.592v5.013c0 .557.154 1.001.463 1.331.31.33.71.496 1.204.496.299 0 .595-.075.89-.224.298-.15.545-.375.74-.677.2-.301.297-.685.293-1.15zM79.924 31V20.09h1.593v4.055h.096a4.45 4.45 0 0 1 .4-.592c.173-.224.415-.419.724-.586.309-.17.717-.255 1.225-.255a3.2 3.2 0 0 1 1.768.5c.519.334.925.815 1.22 1.444.298.628.447 1.385.447 2.27 0 .883-.147 1.642-.442 2.274-.294.628-.7 1.113-1.214 1.454a3.146 3.146 0 0 1-1.763.506c-.497 0-.904-.084-1.22-.25a2.31 2.31 0 0 1-.735-.587 4.43 4.43 0 0 1-.41-.596h-.133V31h-1.556zm1.56-4.09c0 .574.084 1.079.251 1.512.167.433.409.772.725 1.017.316.242.703.363 1.16.363.477 0 .874-.127 1.194-.379.32-.255.561-.602.724-1.038a4.11 4.11 0 0 0 .25-1.476 4.07 4.07 0 0 0-.244-1.454 2.226 2.226 0 0 0-.725-1.017c-.32-.25-.719-.373-1.198-.373-.462 0-.852.119-1.172.357-.316.237-.556.57-.72.996-.162.426-.244.923-.244 1.491zm9.295-6.82V31h-1.593V20.09h1.593zM92.92 31v-8.182h1.593V31H92.92zm.805-9.444c-.277 0-.515-.093-.714-.277a.9.9 0 0 1-.293-.671.89.89 0 0 1 .293-.672c.199-.188.437-.282.714-.282.277 0 .513.094.708.282a.882.882 0 0 1 .298.672c0 .259-.1.483-.298.67a.994.994 0 0 1-.708.278zm9.062 3.26-1.444.255a1.69 1.69 0 0 0-.288-.527 1.409 1.409 0 0 0-.522-.41c-.22-.107-.495-.16-.825-.16-.451 0-.828.101-1.13.304-.301.199-.452.456-.452.772 0 .273.101.494.303.66.203.168.53.304.98.41l1.3.299c.753.174 1.314.442 1.683.804.37.363.554.833.554 1.412 0 .49-.142.927-.426 1.31-.28.38-.673.679-1.177.895-.501.217-1.081.325-1.742.325-.916 0-1.663-.195-2.242-.586-.58-.394-.934-.953-1.066-1.678l1.54-.234c.096.401.293.705.591.91.298.203.687.304 1.167.304.522 0 .939-.108 1.251-.325.313-.22.469-.488.469-.804a.838.838 0 0 0-.287-.644c-.189-.174-.478-.306-.869-.395l-1.385-.303c-.763-.174-1.328-.451-1.694-.831-.362-.38-.543-.861-.543-1.444 0-.483.135-.905.405-1.268.27-.362.643-.644 1.119-.846.475-.206 1.02-.31 1.635-.31.884 0 1.58.192 2.088.576.508.38.843.89 1.007 1.529zm3.503 1.326V31h-1.592V20.09h1.571v4.06h.101c.192-.44.485-.79.879-1.05.394-.259.909-.388 1.545-.388.561 0 1.051.115 1.47.346.423.23.749.575.98 1.033.234.455.352 1.023.352 1.705V31h-1.593v-5.012c0-.6-.154-1.066-.463-1.396-.309-.334-.739-.5-1.289-.5-.377 0-.714.08-1.013.239-.294.16-.527.394-.697.703-.167.306-.251.675-.251 1.108zm10.957 5.023c-.806 0-1.5-.172-2.082-.517a3.505 3.505 0 0 1-1.343-1.464c-.312-.633-.469-1.373-.469-2.222 0-.838.157-1.576.469-2.216a3.644 3.644 0 0 1 1.321-1.496c.568-.359 1.233-.538 1.992-.538.462 0 .91.076 1.343.229.433.152.822.392 1.166.719.345.326.616.75.815 1.273.199.518.299 1.149.299 1.89v.566h-6.504v-1.194h4.943c0-.419-.085-.79-.256-1.113a1.93 1.93 0 0 0-.719-.772 2.008 2.008 0 0 0-1.076-.283c-.447 0-.838.11-1.172.33a2.22 2.22 0 0 0-.767.853 2.467 2.467 0 0 0-.266 1.134v.933c0 .546.096 1.012.287 1.395.196.384.467.677.815.88.348.198.755.297 1.22.297.302 0 .577-.042.826-.127a1.704 1.704 0 0 0 1.06-1.039l1.507.271c-.12.444-.337.833-.649 1.167a3.15 3.15 0 0 1-1.167.773c-.465.18-.996.271-1.593.271zm5.278-.165v-8.182h1.539v1.3h.085c.15-.44.412-.787.789-1.039.38-.256.809-.383 1.289-.383a6.8 6.8 0 0 1 .676.037v1.523a2.825 2.825 0 0 0-.341-.058 3.237 3.237 0 0 0-.49-.038c-.376 0-.712.08-1.006.24a1.781 1.781 0 0 0-.949 1.604V31h-1.592zM225 31h18v2h-18v-2zm55.3-11.29a.996.996 0 0 0-1.41 0L274 24.59l-4.89-4.89a.996.996 0 1 0-1.41 1.41l4.89 4.89-4.89 4.89a.996.996 0 1 0 1.41 1.41l4.89-4.89 4.89 4.89a.996.996 0 1 0 1.41-1.41L275.41 26l4.89-4.89c.38-.38.38-1.02 0-1.4z"/><circle cx="145.5" cy="251.5" r="39.5" fill="#6246E4"/><rect width="49.712" height="28.902" x="120.22" y="239.361" fill="#fff" rx="14.451"/><path fill="#fff" d="M158.369 229.342a1.543 1.543 0 0 1 1.158 1.506v9.669h-28.902v-9.669c0-.709.471-1.334 1.158-1.506 3.93-.982 8.464-1.542 13.293-1.542 4.829 0 9.363.56 13.293 1.542z"/><path fill="#fff" fill-rule="evenodd" d="m162.686 242.383.878-5.714.686.106-.879 5.713-.685-.105zm1.383.46 2.844-2.086.41.56-2.844 2.086-.41-.56z" clip-rule="evenodd"/><circle cx="163.995" cy="236.151" r="1.734" fill="#fff" transform="rotate(8.737 163.995 236.151)"/><circle cx="168.038" cy="240.281" r="1.734" fill="#fff" transform="rotate(8.737 168.038 240.281)"/><circle cx="129.811" cy="263.662" r="1.156" fill="#DFD8FF"/><circle cx="160.354" cy="263.658" r="1.156" fill="#DFD8FF"/><mask id="a" width="46" height="25" x="122" y="241" maskUnits="userSpaceOnUse" style="mask-type:alpha"><path fill="#DFD8FF" fill-rule="evenodd" d="M134.671 241.673c-6.704 0-12.139 5.435-12.139 12.139s5.435 12.139 12.139 12.139h20.81c6.704 0 12.139-5.435 12.139-12.139s-5.435-12.139-12.139-12.139h-20.81zm0 2.312c-5.427 0-9.827 4.4-9.827 9.827s4.4 9.827 9.827 9.827h20.81c5.427 0 9.827-4.4 9.827-9.827s-4.4-9.827-9.827-9.827h-20.81z" clip-rule="evenodd"/></mask><g mask="url(#a)"><path fill="#DFD8FF" d="m130.403 262.372 29.295-.067 1.894 3.736-32.912.132 1.723-3.801z"/></g><path fill="url(#b)" d="M156.059 273.604a.782.782 0 0 1-.651.774c-3.185.53-6.674.822-10.332.822-3.657 0-7.146-.292-10.331-.822a.782.782 0 0 1-.652-.774v-9.965h21.966v9.965z"/><path fill="#000" d="M134.093 263.639h21.966v1.179h-21.966z" opacity=".1"/><mask id="c" width="50" height="30" x="120" y="239" maskUnits="userSpaceOnUse" style="mask-type:alpha"><rect width="49.712" height="28.902" fill="#6246E4" rx="14.451" transform="matrix(1 0 0 -1 120.22 268.263)"/></mask><g mask="url(#c)"><path fill="#DFD8FF" d="M128.313 239.361a4.624 4.624 0 0 0 4.624 4.624h24.278a4.625 4.625 0 0 0 4.625-4.624h-33.527z"/></g><path fill="#DFD8FF" d="M128.313 253.812a6.358 6.358 0 0 1 6.359-6.358h20.809a6.358 6.358 0 1 1 0 12.717h-20.809a6.359 6.359 0 0 1-6.359-6.359z"/><rect width="3.468" height="5.78" x="136.406" y="249.766" fill="#6246E4" rx="1.734"/><rect width="3.468" height="5.78" x="150.279" y="249.766" fill="#6246E4" rx="1.734"/><path fill="url(#d)" d="M155 231.543a.78.78 0 0 0-.637-.77c-2.85-.524-5.969-.812-9.238-.812-3.27 0-6.389.288-9.239.812a.78.78 0 0 0-.636.77v9.979H155v-9.979z"/><path fill="#000" d="M154.98 232.644c-3.02-.575-6.361-.894-9.875-.894-3.514 0-6.855.319-9.875.894v10.166h19.75v-10.166z" opacity=".1"/><path fill="url(#e)" d="M156.059 234.81a.782.782 0 0 0-.651-.774c-3.185-.529-6.674-.822-10.332-.822-3.657 0-7.146.293-10.331.822a.782.782 0 0 0-.652.774v9.175h21.966v-9.175z"/><path fill="#000" d="M134.093 242.829h21.966v1.179h-21.966z" opacity=".1"/><path fill="#555" d="M40.41 345.273h1.056v6.238c0 .557-.102 1.03-.307 1.419-.204.39-.492.685-.865.887-.372.201-.81.302-1.316.302a2.98 2.98 0 0 1-1.275-.26 2.099 2.099 0 0 1-.877-.75c-.213-.323-.32-.708-.32-1.154h1.04c0 .247.06.463.183.647.125.182.296.324.511.426.216.103.462.154.738.154.304 0 .562-.064.775-.192.213-.128.375-.315.486-.562.114-.25.17-.556.17-.917v-6.238zm7.163 6.051v-3.869h1.005V354h-1.005v-1.108h-.068a2.15 2.15 0 0 1-.716.848c-.324.23-.733.345-1.228.345-.409 0-.772-.089-1.09-.268a1.883 1.883 0 0 1-.75-.818c-.182-.367-.273-.829-.273-1.385v-4.159h1.005v4.09c0 .478.134.858.401 1.143.27.284.614.426 1.031.426.25 0 .505-.064.763-.192.261-.128.48-.324.656-.588.18-.264.269-.601.269-1.01zm7.484-2.404-.904.256a1.686 1.686 0 0 0-.251-.439 1.222 1.222 0 0 0-.443-.358c-.188-.093-.428-.14-.72-.14-.4 0-.735.092-1.002.277-.264.181-.396.413-.396.694 0 .25.09.448.273.593.181.144.466.265.852.362l.971.238c.586.142 1.022.36 1.309.652.287.29.43.664.43 1.121 0 .375-.108.71-.324 1.006a2.156 2.156 0 0 1-.895.699c-.383.17-.83.255-1.338.255-.667 0-1.22-.145-1.657-.434-.438-.29-.715-.713-.831-1.27l.954-.239c.091.352.263.617.516.793.255.176.59.264 1.001.264.469 0 .841-.099 1.117-.298.278-.202.417-.443.417-.725a.763.763 0 0 0-.238-.571c-.16-.156-.404-.272-.733-.349l-1.091-.256c-.6-.142-1.04-.362-1.321-.66-.279-.302-.418-.678-.418-1.13 0-.369.104-.696.311-.98.21-.284.496-.507.857-.669a3.007 3.007 0 0 1 1.236-.243c.647 0 1.156.142 1.525.426.372.285.637.66.793 1.125zm4.48-1.465v.852h-3.392v-.852h3.392zm-2.404-1.569h1.006v6.239c0 .284.041.497.123.639a.64.64 0 0 0 .324.281c.134.046.274.069.422.069.111 0 .202-.006.273-.017l.17-.035.205.904a2.193 2.193 0 0 1-.75.119c-.284 0-.563-.061-.835-.183a1.657 1.657 0 0 1-.674-.558c-.176-.25-.264-.566-.264-.946v-6.512zm9.217 8.267c-.414 0-.79-.078-1.129-.234a1.94 1.94 0 0 1-.805-.686c-.199-.301-.298-.665-.298-1.091 0-.375.073-.679.221-.912.148-.236.345-.42.593-.554a3.12 3.12 0 0 1 .818-.298c.3-.068.603-.122.907-.162.398-.051.72-.09.968-.115.25-.029.431-.075.545-.141.117-.065.175-.179.175-.341v-.034c0-.42-.115-.747-.345-.98-.228-.233-.573-.349-1.036-.349-.48 0-.856.105-1.13.315-.272.21-.464.435-.574.673l-.955-.341c.17-.397.398-.707.682-.929.287-.224.6-.38.937-.468a3.89 3.89 0 0 1 1.006-.137 4 4 0 0 1 .724.077c.276.048.542.149.797.303.259.153.473.385.644.694.17.31.255.725.255 1.245V354h-1.005v-.886h-.051a1.773 1.773 0 0 1-.341.456c-.16.162-.371.299-.635.413-.264.114-.587.17-.968.17zm.154-.903c.398 0 .733-.078 1.006-.234a1.601 1.601 0 0 0 .835-1.385v-.921c-.043.051-.136.098-.281.141-.142.04-.307.075-.495.106a20.993 20.993 0 0 1-.963.128 3.89 3.89 0 0 0-.733.166 1.261 1.261 0 0 0-.545.337c-.137.148-.205.349-.205.605 0 .35.13.614.388.793.261.176.592.264.993.264zm8.057.75v-6.545h.972v1.022h.085a1.65 1.65 0 0 1 .66-.814c.304-.196.67-.294 1.096-.294.431 0 .79.098 1.078.294.29.194.515.465.677.814h.068c.168-.338.42-.606.755-.805.335-.202.737-.303 1.206-.303.585 0 1.064.184 1.436.55.372.364.558.93.558 1.7V354h-1.006v-4.381c0-.483-.132-.828-.396-1.035a1.463 1.463 0 0 0-.933-.311c-.46 0-.817.139-1.07.417-.253.276-.38.625-.38 1.049V354h-1.022v-4.483c0-.372-.12-.672-.362-.899-.242-.23-.553-.345-.933-.345a1.37 1.37 0 0 0-.733.209 1.574 1.574 0 0 0-.546.579 1.71 1.71 0 0 0-.204.848V354H74.56zm13.089.136c-.591 0-1.11-.14-1.556-.422a2.861 2.861 0 0 1-1.04-1.18c-.246-.506-.37-1.097-.37-1.773 0-.681.124-1.277.37-1.785.25-.509.597-.904 1.04-1.185.447-.281.965-.422 1.556-.422.59 0 1.108.141 1.551.422.446.281.793.676 1.04 1.185.25.508.375 1.104.375 1.785 0 .676-.125 1.267-.375 1.773a2.823 2.823 0 0 1-1.04 1.18c-.443.282-.96.422-1.551.422zm0-.903c.449 0 .818-.115 1.108-.345.29-.23.504-.533.643-.908.14-.375.21-.781.21-1.219 0-.437-.07-.845-.21-1.223a2.065 2.065 0 0 0-.643-.916c-.29-.233-.66-.349-1.108-.349-.449 0-.818.116-1.108.349-.29.233-.504.539-.644.916a3.518 3.518 0 0 0-.208 1.223c0 .438.07.844.208 1.219.14.375.354.678.644.908.29.23.659.345 1.108.345zm4.5.767v-6.545h.972v1.022h.086a1.65 1.65 0 0 1 .66-.814c.304-.196.67-.294 1.095-.294.432 0 .792.098 1.079.294.29.194.515.465.677.814h.068c.168-.338.42-.606.754-.805.336-.202.738-.303 1.207-.303.585 0 1.063.184 1.436.55.372.364.558.93.558 1.7V354h-1.006v-4.381c0-.483-.132-.828-.396-1.035a1.463 1.463 0 0 0-.933-.311c-.46 0-.817.139-1.07.417-.253.276-.38.625-.38 1.049V354h-1.022v-4.483c0-.372-.12-.672-.362-.899-.242-.23-.553-.345-.933-.345a1.37 1.37 0 0 0-.733.209 1.575 1.575 0 0 0-.546.579 1.71 1.71 0 0 0-.204.848V354H92.15zm13.175.136c-.631 0-1.175-.139-1.632-.417a2.803 2.803 0 0 1-1.053-1.176c-.244-.506-.366-1.094-.366-1.765 0-.67.122-1.261.366-1.772a2.883 2.883 0 0 1 1.032-1.202c.443-.29.96-.435 1.551-.435.341 0 .677.057 1.01.171.332.113.635.298.907.554.273.253.49.588.652 1.005.162.418.243.932.243 1.543v.426h-5.045v-.869h4.022c0-.369-.073-.699-.221-.989a1.67 1.67 0 0 0-.622-.686 1.749 1.749 0 0 0-.946-.251c-.401 0-.748.099-1.04.298a1.96 1.96 0 0 0-.669.767 2.255 2.255 0 0 0-.235 1.014v.58c0 .494.086.913.256 1.257.173.341.414.601.72.78.307.176.664.264 1.07.264.264 0 .503-.037.716-.111.216-.077.402-.19.558-.341.156-.153.277-.344.362-.571l.972.273a2.149 2.149 0 0 1-.516.869c-.241.247-.54.441-.895.58a3.325 3.325 0 0 1-1.197.204zm5.246-4.074V354h-1.006v-6.545h.972v1.022h.085c.153-.332.386-.599.699-.801.312-.204.716-.307 1.21-.307.443 0 .831.091 1.163.273.333.179.591.452.776.818.184.364.277.824.277 1.381V354h-1.006v-4.091c0-.514-.133-.915-.4-1.202-.267-.289-.634-.434-1.1-.434-.321 0-.608.069-.861.209-.25.139-.447.342-.592.609-.145.267-.217.591-.217.971zm8.86-2.607v.852h-3.392v-.852h3.392zm-2.403-1.569h1.005v6.239c0 .284.042.497.124.639a.637.637 0 0 0 .324.281c.133.046.274.069.422.069.11 0 .201-.006.272-.017l.171-.035.204.904a2.178 2.178 0 0 1-.75.119c-.284 0-.562-.061-.835-.183a1.656 1.656 0 0 1-.673-.558c-.176-.25-.264-.566-.264-.946v-6.512zm7.291 10.569v-9h.971v1.039h.12a9.15 9.15 0 0 1 .307-.434c.133-.179.323-.338.571-.478.25-.142.588-.213 1.014-.213.551 0 1.037.138 1.457.414.421.275.749.666.985 1.172.235.505.353 1.102.353 1.789 0 .694-.118 1.294-.353 1.803-.236.506-.563.898-.981 1.176-.417.276-.899.413-1.444.413-.421 0-.757-.069-1.01-.208a1.878 1.878 0 0 1-.584-.482 6.475 6.475 0 0 1-.315-.452h-.085v3.461h-1.006zm.989-5.728c0 .495.072.931.217 1.309.145.375.356.669.635.882.278.21.619.315 1.023.315.42 0 .771-.111 1.052-.332.284-.225.497-.526.639-.904.145-.381.218-.804.218-1.27 0-.46-.071-.875-.213-1.244a1.93 1.93 0 0 0-.635-.882c-.282-.219-.635-.328-1.061-.328-.41 0-.753.103-1.032.311a1.862 1.862 0 0 0-.63.861c-.142.366-.213.794-.213 1.282zm7.329-5.454V354h-1.006v-8.727h1.006zm4.586 8.863c-.63 0-1.174-.139-1.632-.417a2.808 2.808 0 0 1-1.052-1.176c-.245-.506-.367-1.094-.367-1.765 0-.67.122-1.261.367-1.772a2.888 2.888 0 0 1 1.031-1.202c.443-.29.96-.435 1.551-.435.341 0 .678.057 1.01.171.332.113.635.298.908.554.272.253.49.588.652 1.005.162.418.243.932.243 1.543v.426h-5.046v-.869h4.023c0-.369-.074-.699-.222-.989a1.67 1.67 0 0 0-.622-.686 1.746 1.746 0 0 0-.946-.251c-.4 0-.747.099-1.04.298a1.976 1.976 0 0 0-.669.767 2.254 2.254 0 0 0-.234 1.014v.58c0 .494.085.913.256 1.257.173.341.413.601.72.78a2.11 2.11 0 0 0 1.069.264c.265 0 .503-.037.716-.111a1.54 1.54 0 0 0 .559-.341c.156-.153.277-.344.362-.571l.971.273a2.158 2.158 0 0 1-.515.869 2.52 2.52 0 0 1-.895.58 3.326 3.326 0 0 1-1.198.204zm6.167.017c-.415 0-.792-.078-1.13-.234a1.94 1.94 0 0 1-.805-.686c-.199-.301-.298-.665-.298-1.091 0-.375.073-.679.221-.912.148-.236.345-.42.593-.554.247-.133.519-.233.818-.298.301-.068.603-.122.907-.162.398-.051.721-.09.968-.115.25-.029.432-.075.545-.141.117-.065.175-.179.175-.341v-.034c0-.42-.115-.747-.345-.98-.228-.233-.573-.349-1.036-.349-.48 0-.856.105-1.129.315-.273.21-.465.435-.575.673l-.955-.341c.171-.397.398-.707.682-.929.287-.224.599-.38.937-.468a3.896 3.896 0 0 1 1.006-.137c.21 0 .452.026.725.077.275.048.541.149.796.303.259.153.473.385.644.694.17.31.256.725.256 1.245V354h-1.006v-.886h-.051a1.77 1.77 0 0 1-.341.456 1.973 1.973 0 0 1-.635.413c-.264.114-.587.17-.967.17zm.153-.903c.398 0 .733-.078 1.006-.234.275-.157.483-.358.622-.605.142-.248.213-.508.213-.78v-.921c-.043.051-.136.098-.281.141-.142.04-.307.075-.495.106a20.68 20.68 0 0 1-.963.128 3.91 3.91 0 0 0-.733.166 1.261 1.261 0 0 0-.545.337c-.137.148-.205.349-.205.605 0 .35.13.614.388.793.261.176.592.264.993.264zm9.319-4.33-.904.256a1.713 1.713 0 0 0-.251-.439 1.22 1.22 0 0 0-.444-.358c-.187-.093-.427-.14-.72-.14-.4 0-.734.092-1.001.277-.264.181-.396.413-.396.694 0 .25.091.448.272.593.182.144.466.265.853.362l.971.238c.585.142 1.021.36 1.308.652.287.29.431.664.431 1.121 0 .375-.108.71-.324 1.006a2.153 2.153 0 0 1-.895.699c-.383.17-.829.255-1.338.255-.668 0-1.22-.145-1.658-.434-.437-.29-.714-.713-.831-1.27l.955-.239c.091.352.263.617.516.793.255.176.589.264 1.001.264.469 0 .841-.099 1.116-.298.279-.202.418-.443.418-.725a.76.76 0 0 0-.239-.571c-.159-.156-.403-.272-.733-.349l-1.09-.256c-.6-.142-1.04-.362-1.321-.66-.279-.302-.418-.678-.418-1.13 0-.369.104-.696.311-.98.21-.284.496-.507.857-.669a3.001 3.001 0 0 1 1.235-.243c.648 0 1.157.142 1.526.426.372.285.636.66.793 1.125zm4.377 5.216c-.631 0-1.175-.139-1.632-.417a2.803 2.803 0 0 1-1.053-1.176c-.244-.506-.366-1.094-.366-1.765 0-.67.122-1.261.366-1.772a2.883 2.883 0 0 1 1.032-1.202c.443-.29.96-.435 1.551-.435.341 0 .677.057 1.01.171.332.113.635.298.907.554.273.253.49.588.652 1.005.162.418.243.932.243 1.543v.426h-5.045v-.869h4.022c0-.369-.073-.699-.221-.989a1.67 1.67 0 0 0-.622-.686 1.749 1.749 0 0 0-.946-.251c-.401 0-.747.099-1.04.298a1.96 1.96 0 0 0-.669.767 2.254 2.254 0 0 0-.234 1.014v.58c0 .494.085.913.255 1.257.174.341.414.601.72.78.307.176.664.264 1.07.264.264 0 .503-.037.716-.111.216-.077.402-.19.558-.341.156-.153.277-.344.362-.571l.972.273a2.149 2.149 0 0 1-.516.869 2.502 2.502 0 0 1-.895.58 3.325 3.325 0 0 1-1.197.204zm5.74-1.329-.068.46a9.086 9.086 0 0 1-.222 1.04 19.37 19.37 0 0 1-.302 1.044c-.105.327-.192.587-.26.78h-.767l.145-.72c.059-.299.119-.633.179-1.002.062-.366.113-.741.153-1.125l.051-.477h1.091zm6.432-7.534V354h-1.057v-8.727h1.057zm7.283 8.88c-.415 0-.791-.078-1.129-.234a1.933 1.933 0 0 1-.805-.686c-.199-.301-.299-.665-.299-1.091 0-.375.074-.679.222-.912.148-.236.345-.42.592-.554a3.12 3.12 0 0 1 .818-.298c.302-.068.604-.122.908-.162.398-.051.72-.09.967-.115.25-.029.432-.075.546-.141.116-.065.175-.179.175-.341v-.034c0-.42-.115-.747-.346-.98-.227-.233-.572-.349-1.035-.349-.48 0-.857.105-1.129.315-.273.21-.465.435-.576.673l-.954-.341c.17-.397.398-.707.682-.929.287-.224.599-.38.937-.468a3.89 3.89 0 0 1 1.006-.137 4 4 0 0 1 .724.077c.276.048.541.149.797.303.259.153.473.385.644.694.17.31.255.725.255 1.245V354h-1.005v-.886h-.052a1.764 1.764 0 0 1-.34.456c-.16.162-.371.299-.635.413-.265.114-.587.17-.968.17zm.154-.903c.397 0 .733-.078 1.005-.234a1.597 1.597 0 0 0 .836-1.385v-.921c-.043.051-.137.098-.282.141a4.65 4.65 0 0 1-.494.106 21.302 21.302 0 0 1-.963.128c-.261.034-.506.09-.733.166a1.261 1.261 0 0 0-.545.337c-.137.148-.205.349-.205.605 0 .35.129.614.388.793.261.176.592.264.993.264zm4.682.75v-6.545h.971v1.022h.086c.136-.349.356-.62.66-.814.304-.196.669-.294 1.095-.294.432 0 .792.098 1.078.294.29.194.516.465.678.814h.068a1.91 1.91 0 0 1 .754-.805c.336-.202.738-.303 1.206-.303.586 0 1.064.184 1.436.55.373.364.559.93.559 1.7V354h-1.006v-4.381c0-.483-.132-.828-.396-1.035a1.464 1.464 0 0 0-.933-.311c-.461 0-.817.139-1.07.417-.253.276-.379.625-.379 1.049V354h-1.023v-4.483c0-.372-.121-.672-.362-.899-.242-.23-.553-.345-.934-.345-.261 0-.505.069-.732.209a1.57 1.57 0 0 0-.546.579 1.714 1.714 0 0 0-.204.848V354h-1.006zm16.276.136c-.545 0-1.027-.137-1.444-.413-.418-.278-.745-.67-.981-1.176-.235-.509-.353-1.109-.353-1.803 0-.687.118-1.284.353-1.789.236-.506.564-.897.985-1.172.42-.276.906-.414 1.457-.414.426 0 .763.071 1.01.213.25.14.44.299.571.478.134.176.237.321.311.434h.085v-3.221h1.006V354h-.971v-1.006h-.12c-.074.12-.179.27-.315.452-.137.179-.331.34-.584.482-.253.139-.589.208-1.01.208zm.136-.903c.404 0 .745-.105 1.023-.315.279-.213.49-.507.635-.882.145-.378.217-.814.217-1.309 0-.488-.071-.916-.213-1.282a1.862 1.862 0 0 0-.63-.861c-.279-.208-.622-.311-1.032-.311-.426 0-.781.109-1.065.328-.281.216-.493.51-.635.882a3.51 3.51 0 0 0-.209 1.244c0 .466.071.889.213 1.27.145.378.358.679.64.904.284.221.636.332 1.056.332zm7.505.903c-.591 0-1.11-.14-1.556-.422a2.861 2.861 0 0 1-1.039-1.18c-.248-.506-.371-1.097-.371-1.773 0-.681.123-1.277.371-1.785.25-.509.596-.904 1.039-1.185.446-.281.965-.422 1.556-.422.591 0 1.108.141 1.551.422.446.281.792.676 1.04 1.185.25.508.375 1.104.375 1.785 0 .676-.125 1.267-.375 1.773a2.829 2.829 0 0 1-1.04 1.18c-.443.282-.96.422-1.551.422zm0-.903c.449 0 .818-.115 1.108-.345.289-.23.504-.533.643-.908a3.48 3.48 0 0 0 .209-1.219c0-.437-.07-.845-.209-1.223a2.07 2.07 0 0 0-.643-.916c-.29-.233-.659-.349-1.108-.349-.449 0-.818.116-1.108.349-.29.233-.504.539-.644.916a3.518 3.518 0 0 0-.208 1.223c0 .438.069.844.208 1.219.14.375.354.678.644.908.29.23.659.345 1.108.345zm4.501.767v-6.545h1.005V354h-1.005zm.511-7.636a.713.713 0 0 1-.507-.201.643.643 0 0 1-.209-.481c0-.188.07-.348.209-.482a.717.717 0 0 1 .507-.2c.196 0 .364.067.503.2a.639.639 0 0 1 .213.482.636.636 0 0 1-.213.481.7.7 0 0 1-.503.201zm3.342 3.698V354h-1.006v-6.545h.972v1.022h.085a1.88 1.88 0 0 1 .699-.801c.313-.204.716-.307 1.21-.307.444 0 .831.091 1.164.273.332.179.591.452.775.818.185.364.277.824.277 1.381V354h-1.005v-4.091c0-.514-.134-.915-.401-1.202-.267-.289-.633-.434-1.099-.434-.321 0-.608.069-.861.209-.25.139-.448.342-.593.609-.144.267-.217.591-.217.971zm8.656 6.529c-.486 0-.903-.063-1.253-.188a2.669 2.669 0 0 1-.873-.485 2.624 2.624 0 0 1-.55-.64l.801-.562c.091.119.206.256.345.409.139.156.33.291.571.405.245.116.564.175.959.175.528 0 .965-.128 1.308-.384.344-.256.516-.656.516-1.202v-1.329h-.085a5.36 5.36 0 0 1-.316.443 1.777 1.777 0 0 1-.579.464c-.25.134-.588.201-1.014.201a2.734 2.734 0 0 1-1.424-.375 2.642 2.642 0 0 1-.993-1.091c-.241-.477-.362-1.057-.362-1.739 0-.67.118-1.254.354-1.751.236-.5.564-.887.984-1.159.421-.276.906-.414 1.458-.414.426 0 .764.071 1.014.213.253.14.446.299.579.478.137.176.242.321.316.434h.102v-1.039h.972v6.733c0 .562-.128 1.019-.384 1.372a2.18 2.18 0 0 1-1.023.779c-.426.168-.9.252-1.423.252zm-.034-3.597c.403 0 .744-.092 1.023-.277.278-.184.49-.45.635-.797.144-.346.217-.761.217-1.244 0-.471-.071-.888-.213-1.248a1.865 1.865 0 0 0-.631-.848c-.278-.205-.622-.307-1.031-.307-.426 0-.781.108-1.065.324a1.958 1.958 0 0 0-.635.869c-.14.364-.209.767-.209 1.21 0 .455.071.857.213 1.206.145.347.358.619.639.818.284.196.636.294 1.057.294zm10.006 1.159c-.415 0-.792-.078-1.13-.234a1.94 1.94 0 0 1-.805-.686c-.199-.301-.298-.665-.298-1.091 0-.375.074-.679.221-.912.148-.236.345-.42.593-.554.247-.133.519-.233.818-.298.301-.068.603-.122.907-.162.398-.051.721-.09.968-.115.25-.029.432-.075.545-.141.117-.065.175-.179.175-.341v-.034c0-.42-.115-.747-.345-.98-.228-.233-.573-.349-1.036-.349-.48 0-.856.105-1.129.315-.273.21-.464.435-.575.673l-.955-.341c.171-.397.398-.707.682-.929.287-.224.599-.38.937-.468a3.896 3.896 0 0 1 1.006-.137c.21 0 .452.026.725.077.275.048.541.149.796.303.259.153.473.385.644.694.17.31.256.725.256 1.245V354h-1.006v-.886h-.051a1.77 1.77 0 0 1-.341.456 1.973 1.973 0 0 1-.635.413c-.264.114-.587.17-.967.17zm.153-.903c.398 0 .733-.078 1.006-.234.275-.157.483-.358.622-.605.142-.248.213-.508.213-.78v-.921c-.043.051-.136.098-.281.141-.142.04-.307.075-.495.106a20.68 20.68 0 0 1-.963.128 3.91 3.91 0 0 0-.733.166 1.261 1.261 0 0 0-.545.337c-.136.148-.205.349-.205.605 0 .35.13.614.388.793.261.176.592.264.993.264zm5.688-7.977V354h-1.006v-8.727h1.006zm2.848 0V354h-1.006v-8.727h1.006zm8.063 2.182v.852h-3.392v-.852h3.392zm-2.403-1.569h1.005v6.239c0 .284.042.497.124.639a.637.637 0 0 0 .324.281c.133.046.274.069.422.069.11 0 .201-.006.272-.017l.171-.035.204.904a2.178 2.178 0 0 1-.75.119c-.284 0-.562-.061-.835-.183a1.656 1.656 0 0 1-.673-.558c-.176-.25-.264-.566-.264-.946v-6.512zm5.062 4.176V354h-1.005v-8.727h1.005v3.204h.085c.154-.338.384-.606.691-.805.309-.202.721-.303 1.236-.303.446 0 .836.09 1.171.269.336.176.596.447.78.814.188.363.282.826.282 1.389V354h-1.006v-4.091c0-.52-.135-.922-.405-1.206-.267-.287-.638-.43-1.112-.43-.33 0-.625.069-.887.209a1.522 1.522 0 0 0-.613.609c-.148.267-.222.591-.222.971zm8.829 4.074c-.631 0-1.175-.139-1.632-.417a2.803 2.803 0 0 1-1.053-1.176c-.244-.506-.366-1.094-.366-1.765 0-.67.122-1.261.366-1.772a2.888 2.888 0 0 1 1.031-1.202c.443-.29.96-.435 1.551-.435.341 0 .678.057 1.01.171.333.113.635.298.908.554.273.253.49.588.652 1.005.162.418.243.932.243 1.543v.426h-5.046v-.869h4.023c0-.369-.074-.699-.221-.989a1.673 1.673 0 0 0-.623-.686 1.746 1.746 0 0 0-.946-.251c-.4 0-.747.099-1.039.298a1.96 1.96 0 0 0-.669.767 2.242 2.242 0 0 0-.235 1.014v.58c0 .494.085.913.256 1.257.173.341.413.601.72.78.307.176.663.264 1.07.264.264 0 .503-.037.716-.111.215-.077.402-.19.558-.341.156-.153.277-.344.362-.571l.972.273a2.171 2.171 0 0 1-.516.869c-.241.247-.54.441-.895.58a3.325 3.325 0 0 1-1.197.204zm-171.027 16c-.614 0-1.142-.145-1.585-.434a2.832 2.832 0 0 1-1.023-1.198c-.239-.508-.358-1.089-.358-1.743 0-.664.122-1.251.367-1.76.247-.511.59-.91 1.03-1.197.444-.29.961-.435 1.552-.435.46 0 .875.086 1.244.256.37.17.672.409.908.716s.382.665.439 1.074H91.21a1.557 1.557 0 0 0-.511-.793c-.261-.233-.614-.349-1.057-.349-.392 0-.736.102-1.031.307a1.995 1.995 0 0 0-.686.856c-.162.367-.243.797-.243 1.291 0 .506.08.946.239 1.321.161.375.389.666.681.874.296.207.642.311 1.04.311.261 0 .499-.045.712-.136a1.464 1.464 0 0 0 .856-1.006h1.006a2.332 2.332 0 0 1-.422 1.044 2.357 2.357 0 0 1-.882.733c-.364.179-.787.268-1.27.268zm6.703 0c-.59 0-1.11-.14-1.555-.422a2.861 2.861 0 0 1-1.04-1.18c-.247-.506-.37-1.097-.37-1.773 0-.681.123-1.277.37-1.785.25-.509.597-.904 1.04-1.185.446-.281.964-.422 1.555-.422s1.108.141 1.551.422c.446.281.793.676 1.04 1.185.25.508.375 1.104.375 1.785 0 .676-.125 1.267-.375 1.773a2.823 2.823 0 0 1-1.04 1.18c-.443.282-.96.422-1.55.422zm0-.903c.449 0 .818-.115 1.108-.345.29-.23.504-.533.644-.908.139-.375.208-.781.208-1.219 0-.437-.07-.845-.208-1.223a2.065 2.065 0 0 0-.644-.916c-.29-.233-.659-.349-1.108-.349-.449 0-.818.116-1.108.349-.29.233-.504.539-.643.916a3.51 3.51 0 0 0-.21 1.223c0 .438.07.844.21 1.219.139.375.353.678.643.908.29.23.66.345 1.108.345zm5.507-3.171V370h-1.006v-6.545h.972v1.022h.085c.153-.332.386-.599.699-.801.312-.204.716-.307 1.21-.307.443 0 .831.091 1.163.273.333.179.591.452.776.818.185.364.277.824.277 1.381V370h-1.006v-4.091c0-.514-.133-.915-.4-1.202-.267-.289-.634-.434-1.1-.434-.321 0-.608.069-.86.209-.25.139-.448.342-.593.609-.145.267-.217.591-.217.971zm8.929-2.607v.852h-3.529v-.852h3.529zM108.309 370v-7.449c0-.375.088-.687.264-.937.176-.25.405-.438.686-.563.281-.125.578-.187.891-.187.247 0 .449.02.605.059.156.04.273.077.349.111l-.289.869a6.998 6.998 0 0 0-.213-.064 1.326 1.326 0 0 0-.35-.038c-.332 0-.572.084-.72.252-.145.167-.217.413-.217.737V370h-1.006zm3.881 0v-6.545h1.006V370h-1.006zm.511-7.636a.713.713 0 0 1-.507-.201.643.643 0 0 1-.209-.481c0-.188.07-.348.209-.482a.717.717 0 0 1 .507-.2c.196 0 .364.067.503.2a.639.639 0 0 1 .213.482.636.636 0 0 1-.213.481.7.7 0 0 1-.503.201zm4.979 10.227c-.486 0-.904-.063-1.253-.188a2.664 2.664 0 0 1-.874-.485 2.64 2.64 0 0 1-.549-.64l.801-.562c.091.119.206.256.345.409.139.156.329.291.571.405.244.116.564.175.959.175.528 0 .964-.128 1.308-.384.344-.256.516-.656.516-1.202v-1.329h-.086a5.56 5.56 0 0 1-.315.443 1.792 1.792 0 0 1-.58.464c-.25.134-.588.201-1.014.201a2.73 2.73 0 0 1-1.423-.375 2.628 2.628 0 0 1-.993-1.091c-.241-.477-.362-1.057-.362-1.739 0-.67.118-1.254.354-1.751.235-.5.563-.887.984-1.159.42-.276.906-.414 1.457-.414.426 0 .764.071 1.014.213.253.14.447.299.58.478.136.176.242.321.315.434h.103v-1.039h.971v6.733c0 .562-.128 1.019-.383 1.372a2.18 2.18 0 0 1-1.023.779 3.851 3.851 0 0 1-1.423.252zm-.034-3.597c.403 0 .744-.092 1.022-.277.279-.184.49-.45.635-.797.145-.346.218-.761.218-1.244 0-.471-.071-.888-.213-1.248a1.88 1.88 0 0 0-.631-.848c-.279-.205-.622-.307-1.031-.307-.427 0-.782.108-1.066.324a1.966 1.966 0 0 0-.635.869 3.366 3.366 0 0 0-.208 1.21c0 .455.071.857.213 1.206.144.347.358.619.639.818.284.196.636.294 1.057.294zm8.829-1.67v-3.869h1.006V370h-1.006v-1.108h-.068a2.146 2.146 0 0 1-.716.848c-.324.23-.733.345-1.227.345-.409 0-.773-.089-1.091-.268a1.885 1.885 0 0 1-.75-.818c-.182-.367-.273-.829-.273-1.385v-4.159h1.006v4.09c0 .478.133.858.4 1.143.27.284.614.426 1.032.426.25 0 .504-.064.762-.192.262-.128.481-.324.657-.588.179-.264.268-.601.268-1.01zm2.848 2.676v-6.545h.971v.988h.069c.119-.324.335-.586.647-.788a1.906 1.906 0 0 1 1.057-.303 10.862 10.862 0 0 1 .529.017v1.023a3.49 3.49 0 0 0-.235-.038 2.292 2.292 0 0 0-.379-.03c-.318 0-.602.067-.852.2a1.468 1.468 0 0 0-.802 1.334V370h-1.005zm6.391.153c-.415 0-.791-.078-1.129-.234a1.936 1.936 0 0 1-.806-.686c-.199-.301-.298-.665-.298-1.091 0-.375.074-.679.221-.912.148-.236.346-.42.593-.554a3.12 3.12 0 0 1 .818-.298 10.1 10.1 0 0 1 .908-.162c.397-.051.72-.09.967-.115.25-.029.432-.075.545-.141.117-.065.175-.179.175-.341v-.034c0-.42-.115-.747-.345-.98-.227-.233-.573-.349-1.036-.349-.48 0-.856.105-1.129.315-.273.21-.464.435-.575.673l-.955-.341c.171-.397.398-.707.682-.929.287-.224.6-.38.938-.468a3.888 3.888 0 0 1 1.005-.137c.211 0 .452.026.725.077.275.048.541.149.797.303.258.153.473.385.643.694.171.31.256.725.256 1.245V370h-1.006v-.886h-.051a1.77 1.77 0 0 1-.341.456 1.973 1.973 0 0 1-.635.413c-.264.114-.587.17-.967.17zm.153-.903c.398 0 .733-.078 1.006-.234.275-.157.483-.358.622-.605.142-.248.213-.508.213-.78v-.921c-.043.051-.136.098-.281.141a4.65 4.65 0 0 1-.494.106 21.368 21.368 0 0 1-.964.128 3.88 3.88 0 0 0-.732.166 1.259 1.259 0 0 0-.546.337c-.136.148-.204.349-.204.605 0 .35.129.614.387.793.262.176.593.264.993.264zm7.529-5.795v.852h-3.392v-.852h3.392zm-2.403-1.569h1.005v6.239c0 .284.041.497.124.639a.637.637 0 0 0 .324.281c.133.046.274.069.422.069.11 0 .201-.006.272-.017l.171-.035.204.904a2.178 2.178 0 0 1-.75.119c-.284 0-.562-.061-.835-.183a1.656 1.656 0 0 1-.673-.558c-.176-.25-.264-.566-.264-.946v-6.512zm3.916 8.114v-6.545h1.005V370h-1.005zm.511-7.636a.713.713 0 0 1-.507-.201.643.643 0 0 1-.209-.481c0-.188.07-.348.209-.482a.717.717 0 0 1 .507-.2c.196 0 .364.067.503.2a.639.639 0 0 1 .213.482.636.636 0 0 1-.213.481.7.7 0 0 1-.503.201zm4.995 7.772c-.59 0-1.109-.14-1.555-.422a2.863 2.863 0 0 1-1.04-1.18c-.247-.506-.37-1.097-.37-1.773 0-.681.123-1.277.37-1.785.25-.509.597-.904 1.04-1.185.446-.281.965-.422 1.555-.422.591 0 1.108.141 1.552.422.446.281.792.676 1.039 1.185.25.508.375 1.104.375 1.785 0 .676-.125 1.267-.375 1.773a2.82 2.82 0 0 1-1.039 1.18c-.444.282-.961.422-1.552.422zm0-.903c.449 0 .819-.115 1.108-.345.29-.23.505-.533.644-.908a3.48 3.48 0 0 0 .209-1.219c0-.437-.07-.845-.209-1.223a2.063 2.063 0 0 0-.644-.916c-.289-.233-.659-.349-1.108-.349-.448 0-.818.116-1.107.349-.29.233-.505.539-.644.916a3.518 3.518 0 0 0-.209 1.223c0 .438.07.844.209 1.219.139.375.354.678.644.908.289.23.659.345 1.107.345zm5.507-3.171V370h-1.005v-6.545h.971v1.022h.085a1.88 1.88 0 0 1 .699-.801c.313-.204.716-.307 1.21-.307.444 0 .831.091 1.164.273.332.179.591.452.775.818.185.364.277.824.277 1.381V370h-1.005v-4.091c0-.514-.134-.915-.401-1.202-.267-.289-.633-.434-1.099-.434-.321 0-.608.069-.861.209-.25.139-.448.342-.592.609-.145.267-.218.591-.218.971zm12.304-2.607v.852h-3.529v-.852h3.529zM165.754 370v-7.449c0-.375.088-.687.264-.937.177-.25.405-.438.687-.563.281-.125.578-.187.89-.187.247 0 .449.02.605.059.157.04.273.077.35.111l-.29.869a5.595 5.595 0 0 0-.213-.064 1.32 1.32 0 0 0-.35-.038c-.332 0-.572.084-.72.252-.145.167-.217.413-.217.737V370h-1.006zm6.271.136c-.591 0-1.11-.14-1.556-.422a2.861 2.861 0 0 1-1.039-1.18c-.247-.506-.371-1.097-.371-1.773 0-.681.124-1.277.371-1.785.25-.509.596-.904 1.039-1.185.446-.281.965-.422 1.556-.422.591 0 1.108.141 1.551.422.446.281.793.676 1.04 1.185.25.508.375 1.104.375 1.785 0 .676-.125 1.267-.375 1.773a2.822 2.822 0 0 1-1.04 1.18c-.443.282-.96.422-1.551.422zm0-.903c.449 0 .818-.115 1.108-.345.29-.23.504-.533.643-.908a3.48 3.48 0 0 0 .209-1.219c0-.437-.07-.845-.209-1.223a2.061 2.061 0 0 0-.643-.916c-.29-.233-.659-.349-1.108-.349-.449 0-.818.116-1.108.349-.29.233-.504.539-.644.916a3.518 3.518 0 0 0-.208 1.223c0 .438.069.844.208 1.219.14.375.354.678.644.908.29.23.659.345 1.108.345zm4.501.767v-6.545h.972v.988h.068c.119-.324.335-.586.647-.788a1.906 1.906 0 0 1 1.057-.303 10.862 10.862 0 0 1 .529.017v1.023a3.377 3.377 0 0 0-.235-.038 2.284 2.284 0 0 0-.379-.03c-.318 0-.602.067-.852.2a1.468 1.468 0 0 0-.801 1.334V370h-1.006zm8.487 2.455a2.22 2.22 0 0 1-.455-.043 1.19 1.19 0 0 1-.277-.077l.255-.886c.245.062.46.085.648.068a.78.78 0 0 0 .499-.251c.147-.148.282-.388.404-.721l.188-.511-2.421-6.579h1.091l1.807 5.215h.068l1.807-5.215h1.091l-2.778 7.5c-.125.338-.28.617-.465.839a1.75 1.75 0 0 1-.643.499 1.989 1.989 0 0 1-.819.162zm8.457-2.319c-.591 0-1.109-.14-1.555-.422a2.863 2.863 0 0 1-1.04-1.18c-.247-.506-.371-1.097-.371-1.773 0-.681.124-1.277.371-1.785.25-.509.597-.904 1.04-1.185.446-.281.964-.422 1.555-.422s1.108.141 1.551.422c.446.281.793.676 1.04 1.185.25.508.375 1.104.375 1.785 0 .676-.125 1.267-.375 1.773a2.822 2.822 0 0 1-1.04 1.18c-.443.282-.96.422-1.551.422zm0-.903c.449 0 .818-.115 1.108-.345.29-.23.504-.533.644-.908.139-.375.208-.781.208-1.219 0-.437-.069-.845-.208-1.223a2.071 2.071 0 0 0-.644-.916c-.29-.233-.659-.349-1.108-.349-.449 0-.818.116-1.108.349-.29.233-.504.539-.643.916a3.518 3.518 0 0 0-.209 1.223c0 .438.07.844.209 1.219.139.375.353.678.643.908.29.23.659.345 1.108.345zm8.626-1.909v-3.869h1.006V370h-1.006v-1.108h-.068a2.146 2.146 0 0 1-.716.848c-.324.23-.733.345-1.227.345-.409 0-.773-.089-1.091-.268a1.885 1.885 0 0 1-.75-.818c-.182-.367-.273-.829-.273-1.385v-4.159h1.006v4.09c0 .478.133.858.4 1.143.27.284.614.426 1.032.426.25 0 .504-.064.763-.192.261-.128.48-.324.656-.588.179-.264.268-.601.268-1.01zm3.581 2.744a.736.736 0 0 1-.541-.226.736.736 0 0 1-.226-.541c0-.21.075-.39.226-.541a.736.736 0 0 1 .541-.226c.21 0 .39.075.541.226a.737.737 0 0 1 .226.541.793.793 0 0 1-.384.665.73.73 0 0 1-.383.102zm3.305 0a.738.738 0 0 1-.542-.226.74.74 0 0 1-.226-.541c0-.21.076-.39.226-.541a.738.738 0 0 1 .542-.226c.21 0 .39.075.541.226.15.151.226.331.226.541a.793.793 0 0 1-.384.665.732.732 0 0 1-.383.102zm3.304 0a.737.737 0 0 1-.541-.226.736.736 0 0 1-.226-.541c0-.21.075-.39.226-.541a.737.737 0 0 1 .541-.226c.21 0 .391.075.541.226a.737.737 0 0 1 .226.541.726.726 0 0 1-.106.384.801.801 0 0 1-.277.281.735.735 0 0 1-.384.102zm-74.897 27.568c0-1.065.141-2.044.422-2.936a8.458 8.458 0 0 1 1.266-2.48h1.453a5.353 5.353 0 0 0-.605 1.036 9.329 9.329 0 0 0-.491 1.338c-.136.483-.244.984-.323 1.504a10.492 10.492 0 0 0 .085 3.584c.136.69.319 1.331.55 1.922.233.588.494 1.069.784 1.444h-1.453a8.461 8.461 0 0 1-1.266-2.476c-.281-.894-.422-1.873-.422-2.936zm7.872-4.363V402h-1.581v-7.189h-.051l-2.041 1.304v-1.449l2.169-1.393h1.504zm5.795-.409-2.812 10.448h-1.351l2.812-10.448h1.351zm4.1 9.255c-.614 0-1.159-.105-1.637-.315a2.74 2.74 0 0 1-1.125-.878 2.279 2.279 0 0 1-.439-1.3h1.603c.014.236.092.442.234.618.142.174.331.309.567.405.236.097.5.145.792.145.313 0 .59-.054.831-.162.242-.111.431-.264.567-.46a1.13 1.13 0 0 0 .2-.678 1.178 1.178 0 0 0-.204-.699 1.376 1.376 0 0 0-.605-.473c-.262-.113-.577-.17-.946-.17h-.772v-1.219h.772c.304 0 .569-.052.797-.157.23-.106.41-.253.541-.444.131-.193.194-.416.192-.669a1.166 1.166 0 0 0-.167-.643 1.119 1.119 0 0 0-.473-.431 1.556 1.556 0 0 0-.711-.153c-.267 0-.514.048-.742.145a1.35 1.35 0 0 0-.549.413c-.14.176-.213.387-.222.631h-1.521a2.21 2.21 0 0 1 .422-1.287 2.716 2.716 0 0 1 1.09-.869 3.61 3.61 0 0 1 1.53-.316c.583 0 1.088.11 1.517.329a2.47 2.47 0 0 1 1.002.873c.236.367.353.771.353 1.215.003.491-.142.903-.434 1.235-.29.333-.671.55-1.142.652v.069c.613.085 1.084.312 1.41.681.33.367.493.823.49 1.368 0 .489-.139.926-.417 1.313-.276.383-.657.684-1.142.903-.483.219-1.037.328-1.662.328zm7.454-4.483c0 1.063-.142 2.042-.426 2.936a8.378 8.378 0 0 1-1.262 2.476h-1.453c.219-.281.421-.625.605-1.031.188-.406.35-.852.486-1.338.139-.486.247-.989.324-1.509.08-.519.119-1.031.119-1.534 0-.673-.068-1.355-.204-2.045a10.898 10.898 0 0 0-.55-1.922c-.23-.591-.49-1.074-.78-1.449h1.453c.56.759.981 1.585 1.262 2.48.284.892.426 1.871.426 2.936z"/><path fill="#fff" d="M324.5.5h299v499h-299z"/><path stroke="#DADCE0" d="M324.5.5h299v499h-299z"/><path fill="#673AB7" d="M324 0h300v52H324z"/><path fill="#fff" d="M345.199 31V20.09h6.764v1.418h-5.119v3.324h4.635v1.411h-4.635V31h-1.645zm11.507.165c-.768 0-1.437-.176-2.009-.527a3.56 3.56 0 0 1-1.331-1.476c-.316-.632-.474-1.37-.474-2.216 0-.848.158-1.59.474-2.226.316-.636.76-1.13 1.331-1.481.572-.352 1.241-.527 2.009-.527.767 0 1.436.175 2.008.527a3.552 3.552 0 0 1 1.331 1.48c.316.636.474 1.379.474 2.227 0 .845-.158 1.584-.474 2.216a3.56 3.56 0 0 1-1.331 1.476c-.572.351-1.241.527-2.008.527zm.005-1.337c.497 0 .909-.131 1.236-.394.326-.263.568-.613.724-1.05.16-.436.24-.917.24-1.443 0-.522-.08-1.001-.24-1.438a2.346 2.346 0 0 0-.724-1.06c-.327-.267-.739-.4-1.236-.4-.501 0-.916.134-1.247.4-.326.266-.57.62-.729 1.06a4.225 4.225 0 0 0-.235 1.438c0 .526.078 1.007.235 1.444.159.436.403.786.729 1.049.331.263.746.394 1.247.394zM362.297 31v-8.182h1.54v1.3h.085a1.98 1.98 0 0 1 .788-1.039c.38-.256.81-.383 1.289-.383a6.803 6.803 0 0 1 .677.037v1.523a2.863 2.863 0 0 0-.341-.058 3.247 3.247 0 0 0-.49-.038c-.377 0-.712.08-1.007.24a1.778 1.778 0 0 0-.948 1.604V31h-1.593zm5.757 0v-8.182h1.529v1.332h.101c.17-.451.449-.803.836-1.055.387-.255.851-.383 1.391-.383.546 0 1.005.128 1.374.383.373.256.648.607.826 1.055h.085c.195-.437.506-.785.932-1.044.426-.263.934-.394 1.523-.394.743 0 1.348.232 1.817.697.472.466.708 1.167.708 2.105V31h-1.592v-5.337c0-.554-.151-.956-.453-1.204a1.649 1.649 0 0 0-1.082-.373c-.518 0-.921.16-1.209.48-.287.315-.431.722-.431 1.22V31h-1.588v-5.439c0-.444-.138-.8-.415-1.07-.277-.27-.637-.405-1.081-.405-.302 0-.581.08-.837.24a1.758 1.758 0 0 0-.612.655c-.153.28-.229.605-.229.975V31h-1.593zm17.354 0V20.09h3.889c.849 0 1.552.155 2.109.464a3.01 3.01 0 0 1 1.252 1.268c.277.533.416 1.133.416 1.8 0 .672-.141 1.275-.421 1.812a3.044 3.044 0 0 1-1.257 1.267c-.558.31-1.259.464-2.104.464h-2.674v-1.396h2.524c.537 0 .972-.092 1.306-.277.333-.188.578-.444.735-.767.156-.323.234-.69.234-1.103a2.47 2.47 0 0 0-.234-1.097 1.683 1.683 0 0 0-.741-.75c-.334-.182-.774-.272-1.321-.272h-2.067V31h-1.646zm14.65-3.393v-4.789h1.598V31h-1.566v-1.417h-.085c-.188.437-.49.8-.906 1.092-.411.288-.925.431-1.539.431-.526 0-.991-.115-1.396-.346a2.435 2.435 0 0 1-.948-1.038c-.227-.459-.341-1.025-.341-1.7v-5.204h1.593v5.013c0 .557.155 1.001.463 1.331.309.33.711.496 1.204.496.299 0 .595-.075.89-.224.298-.15.545-.375.74-.677.199-.301.297-.685.293-1.15zM403.924 31V20.09h1.593v4.055h.096c.092-.17.225-.368.399-.592a2.26 2.26 0 0 1 .725-.586c.309-.17.717-.255 1.225-.255a3.2 3.2 0 0 1 1.768.5c.519.334.925.815 1.22 1.444.298.628.447 1.385.447 2.27 0 .883-.147 1.642-.442 2.274-.294.628-.699 1.113-1.214 1.454a3.146 3.146 0 0 1-1.763.506c-.497 0-.904-.084-1.22-.25a2.297 2.297 0 0 1-.735-.587 4.401 4.401 0 0 1-.41-.596h-.134V31h-1.555zm1.561-4.09c0 .574.083 1.079.25 1.512.167.433.409.772.725 1.017.316.242.703.363 1.161.363.476 0 .873-.127 1.193-.379.32-.255.561-.602.724-1.038a4.11 4.11 0 0 0 .251-1.476c0-.54-.082-1.024-.245-1.454a2.23 2.23 0 0 0-.725-1.017c-.319-.25-.719-.373-1.198-.373-.462 0-.852.119-1.172.357-.316.237-.556.57-.719.996-.164.426-.245.923-.245 1.491zm9.294-6.82V31h-1.593V20.09h1.593zM416.921 31v-8.182h1.593V31h-1.593zm.805-9.444c-.277 0-.515-.093-.714-.277a.898.898 0 0 1-.293-.671.89.89 0 0 1 .293-.672c.199-.188.437-.282.714-.282.277 0 .513.094.708.282a.882.882 0 0 1 .298.672.889.889 0 0 1-.298.67.993.993 0 0 1-.708.278zm9.062 3.26-1.444.255a1.69 1.69 0 0 0-.288-.527 1.409 1.409 0 0 0-.522-.41c-.22-.107-.495-.16-.825-.16-.451 0-.828.101-1.129.304-.302.199-.453.456-.453.772 0 .273.101.494.303.66.203.168.53.304.981.41l1.299.299c.753.174 1.314.442 1.683.804.37.363.554.833.554 1.412 0 .49-.142.927-.426 1.31-.28.38-.673.679-1.177.895-.501.217-1.081.325-1.742.325-.916 0-1.663-.195-2.242-.586-.579-.394-.934-.953-1.066-1.678l1.54-.234c.096.401.293.705.591.91.298.203.687.304 1.167.304.522 0 .939-.108 1.251-.325.313-.22.469-.488.469-.804a.838.838 0 0 0-.287-.644c-.189-.174-.478-.306-.869-.395l-1.385-.303c-.763-.174-1.328-.451-1.694-.831-.362-.38-.543-.861-.543-1.444 0-.483.135-.905.405-1.268.27-.362.643-.644 1.119-.846.475-.206 1.02-.31 1.635-.31.884 0 1.58.192 2.088.576.508.38.843.89 1.007 1.529zm3.503 1.326V31h-1.592V20.09h1.571v4.06h.101c.192-.44.485-.79.879-1.05.394-.259.909-.388 1.545-.388.561 0 1.051.115 1.47.346.423.23.749.575.98 1.033.234.455.352 1.023.352 1.705V31h-1.593v-5.012c0-.6-.154-1.066-.463-1.396-.309-.334-.739-.5-1.289-.5-.377 0-.714.08-1.013.239-.294.16-.527.394-.697.703-.167.306-.251.675-.251 1.108zm10.957 5.023c-.806 0-1.5-.172-2.082-.517a3.505 3.505 0 0 1-1.343-1.464c-.312-.633-.469-1.373-.469-2.222 0-.838.157-1.576.469-2.216a3.644 3.644 0 0 1 1.321-1.496c.568-.359 1.233-.538 1.992-.538.462 0 .91.076 1.343.229.433.152.822.392 1.166.719.345.326.616.75.815 1.273.199.518.299 1.149.299 1.89v.566h-6.504v-1.194h4.943c0-.419-.085-.79-.256-1.113a1.93 1.93 0 0 0-.719-.772 2.008 2.008 0 0 0-1.076-.283c-.447 0-.838.11-1.172.33a2.22 2.22 0 0 0-.767.853 2.467 2.467 0 0 0-.266 1.134v.933c0 .546.096 1.012.287 1.395.196.384.467.677.815.88.348.198.755.297 1.22.297.302 0 .577-.042.826-.127a1.704 1.704 0 0 0 1.06-1.039l1.507.271c-.12.444-.337.833-.649 1.167a3.15 3.15 0 0 1-1.167.773c-.465.18-.996.271-1.593.271zm5.278-.165v-8.182h1.539v1.3h.085c.15-.44.412-.787.789-1.039.38-.256.809-.383 1.289-.383a6.8 6.8 0 0 1 .676.037v1.523a2.825 2.825 0 0 0-.341-.058 3.237 3.237 0 0 0-.49-.038c-.376 0-.712.08-1.006.24a1.781 1.781 0 0 0-.949 1.604V31h-1.592zM549 31h18v2h-18v-2zm55.3-11.29a.996.996 0 0 0-1.41 0L598 24.59l-4.89-4.89a.996.996 0 1 0-1.41 1.41l4.89 4.89-4.89 4.89a.996.996 0 1 0 1.41 1.41l4.89-4.89 4.89 4.89a.996.996 0 1 0 1.41-1.41L599.41 26l4.89-4.89c.38-.38.38-1.02 0-1.4z"/><circle cx="469.5" cy="251.5" r="39.5" fill="#6246E4"/><rect width="49.712" height="28.902" x="444.22" y="239.361" fill="#fff" rx="14.451"/><path fill="#fff" d="M482.369 229.342a1.543 1.543 0 0 1 1.158 1.506v9.669h-28.902v-9.669c0-.709.471-1.334 1.158-1.506 3.93-.982 8.464-1.542 13.293-1.542 4.829 0 9.363.56 13.293 1.542z"/><path fill="#fff" fill-rule="evenodd" d="m486.686 242.383.878-5.714.686.106-.879 5.713-.685-.105zm1.383.46 2.844-2.086.41.56-2.844 2.086-.41-.56z" clip-rule="evenodd"/><circle cx="487.995" cy="236.151" r="1.734" fill="#fff" transform="rotate(8.737 487.995 236.151)"/><circle cx="492.038" cy="240.281" r="1.734" fill="#fff" transform="rotate(8.737 492.038 240.281)"/><circle cx="453.811" cy="263.662" r="1.156" fill="#DFD8FF"/><circle cx="484.354" cy="263.658" r="1.156" fill="#DFD8FF"/><mask id="f" width="46" height="25" x="446" y="241" maskUnits="userSpaceOnUse" style="mask-type:alpha"><path fill="#DFD8FF" fill-rule="evenodd" d="M458.671 241.673c-6.704 0-12.139 5.435-12.139 12.139s5.435 12.139 12.139 12.139h20.81c6.704 0 12.139-5.435 12.139-12.139s-5.435-12.139-12.139-12.139h-20.81zm0 2.312c-5.427 0-9.827 4.4-9.827 9.827s4.4 9.827 9.827 9.827h20.81c5.427 0 9.827-4.4 9.827-9.827s-4.4-9.827-9.827-9.827h-20.81z" clip-rule="evenodd"/></mask><g mask="url(#f)"><path fill="#DFD8FF" d="m454.403 262.372 29.295-.067 1.894 3.736-32.912.132 1.723-3.801z"/></g><path fill="url(#g)" d="M480.059 273.604a.782.782 0 0 1-.651.774c-3.185.53-6.674.822-10.332.822-3.657 0-7.146-.292-10.331-.822a.782.782 0 0 1-.652-.774v-9.965h21.966v9.965z"/><path fill="#000" d="M458.093 263.639h21.966v1.179h-21.966z" opacity=".1"/><mask id="h" width="50" height="30" x="444" y="239" maskUnits="userSpaceOnUse" style="mask-type:alpha"><rect width="49.712" height="28.902" fill="#6246E4" rx="14.451" transform="matrix(1 0 0 -1 444.22 268.263)"/></mask><g mask="url(#h)"><path fill="#DFD8FF" d="M452.313 239.361a4.624 4.624 0 0 0 4.624 4.624h24.278a4.625 4.625 0 0 0 4.625-4.624h-33.527z"/></g><path fill="#DFD8FF" d="M452.313 253.812a6.358 6.358 0 0 1 6.359-6.358h20.809a6.358 6.358 0 1 1 0 12.717h-20.809a6.359 6.359 0 0 1-6.359-6.359z"/><rect width="3.468" height="5.78" x="460.406" y="249.766" fill="#6246E4" rx="1.734"/><rect width="3.468" height="5.78" x="474.279" y="249.766" fill="#6246E4" rx="1.734"/><path fill="url(#i)" d="M479 231.543a.78.78 0 0 0-.637-.77c-2.85-.524-5.969-.812-9.238-.812-3.27 0-6.389.288-9.239.812a.78.78 0 0 0-.636.77v9.979H479v-9.979z"/><path fill="#000" d="M478.98 232.644c-3.02-.575-6.361-.894-9.875-.894-3.514 0-6.855.319-9.875.894v10.166h19.75v-10.166z" opacity=".1"/><path fill="url(#j)" d="M480.059 234.81a.782.782 0 0 0-.651-.774c-3.185-.529-6.674-.822-10.332-.822-3.657 0-7.146.293-10.331.822a.782.782 0 0 0-.652.774v9.175h21.966v-9.175z"/><path fill="#000" d="M458.093 242.829h21.966v1.179h-21.966z" opacity=".1"/><path fill="#555" d="M418.783 354v-8.727h2.949c.682 0 1.242.116 1.679.349.438.23.762.547.972.95.21.404.315.863.315 1.377s-.105.97-.315 1.368c-.21.397-.533.71-.968.937-.434.225-.99.337-1.666.337h-2.386v-.955h2.352c.466 0 .841-.068 1.125-.204.287-.137.495-.33.622-.58a1.94 1.94 0 0 0 .196-.903c0-.35-.065-.655-.196-.916a1.329 1.329 0 0 0-.626-.605c-.287-.145-.666-.218-1.138-.218h-1.858V354h-1.057zm4.108-3.92 2.148 3.92h-1.227l-2.114-3.92h1.193zm6.106 4.056c-.631 0-1.175-.139-1.632-.417a2.803 2.803 0 0 1-1.053-1.176c-.244-.506-.366-1.094-.366-1.765 0-.67.122-1.261.366-1.772a2.888 2.888 0 0 1 1.031-1.202c.444-.29.961-.435 1.552-.435.34 0 .677.057 1.009.171.333.113.635.298.908.554.273.253.49.588.652 1.005.162.418.243.932.243 1.543v.426h-5.045v-.869h4.022c0-.369-.074-.699-.221-.989a1.677 1.677 0 0 0-.622-.686 1.749 1.749 0 0 0-.946-.251c-.401 0-.748.099-1.04.298a1.96 1.96 0 0 0-.669.767 2.242 2.242 0 0 0-.235 1.014v.58c0 .494.086.913.256 1.257.173.341.413.601.72.78.307.176.664.264 1.07.264.264 0 .503-.037.716-.111.216-.077.402-.19.558-.341.156-.153.277-.344.362-.571l.972.273a2.16 2.16 0 0 1-.516.869c-.241.247-.54.441-.895.58a3.325 3.325 0 0 1-1.197.204zm6.166.017c-.415 0-.791-.078-1.129-.234a1.942 1.942 0 0 1-.806-.686c-.199-.301-.298-.665-.298-1.091 0-.375.074-.679.222-.912.147-.236.345-.42.592-.554a3.12 3.12 0 0 1 .818-.298 10.1 10.1 0 0 1 .908-.162c.398-.051.72-.09.967-.115.25-.029.432-.075.546-.141.116-.065.174-.179.174-.341v-.034c0-.42-.115-.747-.345-.98-.227-.233-.572-.349-1.035-.349-.48 0-.857.105-1.13.315-.272.21-.464.435-.575.673l-.954-.341c.17-.397.397-.707.681-.929.287-.224.6-.38.938-.468a3.89 3.89 0 0 1 1.006-.137 4 4 0 0 1 .724.077c.276.048.541.149.797.303.258.153.473.385.643.694.171.31.256.725.256 1.245V354h-1.006v-.886h-.051a1.77 1.77 0 0 1-.341.456c-.159.162-.37.299-.635.413-.264.114-.586.17-.967.17zm.153-.903c.398 0 .733-.078 1.006-.234a1.597 1.597 0 0 0 .835-1.385v-.921c-.042.051-.136.098-.281.141a4.65 4.65 0 0 1-.494.106 21.302 21.302 0 0 1-.963.128c-.262.034-.506.09-.733.166a1.259 1.259 0 0 0-.546.337c-.136.148-.204.349-.204.605 0 .35.129.614.388.793.261.176.592.264.992.264zm7.154.886c-.545 0-1.027-.137-1.444-.413-.418-.278-.745-.67-.981-1.176-.235-.509-.353-1.109-.353-1.803 0-.687.118-1.284.353-1.789.236-.506.564-.897.985-1.172.42-.276.906-.414 1.457-.414.426 0 .763.071 1.01.213.25.14.441.299.571.478.134.176.237.321.311.434h.085v-3.221h1.006V354h-.971v-1.006h-.12c-.074.12-.179.27-.315.452-.136.179-.331.34-.584.482-.253.139-.589.208-1.01.208zm.137-.903c.403 0 .744-.105 1.022-.315.279-.213.49-.507.635-.882.145-.378.218-.814.218-1.309 0-.488-.071-.916-.214-1.282a1.862 1.862 0 0 0-.63-.861c-.279-.208-.622-.311-1.031-.311-.427 0-.782.109-1.066.328-.281.216-.493.51-.635.882a3.51 3.51 0 0 0-.209 1.244c0 .466.071.889.214 1.27.144.378.357.679.639.904.284.221.636.332 1.057.332zm4.845.767v-6.545h1.005V354h-1.005zm.511-7.636a.713.713 0 0 1-.507-.201.643.643 0 0 1-.209-.481c0-.188.07-.348.209-.482a.717.717 0 0 1 .507-.2c.196 0 .364.067.503.2a.639.639 0 0 1 .213.482.636.636 0 0 1-.213.481.7.7 0 0 1-.503.201zm3.342 3.698V354h-1.006v-6.545h.972v1.022h.085a1.88 1.88 0 0 1 .699-.801c.313-.204.716-.307 1.21-.307.443 0 .831.091 1.164.273.332.179.591.452.775.818.185.364.277.824.277 1.381V354h-1.006v-4.091c0-.514-.133-.915-.4-1.202-.267-.289-.634-.434-1.1-.434-.321 0-.607.069-.86.209-.25.139-.448.342-.593.609-.145.267-.217.591-.217.971zm8.656 6.529c-.486 0-.903-.063-1.253-.188a2.659 2.659 0 0 1-.873-.485 2.624 2.624 0 0 1-.55-.64l.801-.562c.091.119.206.256.345.409.139.156.33.291.571.405.244.116.564.175.959.175.528 0 .964-.128 1.308-.384.344-.256.516-.656.516-1.202v-1.329h-.085a5.36 5.36 0 0 1-.316.443 1.777 1.777 0 0 1-.579.464c-.25.134-.588.201-1.015.201a2.733 2.733 0 0 1-1.423-.375 2.642 2.642 0 0 1-.993-1.091c-.241-.477-.362-1.057-.362-1.739 0-.67.118-1.254.354-1.751.236-.5.564-.887.984-1.159.421-.276.906-.414 1.458-.414.426 0 .764.071 1.014.213.253.14.446.299.579.478.137.176.242.321.316.434h.102v-1.039h.971v6.733c0 .562-.127 1.019-.383 1.372a2.18 2.18 0 0 1-1.023.779c-.426.168-.9.252-1.423.252zm-.034-3.597c.403 0 .744-.092 1.023-.277.278-.184.49-.45.635-.797.144-.346.217-.761.217-1.244 0-.471-.071-.888-.213-1.248a1.865 1.865 0 0 0-.631-.848c-.278-.205-.622-.307-1.031-.307-.426 0-.781.108-1.065.324a1.958 1.958 0 0 0-.635.869c-.14.364-.209.767-.209 1.21 0 .455.071.857.213 1.206.145.347.358.619.639.818.284.196.636.294 1.057.294zm10.926-5.539v.852h-3.392v-.852h3.392zm-2.403-1.569h1.005v6.239c0 .284.041.497.124.639a.637.637 0 0 0 .324.281c.133.046.274.069.422.069.11 0 .201-.006.272-.017l.171-.035.204.904a2.178 2.178 0 0 1-.75.119c-.284 0-.562-.061-.835-.183a1.656 1.656 0 0 1-.673-.558c-.176-.25-.264-.566-.264-.946v-6.512zm6.59 8.25c-.631 0-1.175-.139-1.632-.417a2.803 2.803 0 0 1-1.053-1.176c-.244-.506-.366-1.094-.366-1.765 0-.67.122-1.261.366-1.772a2.888 2.888 0 0 1 1.031-1.202c.444-.29.961-.435 1.552-.435.34 0 .677.057 1.009.171.333.113.635.298.908.554.273.253.49.588.652 1.005.162.418.243.932.243 1.543v.426h-5.045v-.869h4.022c0-.369-.074-.699-.221-.989a1.677 1.677 0 0 0-.622-.686 1.751 1.751 0 0 0-.946-.251c-.401 0-.748.099-1.04.298a1.96 1.96 0 0 0-.669.767 2.242 2.242 0 0 0-.235 1.014v.58c0 .494.086.913.256 1.257.173.341.413.601.72.78.307.176.664.264 1.07.264.264 0 .503-.037.716-.111.216-.077.402-.19.558-.341.156-.153.277-.344.362-.571l.972.273a2.16 2.16 0 0 1-.516.869c-.241.247-.54.441-.895.58a3.325 3.325 0 0 1-1.197.204zm4.24-.136v-6.545h.971v1.022h.086c.136-.349.356-.62.66-.814.304-.196.669-.294 1.095-.294.432 0 .792.098 1.078.294.29.194.516.465.678.814h.068a1.91 1.91 0 0 1 .754-.805c.336-.202.738-.303 1.206-.303.586 0 1.064.184 1.436.55.373.364.559.93.559 1.7V354h-1.006v-4.381c0-.483-.132-.828-.396-1.035a1.464 1.464 0 0 0-.933-.311c-.461 0-.817.139-1.07.417-.253.276-.379.625-.379 1.049V354h-1.023v-4.483c0-.372-.121-.672-.362-.899-.242-.23-.553-.345-.934-.345-.261 0-.505.069-.732.209a1.57 1.57 0 0 0-.546.579 1.714 1.714 0 0 0-.204.848V354h-1.006zm10.43 2.455v-9h.971v1.039h.119c.074-.113.177-.258.307-.434.134-.179.324-.338.571-.478.25-.142.588-.213 1.014-.213.552 0 1.037.138 1.458.414.42.275.748.666.984 1.172.236.505.354 1.102.354 1.789 0 .694-.118 1.294-.354 1.803-.236.506-.562.898-.98 1.176-.417.276-.899.413-1.444.413-.421 0-.758-.069-1.01-.208a1.867 1.867 0 0 1-.584-.482 6.21 6.21 0 0 1-.316-.452h-.085v3.461h-1.005zm.988-5.728c0 .495.073.931.217 1.309.145.375.357.669.635.882.279.21.62.315 1.023.315.421 0 .771-.111 1.053-.332.284-.225.497-.526.639-.904.145-.381.217-.804.217-1.27 0-.46-.071-.875-.213-1.244a1.923 1.923 0 0 0-.635-.882c-.281-.219-.635-.328-1.061-.328-.409 0-.753.103-1.031.311-.279.204-.489.491-.631.861-.142.366-.213.794-.213 1.282zm7.33-5.454V354h-1.006v-8.727h1.006zm3.768 8.88c-.415 0-.791-.078-1.129-.234a1.936 1.936 0 0 1-.806-.686c-.199-.301-.298-.665-.298-1.091 0-.375.074-.679.221-.912.148-.236.346-.42.593-.554a3.12 3.12 0 0 1 .818-.298 10.1 10.1 0 0 1 .908-.162c.397-.051.72-.09.967-.115.25-.029.432-.075.545-.141.117-.065.175-.179.175-.341v-.034c0-.42-.115-.747-.345-.98-.227-.233-.572-.349-1.036-.349-.48 0-.856.105-1.129.315-.273.21-.464.435-.575.673l-.955-.341c.171-.397.398-.707.682-.929.287-.224.6-.38.938-.468a3.888 3.888 0 0 1 1.005-.137c.211 0 .452.026.725.077.275.048.541.149.797.303.258.153.473.385.643.694.171.31.256.725.256 1.245V354h-1.006v-.886h-.051a1.77 1.77 0 0 1-.341.456 1.973 1.973 0 0 1-.635.413c-.264.114-.587.17-.967.17zm.153-.903c.398 0 .733-.078 1.006-.234.275-.157.483-.358.622-.605.142-.248.213-.508.213-.78v-.921c-.042.051-.136.098-.281.141a4.65 4.65 0 0 1-.494.106 20.745 20.745 0 0 1-.964.128 3.88 3.88 0 0 0-.732.166 1.259 1.259 0 0 0-.546.337c-.136.148-.204.349-.204.605 0 .35.129.614.387.793.262.176.593.264.993.264zm7.529-5.795v.852h-3.392v-.852h3.392zm-2.403-1.569h1.005v6.239c0 .284.041.497.124.639a.637.637 0 0 0 .324.281c.133.046.274.069.422.069.11 0 .201-.006.272-.017l.171-.035.204.904a2.178 2.178 0 0 1-.75.119c-.284 0-.562-.061-.835-.183a1.656 1.656 0 0 1-.673-.558c-.176-.25-.264-.566-.264-.946v-6.512zm6.59 8.25c-.631 0-1.175-.139-1.632-.417a2.803 2.803 0 0 1-1.053-1.176c-.244-.506-.366-1.094-.366-1.765 0-.67.122-1.261.366-1.772a2.888 2.888 0 0 1 1.031-1.202c.444-.29.961-.435 1.551-.435.341 0 .678.057 1.01.171.333.113.635.298.908.554.273.253.49.588.652 1.005.162.418.243.932.243 1.543v.426h-5.045v-.869h4.022c0-.369-.074-.699-.221-.989a1.677 1.677 0 0 0-.622-.686 1.752 1.752 0 0 0-.947-.251c-.4 0-.747.099-1.039.298a1.96 1.96 0 0 0-.669.767 2.242 2.242 0 0 0-.235 1.014v.58c0 .494.086.913.256 1.257.173.341.413.601.72.78.307.176.664.264 1.07.264.264 0 .503-.037.716-.111.216-.077.402-.19.558-.341.156-.153.277-.344.362-.571l.972.273a2.16 2.16 0 0 1-.516.869c-.241.247-.54.441-.895.58a3.325 3.325 0 0 1-1.197.204zm8.348-.068a.736.736 0 0 1-.541-.226.736.736 0 0 1-.226-.541c0-.21.075-.39.226-.541a.736.736 0 0 1 .541-.226c.21 0 .39.075.541.226a.737.737 0 0 1 .226.541.793.793 0 0 1-.384.665.73.73 0 0 1-.383.102zm3.304 0a.737.737 0 0 1-.541-.226.74.74 0 0 1-.226-.541c0-.21.076-.39.226-.541a.737.737 0 0 1 .541-.226c.211 0 .391.075.542.226.15.151.226.331.226.541a.801.801 0 0 1-.384.665.733.733 0 0 1-.384.102zm3.305 0a.737.737 0 0 1-.541-.226.736.736 0 0 1-.226-.541c0-.21.075-.39.226-.541a.737.737 0 0 1 .541-.226c.21 0 .391.075.541.226a.737.737 0 0 1 .226.541.726.726 0 0 1-.106.384.81.81 0 0 1-.277.281.735.735 0 0 1-.384.102zm-68.077 27.568c0-1.065.141-2.044.422-2.936a8.458 8.458 0 0 1 1.266-2.48h1.453a5.353 5.353 0 0 0-.605 1.036 9.21 9.21 0 0 0-.49 1.338c-.137.483-.245.984-.324 1.504a10.492 10.492 0 0 0 .085 3.584c.136.69.32 1.331.55 1.922.233.588.494 1.069.784 1.444h-1.453a8.461 8.461 0 0 1-1.266-2.476c-.281-.894-.422-1.873-.422-2.936zm4.322 4.364v-1.142l3.03-2.97c.29-.293.531-.553.725-.78.193-.227.338-.447.434-.661.097-.213.145-.44.145-.681 0-.276-.062-.512-.187-.708a1.245 1.245 0 0 0-.516-.46 1.663 1.663 0 0 0-.746-.162c-.287 0-.538.06-.754.179a1.24 1.24 0 0 0-.503.499 1.608 1.608 0 0 0-.175.771h-1.504c0-.554.127-1.036.379-1.445a2.555 2.555 0 0 1 1.045-.95c.446-.224.957-.337 1.534-.337.585 0 1.099.11 1.542.329.443.218.787.518 1.031.899.248.38.371.815.371 1.304 0 .326-.062.647-.187.963-.125.315-.345.664-.661 1.048-.312.384-.751.848-1.317 1.393l-1.504 1.53v.06h3.801V386h-5.983zm11.033-9.136-2.812 10.448h-1.351l2.812-10.448h1.351zm4.099 9.255c-.613 0-1.159-.105-1.636-.315a2.74 2.74 0 0 1-1.125-.878 2.279 2.279 0 0 1-.439-1.3h1.602c.015.236.093.442.235.618.142.174.331.309.567.405.235.097.5.145.792.145.313 0 .59-.054.831-.162.242-.111.431-.264.567-.46.136-.196.203-.422.2-.678a1.178 1.178 0 0 0-.204-.699 1.381 1.381 0 0 0-.605-.473c-.262-.113-.577-.17-.946-.17h-.772v-1.219h.772c.304 0 .569-.052.796-.157a1.29 1.29 0 0 0 .542-.444c.13-.193.194-.416.191-.669a1.158 1.158 0 0 0-.166-.643 1.124 1.124 0 0 0-.473-.431 1.559 1.559 0 0 0-.711-.153c-.268 0-.515.048-.742.145a1.36 1.36 0 0 0-.55.413 1.047 1.047 0 0 0-.221.631h-1.522c.012-.489.152-.918.422-1.287a2.726 2.726 0 0 1 1.091-.869 3.61 3.61 0 0 1 1.53-.316c.582 0 1.088.11 1.517.329a2.47 2.47 0 0 1 1.002.873c.235.367.353.771.353 1.215.003.491-.142.903-.434 1.235-.29.333-.671.55-1.143.652v.069c.614.085 1.084.312 1.411.681.33.367.493.823.49 1.368 0 .489-.139.926-.418 1.313-.275.383-.656.684-1.142.903-.483.219-1.037.328-1.662.328zm7.455-4.483c0 1.063-.142 2.042-.426 2.936a8.402 8.402 0 0 1-1.262 2.476h-1.453c.219-.281.42-.625.605-1.031.188-.406.35-.852.486-1.338.139-.486.247-.989.324-1.509a10.192 10.192 0 0 0-.085-3.579 10.898 10.898 0 0 0-.55-1.922c-.23-.591-.49-1.074-.78-1.449h1.453c.56.759.98 1.585 1.262 2.48.284.892.426 1.871.426 2.936z"/><path fill="#fff" d="M648.5.5h299v499h-299z"/><path stroke="#DADCE0" d="M648.5.5h299v499h-299z"/><path fill="#673AB7" d="M648 0h300v52H648z"/><path fill="#fff" d="M669.199 31V20.09h6.764v1.418h-5.119v3.324h4.635v1.411h-4.635V31h-1.645zm11.507.165c-.768 0-1.437-.176-2.009-.527a3.56 3.56 0 0 1-1.331-1.476c-.316-.632-.474-1.37-.474-2.216 0-.848.158-1.59.474-2.226.316-.636.76-1.13 1.331-1.481.572-.352 1.241-.527 2.009-.527.767 0 1.436.175 2.008.527a3.552 3.552 0 0 1 1.331 1.48c.316.636.474 1.379.474 2.227 0 .845-.158 1.584-.474 2.216a3.56 3.56 0 0 1-1.331 1.476c-.572.351-1.241.527-2.008.527zm.005-1.337c.497 0 .909-.131 1.236-.394.326-.263.568-.613.724-1.05.16-.436.24-.917.24-1.443 0-.522-.08-1.001-.24-1.438a2.346 2.346 0 0 0-.724-1.06c-.327-.267-.739-.4-1.236-.4-.501 0-.916.134-1.247.4-.326.266-.57.62-.729 1.06a4.225 4.225 0 0 0-.235 1.438c0 .526.078 1.007.235 1.444.159.436.403.786.729 1.049.331.263.746.394 1.247.394zM686.297 31v-8.182h1.54v1.3h.085a1.98 1.98 0 0 1 .788-1.039c.38-.256.81-.383 1.289-.383a6.803 6.803 0 0 1 .677.037v1.523a2.863 2.863 0 0 0-.341-.058 3.247 3.247 0 0 0-.49-.038c-.377 0-.712.08-1.007.24a1.778 1.778 0 0 0-.948 1.604V31h-1.593zm5.757 0v-8.182h1.529v1.332h.101c.17-.451.449-.803.836-1.055.387-.255.851-.383 1.391-.383.546 0 1.005.128 1.374.383.373.256.648.607.826 1.055h.085c.195-.437.506-.785.932-1.044.426-.263.934-.394 1.523-.394.743 0 1.348.232 1.817.697.472.466.708 1.167.708 2.105V31h-1.592v-5.337c0-.554-.151-.956-.453-1.204a1.649 1.649 0 0 0-1.082-.373c-.518 0-.921.16-1.209.48-.287.315-.431.722-.431 1.22V31h-1.588v-5.439c0-.444-.138-.8-.415-1.07-.277-.27-.637-.405-1.081-.405-.302 0-.581.08-.837.24a1.758 1.758 0 0 0-.612.655c-.153.28-.229.605-.229.975V31h-1.593zm17.354 0V20.09h3.889c.849 0 1.552.155 2.109.464a3.01 3.01 0 0 1 1.252 1.268c.277.533.416 1.133.416 1.8 0 .672-.141 1.275-.421 1.812a3.044 3.044 0 0 1-1.257 1.267c-.558.31-1.259.464-2.104.464h-2.674v-1.396h2.524c.537 0 .972-.092 1.306-.277.333-.188.578-.444.735-.767.156-.323.234-.69.234-1.103a2.47 2.47 0 0 0-.234-1.097 1.683 1.683 0 0 0-.741-.75c-.334-.182-.774-.272-1.321-.272h-2.067V31h-1.646zm14.65-3.393v-4.789h1.598V31h-1.566v-1.417h-.085c-.188.437-.49.8-.906 1.092-.411.288-.925.431-1.539.431-.526 0-.991-.115-1.396-.346a2.435 2.435 0 0 1-.948-1.038c-.227-.459-.341-1.025-.341-1.7v-5.204h1.593v5.013c0 .557.155 1.001.463 1.331.309.33.711.496 1.204.496.299 0 .595-.075.89-.224.298-.15.545-.375.74-.677.199-.301.297-.685.293-1.15zM727.924 31V20.09h1.593v4.055h.096c.092-.17.225-.368.399-.592a2.26 2.26 0 0 1 .725-.586c.309-.17.717-.255 1.225-.255a3.2 3.2 0 0 1 1.768.5c.519.334.925.815 1.22 1.444.298.628.447 1.385.447 2.27 0 .883-.147 1.642-.442 2.274-.294.628-.699 1.113-1.214 1.454a3.146 3.146 0 0 1-1.763.506c-.497 0-.904-.084-1.22-.25a2.297 2.297 0 0 1-.735-.587 4.401 4.401 0 0 1-.41-.596h-.134V31h-1.555zm1.561-4.09c0 .574.083 1.079.25 1.512.167.433.409.772.725 1.017.316.242.703.363 1.161.363.476 0 .873-.127 1.193-.379.32-.255.561-.602.724-1.038a4.11 4.11 0 0 0 .251-1.476c0-.54-.082-1.024-.245-1.454a2.23 2.23 0 0 0-.725-1.017c-.319-.25-.719-.373-1.198-.373-.462 0-.852.119-1.172.357-.316.237-.556.57-.719.996-.164.426-.245.923-.245 1.491zm9.294-6.82V31h-1.593V20.09h1.593zM740.921 31v-8.182h1.593V31h-1.593zm.805-9.444c-.277 0-.515-.093-.714-.277a.898.898 0 0 1-.293-.671.89.89 0 0 1 .293-.672c.199-.188.437-.282.714-.282.277 0 .513.094.708.282a.882.882 0 0 1 .298.672.889.889 0 0 1-.298.67.993.993 0 0 1-.708.278zm9.062 3.26-1.444.255a1.69 1.69 0 0 0-.288-.527 1.409 1.409 0 0 0-.522-.41c-.22-.107-.495-.16-.825-.16-.451 0-.828.101-1.129.304-.302.199-.453.456-.453.772 0 .273.101.494.303.66.203.168.53.304.981.41l1.299.299c.753.174 1.314.442 1.683.804.37.363.554.833.554 1.412 0 .49-.142.927-.426 1.31-.28.38-.673.679-1.177.895-.501.217-1.081.325-1.742.325-.916 0-1.663-.195-2.242-.586-.579-.394-.934-.953-1.066-1.678l1.54-.234c.096.401.293.705.591.91.298.203.687.304 1.167.304.522 0 .939-.108 1.251-.325.313-.22.469-.488.469-.804a.838.838 0 0 0-.287-.644c-.189-.174-.478-.306-.869-.395l-1.385-.303c-.763-.174-1.328-.451-1.694-.831-.362-.38-.543-.861-.543-1.444 0-.483.135-.905.405-1.268.27-.362.643-.644 1.119-.846.475-.206 1.02-.31 1.635-.31.884 0 1.58.192 2.088.576.508.38.843.89 1.007 1.529zm3.503 1.326V31h-1.592V20.09h1.571v4.06h.101c.192-.44.485-.79.879-1.05.394-.259.909-.388 1.545-.388.561 0 1.051.115 1.47.346.423.23.749.575.98 1.033.234.455.352 1.023.352 1.705V31h-1.593v-5.012c0-.6-.154-1.066-.463-1.396-.309-.334-.739-.5-1.289-.5-.377 0-.714.08-1.013.239-.294.16-.527.394-.697.703-.167.306-.251.675-.251 1.108zm10.957 5.023c-.806 0-1.5-.172-2.082-.517a3.505 3.505 0 0 1-1.343-1.464c-.312-.633-.469-1.373-.469-2.222 0-.838.157-1.576.469-2.216a3.644 3.644 0 0 1 1.321-1.496c.568-.359 1.233-.538 1.992-.538.462 0 .91.076 1.343.229.433.152.822.392 1.166.719.345.326.616.75.815 1.273.199.518.299 1.149.299 1.89v.566h-6.504v-1.194h4.943c0-.419-.085-.79-.256-1.113a1.93 1.93 0 0 0-.719-.772 2.008 2.008 0 0 0-1.076-.283c-.447 0-.838.11-1.172.33a2.22 2.22 0 0 0-.767.853 2.467 2.467 0 0 0-.266 1.134v.933c0 .546.096 1.012.287 1.395.196.384.467.677.815.88.348.198.755.297 1.22.297.302 0 .577-.042.826-.127a1.704 1.704 0 0 0 1.06-1.039l1.507.271c-.12.444-.337.833-.649 1.167a3.15 3.15 0 0 1-1.167.773c-.465.18-.996.271-1.593.271zm5.278-.165v-8.182h1.539v1.3h.085c.15-.44.412-.787.789-1.039.38-.256.809-.383 1.289-.383a6.8 6.8 0 0 1 .676.037v1.523a2.825 2.825 0 0 0-.341-.058 3.237 3.237 0 0 0-.49-.038c-.376 0-.712.08-1.006.24a1.781 1.781 0 0 0-.949 1.604V31h-1.592zM873 31h18v2h-18v-2zm55.3-11.29a.996.996 0 0 0-1.41 0L922 24.59l-4.89-4.89a.996.996 0 1 0-1.41 1.41l4.89 4.89-4.89 4.89a.996.996 0 1 0 1.41 1.41l4.89-4.89 4.89 4.89a.996.996 0 1 0 1.41-1.41L923.41 26l4.89-4.89c.38-.38.38-1.02 0-1.4z"/><circle cx="793.5" cy="251.5" r="39.5" fill="#6246E4"/><rect width="49.712" height="28.902" x="768.22" y="239.361" fill="#fff" rx="14.451"/><path fill="#fff" d="M806.369 229.342a1.543 1.543 0 0 1 1.158 1.506v9.669h-28.902v-9.669c0-.709.471-1.334 1.158-1.506 3.93-.982 8.464-1.542 13.293-1.542 4.829 0 9.363.56 13.293 1.542z"/><path fill="#fff" fill-rule="evenodd" d="m810.686 242.383.878-5.714.686.106-.879 5.713-.685-.105zm1.383.46 2.844-2.086.41.56-2.844 2.086-.41-.56z" clip-rule="evenodd"/><circle cx="811.995" cy="236.151" r="1.734" fill="#fff" transform="rotate(8.737 811.995 236.151)"/><circle cx="816.039" cy="240.281" r="1.734" fill="#fff" transform="rotate(8.737 816.039 240.281)"/><circle cx="777.811" cy="263.662" r="1.156" fill="#DFD8FF"/><circle cx="808.354" cy="263.658" r="1.156" fill="#DFD8FF"/><mask id="k" width="46" height="25" x="770" y="241" maskUnits="userSpaceOnUse" style="mask-type:alpha"><path fill="#DFD8FF" fill-rule="evenodd" d="M782.671 241.673c-6.704 0-12.139 5.435-12.139 12.139s5.435 12.139 12.139 12.139h20.81c6.704 0 12.139-5.435 12.139-12.139s-5.435-12.139-12.139-12.139h-20.81zm0 2.312c-5.427 0-9.827 4.4-9.827 9.827s4.4 9.827 9.827 9.827h20.81c5.427 0 9.827-4.4 9.827-9.827s-4.4-9.827-9.827-9.827h-20.81z" clip-rule="evenodd"/></mask><g mask="url(#k)"><path fill="#DFD8FF" d="m778.403 262.372 29.295-.067 1.894 3.736-32.912.132 1.723-3.801z"/></g><path fill="url(#l)" d="M804.059 273.604a.782.782 0 0 1-.651.774c-3.185.53-6.674.822-10.332.822-3.657 0-7.146-.292-10.331-.822a.782.782 0 0 1-.652-.774v-9.965h21.966v9.965z"/><path fill="#000" d="M782.093 263.639h21.966v1.179h-21.966z" opacity=".1"/><mask id="m" width="50" height="30" x="768" y="239" maskUnits="userSpaceOnUse" style="mask-type:alpha"><rect width="49.712" height="28.902" fill="#6246E4" rx="14.451" transform="matrix(1 0 0 -1 768.22 268.263)"/></mask><g mask="url(#m)"><path fill="#DFD8FF" d="M776.313 239.361a4.624 4.624 0 0 0 4.624 4.624h24.278a4.625 4.625 0 0 0 4.625-4.624h-33.527z"/></g><path fill="#DFD8FF" d="M776.313 253.812a6.358 6.358 0 0 1 6.359-6.358h20.809a6.358 6.358 0 1 1 0 12.717h-20.809a6.359 6.359 0 0 1-6.359-6.359z"/><rect width="3.468" height="5.78" x="784.406" y="249.766" fill="#6246E4" rx="1.734"/><rect width="3.468" height="5.78" x="798.279" y="249.766" fill="#6246E4" rx="1.734"/><path fill="url(#n)" d="M803 231.543a.78.78 0 0 0-.637-.77c-2.85-.524-5.969-.812-9.238-.812-3.27 0-6.389.288-9.239.812a.78.78 0 0 0-.636.77v9.979H803v-9.979z"/><path fill="#000" d="M802.98 232.644c-3.02-.575-6.361-.894-9.875-.894-3.514 0-6.855.319-9.875.894v10.166h19.75v-10.166z" opacity=".1"/><path fill="url(#o)" d="M804.059 234.81a.782.782 0 0 0-.651-.774c-3.185-.529-6.674-.822-10.332-.822-3.657 0-7.146.293-10.331.822a.782.782 0 0 0-.652.774v9.175h21.966v-9.175z"/><path fill="#000" d="M782.093 242.829h21.966v1.179h-21.966z" opacity=".1"/><path fill="#555" d="M698.311 345.273h1.261l2.966 7.244h.102l2.966-7.244h1.262V354h-.989v-6.631h-.085L703.066 354h-.954l-2.727-6.631h-.086V354h-.988v-8.727zm12.465 8.88c-.414 0-.791-.078-1.129-.234a1.933 1.933 0 0 1-.805-.686c-.199-.301-.299-.665-.299-1.091 0-.375.074-.679.222-.912.148-.236.345-.42.592-.554a3.12 3.12 0 0 1 .818-.298c.302-.068.604-.122.908-.162.398-.051.72-.09.967-.115.25-.029.432-.075.546-.141.116-.065.175-.179.175-.341v-.034c0-.42-.115-.747-.346-.98-.227-.233-.572-.349-1.035-.349-.48 0-.857.105-1.129.315-.273.21-.465.435-.576.673l-.954-.341c.17-.397.398-.707.682-.929.287-.224.599-.38.937-.468a3.89 3.89 0 0 1 1.006-.137c.21 0 .452.026.724.077.276.048.541.149.797.303.259.153.473.385.644.694.17.31.255.725.255 1.245V354h-1.005v-.886h-.052a1.764 1.764 0 0 1-.34.456c-.16.162-.371.299-.635.413-.265.114-.587.17-.968.17zm.154-.903c.397 0 .733-.078 1.005-.234.276-.157.483-.358.623-.605.142-.248.213-.508.213-.78v-.921c-.043.051-.137.098-.282.141-.142.04-.306.075-.494.106a21.302 21.302 0 0 1-.963.128c-.261.034-.506.09-.733.166a1.261 1.261 0 0 0-.545.337c-.137.148-.205.349-.205.605 0 .35.129.614.388.793.261.176.592.264.993.264zm7.528-5.795v.852h-3.392v-.852h3.392zm-2.403-1.569h1.006v6.239c0 .284.041.497.123.639a.641.641 0 0 0 .324.281c.134.046.274.069.422.069.111 0 .202-.006.273-.017l.17-.035.205.904a2.2 2.2 0 0 1-.75.119c-.284 0-.563-.061-.835-.183a1.659 1.659 0 0 1-.674-.558c-.176-.25-.264-.566-.264-.946v-6.512zm6.505 8.25c-.614 0-1.142-.145-1.585-.434a2.837 2.837 0 0 1-1.023-1.198c-.239-.508-.358-1.089-.358-1.743 0-.664.122-1.251.367-1.76.247-.511.59-.91 1.031-1.197.443-.29.96-.435 1.551-.435.46 0 .875.086 1.244.256.37.17.672.409.908.716s.382.665.439 1.074h-1.006a1.56 1.56 0 0 0-.511-.793c-.262-.233-.614-.349-1.057-.349-.392 0-.736.102-1.031.307a1.986 1.986 0 0 0-.686.856c-.162.367-.243.797-.243 1.291 0 .506.079.946.238 1.321.162.375.39.666.682.874.296.207.642.311 1.04.311.261 0 .499-.045.712-.136.213-.091.393-.222.541-.392.148-.171.253-.375.315-.614h1.006a2.34 2.34 0 0 1-.422 1.044 2.364 2.364 0 0 1-.882.733c-.364.179-.787.268-1.27.268zm5.05-4.074V354h-1.006v-8.727h1.006v3.204h.085c.153-.338.383-.606.69-.805.31-.202.722-.303 1.236-.303.446 0 .837.09 1.172.269.335.176.595.447.78.814.187.363.281.826.281 1.389V354h-1.006v-4.091c0-.52-.135-.922-.404-1.206-.268-.287-.638-.43-1.113-.43-.329 0-.625.069-.886.209a1.524 1.524 0 0 0-.614.609c-.147.267-.221.591-.221.971zm6.084 3.938v-6.545h1.006V354h-1.006zm.511-7.636a.713.713 0 0 1-.507-.201.643.643 0 0 1-.209-.481c0-.188.07-.348.209-.482a.717.717 0 0 1 .507-.2c.196 0 .364.067.503.2a.639.639 0 0 1 .213.482.636.636 0 0 1-.213.481.7.7 0 0 1-.503.201zm3.342 3.698V354h-1.005v-6.545h.971v1.022h.085a1.88 1.88 0 0 1 .699-.801c.313-.204.716-.307 1.21-.307.444 0 .831.091 1.164.273.332.179.591.452.775.818.185.364.277.824.277 1.381V354h-1.005v-4.091c0-.514-.134-.915-.401-1.202-.267-.289-.633-.434-1.099-.434-.321 0-.608.069-.861.209-.25.139-.448.342-.592.609-.145.267-.218.591-.218.971zm8.656 6.529c-.486 0-.903-.063-1.253-.188a2.669 2.669 0 0 1-.873-.485 2.646 2.646 0 0 1-.55-.64l.801-.562c.091.119.206.256.345.409.14.156.33.291.571.405.245.116.564.175.959.175.529 0 .965-.128 1.308-.384.344-.256.516-.656.516-1.202v-1.329h-.085a5.36 5.36 0 0 1-.316.443 1.777 1.777 0 0 1-.579.464c-.25.134-.588.201-1.014.201a2.734 2.734 0 0 1-1.424-.375 2.642 2.642 0 0 1-.993-1.091c-.241-.477-.362-1.057-.362-1.739 0-.67.118-1.254.354-1.751.236-.5.564-.887.984-1.159.421-.276.907-.414 1.458-.414.426 0 .764.071 1.014.213.253.14.446.299.579.478.137.176.242.321.316.434h.102v-1.039h.972v6.733c0 .562-.128 1.019-.384 1.372a2.18 2.18 0 0 1-1.023.779c-.426.168-.9.252-1.423.252zm-.034-3.597c.403 0 .744-.092 1.023-.277.278-.184.49-.45.635-.797.145-.346.217-.761.217-1.244 0-.471-.071-.888-.213-1.248a1.865 1.865 0 0 0-.631-.848c-.278-.205-.622-.307-1.031-.307-.426 0-.781.108-1.065.324a1.958 1.958 0 0 0-.635.869 3.366 3.366 0 0 0-.209 1.21c0 .455.071.857.213 1.206.145.347.358.619.639.818.284.196.637.294 1.057.294zm8.08 1.006v-6.545h.971v1.022h.085c.137-.349.357-.62.661-.814.304-.196.669-.294 1.095-.294.432 0 .791.098 1.078.294.29.194.516.465.678.814h.068a1.91 1.91 0 0 1 .754-.805c.335-.202.737-.303 1.206-.303.585 0 1.064.184 1.436.55.372.364.558.93.558 1.7V354h-1.005v-4.381c0-.483-.132-.828-.396-1.035a1.467 1.467 0 0 0-.934-.311c-.46 0-.816.139-1.069.417-.253.276-.38.625-.38 1.049V354h-1.022v-4.483c0-.372-.121-.672-.363-.899-.241-.23-.552-.345-.933-.345-.261 0-.505.069-.733.209a1.576 1.576 0 0 0-.545.579 1.704 1.704 0 0 0-.205.848V354h-1.005zm12.355.153c-.414 0-.791-.078-1.129-.234a1.94 1.94 0 0 1-.805-.686c-.199-.301-.299-.665-.299-1.091 0-.375.074-.679.222-.912.148-.236.345-.42.592-.554.248-.133.52-.233.819-.298.301-.068.603-.122.907-.162.398-.051.72-.09.968-.115.25-.029.431-.075.545-.141.116-.065.175-.179.175-.341v-.034c0-.42-.115-.747-.345-.98-.228-.233-.573-.349-1.036-.349-.48 0-.856.105-1.129.315-.273.21-.465.435-.576.673l-.954-.341c.17-.397.398-.707.682-.929.287-.224.599-.38.937-.468a3.89 3.89 0 0 1 1.006-.137c.21 0 .452.026.724.077.276.048.542.149.797.303.259.153.473.385.644.694.17.31.255.725.255 1.245V354h-1.005v-.886h-.051a1.794 1.794 0 0 1-.341.456 1.973 1.973 0 0 1-.635.413c-.264.114-.587.17-.968.17zm.154-.903c.398 0 .733-.078 1.005-.234.276-.157.483-.358.623-.605.142-.248.213-.508.213-.78v-.921c-.043.051-.137.098-.282.141-.142.04-.306.075-.494.106a21.302 21.302 0 0 1-.963.128c-.261.034-.506.09-.733.166a1.261 1.261 0 0 0-.545.337c-.137.148-.205.349-.205.605 0 .35.129.614.388.793.261.176.592.264.993.264zm4.682.75v-6.545h.972v.988h.068c.119-.324.335-.586.647-.788a1.906 1.906 0 0 1 1.057-.303 10.862 10.862 0 0 1 .529.017v1.023a3.377 3.377 0 0 0-.235-.038 2.284 2.284 0 0 0-.379-.03c-.318 0-.602.067-.852.2a1.468 1.468 0 0 0-.801 1.334V354h-1.006zm5.402-2.386-.017-1.245h.205l2.863-2.914h1.245l-3.051 3.085h-.086l-1.159 1.074zm-.937 2.386v-8.727h1.006V354h-1.006zm4.159 0-2.557-3.239.716-.699 3.119 3.938h-1.278zm4.843.136c-.631 0-1.175-.139-1.632-.417a2.803 2.803 0 0 1-1.053-1.176c-.244-.506-.366-1.094-.366-1.765 0-.67.122-1.261.366-1.772a2.883 2.883 0 0 1 1.032-1.202c.443-.29.96-.435 1.551-.435.341 0 .677.057 1.01.171.332.113.635.298.907.554.273.253.49.588.652 1.005.162.418.243.932.243 1.543v.426h-5.045v-.869h4.022c0-.369-.073-.699-.221-.989a1.67 1.67 0 0 0-.622-.686 1.749 1.749 0 0 0-.946-.251c-.401 0-.747.099-1.04.298a1.96 1.96 0 0 0-.669.767 2.254 2.254 0 0 0-.234 1.014v.58c0 .494.085.913.255 1.257.173.341.414.601.72.78.307.176.664.264 1.07.264.264 0 .503-.037.716-.111.216-.077.402-.19.558-.341.156-.153.277-.344.362-.571l.972.273a2.149 2.149 0 0 1-.516.869 2.502 2.502 0 0 1-.895.58 3.325 3.325 0 0 1-1.197.204zm4.24-.136v-6.545h.972v.988h.068c.119-.324.335-.586.648-.788a1.9 1.9 0 0 1 1.056-.303 10.785 10.785 0 0 1 .529.017v1.023a3.27 3.27 0 0 0-.235-.038 2.284 2.284 0 0 0-.379-.03c-.318 0-.602.067-.852.2a1.468 1.468 0 0 0-.801 1.334V354h-1.006zm9.101-5.08-.903.256a1.689 1.689 0 0 0-.252-.439 1.217 1.217 0 0 0-.443-.358c-.187-.093-.427-.14-.72-.14-.401 0-.734.092-1.001.277-.265.181-.397.413-.397.694 0 .25.091.448.273.593.182.144.466.265.852.362l.972.238c.585.142 1.021.36 1.308.652.287.29.431.664.431 1.121 0 .375-.108.71-.324 1.006a2.16 2.16 0 0 1-.895.699c-.384.17-.83.255-1.338.255-.668 0-1.22-.145-1.658-.434-.437-.29-.714-.713-.831-1.27l.955-.239c.091.352.262.617.515.793.256.176.59.264 1.002.264.468 0 .841-.099 1.116-.298.279-.202.418-.443.418-.725a.763.763 0 0 0-.239-.571c-.159-.156-.403-.272-.733-.349l-1.091-.256c-.599-.142-1.04-.362-1.321-.66-.278-.302-.417-.678-.417-1.13 0-.369.103-.696.311-.98.21-.284.495-.507.856-.669a3.01 3.01 0 0 1 1.236-.243c.648 0 1.156.142 1.526.426.372.285.636.66.792 1.125zm6.935 5.233c-.415 0-.792-.078-1.13-.234a1.94 1.94 0 0 1-.805-.686c-.199-.301-.298-.665-.298-1.091 0-.375.073-.679.221-.912.148-.236.345-.42.592-.554.248-.133.52-.233.819-.298.301-.068.603-.122.907-.162.398-.051.721-.09.968-.115.25-.029.431-.075.545-.141.117-.065.175-.179.175-.341v-.034c0-.42-.115-.747-.345-.98-.228-.233-.573-.349-1.036-.349-.48 0-.856.105-1.129.315-.273.21-.465.435-.575.673l-.955-.341c.171-.397.398-.707.682-.929.287-.224.599-.38.937-.468a3.896 3.896 0 0 1 1.006-.137c.21 0 .452.026.725.077.275.048.541.149.796.303.259.153.473.385.644.694.17.31.256.725.256 1.245V354h-1.006v-.886h-.051a1.77 1.77 0 0 1-.341.456 1.973 1.973 0 0 1-.635.413c-.264.114-.587.17-.967.17zm.153-.903c.398 0 .733-.078 1.006-.234.275-.157.483-.358.622-.605.142-.248.213-.508.213-.78v-.921c-.043.051-.137.098-.281.141-.142.04-.307.075-.495.106a20.68 20.68 0 0 1-.963.128 3.91 3.91 0 0 0-.733.166 1.261 1.261 0 0 0-.545.337c-.137.148-.205.349-.205.605 0 .35.13.614.388.793.261.176.592.264.993.264zm5.688-3.188V354h-1.006v-6.545h.972v1.022h.085c.153-.332.386-.599.699-.801.312-.204.716-.307 1.21-.307.443 0 .831.091 1.163.273.333.179.591.452.776.818.185.364.277.824.277 1.381V354h-1.006v-4.091c0-.514-.133-.915-.4-1.202-.267-.289-.634-.434-1.1-.434-.321 0-.608.069-.861.209-.25.139-.447.342-.592.609-.145.267-.217.591-.217.971zm8.485 4.074c-.545 0-1.027-.137-1.444-.413-.418-.278-.745-.67-.98-1.176-.236-.509-.354-1.109-.354-1.803 0-.687.118-1.284.354-1.789.235-.506.563-.897.984-1.172.42-.276.906-.414 1.457-.414.426 0 .763.071 1.01.213.25.14.441.299.571.478.134.176.237.321.311.434h.086v-3.221h1.005V354h-.971v-1.006h-.12c-.074.12-.179.27-.315.452-.136.179-.331.34-.584.482-.253.139-.589.208-1.01.208zm.137-.903c.403 0 .744-.105 1.022-.315.279-.213.49-.507.635-.882.145-.378.218-.814.218-1.309 0-.488-.071-.916-.213-1.282-.143-.37-.353-.657-.631-.861-.279-.208-.622-.311-1.031-.311-.427 0-.782.109-1.066.328-.281.216-.493.51-.635.882a3.51 3.51 0 0 0-.208 1.244c0 .466.071.889.213 1.27.144.378.358.679.639.904.284.221.636.332 1.057.332zm12.686 3.222v-3.461h-.086c-.073.12-.179.27-.315.452-.136.179-.331.34-.584.482-.253.139-.589.208-1.01.208-.545 0-1.027-.137-1.444-.413-.418-.278-.745-.67-.98-1.176-.236-.509-.354-1.109-.354-1.803 0-.687.118-1.284.354-1.789.235-.506.564-.897.984-1.172.42-.276.906-.414 1.457-.414.427 0 .763.071 1.01.213.25.14.441.299.571.478.134.176.238.321.311.434h.12v-1.039h.971v9h-1.005zm-1.858-3.222c.403 0 .744-.105 1.022-.315.279-.213.491-.507.635-.882.145-.378.218-.814.218-1.309 0-.488-.071-.916-.213-1.282a1.864 1.864 0 0 0-.631-.861c-.278-.208-.622-.311-1.031-.311-.426 0-.782.109-1.066.328-.281.216-.493.51-.635.882a3.51 3.51 0 0 0-.208 1.244c0 .466.071.889.213 1.27.145.378.358.679.639.904.284.221.636.332 1.057.332zm8.829-1.909v-3.869h1.006V354h-1.006v-1.108h-.068a2.146 2.146 0 0 1-.716.848c-.324.23-.733.345-1.227.345-.409 0-.773-.089-1.091-.268a1.885 1.885 0 0 1-.75-.818c-.182-.367-.273-.829-.273-1.385v-4.159h1.006v4.09c0 .478.133.858.401 1.143.269.284.613.426 1.031.426.25 0 .504-.064.763-.192.261-.128.48-.324.656-.588.179-.264.268-.601.268-1.01zm5.592 2.812c-.63 0-1.174-.139-1.632-.417a2.808 2.808 0 0 1-1.052-1.176c-.245-.506-.367-1.094-.367-1.765 0-.67.122-1.261.367-1.772.247-.515.59-.915 1.031-1.202.443-.29.96-.435 1.551-.435.341 0 .678.057 1.01.171.332.113.635.298.908.554.272.253.49.588.652 1.005.162.418.242.932.242 1.543v.426h-5.045v-.869h4.023c0-.369-.074-.699-.222-.989a1.67 1.67 0 0 0-.622-.686 1.746 1.746 0 0 0-.946-.251c-.401 0-.747.099-1.04.298a1.96 1.96 0 0 0-.669.767 2.254 2.254 0 0 0-.234 1.014v.58c0 .494.085.913.255 1.257.174.341.414.601.721.78.306.176.663.264 1.069.264.264 0 .503-.037.716-.111.216-.077.402-.19.558-.341a1.55 1.55 0 0 0 .363-.571l.971.273a2.158 2.158 0 0 1-.515.869 2.52 2.52 0 0 1-.895.58 3.33 3.33 0 0 1-1.198.204zm8.877-5.216-.904.256a1.684 1.684 0 0 0-.251-.439 1.226 1.226 0 0 0-.443-.358c-.188-.093-.428-.14-.721-.14-.4 0-.734.092-1.001.277-.264.181-.396.413-.396.694 0 .25.091.448.272.593.182.144.466.265.853.362l.971.238c.586.142 1.022.36 1.309.652.287.29.43.664.43 1.121 0 .375-.108.71-.324 1.006a2.153 2.153 0 0 1-.895.699c-.383.17-.829.255-1.338.255-.667 0-1.22-.145-1.658-.434-.437-.29-.714-.713-.83-1.27l.954-.239c.091.352.263.617.516.793.255.176.589.264 1.001.264.469 0 .841-.099 1.117-.298.278-.202.417-.443.417-.725a.762.762 0 0 0-.238-.571c-.16-.156-.404-.272-.733-.349l-1.091-.256c-.6-.142-1.04-.362-1.321-.66-.279-.302-.418-.678-.418-1.13 0-.369.104-.696.311-.98.21-.284.496-.507.857-.669a3.001 3.001 0 0 1 1.235-.243c.648 0 1.157.142 1.526.426.372.285.636.66.793 1.125zm4.479-1.465v.852h-3.392v-.852h3.392zm-2.403-1.569h1.006v6.239c0 .284.041.497.123.639a.641.641 0 0 0 .324.281c.134.046.274.069.422.069.111 0 .202-.006.273-.017l.17-.035.205.904a2.2 2.2 0 0 1-.75.119c-.284 0-.563-.061-.835-.183a1.659 1.659 0 0 1-.674-.558c-.176-.25-.264-.566-.264-.946v-6.512zm3.916 8.114v-6.545h1.006V354h-1.006zm.512-7.636a.717.717 0 0 1-.508-.201.642.642 0 0 1-.208-.481c0-.188.069-.348.208-.482a.72.72 0 0 1 .508-.2.7.7 0 0 1 .502.2.639.639 0 0 1 .213.482.636.636 0 0 1-.213.481.697.697 0 0 1-.502.201zm4.995 7.772c-.591 0-1.109-.14-1.555-.422a2.856 2.856 0 0 1-1.04-1.18c-.247-.506-.371-1.097-.371-1.773 0-.681.124-1.277.371-1.785.25-.509.596-.904 1.04-1.185.446-.281.964-.422 1.555-.422s1.108.141 1.551.422c.446.281.793.676 1.04 1.185.25.508.375 1.104.375 1.785 0 .676-.125 1.267-.375 1.773a2.822 2.822 0 0 1-1.04 1.18c-.443.282-.96.422-1.551.422zm0-.903c.449 0 .818-.115 1.108-.345.29-.23.504-.533.643-.908.14-.375.209-.781.209-1.219 0-.437-.069-.845-.209-1.223a2.061 2.061 0 0 0-.643-.916c-.29-.233-.659-.349-1.108-.349-.449 0-.818.116-1.108.349-.29.233-.504.539-.643.916-.14.378-.209.786-.209 1.223 0 .438.069.844.209 1.219.139.375.353.678.643.908.29.23.659.345 1.108.345zm5.507-3.171V354h-1.006v-6.545h.972v1.022h.085c.153-.332.386-.599.699-.801.312-.204.716-.307 1.21-.307.443 0 .831.091 1.163.273.333.179.591.452.776.818.185.364.277.824.277 1.381V354h-1.006v-4.091c0-.514-.133-.915-.4-1.202-.267-.289-.634-.434-1.1-.434-.321 0-.608.069-.861.209-.25.139-.447.342-.592.609-.145.267-.217.591-.217.971zm10.65-1.142-.903.256a1.689 1.689 0 0 0-.252-.439 1.226 1.226 0 0 0-.443-.358c-.188-.093-.428-.14-.72-.14-.401 0-.735.092-1.002.277-.264.181-.396.413-.396.694 0 .25.091.448.273.593.182.144.466.265.852.362l.972.238c.585.142 1.021.36 1.308.652.287.29.43.664.43 1.121 0 .375-.108.71-.324 1.006a2.153 2.153 0 0 1-.895.699c-.383.17-.829.255-1.338.255-.667 0-1.22-.145-1.657-.434-.438-.29-.715-.713-.831-1.27l.954-.239c.091.352.263.617.516.793.256.176.589.264 1.001.264.469 0 .841-.099 1.117-.298.278-.202.417-.443.417-.725a.762.762 0 0 0-.238-.571c-.159-.156-.404-.272-.733-.349l-1.091-.256c-.599-.142-1.04-.362-1.321-.66-.278-.302-.418-.678-.418-1.13 0-.369.104-.696.311-.98.211-.284.496-.507.857-.669a3.01 3.01 0 0 1 1.236-.243c.647 0 1.156.142 1.525.426.372.285.637.66.793 1.125zm5.741 5.148a.736.736 0 0 1-.541-.226.736.736 0 0 1-.226-.541c0-.21.075-.39.226-.541a.736.736 0 0 1 .541-.226c.21 0 .391.075.541.226a.737.737 0 0 1 .226.541.726.726 0 0 1-.106.384.81.81 0 0 1-.277.281.735.735 0 0 1-.384.102zm3.273 0a.736.736 0 0 1-.541-.226.736.736 0 0 1-.226-.541c0-.21.075-.39.226-.541a.736.736 0 0 1 .541-.226c.21 0 .39.075.541.226a.737.737 0 0 1 .226.541.793.793 0 0 1-.384.665.73.73 0 0 1-.383.102zm3.272 0a.737.737 0 0 1-.541-.226.74.74 0 0 1-.226-.541c0-.21.076-.39.226-.541a.737.737 0 0 1 .541-.226c.211 0 .391.075.542.226.15.151.226.331.226.541a.801.801 0 0 1-.384.665.733.733 0 0 1-.384.102zm-109.35 27.568c0-1.065.14-2.044.422-2.936a8.455 8.455 0 0 1 1.265-2.48h1.453a5.404 5.404 0 0 0-.605 1.036 9.329 9.329 0 0 0-.49 1.338c-.136.483-.244.984-.324 1.504-.076.52-.115 1.033-.115 1.538 0 .674.067 1.355.2 2.046.137.69.32 1.331.55 1.922.233.588.494 1.069.784 1.444h-1.453a8.458 8.458 0 0 1-1.265-2.476c-.282-.894-.422-1.873-.422-2.936zm7.454 4.483c-.614 0-1.159-.105-1.637-.315a2.74 2.74 0 0 1-1.125-.878 2.278 2.278 0 0 1-.438-1.3h1.602c.014.236.092.442.234.618.142.174.331.309.567.405.236.097.5.145.793.145.312 0 .589-.054.831-.162.241-.111.43-.264.566-.46.137-.196.203-.422.201-.678a1.186 1.186 0 0 0-.205-.699 1.376 1.376 0 0 0-.605-.473c-.261-.113-.577-.17-.946-.17h-.771v-1.219h.771c.304 0 .569-.052.797-.157.23-.106.41-.253.541-.444.131-.193.195-.416.192-.669a1.166 1.166 0 0 0-.166-.643 1.13 1.13 0 0 0-.473-.431 1.56 1.56 0 0 0-.712-.153c-.267 0-.514.048-.742.145a1.35 1.35 0 0 0-.549.413c-.14.176-.213.387-.222.631h-1.521a2.21 2.21 0 0 1 .422-1.287 2.712 2.712 0 0 1 1.091-.869c.454-.21.964-.316 1.529-.316.583 0 1.088.11 1.517.329a2.47 2.47 0 0 1 1.002.873c.236.367.354.771.354 1.215.002.491-.142.903-.435 1.235-.29.333-.671.55-1.142.652v.069c.613.085 1.084.312 1.41.681.33.367.493.823.49 1.368 0 .489-.139.926-.417 1.313-.276.383-.656.684-1.142.903-.483.219-1.037.328-1.662.328zm8.264-9.255-2.813 10.448h-1.351l2.813-10.448h1.351zm4.099 9.255c-.614 0-1.159-.105-1.636-.315a2.727 2.727 0 0 1-1.125-.878 2.272 2.272 0 0 1-.439-1.3h1.602c.014.236.092.442.234.618.143.174.331.309.567.405.236.097.5.145.793.145.312 0 .589-.054.831-.162.241-.111.43-.264.567-.46.136-.196.203-.422.2-.678a1.172 1.172 0 0 0-.205-.699 1.376 1.376 0 0 0-.605-.473c-.261-.113-.577-.17-.946-.17h-.771v-1.219h.771c.304 0 .57-.052.797-.157.23-.106.411-.253.541-.444.131-.193.195-.416.192-.669a1.166 1.166 0 0 0-.166-.643 1.13 1.13 0 0 0-.473-.431 1.56 1.56 0 0 0-.712-.153c-.267 0-.514.048-.741.145a1.347 1.347 0 0 0-.55.413 1.054 1.054 0 0 0-.222.631h-1.521a2.21 2.21 0 0 1 .422-1.287 2.719 2.719 0 0 1 1.091-.869c.454-.21.964-.316 1.53-.316.582 0 1.088.11 1.517.329.432.215.765.507 1.001.873.236.367.354.771.354 1.215.003.491-.142.903-.435 1.235-.29.333-.67.55-1.142.652v.069c.614.085 1.084.312 1.411.681.329.367.493.823.49 1.368 0 .489-.14.926-.418 1.313-.275.383-.656.684-1.142.903-.483.219-1.037.328-1.662.328zm7.454-4.483c0 1.063-.142 2.042-.426 2.936a8.399 8.399 0 0 1-1.261 2.476h-1.453c.218-.281.42-.625.605-1.031.187-.406.349-.852.486-1.338.139-.486.247-.989.323-1.509a10.066 10.066 0 0 0-.085-3.579 10.898 10.898 0 0 0-.549-1.922c-.231-.591-.491-1.074-.78-1.449h1.453c.559.759.98 1.585 1.261 2.48.284.892.426 1.871.426 2.936z"/><defs><linearGradient id="b" x1="145.076" x2="145.076" y1="263.639" y2="275.2" gradientUnits="userSpaceOnUse"><stop stop-color="#FFDD85"/><stop offset="1" stop-color="#FCBC14"/></linearGradient><linearGradient id="d" x1="145.125" x2="145.125" y1="229.961" y2="242.369" gradientUnits="userSpaceOnUse"><stop stop-color="#FFDD85"/><stop offset="1" stop-color="#FCBC14"/></linearGradient><linearGradient id="e" x1="145.076" x2="145.076" y1="233.214" y2="244.775" gradientUnits="userSpaceOnUse"><stop stop-color="#FFDD85"/><stop offset="1" stop-color="#FCBC14"/></linearGradient><linearGradient id="g" x1="469.076" x2="469.076" y1="263.639" y2="275.2" gradientUnits="userSpaceOnUse"><stop stop-color="#FFDD85"/><stop offset="1" stop-color="#FCBC14"/></linearGradient><linearGradient id="i" x1="469.125" x2="469.125" y1="229.961" y2="242.369" gradientUnits="userSpaceOnUse"><stop stop-color="#FFDD85"/><stop offset="1" stop-color="#FCBC14"/></linearGradient><linearGradient id="j" x1="469.076" x2="469.076" y1="233.214" y2="244.775" gradientUnits="userSpaceOnUse"><stop stop-color="#FFDD85"/><stop offset="1" stop-color="#FCBC14"/></linearGradient><linearGradient id="l" x1="793.076" x2="793.076" y1="263.639" y2="275.2" gradientUnits="userSpaceOnUse"><stop stop-color="#FFDD85"/><stop offset="1" stop-color="#FCBC14"/></linearGradient><linearGradient id="n" x1="793.125" x2="793.125" y1="229.961" y2="242.369" gradientUnits="userSpaceOnUse"><stop stop-color="#FFDD85"/><stop offset="1" stop-color="#FCBC14"/></linearGradient><linearGradient id="o" x1="793.076" x2="793.076" y1="233.214" y2="244.775" gradientUnits="userSpaceOnUse"><stop stop-color="#FFDD85"/><stop offset="1" stop-color="#FCBC14"/></linearGradient></defs></svg>