<svg xmlns="http://www.w3.org/2000/svg" width="263" height="570" fill="none"><g clip-path="url(#a)"><rect width="262" height="570" x=".078" fill="#000501" rx="32"/><path fill="#000501" d="M.078 0H262.25v75.995H.078z"/><path fill="#fff" d="M28.653 12.817c1.706 0 3.19 1.213 3.19 4.092v.011c0 2.691-1.213 4.286-3.223 4.286-1.468 0-2.564-.87-2.819-2.093l-.01-.06h1.406l.016.055c.21.559.704.924 1.407.924 1.268 0 1.805-1.24 1.866-2.768 0-.061.006-.122.006-.183h-.111c-.294.631-.991 1.19-2.088 1.19-1.534 0-2.608-1.118-2.608-2.636v-.01c0-1.623 1.235-2.808 2.968-2.808Zm-.005 4.358c.902 0 1.594-.654 1.594-1.556v-.011c0-.914-.692-1.628-1.578-1.628a1.58 1.58 0 0 0-1.584 1.595v.01c0 .925.66 1.59 1.568 1.59Zm5.437-1.346a.864.864 0 0 1-.88-.875.86.86 0 0 1 .88-.875c.51 0 .88.382.88.875a.86.86 0 0 1-.88.875Zm0 4.11a.86.86 0 0 1-.88-.876.86.86 0 0 1 .88-.875c.51 0 .88.382.88.875a.858.858 0 0 1-.88.875Zm6.118 1.068v-1.534h-3.91v-1.168a106.44 106.44 0 0 1 3.256-5.289h2.022v5.278h1.074v1.179H41.57v1.534h-1.367Zm-2.58-2.68h2.602v-4.17h-.083a82.771 82.771 0 0 0-2.52 4.087v.083Zm8.061 2.68v-6.584h-.094l-1.988 1.406v-1.345l2.088-1.468h1.423v7.99h-1.429Z"/><path stroke="#fff" stroke-width=".704" d="M228.083 13.026h11.341a2.318 2.318 0 0 1 2.318 2.317v3.336a2.317 2.317 0 0 1-2.318 2.316h-11.341a2.316 2.316 0 0 1-2.316-2.316v-3.336a2.317 2.317 0 0 1 2.316-2.317Z" opacity=".35"/><path fill="#fff" d="M242.76 16.01v2.816a1.527 1.527 0 0 0 0-2.815" opacity=".4"/><path fill="#fff" d="M226.75 15.344c0-.737.597-1.335 1.334-1.335h11.341c.737 0 1.334.598 1.334 1.335v3.335c0 .737-.597 1.334-1.334 1.334h-11.341a1.334 1.334 0 0 1-1.334-1.334v-3.335Zm-13.265 4.058a2.501 2.501 0 0 1 3.281 0 .238.238 0 0 1 .077.172.237.237 0 0 1-.069.175l-1.483 1.527a.23.23 0 0 1-.33 0l-1.483-1.527a.238.238 0 0 1-.07-.175.238.238 0 0 1 .077-.172Zm-2.005-1.883a5.237 5.237 0 0 1 7.241 0 .246.246 0 0 1 .073.174.244.244 0 0 1-.069.173l-.857.885a.229.229 0 0 1-.323.004 3.602 3.602 0 0 0-2.445-.962 3.6 3.6 0 0 0-2.444.962.227.227 0 0 1-.322-.004l-.858-.885a.244.244 0 0 1-.069-.174c0-.065.027-.128.073-.173Zm-2.003-1.881a7.974 7.974 0 0 1 11.197 0 .249.249 0 0 1 .073.173.248.248 0 0 1-.071.173l-.858.884a.225.225 0 0 1-.321.002 6.35 6.35 0 0 0-4.421-1.803 6.347 6.347 0 0 0-4.421 1.803.224.224 0 0 1-.321-.002l-.86-.884a.245.245 0 0 1-.068-.173c0-.065.026-.128.071-.173Zm-10.745-.294c0-.369.298-.667.667-.667h.667c.368 0 .667.298.667.667v5.336a.667.667 0 0 1-.667.668h-.667a.667.667 0 0 1-.667-.668v-5.336Zm3.335-1.334c0-.369.299-.668.667-.668h.667c.369 0 .667.299.667.667v6.671a.667.667 0 0 1-.667.668h-.667a.667.667 0 0 1-.667-.668v-6.67Zm-6.671 3.668c0-.368.299-.667.667-.667h.667c.369 0 .667.299.667.668v3.002a.667.667 0 0 1-.667.667h-.667a.667.667 0 0 1-.667-.668v-3.002Zm-3.335 1.668c0-.368.298-.667.667-.667h.667c.368 0 .667.299.667.667v1.334a.667.667 0 0 1-.667.668h-.667a.667.667 0 0 1-.667-.668v-1.334Z"/><path fill="#000501" d="M.078 31.354H262.25v44.641H.078z"/><g clip-path="url(#b)"><rect width="27.901" height="27.9" x="11.238" y="39.724" fill="#1B211D" rx="13.95"/><path fill="#fff" d="M23.353 48.25a.697.697 0 0 1 .98.982l-.047.053-3.692 3.692h10.872l.071.003a.698.698 0 0 1 0 1.388l-.071.004H20.594l3.692 3.692.048.053a.697.697 0 0 1-.981.98l-.053-.047-4.883-4.883a.697.697 0 0 1 0-.986l4.883-4.883.053-.047Z"/></g><path fill="#fff" d="M12.274 102.328V86.813h5.94c1.121 0 2.053.177 2.795.53.748.349 1.306.826 1.674 1.432.374.606.561 1.293.561 2.06 0 .632-.121 1.172-.363 1.622a3.057 3.057 0 0 1-.978 1.083 4.147 4.147 0 0 1-1.371.599v.151c.55.03 1.078.2 1.583.508.51.303.927.732 1.25 1.288.324.555.485 1.227.485 2.015 0 .803-.194 1.525-.583 2.167-.389.636-.975 1.138-1.758 1.507-.782.369-1.767.553-2.954.553h-6.28Zm2.811-2.348h3.023c1.02 0 1.755-.195 2.204-.584.455-.394.682-.899.682-1.515a2.32 2.32 0 0 0-1.31-2.121c-.42-.217-.92-.326-1.5-.326h-3.099v4.546Zm0-6.569h2.78a3.13 3.13 0 0 0 1.311-.265c.389-.181.694-.437.917-.765.227-.333.34-.727.34-1.182 0-.6-.212-1.096-.636-1.484-.419-.39-1.043-.584-1.871-.584h-2.84v4.28Zm17.866 4.023v-6.742h2.742v11.636h-2.659v-2.068h-.121a3.5 3.5 0 0 1-1.296 1.598c-.596.415-1.33.622-2.204.622-.763 0-1.437-.17-2.023-.508-.58-.343-1.035-.841-1.364-1.492-.328-.657-.492-1.45-.492-2.38v-7.408h2.742v6.985c0 .737.203 1.323.607 1.757.404.434.934.652 1.59.652.405 0 .796-.099 1.175-.296.378-.197.69-.49.932-.879.247-.394.37-.886.37-1.477Zm6.627 9.258c-.374 0-.72-.031-1.038-.091a3.86 3.86 0 0 1-.75-.197l.636-2.136c.4.116.755.171 1.068.166a1.31 1.31 0 0 0 .826-.295c.243-.187.447-.5.614-.94l.235-.628-4.22-11.88h2.91l2.68 8.789h.122l2.69-8.788h2.916l-4.659 13.045a5.239 5.239 0 0 1-.864 1.584 3.52 3.52 0 0 1-1.318 1.015c-.515.237-1.131.356-1.848.356Zm18.917-4.159c-.914 0-1.733-.235-2.455-.705s-1.293-1.151-1.712-2.045c-.42-.894-.629-1.98-.629-3.258 0-1.293.212-2.384.637-3.273.429-.894 1.007-1.568 1.735-2.022a4.458 4.458 0 0 1 2.431-.69c.682 0 1.243.116 1.682.349.44.227.788.502 1.046.826.257.318.457.618.598.901h.114v-5.803h2.75v15.515h-2.697v-1.833h-.167a4.672 4.672 0 0 1-.614.901 3.373 3.373 0 0 1-1.06.803c-.44.223-.993.334-1.66.334Zm.765-2.25c.58 0 1.076-.157 1.485-.47.409-.318.72-.76.932-1.326.212-.565.318-1.224.318-1.977 0-.753-.106-1.407-.318-1.962-.208-.556-.516-.988-.925-1.296-.404-.308-.901-.462-1.492-.462-.611 0-1.121.16-1.53.477-.41.319-.718.758-.925 1.319-.207.56-.31 1.202-.31 1.924 0 .727.103 1.376.31 1.947.212.566.523 1.013.932 1.34.414.324.922.486 1.523.486Zm11.063 2.28c-.738 0-1.402-.131-1.993-.394a3.256 3.256 0 0 1-1.394-1.182c-.338-.52-.507-1.161-.507-1.924 0-.657.12-1.2.363-1.629a2.81 2.81 0 0 1 .993-1.03 5.01 5.01 0 0 1 1.416-.584c.53-.136 1.079-.234 1.644-.295.682-.07 1.235-.134 1.66-.19.424-.06.732-.15.924-.272.197-.126.295-.32.295-.583v-.046c0-.57-.17-1.012-.508-1.326-.338-.313-.825-.47-1.462-.47-.671 0-1.204.147-1.598.44-.389.293-.652.639-.788 1.038l-2.56-.364c.201-.707.535-1.298 1-1.772a4.35 4.35 0 0 1 1.704-1.076 6.53 6.53 0 0 1 2.227-.364c.56 0 1.119.066 1.674.197a4.711 4.711 0 0 1 1.523.652c.46.298.828.704 1.106 1.22.283.515.424 1.159.424 1.931v7.788H73.83v-1.598h-.09a3.353 3.353 0 0 1-.705.909 3.39 3.39 0 0 1-1.13.674c-.449.167-.976.25-1.582.25Zm.712-2.015c.55 0 1.028-.109 1.431-.326.405-.222.715-.515.932-.879a2.23 2.23 0 0 0 .334-1.19v-1.37c-.086.07-.233.136-.44.197-.202.06-.429.113-.682.159a18.8 18.8 0 0 1-.75.12l-.644.092a4.717 4.717 0 0 0-1.098.273 1.823 1.823 0 0 0-.765.53c-.187.222-.28.51-.28.864 0 .505.184.886.553 1.143.368.258.838.387 1.409.387Zm13.36-9.856v2.121h-6.69v-2.121h6.69Zm-5.038-2.788h2.742v10.924c0 .369.056.652.167.849a.903.903 0 0 0 .454.394c.187.07.394.106.622.106.171 0 .328-.013.47-.038.146-.026.257-.048.333-.068l.462 2.143a5.837 5.837 0 0 1-.629.167 5.11 5.11 0 0 1-.985.106c-.687.02-1.305-.083-1.856-.31a2.89 2.89 0 0 1-1.31-1.076c-.319-.485-.475-1.091-.47-1.818v-11.38Zm10.04 14.659c-.738 0-1.402-.131-1.993-.394a3.255 3.255 0 0 1-1.394-1.182c-.338-.52-.507-1.161-.507-1.924 0-.657.121-1.2.363-1.629.243-.43.574-.772.993-1.03a5.01 5.01 0 0 1 1.416-.584 11.53 11.53 0 0 1 1.644-.295c.682-.07 1.235-.134 1.66-.19.424-.06.732-.15.924-.272.197-.126.295-.32.295-.583v-.046c0-.57-.169-1.012-.507-1.326-.339-.313-.826-.47-1.462-.47-.672 0-1.205.147-1.599.44-.389.293-.651.639-.788 1.038l-2.56-.364c.202-.707.535-1.298 1-1.772a4.35 4.35 0 0 1 1.704-1.076 6.53 6.53 0 0 1 2.227-.364c.561 0 1.12.066 1.675.197a4.71 4.71 0 0 1 1.522.652c.46.298.829.704 1.106 1.22.283.515.425 1.159.425 1.931v7.788h-2.637v-1.598h-.09a3.353 3.353 0 0 1-.705.909 3.388 3.388 0 0 1-1.129.674c-.45.167-.977.25-1.583.25Zm.712-2.015c.55 0 1.028-.109 1.432-.326.404-.222.714-.515.931-.879a2.23 2.23 0 0 0 .334-1.19v-1.37c-.086.07-.233.136-.44.197a6.51 6.51 0 0 1-.681.159c-.253.045-.503.086-.75.12l-.644.092c-.41.055-.776.146-1.099.273a1.824 1.824 0 0 0-.765.53c-.187.222-.28.51-.28.864 0 .505.184.886.553 1.143.368.258.838.387 1.409.387Z"/><g clip-path="url(#c)"><path fill="#FFC403" d="M224.744 81.495h26.667v26.666h-26.667V81.495Z"/><path fill="#000" d="M236.598 93.254v3.044h-.833V94.59l-.556.822h-.436l-.611-.822v1.707h-.761v-3.044h.767l.878 1.193.787-1.193h.765Zm.24.69v-.69h2.843v.69h-.996v2.354h-.848v-2.355h-.999Zm5.974-.69v3.044h-.699l-1.431-1.74v1.74h-.761v-3.044h.758l1.369 1.678v-1.678h.764Z"/><path fill="#000" d="M238.077 99.478c-2.458 0-4.777-.458-6.527-1.294-1.83-.875-2.839-2.065-2.839-3.356 0-1.29 1.009-2.481 2.839-3.356 1.75-.836 4.069-1.294 6.527-1.294 2.459 0 4.778.458 6.527 1.294 1.831.875 2.839 2.065 2.839 3.356s-1.008 2.481-2.839 3.356c-1.749.836-4.068 1.294-6.527 1.294Zm0-8.614c-2.361 0-4.572.436-6.231 1.23-1.577.754-2.448 1.726-2.448 2.737 0 1.012.868 1.984 2.448 2.735 1.659.794 3.874 1.23 6.231 1.23 2.358 0 4.573-.436 6.231-1.23 1.577-.75 2.449-1.727 2.449-2.735 0-1.008-.868-1.983-2.449-2.735-1.658-.796-3.87-1.232-6.231-1.232Z"/></g><path fill="#96A396" d="M11.195 117.603v-.729h5.09v.729h-2.134v6.059h-.822v-6.059h-2.134Zm7.677 6.165c-.46 0-.863-.11-1.21-.328a2.229 2.229 0 0 1-.809-.919c-.192-.393-.288-.852-.288-1.378 0-.531.096-.994.288-1.389.194-.396.464-.703.809-.921.347-.219.75-.329 1.21-.329.46 0 .861.11 1.206.329.347.218.617.525.809.921.194.395.291.858.291 1.389 0 .526-.097.985-.291 1.378-.192.394-.462.7-.809.919a2.21 2.21 0 0 1-1.206.328Zm0-.703c.349 0 .636-.089.861-.268.226-.179.392-.415.5-.706.11-.292.163-.608.163-.948 0-.341-.054-.658-.162-.952a1.605 1.605 0 0 0-.5-.712c-.226-.181-.513-.272-.862-.272-.35 0-.637.091-.862.272a1.605 1.605 0 0 0-.5.712 2.734 2.734 0 0 0-.163.952c0 .34.054.656.162.948.109.291.275.527.5.706.226.179.513.268.863.268Z"/><path fill="#16CB3E" d="M27.385 123.754c-.5 0-.925-.135-1.276-.407-.352-.274-.62-.671-.806-1.19-.185-.522-.278-1.151-.278-1.889 0-.734.093-1.36.278-1.88.188-.521.458-.919.81-1.193.353-.276.777-.414 1.272-.414s.918.138 1.27.414c.353.274.622.672.808 1.193.188.52.282 1.146.282 1.88 0 .738-.093 1.367-.279 1.889-.185.519-.454.916-.805 1.19-.352.272-.777.407-1.276.407Zm0-.729c.495 0 .88-.238 1.153-.716.274-.477.411-1.157.411-2.041 0-.588-.063-1.089-.189-1.502-.123-.413-.302-.728-.537-.944a1.184 1.184 0 0 0-.838-.325c-.49 0-.874.242-1.15.726-.276.481-.415 1.163-.415 2.045 0 .587.062 1.087.186 1.498.124.411.302.723.534.938.234.214.516.321.845.321Zm5.887.729c-.456 0-.858-.08-1.207-.242a1.972 1.972 0 0 1-.812-.672 1.694 1.694 0 0 1-.288-.981 1.804 1.804 0 0 1 .64-1.409c.2-.166.425-.271.672-.315v-.04a1.31 1.31 0 0 1-.775-.547 1.654 1.654 0 0 1-.285-.964 1.64 1.64 0 0 1 .262-.925 1.84 1.84 0 0 1 .729-.643 2.332 2.332 0 0 1 1.064-.235c.393 0 .744.078 1.054.235.309.157.552.371.729.643.179.272.27.58.272.925-.003.36-.1.682-.295.964a1.308 1.308 0 0 1-.766.547v.04c.245.044.466.149.663.315.197.163.353.368.47.613.118.243.177.508.18.796a1.717 1.717 0 0 1-.299.981 1.971 1.971 0 0 1-.812.672c-.345.162-.743.242-1.196.242Zm0-.729c.307 0 .572-.049.795-.149a1.18 1.18 0 0 0 .517-.421c.122-.181.184-.393.186-.636a1.225 1.225 0 0 0-.199-.68 1.357 1.357 0 0 0-.534-.464 1.684 1.684 0 0 0-.765-.169c-.29 0-.548.057-.776.169a1.357 1.357 0 0 0-.534.464 1.2 1.2 0 0 0-.188.68 1.11 1.11 0 0 0 .175.636c.122.181.295.322.52.421.226.1.493.149.803.149Zm0-3.221c.243 0 .458-.049.646-.146.19-.097.34-.233.447-.408a1.16 1.16 0 0 0 .166-.613 1.132 1.132 0 0 0-.162-.6 1.058 1.058 0 0 0-.441-.398 1.436 1.436 0 0 0-.656-.142c-.254 0-.477.047-.666.142-.19.093-.337.226-.441.398-.104.17-.155.37-.153.6-.002.234.05.439.156.613.108.175.257.311.447.408.19.097.41.146.657.146Zm5.884 3.95c-.5 0-.925-.135-1.276-.407-.351-.274-.62-.671-.805-1.19-.186-.522-.279-1.151-.279-1.889 0-.734.093-1.36.279-1.88.188-.521.457-.919.808-1.193.354-.276.778-.414 1.273-.414.495 0 .918.138 1.27.414.353.274.623.672.808 1.193.188.52.282 1.146.282 1.88 0 .738-.093 1.367-.278 1.889-.186.519-.455.916-.806 1.19-.351.272-.776.407-1.276.407Zm0-.729c.495 0 .88-.238 1.154-.716.273-.477.41-1.157.41-2.041 0-.588-.063-1.089-.188-1.502-.124-.413-.303-.728-.537-.944a1.184 1.184 0 0 0-.839-.325c-.49 0-.874.242-1.15.726-.276.481-.414 1.163-.414 2.045 0 .587.062 1.087.185 1.498.124.411.302.723.534.938.234.214.516.321.845.321Zm6.006.729c-.437 0-.827-.075-1.17-.225a2.005 2.005 0 0 1-.812-.626 1.688 1.688 0 0 1-.325-.938h.836a.986.986 0 0 0 .225.566 1.3 1.3 0 0 0 .52.365c.215.086.452.129.713.129.292 0 .55-.051.776-.152.225-.102.402-.243.53-.424.128-.182.192-.392.192-.63 0-.25-.062-.47-.185-.66a1.236 1.236 0 0 0-.544-.451c-.239-.108-.53-.162-.875-.162h-.544v-.729h.544c.27 0 .506-.049.71-.146a1.101 1.101 0 0 0 .656-1.034c0-.23-.051-.43-.153-.6a1.045 1.045 0 0 0-.43-.398 1.395 1.395 0 0 0-.65-.142 1.71 1.71 0 0 0-.663.129 1.238 1.238 0 0 0-.504.368.958.958 0 0 0-.212.577H43c.014-.356.12-.668.322-.935.2-.27.464-.479.789-.63.327-.15.686-.225 1.077-.225.42 0 .78.085 1.08.255.3.168.532.39.693.666.161.277.242.575.242.895 0 .382-.1.708-.302.978a1.53 1.53 0 0 1-.812.56v.053c.429.071.764.253 1.005.547.24.292.36.653.36 1.084 0 .369-.1.7-.3.994-.2.292-.471.522-.816.69a2.665 2.665 0 0 1-1.177.251Zm6.036 0a2.89 2.89 0 0 1-1.17-.225 2.004 2.004 0 0 1-.812-.626 1.686 1.686 0 0 1-.324-.938h.835a.986.986 0 0 0 .225.566 1.3 1.3 0 0 0 .52.365c.215.086.452.129.713.129.292 0 .55-.051.776-.152.225-.102.402-.243.53-.424.128-.182.192-.392.192-.63 0-.25-.062-.47-.185-.66a1.236 1.236 0 0 0-.544-.451c-.239-.108-.53-.162-.875-.162h-.544v-.729h.544c.27 0 .506-.049.71-.146a1.101 1.101 0 0 0 .656-1.034c0-.23-.051-.43-.153-.6a1.044 1.044 0 0 0-.43-.398 1.395 1.395 0 0 0-.65-.142 1.71 1.71 0 0 0-.663.129 1.237 1.237 0 0 0-.504.368.957.957 0 0 0-.212.577h-.796c.014-.356.12-.668.322-.935.201-.27.464-.479.789-.63.327-.15.686-.225 1.077-.225.42 0 .78.085 1.08.255.3.168.532.39.693.666.161.277.242.575.242.895 0 .382-.1.708-.302.978-.198.27-.47.456-.812.56v.053c.43.071.764.253 1.005.547.24.292.36.653.36 1.084 0 .369-.1.7-.3.994-.2.292-.471.522-.816.69a2.665 2.665 0 0 1-1.177.251Zm5.957 0c-.5 0-.925-.135-1.276-.407-.351-.274-.62-.671-.806-1.19-.185-.522-.278-1.151-.278-1.889 0-.734.093-1.36.278-1.88.188-.521.458-.919.81-1.193.353-.276.777-.414 1.272-.414s.918.138 1.27.414c.353.274.622.672.808 1.193.188.52.282 1.146.282 1.88 0 .738-.093 1.367-.279 1.889-.185.519-.454.916-.805 1.19-.351.272-.777.407-1.276.407Zm0-.729c.495 0 .88-.238 1.153-.716.274-.477.411-1.157.411-2.041 0-.588-.063-1.089-.189-1.502-.123-.413-.302-.728-.537-.944a1.183 1.183 0 0 0-.838-.325c-.49 0-.874.242-1.15.726-.276.481-.415 1.163-.415 2.045 0 .587.062 1.087.186 1.498.124.411.302.723.534.938.234.214.516.321.845.321Zm5.887.729a2.84 2.84 0 0 1-1.207-.242 1.971 1.971 0 0 1-.812-.672 1.693 1.693 0 0 1-.288-.981 1.803 1.803 0 0 1 .64-1.409c.2-.166.425-.271.672-.315v-.04a1.309 1.309 0 0 1-.775-.547 1.653 1.653 0 0 1-.285-.964 1.64 1.64 0 0 1 .262-.925 1.84 1.84 0 0 1 .729-.643 2.332 2.332 0 0 1 1.064-.235c.393 0 .744.078 1.054.235.31.157.552.371.729.643.179.272.27.58.272.925-.002.36-.1.682-.295.964a1.307 1.307 0 0 1-.766.547v.04c.245.044.466.149.663.315.197.163.353.368.47.613.118.243.177.508.18.796a1.718 1.718 0 0 1-.299.981 1.972 1.972 0 0 1-.812.672c-.344.162-.743.242-1.196.242Zm0-.729c.307 0 .572-.049.795-.149a1.18 1.18 0 0 0 .517-.421c.122-.181.184-.393.186-.636a1.224 1.224 0 0 0-.199-.68 1.357 1.357 0 0 0-.534-.464 1.685 1.685 0 0 0-.765-.169c-.29 0-.548.057-.776.169a1.356 1.356 0 0 0-.533.464 1.2 1.2 0 0 0-.19.68 1.11 1.11 0 0 0 .176.636c.122.181.295.322.52.421.226.1.493.149.803.149Zm0-3.221c.243 0 .458-.049.646-.146.19-.097.34-.233.447-.408.109-.174.164-.379.166-.613a1.13 1.13 0 0 0-.162-.6 1.057 1.057 0 0 0-.441-.398 1.435 1.435 0 0 0-.656-.142c-.254 0-.476.047-.666.142-.19.093-.337.226-.441.398-.104.17-.155.37-.153.6-.002.234.05.439.156.613.108.175.258.311.447.408.19.097.41.146.657.146Zm3.882 3.858 3.036-6.006v-.053h-3.5v-.729h4.349v.769l-3.023 6.019h-.862Zm7.251.092c-.455 0-.857-.08-1.206-.242a1.971 1.971 0 0 1-.812-.672 1.693 1.693 0 0 1-.289-.981 1.804 1.804 0 0 1 .64-1.409c.201-.166.425-.271.673-.315v-.04a1.309 1.309 0 0 1-.776-.547 1.653 1.653 0 0 1-.285-.964 1.64 1.64 0 0 1 .262-.925c.177-.272.42-.486.73-.643a2.332 2.332 0 0 1 1.063-.235c.393 0 .745.078 1.054.235.31.157.552.371.73.643.178.272.269.58.271.925-.002.36-.1.682-.295.964a1.307 1.307 0 0 1-.766.547v.04c.246.044.467.149.663.315.197.163.354.368.47.613.118.243.178.508.18.796a1.718 1.718 0 0 1-.298.981 1.971 1.971 0 0 1-.813.672c-.344.162-.743.242-1.196.242Zm0-.729c.307 0 .572-.049.796-.149.223-.099.395-.24.517-.421.121-.181.183-.393.185-.636a1.225 1.225 0 0 0-.199-.68 1.357 1.357 0 0 0-.533-.464 1.685 1.685 0 0 0-.766-.169c-.29 0-.548.057-.775.169a1.356 1.356 0 0 0-.534.464 1.2 1.2 0 0 0-.19.68 1.11 1.11 0 0 0 .177.636c.121.181.295.322.52.421.225.1.493.149.802.149Zm0-3.221c.243 0 .459-.049.646-.146.19-.097.34-.233.448-.408a1.16 1.16 0 0 0 .165-.613 1.13 1.13 0 0 0-.162-.6 1.057 1.057 0 0 0-.44-.398 1.436 1.436 0 0 0-.657-.142c-.254 0-.476.047-.666.142-.19.093-.337.226-.441.398-.104.17-.155.37-.152.6-.003.234.05.439.155.613.109.175.258.311.448.408.19.097.409.146.656.146Zm5.792 3.95c-.39 0-.74-.077-1.051-.232a1.942 1.942 0 0 1-.75-.636 1.736 1.736 0 0 1-.307-.921h.795c.031.307.17.561.418.762.25.199.548.298.895.298a1.389 1.389 0 0 0 1.256-.732c.126-.23.189-.49.189-.779 0-.296-.066-.56-.196-.792a1.44 1.44 0 0 0-1.302-.759 2.139 2.139 0 0 0-.64.096 1.792 1.792 0 0 0-.54.248l-.77-.092.412-3.341h3.526v.729h-2.837l-.239 2.002h.04a1.76 1.76 0 0 1 .524-.275c.21-.073.429-.11.656-.11.416 0 .786.1 1.11.299.328.196.584.466.77.808.187.343.281.734.281 1.174 0 .433-.097.819-.291 1.16a2.135 2.135 0 0 1-.796.802 2.276 2.276 0 0 1-1.153.291Zm5.811-6.973c.279.002.557.055.835.159.279.104.533.276.763.517.23.239.414.565.553.978.14.413.209.931.209 1.554 0 .603-.058 1.139-.172 1.608a3.656 3.656 0 0 1-.49 1.18 2.18 2.18 0 0 1-.776.729 2.101 2.101 0 0 1-1.028.248c-.38 0-.72-.075-1.017-.225a1.989 1.989 0 0 1-.73-.633 2.208 2.208 0 0 1-.36-.945h.808c.073.312.218.569.434.773.219.201.507.301.865.301.524 0 .937-.228 1.24-.686.305-.457.457-1.104.457-1.939h-.053c-.124.186-.27.346-.44.481a1.985 1.985 0 0 1-1.23.421c-.39 0-.746-.096-1.071-.289a2.182 2.182 0 0 1-.776-.798 2.334 2.334 0 0 1-.288-1.167c0-.415.093-.795.279-1.14a2.15 2.15 0 0 1 .788-.829c.34-.205.74-.305 1.2-.298Zm0 .729c-.278 0-.529.07-.752.209a1.504 1.504 0 0 0-.527.557 1.568 1.568 0 0 0-.192.772c0 .283.061.54.185.772a1.391 1.391 0 0 0 1.26.753c.21 0 .405-.041.586-.123.181-.084.34-.198.474-.341.137-.146.244-.311.322-.494a1.52 1.52 0 0 0-.076-1.326 1.52 1.52 0 0 0-.524-.563 1.353 1.353 0 0 0-.756-.216Z"/><path stroke="#16CB3E" stroke-linecap="round" stroke-linejoin="round" stroke-width=".667" d="M100.744 117.55c0 .982.796 1.778 1.778 1.778m-6.666 4.889.275-1.378c.063-.314.094-.471.152-.617.05-.13.117-.253.196-.368.09-.129.204-.242.43-.468l4.28-4.28c.242-.243.363-.364.494-.429a.89.89 0 0 1 .789 0c.131.065.252.186.495.429v0c.242.242.363.363.428.494a.89.89 0 0 1 0 .789c-.065.131-.186.252-.428.494l-4.28 4.28c-.227.227-.34.34-.469.43a1.76 1.76 0 0 1-.368.197c-.146.057-.303.088-.617.151l-1.377.276Z"/><g filter="url(#d)"><g clip-path="url(#e)"><path fill="#1B211D" d="M10.744 154.328c0-5.891 4.776-10.666 10.667-10.666h219.333c5.891 0 10.667 4.775 10.667 10.666v298.667c0 5.891-4.776 10.667-10.667 10.667H21.411c-5.891 0-10.667-4.776-10.667-10.667V154.328Z"/><g clip-path="url(#f)"><path fill="#fff" d="M25.1 160.404v7.758h-1.174v-6.584h-.046l-1.856 1.212v-1.121l1.936-1.265h1.14Zm5.042 0v7.758h-1.174v-6.584h-.046l-1.856 1.212v-1.121l1.936-1.265h1.14Zm4.799 7.886c-.599-.002-1.11-.16-1.534-.473-.424-.313-.749-.769-.974-1.368-.224-.598-.337-1.319-.337-2.162 0-.841.113-1.56.337-2.156.228-.596.553-1.05.978-1.363.426-.313.936-.47 1.53-.47.593 0 1.102.158 1.526.473.425.314.75.768.974 1.364.227.594.34 1.311.34 2.152 0 .846-.111 1.568-.336 2.166-.225.596-.55 1.052-.974 1.368-.424.313-.934.469-1.53.469Zm0-1.011c.525 0 .936-.256 1.231-.769.298-.513.447-1.254.447-2.223 0-.644-.068-1.189-.205-1.633-.133-.447-.327-.785-.58-1.015a1.27 1.27 0 0 0-.893-.349c-.523 0-.933.258-1.231.773-.298.515-.448 1.256-.45 2.224 0 .646.066 1.193.2 1.64.136.444.33.781.58 1.011.25.227.55.341.9.341Zm7.114-6.875h1.42l2.47 6.03h.09l2.47-6.03h1.42v7.758h-1.113v-5.614h-.072l-2.288 5.602h-.924l-2.288-5.606h-.072v5.618h-1.113v-7.758Zm9.572 7.758v-7.758h2.841c.55 0 1.007.091 1.368.273.36.179.631.423.81.731.18.305.27.65.27 1.034 0 .323-.06.596-.179.818-.118.22-.277.397-.477.53a2.074 2.074 0 0 1-.651.288v.076c.257.013.508.096.753.25.248.152.452.367.614.648.162.28.242.621.242 1.022 0 .397-.093.753-.28 1.069-.184.313-.47.562-.856.746-.386.182-.88.273-1.481.273h-2.974Zm1.171-1.004h1.69c.56 0 .962-.109 1.204-.326a1.05 1.05 0 0 0 .364-.814 1.281 1.281 0 0 0-.716-1.163 1.702 1.702 0 0 0-.811-.182h-1.731v2.485Zm0-3.398h1.568c.263 0 .499-.05.709-.151a1.24 1.24 0 0 0 .503-.425c.127-.184.19-.401.19-.651 0-.321-.113-.59-.337-.807-.225-.217-.57-.326-1.035-.326h-1.598v2.36Zm11.31-1.417v.91H60.82v-.91h3.288Zm-2.387 5.819v-6.493c0-.363.08-.665.239-.905a1.46 1.46 0 0 1 .633-.542 2.02 2.02 0 0 1 .855-.182c.228 0 .422.019.584.057.162.036.281.068.36.099l-.265.916c-.053-.015-.122-.032-.205-.053a1.198 1.198 0 0 0-.303-.034c-.275 0-.472.068-.59.205-.117.136-.175.333-.175.591v6.341H61.72Zm5.777.117c-.546 0-1.022-.125-1.428-.375a2.53 2.53 0 0 1-.947-1.049c-.225-.45-.337-.975-.337-1.576 0-.603.112-1.131.337-1.583.224-.452.54-.803.947-1.053.406-.25.882-.375 1.428-.375.545 0 1.021.125 1.428.375.406.25.722.601.947 1.053.224.452.337.98.337 1.583 0 .601-.112 1.126-.337 1.576a2.53 2.53 0 0 1-.947 1.049c-.407.25-.883.375-1.428.375Zm.004-.951c.353 0 .646-.093.878-.28.233-.187.404-.436.516-.746.113-.311.17-.653.17-1.027 0-.371-.057-.712-.17-1.022a1.66 1.66 0 0 0-.516-.754c-.232-.19-.525-.284-.878-.284-.356 0-.652.094-.887.284-.232.189-.405.44-.519.754-.11.31-.166.651-.166 1.022 0 .374.055.716.166 1.027.114.31.287.559.52.746.234.187.53.28.886.28Zm3.972.834v-5.819h1.095v.925h.06c.106-.313.293-.56.561-.739.27-.182.576-.273.917-.273a4.951 4.951 0 0 1 .48.027v1.083a2.364 2.364 0 0 0-.242-.042 2.404 2.404 0 0 0-.348-.026c-.268 0-.507.057-.716.17a1.276 1.276 0 0 0-.674 1.141v3.553h-1.133Zm9.845-7.758v7.758h-1.174v-6.584h-.046l-1.856 1.212v-1.121l1.936-1.265h1.14Zm7.114 7.871c-.47 0-.889-.12-1.257-.36-.366-.242-.654-.587-.864-1.034-.207-.449-.31-.988-.31-1.617s.104-1.167.314-1.614c.212-.447.502-.789.871-1.026a2.26 2.26 0 0 1 1.254-.356c.361 0 .651.06.871.181.222.119.394.258.515.417a3.4 3.4 0 0 1 .288.421h.068v-2.883h1.133v7.758H90.21v-.906h-.095a3.037 3.037 0 0 1-.295.425c-.126.159-.3.298-.523.416-.222.119-.51.178-.864.178Zm.25-.966c.326 0 .601-.086.826-.257.227-.174.4-.416.515-.724.119-.308.178-.666.178-1.075 0-.405-.058-.758-.174-1.061a1.556 1.556 0 0 0-.511-.708c-.225-.17-.503-.254-.834-.254-.34 0-.625.088-.852.265a1.623 1.623 0 0 0-.515.723c-.114.306-.17.651-.17 1.035 0 .388.058.738.174 1.049.116.31.288.557.515.738.23.18.513.269.848.269Zm5.943.981c-.37 0-.702-.068-1-.204a1.689 1.689 0 0 1-.709-.602c-.171-.263-.257-.585-.257-.966 0-.329.063-.599.19-.811.125-.212.296-.38.51-.504a2.69 2.69 0 0 1 .72-.28 7.22 7.22 0 0 1 .81-.144l.85-.098c.216-.028.374-.072.473-.133.098-.061.148-.159.148-.295v-.027c0-.331-.094-.587-.28-.769-.185-.182-.46-.273-.827-.273-.38 0-.681.085-.901.254a1.358 1.358 0 0 0-.45.557l-1.065-.242c.126-.354.31-.639.553-.857.245-.219.526-.378.844-.477a3.297 3.297 0 0 1 1.004-.151c.233 0 .479.027.739.083.263.053.508.152.735.295.23.144.418.35.564.618.147.265.22.61.22 1.034v3.864H96.39v-.796h-.046a1.598 1.598 0 0 1-.33.432 1.75 1.75 0 0 1-.564.352c-.23.094-.505.14-.825.14Zm.246-.909c.313 0 .58-.062.803-.185.225-.124.395-.286.511-.485.119-.202.178-.418.178-.648v-.75a.59.59 0 0 1-.235.114 3.55 3.55 0 0 1-.39.087 32.31 32.31 0 0 1-.428.064l-.348.046a2.8 2.8 0 0 0-.602.14c-.18.066-.324.16-.432.284a.71.71 0 0 0-.16.485c0 .28.104.492.311.636.207.142.471.212.792.212Zm4.64 2.962c-.168 0-.322-.013-.461-.041a1.394 1.394 0 0 1-.31-.084l.272-.928a1.8 1.8 0 0 0 .553.072.662.662 0 0 0 .428-.181c.126-.114.237-.3.333-.557l.14-.387-2.128-5.894h1.212l1.473 4.516h.061l1.473-4.516h1.216l-2.397 6.595a2.652 2.652 0 0 1-.425.769 1.642 1.642 0 0 1-.613.477 2.012 2.012 0 0 1-.826.159Z"/><path fill="#96A396" d="M27.388 177.802v.568h-5.796v-.568h5.796Zm0 1.227v.568h-5.796v-.568h5.796Zm-.591-3.352v5.818h-.682l-3.17-4.568h-.057v4.568h-.705v-5.818h.682l3.182 4.579h.057v-4.579h.693Zm3.418 0v5.818h-.705v-5.079h-.034l-1.42.943v-.716l1.454-.966h.705Zm3.57 5.898c-.427 0-.792-.117-1.093-.35-.301-.235-.531-.575-.69-1.02-.16-.447-.24-.986-.24-1.619 0-.629.08-1.166.24-1.611.16-.447.392-.788.693-1.022a1.718 1.718 0 0 1 1.09-.356c.425 0 .788.119 1.089.356.303.234.534.575.693 1.022.16.445.241.982.241 1.611 0 .633-.08 1.172-.238 1.619-.16.445-.39.785-.69 1.02-.302.233-.666.35-1.094.35Zm0-.625c.425 0 .754-.205.99-.614.234-.409.352-.992.352-1.75 0-.504-.054-.933-.162-1.287-.106-.354-.26-.624-.46-.81a1.018 1.018 0 0 0-.72-.278c-.42 0-.748.207-.985.622-.237.413-.355.997-.355 1.753 0 .504.053.932.159 1.284.106.352.258.62.457.804.201.184.442.276.725.276Zm5 .625c-.427 0-.792-.117-1.093-.35-.301-.235-.531-.575-.69-1.02-.16-.447-.24-.986-.24-1.619 0-.629.08-1.166.24-1.611.16-.447.392-.788.693-1.022a1.718 1.718 0 0 1 1.09-.356c.425 0 .788.119 1.089.356.303.234.534.575.693 1.022.16.445.241.982.241 1.611 0 .633-.08 1.172-.238 1.619-.16.445-.39.785-.69 1.02-.302.233-.666.35-1.094.35Zm0-.625c.425 0 .754-.205.99-.614.234-.409.352-.992.352-1.75 0-.504-.054-.933-.162-1.287-.106-.354-.26-.624-.46-.81a1.018 1.018 0 0 0-.72-.278c-.42 0-.748.207-.985.622-.237.413-.355.997-.355 1.753 0 .504.053.932.159 1.284.106.352.258.62.457.804.201.184.442.276.725.276Z"/></g><rect width="14.667" height="14.667" x="217.411" y="162.995" stroke="#16CB3E" stroke-width="1.333" rx="7.333"/><g clip-path="url(#g)"><path fill="#fff" d="M24.718 221.601c-.475 0-.902-.091-1.28-.273a2.32 2.32 0 0 1-.902-.757 2.002 2.002 0 0 1-.36-1.099h1.136c.028.334.176.608.443.822.268.215.589.322.963.322.297 0 .561-.068.791-.204a1.47 1.47 0 0 0 .546-.572c.133-.243.2-.519.2-.83 0-.315-.068-.597-.204-.844a1.512 1.512 0 0 0-.565-.584 1.603 1.603 0 0 0-.818-.216c-.235 0-.47.041-.708.122-.238.08-.43.186-.576.318l-1.072-.159.436-3.909h4.265v1.003H23.72l-.246 2.171h.045a1.81 1.81 0 0 1 .603-.368 2.22 2.22 0 0 1 .81-.147 2.372 2.372 0 0 1 2.137 1.257c.214.387.32.831.318 1.334.002.502-.111.95-.341 1.344a2.467 2.467 0 0 1-.947.932c-.402.225-.862.337-1.383.337Zm6.754.023c-.598-.003-1.11-.16-1.534-.474-.424-.313-.749-.769-.973-1.367-.225-.598-.337-1.319-.337-2.163 0-.841.112-1.559.337-2.155.227-.596.553-1.051.977-1.364.427-.313.937-.47 1.53-.47.594 0 1.102.158 1.527.474.424.313.748.768.973 1.364.227.593.341 1.31.341 2.151 0 .846-.112 1.568-.337 2.167-.225.596-.55 1.052-.974 1.367-.424.313-.934.47-1.53.47Zm0-1.011c.525 0 .936-.257 1.231-.769.298-.513.447-1.254.447-2.224 0-.644-.068-1.188-.204-1.632-.134-.447-.327-.786-.58-1.016a1.269 1.269 0 0 0-.894-.348c-.523 0-.933.257-1.23.773-.299.515-.45 1.256-.452 2.223 0 .647.067 1.193.201 1.64.137.445.33.782.58 1.012.25.227.55.341.901.341Zm6.886 1.011c-.599-.003-1.11-.16-1.534-.474-.425-.313-.75-.769-.974-1.367-.225-.598-.337-1.319-.337-2.163 0-.841.112-1.559.337-2.155.227-.596.553-1.051.977-1.364.427-.313.937-.47 1.53-.47.594 0 1.103.158 1.527.474.424.313.749.768.974 1.364.227.593.34 1.31.34 2.151 0 .846-.112 1.568-.337 2.167-.224.596-.549 1.052-.973 1.367-.424.313-.934.47-1.53.47Zm0-1.011c.525 0 .935-.257 1.23-.769.299-.513.448-1.254.448-2.224 0-.644-.069-1.188-.205-1.632-.134-.447-.327-.786-.58-1.016a1.27 1.27 0 0 0-.893-.348c-.523 0-.933.257-1.231.773-.298.515-.449 1.256-.451 2.223 0 .647.067 1.193.2 1.64.137.445.33.782.58 1.012.25.227.55.341.902.341Zm4.29-6.875h1.42l2.47 6.03h.091l2.47-6.03h1.42v7.757h-1.113v-5.614h-.072l-2.288 5.603h-.924l-2.288-5.606h-.072v5.617h-1.114v-7.757Zm9.573 7.757v-7.757h2.841c.55 0 1.007.09 1.368.272.36.18.63.423.81.731.18.306.27.651.27 1.034 0 .324-.06.596-.179.819a1.472 1.472 0 0 1-.477.53 2.119 2.119 0 0 1-.652.288v.076c.258.012.51.096.754.25.248.151.452.367.614.647.161.281.242.621.242 1.023 0 .396-.093.753-.28 1.068-.184.313-.47.562-.856.746-.387.182-.88.273-1.481.273H52.22Zm1.17-1.004h1.69c.56 0 .962-.108 1.205-.325a1.05 1.05 0 0 0 .363-.815c0-.245-.062-.47-.185-.674a1.33 1.33 0 0 0-.53-.489 1.702 1.702 0 0 0-.811-.182h-1.731v2.485Zm0-3.397h1.569c.262 0 .499-.051.708-.152a1.24 1.24 0 0 0 .504-.424c.126-.184.19-.402.19-.652 0-.32-.113-.589-.338-.806-.224-.218-.57-.326-1.034-.326h-1.598v2.36Zm11.31-1.417v.909h-3.287v-.909H64.7Zm-2.386 5.818v-6.492c0-.364.08-.666.239-.906.159-.242.37-.423.632-.541.263-.121.548-.182.856-.182.227 0 .422.019.584.057.161.035.281.068.36.098l-.266.917a5.324 5.324 0 0 0-.204-.053 1.155 1.155 0 0 0-.303-.034c-.275 0-.472.068-.591.204-.116.137-.174.334-.174.591v6.341h-1.133Zm5.776.118c-.545 0-1.02-.125-1.427-.375-.407-.25-.723-.6-.948-1.05-.224-.449-.337-.974-.337-1.575 0-.604.113-1.132.337-1.584.225-.452.54-.803.948-1.053.406-.25.882-.375 1.427-.375.546 0 1.022.125 1.428.375.407.25.723.601.947 1.053.225.452.338.98.338 1.584 0 .601-.113 1.126-.338 1.575-.224.45-.54.8-.947 1.05-.406.25-.882.375-1.428.375Zm.004-.951c.354 0 .647-.094.88-.281.231-.186.403-.435.514-.746.114-.31.17-.653.17-1.026 0-.371-.056-.712-.17-1.023a1.67 1.67 0 0 0-.515-.754c-.232-.189-.525-.284-.879-.284-.356 0-.651.095-.886.284-.232.19-.405.441-.519.754a3.021 3.021 0 0 0-.167 1.023c0 .373.056.716.167 1.026.114.311.287.56.519.746.235.187.53.281.886.281Zm3.973.833v-5.818h1.094v.924h.061c.106-.313.293-.559.56-.738.271-.182.576-.273.917-.273a4.83 4.83 0 0 1 .481.026v1.084a1.912 1.912 0 0 0-.242-.042 2.274 2.274 0 0 0-.348-.027c-.268 0-.507.057-.716.171a1.263 1.263 0 0 0-.675 1.14v3.553h-1.132Zm9.844-7.757v7.757h-1.174v-6.583h-.045l-1.856 1.212v-1.121l1.935-1.265h1.14Zm7.115 7.871c-.47 0-.889-.12-1.258-.36a2.456 2.456 0 0 1-.863-1.034c-.207-.45-.31-.989-.31-1.618 0-.628.104-1.166.314-1.613.212-.447.502-.789.87-1.027a2.269 2.269 0 0 1 1.255-.356c.36 0 .651.061.87.182.223.119.395.258.516.417.124.159.22.299.288.42h.068v-2.882h1.133v7.757h-1.106v-.905h-.095a2.968 2.968 0 0 1-.296.424c-.126.159-.3.298-.522.417-.223.118-.51.178-.864.178Zm.25-.966c.326 0 .601-.086.826-.258a1.59 1.59 0 0 0 .515-.723c.119-.308.178-.667.178-1.076a2.96 2.96 0 0 0-.174-1.061 1.556 1.556 0 0 0-.511-.708c-.225-.169-.503-.254-.834-.254-.34 0-.625.089-.852.265a1.621 1.621 0 0 0-.515.724 2.94 2.94 0 0 0-.17 1.034c0 .389.057.739.174 1.049.116.311.287.557.515.739.23.179.512.269.848.269Zm5.942.981c-.368 0-.702-.068-1-.205a1.683 1.683 0 0 1-.708-.602c-.172-.263-.257-.585-.257-.966 0-.328.063-.598.189-.81.126-.213.297-.38.511-.504a2.7 2.7 0 0 1 .72-.281c.265-.063.535-.111.81-.143l.849-.099c.217-.028.375-.072.474-.133.098-.06.147-.159.147-.295v-.026c0-.331-.093-.588-.28-.769-.184-.182-.46-.273-.826-.273-.381 0-.682.084-.901.254a1.355 1.355 0 0 0-.451.556l-1.064-.242c.126-.354.31-.639.552-.856.246-.22.527-.379.845-.477a3.298 3.298 0 0 1 1.004-.152c.232 0 .478.028.739.084.262.053.507.151.734.295.23.144.418.35.565.617.146.266.22.61.22 1.034v3.864h-1.106v-.795h-.046a1.61 1.61 0 0 1-.33.431 1.752 1.752 0 0 1-.564.353 2.2 2.2 0 0 1-.826.14Zm.247-.909c.313 0 .58-.062.803-.186.224-.124.395-.285.511-.485.119-.202.178-.418.178-.647v-.75a.592.592 0 0 1-.235.113 3.548 3.548 0 0 1-.39.087l-.428.065-.349.045c-.22.028-.42.075-.602.14-.18.066-.323.161-.432.284a.712.712 0 0 0-.159.485c0 .281.104.493.31.637.208.141.472.212.793.212Zm4.641 2.962c-.17 0-.324-.014-.463-.042a1.462 1.462 0 0 1-.31-.083l.273-.928c.207.055.391.079.553.072a.665.665 0 0 0 .428-.182c.126-.114.237-.299.333-.557l.14-.386-2.129-5.894h1.213l1.473 4.515h.061l1.473-4.515h1.216l-2.398 6.595a2.628 2.628 0 0 1-.424.769 1.646 1.646 0 0 1-.614.477 2.004 2.004 0 0 1-.825.159Z"/><path fill="#96A396" d="M27.388 231.135v.569h-5.796v-.569h5.796Zm0 1.228v.568h-5.796v-.568h5.796Zm-.591-3.353v5.819h-.682l-3.17-4.569h-.057v4.569h-.705v-5.819h.682l3.182 4.58h.057v-4.58h.693Zm3.338 5.898a2.47 2.47 0 0 1-1.003-.193 1.722 1.722 0 0 1-.696-.537 1.444 1.444 0 0 1-.278-.804h.716a.85.85 0 0 0 .193.486c.113.134.262.238.446.312.184.074.387.111.61.111.25 0 .472-.043.665-.131.194-.087.345-.208.455-.363a.91.91 0 0 0 .165-.54c0-.214-.053-.402-.16-.565a1.054 1.054 0 0 0-.465-.387 1.823 1.823 0 0 0-.75-.139h-.466v-.625h.466a1.4 1.4 0 0 0 .608-.125.946.946 0 0 0 .563-.886.981.981 0 0 0-.131-.514.89.89 0 0 0-.37-.341 1.189 1.189 0 0 0-.557-.122c-.2 0-.39.036-.568.11-.176.072-.32.177-.432.316a.82.82 0 0 0-.181.494h-.682c.011-.305.103-.572.275-.801a1.74 1.74 0 0 1 .677-.54 2.18 2.18 0 0 1 .923-.193c.36 0 .668.073.926.219.258.144.455.334.594.571.138.236.207.492.207.767 0 .327-.086.607-.258.838a1.31 1.31 0 0 1-.697.48v.045c.368.061.655.217.861.469.207.25.31.56.31.929 0 .316-.086.6-.258.852a1.76 1.76 0 0 1-.7.591 2.273 2.273 0 0 1-1.008.216Zm4.946 0a1.99 1.99 0 0 1-.9-.199 1.667 1.667 0 0 1-.642-.545 1.484 1.484 0 0 1-.265-.79h.682a.934.934 0 0 0 .358.653c.214.171.47.256.767.256a1.188 1.188 0 0 0 1.077-.628c.108-.197.162-.419.162-.667 0-.254-.056-.48-.168-.679a1.233 1.233 0 0 0-.454-.475 1.29 1.29 0 0 0-.662-.176 1.81 1.81 0 0 0-.549.083 1.482 1.482 0 0 0-.463.213l-.659-.08.352-2.864h3.023v.625h-2.432l-.204 1.716h.034a1.53 1.53 0 0 1 .449-.235 1.69 1.69 0 0 1 .562-.094 1.79 1.79 0 0 1 1.611.949c.161.293.242.628.242 1.005 0 .372-.084.703-.25.995a1.828 1.828 0 0 1-.682.687c-.29.167-.62.25-.989.25Zm4.947 0c-.428 0-.793-.116-1.094-.349-.301-.235-.531-.575-.69-1.02-.16-.447-.239-.987-.239-1.619 0-.629.08-1.166.239-1.611.16-.447.392-.788.693-1.023.303-.237.667-.355 1.09-.355.425 0 .788.118 1.089.355.303.235.534.576.693 1.023.161.445.242.982.242 1.611 0 .632-.08 1.172-.24 1.619-.158.445-.388.785-.69 1.02-.3.233-.665.349-1.093.349Zm0-.625c.424 0 .754-.204.989-.613.234-.41.352-.993.352-1.75 0-.504-.054-.933-.162-1.287-.106-.355-.26-.624-.46-.81a1.014 1.014 0 0 0-.72-.278c-.42 0-.748.207-.985.622-.237.413-.355.997-.355 1.753 0 .503.053.931.159 1.284.106.352.259.62.457.804.201.183.443.275.725.275Z"/></g><rect width="14.667" height="14.667" x="217.411" y="216.328" stroke="#16CB3E" stroke-width="1.333" rx="7.333"/><g clip-path="url(#h)"><path fill="#fff" d="M24.718 274.934c-.475 0-.902-.091-1.28-.273a2.32 2.32 0 0 1-.902-.757 2.002 2.002 0 0 1-.36-1.099h1.136c.028.334.176.608.443.822.268.215.589.322.963.322.297 0 .561-.068.791-.204a1.47 1.47 0 0 0 .546-.572c.133-.243.2-.519.2-.83 0-.315-.068-.597-.204-.844a1.512 1.512 0 0 0-.565-.584 1.603 1.603 0 0 0-.818-.216c-.235 0-.47.041-.708.122-.238.08-.43.186-.576.318l-1.072-.159.436-3.909h4.265v1.003H23.72l-.246 2.171h.045a1.81 1.81 0 0 1 .603-.368 2.22 2.22 0 0 1 .81-.147 2.372 2.372 0 0 1 2.137 1.257c.214.387.32.831.318 1.334.002.502-.111.95-.341 1.344a2.467 2.467 0 0 1-.947.932c-.402.225-.862.337-1.383.337Zm6.754.023c-.598-.003-1.11-.16-1.534-.474-.424-.313-.749-.769-.973-1.367-.225-.598-.337-1.319-.337-2.163 0-.841.112-1.559.337-2.155.227-.596.553-1.051.977-1.364.427-.313.937-.47 1.53-.47.594 0 1.102.158 1.527.474.424.313.748.768.973 1.364.227.593.341 1.31.341 2.151 0 .846-.112 1.568-.337 2.167-.225.596-.55 1.052-.974 1.367-.424.313-.934.47-1.53.47Zm0-1.011c.525 0 .936-.257 1.231-.769.298-.513.447-1.254.447-2.224 0-.644-.068-1.188-.204-1.632-.134-.447-.327-.786-.58-1.016a1.269 1.269 0 0 0-.894-.348c-.523 0-.933.257-1.23.773-.299.515-.45 1.256-.452 2.223 0 .647.067 1.193.201 1.64.137.445.33.782.58 1.012.25.227.55.341.901.341Zm6.886 1.011c-.599-.003-1.11-.16-1.534-.474-.425-.313-.75-.769-.974-1.367-.225-.598-.337-1.319-.337-2.163 0-.841.112-1.559.337-2.155.227-.596.553-1.051.977-1.364.427-.313.937-.47 1.53-.47.594 0 1.103.158 1.527.474.424.313.749.768.974 1.364.227.593.34 1.31.34 2.151 0 .846-.112 1.568-.337 2.167-.224.596-.549 1.052-.973 1.367-.424.313-.934.47-1.53.47Zm0-1.011c.525 0 .935-.257 1.23-.769.299-.513.448-1.254.448-2.224 0-.644-.069-1.188-.205-1.632-.134-.447-.327-.786-.58-1.016a1.27 1.27 0 0 0-.893-.348c-.523 0-.933.257-1.231.773-.298.515-.449 1.256-.451 2.223 0 .647.067 1.193.2 1.64.137.445.33.782.58 1.012.25.227.55.341.902.341Zm4.29-6.875h1.42l2.47 6.03h.091l2.47-6.03h1.42v7.757h-1.113v-5.614h-.072l-2.288 5.603h-.924l-2.288-5.606h-.072v5.617h-1.114v-7.757Zm9.573 7.757v-7.757h2.841c.55 0 1.007.09 1.368.272.36.18.63.423.81.731.18.306.27.651.27 1.034 0 .324-.06.596-.179.819a1.472 1.472 0 0 1-.477.53 2.119 2.119 0 0 1-.652.288v.076c.258.012.51.096.754.25.248.151.452.367.614.647.161.281.242.621.242 1.023 0 .396-.093.753-.28 1.068-.184.313-.47.562-.856.746-.387.182-.88.273-1.481.273H52.22Zm1.17-1.004h1.69c.56 0 .962-.108 1.205-.325a1.05 1.05 0 0 0 .363-.815c0-.245-.062-.47-.185-.674a1.33 1.33 0 0 0-.53-.489 1.702 1.702 0 0 0-.811-.182h-1.731v2.485Zm0-3.397h1.569c.262 0 .499-.051.708-.152a1.24 1.24 0 0 0 .504-.424c.126-.184.19-.402.19-.652 0-.32-.113-.589-.338-.806-.224-.218-.57-.326-1.034-.326h-1.598v2.36Zm11.31-1.417v.909h-3.287v-.909H64.7Zm-2.386 5.818v-6.492c0-.364.08-.666.239-.906.159-.242.37-.423.632-.541.263-.121.548-.182.856-.182.227 0 .422.019.584.057.161.035.281.068.36.098l-.266.917a5.324 5.324 0 0 0-.204-.053 1.155 1.155 0 0 0-.303-.034c-.275 0-.472.068-.591.204-.116.137-.174.334-.174.591v6.341h-1.133Zm5.776.118c-.545 0-1.02-.125-1.427-.375-.407-.25-.723-.6-.948-1.05-.224-.449-.337-.974-.337-1.575 0-.604.113-1.132.337-1.584.225-.452.54-.803.948-1.053.406-.25.882-.375 1.427-.375.546 0 1.022.125 1.428.375.407.25.723.601.947 1.053.225.452.338.98.338 1.584 0 .601-.113 1.126-.338 1.575-.224.45-.54.8-.947 1.05-.406.25-.882.375-1.428.375Zm.004-.951c.354 0 .647-.094.88-.281.231-.186.403-.435.514-.746.114-.31.17-.653.17-1.026 0-.371-.056-.712-.17-1.023a1.67 1.67 0 0 0-.515-.754c-.232-.189-.525-.284-.879-.284-.356 0-.651.095-.886.284-.232.19-.405.441-.519.754a3.021 3.021 0 0 0-.167 1.023c0 .373.056.716.167 1.026.114.311.287.56.519.746.235.187.53.281.886.281Zm3.973.833v-5.818h1.094v.924h.061c.106-.313.293-.559.56-.738.271-.182.576-.273.917-.273a4.83 4.83 0 0 1 .481.026v1.084a1.912 1.912 0 0 0-.242-.042 2.274 2.274 0 0 0-.348-.027c-.268 0-.507.057-.716.171a1.263 1.263 0 0 0-.675 1.14v3.553h-1.132Zm6.901 0v-.848l2.625-2.72c.28-.296.512-.554.694-.777a2.9 2.9 0 0 0 .412-.64 1.55 1.55 0 0 0 .137-.644c0-.257-.06-.479-.182-.666a1.186 1.186 0 0 0-.496-.436 1.585 1.585 0 0 0-.709-.155c-.277 0-.52.057-.727.17a1.17 1.17 0 0 0-.477.481 1.52 1.52 0 0 0-.167.728h-1.117c0-.473.108-.886.325-1.239.218-.354.516-.628.894-.822.38-.197.81-.296 1.292-.296.487 0 .917.098 1.288.292.374.192.665.455.875.788.21.331.314.705.314 1.121 0 .288-.054.57-.163.845-.106.275-.291.582-.556.92-.265.336-.634.744-1.106 1.224l-1.542 1.614v.056h3.492v1.004H78.97Zm11.558.114c-.47 0-.889-.12-1.258-.36a2.456 2.456 0 0 1-.863-1.034c-.207-.45-.31-.989-.31-1.618 0-.628.104-1.166.314-1.613.212-.447.502-.789.87-1.027a2.269 2.269 0 0 1 1.255-.356c.36 0 .651.061.87.182.223.119.395.258.516.417.124.159.22.299.288.42h.068v-2.882h1.133v7.757h-1.106v-.905h-.095a2.968 2.968 0 0 1-.296.424c-.126.159-.3.298-.522.417-.223.118-.51.178-.864.178Zm.25-.966c.326 0 .601-.086.826-.258a1.59 1.59 0 0 0 .515-.723c.119-.308.178-.667.178-1.076a2.96 2.96 0 0 0-.174-1.061 1.556 1.556 0 0 0-.511-.708c-.225-.169-.503-.254-.834-.254-.34 0-.625.089-.852.265a1.621 1.621 0 0 0-.515.724 2.94 2.94 0 0 0-.17 1.034c0 .389.057.739.174 1.049.116.311.287.557.515.739.23.179.512.269.848.269Zm5.942.981c-.368 0-.702-.068-1-.205a1.683 1.683 0 0 1-.708-.602c-.172-.263-.257-.585-.257-.966 0-.328.063-.598.189-.81.126-.213.297-.38.511-.504a2.7 2.7 0 0 1 .72-.281c.265-.063.535-.111.81-.143l.849-.099c.217-.028.375-.072.474-.133.098-.06.147-.159.147-.295v-.026c0-.331-.093-.588-.28-.769-.184-.182-.46-.273-.826-.273-.381 0-.682.084-.901.254a1.355 1.355 0 0 0-.451.556l-1.064-.242c.126-.354.31-.639.552-.856.246-.22.527-.379.845-.477a3.298 3.298 0 0 1 1.004-.152c.232 0 .478.028.739.084.262.053.507.151.734.295.23.144.418.35.565.617.146.266.22.61.22 1.034v3.864h-1.106v-.795h-.046a1.61 1.61 0 0 1-.33.431 1.752 1.752 0 0 1-.564.353 2.2 2.2 0 0 1-.826.14Zm.247-.909c.313 0 .58-.062.803-.186.224-.124.395-.285.511-.485.119-.202.178-.418.178-.647v-.75a.592.592 0 0 1-.235.113 3.548 3.548 0 0 1-.39.087l-.428.065-.349.045c-.22.028-.42.075-.602.14-.18.066-.323.161-.432.284a.712.712 0 0 0-.159.485c0 .281.104.493.31.637.208.141.472.212.793.212Zm4.641 2.962c-.17 0-.324-.014-.462-.042a1.46 1.46 0 0 1-.311-.083l.273-.928c.207.055.391.079.553.072a.665.665 0 0 0 .428-.182c.126-.114.237-.299.333-.557l.14-.386-2.129-5.894h1.213l1.473 4.515h.061l1.473-4.515h1.216l-2.398 6.595a2.628 2.628 0 0 1-.424.769 1.646 1.646 0 0 1-.614.477 2.004 2.004 0 0 1-.825.159Zm9.685-6.58-1.026.182a1.214 1.214 0 0 0-.205-.375 1.006 1.006 0 0 0-.371-.291 1.341 1.341 0 0 0-.587-.114c-.321 0-.588.072-.803.216-.215.141-.322.324-.322.549 0 .195.072.351.216.47.144.118.376.216.697.291l.924.213c.535.123.934.314 1.197.572.263.257.394.592.394 1.003 0 .349-.101.659-.303.932-.2.27-.479.482-.837.636-.356.155-.769.232-1.239.232-.651 0-1.183-.139-1.595-.417-.411-.28-.664-.678-.757-1.193l1.095-.167c.068.285.208.501.42.648.212.144.489.216.83.216.371 0 .667-.077.89-.231.222-.157.333-.348.333-.572a.594.594 0 0 0-.205-.459c-.133-.123-.339-.217-.617-.28l-.985-.216c-.543-.124-.944-.321-1.204-.591-.258-.27-.387-.612-.387-1.026 0-.344.096-.644.288-.902.192-.257.457-.458.796-.602.338-.147.726-.22 1.163-.22.628 0 1.123.137 1.484.409.361.27.6.633.716 1.087Z"/><path fill="#96A396" d="M27.388 284.468v.569h-5.796v-.569h5.796Zm0 1.228v.568h-5.796v-.568h5.796Zm-.591-3.353v5.819h-.682l-3.17-4.569h-.057v4.569h-.705v-5.819h.682l3.182 4.58h.057v-4.58h.693Zm3.19 5.898a1.99 1.99 0 0 1-.9-.199 1.667 1.667 0 0 1-.642-.545 1.486 1.486 0 0 1-.265-.79h.682a.934.934 0 0 0 .358.653c.214.171.47.256.767.256a1.188 1.188 0 0 0 1.077-.628c.108-.197.162-.419.162-.667 0-.254-.056-.48-.168-.679a1.234 1.234 0 0 0-1.116-.651 1.81 1.81 0 0 0-.548.083 1.482 1.482 0 0 0-.463.213l-.66-.08.353-2.864h3.022v.625h-2.431l-.205 1.716h.034a1.52 1.52 0 0 1 .449-.235 1.69 1.69 0 0 1 .563-.094 1.79 1.79 0 0 1 1.61.949c.161.293.242.628.242 1.005 0 .372-.084.703-.25.995a1.828 1.828 0 0 1-.682.687c-.29.167-.62.25-.989.25Zm4.947 0c-.428 0-.792-.116-1.094-.349-.3-.235-.53-.575-.69-1.02-.16-.447-.239-.987-.239-1.619 0-.629.08-1.166.239-1.611.161-.447.392-.788.693-1.023.303-.237.667-.355 1.091-.355.424 0 .787.118 1.088.355.303.235.534.576.693 1.023.161.445.242.982.242 1.611 0 .632-.08 1.172-.239 1.619-.159.445-.389.785-.69 1.02-.301.233-.666.349-1.094.349Zm0-.625c.424 0 .754-.204.989-.613.235-.41.352-.993.352-1.75 0-.504-.054-.933-.162-1.287-.106-.355-.26-.624-.46-.81a1.014 1.014 0 0 0-.719-.278c-.42 0-.749.207-.986.622-.236.413-.355.997-.355 1.753 0 .503.053.931.16 1.284.105.352.258.62.457.804.2.183.442.275.724.275Zm5 .625c-.428 0-.792-.116-1.094-.349-.3-.235-.53-.575-.69-1.02-.16-.447-.239-.987-.239-1.619 0-.629.08-1.166.239-1.611.161-.447.392-.788.693-1.023.303-.237.667-.355 1.091-.355.424 0 .787.118 1.088.355.303.235.534.576.693 1.023.161.445.242.982.242 1.611 0 .632-.08 1.172-.239 1.619-.159.445-.389.785-.69 1.02-.301.233-.666.349-1.094.349Zm0-.625c.424 0 .754-.204.989-.613.235-.41.352-.993.352-1.75 0-.504-.054-.933-.162-1.287-.106-.355-.26-.624-.46-.81a1.014 1.014 0 0 0-.719-.278c-.42 0-.749.207-.986.622-.236.413-.355.997-.355 1.753 0 .503.053.931.16 1.284.105.352.258.62.457.804.2.183.442.275.724.275Z"/></g><rect width="14.667" height="14.667" x="217.411" y="269.661" stroke="#16CB3E" stroke-width="1.333" rx="7.333"/><g clip-path="url(#i)"><path fill="#fff" d="M24.865 328.268a3.133 3.133 0 0 1-1.022-.19 2.392 2.392 0 0 1-.91-.606c-.272-.283-.49-.663-.655-1.14-.162-.477-.242-1.073-.242-1.788 0-.677.067-1.278.2-1.803.137-.525.332-.968.587-1.329.256-.364.564-.641.925-.83a2.582 2.582 0 0 1 1.216-.284c.462 0 .872.091 1.23.273.36.182.65.433.872.753.225.321.367.686.428 1.095h-1.155a1.49 1.49 0 0 0-.466-.791c-.233-.205-.536-.307-.91-.307-.568 0-1.01.247-1.329.742-.316.495-.475 1.183-.477 2.065h.057a2.11 2.11 0 0 1 .492-.561 2.315 2.315 0 0 1 1.432-.489c.45 0 .856.11 1.22.33.366.217.657.518.875.901.217.384.325.824.325 1.319 0 .494-.112.943-.337 1.344-.222.402-.535.72-.94.955-.403.232-.875.346-1.416.341Zm-.004-.985c.298 0 .565-.073.8-.22a1.58 1.58 0 0 0 .556-.591c.137-.247.205-.524.205-.829 0-.298-.067-.57-.2-.815a1.516 1.516 0 0 0-.546-.583 1.452 1.452 0 0 0-.788-.216 1.51 1.51 0 0 0-1.125.485 1.726 1.726 0 0 0-.341.523 1.672 1.672 0 0 0 .08 1.424c.136.247.322.447.556.598.238.149.505.224.803.224Zm6.778 1.007c-.599-.002-1.11-.16-1.534-.473-.425-.313-.749-.769-.974-1.368-.224-.598-.337-1.319-.337-2.162 0-.841.113-1.56.337-2.156.228-.596.553-1.05.978-1.363.426-.313.936-.47 1.53-.47.593 0 1.102.158 1.526.473.425.314.75.768.974 1.364.227.594.34 1.311.34 2.152 0 .846-.112 1.568-.336 2.166-.225.596-.55 1.052-.974 1.368-.424.313-.934.469-1.53.469Zm0-1.011c.525 0 .936-.256 1.23-.769.299-.513.448-1.254.448-2.223 0-.644-.068-1.189-.205-1.633-.134-.447-.327-.785-.58-1.015a1.27 1.27 0 0 0-.893-.349c-.523 0-.933.258-1.231.773-.298.515-.448 1.256-.451 2.224 0 .646.067 1.193.2 1.64.137.444.33.781.58 1.011.25.227.55.341.902.341Zm6.885 1.011c-.598-.002-1.11-.16-1.534-.473-.424-.313-.748-.769-.973-1.368-.225-.598-.337-1.319-.337-2.162 0-.841.112-1.56.337-2.156.227-.596.553-1.05.977-1.363.427-.313.937-.47 1.53-.47.594 0 1.103.158 1.527.473.424.314.748.768.973 1.364.228.594.341 1.311.341 2.152 0 .846-.112 1.568-.337 2.166-.225.596-.55 1.052-.973 1.368-.425.313-.935.469-1.53.469Zm0-1.011c.526 0 .936-.256 1.231-.769.298-.513.447-1.254.447-2.223 0-.644-.068-1.189-.204-1.633-.134-.447-.327-.785-.58-1.015a1.27 1.27 0 0 0-.894-.349c-.522 0-.933.258-1.23.773-.299.515-.449 1.256-.451 2.224 0 .646.066 1.193.2 1.64.137.444.33.781.58 1.011.25.227.55.341.901.341Zm4.291-6.875h1.42l2.47 6.03h.091l2.47-6.03h1.42v7.758h-1.113v-5.614H49.5l-2.288 5.602h-.925L44 322.544h-.072v5.618h-1.114v-7.758Zm9.573 7.758v-7.758h2.84c.551 0 1.007.091 1.368.273.361.179.632.423.81.731.18.305.27.65.27 1.034 0 .323-.06.596-.178.818-.119.22-.278.397-.477.53a2.073 2.073 0 0 1-.652.288v.076c.258.013.509.096.754.25.247.152.452.367.613.648.162.28.243.621.243 1.022 0 .397-.094.753-.28 1.069-.185.313-.47.562-.856.746-.387.182-.88.273-1.482.273h-2.973Zm1.17-1.004h1.69c.56 0 .962-.109 1.204-.326.243-.217.364-.489.364-.814a1.281 1.281 0 0 0-.716-1.163 1.702 1.702 0 0 0-.81-.182h-1.732v2.485Zm0-3.398h1.569c.262 0 .498-.05.708-.151a1.24 1.24 0 0 0 .504-.425c.126-.184.19-.401.19-.651 0-.321-.113-.59-.338-.807-.225-.217-.57-.326-1.034-.326h-1.599v2.36Zm11.31-1.417v.91H61.58v-.91h3.288Zm-2.386 5.819v-6.493c0-.363.08-.665.238-.905.16-.243.37-.423.633-.542a2.02 2.02 0 0 1 .856-.182c.227 0 .422.019.583.057.162.036.282.068.36.099l-.265.916a7.567 7.567 0 0 0-.205-.053 1.198 1.198 0 0 0-.303-.034c-.275 0-.472.068-.59.205-.117.136-.175.333-.175.591v6.341h-1.132Zm5.776.117c-.545 0-1.021-.125-1.428-.375a2.53 2.53 0 0 1-.947-1.049c-.225-.45-.337-.975-.337-1.576 0-.603.112-1.131.337-1.583.225-.452.54-.803.947-1.053.407-.25.883-.375 1.428-.375.546 0 1.022.125 1.428.375.407.25.722.601.947 1.053.225.452.337.98.337 1.583 0 .601-.112 1.126-.337 1.576a2.53 2.53 0 0 1-.947 1.049c-.406.25-.882.375-1.428.375Zm.004-.951c.353 0 .646-.093.879-.28.232-.187.404-.436.515-.746.113-.311.17-.653.17-1.027 0-.371-.056-.712-.17-1.022a1.66 1.66 0 0 0-.515-.754c-.233-.19-.526-.284-.879-.284-.356 0-.651.094-.886.284-.233.189-.406.44-.52.754-.11.31-.166.651-.166 1.022 0 .374.056.716.167 1.027.113.31.286.559.519.746.234.187.53.28.886.28Zm3.972.834v-5.819h1.095v.925h.06c.107-.313.294-.56.561-.739.27-.182.576-.273.917-.273a4.951 4.951 0 0 1 .481.027v1.083a2.364 2.364 0 0 0-.242-.042 2.403 2.403 0 0 0-.349-.026c-.267 0-.506.057-.716.17a1.262 1.262 0 0 0-.674 1.141v3.553h-1.133Zm7.163 0 3.387-6.697v-.057h-3.917v-1.004h5.129v1.038l-3.375 6.72h-1.224Zm10.932.113c-.47 0-.889-.12-1.257-.36-.367-.242-.654-.587-.864-1.034-.207-.449-.31-.988-.31-1.617s.104-1.167.314-1.614c.212-.447.502-.789.871-1.026a2.26 2.26 0 0 1 1.254-.356c.36 0 .651.06.871.181.222.119.394.258.515.417a3.4 3.4 0 0 1 .288.421h.068v-2.883h1.133v7.758h-1.106v-.906h-.095a3.036 3.036 0 0 1-.295.425c-.127.159-.3.298-.523.416-.222.119-.51.178-.864.178Zm.25-.966c.326 0 .601-.086.826-.257.227-.174.399-.416.515-.724.119-.308.178-.666.178-1.075 0-.405-.058-.758-.174-1.061a1.556 1.556 0 0 0-.512-.708c-.224-.17-.502-.254-.833-.254-.34 0-.625.088-.852.265a1.624 1.624 0 0 0-.515.723c-.114.306-.17.651-.17 1.035 0 .388.057.738.174 1.049.116.31.288.557.515.738.23.18.512.269.848.269Zm5.942.981c-.368 0-.702-.068-1-.204a1.69 1.69 0 0 1-.708-.602c-.172-.263-.258-.585-.258-.966 0-.329.064-.599.19-.811.126-.212.297-.38.511-.504a2.69 2.69 0 0 1 .72-.28 7.22 7.22 0 0 1 .81-.144l.85-.098c.216-.028.374-.072.473-.133.098-.061.147-.159.147-.295v-.027c0-.331-.093-.587-.28-.769-.184-.182-.46-.273-.826-.273-.381 0-.682.085-.901.254a1.357 1.357 0 0 0-.451.557l-1.064-.242c.126-.354.31-.639.553-.857a2.25 2.25 0 0 1 .844-.477 3.298 3.298 0 0 1 1.004-.151c.232 0 .479.027.739.083.262.053.507.152.735.295.23.144.418.35.564.618.146.265.22.61.22 1.034v3.864h-1.106v-.796h-.046a1.596 1.596 0 0 1-.33.432 1.75 1.75 0 0 1-.564.352 2.18 2.18 0 0 1-.826.14Zm.247-.909c.313 0 .58-.062.803-.185.224-.124.395-.286.511-.485.119-.202.178-.418.178-.648v-.75a.59.59 0 0 1-.235.114 3.554 3.554 0 0 1-.39.087c-.146.023-.29.044-.428.064l-.348.046a2.8 2.8 0 0 0-.603.14 1.03 1.03 0 0 0-.431.284c-.107.121-.16.283-.16.485 0 .28.104.492.311.636.207.142.47.212.792.212Zm4.641 2.962a2.349 2.349 0 0 1-.773-.125l.273-.928a1.8 1.8 0 0 0 .553.072.663.663 0 0 0 .428-.181c.126-.114.237-.3.333-.557l.14-.387-2.128-5.894h1.212l1.473 4.516h.061l1.473-4.516h1.216l-2.398 6.595a2.628 2.628 0 0 1-.424.769 1.65 1.65 0 0 1-.613.477 2.012 2.012 0 0 1-.826.159Zm9.685-6.579-1.026.182a1.192 1.192 0 0 0-.205-.375 1.008 1.008 0 0 0-.371-.292 1.338 1.338 0 0 0-.587-.114c-.321 0-.588.072-.803.216-.215.142-.322.325-.322.55 0 .194.072.351.216.469.144.119.376.216.697.292l.924.212c.535.124.934.314 1.197.572.263.258.394.592.394 1.004 0 .348-.101.659-.303.932-.2.27-.479.482-.837.636-.356.154-.769.231-1.239.231-.651 0-1.183-.139-1.594-.417-.412-.28-.665-.678-.758-1.193l1.095-.166c.068.285.208.501.42.647.212.144.489.216.83.216.371 0 .668-.077.89-.231.222-.156.333-.347.333-.572a.595.595 0 0 0-.204-.458c-.134-.124-.34-.217-.618-.281l-.985-.215c-.543-.124-.944-.321-1.204-.591-.258-.271-.387-.613-.387-1.027 0-.343.096-.644.288-.901.192-.258.457-.459.796-.603a2.91 2.91 0 0 1 1.163-.219c.628 0 1.123.136 1.484.409.362.27.6.632.716 1.087Z"/><path fill="#96A396" d="M27.388 337.802v.568h-5.796v-.568h5.796Zm0 1.227v.568h-5.796v-.568h5.796Zm-.591-3.352v5.818h-.682l-3.17-4.568h-.057v4.568h-.705v-5.818h.682l3.182 4.579h.057v-4.579h.693Zm3.19 5.898c-.333 0-.633-.067-.9-.199a1.678 1.678 0 0 1-.642-.546 1.486 1.486 0 0 1-.265-.789h.682a.934.934 0 0 0 .358.653c.214.17.47.256.767.256a1.187 1.187 0 0 0 1.077-.628c.108-.197.162-.42.162-.668 0-.254-.056-.48-.168-.679a1.224 1.224 0 0 0-.454-.474 1.28 1.28 0 0 0-.662-.176 1.809 1.809 0 0 0-.548.082 1.529 1.529 0 0 0-.463.213l-.66-.079.353-2.864h3.022v.625h-2.431l-.205 1.716h.034a1.716 1.716 0 0 1 1.011-.33 1.79 1.79 0 0 1 1.611.949c.161.294.242.629.242 1.006 0 .371-.084.702-.25.994a1.83 1.83 0 0 1-.682.688c-.29.166-.62.25-.989.25Zm4.947 0c-.428 0-.792-.117-1.094-.35-.3-.235-.53-.575-.69-1.02-.16-.447-.239-.986-.239-1.619 0-.629.08-1.166.239-1.611.161-.447.392-.788.693-1.022a1.717 1.717 0 0 1 1.091-.356c.424 0 .787.119 1.088.356.303.234.534.575.693 1.022.161.445.242.982.242 1.611 0 .633-.08 1.172-.239 1.619-.159.445-.389.785-.69 1.02-.301.233-.666.35-1.094.35Zm0-.625c.424 0 .754-.205.989-.614.235-.409.352-.992.352-1.75 0-.504-.054-.933-.162-1.287-.106-.354-.26-.624-.46-.81a1.018 1.018 0 0 0-.719-.278c-.42 0-.749.207-.986.622-.236.413-.355.997-.355 1.753 0 .504.053.932.16 1.284.105.352.258.62.457.804.2.184.442.276.724.276Zm5 .625c-.428 0-.792-.117-1.094-.35-.3-.235-.53-.575-.69-1.02-.16-.447-.239-.986-.239-1.619 0-.629.08-1.166.239-1.611.161-.447.392-.788.693-1.022a1.717 1.717 0 0 1 1.091-.356c.424 0 .787.119 1.088.356.303.234.534.575.693 1.022.161.445.242.982.242 1.611 0 .633-.08 1.172-.239 1.619-.159.445-.389.785-.69 1.02-.301.233-.666.35-1.094.35Zm0-.625c.424 0 .754-.205.989-.614.235-.409.352-.992.352-1.75 0-.504-.054-.933-.162-1.287-.106-.354-.26-.624-.46-.81a1.018 1.018 0 0 0-.719-.278c-.42 0-.749.207-.986.622-.236.413-.355.997-.355 1.753 0 .504.053.932.16 1.284.105.352.258.62.457.804.2.184.442.276.724.276Z"/></g><rect width="14.667" height="14.667" x="217.411" y="322.995" stroke="#16CB3E" stroke-width="1.333" rx="7.333"/><g clip-path="url(#j)"><path fill="#fff" d="M25.1 373.738v7.757h-1.174v-6.583h-.046l-1.856 1.212v-1.121l1.936-1.265h1.14Zm7.455 2.45a2.377 2.377 0 0 0-.296-.617 1.9 1.9 0 0 0-.436-.47 1.831 1.831 0 0 0-.579-.299 2.337 2.337 0 0 0-.708-.102c-.437 0-.831.112-1.182.337-.351.225-.629.554-.834.988-.201.432-.302.961-.302 1.588 0 .628.102 1.16.306 1.594.205.435.485.764.841.989.356.225.762.337 1.216.337.422 0 .79-.086 1.102-.258a1.79 1.79 0 0 0 .731-.727c.175-.316.262-.687.262-1.113l.303.056h-2.22v-.966h3.05v.883c0 .652-.14 1.217-.417 1.697a2.838 2.838 0 0 1-1.144 1.106c-.485.26-1.04.39-1.667.39-.702 0-1.318-.161-1.848-.485a3.281 3.281 0 0 1-1.235-1.375c-.296-.596-.443-1.303-.443-2.121 0-.619.085-1.174.257-1.667.172-.492.413-.91.724-1.253.313-.346.68-.61 1.102-.792a3.457 3.457 0 0 1 1.39-.277c.42 0 .81.062 1.17.186.364.124.687.299.97.527a2.976 2.976 0 0 1 1.087 1.844h-1.2Zm2.74 5.307v-7.757h2.84c.55 0 1.006.09 1.367.272.362.18.632.423.811.731.18.306.269.651.269 1.034 0 .324-.06.596-.178.819a1.472 1.472 0 0 1-.477.53 2.119 2.119 0 0 1-.652.288v.076c.258.012.51.096.754.25.247.151.452.367.614.647.161.281.242.621.242 1.023 0 .396-.093.753-.28 1.068-.185.313-.47.562-.856.746-.387.182-.88.273-1.481.273h-2.974Zm1.17-1.004h1.689c.56 0 .962-.108 1.205-.325a1.05 1.05 0 0 0 .363-.815c0-.245-.062-.47-.185-.674a1.329 1.329 0 0 0-.53-.489 1.702 1.702 0 0 0-.811-.182h-1.731v2.485Zm0-3.397h1.568c.262 0 .498-.051.708-.152a1.24 1.24 0 0 0 .504-.424c.126-.184.19-.402.19-.652 0-.32-.113-.589-.338-.806-.224-.218-.57-.326-1.034-.326h-1.598v2.36Zm11.31-1.417v.909h-3.289v-.909h3.288Zm-2.387 5.818v-6.492c0-.364.08-.666.239-.906a1.46 1.46 0 0 1 .632-.541c.263-.121.548-.182.856-.182.227 0 .422.019.584.057.161.035.281.068.36.098l-.266.917a5.324 5.324 0 0 0-.204-.053 1.155 1.155 0 0 0-.303-.034c-.276 0-.473.068-.591.204-.116.137-.175.334-.175.591v6.341h-1.132Zm5.776.118c-.545 0-1.021-.125-1.428-.375-.406-.25-.722-.6-.947-1.05-.224-.449-.337-.974-.337-1.575 0-.604.113-1.132.337-1.584.225-.452.54-.803.947-1.053.407-.25.883-.375 1.428-.375.546 0 1.022.125 1.428.375.407.25.723.601.947 1.053.225.452.338.98.338 1.584 0 .601-.113 1.126-.338 1.575-.224.45-.54.8-.947 1.05-.406.25-.882.375-1.428.375Zm.004-.951c.354 0 .647-.094.879-.281.232-.186.404-.435.515-.746.114-.31.17-.653.17-1.026 0-.371-.056-.712-.17-1.023a1.671 1.671 0 0 0-.515-.754c-.232-.189-.525-.284-.879-.284-.356 0-.651.095-.886.284-.232.19-.405.441-.52.754a3.021 3.021 0 0 0-.166 1.023c0 .373.056.716.167 1.026.114.311.287.56.519.746.235.187.53.281.886.281Zm3.973.833v-5.818h1.095v.924h.06c.106-.313.293-.559.56-.738.27-.182.576-.273.917-.273a4.83 4.83 0 0 1 .481.026v1.084a1.912 1.912 0 0 0-.242-.042 2.274 2.274 0 0 0-.349-.027 1.47 1.47 0 0 0-.715.171 1.262 1.262 0 0 0-.675 1.14v3.553h-1.132Zm7.163 0 3.386-6.697v-.057h-3.917v-1.003h5.13v1.037l-3.376 6.72h-1.223Zm10.931.114c-.47 0-.888-.12-1.257-.36a2.456 2.456 0 0 1-.864-1.034c-.207-.45-.31-.989-.31-1.618 0-.628.104-1.166.314-1.613.212-.447.503-.789.871-1.027a2.269 2.269 0 0 1 1.254-.356c.361 0 .651.061.871.182.222.119.394.258.515.417.124.159.22.299.288.42h.069v-2.882h1.132v7.757h-1.106v-.905h-.095a2.978 2.978 0 0 1-.295.424c-.126.159-.3.298-.523.417-.222.118-.51.178-.864.178Zm.25-.966c.326 0 .602-.086.826-.258.227-.174.4-.415.515-.723.12-.308.178-.667.178-1.076a2.96 2.96 0 0 0-.174-1.061 1.557 1.557 0 0 0-.511-.708c-.225-.169-.503-.254-.834-.254-.34 0-.624.089-.852.265a1.621 1.621 0 0 0-.515.724 2.94 2.94 0 0 0-.17 1.034c0 .389.058.739.174 1.049.116.311.288.557.515.739.23.179.513.269.849.269Zm5.943.981c-.369 0-.702-.068-1-.205a1.682 1.682 0 0 1-.709-.602c-.171-.263-.257-.585-.257-.966 0-.328.063-.598.19-.81.125-.213.296-.38.51-.504a2.7 2.7 0 0 1 .72-.281c.265-.063.536-.111.81-.143l.85-.099c.216-.028.374-.072.473-.133.098-.06.147-.159.147-.295v-.026c0-.331-.093-.588-.28-.769-.184-.182-.46-.273-.826-.273-.38 0-.681.084-.901.254a1.355 1.355 0 0 0-.45.556l-1.065-.242c.126-.354.31-.639.553-.856a2.23 2.23 0 0 1 .844-.477 3.298 3.298 0 0 1 1.004-.152c.233 0 .479.028.739.084.263.053.507.151.735.295.23.144.418.35.564.617.147.266.22.61.22 1.034v3.864h-1.106v-.795h-.046c-.073.146-.183.29-.33.431a1.751 1.751 0 0 1-.564.353c-.23.093-.505.14-.825.14Zm.246-.909c.313 0 .58-.062.803-.186.225-.124.395-.285.511-.485.119-.202.178-.418.178-.647v-.75a.592.592 0 0 1-.234.113 3.556 3.556 0 0 1-.39.087c-.147.023-.29.045-.429.065l-.348.045c-.22.028-.42.075-.603.14a1.04 1.04 0 0 0-.431.284.712.712 0 0 0-.16.485c0 .281.104.493.311.637.207.141.471.212.792.212Zm4.641 2.962c-.17 0-.323-.014-.462-.042a1.46 1.46 0 0 1-.31-.083l.272-.928c.207.055.391.079.553.072a.663.663 0 0 0 .428-.182c.126-.114.237-.299.333-.557l.14-.386-2.128-5.894h1.212l1.473 4.515h.061l1.474-4.515h1.215l-2.397 6.595a2.637 2.637 0 0 1-.425.769 1.647 1.647 0 0 1-.613.477 2.009 2.009 0 0 1-.826.159Zm9.686-6.58-1.027.182a1.221 1.221 0 0 0-.205-.375 1.01 1.01 0 0 0-.37-.291 1.34 1.34 0 0 0-.588-.114c-.32 0-.588.072-.803.216-.215.141-.322.324-.322.549a.58.58 0 0 0 .216.47c.144.118.376.216.697.291l.924.213c.536.123.935.314 1.197.572.263.257.394.592.394 1.003 0 .349-.1.659-.303.932-.2.27-.478.482-.837.636-.356.155-.769.232-1.239.232-.651 0-1.183-.139-1.594-.417-.412-.28-.664-.678-.758-1.193l1.095-.167c.068.285.208.501.42.648.213.144.489.216.83.216.371 0 .668-.077.89-.231.222-.157.333-.348.333-.572a.596.596 0 0 0-.204-.459c-.134-.123-.34-.217-.618-.28l-.985-.216c-.542-.124-.944-.321-1.204-.591-.258-.27-.386-.612-.386-1.026 0-.344.096-.644.287-.902a1.89 1.89 0 0 1 .796-.602c.338-.147.726-.22 1.163-.22.629 0 1.124.137 1.485.409.36.27.6.633.716 1.087Z"/><path fill="#96A396" d="M27.388 391.135v.569h-5.796v-.569h5.796Zm0 1.228v.568h-5.796v-.568h5.796Zm-.591-3.353v5.819h-.682l-3.17-4.569h-.057v4.569h-.705v-5.819h.682l3.182 4.58h.057v-4.58h.693Zm3.19 5.898a1.99 1.99 0 0 1-.9-.199 1.667 1.667 0 0 1-.642-.545 1.486 1.486 0 0 1-.265-.79h.682a.934.934 0 0 0 .358.653c.214.171.47.256.767.256a1.188 1.188 0 0 0 1.077-.628c.108-.197.162-.419.162-.667 0-.254-.056-.48-.168-.679a1.234 1.234 0 0 0-1.116-.651 1.81 1.81 0 0 0-.548.083 1.482 1.482 0 0 0-.463.213l-.66-.08.353-2.864h3.022v.625h-2.431l-.205 1.716h.034a1.52 1.52 0 0 1 .449-.235 1.69 1.69 0 0 1 .563-.094 1.79 1.79 0 0 1 1.61.949c.161.293.242.628.242 1.005 0 .372-.084.703-.25.995a1.828 1.828 0 0 1-.682.687c-.29.167-.62.25-.989.25Zm4.947 0c-.428 0-.792-.116-1.094-.349-.3-.235-.53-.575-.69-1.02-.16-.447-.239-.987-.239-1.619 0-.629.08-1.166.239-1.611.161-.447.392-.788.693-1.023.303-.237.667-.355 1.091-.355.424 0 .787.118 1.088.355.303.235.534.576.693 1.023.161.445.242.982.242 1.611 0 .632-.08 1.172-.239 1.619-.159.445-.389.785-.69 1.02-.301.233-.666.349-1.094.349Zm0-.625c.424 0 .754-.204.989-.613.235-.41.352-.993.352-1.75 0-.504-.054-.933-.162-1.287-.106-.355-.26-.624-.46-.81a1.014 1.014 0 0 0-.719-.278c-.42 0-.749.207-.986.622-.236.413-.355.997-.355 1.753 0 .503.053.931.16 1.284.105.352.258.62.457.804.2.183.442.275.724.275Zm5 .625c-.428 0-.792-.116-1.094-.349-.3-.235-.53-.575-.69-1.02-.16-.447-.239-.987-.239-1.619 0-.629.08-1.166.239-1.611.161-.447.392-.788.693-1.023.303-.237.667-.355 1.091-.355.424 0 .787.118 1.088.355.303.235.534.576.693 1.023.161.445.242.982.242 1.611 0 .632-.08 1.172-.239 1.619-.159.445-.389.785-.69 1.02-.301.233-.666.349-1.094.349Zm0-.625c.424 0 .754-.204.989-.613.235-.41.352-.993.352-1.75 0-.504-.054-.933-.162-1.287-.106-.355-.26-.624-.46-.81a1.014 1.014 0 0 0-.719-.278c-.42 0-.749.207-.986.622-.236.413-.355.997-.355 1.753 0 .503.053.931.16 1.284.105.352.258.62.457.804.2.183.442.275.724.275Z"/></g><rect width="14.667" height="14.667" x="217.411" y="376.328" stroke="#16CB3E" stroke-width="1.333" rx="7.333"/><g clip-path="url(#k)"><path fill="#fff" d="M24.858 434.934a3.43 3.43 0 0 1-1.394-.269 2.364 2.364 0 0 1-.966-.746 1.982 1.982 0 0 1-.379-1.114h1.19c.014.23.091.43.23.599.142.167.326.295.553.386.228.091.48.137.758.137.306 0 .576-.053.81-.159a1.33 1.33 0 0 0 .558-.444c.133-.192.2-.413.2-.663 0-.26-.067-.488-.2-.685a1.308 1.308 0 0 0-.58-.47c-.253-.113-.558-.17-.917-.17h-.655v-.955h.655c.288 0 .54-.052.758-.155.22-.104.391-.248.515-.432.124-.187.186-.405.186-.655 0-.24-.055-.449-.163-.625a1.091 1.091 0 0 0-.455-.421 1.477 1.477 0 0 0-.69-.151c-.252 0-.488.046-.708.14a1.307 1.307 0 0 0-.53.394c-.136.169-.21.372-.22.61h-1.132c.012-.419.136-.788.371-1.106a2.4 2.4 0 0 1 .94-.747c.388-.179.82-.269 1.295-.269.497 0 .927.098 1.288.292.363.192.644.448.84.769.2.321.299.672.296 1.053.003.434-.119.803-.364 1.106a1.766 1.766 0 0 1-.97.61v.061c.516.078.915.282 1.198.613.285.331.427.741.424 1.231.003.427-.116.81-.356 1.148a2.423 2.423 0 0 1-.974.799c-.411.192-.882.288-1.412.288Zm4.706-.034a.733.733 0 0 1-.534-.22.732.732 0 0 1-.224-.537c0-.208.075-.384.224-.531a.728.728 0 0 1 .534-.223c.207 0 .385.074.534.223a.717.717 0 0 1 .224.531.722.722 0 0 1-.106.382.78.78 0 0 1-.273.273.723.723 0 0 1-.379.102Zm4.695.034a2.92 2.92 0 0 1-1.28-.273 2.32 2.32 0 0 1-.902-.757 2.002 2.002 0 0 1-.36-1.099h1.137c.028.334.175.608.443.822.268.215.588.322.962.322.298 0 .562-.068.792-.204a1.47 1.47 0 0 0 .545-.572c.134-.243.201-.519.201-.83a1.72 1.72 0 0 0-.204-.844 1.512 1.512 0 0 0-.565-.584 1.603 1.603 0 0 0-.818-.216c-.235 0-.471.041-.708.122-.238.08-.43.186-.576.318l-1.072-.159.435-3.909h4.266v1.003h-3.292l-.246 2.171h.045c.152-.147.352-.269.602-.368.253-.098.523-.147.811-.147a2.372 2.372 0 0 1 2.136 1.257c.215.387.321.831.319 1.334.002.502-.111.95-.341 1.344a2.468 2.468 0 0 1-.947.932c-.402.225-.863.337-1.383.337Zm9.41-5.413a2.38 2.38 0 0 0-.295-.617 1.9 1.9 0 0 0-.436-.47 1.833 1.833 0 0 0-.58-.299 2.337 2.337 0 0 0-.708-.102c-.437 0-.83.112-1.182.337-.35.225-.628.554-.833.988-.202.432-.303.961-.303 1.588 0 .628.102 1.16.307 1.594.204.435.485.764.84.989.357.225.762.337 1.217.337.421 0 .789-.086 1.102-.258a1.79 1.79 0 0 0 .731-.727c.174-.316.261-.687.261-1.113l.303.056h-2.22v-.966h3.05v.883c0 .652-.139 1.217-.417 1.697a2.838 2.838 0 0 1-1.144 1.106c-.485.26-1.04.39-1.666.39-.702 0-1.319-.161-1.849-.485a3.282 3.282 0 0 1-1.235-1.375c-.295-.596-.443-1.303-.443-2.121 0-.619.086-1.174.258-1.667.172-.492.413-.91.723-1.253.313-.346.68-.61 1.102-.792a3.456 3.456 0 0 1 1.39-.277c.42 0 .81.062 1.171.186.364.124.687.299.97.527a2.974 2.974 0 0 1 1.087 1.844h-1.2Zm2.74 5.307v-7.757h2.84c.551 0 1.007.09 1.368.272.361.18.631.423.81.731.18.306.27.651.27 1.034 0 .324-.06.596-.178.819a1.472 1.472 0 0 1-.478.53 2.119 2.119 0 0 1-.651.288v.076c.257.012.509.096.754.25.247.151.452.367.613.647.162.281.243.621.243 1.023 0 .396-.094.753-.28 1.068-.185.313-.47.562-.857.746-.386.182-.88.273-1.48.273h-2.974Zm1.17-1.004h1.69c.56 0 .962-.108 1.204-.325a1.05 1.05 0 0 0 .364-.815c0-.245-.062-.47-.186-.674a1.33 1.33 0 0 0-.53-.489 1.702 1.702 0 0 0-.81-.182h-1.732v2.485Zm0-3.397h1.568c.263 0 .5-.051.709-.152.212-.101.38-.242.503-.424a1.12 1.12 0 0 0 .19-.652c0-.32-.112-.589-.337-.806-.225-.218-.57-.326-1.034-.326h-1.599v2.36Zm11.31-1.417v.909H55.6v-.909h3.288Zm-2.387 5.818v-6.492c0-.364.08-.666.24-.906.158-.242.37-.423.632-.541a2.02 2.02 0 0 1 .856-.182c.227 0 .422.019.583.057.162.035.282.068.36.098l-.265.917a5.324 5.324 0 0 0-.205-.053 1.155 1.155 0 0 0-.303-.034c-.275 0-.472.068-.59.204-.117.137-.175.334-.175.591v6.341h-1.133Zm5.777.118c-.545 0-1.021-.125-1.428-.375-.407-.25-.722-.6-.947-1.05-.225-.449-.337-.974-.337-1.575 0-.604.112-1.132.337-1.584.225-.452.54-.803.947-1.053.407-.25.883-.375 1.428-.375.545 0 1.021.125 1.428.375.407.25.722.601.947 1.053.225.452.337.98.337 1.584 0 .601-.112 1.126-.337 1.575-.225.45-.54.8-.947 1.05-.407.25-.883.375-1.428.375Zm.004-.951c.353 0 .646-.094.879-.281.232-.186.404-.435.515-.746.113-.31.17-.653.17-1.026 0-.371-.057-.712-.17-1.023a1.67 1.67 0 0 0-.515-.754c-.233-.189-.526-.284-.88-.284-.355 0-.65.095-.886.284-.232.19-.405.441-.519.754a3.021 3.021 0 0 0-.166 1.023c0 .373.055.716.166 1.026.114.311.287.56.52.746.234.187.53.281.886.281Zm3.972.833v-5.818h1.095v.924h.06c.107-.313.294-.559.561-.738.27-.182.576-.273.917-.273a4.83 4.83 0 0 1 .481.026v1.084a1.912 1.912 0 0 0-.242-.042 2.274 2.274 0 0 0-.349-.027c-.268 0-.506.057-.716.171a1.263 1.263 0 0 0-.674 1.14v3.553h-1.133Zm9.603.106a3.43 3.43 0 0 1-1.394-.269 2.364 2.364 0 0 1-.966-.746 1.982 1.982 0 0 1-.379-1.114h1.19c.014.23.091.43.23.599.142.167.326.295.553.386.228.091.48.137.758.137.306 0 .576-.053.81-.159a1.33 1.33 0 0 0 .558-.444c.133-.192.2-.413.2-.663 0-.26-.067-.488-.2-.685a1.308 1.308 0 0 0-.58-.47c-.253-.113-.558-.17-.917-.17h-.655v-.955h.655c.288 0 .54-.052.758-.155.22-.104.391-.248.515-.432.124-.187.186-.405.186-.655 0-.24-.055-.449-.163-.625a1.091 1.091 0 0 0-.455-.421 1.477 1.477 0 0 0-.69-.151c-.252 0-.488.046-.708.14a1.307 1.307 0 0 0-.53.394c-.136.169-.21.372-.22.61h-1.132c.013-.419.136-.788.371-1.106a2.4 2.4 0 0 1 .94-.747c.388-.179.82-.269 1.295-.269.497 0 .927.098 1.288.292.363.192.644.448.84.769.2.321.299.672.296 1.053.003.434-.118.803-.364 1.106a1.766 1.766 0 0 1-.97.61v.061c.516.078.915.282 1.198.613.285.331.427.741.424 1.231.003.427-.116.81-.356 1.148a2.423 2.423 0 0 1-.974.799c-.411.192-.882.288-1.412.288Zm6.875.023c-.599-.003-1.11-.16-1.535-.474-.424-.313-.748-.769-.973-1.367-.225-.598-.337-1.319-.337-2.163 0-.841.112-1.559.337-2.155.227-.596.553-1.051.977-1.364.427-.313.937-.47 1.53-.47.594 0 1.103.158 1.527.474.424.313.749.768.974 1.364.227.593.34 1.31.34 2.151 0 .846-.112 1.568-.337 2.167-.224.596-.549 1.052-.973 1.367-.424.313-.934.47-1.53.47Zm0-1.011c.525 0 .935-.257 1.23-.769.299-.513.448-1.254.448-2.224 0-.644-.069-1.188-.205-1.632-.134-.447-.327-.786-.58-1.016a1.27 1.27 0 0 0-.893-.348c-.523 0-.934.257-1.231.773-.298.515-.449 1.256-.451 2.223 0 .647.067 1.193.2 1.64.137.445.33.782.58 1.012.25.227.55.341.902.341Zm9.2.996c-.47 0-.889-.12-1.257-.36a2.455 2.455 0 0 1-.864-1.034c-.207-.45-.31-.989-.31-1.618 0-.628.104-1.166.314-1.613.212-.447.502-.789.871-1.027a2.268 2.268 0 0 1 1.254-.356c.361 0 .651.061.871.182.222.119.394.258.515.417.124.159.22.299.288.42h.068v-2.882h1.133v7.757H93.71v-.905h-.095a2.978 2.978 0 0 1-.295.424c-.126.159-.3.298-.523.417-.222.118-.51.178-.864.178Zm.25-.966c.326 0 .601-.086.826-.258.227-.174.4-.415.515-.723.119-.308.178-.667.178-1.076a2.96 2.96 0 0 0-.174-1.061 1.556 1.556 0 0 0-.511-.708c-.225-.169-.503-.254-.834-.254-.34 0-.625.089-.852.265a1.62 1.62 0 0 0-.515.724 2.94 2.94 0 0 0-.17 1.034c0 .389.058.739.174 1.049.116.311.288.557.515.739.23.179.513.269.848.269Zm5.943.981c-.37 0-.702-.068-1-.205a1.682 1.682 0 0 1-.709-.602c-.171-.263-.257-.585-.257-.966 0-.328.063-.598.19-.81.125-.213.296-.38.51-.504a2.69 2.69 0 0 1 .72-.281c.265-.063.535-.111.81-.143l.85-.099c.216-.028.374-.072.473-.133.098-.06.148-.159.148-.295v-.026c0-.331-.094-.588-.28-.769-.185-.182-.46-.273-.827-.273-.38 0-.681.084-.901.254a1.355 1.355 0 0 0-.45.556l-1.065-.242c.126-.354.31-.639.553-.856a2.23 2.23 0 0 1 .844-.477 3.297 3.297 0 0 1 1.004-.152c.233 0 .479.028.739.084.263.053.508.151.735.295.23.144.418.35.564.617.147.266.22.61.22 1.034v3.864h-1.106v-.795h-.046a1.61 1.61 0 0 1-.33.431 1.752 1.752 0 0 1-.564.353c-.23.093-.505.14-.825.14Zm.246-.909c.313 0 .58-.062.803-.186.225-.124.395-.285.511-.485.119-.202.178-.418.178-.647v-.75a.591.591 0 0 1-.235.113 3.55 3.55 0 0 1-.39.087c-.146.023-.289.045-.428.065l-.348.045a2.86 2.86 0 0 0-.602.14c-.18.066-.324.161-.432.284a.712.712 0 0 0-.16.485c0 .281.104.493.311.637.207.141.471.212.792.212Zm4.641 2.962c-.169 0-.323-.014-.462-.042a1.46 1.46 0 0 1-.311-.083l.273-.928c.207.055.391.079.553.072a.662.662 0 0 0 .428-.182c.126-.114.237-.299.333-.557l.14-.386-2.128-5.894h1.212l1.473 4.515h.061l1.473-4.515h1.216l-2.397 6.595a2.652 2.652 0 0 1-.425.769 1.642 1.642 0 0 1-.613.477 2.012 2.012 0 0 1-.826.159Zm9.686-6.58-1.027.182a1.214 1.214 0 0 0-.205-.375.998.998 0 0 0-.371-.291 1.338 1.338 0 0 0-.587-.114c-.321 0-.588.072-.803.216-.215.141-.322.324-.322.549 0 .195.072.351.216.47.144.118.376.216.697.291l.924.213c.536.123.935.314 1.197.572.263.257.394.592.394 1.003 0 .349-.101.659-.303.932a1.98 1.98 0 0 1-.837.636c-.356.155-.769.232-1.239.232-.651 0-1.183-.139-1.594-.417-.412-.28-.664-.678-.758-1.193l1.095-.167c.068.285.208.501.42.648.212.144.489.216.83.216.371 0 .668-.077.89-.231.222-.157.333-.348.333-.572a.597.597 0 0 0-.204-.459c-.134-.123-.34-.217-.618-.28l-.985-.216c-.542-.124-.944-.321-1.204-.591-.258-.27-.386-.612-.386-1.026 0-.344.096-.644.287-.902.192-.257.458-.458.796-.602.338-.147.726-.22 1.163-.22.629 0 1.124.137 1.485.409.361.27.599.633.716 1.087Z"/><path fill="#96A396" d="M27.388 444.468v.569h-5.796v-.569h5.796Zm0 1.228v.568h-5.796v-.568h5.796Zm-.591-3.353v5.819h-.682l-3.17-4.569h-.057v4.569h-.705v-5.819h.682l3.182 4.58h.057v-4.58h.693Zm1.372 5.819v-.512l1.92-2.102c.226-.246.412-.46.557-.642.146-.184.254-.356.324-.517a1.25 1.25 0 0 0 .108-.511.946.946 0 0 0-.148-.532.958.958 0 0 0-.397-.346 1.282 1.282 0 0 0-.568-.122c-.224 0-.419.046-.586.139a.956.956 0 0 0-.383.383 1.203 1.203 0 0 0-.134.58h-.67c0-.341.078-.64.236-.898.157-.258.37-.458.642-.602.273-.144.578-.216.917-.216.341 0 .643.072.907.216.263.144.47.338.619.582.15.245.224.516.224.816 0 .214-.038.423-.116.627a2.77 2.77 0 0 1-.398.679 12.17 12.17 0 0 1-.781.909l-1.307 1.398v.046h2.705v.625h-3.67Zm5.855-.796-.045.307a6.172 6.172 0 0 1-.148.693c-.064.246-.132.478-.202.696-.07.218-.127.391-.173.52h-.511l.096-.48a17.93 17.93 0 0 0 .222-1.418l.034-.318h.727Zm2.932.875a1.99 1.99 0 0 1-.9-.199 1.667 1.667 0 0 1-.642-.545 1.484 1.484 0 0 1-.265-.79h.682a.934.934 0 0 0 .358.653c.214.171.47.256.767.256a1.188 1.188 0 0 0 1.077-.628c.108-.197.162-.419.162-.667 0-.254-.056-.48-.168-.679a1.233 1.233 0 0 0-.454-.475 1.29 1.29 0 0 0-.662-.176 1.81 1.81 0 0 0-.549.083 1.482 1.482 0 0 0-.463.213l-.659-.08.352-2.864h3.023v.625h-2.432l-.204 1.716h.034a1.53 1.53 0 0 1 .449-.235 1.69 1.69 0 0 1 .562-.094 1.79 1.79 0 0 1 1.611.949c.161.293.242.628.242 1.005 0 .372-.084.703-.25.995a1.828 1.828 0 0 1-.682.687c-.29.167-.62.25-.989.25Zm4.947 0c-.428 0-.793-.116-1.094-.349-.301-.235-.531-.575-.69-1.02-.16-.447-.239-.987-.239-1.619 0-.629.08-1.166.239-1.611.16-.447.392-.788.693-1.023.303-.237.667-.355 1.09-.355.425 0 .788.118 1.089.355.303.235.534.576.693 1.023.161.445.242.982.242 1.611 0 .632-.08 1.172-.24 1.619-.158.445-.388.785-.69 1.02-.3.233-.665.349-1.093.349Zm0-.625c.424 0 .754-.204.989-.613.234-.41.352-.993.352-1.75 0-.504-.054-.933-.162-1.287-.106-.355-.26-.624-.46-.81a1.014 1.014 0 0 0-.72-.278c-.42 0-.748.207-.985.622-.237.413-.355.997-.355 1.753 0 .503.053.931.159 1.284.106.352.259.62.457.804.201.183.443.275.725.275Zm5 .625c-.428 0-.793-.116-1.094-.349-.301-.235-.531-.575-.69-1.02-.16-.447-.239-.987-.239-1.619 0-.629.08-1.166.239-1.611.16-.447.392-.788.693-1.023.303-.237.667-.355 1.09-.355.425 0 .788.118 1.089.355.303.235.534.576.693 1.023.161.445.242.982.242 1.611 0 .632-.08 1.172-.24 1.619-.158.445-.388.785-.69 1.02-.3.233-.665.349-1.093.349Zm0-.625c.424 0 .754-.204.989-.613.234-.41.352-.993.352-1.75 0-.504-.054-.933-.162-1.287-.106-.355-.26-.624-.46-.81a1.014 1.014 0 0 0-.72-.278c-.42 0-.748.207-.985.622-.237.413-.355.997-.355 1.753 0 .503.053.931.159 1.284.106.352.259.62.457.804.201.183.443.275.725.275Z"/></g><rect width="14.667" height="14.667" x="217.411" y="429.661" stroke="#16CB3E" stroke-width="1.333" rx="7.333"/><circle cx="224.744" cy="436.995" r="4.667" fill="#16CB3E"/></g><path fill="#16CB3E" d="M10.744 528.418c0-5.968 0-8.952 1.162-11.232a10.654 10.654 0 0 1 4.657-4.657c2.28-1.162 5.264-1.162 11.232-1.162h206.347c5.968 0 8.952 0 11.232 1.162a10.656 10.656 0 0 1 4.657 4.657c1.162 2.28 1.162 5.264 1.162 11.232v3.197c0 5.969 0 8.953-1.162 11.233a10.661 10.661 0 0 1-4.657 4.657c-2.28 1.162-5.264 1.162-11.232 1.162H27.795c-5.968 0-8.952 0-11.232-1.162a10.659 10.659 0 0 1-4.657-4.657c-1.162-2.28-1.162-5.264-1.162-11.233v-3.197Z"/><path fill="#000" d="M114.842 528.877h-1.416a1.765 1.765 0 0 0-.224-.617 1.672 1.672 0 0 0-.405-.463 1.696 1.696 0 0 0-.553-.284 2.182 2.182 0 0 0-.663-.098c-.422 0-.796.106-1.121.318-.326.21-.581.518-.765.924-.185.404-.277.898-.277 1.481 0 .594.092 1.094.277 1.5.186.404.442.71.765.917a2.05 2.05 0 0 0 1.117.307c.232 0 .45-.031.652-.091.204-.063.387-.155.549-.277a1.69 1.69 0 0 0 .648-1.053l1.416.008a3.082 3.082 0 0 1-1.03 1.894 3.172 3.172 0 0 1-.992.576c-.379.136-.8.204-1.262.204-.682 0-1.29-.158-1.826-.473-.535-.316-.957-.772-1.265-1.368-.308-.596-.462-1.31-.462-2.144 0-.836.155-1.55.466-2.144.311-.596.734-1.051 1.269-1.367.535-.316 1.141-.474 1.818-.474.432 0 .834.061 1.205.182.371.121.702.3.992.534.291.233.529.518.716.856.189.336.313.72.371 1.152Zm3.765 5.254c-.569 0-1.061-.125-1.478-.375-.416-.25-.74-.6-.969-1.05-.228-.449-.341-.974-.341-1.575s.113-1.128.341-1.58c.229-.452.553-.803.969-1.053.417-.25.909-.375 1.478-.375.568 0 1.06.125 1.477.375.416.25.738.601.966 1.053.23.452.344.979.344 1.58 0 .601-.114 1.126-.344 1.575-.228.45-.55.8-.966 1.05-.417.25-.909.375-1.477.375Zm.007-1.099c.308 0 .566-.084.773-.254.207-.171.361-.401.462-.689.103-.288.155-.609.155-.962 0-.356-.052-.678-.155-.966a1.532 1.532 0 0 0-.462-.693 1.17 1.17 0 0 0-.773-.258c-.316 0-.578.086-.788.258a1.563 1.563 0 0 0-.466.693c-.101.288-.151.61-.151.966 0 .353.05.674.151.962.104.288.259.518.466.689.21.17.472.254.788.254Zm5.315-2.424v3.409h-1.371v-5.818h1.311v.989h.068c.134-.326.347-.585.64-.777.296-.192.661-.288 1.095-.288.401 0 .751.086 1.049.258.301.171.533.42.697.746.167.326.249.721.246 1.186v3.704h-1.371v-3.492c0-.389-.101-.694-.303-.913-.199-.22-.476-.33-.83-.33-.239 0-.453.053-.64.159a1.107 1.107 0 0 0-.435.451 1.518 1.518 0 0 0-.156.716Zm8.035-2.409v1.061h-3.345v-1.061h3.345Zm-2.519-1.394h1.371v5.462c0 .184.028.326.083.424a.449.449 0 0 0 .227.197.86.86 0 0 0 .311.053c.086 0 .164-.006.235-.019.073-.012.129-.024.167-.034l.231 1.072a2.596 2.596 0 0 1-.807.137 2.23 2.23 0 0 1-.928-.156 1.44 1.44 0 0 1-.656-.538c-.159-.242-.237-.545-.234-.909v-5.689Zm3.665 7.212v-5.818h1.372v5.818h-1.372Zm.69-6.644a.802.802 0 0 1-.561-.216.697.697 0 0 1-.235-.526c0-.207.079-.383.235-.527a.796.796 0 0 1 .561-.219c.219 0 .406.073.56.219.157.144.235.32.235.527 0 .204-.078.38-.235.526a.79.79 0 0 1-.56.216Zm3.463 3.235v3.409h-1.371v-5.818h1.31v.989h.068a1.67 1.67 0 0 1 .64-.777c.296-.192.661-.288 1.095-.288.402 0 .751.086 1.049.258.301.171.533.42.697.746.167.326.249.721.247 1.186v3.704h-1.372v-3.492c0-.389-.101-.694-.303-.913-.199-.22-.476-.33-.829-.33-.24 0-.453.053-.64.159-.185.104-.33.254-.436.451a1.53 1.53 0 0 0-.155.716Zm8.837.962v-3.371h1.371v5.818h-1.329v-1.034h-.061a1.743 1.743 0 0 1-.648.799c-.298.207-.665.311-1.102.311-.381 0-.718-.085-1.011-.254a1.76 1.76 0 0 1-.682-.746c-.164-.328-.246-.725-.246-1.19v-3.704h1.371v3.492c0 .369.101.662.303.879.202.217.467.326.795.326.202 0 .398-.049.587-.148.19-.098.345-.245.466-.439.124-.197.186-.443.186-.739Zm5.357 2.561c-.583 0-1.087-.121-1.511-.364a2.46 2.46 0 0 1-.974-1.038c-.227-.449-.341-.978-.341-1.587 0-.598.114-1.124.341-1.576.23-.454.551-.808.962-1.06.412-.255.895-.383 1.451-.383.359 0 .697.058 1.015.174a2.3 2.3 0 0 1 .849.531 2.5 2.5 0 0 1 .583.916c.141.369.212.808.212 1.319v.42h-4.769v-.924h3.455a1.483 1.483 0 0 0-.171-.701 1.239 1.239 0 0 0-.466-.489 1.316 1.316 0 0 0-.689-.178c-.28 0-.527.069-.739.205a1.41 1.41 0 0 0-.496.53 1.534 1.534 0 0 0-.178.716v.807c0 .338.062.629.186.871.123.24.296.424.519.553.222.126.482.19.78.19.199 0 .38-.028.542-.084.161-.058.301-.142.42-.254.119-.111.208-.248.269-.412l1.28.143a2.002 2.002 0 0 1-.462.887c-.225.25-.513.444-.864.583a3.292 3.292 0 0 1-1.204.205Z"/></g></g><defs><clipPath id="a"><rect width="262" height="570" x=".078" fill="#fff" rx="32"/></clipPath><clipPath id="b"><rect width="27.901" height="27.9" x="11.238" y="39.724" fill="#fff" rx="13.95"/></clipPath><clipPath id="c"><rect width="26.667" height="26.667" x="224.744" y="81.495" fill="#fff" rx="13.333"/></clipPath><clipPath id="e"><path fill="#fff" d="M10.744 154.328c0-5.891 4.776-10.666 10.667-10.666h219.333c5.891 0 10.667 4.775 10.667 10.666v298.667c0 5.891-4.776 10.667-10.667 10.667H21.411c-5.891 0-10.667-4.776-10.667-10.667V154.328Z"/></clipPath><clipPath id="f"><path fill="#fff" d="M21.41 156.162h176.668v28.333H21.41z"/></clipPath><clipPath id="g"><path fill="#fff" d="M21.41 209.495h176.668v28.333H21.41z"/></clipPath><clipPath id="h"><path fill="#fff" d="M21.41 262.828h176.668v28.333H21.41z"/></clipPath><clipPath id="i"><path fill="#fff" d="M21.41 316.162h176.668v28.333H21.41z"/></clipPath><clipPath id="j"><path fill="#fff" d="M21.41 369.495h176.668v28.333H21.41z"/></clipPath><clipPath id="k"><path fill="#fff" d="M21.41 422.828h176.668v28.333H21.41z"/></clipPath><filter id="d" width="264.667" height="429.005" x="-1.256" y="142.328" color-interpolation-filters="sRGB" filterUnits="userSpaceOnUse"><feFlood flood-opacity="0" result="BackgroundImageFix"/><feColorMatrix in="SourceAlpha" result="hardAlpha" values="0 0 0 0 0 0 0 0 0 0 0 0 0 0 0 0 0 0 127 0"/><feOffset/><feGaussianBlur stdDeviation=".667"/><feColorMatrix values="0 0 0 0 0 0 0 0 0 0 0 0 0 0 0 0 0 0 0.05 0"/><feBlend in2="BackgroundImageFix" result="effect1_dropShadow_657_5953"/><feBlend in="SourceGraphic" in2="effect1_dropShadow_657_5953" result="shape"/></filter></defs></svg>