<svg xmlns="http://www.w3.org/2000/svg" width="263" height="570" fill="none"><rect width="262.923" height="570" x=".078" fill="#000501" rx="32"/><g clip-path="url(#a)"><path fill="#004202" stroke="#000" stroke-miterlimit="10" stroke-width=".22" d="M177.3 222.601v-.035c.079-.678.141-1.355.194-2.024.008-.167.026-.335.035-.502.044-.651.07-1.303.088-1.945v-.062c.017-.66 0-1.32 0-1.98 0-.167-.009-.326-.018-.493a42.431 42.431 0 0 0-.097-1.866v-.097a44.66 44.66 0 0 0-.202-1.919c-.018-.158-.044-.317-.062-.475a38.84 38.84 0 0 0-.273-1.787c0-.035-.008-.07-.017-.114-.115-.625-.247-1.233-.379-1.849l-.105-.457a33.949 33.949 0 0 0-.44-1.69c-.009-.044-.027-.088-.036-.132-.167-.599-.36-1.18-.554-1.761-.053-.15-.097-.29-.15-.44a50.434 50.434 0 0 0-.589-1.593 1.189 1.189 0 0 0-.062-.15 40.301 40.301 0 0 0-.722-1.672c-.061-.141-.132-.273-.193-.414a39.575 39.575 0 0 0-.819-1.637c-.282-.528-.581-1.047-.88-1.567l-.229-.387a44.452 44.452 0 0 0-.872-1.382l-.105-.158a44.619 44.619 0 0 0-1.03-1.453 5.508 5.508 0 0 0-.273-.352c-.325-.431-.66-.845-1.003-1.259l-.132-.158a33.544 33.544 0 0 0-1.18-1.329c-.097-.106-.202-.211-.299-.326a26.998 26.998 0 0 0-1.118-1.126l-.158-.159a55.807 55.807 0 0 0-1.312-1.188c-.114-.097-.22-.194-.334-.282-.141-.123-.282-.246-.432-.369l-1.54-1.268-1.311-1.074-1.021-.836c-.265-.22-.537-.431-.819-.642a2.378 2.378 0 0 1-.167-.133 44.67 44.67 0 0 0-1.444-1.047c-.123-.079-.237-.167-.361-.246a32.016 32.016 0 0 0-1.382-.889l-.158-.106a34.904 34.904 0 0 0-1.567-.889l-.396-.211a29.96 29.96 0 0 0-1.523-.757c-.044-.018-.088-.044-.14-.062a36.81 36.81 0 0 0-1.69-.722c-.141-.052-.282-.114-.423-.167a51.8 51.8 0 0 0-1.655-.607c-.035-.009-.07-.027-.105-.035a38.17 38.17 0 0 0-1.796-.546c-.15-.044-.299-.079-.458-.123a40.527 40.527 0 0 0-1.804-.44.162.162 0 0 1-.062-.018 45.85 45.85 0 0 0-1.901-.361l-.475-.079c-.652-.097-1.303-.194-1.963-.255-23.809-2.509-47.452 15.614-52.83 40.471-.15.695-.281 1.382-.396 2.069-.026.176-.061.343-.088.519-.105.678-.21 1.347-.29 2.016v.035a52.97 52.97 0 0 0-.194 2.024c-.009.167-.026.335-.035.502-.044.651-.07 1.303-.088 1.945v.062c-.018.66 0 1.32 0 1.98 0 .167.009.326.018.493.017.625.052 1.25.096 1.875v.088c.053.643.124 1.285.203 1.919.017.158.044.317.061.475.08.599.168 1.197.273 1.787 0 .035.01.07.018.114.114.625.246 1.233.378 1.849.036.149.07.308.106.457.132.573.282 1.136.44 1.699.009.044.026.088.035.132.168.599.361 1.18.555 1.761.053.149.097.29.15.44.184.537.387 1.074.598 1.602.018.044.035.097.053.141.229.563.475 1.117.722 1.672.061.141.132.273.193.414.238.501.484 1.003.74 1.496.026.053.052.106.079.15.282.528.58 1.056.88 1.566.08.132.15.256.229.388a46.455 46.455 0 0 0 .977 1.54 42.1 42.1 0 0 0 1.03 1.452c.088.124.176.238.273.352.325.432.66.845 1.003 1.259l.132.159c.379.448.775.889 1.18 1.329.096.105.202.211.299.325.36.388.74.766 1.118 1.127l.158.158c.423.405.863.801 1.312 1.189.114.097.22.193.334.29.14.123.282.247.431.361.317.264.669.546 1.021.836l2.852 2.342c.264.22.546.431.819.642.061.044.114.088.167.132.475.361.951.704 1.444 1.048.123.079.237.167.36.246.458.308.916.607 1.382.889.053.035.106.07.159.097.51.308 1.038.607 1.567.889l.396.211a46.43 46.43 0 0 0 1.514.757c.044.026.096.044.14.07.555.256 1.118.493 1.69.722.141.053.282.115.423.167.546.212 1.1.414 1.663.608.036.009.071.026.106.035.59.194 1.188.379 1.796.546.149.044.299.079.449.123.598.158 1.197.308 1.804.44a.13.13 0 0 1 .062.018c.625.132 1.258.255 1.901.361l.475.079c.652.097 1.303.193 1.963.255 23.783 2.5 47.416-15.623 52.794-40.472.15-.695.282-1.381.396-2.068.027-.176.062-.343.088-.519.106-.678.212-1.347.291-2.016l.044-.018Zm-75.741 35.076s-.044-.035-.062-.061c.009 0 .018.017.027.017.026.018.044.044.07.062-.009 0-.026-.018-.035-.026v.008Zm59.959-73.188s.044.035.062.061c-.009 0-.018-.017-.027-.017-.026-.018-.044-.044-.07-.062.009 0 .026.018.035.027v-.009ZM121.9 255.054a30.723 30.723 0 0 1-2.068-.29c-.203-.035-.405-.079-.608-.115a39.091 39.091 0 0 1-1.47-.316 11.87 11.87 0 0 1-.598-.15 29.743 29.743 0 0 1-1.804-.528c-.044-.009-.08-.027-.124-.035a31.296 31.296 0 0 1-1.857-.696 60.223 60.223 0 0 1-1.84-.827c-.176-.088-.36-.176-.536-.264a31.433 31.433 0 0 1-1.506-.836l-.184-.106c-.493-.299-.96-.607-1.435-.933-.379-.37-.748-.739-1.1-1.127a7.137 7.137 0 0 1-.352-.405c-.317-.36-.625-.721-.925-1.091-.123-.15-.246-.299-.361-.458a27.136 27.136 0 0 1-1.012-1.39c-.044-.062-.079-.115-.123-.168a27.986 27.986 0 0 1-1.021-1.628c-.088-.158-.176-.317-.273-.475a25.637 25.637 0 0 1-.678-1.277l-.264-.528a38.722 38.722 0 0 1-.73-1.628c-.027-.053-.044-.106-.071-.159a33.066 33.066 0 0 1-.677-1.848 9.672 9.672 0 0 1-.168-.546c-.15-.466-.281-.95-.413-1.426a31.635 31.635 0 0 1-.555-2.438c0-.044-.018-.079-.026-.123a30.269 30.269 0 0 1-.3-2.024 13.102 13.102 0 0 1-.061-.59 29.522 29.522 0 0 1-.123-1.54c-.01-.212-.027-.414-.036-.625a39.387 39.387 0 0 1-.026-2.042v-.08a35.34 35.34 0 0 1 .114-2.147c.018-.212.036-.423.062-.634.053-.537.114-1.083.194-1.62.026-.211.061-.431.088-.642.114-.731.246-1.47.404-2.21 4.269-19.637 22.947-33.958 41.74-31.977.704.07 1.39.176 2.068.29.202.036.405.08.607.115a38.674 38.674 0 0 1 2.069.466c.616.159 1.215.335 1.813.528.035.009.079.027.114.036.634.211 1.25.448 1.858.695.176.07.352.15.528.229.44.193.88.387 1.311.598.176.088.361.176.537.264.511.264 1.012.537 1.505.837l.185.105c.493.299.96.608 1.435.933.378.37.748.74 1.1 1.127.123.132.238.264.352.396.317.361.625.722.924 1.091.124.15.247.3.361.458.352.449.687.915 1.013 1.391.035.053.079.114.123.167.361.528.695 1.074 1.021 1.628l.264.476c.238.422.466.845.678 1.276l.264.528c.255.537.501 1.083.73 1.637.018.053.044.106.071.159.246.607.466 1.223.677 1.848.062.176.115.361.168.546.149.475.281.95.413 1.426a33.35 33.35 0 0 1 .555 2.438c0 .044.018.079.026.123a30.268 30.268 0 0 1 .361 2.614c.053.511.097 1.021.123 1.541.009.211.027.413.036.625.026.677.035 1.355.026 2.042v.079a36.329 36.329 0 0 1-.114 2.148c-.018.211-.036.422-.062.633a34.48 34.48 0 0 1-.194 1.62c-.026.22-.061.431-.096.651-.115.731-.247 1.47-.405 2.21-4.252 19.637-22.938 33.958-41.722 31.986v-.018Z"/><path fill="#0C2801" d="m156.985 206.926-3.873-3.178-30.199 23.149-7.517-11.169-3.873-3.178-7.042 5.404 14.682 21.838 3.873 3.178 38.394-29.434-4.445-6.61Z"/><path fill="#16CB3E" stroke="#000" stroke-miterlimit="10" stroke-width=".22" d="m111.522 212.55 3.873 3.177 10.246 15.228-3.873-3.178-10.246-15.227Z"/><path fill="#AFFC92" stroke="#000" stroke-miterlimit="10" stroke-width=".22" d="m153.112 203.748 4.445 6.61-38.394 29.434-14.682-21.838 7.042-5.404 10.246 15.227 31.343-24.029Z"/><path fill="#004202" stroke="#000" stroke-miterlimit="10" stroke-width=".22" d="m130.694 230.955 3.873 3.178-11.531 8.837-3.873-3.178 11.531-8.837Zm3.512-2.694 3.872 3.178-1.98 1.522-3.873-3.177 1.981-1.523Z"/><path fill="#16CB3E" stroke="#000" stroke-miterlimit="10" stroke-width=".22" d="m153.112 203.748 3.873 3.178 4.445 6.61-3.873-3.178-4.445-6.61Zm-13.766-29.258 3.873 3.177c23.783 2.5 38.693 24.672 33.306 49.529l-3.873-3.177c5.387-24.857-9.523-47.029-33.306-49.529Zm35.366 59.053a51.883 51.883 0 0 1-4.04 8.67l-3.873-3.178a52.09 52.09 0 0 0 4.049-8.661l3.864 3.169Z"/><path fill="#AFFC92" d="M139.346 174.49c23.783 2.5 38.694 24.672 33.307 49.529-5.387 24.857-29.02 42.971-52.795 40.472-23.774-2.5-38.693-24.672-33.306-49.52 5.378-24.857 29.02-42.981 52.794-40.481Zm-17.445 80.565c18.792 1.971 37.47-12.341 41.721-31.987 4.251-19.646-7.535-37.162-26.318-39.142-18.792-1.972-37.47 12.34-41.721 31.986-4.252 19.638 7.534 37.162 26.326 39.134"/><path stroke="#000" stroke-miterlimit="10" stroke-width=".22" d="M121.901 255.055c18.792 1.971 37.47-12.341 41.721-31.987 4.251-19.646-7.535-37.162-26.318-39.142-18.792-1.972-37.47 12.34-41.721 31.986-4.252 19.638 7.534 37.162 26.326 39.134m17.437-80.556c23.783 2.5 38.694 24.672 33.307 49.529-5.387 24.857-29.02 42.971-52.795 40.472-23.774-2.5-38.693-24.672-33.306-49.52 5.378-24.857 29.02-42.981 52.794-40.481Z"/><path fill="#fff" stroke="#000" stroke-linecap="round" stroke-linejoin="round" stroke-width=".22" d="M98.584 195.122a3.177 3.177 0 1 0 .001-6.355 3.177 3.177 0 0 0 0 6.355Z"/><path fill="#EDEDED" d="M101.753 192.182a3.175 3.175 0 0 1-3.407 2.931 3.17 3.17 0 0 1-2.376-1.355 3.175 3.175 0 0 0 5.351-2.069 3.205 3.205 0 0 0-.563-2.06 3.17 3.17 0 0 1 .986 2.553h.009Zm-4.59-1.877c.291-.251.466-.526.39-.614-.076-.089-.374.043-.665.293-.291.251-.466.526-.39.614.077.089.374-.043.665-.293Z"/><path stroke="#000" stroke-linecap="round" stroke-linejoin="round" stroke-width=".22" d="M98.584 195.122a3.177 3.177 0 1 0 .001-6.355 3.177 3.177 0 0 0 0 6.355Z"/><path fill="#5D5BED" stroke="#000" stroke-miterlimit="10" stroke-width=".22" d="M148.219 251.244c-.08.58.105 1.179.545 1.628l6.443 6.531a1.958 1.958 0 0 0 2.764.018 1.947 1.947 0 0 0 .027-2.764l-6.444-6.531a1.948 1.948 0 0 0-2.614-.15c-.053.044-.097.079-.149.132a1.917 1.917 0 0 0-.564 1.136h-.008Z"/><path fill="#A0A3FF" d="M148.491 250.98a1.95 1.95 0 0 0 .546 1.628l6.443 6.531a1.949 1.949 0 0 0 2.623.141 1.949 1.949 0 0 0-.106-2.623l-2.949-2.993-.044-.044-.052-.053-.071-.07-.061-.062-.071-.07-3.204-3.248a1.966 1.966 0 0 0-2.367-.326c-.088.053-.176.106-.256.176a1.92 1.92 0 0 0-.44 1.004l.009.009Z"/><path fill="#fff" d="M149.187 249.8c1.188-.651 4.559 2.562 5.562 3.565l-3.204-3.248a1.966 1.966 0 0 0-2.367-.326l.009.009Z"/><path stroke="#000" stroke-miterlimit="10" stroke-width=".22" d="M148.219 251.244c-.08.58.105 1.179.545 1.628l6.443 6.531a1.958 1.958 0 0 0 2.764.018 1.947 1.947 0 0 0 .027-2.764l-6.444-6.531a1.948 1.948 0 0 0-2.614-.15c-.053.044-.097.079-.149.132a1.917 1.917 0 0 0-.564 1.136h-.008Z"/></g><path fill="#fff" d="M101.418 314.15H99.16l4.111-11.677h2.611l4.117 11.677h-2.258l-3.119-9.282h-.091l-3.113 9.282Zm.074-4.578h6.158v1.699h-6.158v-1.699Zm11.697-7.099v11.677h-2.064v-11.677h2.064Zm3.865 0v11.677h-2.064v-11.677h2.064Zm8.713 11.831a3.307 3.307 0 0 1-1.847-.53c-.544-.353-.973-.867-1.289-1.539-.315-.673-.473-1.49-.473-2.452 0-.973.159-1.794.479-2.463.323-.673.758-1.181 1.306-1.523a3.353 3.353 0 0 1 1.83-.519c.513 0 .935.088 1.266.263.33.171.593.378.786.621.194.24.344.466.451.679h.085v-4.368h2.07v11.677h-2.03v-1.379h-.125a3.54 3.54 0 0 1-.462.678 2.521 2.521 0 0 1-.798.604c-.331.168-.747.251-1.249.251Zm.576-1.693c.437 0 .81-.118 1.118-.354.307-.239.541-.572.701-.997.16-.426.239-.922.239-1.489 0-.566-.079-1.058-.239-1.476-.156-.419-.388-.744-.696-.975-.304-.232-.678-.348-1.123-.348-.46 0-.844.12-1.152.359-.308.239-.54.57-.695.992a4.161 4.161 0 0 0-.234 1.448c0 .548.078 1.036.234 1.466.159.425.393.762.701 1.009.312.243.694.365 1.146.365Zm9.787 1.71c-.856 0-1.597-.188-2.224-.564a3.837 3.837 0 0 1-1.46-1.579c-.342-.677-.513-1.468-.513-2.372 0-.905.171-1.698.513-2.378a3.828 3.828 0 0 1 1.46-1.585c.627-.376 1.368-.565 2.224-.565.855 0 1.596.189 2.223.565a3.782 3.782 0 0 1 1.454 1.585c.346.68.519 1.473.519 2.378 0 .904-.173 1.695-.519 2.372a3.79 3.79 0 0 1-1.454 1.579c-.627.376-1.368.564-2.223.564Zm.011-1.653c.464 0 .852-.127 1.163-.382a2.3 2.3 0 0 0 .696-1.038 4.25 4.25 0 0 0 .234-1.448c0-.536-.078-1.021-.234-1.454-.152-.437-.384-.785-.696-1.044-.311-.258-.699-.387-1.163-.387-.475 0-.87.129-1.186.387-.312.259-.545.607-.701 1.044a4.37 4.37 0 0 0-.228 1.454c0 .532.076 1.015.228 1.448.156.434.389.779.701 1.038.316.255.711.382 1.186.382Zm7.68-3.649v5.131h-2.064v-8.758h1.973v1.489h.103c.201-.491.522-.88.963-1.169.445-.289.994-.434 1.648-.434.604 0 1.131.13 1.579.388a2.62 2.62 0 0 1 1.05 1.123c.25.491.374 1.086.37 1.785v5.576h-2.064v-5.257c0-.585-.152-1.043-.456-1.374-.3-.331-.717-.496-1.249-.496-.361 0-.682.08-.963.24a1.656 1.656 0 0 0-.656.678c-.156.297-.234.656-.234 1.078Zm11.277 5.302c-.879 0-1.637-.182-2.276-.547a3.71 3.71 0 0 1-1.465-1.562c-.342-.677-.513-1.473-.513-2.389 0-.901.171-1.692.513-2.372a3.887 3.887 0 0 1 1.448-1.597c.62-.384 1.348-.576 2.184-.576.54 0 1.049.088 1.528.263.483.171.909.437 1.277.798.373.361.666.821.879 1.38.212.555.319 1.216.319 1.984v.633h-7.179v-1.391h5.2a2.213 2.213 0 0 0-.256-1.055 1.87 1.87 0 0 0-.702-.736 1.975 1.975 0 0 0-1.037-.268c-.422 0-.793.103-1.112.308a2.135 2.135 0 0 0-.747.798 2.301 2.301 0 0 0-.268 1.078v1.215c0 .509.093.946.279 1.311.187.361.447.639.781.832.335.191.726.286 1.175.286.3 0 .572-.042.815-.126.244-.087.455-.215.633-.382.179-.167.314-.374.405-.621l1.927.216c-.121.51-.353.954-.695 1.334a3.404 3.404 0 0 1-1.3.879c-.529.205-1.133.307-1.813.307Zm7.845-11.848-.188 8.245h-1.836l-.183-8.245h2.207Zm-1.106 11.803c-.346 0-.643-.122-.89-.365a1.212 1.212 0 0 1-.365-.89 1.2 1.2 0 0 1 .365-.878c.247-.243.544-.365.89-.365.338 0 .631.122.878.365.251.244.376.536.376.878 0 .232-.059.443-.177.633a1.31 1.31 0 0 1-.456.456 1.188 1.188 0 0 1-.621.166Z"/><path fill="#96A396" d="M35.62 336.07h1.08l2.16 3.634h.09l2.16-3.634h1.08l-2.813 4.576v3.208h-.943v-3.208l-2.813-4.576Zm9.213 7.906c-.527 0-.99-.125-1.387-.376a2.557 2.557 0 0 1-.928-1.053c-.22-.451-.33-.978-.33-1.581 0-.609.11-1.14.33-1.593a2.55 2.55 0 0 1 .928-1.057c.398-.251.86-.376 1.387-.376s.988.125 1.384.376c.398.251.707.603.927 1.057.223.453.335.984.335 1.593 0 .603-.112 1.13-.335 1.581-.22.451-.53.802-.927 1.053-.396.251-.857.376-1.384.376Zm0-.806c.4 0 .73-.102.988-.308a1.81 1.81 0 0 0 .574-.809c.125-.335.187-.697.187-1.087a3.11 3.11 0 0 0-.187-1.091 1.842 1.842 0 0 0-.574-.818c-.258-.207-.587-.311-.988-.311-.4 0-.73.104-.988.311-.259.208-.45.481-.574.818-.124.337-.186.7-.186 1.091 0 .39.062.752.186 1.087.124.334.315.604.574.809.258.206.588.308.988.308Zm7.695-1.703v-3.451h.897v5.838h-.897v-.988h-.061c-.137.297-.35.549-.639.757-.289.205-.654.308-1.094.308-.365 0-.69-.08-.974-.24a1.672 1.672 0 0 1-.669-.73c-.162-.327-.243-.738-.243-1.235v-3.71h.897v3.649c0 .426.12.765.358 1.019.24.253.547.38.92.38.222 0 .45-.057.68-.171a1.48 1.48 0 0 0 .585-.525c.16-.235.24-.536.24-.901Zm2.54 2.387v-5.838h.867v.882h.06c.107-.289.3-.524.578-.704.279-.179.593-.269.943-.269l.247.003c.099.003.174.007.224.012v.912c-.03-.008-.1-.019-.209-.034a2.029 2.029 0 0 0-.338-.027c-.284 0-.537.06-.76.179a1.35 1.35 0 0 0-.525.486c-.127.206-.19.44-.19.704v3.694h-.897Zm6.993 2.19v-8.028h.867v.927h.106c.066-.101.157-.23.274-.387.12-.16.289-.302.51-.426.222-.127.524-.19.904-.19.492 0 .925.123 1.3.369.375.245.668.594.878 1.045.21.451.316.983.316 1.596 0 .619-.105 1.155-.316 1.608-.21.451-.502.801-.874 1.049a2.285 2.285 0 0 1-1.289.369c-.375 0-.675-.062-.9-.186-.226-.127-.4-.27-.521-.43a5.565 5.565 0 0 1-.282-.403h-.076v3.087h-.897Zm.882-5.109c0 .441.065.83.194 1.167.13.335.318.597.566.787.249.188.553.281.913.281.375 0 .688-.099.939-.296.253-.2.443-.469.57-.806a3.17 3.17 0 0 0 .194-1.133c0-.41-.064-.78-.19-1.11a1.718 1.718 0 0 0-.567-.787c-.25-.195-.566-.292-.946-.292-.365 0-.672.092-.92.277a1.671 1.671 0 0 0-.563.768c-.127.327-.19.708-.19 1.144Zm9.32.532v-3.451h.898v5.838h-.897v-.988h-.061c-.137.297-.35.549-.639.757-.289.205-.654.308-1.094.308-.365 0-.69-.08-.974-.24a1.672 1.672 0 0 1-.669-.73c-.162-.327-.243-.738-.243-1.235v-3.71h.897v3.649c0 .426.12.765.358 1.019.24.253.547.38.92.38.222 0 .45-.057.68-.171a1.48 1.48 0 0 0 .585-.525c.16-.235.24-.536.24-.901Zm2.54 2.387v-5.838h.868v.882h.06c.107-.289.3-.524.578-.704.279-.179.593-.269.943-.269l.247.003c.099.003.174.007.224.012v.912c-.03-.008-.1-.019-.209-.034a2.029 2.029 0 0 0-.338-.027c-.284 0-.538.06-.76.179a1.35 1.35 0 0 0-.525.486c-.127.206-.19.44-.19.704v3.694h-.897Zm6.178.122c-.548 0-1.019-.129-1.414-.388a2.522 2.522 0 0 1-.913-1.068c-.212-.453-.319-.972-.319-1.554 0-.593.11-1.117.327-1.57.22-.456.527-.813.92-1.068.395-.259.857-.388 1.384-.388.41 0 .78.076 1.11.228.329.152.599.365.81.638.21.274.34.593.39.958h-.896a1.394 1.394 0 0 0-.456-.707c-.234-.207-.548-.311-.943-.311-.35 0-.657.091-.92.273-.261.18-.465.435-.612.764-.144.327-.217.711-.217 1.152 0 .451.071.844.213 1.179.145.334.347.594.608.779.264.185.573.277.928.277.233 0 .445-.04.635-.121a1.309 1.309 0 0 0 .764-.897h.897a2.08 2.08 0 0 1-1.163 1.585 2.545 2.545 0 0 1-1.133.239Zm4.504-3.634v3.512h-.897v-7.784h.897v2.858h.076a1.65 1.65 0 0 1 .616-.718c.276-.18.644-.27 1.102-.27.398 0 .747.08 1.046.239.299.157.53.399.695.726.168.325.251.738.251 1.24v3.709h-.897v-3.649c0-.463-.12-.822-.361-1.075-.238-.256-.569-.384-.992-.384-.294 0-.558.062-.79.186a1.36 1.36 0 0 0-.548.543c-.132.239-.198.528-.198.867Zm7.146 3.649c-.37 0-.706-.069-1.008-.209a1.73 1.73 0 0 1-.718-.612c-.178-.268-.266-.593-.266-.973 0-.334.066-.605.197-.813.132-.211.308-.375.529-.494.22-.12.464-.208.73-.267.268-.06.538-.109.81-.144.354-.046.642-.08.862-.103.223-.025.385-.067.487-.125.104-.058.155-.16.155-.304v-.031c0-.375-.102-.666-.307-.874-.203-.208-.511-.312-.924-.312-.428 0-.764.094-1.007.282-.244.187-.415.387-.514.6l-.851-.304c.152-.355.355-.631.608-.828a2.28 2.28 0 0 1 .836-.419c.305-.081.604-.121.897-.121.188 0 .403.023.647.068.246.043.483.133.71.27.231.137.422.343.575.62.152.276.228.646.228 1.11v3.846h-.898v-.79h-.045c-.06.127-.162.262-.304.407-.142.144-.33.267-.567.368-.235.102-.523.152-.862.152Zm.136-.806c.355 0 .654-.069.898-.209a1.423 1.423 0 0 0 .744-1.235v-.821c-.038.046-.121.087-.25.125a3.903 3.903 0 0 1-.441.095 16.292 16.292 0 0 1-.86.114 3.43 3.43 0 0 0-.653.149 1.13 1.13 0 0 0-.487.3c-.121.132-.182.312-.182.54 0 .311.115.547.346.707.233.157.528.235.885.235Zm8.313-3.862-.806.229a1.525 1.525 0 0 0-.224-.392 1.09 1.09 0 0 0-.396-.319c-.167-.084-.381-.126-.642-.126-.358 0-.655.083-.893.247-.236.163-.354.369-.354.62 0 .223.081.399.243.528.163.13.416.237.76.323l.867.213c.522.127.911.321 1.167.582.256.258.384.592.384 1 0 .334-.096.633-.289.897-.19.263-.456.471-.798.623-.342.152-.74.228-1.194.228-.595 0-1.088-.129-1.478-.388-.39-.258-.638-.636-.742-1.132l.852-.213c.081.314.234.55.46.707.228.157.526.235.893.235.418 0 .75-.088.996-.266.248-.18.373-.395.373-.646a.678.678 0 0 0-.213-.509c-.142-.14-.36-.243-.654-.312l-.973-.228c-.535-.127-.928-.323-1.178-.589-.249-.269-.373-.605-.373-1.007 0-.33.093-.621.278-.875.187-.253.442-.452.763-.597a2.69 2.69 0 0 1 1.103-.216c.578 0 1.031.127 1.361.38.332.253.567.588.707 1.003Zm3.905 4.653c-.563 0-1.048-.124-1.456-.372a2.494 2.494 0 0 1-.939-1.05c-.218-.451-.327-.975-.327-1.573s.109-1.125.327-1.582a2.57 2.57 0 0 1 .92-1.071c.395-.259.856-.388 1.383-.388.304 0 .605.05.901.152.297.101.567.266.81.494.243.226.437.525.581.897.145.373.217.831.217 1.376v.38h-4.501v-.775h3.589c0-.33-.066-.624-.198-.882a1.48 1.48 0 0 0-.555-.612 1.548 1.548 0 0 0-.844-.224c-.357 0-.666.088-.927.266a1.746 1.746 0 0 0-.597.684 2.015 2.015 0 0 0-.209.905v.517c0 .441.076.814.228 1.121.155.304.369.536.642.696.274.157.592.235.955.235.235 0 .448-.033.638-.099.193-.068.359-.169.498-.304.139-.136.247-.306.323-.509l.867.243a1.925 1.925 0 0 1-.46.776c-.215.22-.482.392-.798.517a2.976 2.976 0 0 1-1.068.182Zm9.164 0c-.527 0-.989-.125-1.387-.376a2.554 2.554 0 0 1-.928-1.053c-.22-.451-.33-.978-.33-1.581 0-.609.11-1.14.33-1.593.223-.454.532-.806.928-1.057.398-.251.86-.376 1.387-.376s.989.125 1.384.376c.398.251.707.603.927 1.057.223.453.335.984.335 1.593 0 .603-.112 1.13-.335 1.581-.22.451-.529.802-.927 1.053-.395.251-.857.376-1.384.376Zm0-.806c.401 0 .73-.102.989-.308.258-.205.449-.475.574-.809.124-.335.186-.697.186-1.087 0-.391-.062-.754-.186-1.091a1.853 1.853 0 0 0-.574-.818c-.259-.207-.588-.311-.989-.311-.4 0-.73.104-.988.311-.259.208-.45.481-.574.818-.124.337-.186.7-.186 1.091 0 .39.062.752.186 1.087.124.334.315.604.574.809.258.206.588.308.988.308Zm6.615-5.154v.76h-3.147v-.76h3.147Zm-2.204 5.838v-6.644c0-.335.078-.613.235-.836.157-.223.361-.391.612-.502.251-.112.516-.167.795-.167.22 0 .4.017.54.053.139.035.243.068.311.099l-.258.775a5.378 5.378 0 0 0-.19-.057 1.152 1.152 0 0 0-.312-.034c-.297 0-.511.075-.642.224-.13.15-.194.369-.194.658v6.431h-.897Zm10.851-5.838a1.19 1.19 0 0 0-.555-.897c-.324-.213-.722-.32-1.193-.32-.345 0-.647.056-.905.168a1.446 1.446 0 0 0-.601.46 1.102 1.102 0 0 0-.213.665c0 .208.05.386.149.536.101.147.23.27.387.369.158.096.322.176.495.239.172.061.33.11.475.148l.79.213c.203.053.429.127.677.221.251.093.49.221.718.384.231.159.421.364.571.615.149.251.224.559.224.924 0 .421-.11.801-.331 1.14-.218.34-.537.61-.958.81-.418.2-.926.3-1.524.3-.558 0-1.04-.09-1.448-.27a2.294 2.294 0 0 1-.958-.752 2.151 2.151 0 0 1-.392-1.122h.973c.026.294.125.538.297.73.175.19.395.332.661.426.269.091.558.137.867.137.36 0 .683-.058.969-.175.287-.119.513-.284.681-.494.167-.213.251-.461.251-.745 0-.259-.073-.469-.217-.631a1.612 1.612 0 0 0-.57-.396 6.1 6.1 0 0 0-.764-.266l-.958-.273c-.608-.175-1.09-.425-1.445-.749-.354-.325-.532-.749-.532-1.274 0-.435.118-.816.354-1.14.238-.327.557-.58.958-.76a3.22 3.22 0 0 1 1.349-.274c.502 0 .948.09 1.338.27.39.177.699.421.928.73.23.309.352.66.364 1.053h-.912Zm3.344 2.326v3.512h-.897v-7.784h.897v2.858h.076a1.65 1.65 0 0 1 .616-.718c.276-.18.644-.27 1.102-.27.398 0 .747.08 1.046.239.299.157.531.399.695.726.168.325.251.738.251 1.24v3.709h-.897v-3.649c0-.463-.12-.822-.361-1.075-.238-.256-.569-.384-.992-.384-.294 0-.558.062-.791.186a1.36 1.36 0 0 0-.547.543c-.132.239-.198.528-.198.867Zm7.799 3.634c-.527 0-.989-.125-1.387-.376a2.561 2.561 0 0 1-.928-1.053c-.22-.451-.33-.978-.33-1.581 0-.609.11-1.14.33-1.593.223-.454.533-.806.928-1.057.398-.251.86-.376 1.387-.376.528 0 .989.125 1.384.376.398.251.707.603.928 1.057.223.453.334.984.334 1.593 0 .603-.111 1.13-.334 1.581-.221.451-.53.802-.928 1.053-.395.251-.856.376-1.384.376Zm0-.806c.401 0 .73-.102.989-.308.258-.205.45-.475.574-.809.124-.335.186-.697.186-1.087 0-.391-.062-.754-.186-1.091a1.845 1.845 0 0 0-.574-.818c-.259-.207-.588-.311-.989-.311-.4 0-.729.104-.988.311-.258.208-.45.481-.574.818-.124.337-.186.7-.186 1.091 0 .39.062.752.186 1.087.124.334.316.604.574.809.259.206.588.308.988.308Zm4.015 2.874v-8.028h.867v.927h.107c.065-.101.157-.23.273-.387.119-.16.289-.302.51-.426.223-.127.524-.19.904-.19.492 0 .925.123 1.3.369.375.245.668.594.878 1.045.211.451.316.983.316 1.596 0 .619-.105 1.155-.316 1.608-.21.451-.501.801-.874 1.049a2.284 2.284 0 0 1-1.289.369c-.375 0-.675-.062-.9-.186-.226-.127-.4-.27-.521-.43a5.188 5.188 0 0 1-.281-.403h-.076v3.087h-.898Zm.882-5.109c0 .441.065.83.194 1.167.129.335.318.597.567.787.248.188.552.281.912.281.375 0 .688-.099.939-.296.253-.2.443-.469.57-.806a3.17 3.17 0 0 0 .194-1.133c0-.41-.064-.78-.19-1.11a1.713 1.713 0 0 0-.567-.787c-.251-.195-.566-.292-.946-.292-.365 0-.672.092-.92.277a1.676 1.676 0 0 0-.563.768 3.17 3.17 0 0 0-.19 1.144Zm5.641 2.919v-5.838h.867v.882h.061a1.4 1.4 0 0 1 .578-.704c.278-.179.593-.269.942-.269l.247.003c.099.003.174.007.225.012v.912a2.46 2.46 0 0 0-.209-.034 2.043 2.043 0 0 0-.339-.027c-.284 0-.537.06-.76.179-.22.116-.395.279-.525.486a1.32 1.32 0 0 0-.19.704v3.694h-.897Zm3.983 0v-5.838h.897v5.838h-.897Zm.456-6.811a.638.638 0 0 1-.452-.179.573.573 0 0 1-.186-.429c0-.168.062-.311.186-.43a.638.638 0 0 1 .452-.179c.175 0 .325.06.449.179a.57.57 0 0 1 .19.43.57.57 0 0 1-.19.429.626.626 0 0 1-.449.179Zm4.623.973v.76h-3.025v-.76h3.025Zm-2.143-1.399h.897v5.565c0 .253.036.443.11.57a.57.57 0 0 0 .289.251c.119.041.244.061.376.061.099 0 .18-.005.243-.015l.152-.031.183.806a1.895 1.895 0 0 1-.669.107c-.254 0-.502-.055-.745-.164a1.482 1.482 0 0 1-.601-.498c-.157-.223-.235-.504-.235-.844v-5.808Zm5.878 7.359c-.562 0-1.048-.124-1.456-.372a2.507 2.507 0 0 1-.939-1.05c-.218-.451-.327-.975-.327-1.573s.109-1.125.327-1.582c.221-.458.527-.816.92-1.071.396-.259.857-.388 1.384-.388.304 0 .604.05.901.152.296.101.566.266.809.494.244.226.438.525.582.897.144.373.217.831.217 1.376v.38h-4.501v-.775h3.588c0-.33-.065-.624-.197-.882a1.487 1.487 0 0 0-.555-.612 1.55 1.55 0 0 0-.844-.224c-.357 0-.667.088-.928.266a1.752 1.752 0 0 0-.596.684c-.14.281-.209.583-.209.905v.517c0 .441.076.814.228 1.121.154.304.368.536.642.696.274.157.592.235.954.235.236 0 .449-.033.639-.099.192-.068.358-.169.498-.304.139-.136.247-.306.323-.509l.866.243a1.923 1.923 0 0 1-.459.776c-.216.22-.482.392-.799.517a2.976 2.976 0 0 1-1.068.182Zm11.567-5.96-2.159 5.838h-.912l-2.159-5.838h.973l1.612 4.653h.06l1.612-4.653h.973Zm3.347 5.96c-.527 0-.989-.125-1.387-.376a2.554 2.554 0 0 1-.928-1.053c-.22-.451-.33-.978-.33-1.581 0-.609.11-1.14.33-1.593.223-.454.532-.806.928-1.057.398-.251.86-.376 1.387-.376s.989.125 1.384.376c.398.251.707.603.927 1.057.223.453.335.984.335 1.593 0 .603-.112 1.13-.335 1.581-.22.451-.529.802-.927 1.053-.395.251-.857.376-1.384.376Zm0-.806c.401 0 .73-.102.989-.308.258-.205.449-.475.573-.809.125-.335.187-.697.187-1.087a3.11 3.11 0 0 0-.187-1.091 1.843 1.843 0 0 0-.573-.818c-.259-.207-.588-.311-.989-.311-.4 0-.73.104-.988.311-.259.208-.45.481-.574.818-.124.337-.186.7-.186 1.091 0 .39.062.752.186 1.087.124.334.315.604.574.809.258.206.588.308.988.308Zm7.695-1.703v-3.451h.897v5.838h-.897v-.988h-.061c-.137.297-.35.549-.639.757-.289.205-.653.308-1.094.308-.365 0-.69-.08-.973-.24a1.67 1.67 0 0 1-.669-.73c-.163-.327-.244-.738-.244-1.235v-3.71h.897v3.649c0 .426.119.765.358 1.019.24.253.547.38.92.38.223 0 .449-.057.68-.171a1.48 1.48 0 0 0 .585-.525c.16-.235.24-.536.24-.901Zm4.912 2.509c-.547 0-1.019-.129-1.414-.388a2.517 2.517 0 0 1-.912-1.068c-.213-.453-.32-.972-.32-1.554 0-.593.109-1.117.327-1.57a2.58 2.58 0 0 1 .92-1.068c.395-.259.857-.388 1.384-.388.41 0 .78.076 1.11.228.329.152.599.365.809.638.211.274.341.593.392.958h-.897a1.402 1.402 0 0 0-.456-.707c-.234-.207-.548-.311-.943-.311-.35 0-.656.091-.92.273-.261.18-.465.435-.612.764-.144.327-.217.711-.217 1.152 0 .451.071.844.213 1.179.145.334.347.594.608.779.264.185.573.277.928.277.233 0 .445-.04.635-.121a1.301 1.301 0 0 0 .764-.897h.897a2.084 2.084 0 0 1-.376.931 2.11 2.11 0 0 1-.787.654 2.547 2.547 0 0 1-1.133.239Zm4.504-3.634v3.512h-.897v-7.784h.897v2.858h.076a1.65 1.65 0 0 1 .616-.718c.276-.18.644-.27 1.103-.27.397 0 .746.08 1.045.239.299.157.531.399.695.726.168.325.251.738.251 1.24v3.709h-.897v-3.649c0-.463-.12-.822-.361-1.075-.238-.256-.569-.384-.992-.384-.294 0-.557.062-.791.186a1.36 1.36 0 0 0-.547.543c-.132.239-.198.528-.198.867Zm7.876 3.634c-.563 0-1.048-.124-1.456-.372a2.494 2.494 0 0 1-.939-1.05c-.218-.451-.327-.975-.327-1.573s.109-1.125.327-1.582a2.57 2.57 0 0 1 .92-1.071c.395-.259.856-.388 1.383-.388.304 0 .605.05.901.152.297.101.567.266.81.494.243.226.437.525.581.897.145.373.217.831.217 1.376v.38h-4.501v-.775h3.589c0-.33-.066-.624-.198-.882a1.48 1.48 0 0 0-.555-.612 1.548 1.548 0 0 0-.844-.224c-.357 0-.666.088-.927.266a1.746 1.746 0 0 0-.597.684 2.015 2.015 0 0 0-.209.905v.517c0 .441.076.814.228 1.121.155.304.369.536.642.696.274.157.592.235.955.235.235 0 .448-.033.638-.099.193-.068.359-.169.498-.304.139-.136.247-.306.323-.509l.867.243a1.925 1.925 0 0 1-.46.776c-.215.22-.482.392-.798.517a2.976 2.976 0 0 1-1.068.182Zm3.782-.122v-5.838h.866v.882h.061c.107-.289.299-.524.578-.704.279-.179.593-.269.943-.269l.247.003c.099.003.173.007.224.012v.912c-.03-.008-.1-.019-.209-.034a2.022 2.022 0 0 0-.338-.027c-.284 0-.538.06-.761.179a1.312 1.312 0 0 0-.714 1.19v3.694h-.897Zm9.593-5.838v.76h-3.147v-.76h3.147Zm-2.205 5.838v-6.644c0-.335.079-.613.236-.836.157-.223.361-.391.612-.502.251-.112.516-.167.794-.167.221 0 .401.017.54.053.14.035.244.068.312.099l-.259.775a4.328 4.328 0 0 0-.19-.057 1.139 1.139 0 0 0-.311-.034c-.297 0-.511.075-.643.224-.129.15-.194.369-.194.658v6.431h-.897Zm5.594.122c-.527 0-.99-.125-1.388-.376a2.56 2.56 0 0 1-.927-1.053c-.221-.451-.331-.978-.331-1.581 0-.609.11-1.14.331-1.593.223-.454.532-.806.927-1.057.398-.251.861-.376 1.388-.376.527 0 .988.125 1.383.376.398.251.708.603.928 1.057.223.453.334.984.334 1.593 0 .603-.111 1.13-.334 1.581a2.52 2.52 0 0 1-.928 1.053c-.395.251-.856.376-1.383.376Zm0-.806c.4 0 .73-.102.988-.308a1.81 1.81 0 0 0 .574-.809c.124-.335.186-.697.186-1.087 0-.391-.062-.754-.186-1.091a1.837 1.837 0 0 0-.574-.818c-.258-.207-.588-.311-.988-.311-.401 0-.73.104-.988.311-.259.208-.45.481-.574.818a3.11 3.11 0 0 0-.187 1.091c0 .39.062.752.187 1.087.124.334.315.604.574.809.258.206.587.308.988.308Zm4.015.684v-5.838h.867v.882h.06c.107-.289.299-.524.578-.704.279-.179.593-.269.943-.269l.247.003c.099.003.174.007.224.012v.912c-.03-.008-.1-.019-.209-.034a2.022 2.022 0 0 0-.338-.027c-.284 0-.537.06-.76.179a1.344 1.344 0 0 0-.525.486c-.127.206-.19.44-.19.704v3.694h-.897ZM79.362 354.913v.76h-7.754v-.76h7.754Zm0 1.642v.76h-7.754v-.76h7.754Zm-.79-4.485v7.784h-.913l-4.242-6.112h-.076v6.112h-.943v-7.784h.912l4.258 6.127h.076v-6.127h.927Zm4.268 7.891c-.446 0-.848-.089-1.205-.266a2.245 2.245 0 0 1-.859-.73 1.987 1.987 0 0 1-.353-1.057h.912c.035.353.195.644.479.875.286.228.628.342 1.026.342.32 0 .603-.075.852-.225.25-.149.447-.354.589-.615.144-.264.216-.562.216-.894 0-.339-.074-.642-.224-.908a1.647 1.647 0 0 0-.608-.635 1.72 1.72 0 0 0-.886-.236 2.452 2.452 0 0 0-.733.111 2.017 2.017 0 0 0-.62.285l-.882-.107.472-3.831h4.044v.836h-3.254l-.274 2.296h.046c.16-.127.36-.232.6-.316.241-.083.492-.125.753-.125a2.397 2.397 0 0 1 2.155 1.269c.216.393.324.842.324 1.346 0 .497-.112.94-.335 1.331-.22.387-.524.694-.912.919a2.605 2.605 0 0 1-1.323.335Zm5.14-1.171-.06.411a8.231 8.231 0 0 1-.198.927c-.086.33-.176.64-.27.931-.094.292-.171.524-.232.696h-.684l.129-.642a24.363 24.363 0 0 0 .296-1.897l.046-.426h.973Zm3.915 1.171c-.573 0-1.061-.156-1.464-.468-.403-.314-.71-.769-.924-1.364-.213-.598-.319-1.321-.319-2.167 0-.841.106-1.56.32-2.155.215-.598.524-1.054.927-1.369.405-.316.892-.475 1.46-.475.567 0 1.053.159 1.455.475.406.315.715.771.928 1.369.215.595.323 1.314.323 2.155 0 .846-.106 1.569-.32 2.167-.212.595-.52 1.05-.923 1.364-.403.312-.89.468-1.463.468Zm0-.836c.567 0 1.008-.274 1.322-.821.315-.548.472-1.328.472-2.342 0-.674-.072-1.248-.217-1.722-.142-.474-.347-.835-.616-1.083a1.357 1.357 0 0 0-.961-.373c-.563 0-1.003.278-1.32.833-.316.552-.475 1.334-.475 2.345 0 .674.071 1.247.213 1.718.142.472.346.83.612 1.076.269.246.592.369.97.369Zm6.69.836c-.573 0-1.06-.156-1.464-.468-.403-.314-.71-.769-.923-1.364-.213-.598-.32-1.321-.32-2.167 0-.841.107-1.56.32-2.155.215-.598.524-1.054.927-1.369.406-.316.892-.475 1.46-.475.567 0 1.053.159 1.456.475.405.315.714.771.927 1.369.215.595.323 1.314.323 2.155 0 .846-.106 1.569-.319 2.167-.213.595-.521 1.05-.924 1.364-.403.312-.89.468-1.463.468Zm0-.836c.567 0 1.008-.274 1.323-.821.314-.548.471-1.328.471-2.342 0-.674-.072-1.248-.217-1.722-.142-.474-.347-.835-.616-1.083a1.357 1.357 0 0 0-.961-.373c-.563 0-1.003.278-1.32.833-.316.552-.475 1.334-.475 2.345 0 .674.072 1.247.213 1.718.142.472.346.83.612 1.076.269.246.592.369.97.369Zm6.69.836c-.573 0-1.061-.156-1.464-.468-.403-.314-.71-.769-.923-1.364-.213-.598-.32-1.321-.32-2.167 0-.841.107-1.56.32-2.155.215-.598.524-1.054.927-1.369.406-.316.892-.475 1.46-.475.567 0 1.053.159 1.456.475.405.315.714.771.927 1.369.216.595.323 1.314.323 2.155 0 .846-.106 1.569-.319 2.167-.213.595-.521 1.05-.924 1.364-.403.312-.89.468-1.463.468Zm0-.836c.567 0 1.008-.274 1.323-.821.314-.548.471-1.328.471-2.342 0-.674-.072-1.248-.217-1.722-.142-.474-.347-.835-.615-1.083a1.36 1.36 0 0 0-.962-.373c-.563 0-1.002.278-1.319.833-.317.552-.475 1.334-.475 2.345 0 .674.071 1.247.213 1.718.141.472.345.83.612 1.076.268.246.591.369.969.369Zm8.499.729-1.779-5.838h.943l1.262 4.47h.061l1.247-4.47h.958l1.231 4.455h.061l1.262-4.455h.943l-1.779 5.838h-.882l-1.277-4.485h-.092l-1.277 4.485h-.882Zm9.093.137a2.36 2.36 0 0 1-1.007-.209 1.733 1.733 0 0 1-.719-.612c-.177-.268-.266-.593-.266-.973 0-.334.066-.605.198-.813.131-.211.308-.375.528-.494.221-.12.464-.208.73-.267a8.98 8.98 0 0 1 .81-.144c.354-.046.642-.08.862-.103.223-.025.386-.067.487-.125.104-.058.156-.16.156-.304v-.031c0-.375-.103-.666-.308-.874-.203-.208-.511-.312-.924-.312-.428 0-.764.094-1.007.282-.243.187-.414.387-.513.6l-.852-.304c.152-.355.355-.631.608-.828.256-.201.535-.34.837-.419.304-.081.603-.121.897-.121.187 0 .403.023.646.068.246.043.483.133.711.27.23.137.422.343.574.62.152.276.228.646.228 1.11v3.846h-.897v-.79h-.046a1.586 1.586 0 0 1-.304.407 1.761 1.761 0 0 1-.566.368c-.236.102-.524.152-.863.152Zm.137-.806c.354 0 .654-.069.897-.209a1.42 1.42 0 0 0 .745-1.235v-.821c-.038.046-.122.087-.251.125a3.927 3.927 0 0 1-.441.095 16.5 16.5 0 0 1-.859.114c-.233.031-.451.08-.654.149-.2.066-.362.166-.486.3-.122.132-.183.312-.183.54 0 .311.115.547.346.707.233.157.528.235.886.235Zm8.312-3.862-.806.229a1.496 1.496 0 0 0-.224-.392 1.082 1.082 0 0 0-.395-.319c-.168-.084-.382-.126-.643-.126-.357 0-.655.083-.893.247-.236.163-.354.369-.354.62 0 .223.081.399.244.528.162.13.415.237.76.323l.867.213c.522.127.911.321 1.167.582.255.258.383.592.383 1 0 .334-.096.633-.288.897a1.928 1.928 0 0 1-.799.623c-.342.152-.74.228-1.193.228-.596 0-1.089-.129-1.479-.388-.39-.258-.637-.636-.741-1.132l.851-.213c.081.314.235.55.46.707.228.157.526.235.894.235.418 0 .75-.088.995-.266.249-.18.373-.395.373-.646a.678.678 0 0 0-.213-.509c-.142-.14-.36-.243-.654-.312l-.973-.228c-.535-.127-.927-.323-1.178-.589-.249-.269-.373-.605-.373-1.007 0-.33.093-.621.278-.875.187-.253.442-.452.764-.597a2.689 2.689 0 0 1 1.102-.216c.578 0 1.032.127 1.361.38.332.253.568.588.707 1.003Zm8.603 0-.806.229a1.468 1.468 0 0 0-.224-.392 1.082 1.082 0 0 0-.395-.319c-.168-.084-.382-.126-.643-.126-.357 0-.655.083-.893.247-.236.163-.354.369-.354.62a.64.64 0 0 0 .244.528c.162.13.415.237.76.323l.867.213c.522.127.911.321 1.167.582.256.258.384.592.384 1 0 .334-.097.633-.289.897-.19.263-.456.471-.799.623-.342.152-.74.228-1.193.228-.596 0-1.089-.129-1.479-.388-.39-.258-.637-.636-.741-1.132l.851-.213c.081.314.235.55.46.707.228.157.526.235.894.235.418 0 .75-.088.996-.266.248-.18.372-.395.372-.646a.678.678 0 0 0-.213-.509c-.142-.14-.36-.243-.654-.312l-.973-.228c-.534-.127-.927-.323-1.178-.589-.248-.269-.373-.605-.373-1.007 0-.33.093-.621.278-.875.187-.253.442-.452.764-.597a2.689 2.689 0 0 1 1.102-.216c.578 0 1.032.127 1.361.38.332.253.568.588.707 1.003Zm5.137 2.144v-3.451h.897v5.838h-.897v-.988h-.061c-.137.297-.35.549-.639.757-.289.205-.654.308-1.095.308-.365 0-.689-.08-.973-.24a1.67 1.67 0 0 1-.669-.73c-.162-.327-.243-.738-.243-1.235v-3.71h.897v3.649c0 .426.119.765.357 1.019.241.253.548.38.92.38.223 0 .45-.057.681-.171a1.48 1.48 0 0 0 .585-.525c.16-.235.24-.536.24-.901Zm4.912 2.509c-.548 0-1.019-.129-1.414-.388a2.519 2.519 0 0 1-.913-1.068c-.213-.453-.319-.972-.319-1.554 0-.593.109-1.117.327-1.57.22-.456.527-.813.92-1.068.395-.259.856-.388 1.383-.388.411 0 .781.076 1.11.228.33.152.6.365.81.638a2 2 0 0 1 .392.958h-.898a1.39 1.39 0 0 0-.456-.707c-.233-.207-.547-.311-.942-.311-.35 0-.657.091-.92.273-.261.18-.465.435-.612.764-.145.327-.217.711-.217 1.152 0 .451.071.844.213 1.179.144.334.347.594.608.779.264.185.573.277.928.277a1.6 1.6 0 0 0 .634-.121c.19-.081.351-.198.483-.35.132-.152.226-.335.281-.547h.898a2.086 2.086 0 0 1-.377.931c-.197.274-.46.491-.787.654a2.542 2.542 0 0 1-1.132.239Zm5.979 0c-.547 0-1.019-.129-1.414-.388a2.517 2.517 0 0 1-.912-1.068c-.213-.453-.32-.972-.32-1.554 0-.593.109-1.117.327-1.57a2.58 2.58 0 0 1 .92-1.068c.395-.259.857-.388 1.384-.388.41 0 .78.076 1.11.228.329.152.599.365.809.638.211.274.341.593.392.958h-.897a1.402 1.402 0 0 0-.456-.707c-.233-.207-.548-.311-.943-.311-.35 0-.656.091-.92.273-.261.18-.465.435-.612.764-.144.327-.217.711-.217 1.152 0 .451.071.844.213 1.179.145.334.347.594.608.779.264.185.573.277.928.277.233 0 .445-.04.635-.121.19-.081.351-.198.483-.35.131-.152.225-.335.281-.547h.897a2.084 2.084 0 0 1-.376.931 2.11 2.11 0 0 1-.787.654 2.547 2.547 0 0 1-1.133.239Zm6.055 0c-.562 0-1.048-.124-1.456-.372a2.499 2.499 0 0 1-.938-1.05c-.218-.451-.327-.975-.327-1.573s.109-1.125.327-1.582c.22-.458.527-.816.919-1.071.396-.259.857-.388 1.384-.388.304 0 .604.05.901.152.296.101.566.266.81.494.243.226.437.525.581.897.145.373.217.831.217 1.376v.38h-4.501v-.775h3.589c0-.33-.066-.624-.198-.882a1.48 1.48 0 0 0-.555-.612 1.55 1.55 0 0 0-.844-.224c-.357 0-.666.088-.927.266a1.746 1.746 0 0 0-.597.684c-.14.281-.209.583-.209.905v.517c0 .441.076.814.228 1.121.154.304.368.536.642.696.274.157.592.235.954.235.236 0 .449-.033.639-.099.192-.068.358-.169.498-.304.139-.136.247-.306.323-.509l.867.243a1.937 1.937 0 0 1-.46.776c-.216.22-.482.392-.799.517a2.968 2.968 0 0 1-1.068.182Zm7.918-4.653-.806.229a1.468 1.468 0 0 0-.224-.392 1.082 1.082 0 0 0-.395-.319c-.167-.084-.382-.126-.643-.126-.357 0-.655.083-.893.247-.236.163-.353.369-.353.62 0 .223.081.399.243.528.162.13.415.237.76.323l.867.213c.522.127.911.321 1.167.582.256.258.384.592.384 1 0 .334-.097.633-.289.897-.19.263-.456.471-.798.623-.343.152-.74.228-1.194.228-.596 0-1.088-.129-1.479-.388-.39-.258-.637-.636-.741-1.132l.851-.213c.082.314.235.55.46.707.229.157.526.235.894.235.418 0 .75-.088.996-.266.248-.18.372-.395.372-.646a.678.678 0 0 0-.213-.509c-.142-.14-.36-.243-.654-.312l-.973-.228c-.534-.127-.927-.323-1.178-.589-.248-.269-.373-.605-.373-1.007 0-.33.093-.621.278-.875.187-.253.442-.452.764-.597a2.689 2.689 0 0 1 1.102-.216c.578 0 1.032.127 1.361.38.332.253.568.588.707 1.003Zm5.593 0-.806.229a1.525 1.525 0 0 0-.224-.392 1.086 1.086 0 0 0-.396-.319c-.167-.084-.381-.126-.642-.126-.357 0-.655.083-.893.247-.236.163-.354.369-.354.62 0 .223.081.399.243.528.163.13.416.237.761.323l.866.213c.522.127.911.321 1.167.582.256.258.384.592.384 1 0 .334-.096.633-.289.897-.19.263-.456.471-.798.623-.342.152-.74.228-1.194.228-.595 0-1.088-.129-1.478-.388-.39-.258-.638-.636-.741-1.132l.851-.213c.081.314.234.55.46.707.228.157.526.235.893.235.418 0 .75-.088.996-.266.249-.18.373-.395.373-.646a.678.678 0 0 0-.213-.509c-.142-.14-.36-.243-.654-.312l-.973-.228c-.535-.127-.928-.323-1.178-.589-.249-.269-.373-.605-.373-1.007 0-.33.093-.621.277-.875.188-.253.443-.452.765-.597a2.685 2.685 0 0 1 1.102-.216c.578 0 1.031.127 1.361.38.332.253.567.588.707 1.003Zm4.057-1.307v.76h-3.148v-.76h3.148Zm-2.205 5.838v-6.644c0-.335.078-.613.236-.836.157-.223.361-.391.612-.502a1.92 1.92 0 0 1 .794-.167c.22 0 .4.017.54.053.139.035.243.068.312.099l-.259.775a5.378 5.378 0 0 0-.19-.057 1.152 1.152 0 0 0-.312-.034c-.296 0-.51.075-.642.224-.129.15-.194.369-.194.658v6.431h-.897Zm7.141-2.387v-3.451h.898v5.838h-.898v-.988h-.06c-.137.297-.35.549-.639.757-.289.205-.654.308-1.095.308-.365 0-.689-.08-.973-.24a1.67 1.67 0 0 1-.669-.73c-.162-.327-.243-.738-.243-1.235v-3.71h.897v3.649c0 .426.119.765.357 1.019.241.253.548.38.92.38.223 0 .45-.057.681-.171a1.48 1.48 0 0 0 .585-.525c.16-.235.239-.536.239-.901Zm3.438-5.397v7.784h-.897v-7.784h.897Zm2.297 7.845a.659.659 0 0 1-.483-.201.66.66 0 0 1-.202-.483c0-.187.068-.348.202-.483a.659.659 0 0 1 .483-.201c.187 0 .348.067.482.201a.659.659 0 0 1 .202.483.707.707 0 0 1-.342.593.653.653 0 0 1-.342.091Z"/><path fill="#16CB3E" d="M10.843 528.264c0-5.992 0-8.988 1.166-11.276a10.702 10.702 0 0 1 4.676-4.676c2.289-1.166 5.284-1.166 11.276-1.166h207.155c5.992 0 8.988 0 11.277 1.166a10.697 10.697 0 0 1 4.675 4.676c1.166 2.288 1.166 5.284 1.166 11.276v3.21c0 5.992 0 8.987-1.166 11.276a10.697 10.697 0 0 1-4.675 4.676c-2.289 1.166-5.285 1.166-11.277 1.166H27.961c-5.992 0-8.987 0-11.276-1.166a10.702 10.702 0 0 1-4.676-4.676c-1.166-2.289-1.166-5.284-1.166-11.276v-3.21Z"/><path fill="#000" d="M121.377 533.869h-2.639v-7.785h2.692c.773 0 1.437.156 1.992.467.557.309.985.754 1.284 1.335.299.58.449 1.274.449 2.083 0 .811-.151 1.507-.452 2.09a3.13 3.13 0 0 1-1.297 1.342c-.562.312-1.239.468-2.029.468Zm-1.228-1.221h1.159c.542 0 .995-.098 1.357-.296.363-.2.635-.498.817-.893.183-.398.274-.895.274-1.49 0-.596-.091-1.09-.274-1.483a1.87 1.87 0 0 0-.809-.886c-.355-.197-.796-.296-1.323-.296h-1.201v5.344Zm8.832 1.335c-.57 0-1.064-.126-1.483-.377a2.554 2.554 0 0 1-.973-1.053c-.228-.451-.342-.978-.342-1.581s.114-1.131.342-1.585c.231-.454.555-.806.973-1.057.419-.251.913-.376 1.483-.376.57 0 1.064.125 1.482.376.418.251.742.603.97 1.057.23.454.346.982.346 1.585s-.116 1.13-.346 1.581a2.528 2.528 0 0 1-.97 1.053c-.418.251-.912.377-1.482.377Zm.007-1.103c.31 0 .568-.085.776-.254.208-.173.362-.403.464-.692.104-.289.155-.611.155-.966 0-.357-.051-.68-.155-.969a1.545 1.545 0 0 0-.464-.696c-.208-.172-.466-.258-.776-.258-.316 0-.58.086-.79.258a1.568 1.568 0 0 0-.468.696 2.923 2.923 0 0 0-.152.969c0 .355.051.677.152.966.104.289.26.519.468.692.21.169.474.254.79.254Zm5.335-2.432v3.421h-1.377v-5.839h1.316v.992h.068c.134-.327.349-.587.643-.779.296-.193.662-.289 1.098-.289.403 0 .754.086 1.053.258.302.173.535.422.699.749.168.327.25.724.248 1.19v3.718h-1.377v-3.505c0-.39-.101-.696-.304-.916-.2-.221-.477-.331-.832-.331-.241 0-.455.053-.643.16-.184.104-.33.254-.437.452a1.528 1.528 0 0 0-.155.719Zm7.731 3.535c-.585 0-1.091-.122-1.517-.365a2.47 2.47 0 0 1-.976-1.042c-.228-.451-.343-.982-.343-1.592 0-.601.115-1.128.343-1.582a2.58 2.58 0 0 1 .965-1.064c.413-.256.898-.384 1.456-.384.36 0 .699.058 1.019.175.322.114.605.291.851.532a2.5 2.5 0 0 1 .586.92c.141.37.212.811.212 1.323v.422h-4.785v-.928h3.466a1.468 1.468 0 0 0-.171-.703 1.237 1.237 0 0 0-.467-.49 1.307 1.307 0 0 0-.692-.179 1.34 1.34 0 0 0-.741.205 1.413 1.413 0 0 0-.498.532 1.535 1.535 0 0 0-.179.719v.809c0 .34.062.631.186.875.125.24.298.425.521.555.223.126.484.19.783.19.2 0 .382-.028.544-.084.162-.058.303-.143.422-.255.119-.111.209-.249.27-.414l1.284.145a2 2 0 0 1-.463.889 2.261 2.261 0 0 1-.867.585 3.316 3.316 0 0 1-1.209.206Z"/><defs><clipPath id="a"><path fill="#fff" d="M85.442 174.252h92.192v93.662H85.442z"/></clipPath></defs></svg>