<svg xmlns="http://www.w3.org/2000/svg" width="375" height="724" fill="none"><g clip-path="url(#a)"><path fill="#fff" d="M0 40C0 17.909 17.909 0 40 0h295c22.091 0 40 17.909 40 40v684H0V40z"/><path fill="#fff" d="M0 .287h375v88H0z"/><path fill="#1A1A1A" fill-rule="evenodd" d="M355.5 16.287c1.516 0 2.5.984 2.5 2.5v6.5c0 1.517-.984 2.5-2.5 2.5h-19c-1.516 0-2.5-.983-2.5-2.5v-6.5c0-1.516.984-2.5 2.5-2.5h19zm-.1 1c.97 0 1.6.63 1.6 1.6v6.3c0 .97-.63 1.6-1.6 1.6h-18.8c-.97 0-1.6-.63-1.6-1.6v-6.3c0-.97.63-1.6 1.6-1.6h18.8zm5.1 4.75c0 1.75-1.5 2-1.5 2v-4s1.5.25 1.5 2z" clip-rule="evenodd" opacity=".4"/><path fill="#1A1A1A" fill-rule="evenodd" d="M355 18.287c.607 0 1 .393 1 1v5.5c0 .607-.393 1-1 1h-18c-.607 0-1-.393-1-1v-5.5c0-.607.393-1 1-1h18zm-64.939 5c.625 0 1.03.393 1.03 1v2.5c0 .607-.405 1-1.03 1h-1.031c-.625 0-1.03-.393-1.03-1v-2.5c0-.607.405-1 1.03-1h1.031zm13.909-5.5c.625 0 1.03.393 1.03 1v8c0 .607-.405 1-1.03 1h-1.031c-.625 0-1.03-.393-1.03-1v-8c0-.607.405-1 1.03-1h1.031zm-4.637 2c.625 0 1.031.393 1.031 1v6c0 .607-.406 1-1.031 1h-1.03c-.625 0-1.03-.393-1.03-1v-6c0-.607.405-1 1.03-1h1.03zm-4.636 2c.625 0 1.03.393 1.03 1v4c0 .607-.405 1-1.03 1h-1.03c-.625 0-1.031-.393-1.031-1v-4c0-.607.406-1 1.031-1h1.03zm24.94-2.723c2.215 0 4.347.852 5.953 2.379a.308.308 0 0 0 .433-.004l1.156-1.166a.32.32 0 0 0-.003-.456 10.897 10.897 0 0 0-15.08 0 .323.323 0 0 0-.003.456l1.157 1.166c.119.12.312.122.433.004a8.64 8.64 0 0 1 5.954-2.379zm0 3.796a4.91 4.91 0 0 1 3.294 1.27.31.31 0 0 0 .433-.006l1.155-1.167a.325.325 0 0 0-.005-.459 7.16 7.16 0 0 0-9.752 0 .324.324 0 0 0-.005.46l1.155 1.166a.31.31 0 0 0 .433.006 4.907 4.907 0 0 1 3.292-1.27zm2.219 2.784a.32.32 0 0 0 .094-.23.316.316 0 0 0-.104-.227 3.421 3.421 0 0 0-4.419 0 .316.316 0 0 0-.104.227.32.32 0 0 0 .094.23l1.998 2.016a.31.31 0 0 0 .443 0l1.998-2.016z" clip-rule="evenodd"/><path fill="#1A1A1A" d="M20.797 27.544c-1.933 0-3.413-1.128-3.72-2.85h1.882c.227.806.952 1.304 1.86 1.304 1.546 0 2.432-1.42 2.454-3.904h-.125c-.498 1.004-1.501 1.575-2.739 1.575-2.014 0-3.479-1.48-3.479-3.508 0-2.161 1.626-3.706 3.926-3.706 2.527 0 4.226 1.919 4.226 5.42 0 3.566-1.597 5.669-4.285 5.669zm.066-5.333c1.223 0 2.095-.871 2.095-2.072 0-1.216-.893-2.146-2.087-2.146-1.194 0-2.088.915-2.088 2.11 0 1.244.85 2.108 2.08 2.108zm7.537-1.765c-.689 0-1.172-.483-1.172-1.135s.483-1.135 1.172-1.135c.696 0 1.172.483 1.172 1.135s-.476 1.135-1.172 1.135zm0 5.376c-.689 0-1.172-.49-1.172-1.135 0-.652.483-1.135 1.172-1.135.696 0 1.172.483 1.172 1.135 0 .644-.476 1.135-1.172 1.135zm8.474 1.465v-2.029H31.71v-1.545c1.37-2.38 2.871-4.812 4.307-6.995h2.666v6.98h1.428v1.56h-1.428v2.03h-1.809zm-3.413-3.655v.11h3.442v-5.515h-.102a115.295 115.295 0 0 0-3.34 5.405zm10.979 3.655V18.58h-.125l-2.629 1.86v-1.78l2.761-1.94h1.883v10.568h-1.89z"/><path fill="#fff" d="M0 44.287h374.999v44H0z"/><g clip-path="url(#b)"><path fill="#1A1A1A" d="M147.581 67.815c.565.117.97.33 1.216.64.245.299.405.704.48 1.216l.464 3.616h-2.432l-.272-2.928c-.054-.523-.214-.901-.48-1.136-.256-.235-.672-.352-1.248-.352h-2.096v4.416h-2.368V61.895h5.312c1.258 0 2.176.293 2.752.88.565.597.848 1.35.848 2.256 0 1.472-.726 2.4-2.176 2.784zm-4.368-3.936v3.072h2.272c.65 0 1.136-.139 1.456-.416.33-.288.496-.683.496-1.184 0-.459-.139-.816-.416-1.072-.267-.267-.672-.4-1.216-.4h-2.592zm16.096 5.568v.384h-5.984c.042.619.234 1.104.576 1.456.341.352.794.528 1.36.528.8 0 1.333-.357 1.6-1.072l2.24.16c-.278.875-.742 1.541-1.392 2-.651.448-1.451.672-2.4.672-1.334 0-2.384-.416-3.152-1.248-.768-.832-1.152-1.899-1.152-3.2 0-1.248.368-2.277 1.104-3.088.736-.81 1.722-1.216 2.96-1.216 1.248 0 2.266.416 3.056 1.248.789.843 1.184 1.968 1.184 3.376zm-2.336-1.152c-.064-.576-.256-1.024-.576-1.344-.32-.32-.736-.48-1.248-.48s-.934.16-1.264.48c-.331.341-.523.79-.576 1.344h3.664zm7.906-1.6-1.536-.048v4.048c0 .277.058.48.176.608.128.117.33.176.608.176h.752v1.808h-1.472c-.832 0-1.43-.176-1.792-.528-.352-.363-.528-.96-.528-1.792v-4.32l-1.12.048v-1.664l1.12.032v-2.576h2.256v2.592l1.536-.048v1.664zm6.348 2.752v-4.416h2.256v8.256h-2.208l-.032-1.12c-.533.885-1.328 1.328-2.384 1.328-.853 0-1.52-.261-2-.784-.469-.523-.704-1.237-.704-2.144v-5.536h2.256v5.024c0 .448.102.795.304 1.04.214.245.512.368.896.368.48 0 .87-.181 1.168-.544.299-.373.448-.864.448-1.472zm8.226-4.704c.267 0 .507.037.72.112v2.064a13.835 13.835 0 0 0-.464-.032c-1.365 0-2.048.795-2.048 2.384v4.016h-2.256v-8.256h2.208l-.032 1.104c.363-.928.987-1.392 1.872-1.392zm6.623.08c.854 0 1.515.261 1.984.784.48.523.72 1.237.72 2.144v5.536h-2.256v-5.024c0-.448-.106-.795-.32-1.04-.202-.245-.496-.368-.88-.368-.48 0-.869.187-1.168.56-.298.363-.448.848-.448 1.456v4.416h-2.256v-8.256h2.208l.032 1.12c.534-.885 1.328-1.328 2.384-1.328zm10.882-.88h-2.256v-2.048h2.256v2.048zm0 9.344h-2.256v-8.256h2.256v8.256zm6.108-6.592-1.536-.048v4.048c0 .277.059.48.176.608.128.117.331.176.608.176h.752v1.808h-1.472c-.832 0-1.429-.176-1.792-.528-.352-.363-.528-.96-.528-1.792v-4.32l-1.12.048v-1.664l1.12.032v-2.576h2.256v2.592l1.536-.048v1.664zm9.149 2.752v.384h-5.984c.042.619.234 1.104.576 1.456.341.352.794.528 1.36.528.8 0 1.333-.357 1.6-1.072l2.24.16c-.278.875-.742 1.541-1.392 2-.651.448-1.451.672-2.4.672-1.334 0-2.384-.416-3.152-1.248-.768-.832-1.152-1.899-1.152-3.2 0-1.248.368-2.277 1.104-3.088.736-.81 1.722-1.216 2.96-1.216 1.248 0 2.266.416 3.056 1.248.789.843 1.184 1.968 1.184 3.376zm-2.336-1.152c-.064-.576-.256-1.024-.576-1.344-.32-.32-.736-.48-1.248-.48s-.934.16-1.264.48c-.331.341-.523.79-.576 1.344h3.664zm13.072-3.472c.821 0 1.467.267 1.936.8.469.533.704 1.248.704 2.144v5.52h-2.256v-5.072c0-.405-.096-.73-.288-.976-.181-.256-.453-.384-.816-.384-.437 0-.795.187-1.072.56-.267.363-.4.848-.4 1.456v4.416h-2.256v-5.072c0-.405-.096-.73-.288-.976-.181-.256-.453-.384-.816-.384-.437 0-.795.187-1.072.56-.267.363-.4.848-.4 1.456v4.416h-2.256v-8.256h2.208l.032 1.056c.512-.843 1.259-1.264 2.24-1.264 1.173 0 1.963.496 2.368 1.488.533-.992 1.344-1.488 2.432-1.488zm10.692 8.032c-.651.49-1.542.736-2.672.736-1.131 0-2.006-.24-2.624-.72-.63-.48-1.003-1.163-1.12-2.048l2.064-.08c.149.853.736 1.28 1.76 1.28.458 0 .821-.08 1.088-.24.266-.16.4-.384.4-.672 0-.405-.363-.683-1.088-.832l-1.632-.32c-1.6-.32-2.4-1.125-2.4-2.416 0-.832.304-1.493.912-1.984.608-.49 1.424-.736 2.448-.736.992 0 1.808.24 2.448.72.64.47 1.013 1.11 1.12 1.92l-2.032.08a1.209 1.209 0 0 0-.512-.848c-.278-.203-.63-.304-1.056-.304-.374 0-.672.08-.896.24a.749.749 0 0 0-.336.64c0 .416.309.693.928.832l1.776.368c.821.17 1.429.448 1.824.832.394.384.592.896.592 1.536 0 .864-.331 1.536-.992 2.016z"/></g><path fill="#1A1A1A" fill-rule="evenodd" d="M16.442 74.73a.625.625 0 0 1-.884 0l-8-8a.625.625 0 0 1 0-.885l8-8a.625.625 0 1 1 .884.884l-7.558 7.558 7.558 7.558a.625.625 0 0 1 0 .884z" clip-rule="evenodd"/><path stroke="#D1D1D1" stroke-width=".5" d="M0 88.037h375"/><path fill="#1A1A1A" fill-rule="evenodd" d="M0 .23h40C18.13.23.359 5.25.005 11.48L0 11.669V.23h40H0zm375 0v11.44C375 5.415 357.447.333 335.661.232L335 .23h40zm-78 0-.892.062c-1.897.132-3.44.531-4.106 1.054-.032.024-.048.05-.048.077l.007 1.036v.06c0 3.632-10.298 6.576-23 6.576H106.039c-12.703 0-23-2.944-23-6.588l.007-1.122a.301.301 0 0 0-.042-.04C82.334.828 80.78.424 78.891.293l-.89-.061H297z" clip-rule="evenodd"/><path fill="#C0A7FF" d="M215.836 136.749c6.349 25.673-34.684 31.685-43.591 11.357-15.163-34.738 37.147-37.506 43.591-11.357z"/><path fill="#1A1A1A" fill-rule="evenodd" d="M172.707 129.287a1 1 0 0 1 1-1h24.137c.265 0 .519.105.706.292l3.449 3.438a.998.998 0 0 1 .294.708v16.19h9.207a2 2 0 0 1 2 2v16.051a2 2 0 0 1-2 2h-48a2 2 0 0 1-2-2v-16.051a2 2 0 0 1 2-2h9.207v-19.628zm2 1v18.523h25.586v-15.085h-2.449a1 1 0 0 1-1-1v-2.438h-22.137zm24.137 1.409.03.029h-.03v-.029zm3.677 19.219h-30.042v1.451h30.042v-1.451zm-32.042 0v1.451a2 2 0 0 0 2 2h30.042a2 2 0 0 0 2-2v-1.451h6.979v16.051h-6.979v-4.876a2 2 0 0 0-2-2h-30.042a2 2 0 0 0-2 2v4.876H163.5v-16.051h6.979zm32.042 11.175h-30.042v4.876h30.042v-4.876zm-36.243-7.936c0-.42.326-.719.677-.719.35 0 .677.299.677.719 0 .421-.327.72-.677.72-.351 0-.677-.299-.677-.72zm.677-2.719c-1.502 0-2.677 1.241-2.677 2.719 0 1.479 1.175 2.72 2.677 2.72 1.501 0 2.677-1.241 2.677-2.72 0-1.478-1.176-2.719-2.677-2.719zm40.426 1.931c0 .475-.386.86-.862.86a.861.861 0 0 1-.863-.86c0-.474.386-.859.863-.859a.86.86 0 0 1 .862.859zm2.478.86a.861.861 0 0 0 .862-.86.86.86 0 0 0-.862-.859.86.86 0 0 0-.862.859c0 .475.386.86.862.86z" clip-rule="evenodd"/><path fill="#1A1A1A" d="M48.916 215.591v4.032c0 .656.192 1.104.576 1.344.4.224 1.168.376 2.304.456v.864h-8.328v-.84c.848-.096 1.376-.232 1.584-.408.224-.176.336-.592.336-1.248v-11.856c0-.656-.112-1.072-.336-1.248-.208-.176-.736-.312-1.584-.408v-.84h7.344c2.16 0 3.8.472 4.92 1.416 1.136.928 1.704 2.12 1.704 3.576 0 1.616-.568 2.88-1.704 3.792-1.12.912-2.776 1.368-4.968 1.368h-1.848zm0-9.192v8.16h1.032c2.592 0 3.888-1.352 3.888-4.056 0-1.248-.336-2.24-1.008-2.976-.656-.752-1.616-1.128-2.88-1.128h-1.032zm14.506 7.224v6.624c0 .464.136.776.408.936.288.144.832.248 1.632.312v.792h-6.864v-.792c.592-.032.992-.112 1.2-.24.208-.144.312-.416.312-.816v-8.496l-1.44-.84v-.456l4.296-1.32h.552l-.096 3.552c.592-1.344 1.112-2.272 1.56-2.784a2.238 2.238 0 0 1 1.728-.768c.48 0 .832.136 1.056.408v2.592h-.456c-.896 0-1.632.08-2.208.24-.56.144-1.12.496-1.68 1.056zm10.117-4.296v11.112c0 .4.104.672.312.816.208.128.608.208 1.2.24v.792h-6.336v-.792c.592-.032.992-.112 1.2-.24.208-.144.312-.416.312-.816v-8.496l-1.44-.84v-.456l4.224-1.32h.528zm-1.704-1.44c-.56 0-1.024-.184-1.392-.552a1.882 1.882 0 0 1-.552-1.344c0-.528.184-.976.552-1.344.368-.368.832-.552 1.392-.552.576 0 1.048.184 1.416.552.368.368.552.816.552 1.344 0 .512-.184.96-.552 1.344-.368.368-.84.552-1.416.552zm13.685 12.552v-7.008c0-.704-.144-1.224-.432-1.56-.288-.352-.76-.528-1.416-.528-.832 0-1.728.328-2.688.984v8.112c0 .4.096.672.288.816.208.128.6.208 1.176.24v.792H76.16v-.792c.592-.032.992-.112 1.2-.24.208-.144.312-.416.312-.816v-8.496l-1.44-.84v-.456l4.296-1.32h.552l-.096 2.352c1.344-1.568 2.824-2.352 4.44-2.352 2.288 0 3.432 1.304 3.432 3.912v7.2c0 .4.104.672.312.816.208.128.6.208 1.176.24v.792h-6.288v-.792c.576-.032.96-.112 1.152-.24.208-.144.312-.416.312-.816zm10.211-13.992v3.12h3.12v1.104h-3.12v7.944c0 1.392.56 2.088 1.68 2.088.608 0 1.208-.224 1.8-.672l.288.432c-.88 1.376-2.112 2.064-3.696 2.064-1.056 0-1.888-.296-2.496-.888-.608-.608-.912-1.552-.912-2.832v-8.136h-1.488v-.552c1.616-.72 2.984-1.944 4.104-3.672h.72zm16.911 12.504 2.688-7.104c.112-.272.168-.496.168-.672 0-.272-.112-.456-.336-.552-.208-.096-.64-.184-1.296-.264v-.792h4.128v.792c-.4.112-.68.232-.84.36-.144.112-.272.296-.384.552l-5.28 13.296c-.416 1.04-.864 1.8-1.344 2.28-.48.48-1.088.72-1.824.72-.416 0-.8-.104-1.152-.312-.352-.192-.584-.456-.696-.792v-1.224a7.164 7.164 0 0 0 1.632.216c.688 0 1.232-.12 1.632-.36.4-.24.72-.68.96-1.32l.408-1.032-5.16-11.472c-.112-.272-.24-.464-.384-.576-.144-.112-.424-.224-.84-.336v-.792h6.528v.792c-.64.08-1.072.168-1.296.264-.224.096-.336.28-.336.552 0 .16.048.384.144.672l2.88 7.104zm11.752 2.712c.864 0 1.504-.456 1.92-1.368.432-.912.648-2.184.648-3.816 0-1.888-.232-3.4-.696-4.536-.448-1.152-1.128-1.728-2.04-1.728-.864 0-1.512.456-1.944 1.368-.432.912-.648 2.176-.648 3.792 0 1.888.232 3.408.696 4.56.464 1.152 1.152 1.728 2.064 1.728zm-.12.864c-1.84 0-3.328-.576-4.464-1.728-1.136-1.152-1.704-2.68-1.704-4.584 0-2.032.584-3.688 1.752-4.968 1.184-1.28 2.68-1.92 4.488-1.92 1.84 0 3.328.584 4.464 1.752 1.136 1.168 1.704 2.696 1.704 4.584 0 2.016-.592 3.664-1.776 4.944-1.168 1.28-2.656 1.92-4.464 1.92zm19.7-10.368v7.584c0 .448.048.744.144.888.112.144.384.232.816.264l.6.048v.72l-4.368.864h-.6l.072-2.304c-.624.704-1.264 1.264-1.92 1.68-.656.416-1.408.624-2.256.624-1.088 0-1.944-.32-2.568-.96-.608-.64-.912-1.616-.912-2.928v-6.24c0-.416-.072-.72-.216-.912-.144-.208-.44-.352-.888-.432l-.384-.072v-.72l4.416-.912h.528l-.12 2.856v6c0 1.552.624 2.328 1.872 2.328.704 0 1.52-.304 2.448-.912v-7.224c0-.416-.072-.72-.216-.912-.144-.208-.44-.352-.888-.432l-.36-.072v-.72l4.368-.912h.528l-.096 2.808zm7.417 1.464v6.624c0 .464.136.776.408.936.288.144.832.248 1.632.312v.792h-6.864v-.792c.592-.032.992-.112 1.2-.24.208-.144.312-.416.312-.816v-8.496l-1.44-.84v-.456l4.296-1.32h.552l-.096 3.552c.592-1.344 1.112-2.272 1.56-2.784a2.238 2.238 0 0 1 1.728-.768c.48 0 .832.136 1.056.408v2.592h-.456c-.896 0-1.632.08-2.208.24-.56.144-1.12.496-1.68 1.056zm14.96 0v6.624c0 .464.136.776.408.936.288.144.832.248 1.632.312v.792h-6.864v-.792c.592-.032.992-.112 1.2-.24.208-.144.312-.416.312-.816v-8.496l-1.44-.84v-.456l4.296-1.32h.552l-.096 3.552c.592-1.344 1.112-2.272 1.56-2.784a2.238 2.238 0 0 1 1.728-.768c.48 0 .832.136 1.056.408v2.592h-.456c-.896 0-1.632.08-2.208.24-.56.144-1.12.496-1.68 1.056zm11.27-4.296c1.568 0 2.776.464 3.624 1.392.848.928 1.272 2.136 1.272 3.624v.552h-7.824c-.048 1.648.304 2.952 1.056 3.912s1.728 1.44 2.928 1.44c1.488 0 2.68-.648 3.576-1.944l.384.216c-.32 1.232-.92 2.208-1.8 2.928-.88.72-1.992 1.08-3.336 1.08-1.728 0-3.128-.576-4.2-1.728-1.072-1.168-1.608-2.68-1.608-4.536 0-2.016.568-3.672 1.704-4.968 1.152-1.312 2.56-1.968 4.224-1.968zm-.24.888c-.768 0-1.376.344-1.824 1.032-.448.688-.72 1.608-.816 2.76h4.8c0-2.528-.72-3.792-2.16-3.792zm10.882-3.768v3.12h3.12v1.104h-3.12v7.944c0 1.392.56 2.088 1.68 2.088.608 0 1.208-.224 1.8-.672l.288.432c-.88 1.376-2.112 2.064-3.696 2.064-1.056 0-1.888-.296-2.496-.888-.608-.608-.912-1.552-.912-2.832v-8.136h-1.488v-.552c1.616-.72 2.984-1.944 4.104-3.672h.72zm16.602 5.712v7.584c0 .448.048.744.144.888.112.144.384.232.816.264l.6.048v.72l-4.368.864h-.6l.072-2.304c-.624.704-1.264 1.264-1.92 1.68-.656.416-1.408.624-2.256.624-1.088 0-1.944-.32-2.568-.96-.608-.64-.912-1.616-.912-2.928v-6.24c0-.416-.072-.72-.216-.912-.144-.208-.44-.352-.888-.432l-.384-.072v-.72l4.416-.912h.528l-.12 2.856v6c0 1.552.624 2.328 1.872 2.328.704 0 1.52-.304 2.448-.912v-7.224c0-.416-.072-.72-.216-.912-.144-.208-.44-.352-.888-.432l-.36-.072v-.72l4.368-.912h.528l-.096 2.808zm7.416 1.464v6.624c0 .464.136.776.408.936.288.144.832.248 1.632.312v.792h-6.864v-.792c.592-.032.992-.112 1.2-.24.208-.144.312-.416.312-.816v-8.496l-1.44-.84v-.456l4.296-1.32h.552l-.096 3.552c.592-1.344 1.112-2.272 1.56-2.784a2.238 2.238 0 0 1 1.728-.768c.48 0 .832.136 1.056.408v2.592h-.456c-.896 0-1.632.08-2.208.24-.56.144-1.12.496-1.68 1.056zm14.653 6.816v-7.008c0-.704-.144-1.224-.432-1.56-.288-.352-.76-.528-1.416-.528-.832 0-1.728.328-2.688.984v8.112c0 .4.096.672.288.816.208.128.6.208 1.176.24v.792h-6.288v-.792c.592-.032.992-.112 1.2-.24.208-.144.312-.416.312-.816v-8.496l-1.44-.84v-.456l4.296-1.32h.552l-.096 2.352c1.344-1.568 2.824-2.352 4.44-2.352 2.288 0 3.432 1.304 3.432 3.912v7.2c0 .4.104.672.312.816.208.128.6.208 1.176.24v.792h-6.288v-.792c.576-.032.96-.112 1.152-.24.208-.144.312-.416.312-.816zm15.463 2.088c-1.792 0-3.232-.4-4.32-1.2l-.144-3.288h.888c.272 1.104.72 1.992 1.344 2.664.624.656 1.376.984 2.256.984.672 0 1.216-.16 1.632-.48.432-.336.648-.824.648-1.464 0-.608-.208-1.08-.624-1.416-.416-.336-1.136-.688-2.16-1.056-1.36-.464-2.352-1-2.976-1.608-.608-.608-.912-1.448-.912-2.52 0-1.184.408-2.112 1.224-2.784.816-.688 1.896-1.032 3.24-1.032 1.52 0 2.824.352 3.912 1.056v2.904h-.816c-.208-.928-.576-1.68-1.104-2.256-.512-.576-1.176-.864-1.992-.864-.608 0-1.088.16-1.44.48-.336.32-.504.744-.504 1.272s.192.96.576 1.296c.384.32 1.056.656 2.016 1.008 1.424.496 2.464 1.056 3.12 1.68.672.608 1.008 1.464 1.008 2.568 0 1.264-.44 2.256-1.32 2.976-.88.72-2.064 1.08-3.552 1.08zm11.172-19.032v16.944c0 .4.104.672.312.816.208.128.6.208 1.176.24v.792h-6.312v-.792c.576-.032.968-.112 1.176-.24.208-.144.312-.416.312-.816v-14.544l-1.44-.744v-.504l4.248-1.152h.528zm7.423 5.832v11.112c0 .4.104.672.312.816.208.128.608.208 1.2.24v.792h-6.336v-.792c.592-.032.992-.112 1.2-.24.208-.144.312-.416.312-.816v-8.496l-1.44-.84v-.456l4.224-1.32h.528zm-1.704-1.44c-.56 0-1.024-.184-1.392-.552a1.882 1.882 0 0 1-.552-1.344c0-.528.184-.976.552-1.344.368-.368.832-.552 1.392-.552.576 0 1.048.184 1.416.552.368.368.552.816.552 1.344 0 .512-.184.96-.552 1.344-.368.368-.84.552-1.416.552zm11.141 13.728c.992 0 1.784-.496 2.376-1.488.592-1.008.888-2.272.888-3.792 0-1.536-.288-2.752-.864-3.648-.56-.896-1.384-1.344-2.472-1.344-.8 0-1.504.28-2.112.84v6.672c0 1.84.728 2.76 2.184 2.76zm-5.52 3.912v-13.584l-1.44-.84v-.456l4.296-1.32h.576l-.096 2.256c.992-1.504 2.336-2.256 4.032-2.256 1.472 0 2.632.512 3.48 1.536.864 1.024 1.296 2.456 1.296 4.296 0 2.288-.608 4.088-1.824 5.4-1.2 1.312-2.728 1.968-4.584 1.968-1.088 0-1.888-.224-2.4-.672v3.6c0 .432.12.712.36.84.256.128.792.224 1.608.288v.792h-6.792v-.792c.576-.032.968-.12 1.176-.264.208-.128.312-.392.312-.792zm19.699-5.088v-14.544l-1.44-.744v-.504l4.248-1.152h.528v8.184c1.312-1.568 2.784-2.352 4.416-2.352 2.304 0 3.456 1.312 3.456 3.936v7.176c0 .4.104.672.312.816.208.128.6.208 1.176.24v.792h-6.288v-.792c.576-.032.96-.112 1.152-.24.208-.144.312-.416.312-.816v-7.008c0-1.392-.624-2.088-1.872-2.088-.816 0-1.704.328-2.664.984v8.112c0 .4.096.672.288.816.208.128.6.208 1.176.24v.792h-6.288v-.792c.576-.032.968-.112 1.176-.24.208-.144.312-.416.312-.816zm19.669-11.112c1.568 0 2.776.464 3.624 1.392.848.928 1.272 2.136 1.272 3.624v.552h-7.824c-.048 1.648.304 2.952 1.056 3.912s1.728 1.44 2.928 1.44c1.488 0 2.68-.648 3.576-1.944l.384.216c-.32 1.232-.92 2.208-1.8 2.928-.88.72-1.992 1.08-3.336 1.08-1.728 0-3.128-.576-4.2-1.728-1.072-1.168-1.608-2.68-1.608-4.536 0-2.016.568-3.672 1.704-4.968 1.152-1.312 2.56-1.968 4.224-1.968zm-.24.888c-.768 0-1.376.344-1.824 1.032-.448.688-.72 1.608-.816 2.76h4.8c0-2.528-.72-3.792-2.16-3.792zm11.221 3.408v6.624c0 .464.136.776.408.936.288.144.832.248 1.632.312v.792h-6.864v-.792c.592-.032.992-.112 1.2-.24.208-.144.312-.416.312-.816v-8.496l-1.44-.84v-.456l4.296-1.32h.552l-.096 3.552c.592-1.344 1.112-2.272 1.56-2.784a2.238 2.238 0 0 1 1.728-.768c.48 0 .832.136 1.056.408v2.592h-.456c-.896 0-1.632.08-2.208.24-.56.144-1.12.496-1.68 1.056zm11.269-4.296c1.568 0 2.776.464 3.624 1.392.848.928 1.272 2.136 1.272 3.624v.552h-7.824c-.048 1.648.304 2.952 1.056 3.912s1.728 1.44 2.928 1.44c1.488 0 2.68-.648 3.576-1.944l.384.216c-.32 1.232-.92 2.208-1.8 2.928-.88.72-1.992 1.08-3.336 1.08-1.728 0-3.128-.576-4.2-1.728-1.072-1.168-1.608-2.68-1.608-4.536 0-2.016.568-3.672 1.704-4.968 1.152-1.312 2.56-1.968 4.224-1.968zm-.24.888c-.768 0-1.376.344-1.824 1.032-.448.688-.72 1.608-.816 2.76h4.8c0-2.528-.72-3.792-2.16-3.792zM33.03 257.895c-1.013 1.109-2.314 1.664-3.903 1.664-1.59 0-2.88-.56-3.872-1.68-1.003-1.099-1.504-2.528-1.504-4.288 0-1.739.5-3.157 1.504-4.256.992-1.099 2.282-1.648 3.872-1.648 1.6 0 2.9.549 3.904 1.648.992 1.109 1.488 2.528 1.488 4.256 0 1.771-.496 3.205-1.488 4.304zm-7.76-4.304c0 1.408.358 2.533 1.073 3.376.714.843 1.648 1.264 2.8 1.264s2.085-.421 2.8-1.264c.704-.832 1.056-1.957 1.056-3.376 0-1.397-.358-2.507-1.072-3.328-.715-.832-1.643-1.248-2.784-1.248-1.142 0-2.075.416-2.8 1.248-.715.821-1.072 1.931-1.072 3.328zm15.693-2.768c.875 0 1.557.24 2.048.72.501.48.752 1.152.752 2.016v5.728h-1.472v-5.44c0-1.163-.55-1.744-1.648-1.744-.693 0-1.259.219-1.696.656-.437.427-.656 1.072-.656 1.936v4.592H36.82v-8.256h1.376v1.168c.597-.917 1.52-1.376 2.768-1.376zm8.7 8.672c-1.184 0-2.117-.373-2.8-1.12-.683-.747-1.024-1.797-1.024-3.152 0-1.376.347-2.453 1.04-3.232.693-.779 1.648-1.168 2.864-1.168.97 0 1.76.256 2.368.768.608.501.981 1.216 1.12 2.144H51.84c-.224-1.12-.917-1.68-2.08-1.68-1.632 0-2.448 1.035-2.448 3.104 0 .981.208 1.744.624 2.288.427.544 1.03.816 1.808.816 1.163 0 1.867-.619 2.112-1.856h1.376c-.15.992-.528 1.755-1.136 2.288-.608.533-1.419.8-2.432.8zm12.746-4.528v.544h-6.192c.022.896.251 1.584.688 2.064.438.469 1.04.704 1.808.704 1.142 0 1.904-.549 2.288-1.648l1.344.16c-.256.853-.709 1.515-1.36 1.984-.64.469-1.413.704-2.32.704-1.226 0-2.181-.405-2.864-1.216-.704-.8-1.056-1.845-1.056-3.136 0-1.291.347-2.331 1.04-3.12.683-.779 1.632-1.168 2.848-1.168 1.163 0 2.08.368 2.752 1.104.683.736 1.024 1.744 1.024 3.024zm-2.128-2.304c-.416-.416-.96-.624-1.632-.624-.661 0-1.21.203-1.648.608-.426.416-.682 1.019-.768 1.808h4.8c-.096-.768-.346-1.365-.752-1.792zm11.562 5.056 2.384-6.688h1.52l-3.84 9.872c-.245.619-.538 1.045-.88 1.28-.33.245-.794.368-1.392.368h-.912v-1.232h.768c.374 0 .651-.075.832-.224.192-.149.374-.443.544-.88l.384-1.008-3.328-8.176h1.6l2.144 5.696.176.992zm8.76 1.776c-1.194 0-2.148-.4-2.863-1.2-.736-.8-1.104-1.845-1.104-3.136 0-1.323.373-2.373 1.12-3.152.736-.789 1.701-1.184 2.896-1.184 1.163 0 2.112.384 2.848 1.152.725.789 1.088 1.829 1.088 3.12 0 1.301-.373 2.357-1.12 3.168-.757.821-1.712 1.232-2.864 1.232zm0-1.232c.78 0 1.393-.288 1.84-.864.449-.576.673-1.344.673-2.304 0-.939-.224-1.68-.672-2.224-.437-.544-1.05-.816-1.84-.816-.779 0-1.392.277-1.84.832-.437.555-.656 1.312-.656 2.272 0 .939.224 1.691.672 2.256.448.565 1.056.848 1.824.848zm11.532-2.64v-4.592h1.472v8.256H92.23v-1.168c-.597.917-1.52 1.376-2.768 1.376-.875 0-1.563-.24-2.064-.72-.49-.48-.736-1.152-.736-2.016v-5.728h1.472v5.44c0 1.163.55 1.744 1.648 1.744.693 0 1.258-.213 1.696-.64.437-.437.656-1.088.656-1.952zm5.324-3.312h-1.296v-4.416h1.296v4.416zm6.627-1.504c.16 0 .262.005.304.016v1.44a4.967 4.967 0 0 0-.528-.016c-.597 0-1.13.224-1.6.672-.48.448-.736 1.067-.768 1.856v4.512h-1.472v-8.256h1.376v1.664c.576-1.259 1.472-1.888 2.688-1.888zm9.011 4.16v.544h-6.192c.021.896.25 1.584.688 2.064.437.469 1.04.704 1.808.704 1.141 0 1.904-.549 2.288-1.648l1.344.16c-.256.853-.71 1.515-1.36 1.984-.64.469-1.414.704-2.32.704-1.227 0-2.182-.405-2.864-1.216-.704-.8-1.056-1.845-1.056-3.136 0-1.291.346-2.331 1.04-3.12.682-.779 1.632-1.168 2.848-1.168 1.162 0 2.08.368 2.752 1.104.682.736 1.024 1.744 1.024 3.024zm-2.128-2.304c-.416-.416-.96-.624-1.632-.624-.662 0-1.211.203-1.648.608-.427.416-.683 1.019-.768 1.808h4.8c-.096-.768-.347-1.365-.752-1.792zm14.106-.64v-4.128h1.472v11.392h-1.28v-1.312a2.81 2.81 0 0 1-1.088 1.088c-.469.267-.992.4-1.568.4-1.099 0-1.973-.416-2.624-1.248-.651-.811-.976-1.872-.976-3.184 0-1.237.331-2.245.992-3.024.661-.768 1.52-1.152 2.576-1.152 1.088 0 1.92.389 2.496 1.168zm-3.984 5.312c.405.576.96.864 1.664.864s1.28-.283 1.728-.848c.448-.565.672-1.328.672-2.288 0-.939-.213-1.664-.64-2.176-.427-.512-1.003-.768-1.728-.768-.736 0-1.307.256-1.712.768-.395.501-.592 1.216-.592 2.144 0 .971.203 1.739.608 2.304zm11.497 2.16c-1.194 0-2.149-.4-2.864-1.2-.736-.8-1.104-1.845-1.104-3.136 0-1.323.374-2.373 1.12-3.152.736-.789 1.702-1.184 2.896-1.184 1.163 0 2.112.384 2.848 1.152.726.789 1.088 1.829 1.088 3.12 0 1.301-.373 2.357-1.12 3.168-.757.821-1.712 1.232-2.864 1.232zm0-1.232c.779 0 1.392-.288 1.84-.864.448-.576.672-1.344.672-2.304 0-.939-.224-1.68-.672-2.224-.437-.544-1.05-.816-1.84-.816-.778 0-1.392.277-1.84.832-.437.555-.656 1.312-.656 2.272 0 .939.224 1.691.672 2.256.448.565 1.056.848 1.824.848zm10.203-7.44c.875 0 1.558.24 2.048.72.502.48.752 1.152.752 2.016v5.728h-1.472v-5.44c0-1.163-.549-1.744-1.648-1.744-.693 0-1.258.219-1.696.656-.437.427-.656 1.072-.656 1.936v4.592h-1.472v-8.256h1.376v1.168c.598-.917 1.52-1.376 2.768-1.376zm12.54 4.144v.544h-6.192c.022.896.251 1.584.688 2.064.438.469 1.04.704 1.808.704 1.142 0 1.904-.549 2.288-1.648l1.344.16c-.256.853-.709 1.515-1.36 1.984-.64.469-1.413.704-2.32.704-1.226 0-2.181-.405-2.864-1.216-.704-.8-1.056-1.845-1.056-3.136 0-1.291.347-2.331 1.04-3.12.683-.779 1.632-1.168 2.848-1.168 1.163 0 2.08.368 2.752 1.104.683.736 1.024 1.744 1.024 3.024zm-2.128-2.304c-.416-.416-.96-.624-1.632-.624-.661 0-1.21.203-1.648.608-.426.416-.682 1.019-.768 1.808h4.8c-.096-.768-.346-1.365-.752-1.792zm4.626 8.912h-.16v-.8h.16c.501 0 .752-.251.752-.752v-.816l-.928.08v-1.6h1.76v2.16c0 1.152-.528 1.728-1.584 1.728zm12.741-12.448h-.848c-.394 0-.666.075-.816.224-.149.149-.224.421-.224.816v.928l1.888-.064v1.136l-1.888-.064v7.184h-1.472v-7.184l-1.328.064v-1.136l1.328.048v-.704c0-.864.198-1.493.592-1.888.395-.395 1.024-.592 1.888-.592h.88v1.232zm5.018 10.368c-1.194 0-2.149-.4-2.864-1.2-.736-.8-1.104-1.845-1.104-3.136 0-1.323.374-2.373 1.12-3.152.736-.789 1.702-1.184 2.896-1.184 1.163 0 2.112.384 2.848 1.152.726.789 1.088 1.829 1.088 3.12 0 1.301-.373 2.357-1.12 3.168-.757.821-1.712 1.232-2.864 1.232zm0-1.232c.779 0 1.392-.288 1.84-.864.448-.576.672-1.344.672-2.304 0-.939-.224-1.68-.672-2.224-.437-.544-1.05-.816-1.84-.816-.778 0-1.392.277-1.84.832-.437.555-.656 1.312-.656 2.272 0 .939.224 1.691.672 2.256.448.565 1.056.848 1.824.848zm7.531 1.024h-1.472v-11.392h1.472v11.392zm4.031 0h-1.472v-11.392h1.472v11.392zm6.048.208c-1.195 0-2.15-.4-2.864-1.2-.736-.8-1.104-1.845-1.104-3.136 0-1.323.373-2.373 1.12-3.152.736-.789 1.701-1.184 2.896-1.184 1.162 0 2.112.384 2.848 1.152.725.789 1.088 1.829 1.088 3.12 0 1.301-.374 2.357-1.12 3.168-.758.821-1.712 1.232-2.864 1.232zm0-1.232c.778 0 1.392-.288 1.84-.864.448-.576.672-1.344.672-2.304 0-.939-.224-1.68-.672-2.224-.438-.544-1.051-.816-1.84-.816-.779 0-1.392.277-1.84.832-.438.555-.656 1.312-.656 2.272 0 .939.224 1.691.672 2.256.448.565 1.056.848 1.824.848zm13.538-2.464 1.36-4.768h1.52l-2.688 8.256h-1.472l-1.168-4.928-.416-2.08-.448 2.08-1.248 4.928h-1.504l-2.608-8.256h1.6l1.296 4.768.496 1.968.432-1.968 1.184-4.768h1.6l1.184 4.768.4 1.968.48-1.968zm12.832-3.632-1.888-.064v5.152c0 .309.053.523.16.64.117.107.331.16.64.16h1.072v1.232h-1.504c-.64 0-1.109-.144-1.408-.432-.288-.299-.432-.768-.432-1.408v-5.344l-1.232.064v-1.136l1.232.048v-2.576h1.472v2.592l1.888-.064v1.136zm5.911-1.344c.874 0 1.557.24 2.048.72.501.48.752 1.152.752 2.016v5.728h-1.472v-5.44c0-1.163-.55-1.744-1.648-1.744-.694 0-1.259.219-1.696.656-.438.427-.656 1.072-.656 1.936v4.592h-1.472v-11.392h1.472v4.176c.597-.832 1.488-1.248 2.672-1.248zm12.54 4.144v.544h-6.192c.021.896.25 1.584.688 2.064.437.469 1.04.704 1.808.704 1.141 0 1.904-.549 2.288-1.648l1.344.16c-.256.853-.71 1.515-1.36 1.984-.64.469-1.414.704-2.32.704-1.227 0-2.182-.405-2.864-1.216-.704-.8-1.056-1.845-1.056-3.136 0-1.291.346-2.331 1.04-3.12.682-.779 1.632-1.168 2.848-1.168 1.162 0 2.08.368 2.752 1.104.682.736 1.024 1.744 1.024 3.024zm-2.128-2.304c-.416-.416-.96-.624-1.632-.624-.662 0-1.211.203-1.648.608-.427.416-.683 1.019-.768 1.808h4.8c-.096-.768-.347-1.365-.752-1.792zm11.322 6.832c-2.102 0-3.248-.939-3.44-2.816h1.408c.074.565.282.981.624 1.248.341.256.832.384 1.472.384s1.125-.112 1.456-.336c.341-.224.512-.544.512-.96 0-.619-.432-1.019-1.296-1.2l-1.664-.352c-1.526-.32-2.288-1.067-2.288-2.24 0-.747.266-1.328.8-1.744.533-.427 1.29-.64 2.272-.64.97 0 1.744.219 2.32.656.586.437.933 1.083 1.04 1.936h-1.456c-.16-.949-.811-1.424-1.952-1.424-1.11 0-1.664.363-1.664 1.088 0 .288.096.523.288.704.202.171.533.304.992.4l1.6.352c.832.192 1.44.48 1.824.864.394.373.592.864.592 1.472 0 .811-.304 1.451-.912 1.92-.608.459-1.451.688-2.528.688zm9.23-7.328-1.888-.064v5.152c0 .309.053.523.16.64.117.107.331.16.64.16h1.072v1.232h-1.504c-.64 0-1.109-.144-1.408-.432-.288-.299-.432-.768-.432-1.408v-5.344l-1.232.064v-1.136l1.232.048v-2.576h1.472v2.592l1.888-.064v1.136zm8.951 2.8v.544h-6.192c.021.896.25 1.584.688 2.064.437.469 1.04.704 1.808.704 1.141 0 1.904-.549 2.288-1.648l1.344.16c-.256.853-.71 1.515-1.36 1.984-.64.469-1.414.704-2.32.704-1.227 0-2.182-.405-2.864-1.216-.704-.8-1.056-1.845-1.056-3.136 0-1.291.346-2.331 1.04-3.12.682-.779 1.632-1.168 2.848-1.168 1.162 0 2.08.368 2.752 1.104.682.736 1.024 1.744 1.024 3.024zm-2.128-2.304c-.416-.416-.96-.624-1.632-.624-.662 0-1.211.203-1.648.608-.427.416-.683 1.019-.768 1.808h4.8c-.096-.768-.347-1.365-.752-1.792zm8.193-1.808c1.067 0 1.926.373 2.576 1.12.651.747.976 1.744.976 2.992 0 1.312-.325 2.389-.976 3.232-.65.843-1.53 1.264-2.64 1.264-1.034 0-1.85-.395-2.448-1.184v4.272h-1.472v-11.52h1.28v1.328a2.81 2.81 0 0 1 1.088-1.088 3.175 3.175 0 0 1 1.616-.416zm-1.92 6.496c.438.565 1.008.848 1.712.848s1.264-.299 1.68-.896c.406-.597.608-1.376.608-2.336 0-.917-.197-1.621-.592-2.112-.394-.491-.96-.736-1.696-.736-.725 0-1.306.256-1.744.768-.426.512-.64 1.237-.64 2.176 0 .96.224 1.723.672 2.288zm10.346 2.144c-2.102 0-3.248-.939-3.44-2.816h1.408c.074.565.282.981.624 1.248.341.256.832.384 1.472.384s1.125-.112 1.456-.336c.341-.224.512-.544.512-.96 0-.619-.432-1.019-1.296-1.2l-1.664-.352c-1.526-.32-2.288-1.067-2.288-2.24 0-.747.266-1.328.8-1.744.533-.427 1.29-.64 2.272-.64.97 0 1.744.219 2.32.656.586.437.933 1.083 1.04 1.936h-1.456c-.16-.949-.811-1.424-1.952-1.424-1.11 0-1.664.363-1.664 1.088 0 .288.096.523.288.704.202.171.533.304.992.4l1.6.352c.832.192 1.44.48 1.824.864.394.373.592.864.592 1.472 0 .811-.304 1.451-.912 1.92-.608.459-1.451.688-2.528.688zm13.574-8.64c1.067 0 1.926.373 2.576 1.12.651.747.976 1.744.976 2.992 0 1.312-.325 2.389-.976 3.232-.65.843-1.53 1.264-2.64 1.264a3.116 3.116 0 0 1-1.568-.4 2.735 2.735 0 0 1-1.072-1.072v1.296h-1.28v-11.392h1.472v4.144c.566-.789 1.403-1.184 2.512-1.184zm-1.92 6.496c.438.565 1.008.848 1.712.848s1.264-.299 1.68-.896c.406-.597.608-1.376.608-2.336 0-.917-.197-1.621-.592-2.112-.394-.491-.96-.736-1.696-.736-.725 0-1.306.256-1.744.768-.426.512-.64 1.237-.64 2.176 0 .96.224 1.723.672 2.288zm14.73-2.384v.544h-6.192c.021.896.25 1.584.688 2.064.437.469 1.04.704 1.808.704 1.141 0 1.904-.549 2.288-1.648l1.344.16c-.256.853-.71 1.515-1.36 1.984-.64.469-1.414.704-2.32.704-1.227 0-2.182-.405-2.864-1.216-.704-.8-1.056-1.845-1.056-3.136 0-1.291.346-2.331 1.04-3.12.682-.779 1.632-1.168 2.848-1.168 1.162 0 2.08.368 2.752 1.104.682.736 1.024 1.744 1.024 3.024zm-2.128-2.304c-.416-.416-.96-.624-1.632-.624-.662 0-1.211.203-1.648.608-.427.416-.683 1.019-.768 1.808h4.8c-.096-.768-.347-1.365-.752-1.792zm5.681 6.624h-1.472v-11.392h1.472v11.392zm6.048.208c-1.195 0-2.15-.4-2.864-1.2-.736-.8-1.104-1.845-1.104-3.136 0-1.323.373-2.373 1.12-3.152.736-.789 1.701-1.184 2.896-1.184 1.162 0 2.112.384 2.848 1.152.725.789 1.088 1.829 1.088 3.12 0 1.301-.374 2.357-1.12 3.168-.758.821-1.712 1.232-2.864 1.232zm0-1.232c.778 0 1.392-.288 1.84-.864.448-.576.672-1.344.672-2.304 0-.939-.224-1.68-.672-2.224-.438-.544-1.051-.816-1.84-.816-.779 0-1.392.277-1.84.832-.438.555-.656 1.312-.656 2.272 0 .939.224 1.691.672 2.256.448.565 1.056.848 1.824.848zm13.538-2.464 1.36-4.768h1.52l-2.688 8.256h-1.472l-1.168-4.928-.416-2.08-.448 2.08-1.248 4.928h-1.504l-2.608-8.256h1.6l1.296 4.768.496 1.968.432-1.968 1.184-4.768h1.6l1.184 4.768.4 1.968.48-1.968zm12.832-3.632-1.888-.064v5.152c0 .309.053.523.16.64.117.107.33.16.64.16h1.072v1.232h-1.504c-.64 0-1.11-.144-1.408-.432-.288-.299-.432-.768-.432-1.408v-5.344l-1.232.064v-1.136l1.232.048v-2.576h1.472v2.592l1.888-.064v1.136zm5.255 7.328c-1.195 0-2.15-.4-2.864-1.2-.736-.8-1.104-1.845-1.104-3.136 0-1.323.373-2.373 1.12-3.152.736-.789 1.701-1.184 2.896-1.184 1.162 0 2.112.384 2.848 1.152.725.789 1.088 1.829 1.088 3.12 0 1.301-.374 2.357-1.12 3.168-.758.821-1.712 1.232-2.864 1.232zm0-1.232c.778 0 1.392-.288 1.84-.864.448-.576.672-1.344.672-2.304 0-.939-.224-1.68-.672-2.224-.438-.544-1.051-.816-1.84-.816-.779 0-1.392.277-1.84.832-.438.555-.656 1.312-.656 2.272 0 .939.224 1.691.672 2.256.448.565 1.056.848 1.824.848zm-236.246 25.232c-1.184 0-2.117-.373-2.8-1.12-.683-.747-1.024-1.797-1.024-3.152 0-1.376.347-2.453 1.04-3.232.693-.779 1.648-1.168 2.864-1.168.971 0 1.76.256 2.368.768.608.501.981 1.216 1.12 2.144h-1.392c-.224-1.12-.917-1.68-2.08-1.68-1.632 0-2.448 1.035-2.448 3.104 0 .981.208 1.744.624 2.288.427.544 1.029.816 1.808.816 1.163 0 1.867-.619 2.112-1.856h1.376c-.149.992-.528 1.755-1.136 2.288-.608.533-1.419.8-2.432.8zm9.05 0c-1.194 0-2.149-.4-2.864-1.2-.736-.8-1.104-1.845-1.104-3.136 0-1.323.374-2.373 1.12-3.152.736-.789 1.702-1.184 2.896-1.184 1.163 0 2.112.384 2.848 1.152.726.789 1.088 1.829 1.088 3.12 0 1.301-.373 2.357-1.12 3.168-.757.821-1.712 1.232-2.864 1.232zm0-1.232c.779 0 1.392-.288 1.84-.864.448-.576.672-1.344.672-2.304 0-.939-.224-1.68-.672-2.224-.437-.544-1.05-.816-1.84-.816-.778 0-1.392.277-1.84.832-.437.555-.656 1.312-.656 2.272 0 .939.224 1.691.672 2.256.448.565 1.056.848 1.824.848zm14.827-7.44c1.685 0 2.528.933 2.528 2.8v5.664h-1.472v-5.648c0-.48-.123-.853-.368-1.12-.245-.277-.597-.416-1.056-.416-.608 0-1.099.224-1.472.672-.363.437-.544 1.115-.544 2.032v4.48h-1.472v-5.648c0-.48-.128-.853-.384-1.12-.245-.277-.592-.416-1.04-.416-.597 0-1.083.235-1.456.704-.373.459-.56 1.152-.56 2.08v4.4h-1.472v-8.256h1.408l-.064 1.216c.565-.949 1.403-1.424 2.512-1.424 1.163 0 1.925.48 2.288 1.44.544-.96 1.419-1.44 2.624-1.44zm9.076.032c1.066 0 1.925.373 2.576 1.12.65.747.975 1.744.975 2.992 0 1.312-.325 2.389-.975 3.232-.651.843-1.531 1.264-2.64 1.264-1.035 0-1.851-.395-2.448-1.184v4.272h-1.472v-11.52h1.28v1.328a2.803 2.803 0 0 1 1.088-1.088 3.173 3.173 0 0 1 1.616-.416zm-1.92 6.496c.437.565 1.008.848 1.712.848s1.264-.299 1.68-.896c.405-.597.608-1.376.608-2.336 0-.917-.198-1.621-.592-2.112-.395-.491-.96-.736-1.696-.736-.726 0-1.307.256-1.744.768-.427.512-.64 1.237-.64 2.176 0 .96.224 1.723.672 2.288zm9.017 1.936h-1.472v-11.392h1.472v11.392zm9.743-4.32v.544h-6.192c.021.896.251 1.584.688 2.064.437.469 1.04.704 1.808.704 1.141 0 1.904-.549 2.288-1.648l1.344.16c-.256.853-.709 1.515-1.36 1.984-.64.469-1.413.704-2.32.704-1.227 0-2.181-.405-2.864-1.216-.704-.8-1.056-1.845-1.056-3.136 0-1.291.347-2.331 1.04-3.12.683-.779 1.632-1.168 2.848-1.168 1.163 0 2.08.368 2.752 1.104.683.736 1.024 1.744 1.024 3.024zm-2.128-2.304c-.416-.416-.96-.624-1.632-.624-.661 0-1.211.203-1.648.608-.427.416-.683 1.019-.768 1.808h4.8c-.096-.768-.347-1.365-.752-1.792zm7.849-.496-1.888-.064v5.152c0 .309.054.523.16.64.118.107.331.16.64.16h1.072v1.232h-1.504c-.64 0-1.109-.144-1.408-.432-.288-.299-.432-.768-.432-1.408v-5.344l-1.232.064v-1.136l1.232.048v-2.576h1.472v2.592l1.888-.064v1.136zm8.951 2.8v.544h-6.192c.021.896.251 1.584.688 2.064.437.469 1.04.704 1.808.704 1.141 0 1.904-.549 2.288-1.648l1.344.16c-.256.853-.709 1.515-1.36 1.984-.64.469-1.413.704-2.32.704-1.227 0-2.181-.405-2.864-1.216-.704-.8-1.056-1.845-1.056-3.136 0-1.291.347-2.331 1.04-3.12.683-.779 1.632-1.168 2.848-1.168 1.163 0 2.08.368 2.752 1.104.683.736 1.024 1.744 1.024 3.024zm-2.128-2.304c-.416-.416-.96-.624-1.632-.624-.661 0-1.211.203-1.648.608-.427.416-.683 1.019-.768 1.808h4.8c-.096-.768-.347-1.365-.752-1.792zm11.562 5.056 2.384-6.688h1.52l-3.84 9.872c-.245.619-.539 1.045-.88 1.28-.331.245-.795.368-1.392.368h-.912v-1.232h.768c.373 0 .651-.075.832-.224.192-.149.373-.443.544-.88l.384-1.008-3.328-8.176h1.6l2.144 5.696.176.992zm8.761 1.776c-1.195 0-2.15-.4-2.864-1.2-.736-.8-1.104-1.845-1.104-3.136 0-1.323.373-2.373 1.12-3.152.736-.789 1.701-1.184 2.896-1.184 1.162 0 2.112.384 2.848 1.152.725.789 1.088 1.829 1.088 3.12 0 1.301-.374 2.357-1.12 3.168-.758.821-1.712 1.232-2.864 1.232zm0-1.232c.778 0 1.392-.288 1.84-.864.448-.576.672-1.344.672-2.304 0-.939-.224-1.68-.672-2.224-.438-.544-1.051-.816-1.84-.816-.779 0-1.392.277-1.84.832-.438.555-.656 1.312-.656 2.272 0 .939.224 1.691.672 2.256.448.565 1.056.848 1.824.848zm11.531-2.64v-4.592h1.471v8.256h-1.375v-1.168c-.598.917-1.52 1.376-2.768 1.376-.875 0-1.563-.24-2.064-.72-.491-.48-.736-1.152-.736-2.016v-5.728h1.472v5.44c0 1.163.549 1.744 1.648 1.744.693 0 1.258-.213 1.696-.64.437-.437.656-1.088.656-1.952zm8.092-4.816c.16 0 .261.005.304.016v1.44a4.994 4.994 0 0 0-.528-.016c-.598 0-1.131.224-1.6.672-.48.448-.736 1.067-.768 1.856v4.512h-1.472v-8.256h1.376v1.664c.576-1.259 1.472-1.888 2.688-1.888zm10.203 0c.16 0 .261.005.304.016v1.44a4.994 4.994 0 0 0-.528-.016c-.598 0-1.131.224-1.6.672-.48.448-.736 1.067-.768 1.856v4.512h-1.472v-8.256h1.376v1.664c.576-1.259 1.472-1.888 2.688-1.888zm9.01 4.16v.544h-6.192c.022.896.251 1.584.688 2.064.438.469 1.04.704 1.808.704 1.142 0 1.904-.549 2.288-1.648l1.344.16c-.256.853-.709 1.515-1.36 1.984-.64.469-1.413.704-2.32.704-1.226 0-2.181-.405-2.864-1.216-.704-.8-1.056-1.845-1.056-3.136 0-1.291.347-2.331 1.04-3.12.683-.779 1.632-1.168 2.848-1.168 1.163 0 2.08.368 2.752 1.104.683.736 1.024 1.744 1.024 3.024zm-2.128-2.304c-.416-.416-.96-.624-1.632-.624-.661 0-1.21.203-1.648.608-.426.416-.682 1.019-.768 1.808h4.8c-.096-.768-.346-1.365-.752-1.792zm7.849-.496-1.888-.064v5.152c0 .309.054.523.16.64.118.107.331.16.64.16h1.072v1.232h-1.504c-.64 0-1.109-.144-1.408-.432-.288-.299-.432-.768-.432-1.408v-5.344l-1.232.064v-1.136l1.232.048v-2.576h1.472v2.592l1.888-.064v1.136zm7.239 3.456v-4.592h1.472v8.256h-1.376v-1.168c-.597.917-1.52 1.376-2.768 1.376-.875 0-1.563-.24-2.064-.72-.491-.48-.736-1.152-.736-2.016v-5.728h1.472v5.44c0 1.163.549 1.744 1.648 1.744.693 0 1.259-.213 1.696-.64.437-.437.656-1.088.656-1.952zm8.092-4.816c.16 0 .261.005.304.016v1.44a4.994 4.994 0 0 0-.528-.016c-.597 0-1.131.224-1.6.672-.48.448-.736 1.067-.768 1.856v4.512h-1.472v-8.256h1.376v1.664c.576-1.259 1.472-1.888 2.688-1.888zm5.971.016c.874 0 1.557.24 2.048.72.501.48.752 1.152.752 2.016v5.728h-1.472v-5.44c0-1.163-.55-1.744-1.648-1.744-.694 0-1.259.219-1.696.656-.438.427-.656 1.072-.656 1.936v4.592h-1.472v-8.256H257v1.168c.597-.917 1.52-1.376 2.768-1.376zm7.244 8.464h-1.808v-1.616h1.808v1.616z"/><rect width="343" height="48" x="16" y="321.287" fill="#1A1A1A" rx="24"/><path fill="#fff" d="M131.29 339.895h4.528c1.237 0 2.208.325 2.912.976.704.651 1.056 1.547 1.056 2.688 0 1.184-.363 2.107-1.088 2.768-.725.661-1.755.992-3.088.992h-1.952v3.968h-2.368v-11.392zm2.368 5.424h1.744c.683 0 1.2-.149 1.552-.448.363-.299.544-.725.544-1.28 0-.533-.165-.949-.496-1.248-.331-.299-.784-.448-1.36-.448h-1.984v3.424zm11.381-2.576c.267 0 .507.037.72.112v2.064a14.846 14.846 0 0 0-.464-.032c-1.365 0-2.048.795-2.048 2.384v4.016h-2.256v-8.256h2.208l-.032 1.104c.363-.928.987-1.392 1.872-1.392zm4.255-.8h-2.256v-2.048h2.256v2.048zm0 9.344h-2.256v-8.256h2.256v8.256zm6.54-8.464c.853 0 1.515.261 1.984.784.48.523.72 1.237.72 2.144v5.536h-2.256v-5.024c0-.448-.107-.795-.32-1.04-.203-.245-.496-.368-.88-.368-.48 0-.869.187-1.168.56-.299.363-.448.848-.448 1.456v4.416h-2.256v-8.256h2.208l.032 1.12c.533-.885 1.328-1.328 2.384-1.328zm8.818 1.872-1.536-.048v4.048c0 .277.059.48.176.608.128.117.331.176.608.176h.752v1.808h-1.472c-.832 0-1.429-.176-1.792-.528-.352-.363-.528-.96-.528-1.792v-4.32l-1.12.048v-1.664l1.12.032v-2.576h2.256v2.592l1.536-.048v1.664zm9.325-1.952c.266 0 .506.037.72.112v2.064a15.077 15.077 0 0 0-.464-.032c-1.366 0-2.048.795-2.048 2.384v4.016h-2.256v-8.256h2.208l-.032 1.104c.362-.928.986-1.392 1.872-1.392zm9.871 4.704v.384h-5.984c.042.619.234 1.104.576 1.456.341.352.794.528 1.36.528.8 0 1.333-.357 1.6-1.072l2.24.16c-.278.875-.742 1.541-1.392 2-.651.448-1.451.672-2.4.672-1.334 0-2.384-.416-3.152-1.248-.768-.832-1.152-1.899-1.152-3.2 0-1.248.368-2.277 1.104-3.088.736-.811 1.722-1.216 2.96-1.216 1.248 0 2.266.416 3.056 1.248.789.843 1.184 1.968 1.184 3.376zm-2.336-1.152c-.064-.576-.256-1.024-.576-1.344-.32-.32-.736-.48-1.248-.48s-.934.16-1.264.48c-.331.341-.523.789-.576 1.344h3.664zm7.906-1.6-1.536-.048v4.048c0 .277.058.48.176.608.128.117.33.176.608.176h.752v1.808h-1.472c-.832 0-1.43-.176-1.792-.528-.352-.363-.528-.96-.528-1.792v-4.32l-1.12.048v-1.664l1.12.032v-2.576h2.256v2.592l1.536-.048v1.664zm6.348 2.752v-4.416h2.256v8.256h-2.208l-.032-1.12c-.533.885-1.328 1.328-2.384 1.328-.853 0-1.52-.261-2-.784-.469-.523-.704-1.237-.704-2.144v-5.536h2.256v5.024c0 .448.102.795.304 1.04.214.245.512.368.896.368.48 0 .87-.181 1.168-.544.299-.373.448-.864.448-1.472zm8.226-4.704c.267 0 .507.037.72.112v2.064a14.846 14.846 0 0 0-.464-.032c-1.365 0-2.048.795-2.048 2.384v4.016h-2.256v-8.256h2.208l-.032 1.104c.363-.928.987-1.392 1.872-1.392zm6.623.08c.854 0 1.515.261 1.984.784.48.523.72 1.237.72 2.144v5.536h-2.256v-5.024c0-.448-.106-.795-.32-1.04-.202-.245-.496-.368-.88-.368-.48 0-.869.187-1.168.56-.298.363-.448.848-.448 1.456v4.416h-2.256v-8.256h2.208l.032 1.12c.534-.885 1.328-1.328 2.384-1.328zm14.754 8.032c-.65.491-1.541.736-2.672.736-1.13 0-2.005-.24-2.624-.72-.629-.48-1.002-1.163-1.12-2.048l2.064-.08c.15.853.736 1.28 1.76 1.28.459 0 .822-.08 1.088-.24.267-.16.4-.384.4-.672 0-.405-.362-.683-1.088-.832l-1.632-.32c-1.6-.32-2.4-1.125-2.4-2.416 0-.832.304-1.493.912-1.984.608-.491 1.424-.736 2.448-.736.992 0 1.808.24 2.448.72.64.469 1.014 1.109 1.12 1.92l-2.032.08a1.205 1.205 0 0 0-.512-.848c-.277-.203-.629-.304-1.056-.304-.373 0-.672.08-.896.24a.749.749 0 0 0-.336.64c0 .416.31.693.928.832l1.776.368c.822.171 1.43.448 1.824.832.395.384.592.896.592 1.536 0 .864-.33 1.536-.992 2.016zm4.769.432h-2.256v-11.392h2.256v11.392zm4.172-9.344h-2.256v-2.048h2.256v2.048zm0 9.344h-2.256v-8.256h2.256v8.256zm6.572-8.464c.97 0 1.776.389 2.416 1.168.64.789.96 1.835.96 3.136 0 1.312-.331 2.379-.992 3.2-.662.821-1.515 1.232-2.56 1.232-.939 0-1.68-.347-2.224-1.04v4.032h-2.256v-11.52h2l.08 1.072c.565-.853 1.424-1.28 2.576-1.28zm-.656 6.752c.554 0 1.002-.224 1.344-.672.341-.448.512-1.04.512-1.776s-.171-1.323-.512-1.76c-.342-.448-.79-.672-1.344-.672-.555 0-1.003.224-1.344.672-.342.437-.512 1.024-.512 1.76s.17 1.328.512 1.776c.352.448.8.672 1.344.672z"/><rect width="341" height="46" x="17" y="386.287" fill="#fff" rx="23"/><rect width="341" height="46" x="17" y="386.287" stroke="#1A1A1A" stroke-width="2" rx="23"/><path fill="#1A1A1A" d="M100.394 415.655c-1.473 0-2.64-.347-3.505-1.04-.853-.693-1.295-1.648-1.328-2.864h2.32c.032.629.267 1.115.704 1.456.438.341 1.035.512 1.793.512.65 0 1.162-.123 1.536-.368.373-.256.56-.608.56-1.056 0-.373-.134-.656-.4-.848-.267-.203-.715-.384-1.344-.544l-2.097-.528c-.895-.224-1.589-.608-2.08-1.152-.48-.544-.72-1.216-.72-2.016 0-.992.368-1.835 1.105-2.528.725-.693 1.775-1.04 3.152-1.04 1.376 0 2.474.341 3.295 1.024.822.693 1.27 1.6 1.345 2.72h-2.304c-.075-.565-.32-1.008-.736-1.328-.416-.32-.944-.48-1.584-.48-.576 0-1.035.128-1.376.384-.342.256-.513.587-.513.992 0 .629.443 1.056 1.329 1.28l2.272.56c2.069.501 3.104 1.595 3.104 3.28 0 1.109-.406 1.984-1.216 2.624-.8.64-1.904.96-3.312.96zm13.985-4.208v.384h-5.984c.043.619.235 1.104.576 1.456.341.352.795.528 1.36.528.8 0 1.333-.357 1.6-1.072l2.24.16c-.277.875-.741 1.541-1.392 2-.651.448-1.451.672-2.4.672-1.333 0-2.384-.416-3.152-1.248-.768-.832-1.152-1.899-1.152-3.2 0-1.248.368-2.277 1.104-3.088.736-.811 1.723-1.216 2.96-1.216 1.248 0 2.267.416 3.056 1.248.789.843 1.184 1.968 1.184 3.376zm-2.336-1.152c-.064-.576-.256-1.024-.576-1.344-.32-.32-.736-.48-1.248-.48s-.933.16-1.264.48c-.331.341-.523.789-.576 1.344h3.664zm8.416-3.472c.853 0 1.515.261 1.984.784.48.523.72 1.237.72 2.144v5.536h-2.256v-5.024c0-.448-.107-.795-.32-1.04-.203-.245-.496-.368-.88-.368-.48 0-.869.187-1.168.56-.299.363-.448.848-.448 1.456v4.416h-2.256v-8.256h2.208l.032 1.12c.533-.885 1.328-1.328 2.384-1.328zm9.97 1.04v-3.968h2.256v11.392h-2l-.08-1.024c-.565.864-1.365 1.296-2.4 1.296-1.045 0-1.899-.411-2.56-1.232s-.992-1.888-.992-3.2c0-1.301.32-2.347.96-3.136.64-.779 1.445-1.168 2.416-1.168 1.035 0 1.835.347 2.4 1.04zm-1.744 5.712c.544 0 .987-.224 1.328-.672.352-.448.528-1.04.528-1.776s-.171-1.323-.512-1.76c-.341-.448-.789-.672-1.344-.672s-1.003.224-1.344.672c-.341.437-.512 1.024-.512 1.76s.171 1.328.512 1.776c.341.448.789.672 1.344.672zm13.964-6.832c.266 0 .506.037.72.112v2.064a15.077 15.077 0 0 0-.464-.032c-1.366 0-2.048.795-2.048 2.384v4.016h-2.256v-8.256h2.208l-.032 1.104c.362-.928.986-1.392 1.872-1.392zm9.871 4.704v.384h-5.984c.042.619.234 1.104.576 1.456.341.352.794.528 1.36.528.8 0 1.333-.357 1.6-1.072l2.24.16c-.278.875-.742 1.541-1.392 2-.651.448-1.451.672-2.4.672-1.334 0-2.384-.416-3.152-1.248-.768-.832-1.153-1.899-1.153-3.2 0-1.248.369-2.277 1.105-3.088.736-.811 1.722-1.216 2.96-1.216 1.248 0 2.266.416 3.056 1.248.789.843 1.184 1.968 1.184 3.376zm-2.336-1.152c-.064-.576-.256-1.024-.576-1.344-.32-.32-.736-.48-1.248-.48s-.934.16-1.264.48c-.331.341-.523.789-.576 1.344h3.664zm7.906-1.6-1.536-.048v4.048c0 .277.058.48.176.608.128.117.33.176.608.176h.752v1.808h-1.472c-.832 0-1.43-.176-1.792-.528-.352-.363-.528-.96-.528-1.792v-4.32l-1.12.048v-1.664l1.12.032v-2.576h2.256v2.592l1.536-.048v1.664zm6.348 2.752v-4.416h2.256v8.256h-2.208l-.032-1.12c-.533.885-1.328 1.328-2.384 1.328-.853 0-1.52-.261-2-.784-.469-.523-.704-1.237-.704-2.144v-5.536h2.256v5.024c0 .448.102.795.304 1.04.214.245.512.368.896.368.48 0 .87-.181 1.168-.544.299-.373.448-.864.448-1.472zm8.226-4.704c.267 0 .507.037.72.112v2.064a14.846 14.846 0 0 0-.464-.032c-1.365 0-2.048.795-2.048 2.384v4.016h-2.256v-8.256h2.208l-.032 1.104c.363-.928.987-1.392 1.872-1.392zm6.623.08c.853 0 1.515.261 1.984.784.48.523.72 1.237.72 2.144v5.536h-2.256v-5.024c0-.448-.107-.795-.32-1.04-.203-.245-.496-.368-.88-.368-.48 0-.869.187-1.168.56-.299.363-.448.848-.448 1.456v4.416h-2.256v-8.256h2.208l.032 1.12c.533-.885 1.328-1.328 2.384-1.328zm14.754 8.032c-.651.491-1.541.736-2.672.736-1.131 0-2.005-.24-2.624-.72-.629-.48-1.003-1.163-1.12-2.048l2.064-.08c.149.853.736 1.28 1.76 1.28.459 0 .821-.08 1.088-.24.267-.16.4-.384.4-.672 0-.405-.363-.683-1.088-.832l-1.632-.32c-1.6-.32-2.4-1.125-2.4-2.416 0-.832.304-1.493.912-1.984.608-.491 1.424-.736 2.448-.736.992 0 1.808.24 2.448.72.64.469 1.013 1.109 1.12 1.92l-2.032.08a1.205 1.205 0 0 0-.512-.848c-.277-.203-.629-.304-1.056-.304-.373 0-.672.08-.896.24a.749.749 0 0 0-.336.64c0 .416.309.693.928.832l1.776.368c.821.171 1.429.448 1.824.832.395.384.592.896.592 1.536 0 .864-.331 1.536-.992 2.016zm4.769.432h-2.256v-11.392h2.256v11.392zm4.172-9.344h-2.256v-2.048h2.256v2.048zm0 9.344h-2.256v-8.256h2.256v8.256zm6.572-8.464c.97 0 1.776.389 2.416 1.168.64.789.96 1.835.96 3.136 0 1.312-.331 2.379-.992 3.2-.662.821-1.515 1.232-2.56 1.232-.939 0-1.68-.347-2.224-1.04v4.032h-2.256v-11.52h2l.08 1.072c.565-.853 1.424-1.28 2.576-1.28zm-.656 6.752c.554 0 1.002-.224 1.344-.672.341-.448.512-1.04.512-1.776s-.171-1.323-.512-1.76c-.342-.448-.79-.672-1.344-.672-.555 0-1.003.224-1.344.672-.342.437-.512 1.024-.512 1.76s.17 1.328.512 1.776c.352.448.8.672 1.344.672zm14.14-6.752c.971 0 1.776.389 2.416 1.168.64.789.96 1.835.96 3.136 0 1.312-.331 2.379-.992 3.2-.661.821-1.515 1.232-2.56 1.232-1.045 0-1.845-.432-2.4-1.296l-.08 1.024h-2v-11.392h2.256v3.968c.565-.693 1.365-1.04 2.4-1.04zm-.656 6.752c.555 0 1.003-.224 1.344-.672.341-.448.512-1.04.512-1.776s-.171-1.323-.512-1.76c-.341-.448-.789-.672-1.344-.672s-1.003.224-1.344.672c-.341.437-.512 1.024-.512 1.76s.171 1.328.512 1.776c.352.448.8.672 1.344.672zm8.864-.704 1.76-5.84h2.4l-3.296 9.728c-.224.683-.517 1.152-.88 1.408-.352.256-.843.384-1.472.384h-1.888v-1.92h1.088c.608 0 .997-.235 1.168-.704l.08-.224-3.216-8.672h2.48l1.52 4.64.256 1.2zm17.227-1.424v.384h-5.984c.042.619.234 1.104.576 1.456.341.352.794.528 1.36.528.8 0 1.333-.357 1.6-1.072l2.24.16c-.278.875-.742 1.541-1.392 2-.651.448-1.451.672-2.4.672-1.334 0-2.384-.416-3.152-1.248-.768-.832-1.152-1.899-1.152-3.2 0-1.248.368-2.277 1.104-3.088.736-.811 1.722-1.216 2.96-1.216 1.248 0 2.266.416 3.056 1.248.789.843 1.184 1.968 1.184 3.376zm-2.336-1.152c-.064-.576-.256-1.024-.576-1.344-.32-.32-.736-.48-1.248-.48s-.934.16-1.264.48c-.331.341-.523.789-.576 1.344h3.664zm13.072-3.472c.821 0 1.466.267 1.936.8.469.533.704 1.248.704 2.144v5.52h-2.256v-5.072c0-.405-.096-.731-.288-.976-.182-.256-.454-.384-.816-.384-.438 0-.795.187-1.072.56-.267.363-.4.848-.4 1.456v4.416h-2.256v-5.072c0-.405-.096-.731-.288-.976-.182-.256-.454-.384-.816-.384-.438 0-.795.187-1.072.56-.267.363-.4.848-.4 1.456v4.416h-2.256v-8.256h2.208l.032 1.056c.512-.843 1.258-1.264 2.24-1.264 1.173 0 1.962.496 2.368 1.488.533-.992 1.344-1.488 2.432-1.488zm11.876 8.464h-2.288a19.968 19.968 0 0 1-.176-.832c-.587.715-1.435 1.072-2.544 1.072-.864 0-1.558-.229-2.08-.688-.523-.459-.784-1.067-.784-1.824 0-1.333.837-2.165 2.512-2.496l2.88-.576v-.608c0-.597-.464-.896-1.392-.896-.459 0-.806.085-1.04.256-.235.171-.379.448-.432.832l-2.064-.032c.138-1.771 1.312-2.656 3.52-2.656 2.378 0 3.568 1.024 3.568 3.072v3.648c0 .779.106 1.355.32 1.728zm-4.368-1.424c.565 0 1.018-.165 1.36-.496.352-.341.528-.8.528-1.376v-.608l-2.112.448c-.715.139-1.072.485-1.072 1.04a.88.88 0 0 0 .336.72c.234.181.554.272.96.272zm8.218-7.92h-2.256v-2.048h2.256v2.048zm0 9.344h-2.256v-8.256h2.256v8.256zm4.172 0h-2.256v-11.392h2.256v11.392z"/><path fill="#D1D1D1" d="M16 465.287h343v1H16z"/><path fill="#1A1A1A" d="M17.04 499.895h4.528c1.237 0 2.208.325 2.912.976.704.651 1.056 1.547 1.056 2.688 0 1.184-.363 2.107-1.088 2.768-.725.661-1.755.992-3.088.992h-1.952v3.968H17.04v-11.392zm2.368 5.424h1.744c.683 0 1.2-.149 1.552-.448.363-.299.544-.725.544-1.28 0-.533-.165-.949-.496-1.248-.33-.299-.784-.448-1.36-.448h-1.984v3.424zm14.645 5.968h-2.288a21.288 21.288 0 0 1-.176-.832c-.586.715-1.434 1.072-2.544 1.072-.864 0-1.557-.229-2.08-.688-.522-.459-.784-1.067-.784-1.824 0-1.333.838-2.165 2.512-2.496l2.88-.576v-.608c0-.597-.464-.896-1.392-.896-.458 0-.805.085-1.04.256-.234.171-.378.448-.432.832l-2.064-.032c.139-1.771 1.312-2.656 3.52-2.656 2.379 0 3.568 1.024 3.568 3.072v3.648c0 .779.107 1.355.32 1.728zm-4.368-1.424c.566 0 1.019-.165 1.36-.496.352-.341.528-.8.528-1.376v-.608l-2.112.448c-.714.139-1.072.485-1.072 1.04a.88.88 0 0 0 .336.72c.235.181.555.272.96.272zm9.499 1.696c-1.206 0-2.171-.395-2.896-1.184-.715-.779-1.072-1.84-1.072-3.184s.357-2.405 1.072-3.184c.725-.789 1.69-1.184 2.896-1.184 1.056 0 1.914.272 2.576.816.66.533 1.077 1.291 1.248 2.272h-2.209c-.245-.885-.773-1.328-1.584-1.328-.576 0-1.024.229-1.344.688-.32.448-.48 1.088-.48 1.92 0 .832.16 1.477.48 1.936.32.448.768.672 1.344.672.8 0 1.328-.453 1.584-1.36h2.209c-.171.981-.593 1.749-1.265 2.304-.672.544-1.525.816-2.56.816zm13.181-.272h-2.672l-2.192-3.584-.832.848v2.736h-2.256v-11.392h2.256v6.256l2.8-3.12h2.832l-3.216 3.248 3.28 5.008zm8.423 0H58.5a21.525 21.525 0 0 1-.176-.832c-.587.715-1.435 1.072-2.544 1.072-.864 0-1.558-.229-2.08-.688-.523-.459-.784-1.067-.784-1.824 0-1.333.837-2.165 2.512-2.496l2.88-.576v-.608c0-.597-.464-.896-1.392-.896-.459 0-.806.085-1.04.256-.235.171-.379.448-.432.832l-2.064-.032c.138-1.771 1.312-2.656 3.52-2.656 2.378 0 3.568 1.024 3.568 3.072v3.648c0 .779.106 1.355.32 1.728zm-4.368-1.424c.565 0 1.018-.165 1.36-.496.352-.341.528-.8.528-1.376v-.608l-2.112.448c-.715.139-1.072.485-1.072 1.04a.88.88 0 0 0 .336.72c.234.181.554.272.96.272zm11.482-5.808.08-1.024h2v8.352c0 1.077-.347 1.904-1.04 2.48-.683.587-1.648.88-2.896.88-1.152 0-2.054-.24-2.704-.72-.64-.48-1.003-1.168-1.088-2.064h2.08c.128.736.682 1.104 1.664 1.104.618 0 1.061-.139 1.328-.416.267-.267.4-.677.4-1.232v-1.136c-.555.672-1.302 1.008-2.24 1.008-1.046 0-1.894-.4-2.544-1.2-.661-.789-.992-1.819-.992-3.088 0-1.28.33-2.299.992-3.056.65-.747 1.498-1.12 2.544-1.12 1.066 0 1.872.411 2.416 1.232zm-1.92 5.312c.544 0 .987-.219 1.328-.656.352-.437.528-1.008.528-1.712s-.176-1.275-.528-1.712c-.341-.437-.784-.656-1.328-.656-.555 0-1.003.213-1.344.64-.342.427-.512 1.003-.512 1.728 0 .725.17 1.301.512 1.728.341.427.79.64 1.344.64zm13.787-1.92v.384h-5.984c.043.619.235 1.104.577 1.456.34.352.794.528 1.36.528.8 0 1.333-.357 1.6-1.072l2.24.16c-.278.875-.742 1.541-1.392 2-.651.448-1.451.672-2.4.672-1.334 0-2.385-.416-3.152-1.248-.768-.832-1.152-1.899-1.152-3.2 0-1.248.368-2.277 1.104-3.088.736-.811 1.722-1.216 2.96-1.216 1.248 0 2.266.416 3.055 1.248.79.843 1.184 1.968 1.184 3.376zm-2.336-1.152c-.064-.576-.256-1.024-.576-1.344-.32-.32-.736-.48-1.248-.48-.511 0-.933.16-1.263.48-.331.341-.523.789-.577 1.344h3.664zm11.329 2.576 1.76-5.84h2.4l-3.296 9.728c-.224.683-.518 1.152-.88 1.408-.352.256-.843.384-1.472.384h-1.888v-1.92h1.088c.608 0 .997-.235 1.168-.704l.08-.224-3.216-8.672h2.48l1.52 4.64.256 1.2zm12.03 1.44c-.779.832-1.792 1.248-3.04 1.248s-2.261-.416-3.04-1.248c-.79-.821-1.184-1.861-1.184-3.12 0-1.248.395-2.293 1.184-3.136.79-.821 1.803-1.232 3.04-1.232s2.251.411 3.04 1.232c.789.843 1.184 1.888 1.184 3.136 0 1.259-.395 2.299-1.184 3.12zm-5.088-3.12c0 .8.187 1.435.56 1.904.373.469.87.704 1.488.704.63 0 1.13-.235 1.504-.704.363-.459.544-1.093.544-1.904 0-.811-.181-1.445-.544-1.904-.373-.469-.875-.704-1.504-.704-.619 0-1.115.235-1.488.704s-.56 1.104-.56 1.904zm12.797.256v-4.416h2.256v8.256h-2.208l-.032-1.12c-.534.885-1.328 1.328-2.384 1.328-.854 0-1.52-.261-2-.784-.47-.523-.704-1.237-.704-2.144v-5.536h2.256v5.024c0 .448.101.795.304 1.04.213.245.512.368.896.368.48 0 .869-.181 1.168-.544.298-.373.448-.864.448-1.472zm8.226-4.704c.266 0 .506.037.72.112v2.064a15.077 15.077 0 0 0-.464-.032c-1.366 0-2.048.795-2.048 2.384v4.016h-2.256v-8.256h2.208l-.032 1.104c.362-.928.986-1.392 1.872-1.392zm10.047 0c.266 0 .506.037.72.112v2.064a15.077 15.077 0 0 0-.464-.032c-1.366 0-2.048.795-2.048 2.384v4.016h-2.256v-8.256h2.208l-.032 1.104c.362-.928.986-1.392 1.872-1.392zm9.871 4.704v.384h-5.984c.042.619.234 1.104.576 1.456.341.352.794.528 1.36.528.8 0 1.333-.357 1.6-1.072l2.24.16c-.278.875-.742 1.541-1.392 2-.651.448-1.451.672-2.4.672-1.334 0-2.384-.416-3.152-1.248-.768-.832-1.153-1.899-1.153-3.2 0-1.248.369-2.277 1.105-3.088.736-.811 1.722-1.216 2.96-1.216 1.248 0 2.266.416 3.056 1.248.789.843 1.184 1.968 1.184 3.376zm-2.336-1.152c-.064-.576-.256-1.024-.576-1.344-.32-.32-.736-.48-1.248-.48s-.934.16-1.264.48c-.331.341-.523.789-.576 1.344h3.664zm7.906-1.6-1.536-.048v4.048c0 .277.058.48.176.608.128.117.33.176.608.176h.752v1.808h-1.472c-.832 0-1.43-.176-1.792-.528-.352-.363-.528-.96-.528-1.792v-4.32l-1.12.048v-1.664l1.12.032v-2.576h2.256v2.592l1.536-.048v1.664zm6.348 2.752v-4.416h2.256v8.256h-2.208l-.032-1.12c-.533.885-1.328 1.328-2.384 1.328-.853 0-1.52-.261-2-.784-.469-.523-.704-1.237-.704-2.144v-5.536h2.256v5.024c0 .448.102.795.304 1.04.214.245.512.368.896.368.48 0 .87-.181 1.168-.544.299-.373.448-.864.448-1.472zm8.226-4.704c.267 0 .507.037.72.112v2.064a14.846 14.846 0 0 0-.464-.032c-1.365 0-2.048.795-2.048 2.384v4.016h-2.256v-8.256h2.208l-.032 1.104c.363-.928.987-1.392 1.872-1.392zm6.623.08c.853 0 1.515.261 1.984.784.48.523.72 1.237.72 2.144v5.536h-2.256v-5.024c0-.448-.107-.795-.32-1.04-.203-.245-.496-.368-.88-.368-.48 0-.869.187-1.168.56-.299.363-.448.848-.448 1.456v4.416h-2.256v-8.256h2.208l.032 1.12c.533-.885 1.328-1.328 2.384-1.328z"/><path fill="#FF85F4" d="M19.19 549.937c1.77-12.312 14.303-18.933 38.614 33.92 12.258 26.654-4.291 15.145-24.515-6.662-4.346-4.68-15.905-14.696-14.1-27.258z"/><path fill="#1A1A1A" fill-rule="evenodd" d="M73.666 559.019a6.102 6.102 0 0 0-7.407-4.332l-3.606.966.963-3.596.003-.01a6.103 6.103 0 1 0-6.459 4.565l-.147.552-4.465 1.196-9.224-9.224a1 1 0 0 0-1.415 0l-21.616 21.616a1 1 0 0 0 0 1.414l25.857 25.858c.39.39 1.024.39 1.415 0l21.616-21.617a.998.998 0 0 0-.003-1.417l-9.251-9.163 1.214-4.534.552-.148a6.103 6.103 0 1 0 11.973-2.126zm-14.335 9.032-.71 2.648-.006.02v.004l-.002.005-.006.02-.02.068-.078.243a17.36 17.36 0 0 1-.286.797c-.236.605-.599 1.426-1.062 2.038-.512.678-.945 1.022-1.642 1.467-.422.269-.908.553-1.282.766l-.468.263-.137.075-.037.02-.012.007-.002.001a1 1 0 0 1-1.443-1.138l2.841-10.604-.078.079a1 1 0 0 1-1.414-1.415l.644-.644-.093-.093-2.494-2.494-8.927-8.927-20.203 20.202 11.515 11.515.644-.644a1 1 0 1 1 1.414 1.414l-.644.644 11.514 11.514 20.2-20.199-7.727-7.652zm.028-7.834-2.666 9.952-.002.006-.016.052a13.63 13.63 0 0 1-.316.904c-.223.572-.505 1.176-.793 1.557a3.19 3.19 0 0 1-.861.815l3.176-11.855a1 1 0 0 0-1.224-1.224l-1.613.432-.552-.553-.31-.31 3.906-1.047a1 1 0 0 0 .707-.707l.643-2.401a1.001 1.001 0 0 0-1.116-1.247 4.102 4.102 0 1 1 3.36-3.046l-1.41 5.263a1 1 0 0 0 1.225 1.225l5.263-1.41a4.102 4.102 0 1 1-3.046 3.36 1 1 0 0 0-1.247-1.116l-2.4.643a1 1 0 0 0-.708.707zm11.606-.483a3.245 3.245 0 1 0-6.268 1.68 3.245 3.245 0 0 0 6.268-1.68zm-3.456-.362a1.244 1.244 0 1 1 .644 2.404 1.244 1.244 0 0 1-.644-2.404zm-9.456-10.1a1.244 1.244 0 1 1-.644 2.404 1.244 1.244 0 0 1 .644-2.404zm2.812 2.042a3.245 3.245 0 1 0-6.269-1.68 3.245 3.245 0 0 0 6.269 1.68zm-8.666 16.218a1.001 1.001 0 0 0-1.414-1.415l-1.351 1.351a1.001 1.001 0 0 0 1.414 1.415l1.351-1.351zm-4.053 4.053a1.001 1.001 0 0 0-1.414-1.415l-1.351 1.352a1 1 0 1 0 1.414 1.414l1.351-1.351zm-4.053 4.053a1 1 0 1 0-1.414-1.414l-1.351 1.351a1 1 0 1 0 1.414 1.414l1.351-1.351zm-4.053 4.053a1 1 0 1 0-1.414-1.414l-1.351 1.351a1 1 0 1 0 1.414 1.414l1.35-1.351z" clip-rule="evenodd"/><path fill="#1A1A1A" d="M21.856 632.684c-1.547 0-2.816-.554-3.808-1.664-.992-1.109-1.488-2.576-1.488-4.4 0-1.813.501-3.258 1.504-4.336 1.013-1.077 2.288-1.616 3.824-1.616 1.387 0 2.507.363 3.36 1.088.853.715 1.333 1.696 1.44 2.944h-2.256c-.096-.629-.357-1.114-.784-1.456-.416-.352-.965-.528-1.648-.528-.96 0-1.712.352-2.256 1.056-.544.704-.816 1.654-.816 2.848 0 1.238.272 2.219.816 2.944.544.715 1.296 1.072 2.256 1.072.693 0 1.248-.186 1.664-.56.416-.373.672-.869.768-1.488h2.24c-.096 1.28-.57 2.283-1.424 3.008-.853.726-1.984 1.088-3.392 1.088zm11.27-4.208v-4.416h2.256v8.256h-2.208l-.032-1.12c-.534.886-1.328 1.328-2.384 1.328-.854 0-1.52-.261-2-.784-.47-.522-.704-1.237-.704-2.144v-5.536h2.256v5.024c0 .448.101.795.304 1.04.213.246.512.368.896.368.48 0 .87-.181 1.168-.544.298-.373.448-.864.448-1.472zm8.37-2.752-1.536-.048v4.048c0 .278.058.48.176.608.128.118.33.176.608.176h.752v1.808h-1.472c-.832 0-1.43-.176-1.792-.528-.352-.362-.528-.96-.528-1.792v-4.32l-1.12.048v-1.664l1.12.032v-2.576h2.256v2.592l1.536-.048v1.664zm8.813 4.176 1.76-5.84h2.4l-3.297 9.728c-.223.683-.517 1.152-.88 1.408-.352.256-.842.384-1.471.384h-1.889v-1.92h1.088c.608 0 .998-.234 1.168-.704l.08-.224-3.215-8.672h2.48l1.52 4.64.256 1.2zm12.03 1.44c-.779.832-1.792 1.248-3.04 1.248s-2.261-.416-3.04-1.248c-.79-.821-1.184-1.861-1.184-3.12 0-1.248.394-2.293 1.184-3.136.79-.821 1.803-1.232 3.04-1.232s2.25.411 3.04 1.232c.79.843 1.184 1.888 1.184 3.136 0 1.259-.395 2.299-1.184 3.12zm-5.088-3.12c0 .8.187 1.435.56 1.904.373.47.87.704 1.488.704.63 0 1.13-.234 1.504-.704.363-.458.544-1.093.544-1.904 0-.81-.181-1.445-.544-1.904-.373-.469-.875-.704-1.504-.704-.619 0-1.115.235-1.488.704-.373.47-.56 1.104-.56 1.904zm12.797.256v-4.416h2.256v8.256h-2.208l-.032-1.12c-.534.886-1.328 1.328-2.384 1.328-.854 0-1.52-.261-2-.784-.47-.522-.704-1.237-.704-2.144v-5.536h2.256v5.024c0 .448.101.795.304 1.04.213.246.512.368.896.368.48 0 .869-.181 1.168-.544.298-.373.448-.864.448-1.472zm8.226-4.704c.266 0 .506.038.72.112v2.064a14.915 14.915 0 0 0-.464-.032c-1.366 0-2.048.795-2.048 2.384v4.016h-2.256v-8.256h2.208l-.032 1.104c.362-.928.986-1.392 1.872-1.392zm10.046 0c.267 0 .507.038.72.112v2.064a14.915 14.915 0 0 0-.464-.032c-1.365 0-2.047.795-2.047 2.384v4.016h-2.257v-8.256h2.209l-.032 1.104c.362-.928.986-1.392 1.871-1.392zm9.871 4.704v.384h-5.984c.043.619.235 1.104.576 1.456.342.352.795.528 1.36.528.8 0 1.334-.357 1.6-1.072l2.24.16c-.277.875-.741 1.542-1.392 2-.65.448-1.45.672-2.4.672-1.333 0-2.384-.416-3.152-1.248-.768-.832-1.152-1.898-1.152-3.2 0-1.248.368-2.277 1.104-3.088.736-.81 1.723-1.216 2.96-1.216 1.248 0 2.267.416 3.056 1.248.79.843 1.184 1.968 1.184 3.376zm-2.336-1.152c-.064-.576-.256-1.024-.576-1.344-.32-.32-.736-.48-1.248-.48s-.933.16-1.264.48c-.33.342-.522.79-.576 1.344h3.664zm7.906-1.6-1.536-.048v4.048c0 .278.059.48.176.608.128.118.331.176.608.176h.752v1.808h-1.472c-.832 0-1.429-.176-1.792-.528-.352-.362-.528-.96-.528-1.792v-4.32l-1.12.048v-1.664l1.12.032v-2.576h2.256v2.592l1.536-.048v1.664zm6.349 2.752v-4.416h2.256v8.256h-2.208l-.032-1.12c-.533.886-1.328 1.328-2.384 1.328-.853 0-1.52-.261-2-.784-.469-.522-.704-1.237-.704-2.144v-5.536h2.256v5.024c0 .448.101.795.304 1.04.213.246.512.368.896.368.48 0 .869-.181 1.168-.544.299-.373.448-.864.448-1.472zm8.226-4.704c.267 0 .507.038.72.112v2.064a14.846 14.846 0 0 0-.464-.032c-1.365 0-2.048.795-2.048 2.384v4.016h-2.256v-8.256h2.208l-.032 1.104c.363-.928.987-1.392 1.872-1.392zm6.623.08c.853 0 1.515.262 1.984.784.48.523.72 1.238.72 2.144v5.536h-2.256v-5.024c0-.448-.107-.794-.32-1.04-.203-.245-.496-.368-.88-.368-.48 0-.869.187-1.168.56-.299.363-.448.848-.448 1.456v4.416h-2.256v-8.256h2.208l.032 1.12c.533-.885 1.328-1.328 2.384-1.328zm14.754 8.032c-.651.491-1.541.736-2.672.736-1.131 0-2.005-.24-2.624-.72-.629-.48-1.003-1.162-1.12-2.048l2.064-.08c.149.854.736 1.28 1.76 1.28.459 0 .821-.08 1.088-.24.267-.16.4-.384.4-.672 0-.405-.363-.682-1.088-.832l-1.632-.32c-1.6-.32-2.4-1.125-2.4-2.416 0-.832.304-1.493.912-1.984.608-.49 1.424-.736 2.448-.736.992 0 1.808.24 2.448.72.64.47 1.013 1.11 1.12 1.92l-2.032.08a1.207 1.207 0 0 0-.512-.848c-.277-.202-.629-.304-1.056-.304-.373 0-.672.08-.896.24a.75.75 0 0 0-.336.64c0 .416.309.694.928.832l1.776.368c.821.171 1.429.448 1.824.832.395.384.592.896.592 1.536 0 .864-.331 1.536-.992 2.016zm4.769.432h-2.256v-11.392h2.256v11.392zm4.172-9.344h-2.256v-2.048h2.256v2.048zm0 9.344h-2.256v-8.256h2.256v8.256zm6.571-8.464c.971 0 1.776.39 2.416 1.168.64.79.96 1.835.96 3.136 0 1.312-.33 2.379-.992 3.2-.661.822-1.514 1.232-2.56 1.232-.938 0-1.68-.346-2.224-1.04v4.032h-2.256v-11.52h2l.08 1.072c.566-.853 1.424-1.28 2.576-1.28zm-.656 6.752c.555 0 1.003-.224 1.344-.672.342-.448.512-1.04.512-1.776s-.17-1.322-.512-1.76c-.341-.448-.789-.672-1.344-.672-.554 0-1.002.224-1.344.672-.341.438-.512 1.024-.512 1.76s.171 1.328.512 1.776c.352.448.8.672 1.344.672zm11.741-7.632h-2.256v-2.048h2.256v2.048zm0 9.344h-2.256v-8.256h2.256v8.256zm6.54-8.464c.853 0 1.514.262 1.984.784.48.523.72 1.238.72 2.144v5.536h-2.256v-5.024c0-.448-.107-.794-.32-1.04-.203-.245-.496-.368-.88-.368-.48 0-.87.187-1.168.56-.299.363-.448.848-.448 1.456v4.416h-2.256v-8.256h2.208l.032 1.12c.533-.885 1.328-1.328 2.384-1.328zm13.25 0c.853 0 1.514.262 1.984.784.48.523.72 1.238.72 2.144v5.536h-2.256v-5.024c0-.448-.107-.794-.32-1.04-.203-.245-.496-.368-.88-.368-.48 0-.87.187-1.168.56-.299.363-.448.848-.448 1.456v4.416h-2.256v-11.392h2.256v4.24c.544-.874 1.333-1.312 2.368-1.312zm11.938 8.464h-2.288c-.118-.533-.176-.81-.176-.832-.587.715-1.435 1.072-2.544 1.072-.864 0-1.558-.229-2.08-.688-.523-.458-.784-1.066-.784-1.824 0-1.333.837-2.165 2.512-2.496l2.88-.576v-.608c0-.597-.464-.896-1.392-.896-.459 0-.806.086-1.04.256-.235.171-.379.448-.432.832l-2.064-.032c.138-1.77 1.312-2.656 3.52-2.656 2.378 0 3.568 1.024 3.568 3.072v3.648c0 .779.106 1.355.32 1.728zm-4.368-1.424c.565 0 1.018-.165 1.36-.496.352-.341.528-.8.528-1.376v-.608l-2.112.448c-.715.139-1.072.486-1.072 1.04a.88.88 0 0 0 .336.72c.234.182.554.272.96.272zm8.218 1.424h-2.256v-11.392h2.256v11.392zm6.172-9.584h-.624c-.63 0-.944.315-.944.944v.432l1.568-.048v1.664l-1.568-.048v6.64h-2.256v-6.64l-1.152.048v-1.664l1.152.048v-.544c0-.853.224-1.504.672-1.952.458-.458 1.114-.688 1.968-.688h1.184v1.808zM26.976 660.316h-1.648l-1.2-3.344h-4.832l-1.232 3.344H16.48l4.416-11.392h1.68l4.4 11.392zm-5.616-8.96-1.584 4.32h3.888l-1.552-4.32-.368-1.184-.384 1.184zm11.421-1.2h-.848c-.395 0-.666.075-.816.224-.15.15-.224.422-.224.816v.928l1.888-.064v1.136l-1.888-.064v7.184h-1.472v-7.184l-1.328.064v-1.136l1.328.048v-.704c0-.864.198-1.493.592-1.888.395-.394 1.024-.592 1.888-.592h.88v1.232zm5.639 3.04-1.889-.064v5.152c0 .31.054.523.16.64.118.107.331.16.64.16h1.072v1.232H36.9c-.64 0-1.11-.144-1.408-.432-.288-.298-.432-.768-.432-1.408v-5.344l-1.233.064v-1.136l1.233.048v-2.576h1.471v2.592l1.889-.064v1.136zm8.95 2.8v.544h-6.192c.022.896.25 1.584.688 2.064.438.47 1.04.704 1.808.704 1.142 0 1.904-.549 2.288-1.648l1.344.16c-.256.854-.71 1.515-1.36 1.984-.64.47-1.413.704-2.32.704-1.226 0-2.181-.405-2.864-1.216-.704-.8-1.056-1.845-1.056-3.136 0-1.29.347-2.33 1.04-3.12.683-.778 1.632-1.168 2.848-1.168 1.163 0 2.08.368 2.752 1.104.683.736 1.024 1.744 1.024 3.024zm-2.128-2.304c-.416-.416-.96-.624-1.632-.624-.661 0-1.21.203-1.648.608-.426.416-.682 1.019-.768 1.808h4.8c-.096-.768-.346-1.365-.752-1.792zm8.274-1.856c.16 0 .261.006.304.016v1.44a5.294 5.294 0 0 0-.528-.016c-.598 0-1.13.224-1.6.672-.48.448-.736 1.067-.768 1.856v4.512h-1.472v-8.256h1.376v1.664c.576-1.258 1.472-1.888 2.688-1.888zm9.179 6.912 2.384-6.688h1.52l-3.84 9.872c-.245.619-.539 1.046-.88 1.28-.33.246-.795.368-1.392.368h-.912v-1.232h.768c.373 0 .65-.074.832-.224.192-.149.373-.442.544-.88l.384-1.008-3.328-8.176h1.6l2.144 5.696.176.992zm8.76 1.776c-1.194 0-2.149-.4-2.864-1.2-.735-.8-1.103-1.845-1.103-3.136 0-1.322.373-2.373 1.12-3.152.736-.789 1.7-1.184 2.895-1.184 1.163 0 2.112.384 2.849 1.152.725.79 1.087 1.83 1.087 3.12 0 1.302-.373 2.358-1.12 3.168-.757.822-1.712 1.232-2.864 1.232zm0-1.232c.78 0 1.392-.288 1.84-.864.448-.576.672-1.344.672-2.304 0-.938-.224-1.68-.671-2.224-.438-.544-1.051-.816-1.84-.816-.78 0-1.392.278-1.84.832-.438.555-.656 1.312-.656 2.272 0 .939.224 1.691.672 2.256.447.566 1.055.848 1.823.848zm11.531-2.64v-4.592h1.472v8.256h-1.376v-1.168c-.597.918-1.52 1.376-2.768 1.376-.874 0-1.562-.24-2.064-.72-.49-.48-.736-1.152-.736-2.016v-5.728h1.472v5.44c0 1.163.55 1.744 1.648 1.744.694 0 1.259-.213 1.696-.64.438-.437.656-1.088.656-1.952zm5.324-3.312h-1.296v-4.416h1.296v4.416zm6.276 3.488 1.568-4.768h1.488l-3.024 8.256h-1.456l-3.168-8.256h1.584l1.648 4.768.688 2.224.672-2.224zm11.612-.832v.544h-6.192c.022.896.251 1.584.688 2.064.438.47 1.04.704 1.808.704 1.142 0 1.904-.549 2.288-1.648l1.344.16c-.256.854-.709 1.515-1.36 1.984-.64.47-1.413.704-2.32.704-1.226 0-2.181-.405-2.864-1.216-.704-.8-1.056-1.845-1.056-3.136 0-1.29.347-2.33 1.04-3.12.683-.778 1.632-1.168 2.848-1.168 1.163 0 2.08.368 2.752 1.104.683.736 1.024 1.744 1.024 3.024zm-2.128-2.304c-.416-.416-.96-.624-1.632-.624-.661 0-1.21.203-1.648.608-.426.416-.682 1.019-.768 1.808h4.8c-.096-.768-.346-1.365-.752-1.792zm12.507-1.808c1.066 0 1.925.374 2.576 1.12.65.747.975 1.744.975 2.992 0 1.312-.325 2.39-.975 3.232-.651.843-1.531 1.264-2.64 1.264-1.035 0-1.851-.394-2.448-1.184v4.272h-1.472v-11.52h1.28v1.328a2.81 2.81 0 0 1 1.088-1.088 3.173 3.173 0 0 1 1.616-.416zm-1.92 6.496c.437.566 1.008.848 1.712.848s1.264-.298 1.68-.896c.405-.597.608-1.376.608-2.336 0-.917-.198-1.621-.592-2.112-.395-.49-.96-.736-1.696-.736-.726 0-1.307.256-1.744.768-.427.512-.64 1.238-.64 2.176 0 .96.224 1.723.672 2.288zm11.609-6.544c.16 0 .261.006.304.016v1.44a5.303 5.303 0 0 0-.528-.016c-.597 0-1.131.224-1.6.672-.48.448-.736 1.067-.768 1.856v4.512h-1.472v-8.256h1.376v1.664c.576-1.258 1.472-1.888 2.688-1.888zm3.299-1.328h-1.472v-1.584h1.472v1.584zm0 9.808h-1.472v-8.256h1.472v8.256zm6.703-8.464c.874 0 1.557.24 2.048.72.501.48.752 1.152.752 2.016v5.728h-1.472v-5.44c0-1.162-.55-1.744-1.648-1.744-.694 0-1.259.219-1.696.656-.438.427-.656 1.072-.656 1.936v4.592h-1.472v-8.256h1.376v1.168c.597-.917 1.52-1.376 2.768-1.376zm9.308 1.344-1.888-.064v5.152c0 .31.053.523.16.64.117.107.33.16.64.16h1.072v1.232h-1.504c-.64 0-1.11-.144-1.408-.432-.288-.298-.432-.768-.432-1.408v-5.344l-1.232.064v-1.136l1.232.048v-2.576h1.472v2.592l1.888-.064v1.136zm8.951 2.8v.544h-6.192c.021.896.25 1.584.688 2.064.437.47 1.04.704 1.808.704 1.141 0 1.904-.549 2.288-1.648l1.344.16c-.256.854-.71 1.515-1.36 1.984-.64.47-1.414.704-2.32.704-1.227 0-2.182-.405-2.864-1.216-.704-.8-1.056-1.845-1.056-3.136 0-1.29.346-2.33 1.04-3.12.682-.778 1.632-1.168 2.848-1.168 1.162 0 2.08.368 2.752 1.104.682.736 1.024 1.744 1.024 3.024zm-2.128-2.304c-.416-.416-.96-.624-1.633-.624-.661 0-1.21.203-1.647.608-.427.416-.683 1.019-.768 1.808h4.8c-.096-.768-.347-1.365-.752-1.792zm9.793-.64v-4.128h1.472v11.392h-1.28v-1.312a2.803 2.803 0 0 1-1.088 1.088c-.469.267-.992.4-1.568.4-1.099 0-1.973-.416-2.624-1.248-.651-.81-.976-1.872-.976-3.184 0-1.237.331-2.245.992-3.024.661-.768 1.52-1.152 2.576-1.152 1.088 0 1.92.39 2.496 1.168zm-3.984 5.312c.405.576.96.864 1.664.864s1.28-.282 1.728-.848c.448-.565.672-1.328.672-2.288 0-.938-.213-1.664-.64-2.176-.427-.512-1.003-.768-1.728-.768-.736 0-1.307.256-1.712.768-.395.502-.592 1.216-.592 2.144 0 .971.203 1.739.608 2.304zm15.362.384 2.384-6.688h1.52l-3.84 9.872c-.245.619-.539 1.046-.88 1.28-.331.246-.795.368-1.392.368h-.912v-1.232h.768c.373 0 .651-.074.832-.224.192-.149.373-.442.544-.88l.384-1.008-3.328-8.176h1.6l2.144 5.696.176.992zm8.761 1.776c-1.195 0-2.15-.4-2.864-1.2-.736-.8-1.104-1.845-1.104-3.136 0-1.322.373-2.373 1.12-3.152.736-.789 1.701-1.184 2.896-1.184 1.162 0 2.112.384 2.848 1.152.725.79 1.088 1.83 1.088 3.12 0 1.302-.374 2.358-1.12 3.168-.758.822-1.712 1.232-2.864 1.232zm0-1.232c.778 0 1.392-.288 1.84-.864.448-.576.672-1.344.672-2.304 0-.938-.224-1.68-.672-2.224-.438-.544-1.051-.816-1.84-.816-.779 0-1.392.278-1.84.832-.438.555-.656 1.312-.656 2.272 0 .939.224 1.691.672 2.256.448.566 1.056.848 1.824.848zm11.53-2.64v-4.592h1.472v8.256h-1.376v-1.168c-.597.918-1.52 1.376-2.768 1.376-.874 0-1.562-.24-2.064-.72-.49-.48-.736-1.152-.736-2.016v-5.728h1.472v5.44c0 1.163.55 1.744 1.648 1.744.694 0 1.259-.213 1.696-.64.438-.437.656-1.088.656-1.952zm8.092-4.816c.16 0 .262.006.304.016v1.44a5.274 5.274 0 0 0-.528-.016c-.597 0-1.13.224-1.6.672-.48.448-.736 1.067-.768 1.856v4.512h-1.472v-8.256h1.376v1.664c.576-1.258 1.472-1.888 2.688-1.888zm10.204 0c.16 0 .261.006.304.016v1.44a5.303 5.303 0 0 0-.528-.016c-.598 0-1.131.224-1.6.672-.48.448-.736 1.067-.768 1.856v4.512h-1.472v-8.256h1.376v1.664c.576-1.258 1.472-1.888 2.688-1.888zm9.01 4.16v.544h-6.192c.021.896.251 1.584.688 2.064.437.47 1.04.704 1.808.704 1.141 0 1.904-.549 2.288-1.648l1.344.16c-.256.854-.709 1.515-1.36 1.984-.64.47-1.413.704-2.32.704-1.227 0-2.181-.405-2.864-1.216-.704-.8-1.056-1.845-1.056-3.136 0-1.29.347-2.33 1.04-3.12.683-.778 1.632-1.168 2.848-1.168 1.163 0 2.08.368 2.752 1.104.683.736 1.024 1.744 1.024 3.024zm-2.128-2.304c-.416-.416-.96-.624-1.632-.624-.661 0-1.211.203-1.648.608-.427.416-.683 1.019-.768 1.808h4.8c-.096-.768-.347-1.365-.752-1.792zm7.849-.496-1.888-.064v5.152c0 .31.054.523.16.64.118.107.331.16.64.16h1.072v1.232h-1.504c-.64 0-1.109-.144-1.408-.432-.288-.298-.432-.768-.432-1.408v-5.344l-1.232.064v-1.136l1.232.048v-2.576H225v2.592l1.888-.064v1.136zm7.239 3.456v-4.592h1.472v8.256h-1.376v-1.168c-.597.918-1.52 1.376-2.768 1.376-.875 0-1.563-.24-2.064-.72-.491-.48-.736-1.152-.736-2.016v-5.728h1.472v5.44c0 1.163.549 1.744 1.648 1.744.693 0 1.259-.213 1.696-.64.437-.437.656-1.088.656-1.952zm8.092-4.816c.16 0 .261.006.304.016v1.44a5.303 5.303 0 0 0-.528-.016c-.597 0-1.131.224-1.6.672-.48.448-.736 1.067-.768 1.856v4.512h-1.472v-8.256h1.376v1.664c.576-1.258 1.472-1.888 2.688-1.888zm5.971.016c.874 0 1.557.24 2.048.72.501.48.752 1.152.752 2.016v5.728h-1.472v-5.44c0-1.162-.55-1.744-1.648-1.744-.694 0-1.259.219-1.696.656-.438.427-.656 1.072-.656 1.936v4.592h-1.472v-8.256h1.376v1.168c.597-.917 1.52-1.376 2.768-1.376zm12.468 8.672c-2.101 0-3.248-.938-3.44-2.816h1.408c.075.566.283.982.624 1.248.341.256.832.384 1.472.384s1.125-.112 1.456-.336c.341-.224.512-.544.512-.96 0-.618-.432-1.018-1.296-1.2l-1.664-.352c-1.525-.32-2.288-1.066-2.288-2.24 0-.746.267-1.328.8-1.744.533-.426 1.291-.64 2.272-.64.971 0 1.744.219 2.32.656.587.438.933 1.083 1.04 1.936h-1.456c-.16-.949-.811-1.424-1.952-1.424-1.109 0-1.664.363-1.664 1.088 0 .288.096.523.288.704.203.171.533.304.992.4l1.6.352c.832.192 1.44.48 1.824.864.395.374.592.864.592 1.472 0 .811-.304 1.451-.912 1.92-.608.459-1.451.688-2.528.688zm6.75-.208h-1.472v-11.392h1.472v11.392zm4.032-9.808h-1.472v-1.584h1.472v1.584zm0 9.808h-1.472v-8.256h1.472v8.256zm6.543-8.432c1.066 0 1.925.374 2.576 1.12.65.747.976 1.744.976 2.992 0 1.312-.326 2.39-.976 3.232-.651.843-1.531 1.264-2.64 1.264-1.035 0-1.851-.394-2.448-1.184v4.272h-1.472v-11.52h1.28v1.328a2.81 2.81 0 0 1 1.088-1.088 3.173 3.173 0 0 1 1.616-.416zm-1.92 6.496c.437.566 1.008.848 1.712.848s1.264-.298 1.68-.896c.405-.597.608-1.376.608-2.336 0-.917-.198-1.621-.592-2.112-.395-.49-.96-.736-1.696-.736-.726 0-1.307.256-1.744.768-.427.512-.64 1.238-.64 2.176 0 .96.224 1.723.672 2.288zm7.961 4.224h-.16v-.8h.16c.501 0 .752-.25.752-.752v-.816l-.928.08v-1.6h1.76v2.16c0 1.152-.528 1.728-1.584 1.728zm12.038-2.08c-1.184 0-2.118-.373-2.8-1.12-.683-.746-1.024-1.797-1.024-3.152 0-1.376.346-2.453 1.04-3.232.693-.778 1.648-1.168 2.863-1.168.971 0 1.761.256 2.369.768.608.502.981 1.216 1.12 2.144h-1.392c-.224-1.12-.918-1.68-2.08-1.68-1.632 0-2.448 1.035-2.448 3.104 0 .982.208 1.744.624 2.288.426.544 1.029.816 1.807.816 1.163 0 1.867-.618 2.113-1.856h1.376c-.15.992-.528 1.755-1.136 2.288-.608.534-1.419.8-2.432.8zm11.034-3.872v-4.592h1.472v8.256h-1.376v-1.168c-.598.918-1.52 1.376-2.768 1.376-.875 0-1.563-.24-2.064-.72-.491-.48-.736-1.152-.736-2.016v-5.728h1.472v5.44c0 1.163.549 1.744 1.648 1.744.693 0 1.258-.213 1.696-.64.437-.437.656-1.088.656-1.952zm7.98-3.456-1.888-.064v5.152c0 .31.053.523.16.64.117.107.33.16.64.16h1.072v1.232h-1.504c-.64 0-1.11-.144-1.408-.432-.288-.298-.432-.768-.432-1.408v-5.344l-1.232.064v-1.136l1.232.048v-2.576h1.472v2.592l1.888-.064v1.136zm7.551-2.688h-1.472v-1.584h1.472v1.584zm0 9.808h-1.472v-8.256h1.472v8.256zm6.511-7.12-1.888-.064v5.152c0 .31.054.523.16.64.118.107.331.16.64.16h1.072v1.232h-1.504c-.64 0-1.109-.144-1.408-.432-.288-.298-.432-.768-.432-1.408v-5.344l-1.232.064v-1.136l1.232.048v-2.576h1.472v2.592l1.888-.064v1.136zm7.552-2.688h-1.472v-1.584h1.472v1.584zm0 9.808h-1.472v-8.256h1.472v8.256zm6.703-8.464c.874 0 1.557.24 2.048.72.501.48.752 1.152.752 2.016v5.728h-1.472v-5.44c0-1.162-.55-1.744-1.648-1.744-.694 0-1.259.219-1.696.656-.438.427-.656 1.072-.656 1.936v4.592h-1.472v-8.256h1.376v1.168c.597-.917 1.52-1.376 2.768-1.376zm-321.969 24c.875 0 1.557.24 2.048.72.501.48.752 1.152.752 2.016v5.728h-1.472v-5.44c0-1.162-.55-1.744-1.648-1.744-.693 0-1.259.219-1.696.656-.437.427-.656 1.072-.656 1.936v4.592H17.28v-11.392h1.472v4.176c.597-.832 1.488-1.248 2.672-1.248zm12.636 7.376h.24v1.088h-.784c-.885 0-1.36-.405-1.424-1.216-.288.438-.693.784-1.216 1.04s-1.115.384-1.776.384c-.864 0-1.541-.208-2.032-.624-.49-.426-.736-1.018-.736-1.776 0-1.472.939-2.33 2.816-2.576l2.112-.272c.395-.042.592-.25.592-.624v-.352c0-.853-.619-1.28-1.856-1.28-.619 0-1.077.112-1.376.336-.288.224-.453.603-.496 1.136h-1.456c.139-1.792 1.285-2.688 3.44-2.688 2.155 0 3.232.88 3.232 2.64v4.064c0 .267.053.454.16.56.107.107.293.16.56.16zm-4.688.16c.672 0 1.253-.197 1.744-.592.49-.394.736-.853.736-1.376v-1.152l-2.464.368c-1.067.16-1.6.635-1.6 1.424 0 .416.139.742.416.976.288.235.677.352 1.168.352zm8.005.928h-1.472v-11.392h1.472v11.392zm6.607-10.16h-.848c-.394 0-.666.075-.816.224-.15.15-.224.422-.224.816v.928l1.888-.064v1.136l-1.888-.064v7.184h-1.472v-7.184l-1.328.064v-1.136l1.328.048v-.704c0-.864.198-1.493.592-1.888.395-.394 1.024-.592 1.888-.592h.88v1.232zm13.28 9.072h.24v1.088h-.785c-.885 0-1.36-.405-1.424-1.216-.288.438-.693.784-1.216 1.04s-1.114.384-1.776.384c-.864 0-1.541-.208-2.032-.624-.49-.426-.736-1.018-.736-1.776 0-1.472.939-2.33 2.816-2.576l2.112-.272c.395-.042.592-.25.592-.624v-.352c0-.853-.618-1.28-1.856-1.28-.618 0-1.077.112-1.376.336-.288.224-.453.603-.496 1.136h-1.456c.139-1.792 1.285-2.688 3.44-2.688 2.155 0 3.232.88 3.232 2.64v4.064c0 .267.053.454.16.56.107.107.293.16.56.16zm-4.689.16c.672 0 1.253-.197 1.744-.592.49-.394.736-.853.736-1.376v-1.152l-2.464.368c-1.066.16-1.6.635-1.6 1.424 0 .416.139.742.416.976.288.235.678.352 1.168.352zm8.005.928h-1.472v-11.392h1.472v11.392zm6.047.208c-1.194 0-2.149-.4-2.864-1.2-.736-.8-1.104-1.845-1.104-3.136 0-1.322.374-2.373 1.12-3.152.736-.789 1.702-1.184 2.896-1.184 1.163 0 2.112.384 2.848 1.152.726.79 1.088 1.83 1.088 3.12 0 1.302-.373 2.358-1.12 3.168-.757.822-1.712 1.232-2.864 1.232zm0-1.232c.779 0 1.392-.288 1.84-.864.448-.576.672-1.344.672-2.304 0-.938-.224-1.68-.672-2.224-.437-.544-1.05-.816-1.84-.816-.778 0-1.392.278-1.84.832-.437.555-.656 1.312-.656 2.272 0 .939.224 1.691.672 2.256.448.566 1.056.848 1.824.848zm10.203-7.44c.875 0 1.558.24 2.048.72.502.48.752 1.152.752 2.016v5.728h-1.472v-5.44c0-1.162-.55-1.744-1.648-1.744-.693 0-1.258.219-1.696.656-.437.427-.656 1.072-.656 1.936v4.592h-1.472v-8.256h1.376v1.168c.598-.917 1.52-1.376 2.768-1.376zm11.116 1.488v-1.28h1.376v7.984c0 2.486-1.29 3.728-3.872 3.728-1.013 0-1.824-.202-2.432-.608-.597-.405-.95-1.008-1.056-1.808h1.44c.107.438.326.752.656.944.342.203.822.304 1.44.304.854 0 1.467-.186 1.84-.56.374-.373.56-.992.56-1.856v-1.072c-.266.427-.63.763-1.088 1.008a3.13 3.13 0 0 1-1.504.368c-1.098 0-1.973-.416-2.624-1.248-.65-.81-.976-1.872-.976-3.184 0-1.237.33-2.245.992-3.024.662-.768 1.52-1.152 2.576-1.152.587 0 1.115.128 1.584.384a2.7 2.7 0 0 1 1.088 1.072zm-4.16 5.024c.406.576.96.864 1.664.864s1.28-.282 1.728-.848c.448-.565.672-1.328.672-2.288 0-.938-.213-1.664-.64-2.176-.426-.512-1.002-.768-1.728-.768-.736 0-1.306.256-1.712.768-.394.502-.592 1.216-.592 2.144 0 .971.203 1.739.608 2.304zm16.368-5.168-1.888-.064v5.152c0 .31.053.523.16.64.117.107.33.16.64.16h1.072v1.232h-1.504c-.64 0-1.11-.144-1.408-.432-.288-.298-.432-.768-.432-1.408v-5.344l-1.232.064v-1.136l1.232.048v-2.576h1.472v2.592l1.888-.064v1.136zm5.911-1.344c.874 0 1.557.24 2.048.72.501.48.752 1.152.752 2.016v5.728h-1.472v-5.44c0-1.162-.55-1.744-1.648-1.744-.694 0-1.259.219-1.696.656-.438.427-.656 1.072-.656 1.936v4.592h-1.472v-11.392h1.472v4.176c.597-.832 1.488-1.248 2.672-1.248zm12.54 4.144v.544h-6.192c.021.896.25 1.584.688 2.064.437.47 1.04.704 1.808.704 1.141 0 1.904-.549 2.288-1.648l1.344.16c-.256.854-.71 1.515-1.36 1.984-.64.47-1.414.704-2.32.704-1.227 0-2.182-.405-2.864-1.216-.704-.8-1.056-1.845-1.056-3.136 0-1.29.346-2.33 1.04-3.12.682-.778 1.632-1.168 2.848-1.168 1.162 0 2.08.368 2.752 1.104.682.736 1.024 1.744 1.024 3.024zm-2.128-2.304c-.416-.416-.96-.624-1.632-.624-.662 0-1.211.203-1.648.608-.427.416-.683 1.019-.768 1.808h4.8c-.096-.768-.347-1.365-.752-1.792zm14.106-.64v-4.128h1.472v11.392h-1.28v-1.312a2.803 2.803 0 0 1-1.088 1.088c-.47.267-.992.4-1.568.4-1.099 0-1.974-.416-2.624-1.248-.651-.81-.976-1.872-.976-3.184 0-1.237.33-2.245.992-3.024.661-.768 1.52-1.152 2.576-1.152 1.088 0 1.92.39 2.496 1.168zm-3.984 5.312c.405.576.96.864 1.664.864s1.28-.282 1.728-.848c.448-.565.672-1.328.672-2.288 0-.938-.214-1.664-.64-2.176-.427-.512-1.003-.768-1.728-.768-.736 0-1.307.256-1.712.768-.395.502-.592 1.216-.592 2.144 0 .971.202 1.739.608 2.304zm11.497 2.16c-1.195 0-2.149-.4-2.864-1.2-.736-.8-1.104-1.845-1.104-3.136 0-1.322.373-2.373 1.12-3.152.736-.789 1.701-1.184 2.896-1.184 1.163 0 2.112.384 2.848 1.152.725.79 1.088 1.83 1.088 3.12 0 1.302-.373 2.358-1.12 3.168-.757.822-1.712 1.232-2.864 1.232zm0-1.232c.779 0 1.392-.288 1.84-.864.448-.576.672-1.344.672-2.304 0-.938-.224-1.68-.672-2.224-.437-.544-1.051-.816-1.84-.816-.779 0-1.392.278-1.84.832-.437.555-.656 1.312-.656 2.272 0 .939.224 1.691.672 2.256.448.566 1.056.848 1.824.848zm9.699-6.096-1.888-.064v5.152c0 .31.053.523.16.64.117.107.33.16.64.16h1.072v1.232h-1.504c-.64 0-1.11-.144-1.408-.432-.288-.298-.432-.768-.432-1.408v-5.344l-1.232.064v-1.136l1.232.048v-2.576h1.472v2.592l1.888-.064v1.136zm5.718 0-1.888-.064v5.152c0 .31.054.523.16.64.118.107.331.16.64.16h1.072v1.232h-1.504c-.64 0-1.109-.144-1.408-.432-.288-.298-.432-.768-.432-1.408v-5.344l-1.232.064v-1.136l1.232.048v-2.576h1.472v2.592l1.888-.064v1.136zm8.951 2.8v.544h-6.192c.021.896.251 1.584.688 2.064.437.47 1.04.704 1.808.704 1.141 0 1.904-.549 2.288-1.648l1.344.16c-.256.854-.709 1.515-1.36 1.984-.64.47-1.413.704-2.32.704-1.227 0-2.181-.405-2.864-1.216-.704-.8-1.056-1.845-1.056-3.136 0-1.29.347-2.33 1.04-3.12.683-.778 1.632-1.168 2.848-1.168 1.163 0 2.08.368 2.752 1.104.683.736 1.024 1.744 1.024 3.024zm-2.128-2.304c-.416-.416-.96-.624-1.632-.624-.661 0-1.211.203-1.648.608-.427.416-.683 1.019-.768 1.808h4.8c-.096-.768-.347-1.365-.752-1.792zm9.794-.64v-4.128h1.472v11.392h-1.28v-1.312a2.803 2.803 0 0 1-1.088 1.088c-.47.267-.992.4-1.568.4-1.099 0-1.974-.416-2.624-1.248-.651-.81-.976-1.872-.976-3.184 0-1.237.33-2.245.992-3.024.661-.768 1.52-1.152 2.576-1.152 1.088 0 1.92.39 2.496 1.168zm-3.984 5.312c.405.576.96.864 1.664.864s1.28-.282 1.728-.848c.448-.565.672-1.328.672-2.288 0-.938-.214-1.664-.64-2.176-.427-.512-1.003-.768-1.728-.768-.736 0-1.307.256-1.712.768-.395.502-.592 1.216-.592 2.144 0 .971.202 1.739.608 2.304zm13.794 1.952h-1.472v-11.392h1.472v11.392zm4.031-9.808h-1.472v-1.584h1.472v1.584zm0 9.808h-1.472v-8.256h1.472v8.256zm6.703-8.464c.875 0 1.557.24 2.048.72.501.48.752 1.152.752 2.016v5.728h-1.472v-5.44c0-1.162-.549-1.744-1.648-1.744-.693 0-1.259.219-1.696.656-.437.427-.656 1.072-.656 1.936v4.592h-1.472v-8.256h1.376v1.168c.597-.917 1.52-1.376 2.768-1.376zm12.54 4.144v.544h-6.192c.021.896.251 1.584.688 2.064.437.47 1.04.704 1.808.704 1.141 0 1.904-.549 2.288-1.648l1.344.16c-.256.854-.709 1.515-1.36 1.984-.64.47-1.413.704-2.32.704-1.227 0-2.181-.405-2.864-1.216-.704-.8-1.056-1.845-1.056-3.136 0-1.29.347-2.33 1.04-3.12.683-.778 1.632-1.168 2.848-1.168 1.163 0 2.08.368 2.752 1.104.683.736 1.024 1.744 1.024 3.024zm-2.128-2.304c-.416-.416-.96-.624-1.632-.624-.661 0-1.211.203-1.648.608-.427.416-.683 1.019-.768 1.808h4.8c-.096-.768-.347-1.365-.752-1.792zm6.098 6.624h-1.808V682.7h1.808v1.616z"/></g><defs><clipPath id="a"><path fill="#fff" d="M0 40C0 17.909 17.909 0 40 0h295c22.091 0 40 17.909 40 40v684H0V40z"/></clipPath><clipPath id="b"><path fill="#fff" d="M54 44.287h267v44H54z"/></clipPath></defs></svg>